<svg width="1592" height="3448" viewBox="0 0 1592 3448" fill="none" xmlns="http://www.w3.org/2000/svg">
<g filter="url(#filter0_d_40_2308)">
<path d="M-16.7959 3469.89L-16.0072 2991.32C-16.0072 2991.32 134.075 3482.21 941.534 3469.89H-16.7959Z" fill="url(#paint0_linear_40_2308)"/>
</g>
<g filter="url(#filter1_d_40_2308)">
<path d="M942 3189.98C551.6 3181.62 280.667 3365.84 194 3459H1617V2818C1554.67 2945.48 1332.4 3198.34 942 3189.98Z" fill="url(#paint1_radial_40_2308)"/>
</g>
<g filter="url(#filter2_d_40_2308)">
<path d="M1600 -11V858C1600 858 1313.57 23.499 496 -11H1599.97H1600Z" fill="url(#paint2_linear_40_2308)"/>
</g>
<g filter="url(#filter3_d_40_2308)">
<path d="M-7.19243 -21H1599V505C1599 505 1348.16 -129.369 -8 147.617L-7.19243 -21Z" fill="url(#paint3_linear_40_2308)"/>
</g>
<g clip-path="url(#clip0_40_2308)">
<mask id="mask0_40_2308" style="mask-type:luminance" maskUnits="userSpaceOnUse" x="1335" y="51" width="183" height="158">
<path d="M1518 51H1335V208.613H1518V51Z" fill="white"/>
</mask>
<g mask="url(#mask0_40_2308)">
<path fill-rule="evenodd" clip-rule="evenodd" d="M1413.65 69.808C1420.22 66.5987 1427.14 64.1054 1434.22 62.3105C1440.54 60.7111 1452.83 59.1814 1453.94 57.8736C1454.31 57.4411 1449.85 57.6058 1447.84 57.8407C1444.93 58.1799 1442.04 58.6238 1439.16 59.1602C1433.26 60.2603 1427.43 61.745 1421.72 63.5946C1389.52 74.0177 1361.36 96.7384 1345.29 126.536C1343.44 129.968 1335.78 142.936 1335.06 151.66C1334.71 155.853 1335.96 159.067 1340.23 159.768C1346.65 160.824 1347.44 154.365 1348.37 149.802C1350.01 141.7 1352.98 133.33 1356.31 125.774C1367.24 100.937 1389.57 81.5681 1413.65 69.808Z" fill="#323232"/>
<path fill-rule="evenodd" clip-rule="evenodd" d="M1517.71 138.992C1517.04 135.803 1494.55 93.5863 1489.21 84.6138C1488.03 82.6302 1492.39 84.8153 1494.88 85.5952C1497.88 86.5298 1499.77 84.7837 1499.77 84.7837C1487.85 78.6433 1492.16 67.3994 1478.09 73.0963C1483.44 65.5161 1487.59 64.2532 1488.18 51C1468.03 70.9074 1423.42 59.3836 1422.58 88.9395C1422.44 93.4542 1424.1 104.572 1415.85 114.046C1414.45 115.655 1424.1 87.277 1412.48 96.8153C1405.23 102.775 1391.59 109.949 1392.37 121.036C1392.75 126.398 1402.65 135.047 1396.88 149.874C1396.19 151.637 1395.17 132.054 1386.67 136.772C1373.42 144.119 1372.02 181.585 1383.83 177.811C1412.74 168.574 1425.21 190.593 1454.01 191.964C1469 192.678 1481.59 185.33 1481.59 185.33C1446.4 176.544 1436.71 138.515 1447.2 119.933L1449.9 123.503C1460.14 138.088 1476.09 129.039 1481.84 126.996C1478.53 132.063 1473.58 130.415 1471.2 134.496C1474.47 137.391 1481.85 141.391 1485.6 143.574C1493.86 148.366 1489.58 151.521 1495.15 155.056C1498.06 156.896 1500.88 156.405 1504.42 156.411C1506.12 156.414 1498.64 147.817 1498.74 147.266C1499.22 144.591 1506.27 156.256 1507.85 155.581C1514.15 152.884 1519.3 146.601 1517.71 138.992ZM1487.78 102.657C1482.91 101.779 1482.57 101.34 1480.68 96.9087C1485.68 98.4136 1488.06 97.5493 1487.78 102.657ZM1510.05 143.07C1509.79 143.414 1508.6 143.587 1508.16 142.726C1507.4 141.261 1507.28 139.182 1507.78 136.519C1507.26 142.853 1511.63 140.924 1510.05 143.07Z" fill="#323232"/>
<path fill-rule="evenodd" clip-rule="evenodd" d="M1415.04 135.399C1424.5 141.986 1434.15 148.334 1444 154.35C1439.55 141.847 1439.95 128.254 1445.22 118.918L1446.94 115.865L1451.79 122.303C1455.19 127.131 1459.48 129.479 1464.92 129.479C1470.07 129.479 1475.23 127.353 1478.64 125.946C1479.6 125.551 1480.44 125.205 1481.14 124.957L1487.55 122.682L1483.84 128.367C1481.7 131.652 1478.97 132.671 1476.78 133.489C1475.91 133.814 1475.23 134.079 1474.68 134.391C1477.55 136.432 1481.72 138.813 1484.69 140.505C1485.48 140.958 1486.21 141.371 1486.84 141.735C1492.14 144.813 1493.09 147.554 1493.85 149.757C1494.36 151.232 1494.66 152.123 1496.49 153.28C1497.86 154.146 1499.24 154.331 1501.01 154.336C1500.32 153.379 1499.55 152.371 1499.05 151.707C1496.78 148.732 1496.38 148.196 1496.59 147.01C1496.88 145.43 1498.1 144.722 1499.2 144.722C1500.95 144.722 1502.2 146.186 1505.12 149.796C1505.95 150.823 1507.22 152.399 1508.02 153.193C1512.86 150.756 1516.9 145.787 1515.61 139.636C1514.71 136.31 1493.27 95.8103 1487.33 85.8457C1486.53 84.5115 1486.79 83.4933 1487.14 82.8747C1487.36 82.4807 1488.04 81.5695 1489.52 81.5695C1490.4 81.5695 1491.41 81.8903 1492.86 82.4332C1491.29 80.7832 1490.18 79.1264 1489.25 77.7338C1487.41 74.983 1486.58 73.8665 1484.49 73.8665C1483.16 73.8665 1481.32 74.3361 1479.03 75.2643L1471.78 78.1991L1476.29 71.82C1477.57 70.0008 1478.79 68.5235 1479.88 67.2201C1482.62 63.9088 1484.52 61.6128 1485.43 56.3549C1476.9 62.3772 1465.98 64.7753 1455.37 67.1047C1439.22 70.6494 1425.28 73.713 1424.84 89.0723C1424.82 89.6815 1424.84 90.4146 1424.86 91.2528C1424.98 96.7014 1425.21 106.842 1417.53 115.652C1416.89 116.395 1416.11 116.508 1415.71 116.508L1414.58 116.495L1413.89 115.629C1413.08 114.619 1413.23 113.961 1414.07 110.313C1415.68 103.311 1416.28 98.9612 1415.85 97.3527C1415.48 97.5148 1414.85 97.8736 1413.89 98.6641C1412.44 99.8565 1410.78 101.068 1409.02 102.352C1402.12 107.384 1394.35 113.081 1394.57 120.569C1401.32 125.62 1408.12 130.587 1415.04 135.399ZM1505.65 136.233L1510.2 136.843C1510 139.19 1510.54 139.51 1511.06 139.821C1511.57 140.122 1512.52 140.683 1512.77 141.921C1513.03 143.215 1512.27 144.237 1512.02 144.581C1511.46 145.336 1510.47 145.788 1509.39 145.788C1508.02 145.788 1506.85 145.09 1506.25 143.924C1505.24 141.982 1505.04 139.467 1505.65 136.233ZM1481.41 94.7906C1482.4 95.0885 1483.31 95.2922 1484.1 95.4701C1487.24 96.1761 1490.49 96.9076 1490.16 102.868L1490.02 105.461L1487.46 104.998C1481.7 103.96 1480.78 102.889 1478.64 97.8841L1476.72 93.3778L1481.41 94.7906Z" fill="#323232"/>
<path fill-rule="evenodd" clip-rule="evenodd" d="M1443.23 137.392C1443.23 137.747 1443.35 138.106 1443.4 138.463C1443.32 138.104 1443.26 137.748 1443.23 137.392Z" fill="#323232"/>
<path fill-rule="evenodd" clip-rule="evenodd" d="M1514.28 135.958C1515.31 135.896 1517.08 142.091 1517.82 139.052C1518.04 138.154 1504.94 113.474 1504.94 113.474C1510.04 127.357 1511.19 136.149 1514.28 135.958Z" fill="#323232"/>
<path fill-rule="evenodd" clip-rule="evenodd" d="M1496.35 83.2937C1494.52 82.6902 1492.5 81.3445 1490.54 81.3445C1489.12 81.3445 1488.69 82.7432 1489.27 83.8836C1490.17 83.7556 1493.02 85.1167 1494.86 85.7037C1497.87 86.6603 1499.75 84.8734 1499.75 84.8734C1498.93 84.4402 1498.2 83.9816 1497.52 83.5089C1497.13 83.4872 1496.75 83.4242 1496.35 83.2937Z" fill="#323232"/>
<path fill-rule="evenodd" clip-rule="evenodd" d="M1487.94 51.465C1487.21 59.3824 1485.01 62.1743 1481.85 66.1924C1480.8 67.5267 1479.61 69.0416 1478.36 70.8922L1476.14 74.2046L1479.71 72.6808C1480 72.5569 1480.26 72.4657 1480.54 72.3568C1479.81 72.5851 1479.02 72.8755 1478.16 73.2307C1483.44 65.6044 1487.55 64.3337 1488.13 51C1487.02 52.1165 1485.82 53.1205 1484.57 54.053C1485.74 53.2596 1486.86 52.4008 1487.94 51.465Z" fill="#323232"/>
<path fill-rule="evenodd" clip-rule="evenodd" d="M1443.4 139.177C1443.65 145.433 1445.05 151.963 1447.62 158.113C1453.49 172.126 1464.23 182.294 1478.14 187.193C1480.5 186.142 1481.86 185.344 1481.86 185.344C1456.56 179.07 1444.39 157.66 1443.4 139.177Z" fill="#323232"/>
<path fill-rule="evenodd" clip-rule="evenodd" d="M1380.73 176.662C1378.75 175.745 1377.32 173.001 1376.67 168.802C1375.2 159.257 1378.36 142.471 1386.67 137.891C1387.48 137.441 1388.26 137.214 1388.98 137.214C1390.7 137.214 1391.99 138.529 1392.96 140.326C1392.18 139.14 1391.23 138.348 1390.08 138.348C1389.48 138.348 1388.81 138.554 1388.1 138.961C1379.56 143.825 1376.41 162.738 1378.88 172.504C1379.2 173.804 1379.78 175.479 1380.73 176.662Z" fill="#323232"/>
<path fill-rule="evenodd" clip-rule="evenodd" d="M1398.38 151.315C1397.72 151.315 1397.48 150.95 1397.18 149.695C1397.2 149.7 1397.26 149.703 1397.26 149.703C1397.35 149.703 1397.47 149.66 1397.56 149.451C1401.57 139.137 1397.93 131.907 1395.27 126.624C1394.2 124.496 1393.28 122.657 1393.17 121.155C1392.56 112.527 1401.16 106.241 1408.08 101.188C1409.77 99.9526 1411.37 98.7856 1412.74 97.658C1414.24 96.4268 1415.43 95.8027 1416.29 95.8027C1416.39 95.8027 1416.48 95.8106 1416.57 95.8265C1416.05 96.0562 1415.31 96.5069 1414.28 97.3757C1412.91 98.5436 1411.32 99.745 1409.63 101.017C1402.81 106.166 1394.38 112.534 1394.96 121.062C1395.06 122.473 1395.95 124.315 1396.99 126.446C1399.55 131.708 1403.42 139.659 1399.3 150.609C1399.11 151.129 1398.7 151.315 1398.38 151.315Z" fill="#323232"/>
<path fill-rule="evenodd" clip-rule="evenodd" d="M1415.79 114.107C1415.73 114.165 1415.7 114.172 1415.68 114.155C1415.72 114.332 1415.8 114.472 1415.92 114.621L1416.26 115.067L1416.84 115.08C1417.1 115.08 1417.47 114.998 1417.8 114.606C1425.19 105.872 1424.97 95.7183 1424.85 90.2634C1424.83 89.3758 1424.81 88.5988 1424.83 87.9544C1425.1 78.2752 1430.02 73.1077 1437.32 69.7422C1428.84 73.1129 1422.84 78.4114 1422.53 89.032C1422.4 93.5412 1424.06 104.645 1415.79 114.107Z" fill="#323232"/>
<path fill-rule="evenodd" clip-rule="evenodd" d="M1506.82 162.322C1505.52 163.75 1504.84 165.69 1503.59 167.88C1494.3 184.218 1478.56 195.686 1460.87 198.947C1452.53 200.484 1443.91 199.824 1435.81 197.375C1418.72 192.202 1410.41 181.057 1388.47 186.913C1384.41 187.998 1380.08 191.002 1375.82 190.626C1371.7 190.26 1369.37 181.191 1368.64 177.806C1367.06 170.419 1366.79 161.934 1367.34 154.393C1367.89 146.716 1369.69 138.663 1372.27 131.471C1381.91 104.596 1400.91 84.462 1426.96 70.4901C1427.98 69.9468 1428.44 69.5637 1428.44 69.5637C1428.44 69.5637 1427.89 69.7576 1426.81 70.1326C1409.6 76.1217 1392.61 86.5632 1380.2 100.655C1372.16 109.819 1364.47 122.02 1359.95 137.104C1355.06 153.456 1354.48 171.806 1360.3 187.909C1362.82 194.881 1367.38 202.364 1375.15 202.76C1382.94 203.158 1389.75 198.049 1397.35 197.164C1405.39 196.229 1412.8 200.079 1420.15 202.856C1433.62 207.951 1448.26 210.662 1462.4 206.756C1481.34 201.528 1497.52 188.112 1506.64 169.683C1508.01 166.908 1509.95 163.758 1510.31 160.682C1509.02 160.588 1507.68 161.382 1506.82 162.322Z" fill="#BFBFBF"/>
<path fill-rule="evenodd" clip-rule="evenodd" d="M1449.38 207.542C1440.15 207.542 1431.13 205.22 1422.49 202.114C1414.25 199.152 1405.77 194.649 1396.75 196.355C1389.63 197.699 1383.08 202.708 1375.57 201.7C1368.54 200.757 1364.57 193.607 1362.4 187.595C1356.99 172.635 1356.87 154.848 1362.07 137.511C1366 124.395 1372.93 111.939 1382.1 101.491C1391.09 91.2791 1402.99 82.5283 1416.38 76.1681C1395.14 90.1731 1380.31 108.627 1372.21 131.163C1369.53 138.622 1367.76 146.87 1367.22 154.389C1366.61 162.867 1367.08 171.294 1368.54 178.121C1369.44 182.296 1370.94 189.655 1375.34 191.497C1379.52 193.251 1384.29 190.838 1388.13 189.273C1392.47 187.504 1396.43 186.477 1401.17 186.477C1409.59 186.477 1415.94 189.544 1422.66 192.789C1446.12 204.118 1473.46 203.701 1492.83 184.644C1497.55 179.998 1502.42 174.294 1505.71 168.522C1506.13 167.776 1506.49 167.06 1506.83 166.382C1507.47 165.108 1508.02 164.007 1508.79 163.172C1509.13 162.794 1509.53 162.481 1509.95 162.261C1509.44 164.02 1508.5 165.819 1507.59 167.572C1507.29 168.145 1506.99 168.707 1506.72 169.255C1497.81 187.259 1481.94 200.554 1463.19 205.728C1458.82 206.93 1454.18 207.542 1449.38 207.542Z" fill="#BFBFBF"/>
</g>
</g>
<defs>
<filter id="filter0_d_40_2308" x="-46.7959" y="2946.32" width="1018.33" height="538.806" filterUnits="userSpaceOnUse" color-interpolation-filters="sRGB">
<feFlood flood-opacity="0" result="BackgroundImageFix"/>
<feColorMatrix in="SourceAlpha" type="matrix" values="0 0 0 0 0 0 0 0 0 0 0 0 0 0 0 0 0 0 127 0" result="hardAlpha"/>
<feOffset dy="-15"/>
<feGaussianBlur stdDeviation="15"/>
<feComposite in2="hardAlpha" operator="out"/>
<feColorMatrix type="matrix" values="0 0 0 0 0 0 0 0 0 0 0 0 0 0 0 0 0 0 0.4 0"/>
<feBlend mode="normal" in2="BackgroundImageFix" result="effect1_dropShadow_40_2308"/>
<feBlend mode="normal" in="SourceGraphic" in2="effect1_dropShadow_40_2308" result="shape"/>
</filter>
<filter id="filter1_d_40_2308" x="164" y="2773" width="1483" height="701" filterUnits="userSpaceOnUse" color-interpolation-filters="sRGB">
<feFlood flood-opacity="0" result="BackgroundImageFix"/>
<feColorMatrix in="SourceAlpha" type="matrix" values="0 0 0 0 0 0 0 0 0 0 0 0 0 0 0 0 0 0 127 0" result="hardAlpha"/>
<feOffset dy="-15"/>
<feGaussianBlur stdDeviation="15"/>
<feComposite in2="hardAlpha" operator="out"/>
<feColorMatrix type="matrix" values="0 0 0 0 0 0 0 0 0 0 0 0 0 0 0 0 0 0 0.4 0"/>
<feBlend mode="normal" in2="BackgroundImageFix" result="effect1_dropShadow_40_2308"/>
<feBlend mode="normal" in="SourceGraphic" in2="effect1_dropShadow_40_2308" result="shape"/>
</filter>
<filter id="filter2_d_40_2308" x="466" y="-26" width="1164" height="929" filterUnits="userSpaceOnUse" color-interpolation-filters="sRGB">
<feFlood flood-opacity="0" result="BackgroundImageFix"/>
<feColorMatrix in="SourceAlpha" type="matrix" values="0 0 0 0 0 0 0 0 0 0 0 0 0 0 0 0 0 0 127 0" result="hardAlpha"/>
<feOffset dy="15"/>
<feGaussianBlur stdDeviation="15"/>
<feComposite in2="hardAlpha" operator="out"/>
<feColorMatrix type="matrix" values="0 0 0 0 0 0 0 0 0 0 0 0 0 0 0 0 0 0 0.4 0"/>
<feBlend mode="normal" in2="BackgroundImageFix" result="effect1_dropShadow_40_2308"/>
<feBlend mode="normal" in="SourceGraphic" in2="effect1_dropShadow_40_2308" result="shape"/>
</filter>
<filter id="filter3_d_40_2308" x="-38" y="-36" width="1667" height="586" filterUnits="userSpaceOnUse" color-interpolation-filters="sRGB">
<feFlood flood-opacity="0" result="BackgroundImageFix"/>
<feColorMatrix in="SourceAlpha" type="matrix" values="0 0 0 0 0 0 0 0 0 0 0 0 0 0 0 0 0 0 127 0" result="hardAlpha"/>
<feOffset dy="15"/>
<feGaussianBlur stdDeviation="15"/>
<feComposite in2="hardAlpha" operator="out"/>
<feColorMatrix type="matrix" values="0 0 0 0 0 0 0 0 0 0 0 0 0 0 0 0 0 0 0.4 0"/>
<feBlend mode="normal" in2="BackgroundImageFix" result="effect1_dropShadow_40_2308"/>
<feBlend mode="normal" in="SourceGraphic" in2="effect1_dropShadow_40_2308" result="shape"/>
</filter>
<linearGradient id="paint0_linear_40_2308" x1="13" y1="3109" x2="371.5" y2="3441" gradientUnits="userSpaceOnUse">
<stop stop-color="#323232"/>
<stop offset="1" stop-color="#565656"/>
</linearGradient>
<radialGradient id="paint1_radial_40_2308" cx="0" cy="0" r="1" gradientUnits="userSpaceOnUse" gradientTransform="translate(507.5 3205.46) rotate(8.08367) scale(1087.3 1465.74)">
<stop stop-color="#EEEEEE"/>
<stop offset="1" stop-color="#C8C8C8"/>
</radialGradient>
<linearGradient id="paint2_linear_40_2308" x1="1600" y1="423.463" x2="496" y2="423.463" gradientUnits="userSpaceOnUse">
<stop stop-color="#565656"/>
<stop offset="1" stop-color="#323232"/>
</linearGradient>
<linearGradient id="paint3_linear_40_2308" x1="1566.46" y1="44.599" x2="50.386" y2="114.193" gradientUnits="userSpaceOnUse">
<stop offset="0.43" stop-color="#E6E6E6"/>
<stop offset="1" stop-color="#A8A8A8"/>
</linearGradient>
<clipPath id="clip0_40_2308">
<rect width="183" height="157.613" fill="white" transform="translate(1335 51)"/>
</clipPath>
</defs>
</svg>
