<svg width="161" height="100" viewBox="0 0 161 100" fill="none" xmlns="http://www.w3.org/2000/svg">
<path d="M115.954 0.940275C116.407 -0.639662 118.745 -0.0173857 119.214 1.25545C119.679 2.43536 120.953 3.02935 121.39 4.22945C122.215 6.00739 121.661 7.9712 121.281 9.7855C121.523 10.5411 121.422 11.2806 120.981 11.9433C120.249 11.8948 119.521 11.8099 118.793 11.8059C117.669 12.4039 117.07 13.5798 117.289 14.8445C115.756 15.4628 114.352 16.3598 112.831 17.0104C112.127 16.0487 111.1 15.4789 109.907 15.3941C109.87 17.071 109.66 18.7883 110.174 20.4208C110.898 19.9157 111.699 19.5439 112.601 19.5197C112.362 19.2894 111.893 18.8287 111.658 18.5984C112.382 18.7156 113.106 18.8328 113.83 18.954C113.778 18.7439 113.668 18.3277 113.616 18.1216C114.821 18.2105 116.014 17.9923 117.179 17.6973C116.686 17.2447 116.213 16.7801 115.735 16.3194C117.398 17.0104 119.072 16.0325 120.783 16.2265C120.225 15.7982 119.671 15.3577 119.133 14.9051C120.541 14.994 121.96 14.7839 123.263 14.2344C122.822 14.2627 121.944 14.3233 121.507 14.3556C122.207 13.4464 123.105 12.7231 124.149 12.2423C124.529 11.9433 124.893 11.5877 125.358 11.418C127.32 10.8078 128.642 8.52074 130.956 9.13494C130.192 8.37123 129.646 7.25598 130.43 6.29024C132.238 7.11456 134.22 7.41761 136.178 7.6641C136.38 7.5348 136.777 7.28427 136.979 7.15496C138.435 7.35296 139.879 7.70047 141.185 8.39144C141.185 8.21769 141.19 7.87018 141.194 7.70047C142.346 8.8238 143.815 9.73701 144.438 11.2967C144.761 12.0726 145.493 12.5373 146.055 13.1313C147.394 14.4081 147.969 16.2952 149.421 17.4791C152.026 19.649 154.032 22.4088 155.933 25.1889C157.057 26.8577 158.663 28.1023 160.071 29.5165C160.787 30.252 161.45 31.5814 160.601 32.4623C159.865 33.1653 159.772 34.1594 159.517 35.0847C158.963 35.8444 158.036 36.1838 157.215 36.5596C156.867 36.3737 156.519 36.1838 156.176 35.9939C155.286 37.1778 153.745 37.4122 152.426 36.8142C151.601 36.1313 150.905 35.3069 150.092 34.616C149.267 34.9514 148.434 35.2423 147.588 35.509C147.249 35.2787 146.909 35.0443 146.577 34.8059C146.881 34.4139 147.188 34.0301 147.495 33.6422C145.683 32.7128 143.823 31.8642 141.861 31.3066C140.595 30.9631 139.365 30.4742 138.261 29.763C135.11 30.2802 132.922 32.9471 131.514 35.6181C130.228 37.9415 129.245 40.4145 128.137 42.8228C127.231 44.5845 127.348 46.6332 126.887 48.5202C125.932 52.755 125.904 57.3493 123.429 61.091C126.96 63.168 130.908 64.3802 134.795 65.6046C135.567 65.7379 135.798 66.5622 136.101 67.1724C136.595 68.4008 137.222 69.5807 137.61 70.8535C137.937 72.3769 137.343 73.8881 137.1 75.3832C136.526 78.038 136.995 80.7817 136.514 83.4486C136.089 85.9215 134.253 87.7803 133.391 90.0835C132.728 91.9746 131.227 93.3404 130.131 94.9647C129.629 95.6113 129.168 96.3184 128.497 96.8033C127.502 96.969 127.113 95.781 126.842 95.0496C126.462 93.506 126.203 91.8251 126.705 90.2775C127.312 88.4793 129.949 89.0733 130.596 87.3075C131.797 85.57 130.446 83.4122 131.316 81.5737C132.36 79.0401 133.719 76.357 133.072 73.5406C132.78 71.9082 131.603 70.0615 129.735 70.1464C125.285 70.0615 120.84 70.2555 116.391 70.2595C114.259 70.2636 112.115 70.5505 110.008 70.11C110.821 73.8235 112.342 77.3228 114.061 80.6928C114.51 81.7434 115.484 82.8829 114.712 84.0345C113.919 85.5134 113.672 87.4449 112.257 88.4874C109.482 89.0046 106.61 88.3945 103.807 88.8026C101.692 88.9561 99.5518 89.8896 97.4404 89.3077C96.862 88.4147 96.4171 87.3924 95.5272 86.7499C93.5088 85.1376 91.628 83.3597 89.8766 81.4646C89.4114 80.9352 88.8289 80.3695 88.9098 79.5937C89.2294 78.7896 90.2365 78.9633 90.9242 78.8825C92.9628 78.8987 95.2805 79.1048 96.8418 80.5675C97.9096 81.4403 96.8094 83.1334 97.9298 83.9658C98.4759 84.5638 99.3375 84.1638 100.033 84.3012C101.028 84.5436 101.991 85.1336 103.051 84.9032C105.405 84.4547 107.795 84.2002 110.129 83.6304C109.389 81.6626 107.941 80.0867 106.396 78.7088C102.565 75.1125 97.2827 73.4477 93.7434 69.4958C93.3632 68.9907 93.2338 68.3523 93.0356 67.7664C85.8398 69.2938 78.9716 65.7985 72.868 62.4205C73.3776 64.7762 73.6405 67.1724 74.0693 69.5403C74.9187 73.8033 77.2607 77.5248 79.008 81.4444C79.2346 81.9939 79.6957 82.3697 80.0921 82.794C80.8404 83.5456 80.8889 84.7941 81.803 85.4083C83.8619 86.9519 86.1472 88.1561 88.3597 89.4572C89.6339 90.2411 91.0657 91.1583 91.3327 92.7544C94.2207 93.8212 96.8418 95.5951 98.9977 97.7812C99.5073 98.2095 99.7298 98.8277 99.928 99.4419C98.3626 100.113 96.6274 99.9915 94.9609 99.9915C94.2409 99.9308 93.3915 100.048 92.8293 99.4985C92.1983 98.8681 92.9385 97.8014 92.3075 97.1872C91.6482 96.6053 90.8554 96.2012 90.0667 95.8376C88.7359 95.1991 87.1948 95.5507 85.8155 95.1102C84.7477 94.694 84.1248 93.6838 83.3886 92.8716C83.5181 94.0354 83.7001 95.187 83.8861 96.3426C81.1639 96.4477 78.9919 94.1647 78.2355 91.72C77.5357 90.0471 79.91 88.7905 78.8382 87.1297C77.9766 87.0044 77.1555 87.3115 76.3223 87.461C73.5435 86.4145 71.0195 84.7699 68.2326 83.7395C64.3616 82.2768 60.2683 81.5333 56.3609 80.1998C55.4144 79.9048 54.5408 79.1169 54.5691 78.0582C54.6055 75.9813 55.9484 74.2518 56.4135 72.2718C57.085 70.0413 56.7047 67.6411 55.9686 65.4753C55.1515 63.2044 53.2626 61.4709 51.228 60.2748C49.1611 59.6687 46.9567 59.4343 45.0475 58.3676C42.1635 56.7917 39.4171 54.747 37.5281 52.0236C35.9385 49.7042 35.805 46.7989 36.0922 44.0916C34.2922 45.4533 32.8442 47.2272 30.9593 48.4758C28.5324 50.1648 25.6605 51.0659 22.7887 51.6397C20.742 52.3064 18.6306 52.7994 16.4666 52.8641C15.5322 52.8156 14.7637 53.3772 13.9507 53.7288C15.5363 52.2741 17.4333 51.1346 18.7115 49.3405C16.6284 50.286 14.614 51.3811 12.4986 52.2539C11.3741 52.7105 10.1687 52.9974 9.12113 53.6278C6.36659 55.2239 3.18734 56.0845 0 56.0441C3.47857 54.9127 5.88121 51.9387 7.65285 48.8839C5.52526 49.7648 3.77789 51.2882 2.34601 53.0661C4.02462 48.9688 7.32118 45.4937 11.4469 43.8289C12.2761 43.4612 13.1822 43.3561 14.0761 43.2996C13.3561 42.1399 12.8181 40.8832 12.1386 39.7033C13.8779 41.3115 16.1632 42.249 18.5497 42.1722C24.8313 42.1682 29.7418 37.295 35.9021 36.7172C37.1641 36.5071 38.4382 36.7293 39.6719 36.996C42.3738 33.9735 45.9293 31.8642 49.5979 30.2196C51.8145 29.2418 54.116 28.3164 56.5591 28.1588C58.626 28.0295 60.6363 28.6033 62.679 28.7973C65.6075 29.064 68.5642 28.7771 71.4846 29.2175C71.8325 28.6478 71.9821 27.7507 72.7264 27.5608C74.1866 27.7467 75.6427 28.0215 77.1272 28.0255C77.3294 27.3628 77.9321 26.5668 78.6359 27.2295C81.2368 28.8336 84.5374 29.5529 87.4011 28.175C84.9135 27.2497 82.0295 26.9789 80.0273 25.0717C78.0251 22.9624 77.7016 19.7541 78.4337 17.0427C78.8382 15.5678 79.1092 13.9313 80.2215 12.7918C81.0345 12.0847 82.1873 12.1898 83.1904 12.0039C85.682 11.7453 87.207 9.38142 89.5813 8.78743C92.708 7.91059 95.333 5.63968 98.6458 5.36895C101.785 4.86385 104.952 5.56695 107.949 6.47612C108.871 4.46382 110.319 2.53638 112.39 1.61104C113.503 1.08574 114.748 1.02513 115.954 0.940275ZM96.1865 20.9582C97.4283 21.4673 98.6134 22.1098 99.6934 22.9139C99.653 21.6128 99.75 20.3157 99.9563 19.0308C98.7348 19.7419 97.4647 20.3561 96.1865 20.9582ZM101.744 24.0251C103.427 24.5424 104.859 25.6051 105.991 26.9426C107.969 26.1102 109.967 25.3222 111.913 24.409C108.576 23.811 105.113 23.4998 101.744 24.0251ZM63.8358 74.9913C64.1918 76.6197 65.8946 77.2541 67.2375 77.8885C66.5661 75.3953 65.9068 72.8941 64.6165 70.6313C64.0583 71.993 63.6174 73.5083 63.8358 74.9913Z" fill="#323232"/>
</svg>
