<svg width="134" height="104" viewBox="0 0 134 104" fill="none" xmlns="http://www.w3.org/2000/svg">
<path d="M54.974 1.50144C56.381 0.273284 58.5195 -0.575255 60.2671 0.474257C60.6635 1.05484 60.8701 1.73591 61.1604 2.37789C60.7696 3.05896 60.3899 3.74561 60.0158 4.43225C59.2565 4.66114 58.5027 4.87328 57.7434 5.07983C57.4642 5.79997 57.4028 6.56478 57.4475 7.32958C56.4146 8.83128 55.1192 10.2381 54.734 12.0747C56.3866 10.0762 58.9047 9.31137 61.4508 9.5235C61.9254 8.70846 62.3832 7.85434 63.137 7.26259C63.5781 7.67012 64.0303 8.09438 64.477 8.51307C64.5496 7.95482 64.6277 7.40214 64.7059 6.84947C63.2263 6.22982 61.1772 5.24172 61.3838 3.32134C62.439 3.68979 63.4775 4.09172 64.5216 4.51599C65.5266 2.90823 66.755 1.20556 68.7483 0.814782C71.9866 -0.34638 76.1463 3.15385 74.1809 6.51452C75.962 7.50821 78.1954 7.52497 79.8145 8.76429C77.8213 9.81938 75.5042 9.64631 73.3322 9.5849C73.3657 9.94776 73.4383 10.6735 73.4718 11.0419C73.2485 11.3769 73.0251 11.7174 72.8074 12.058C75.7052 12.6106 76.1072 15.8931 76.4924 18.2825C77.1122 19.6446 77.1233 21.872 78.9324 22.1511C78.9268 22.4861 78.91 23.156 78.8989 23.4909C81.0875 22.1679 83.7787 22.4693 86.0065 21.23C88.184 20.4094 90.0936 18.1373 92.634 18.9691C94.0019 21.7269 96.6708 23.6305 97.888 26.5111C98.7981 28.6492 101.182 29.6875 103.382 29.8662L102.952 28.9953C103.812 29.0567 105.52 29.1739 106.375 29.2353C105.47 28.8892 103.661 28.2026 102.757 27.8565C104.158 27.2926 105.576 26.3659 107.151 26.7679C108.027 26.9465 108.91 26.7735 109.781 26.6171C109.116 26.1426 108.474 25.6402 107.871 25.1043C110.25 24.1608 112.745 24.5795 115.163 25.0317C116.827 24.2892 117.776 22.581 119.166 21.4645C119.373 21.8329 119.786 22.5642 119.993 22.9327C122.801 23.4574 124.772 25.8524 125.492 28.5096C126.095 31.1111 127.882 33.3497 127.837 36.0963C128.954 39.7863 131.087 43.0632 132.315 46.7086C133.164 48.9918 134.392 51.4258 133.878 53.9045C132.806 56.3943 129.674 56.411 127.385 56.1375C123.879 54.3566 122.098 50.5382 118.736 48.6178C118.429 48.0987 118.161 47.5571 117.943 46.9933C116.363 46.6472 114.755 45.9103 113.119 46.3681C111.037 49.3212 108.161 52.6484 108.692 56.478C110.819 58.1862 113.655 58.3649 116.196 59.046C116.201 59.286 116.207 59.7605 116.213 60.0006C113.784 61.6307 110.579 62.1778 107.726 61.5525C106.816 63.8637 105.989 66.2083 105.012 68.4916C107.72 70.8976 110.797 72.9687 114.225 74.208C115.716 74.677 115.889 76.5304 116.073 77.8423C116.252 80.9741 116.425 84.1505 117.491 87.1371C118.278 88.9068 117.184 90.7044 116.961 92.4684C117.156 92.5354 117.547 92.675 117.742 92.742C117.553 92.7476 117.184 92.7476 117 92.7476C116.682 94.3777 117.045 96.3204 115.984 97.7272C114.526 98.9386 112.422 99.2121 111.249 100.809C110.261 99.4019 109.228 97.5094 110.116 95.8235C110.479 94.9024 112.377 95.4272 112.176 94.3163C111.93 93.9925 111.439 93.3561 111.193 93.0323C111.958 92.6638 113.326 92.5745 113.259 91.4134C112.237 89.4595 112.907 87.26 112.757 85.1777C112.656 82.6935 112.394 79.8464 110.445 78.06C109.25 77.1444 107.659 77.0775 106.263 76.6643C103.55 76.1228 101.149 74.6044 98.4128 74.1243C99.4011 73.2423 100.345 72.31 101.238 71.3331C99.6579 72.3267 98.0778 73.4488 96.2185 73.8396C94.5938 74.2304 92.8238 74.2862 91.3833 75.2185C89.9763 76.1284 89.7865 77.9372 89.0048 79.2881C85.2193 82.6041 84.5213 88.1252 81.0206 91.7036C80.3059 92.1893 79.4069 92.033 78.6029 92.1558C77.3523 93.5514 76.1407 94.9806 74.8397 96.3371C74.8062 96.5939 74.7448 97.1075 74.7113 97.3643C73.5221 97.9226 72.2714 98.8046 72.277 100.284C71.9643 101.378 73.5221 101.641 73.7956 102.573C73.2261 104.063 71.2496 104.119 69.9208 103.913C68.8543 103.466 68.0727 102.567 67.2463 101.808C67.3301 100.58 65.8561 99.8485 66.1129 98.6371C66.8164 98.051 67.626 97.5988 68.3072 96.9847C68.9493 95.7845 67.8326 93.6966 69.5355 93.1495C72.0704 92.1279 74.6667 91.0393 76.7548 89.2306C78.1116 86.1044 78.5192 82.6376 79.876 79.5003C80.5236 77.9093 81.6403 76.2959 81.1322 74.4983C80.6241 72.444 79.9095 70.4343 79.9485 68.2906C79.2674 71.16 76.9279 73.8508 73.8124 73.9289C71.1659 73.8675 68.5361 73.3874 65.9287 72.9296C63.4273 72.4998 61.5289 70.6967 59.2398 69.77C57.1962 69.1559 55.1248 68.6144 53.0924 67.9668C54.3766 69.3792 55.9009 70.5738 57.682 71.2996C54.7005 74.8221 51.5179 78.1716 48.5308 81.6886C47.6431 82.6655 48.4415 83.9439 48.9328 84.8986C50.3175 87.3437 51.6296 89.8558 53.3549 92.0944C55.3816 94.8075 59.9098 94.9638 60.7082 98.7041C58.7205 98.8325 56.7384 99.173 54.7451 99.1228C53.8406 99.1116 53.4163 98.2519 52.8691 97.6937C52.0148 96.6721 50.5297 96.2534 50.0774 94.9024C48.2628 90.5592 45.8117 86.3891 42.3388 83.168C43.9413 81.175 46.0518 79.651 47.5705 77.591C45.4265 78.8359 43.2824 80.159 41.4399 81.8338C40.1501 82.833 40.6247 84.6306 41.2557 85.8755C42.9753 89.359 45.4879 92.3735 47.9557 95.3434C48.7988 96.4376 50.1332 96.9289 51.222 97.7216C52.2605 98.4808 52.4392 99.8318 52.7854 100.982C50.3007 101.546 47.5872 101.908 45.1473 100.987C44.6615 99.5861 43.9468 98.2798 42.5398 97.6323C43.2154 96.4264 44.4493 94.9862 43.422 93.5905C41.7861 91.0337 38.8492 89.6493 37.2021 87.0813C36.0687 85.2614 34.6003 83.4583 34.2597 81.309C35.1419 79.0146 37.3975 77.6748 38.8157 75.7488C39.335 74.8724 38.5421 74.0238 38.2685 73.22C37.0849 70.8195 35.6611 68.5251 33.9526 66.4595C32.8024 65.0583 31.6299 63.5678 31.2614 61.7535C30.932 60.3634 31.4512 58.9957 31.7137 57.6503C29.2625 59.4981 29.2067 62.7918 28.4362 65.5049C27.7941 67.911 26.4653 70.1663 24.3715 71.5843C25.4212 69.3513 26.1638 66.9117 25.8958 64.4219C25.3207 68.9214 22.8807 73.153 19.0784 75.6818C20.29 73.3483 21.5072 71.0149 22.2945 68.5027C20.921 71.3386 18.5759 73.5437 15.8568 75.0789C15.8345 74.7328 15.7842 74.0406 15.7619 73.6945C15.7005 73.9792 15.5832 74.5486 15.5218 74.8333C14.4107 74.8556 13.4392 75.4418 12.3951 75.7377C7.91724 76.9546 2.80844 75.2296 0 71.5396C0.859842 71.7127 1.71411 71.8969 2.57953 72.0811V71.294C2.59628 71.4838 2.62419 71.8746 2.63536 72.0644C4.13171 72.0644 5.62806 71.9639 7.11882 71.8131C5.26514 71.0874 3.48404 70.211 1.77552 69.195C4.6063 70.2166 7.73858 69.5411 10.1115 67.7603C13.6235 65.2984 16.4319 61.5804 20.7981 60.5532C23.8411 59.8498 25.5273 56.9693 27.7104 55.0154C26.7779 55.3671 24.9242 56.0705 23.9918 56.4222C25.3877 55.0266 26.9063 53.737 28.5814 52.6875C27.5429 52.6372 26.3145 52.9219 25.5384 52.0511C27.9784 51.3365 29.9549 49.6785 32.2887 48.7295C33.6846 48.1377 35.2591 48.3722 36.6829 47.9312C38.4416 46.9375 39.6365 45.2237 41.3338 44.1462C43.4053 42.8288 45.7168 41.7904 48.1791 41.5392C52.2773 41.3996 56.3755 40.0375 60.4625 41.1261C61.9979 39.4792 64.1587 38.6977 66.3586 38.5079C66.1632 37.3691 65.9789 36.2358 65.7946 35.1026C65.415 35.1026 64.6612 35.1026 64.2816 35.097C62.6847 31.82 61.1046 28.5375 59.424 25.2997C59.491 24.9257 59.6194 24.1832 59.6864 23.8091C58.6758 22.5196 57.9332 21.0514 57.2856 19.5553C54.064 20.8672 50.0216 19.3655 48.0283 16.6133C48.7876 14.3356 49.4186 11.8514 51.2387 10.1487C52.9752 8.62472 53.6731 6.34706 55.0411 4.53832C55.0243 3.52789 55.0075 2.51187 54.974 1.50144ZM91.9249 22.849C91.4782 23.6417 90.8417 24.4232 91.0204 25.4058C91.1097 27.6388 91.1209 29.8885 90.758 32.1048C91.495 32.3504 92.2376 32.5848 92.9913 32.8082C92.8573 32.3895 92.5949 31.5521 92.4609 31.1334C92.9523 31.2116 93.9405 31.3679 94.4318 31.446C94.0578 30.5919 93.0974 29.6038 93.8065 28.6603C95.649 29.1516 97.4971 29.6596 99.4346 29.5703C98.4184 28.4426 97.2235 27.5159 95.7495 27.114C94.2811 25.8803 93.1198 24.3339 91.9249 22.849ZM82.4108 26.9465C81.2941 27.4043 80.5348 28.4482 79.4069 28.8836C78.3349 29.28 77.4304 28.4873 76.5483 28.0295C77.2573 29.0902 77.9664 30.1565 78.6811 31.2171C79.9653 30.9436 80.5069 32.222 81.3444 32.8975C82.4666 33.9191 83.9965 34.1926 85.3923 34.6392C85.0183 34.1591 84.6497 33.6735 84.2868 33.1878C86.0233 33.0482 87.782 32.9868 89.4459 32.395C89.0495 32.0322 88.2566 31.3176 87.8602 30.9548C88.413 31.1278 89.5129 31.4683 90.0601 31.6414C90.1941 29.2019 90.3504 26.7232 89.7753 24.3283C89.5743 23.664 89.2058 22.5866 88.3236 22.7652C86.3639 24.172 84.6386 25.9472 82.4108 26.9465Z" fill="#323232"/>
</svg>
