<svg width="182" height="100" viewBox="0 0 182 100" fill="none" xmlns="http://www.w3.org/2000/svg">
<path d="M168.902 0.074988C168.754 2.28536 167.725 4.29368 167.062 6.37338C168.31 8.07717 170.132 9.16916 171.681 10.5536C172.717 11.4068 172.965 12.805 173.829 13.7941C175.601 15.9929 177.52 18.0702 179.331 20.2382C180.228 21.3513 181.669 22.1399 182 23.6226C181.953 24.6018 181.041 25.2882 180.922 26.2668C180.822 27.5807 179.558 28.5581 178.278 28.4941C177.339 29.448 175.897 29.6288 174.629 29.551C173.853 29.4536 173.823 28.5634 173.484 28.0368C172.884 27.4681 172.014 27.4252 171.274 27.159C170.226 26.838 169.394 26.0304 168.329 25.7701C167.531 25.7353 166.735 25.8086 165.941 25.8092C165.743 26.4383 165.43 27.0243 165.101 27.5935C164.6 27.026 164.118 26.4456 163.636 25.8652C161.684 25.9359 159.73 25.9363 157.783 26.0301C156.92 28.959 155.914 31.8669 154.474 34.568C152.921 37.4166 151.217 40.1782 149.523 42.9458C148.99 43.6874 149.075 44.639 149.063 45.5044C149.138 48.0029 148.969 50.5841 147.924 52.8887C147.276 54.384 146.429 56.0096 146.912 57.6797C147.461 59.7331 148.184 61.7359 148.92 63.7302C150.479 68.1895 152.745 72.3377 154.805 76.5703C155.322 77.5054 155.312 78.6165 155.775 79.568C156.973 81.7696 158.205 83.955 159.469 86.119C159.968 86.9017 159.865 87.9397 160.508 88.6434C161.379 89.8788 162.801 90.52 163.785 91.6454C164.703 92.6106 165.785 93.529 166.269 94.8085C166.377 95.3167 165.772 95.4965 165.393 95.5566C163.855 95.7465 162.316 95.4304 160.778 95.4225C160.149 95.4368 159.425 95.2952 159.089 94.7037C158.502 93.6055 158.584 92.3196 158.541 91.1174C158.081 90.1387 156.854 90.0781 155.911 90.037C155.529 89.0771 155.458 88.0371 155.197 87.0506C153.941 84.5218 152.664 82.0007 151.43 79.4618C149.835 76.8572 147.769 74.5803 145.889 72.1816C144.117 69.6197 142.537 66.9267 140.991 64.2224C140.102 62.9023 138.631 62.1805 137.427 61.1981C137.135 61.0375 136.767 60.5301 136.42 60.8442C135.647 61.3859 134.831 61.9078 134.202 62.6185C133.151 64.0632 132.61 65.7909 131.813 67.3745C130.288 70.3642 129.19 73.5446 127.999 76.6747C127.124 78.9759 125.897 81.1149 124.707 83.2605C123.969 84.4549 122.294 83.6825 121.364 84.5748C119.21 85.8227 116.935 86.8591 114.824 88.1945C113.646 89.0111 112.155 89.2515 110.758 89.0089C109.404 88.7538 108.009 88.9198 106.694 89.2802C105.64 89.5948 104.551 89.2517 103.491 89.1699C102.545 89.0483 101.542 89.1908 100.654 88.7752C100.475 88.3417 100.909 87.9947 101.109 87.659C102.585 85.7961 104.273 83.8219 106.66 83.189C107.561 83.824 108.212 84.7191 108.919 85.5502C109.233 85.2224 109.497 84.8513 109.825 84.535C110.658 84.2306 111.546 84.9619 112.365 84.5181C114.415 83.5565 116.473 82.6034 118.492 81.5783C119.403 81.0973 120.375 80.5129 120.78 79.5113C121.297 78.3095 121.811 77.0898 122.084 75.808C122.678 72.0045 123.58 68.2559 124.438 64.5071C124.79 63.1715 125.337 61.6824 124.652 60.3629C124.102 59.5193 122.935 59.6309 122.07 59.4132C118.264 58.7063 114.483 57.8596 110.734 56.8936C107.229 55.9453 103.709 54.8949 100.501 53.1557C97.572 51.3954 94.647 49.5804 91.4699 48.2982C91.4399 49.5248 91.6018 50.778 91.3017 51.9842C90.6544 53.8578 89.5465 55.5616 89.1056 57.511C88.1042 61.9875 86.8768 66.4286 86.3571 70.9994C86.1029 73.4007 86.62 75.944 88.0665 77.9081C89.315 79.4541 90.3566 81.1521 91.534 82.7527C92.4468 84.1507 93.553 85.4502 94.1634 87.027C94.9125 88.7923 96.4636 90.0016 97.5644 91.5284C98.3571 92.6148 99.2915 93.6193 99.8927 94.8319C100.252 95.5262 99.4923 96.2422 98.8213 96.2769C97.2801 96.3838 95.752 96.0388 94.2428 95.7711C93.2059 95.6593 92.5037 94.746 92.0419 93.8949C91.9694 93.0701 92.7534 92.3618 92.5869 91.5063C92.3137 90.9119 91.5855 91.0553 91.0683 90.8994C90.4838 90.7859 90.1137 90.2758 89.8192 89.8042C88.3767 87.4699 87.1617 85.0008 85.6602 82.7023C83.8063 79.9358 81.8323 77.2159 79.479 74.849C78.7661 74.1199 77.6901 73.4426 77.7189 72.2935C77.8753 71.1212 78.5363 70.0834 78.6982 68.9067C79.1955 66.1194 79.9651 63.2652 79.4265 60.4239C79.1566 58.8854 78.5275 57.3641 77.4244 56.2378C76.4836 56.4725 75.6515 57.0076 74.7645 57.3861C68.8893 60.2465 62.6449 62.5667 57.5027 66.712C55.0481 68.5924 53.4401 71.3247 52.1602 74.0939C51.7678 75.0092 51.0781 75.7682 50.7684 76.7253C50.3204 77.98 49.9818 79.3522 49.0244 80.3366C48.2809 81.0845 47.4194 81.7039 46.7342 82.511C46.3456 82.9908 45.5769 83.3176 45.0653 82.8215C44.6468 82.4312 44.0998 82.3621 43.5532 82.4233C42.8814 83.0891 42.1718 83.7131 41.451 84.3258C40.9118 88.3784 38.9679 92.2352 35.9901 95.0386C32.8796 98.0225 28.6674 99.8226 24.3643 99.9817C20.0241 100.182 15.6287 98.7347 12.2678 95.9712C9.10515 93.4005 6.83754 89.7331 6.00638 85.7341C5.03537 81.2884 5.84362 76.4846 8.21235 72.6055C9.78105 69.979 12.0599 67.8158 14.6866 66.2729C15.2833 64.6943 16.6499 63.6483 17.5715 62.2917C18.1384 60.845 18.6845 59.3834 19.3992 58.0009C16.8877 57.7581 14.3685 57.5846 11.8659 57.2626C10.7832 57.1131 9.67212 56.8601 8.77352 56.2053C8.14556 55.7663 7.76498 55.0821 7.34729 54.4614C6.71371 53.4707 5.7065 52.8262 4.7871 52.1339C4.71804 53.4413 4.62924 54.7465 4.46832 56.0485C4.40028 56.5218 4.63831 56.962 4.82096 57.3834C4.66761 57.6592 4.46905 57.9149 4.36283 58.216C4.31284 59.3978 3.88973 60.52 3.83946 61.7043C3.16053 61.475 2.49148 61.2243 1.82657 60.959C2.00995 60.7943 2.19579 60.6298 2.38108 60.4703C3.19559 57.9292 3.06289 55.2339 3.48262 52.6258C3.55479 52.1379 3.91148 51.7422 3.98966 51.2675C3.48326 50.3237 3.56629 49.2483 3.56208 48.2158C2.58395 48.4488 1.33509 48.7565 0.537573 47.9577C-0.0930417 47.0074 0.103972 45.7846 0 44.7057C0.119103 41.7255 0.603988 38.759 0.496602 35.7709C0.531504 33.2522 0.659563 30.5712 2.08237 28.3992C3.82518 25.111 6.8018 22.608 8.19934 19.1231C7.56762 18.4056 7.10699 17.4769 7.27683 16.4965C7.54751 14.2374 8.5657 11.7518 10.7346 10.726C12.5873 9.93521 14.7272 9.99338 16.6482 10.4878C18.9201 11.375 20.2382 13.6603 21.0005 15.8655C21.8857 15.8149 22.8113 15.6937 23.651 16.0714C22.5754 17.5309 20.5679 17.5403 18.9399 17.7752C18.8648 18.8916 19.0063 19.9922 19.0644 21.101C18.8706 21.1142 18.4825 21.1431 18.2884 21.1589C17.9224 21.9719 17.6403 22.8169 17.5673 23.713C17.546 24.3494 16.7593 24.1455 16.3539 24.195C17.0938 25.9317 17.2637 27.8272 17.0321 29.6924C17.9904 30.2388 18.452 31.4707 19.6026 31.728C20.4489 31.8234 21.338 31.9836 22.1356 31.5775C23.4859 31.3012 24.9076 31.8146 26.2566 31.438C26.7752 31.1582 27.0582 30.5513 27.6383 30.3686C28.2202 30.1711 28.8133 29.9173 29.4347 29.9021C29.9197 30.1672 30.5584 30.3543 30.7453 30.939C30.2268 31.0836 29.6866 31.1329 29.1551 31.2158C29.9708 31.4505 30.7979 31.6514 31.6453 31.7368C32.0657 31.5537 32.5096 31.3607 32.98 31.4663C34.957 31.7066 36.9316 31.9691 38.9114 32.2071C40.5966 32.5097 42.3163 32.1473 43.9249 31.6396C44.2338 31.514 44.5703 31.5219 44.8969 31.5286C45.2692 31.796 45.665 32.1662 46.1645 32.0121C48.9537 31.6274 51.7339 31.189 54.5237 30.7993C54.8983 30.7338 55.3129 30.7129 55.6045 30.4301C57.1944 29.0861 59.0293 28.0528 60.9577 27.278C64.7925 25.7009 69.0368 26.1339 73.0771 25.8675C74.9864 25.1733 76.9424 24.4867 78.9933 24.4021C82.2574 24.2838 85.5436 23.5668 88.7958 24.1786C92.6892 25.0005 96.6114 25.6978 100.556 26.2374C104.32 26.7891 108.119 27.4475 111.94 27.1339C115.578 26.8673 119.24 26.2552 122.635 24.8741C121.667 24.5923 120.693 24.3247 119.782 23.8889C120.071 23.8137 120.362 23.7338 120.651 23.6511C121.808 24.1146 123.115 23.9788 124.341 23.9941C124.54 23.5957 124.476 23.2102 124.029 23.0697C122.695 22.6914 121.37 22.1864 120.28 21.3021C123.027 22.0224 125.987 22.3257 128.729 21.4247C127.359 21.1676 125.954 21.1046 124.61 20.7202C126.477 20.5122 128.509 20.7135 130.184 19.6973C130.997 19.1826 131.264 18.2006 131.409 17.3076C130.876 17.5632 130.338 17.8784 129.729 17.8774C128.697 17.9641 127.763 17.4505 126.799 17.1791C126.119 16.9748 125.405 16.9744 124.711 16.8812C125.109 16.7632 125.503 16.5421 125.93 16.5702C127.55 16.8253 129.225 17.1793 130.859 16.8448C131.625 16.6731 132.318 16.2853 133.002 15.9139C132.267 15.9888 131.528 16.1361 130.789 16.0228C133.187 14.7298 135.867 14.0546 138.297 12.8178C136.733 13.055 135.239 13.5906 133.691 13.8922C135.685 12.7139 138.014 12.4677 140.195 11.8241C138.746 11.7761 137.307 12.0174 135.863 12.0777C137.546 11.3079 139.409 11.0718 141.246 11.0708C142.587 11.0114 144.022 11.2056 145.249 10.5347C143.919 10.5402 142.575 10.6317 141.261 10.3811C142.579 10.011 143.963 10.242 145.306 10.0677C146.58 9.98323 147.754 9.44915 148.997 9.2008C150.502 8.85929 152.082 8.78427 153.52 8.17217C154.818 7.64704 155.982 6.84382 157.269 6.28734C158.771 5.61237 160.35 5.1313 161.886 4.53526C162.412 4.36657 162.783 3.93487 163.029 3.45655C163.729 2.15517 164.486 0.727397 165.835 0C165.754 1.27356 165.823 2.55885 165.56 3.81431C166.767 2.67025 168.171 1.60836 168.902 0.074988ZM158.358 24.642C159.686 24.6263 161.015 24.5705 162.346 24.5727C162.466 24.3982 162.59 24.2268 162.719 24.0585L162.906 24.4829C163.603 24.5464 164.307 24.533 165.006 24.4965C164.165 24.1513 163.299 23.8734 162.471 23.4996C162.347 23.691 162.219 23.8795 162.088 24.0651C161.824 23.592 161.495 22.9612 160.857 23.0071C159.749 22.9348 158.923 23.7913 158.358 24.642ZM164.022 25.8536C164.324 26.1432 164.632 26.4234 164.945 26.7092C165.283 26.5018 165.594 26.2511 165.711 25.8535C165.145 25.8374 164.585 25.8395 164.022 25.8536ZM63.4132 31.5427C62.1291 33.3244 62.1133 35.6499 62.2621 37.7559C62.4225 39.1342 62.1137 40.5072 61.8112 41.846C62.2599 41.7662 62.7111 41.6868 63.1617 41.6123C63.0882 38.7683 63.4041 35.8153 64.7495 33.2639C65.473 31.8022 66.7598 30.7548 67.8102 29.5429C66.1648 29.598 64.4139 30.1498 63.4132 31.5427ZM54.7369 31.2818C52.1067 31.7646 49.4527 32.0794 46.8064 32.4602C47.2442 32.5896 47.7021 32.6061 48.1559 32.5696C50.1842 32.4423 52.1885 32.1045 54.2048 31.8606C54.3816 31.6651 54.5604 31.4748 54.7369 31.2818ZM45.8841 33.0426C44.7907 33.7687 43.4236 33.7049 42.1765 33.9076C39.8107 34.082 37.5238 34.7337 35.2198 35.2483C33.9529 35.5164 32.7047 35.952 31.4002 35.9754C31.4153 36.175 31.448 36.5745 31.4631 36.7741C31.1937 36.8815 30.9202 36.981 30.6431 37.0675C30.6345 37.2118 30.6171 37.5004 30.6084 37.6448C30.2598 37.7683 29.9092 37.8866 29.5548 37.9945C29.8287 39.809 29.6451 41.7147 30.402 43.4333C32.0947 45.4076 34.4166 46.6511 36.3754 48.3247C39.3893 46.9833 42.5264 45.9464 45.6236 44.8197C46.2275 44.5821 46.4778 43.9089 46.8609 43.4335C49.2722 39.7546 51.3714 35.8727 53.9249 32.285C51.2531 32.5803 48.5804 33.2412 45.8841 33.0426ZM60.2392 38.9509C59.9406 40.032 59.7983 41.1458 59.5998 42.2482C60.139 42.1411 60.6793 42.0466 61.2199 41.9497C61.0359 40.8267 60.9411 39.6662 60.4817 38.6149C60.3577 38.6962 60.2777 38.8074 60.2392 38.9509ZM58.0847 42.5009C58.3691 42.4603 58.6535 42.4197 58.9377 42.3815C58.8551 41.4904 58.7575 40.6001 58.5631 39.7265C58.3579 40.6428 58.2506 41.5776 58.0847 42.5009ZM26.255 37.2496C26.2591 37.503 26.2672 38.01 26.2713 38.2634C25.5696 38.5051 24.8058 38.3864 24.1046 38.578C21.8252 39.8769 19.2788 40.5921 16.7223 41.0857C17.0471 41.8212 17.3769 42.5573 17.6886 43.2988C20.3329 43.6493 23.0268 43.8701 25.6808 43.5102C26.6407 43.3728 27.609 43.294 28.5751 43.235C28.2901 42.256 28.0513 41.0642 28.7286 40.1936C28.827 41.367 29.024 42.5967 29.6496 43.6141C29.3369 41.7 29.568 39.7496 29.1815 37.8473C29.0866 37.8691 28.8998 37.9082 28.8049 37.9301C28.6385 38.7681 28.8514 39.744 28.2679 40.4473C28.2857 39.5751 28.2881 38.7061 28.3802 37.8397C27.6468 37.7395 26.9198 37.5825 26.255 37.2496ZM57.56 45.3326C57.4915 45.7433 57.418 46.1533 57.3443 46.5659C59.5615 46.1343 61.7815 45.723 64.0026 45.3018C63.8555 44.9195 63.7112 44.535 63.5716 44.1535C61.5663 44.5439 59.5655 44.9398 57.56 45.3326ZM54.872 45.8615C54.665 46.2816 54.4465 46.6929 54.2442 47.116C55.2606 46.9649 56.2689 46.7529 57.2785 46.5509C57.2622 46.1608 57.2482 45.7735 57.2369 45.3839C56.4486 45.5506 55.6617 45.705 54.872 45.8615ZM49.0738 48.1243C49.6166 48.0076 50.1613 47.8961 50.7058 47.7871C50.895 47.37 51.0934 46.959 51.2755 46.5386C50.2762 46.6039 49.7069 47.4691 49.0738 48.1243ZM56.663 49.7683C56.3654 49.86 55.9497 49.8458 55.8459 50.2148C56.0371 50.8276 56.5157 51.4401 56.2434 52.1084C55.6911 52.8227 54.8236 53.1834 54.1751 53.7968C50.6168 57.0534 47.0631 60.313 43.5138 63.5781C45.7904 67.1212 46.488 71.5536 45.6132 75.6586C48.9151 71.3235 51.5545 66.3226 52.4863 60.9063C52.6842 59.8539 53.6156 59.0796 54.637 58.884C56.6126 58.4452 58.6168 57.9971 60.4398 57.0927C62.0207 56.1635 63.3514 54.858 64.5158 53.4535C64.7613 53.113 65.1007 52.7829 65.1226 52.342C65.226 50.9508 64.9434 49.5712 64.7468 48.2039C62.0553 48.7424 59.3461 49.1937 56.663 49.7683Z" fill="#323232"/>
</svg>
