<?xml version="1.0" encoding="UTF-8" ?>
<!DOCTYPE svg PUBLIC "-//W3C//DTD SVG 1.1//EN" "http://www.w3.org/Graphics/SVG/1.1/DTD/svg11.dtd">
<svg width="279pt" height="547pt" viewBox="0 0 279 547" version="1.1" xmlns="http://www.w3.org/2000/svg">
<g id="#ffffffff">
<path fill="#ffffff" opacity="1.00" d=" M 0.00 0.00 L 279.00 0.00 L 279.00 547.00 L 0.00 547.00 L 0.00 0.00 M 123.80 12.84 C 110.83 20.09 101.03 32.59 96.80 46.81 C 90.67 65.67 92.27 86.05 96.87 105.05 C 100.22 107.79 100.98 112.63 104.73 115.09 C 102.76 121.05 101.13 127.84 95.89 131.86 C 94.63 132.84 93.59 134.16 93.35 135.78 C 92.51 140.50 92.93 145.64 95.34 149.87 C 96.34 151.67 97.42 154.02 95.99 155.91 C 92.95 159.96 89.32 163.84 88.04 168.87 C 87.64 174.70 89.15 180.49 91.64 185.73 C 80.07 187.20 68.58 190.22 58.53 196.31 C 37.31 208.91 21.85 229.46 11.62 251.61 C 6.07 269.82 6.34 289.13 6.23 307.98 C 5.26 320.30 2.96 332.54 2.99 344.93 C 2.81 349.10 4.60 352.94 5.59 356.91 C 7.13 363.19 8.62 369.55 8.72 376.04 C 8.46 385.07 9.03 394.08 8.96 403.10 C 10.46 411.00 15.07 417.93 16.60 425.85 C 18.89 438.46 19.35 451.67 24.71 463.51 C 27.19 469.19 32.60 472.77 35.57 478.13 C 39.24 484.44 41.81 491.30 44.96 497.88 C 46.46 501.30 48.43 504.59 51.34 507.00 C 56.53 511.31 61.57 516.19 64.39 522.42 C 66.71 528.36 64.76 534.80 65.53 540.95 C 65.72 541.98 66.61 543.82 67.95 543.04 C 80.46 538.41 93.38 532.10 107.10 534.01 C 105.72 520.61 103.56 507.27 100.47 494.17 C 98.84 487.55 101.07 480.29 98.04 474.01 C 95.71 470.62 93.35 466.89 94.06 462.55 C 103.97 461.67 113.94 461.76 123.83 462.77 C 134.23 463.18 144.64 462.72 155.04 463.02 C 170.02 463.46 185.00 462.66 199.97 463.07 C 206.11 462.78 212.31 463.42 218.40 462.25 C 223.84 461.19 229.60 460.22 234.12 456.76 C 235.67 464.37 237.10 472.06 237.29 479.83 C 236.19 487.01 238.28 494.01 239.86 500.92 C 240.11 507.89 242.67 514.46 245.28 520.84 C 245.65 522.16 246.70 523.02 247.83 523.71 C 250.70 520.64 254.56 518.34 258.84 518.14 C 263.93 517.45 268.88 519.47 273.94 519.28 C 276.06 518.96 275.52 516.49 275.13 515.08 C 273.04 507.11 270.36 499.21 269.60 490.96 C 269.34 483.63 269.56 476.30 269.85 468.98 C 270.09 466.86 268.86 465.01 268.40 463.02 C 268.83 460.98 269.80 459.10 270.33 457.10 C 270.24 454.68 268.02 453.55 266.37 452.24 C 267.32 450.28 268.94 448.37 268.60 446.05 C 267.07 427.07 266.92 407.98 268.29 388.99 C 269.31 373.22 267.96 357.34 264.67 341.90 C 261.64 324.49 255.78 307.63 253.89 290.02 C 252.36 273.45 249.07 256.84 242.29 241.58 C 240.09 237.29 237.93 232.30 233.36 230.08 C 230.46 227.16 227.51 224.27 224.18 221.84 C 212.99 213.51 200.97 206.35 188.64 199.85 C 188.49 191.58 188.54 183.32 188.36 175.06 C 188.51 173.97 187.62 171.74 186.31 173.12 C 183.23 176.42 180.19 179.82 177.48 183.44 C 176.60 190.51 176.82 197.70 176.02 204.78 C 175.49 204.93 174.43 205.22 173.90 205.36 C 173.41 197.89 173.22 190.41 172.63 182.95 C 172.65 181.66 171.23 181.24 170.38 180.62 C 155.08 171.89 139.81 163.12 124.55 154.34 C 122.39 153.21 119.97 151.01 117.48 152.68 C 111.64 155.97 109.67 162.93 107.87 168.94 C 106.44 172.95 106.83 177.74 103.77 181.03 C 99.40 174.22 100.60 165.71 100.08 158.02 C 100.30 150.61 98.08 143.35 98.63 135.95 C 103.84 138.05 107.27 143.07 112.68 144.78 C 109.96 133.09 113.20 121.06 117.25 110.08 C 119.06 104.74 123.38 100.59 124.59 95.02 C 126.26 87.63 125.70 79.99 125.17 72.51 C 140.97 66.38 158.07 63.45 175.00 64.10 C 186.33 64.66 198.24 67.49 206.82 75.32 C 208.58 78.53 208.77 82.33 208.67 85.92 C 208.01 103.65 207.31 121.37 206.25 139.08 C 206.11 140.60 206.09 142.15 205.62 143.61 C 202.19 147.78 197.41 150.69 194.24 155.10 C 193.16 156.51 194.66 158.25 195.30 159.57 C 196.60 161.73 199.11 164.79 201.89 163.00 C 206.61 160.33 211.39 156.76 213.53 151.60 C 213.97 148.47 211.85 145.59 211.70 142.47 C 210.30 129.10 211.80 115.65 213.23 102.35 C 216.46 99.90 219.32 97.03 222.21 94.21 C 225.16 91.36 226.93 87.58 229.66 84.54 C 231.68 81.89 234.28 79.43 235.07 76.07 C 237.32 67.92 235.92 58.88 230.86 52.04 C 228.42 42.06 224.63 32.09 217.68 24.31 C 207.97 12.89 193.61 6.29 178.99 3.96 C 160.31 0.31 140.37 3.46 123.80 12.84 Z" />
<path fill="#ffffff" opacity="1.00" d=" M 102.13 83.13 C 105.23 81.69 108.66 80.18 112.15 81.09 C 115.66 82.04 117.46 86.61 115.76 89.75 C 111.89 97.83 107.93 105.87 104.58 114.18 C 102.18 107.98 99.74 101.66 99.15 94.97 C 99.27 90.87 100.45 86.86 102.13 83.13 Z" />
</g>
<g id="#000000ff">
<path fill="#000000" opacity="1.00" d=" M 123.80 12.84 C 140.37 3.46 160.31 0.31 178.99 3.96 C 193.61 6.29 207.97 12.89 217.68 24.31 C 224.63 32.09 228.42 42.06 230.86 52.04 C 235.92 58.88 237.32 67.92 235.07 76.07 C 234.28 79.43 231.68 81.89 229.66 84.54 C 226.93 87.58 225.16 91.36 222.21 94.21 C 219.32 97.03 216.46 99.90 213.23 102.35 C 211.80 115.65 210.30 129.10 211.70 142.47 C 211.85 145.59 213.97 148.47 213.53 151.60 C 211.39 156.76 206.61 160.33 201.89 163.00 C 199.11 164.79 196.60 161.73 195.30 159.57 C 194.66 158.25 193.16 156.51 194.24 155.10 C 197.41 150.69 202.19 147.78 205.62 143.61 C 206.09 142.15 206.11 140.60 206.25 139.08 C 207.31 121.37 208.01 103.65 208.67 85.92 C 208.77 82.33 208.58 78.53 206.82 75.32 C 198.24 67.49 186.33 64.66 175.00 64.10 C 158.07 63.45 140.97 66.38 125.17 72.51 C 125.70 79.99 126.26 87.63 124.59 95.02 C 123.38 100.59 119.06 104.74 117.25 110.08 C 113.20 121.06 109.96 133.09 112.68 144.78 C 107.27 143.07 103.84 138.05 98.63 135.95 C 98.08 143.35 100.30 150.61 100.08 158.02 C 100.60 165.71 99.40 174.22 103.77 181.03 C 106.83 177.74 106.44 172.95 107.87 168.94 C 109.67 162.93 111.64 155.97 117.48 152.68 C 119.97 151.01 122.39 153.21 124.55 154.34 C 139.81 163.12 155.08 171.89 170.38 180.62 C 171.23 181.24 172.65 181.66 172.63 182.95 C 173.22 190.41 173.41 197.89 173.90 205.36 C 174.43 205.22 175.49 204.93 176.02 204.78 C 176.82 197.70 176.60 190.51 177.48 183.44 C 180.19 179.82 183.23 176.42 186.31 173.12 C 187.62 171.74 188.51 173.97 188.36 175.06 C 188.54 183.32 188.49 191.58 188.64 199.85 C 200.97 206.35 212.99 213.51 224.18 221.84 C 227.51 224.27 230.46 227.16 233.36 230.08 C 237.93 232.30 240.09 237.29 242.29 241.58 C 249.07 256.84 252.36 273.45 253.89 290.02 C 255.78 307.63 261.64 324.49 264.67 341.90 C 267.96 357.34 269.31 373.22 268.29 388.99 C 266.92 407.98 267.07 427.07 268.60 446.05 C 268.94 448.37 267.32 450.28 266.37 452.24 C 268.02 453.55 270.24 454.68 270.33 457.10 C 269.80 459.10 268.83 460.98 268.40 463.02 C 268.86 465.01 270.09 466.86 269.85 468.98 C 269.56 476.30 269.34 483.63 269.60 490.96 C 270.36 499.21 273.04 507.11 275.13 515.08 C 275.52 516.49 276.06 518.96 273.94 519.28 C 268.88 519.47 263.93 517.45 258.84 518.14 C 254.56 518.34 250.70 520.64 247.83 523.71 C 246.70 523.02 245.65 522.16 245.28 520.84 C 242.67 514.46 240.11 507.89 239.86 500.92 C 238.28 494.01 236.19 487.01 237.29 479.83 C 237.10 472.06 235.67 464.37 234.12 456.76 C 229.60 460.22 223.84 461.19 218.40 462.25 C 212.31 463.42 206.11 462.78 199.97 463.07 C 185.00 462.66 170.02 463.46 155.04 463.02 C 144.64 462.72 134.23 463.18 123.83 462.77 C 113.94 461.76 103.97 461.67 94.06 462.55 C 93.35 466.89 95.71 470.62 98.04 474.01 C 101.07 480.29 98.84 487.55 100.47 494.17 C 103.56 507.27 105.72 520.61 107.10 534.01 C 93.38 532.10 80.46 538.41 67.95 543.04 C 66.61 543.82 65.72 541.98 65.53 540.95 C 64.76 534.80 66.71 528.36 64.39 522.42 C 61.57 516.19 56.53 511.31 51.34 507.00 C 48.43 504.59 46.46 501.30 44.96 497.88 C 41.81 491.30 39.24 484.44 35.57 478.13 C 32.60 472.77 27.19 469.19 24.71 463.51 C 19.35 451.67 18.89 438.46 16.60 425.85 C 15.07 417.93 10.46 411.00 8.96 403.10 C 9.03 394.08 8.46 385.07 8.72 376.04 C 8.62 369.55 7.13 363.19 5.59 356.91 C 4.60 352.94 2.81 349.10 2.99 344.93 C 2.96 332.54 5.26 320.30 6.23 307.98 C 6.34 289.13 6.07 269.82 11.62 251.61 C 21.85 229.46 37.31 208.91 58.53 196.31 C 68.58 190.22 80.07 187.20 91.64 185.73 C 89.15 180.49 87.64 174.70 88.04 168.87 C 89.32 163.84 92.95 159.96 95.99 155.91 C 97.42 154.02 96.34 151.67 95.34 149.87 C 92.93 145.64 92.51 140.50 93.35 135.78 C 93.59 134.16 94.63 132.84 95.89 131.86 C 101.13 127.84 102.76 121.05 104.73 115.09 C 100.98 112.63 100.22 107.79 96.87 105.05 C 92.27 86.05 90.67 65.67 96.80 46.81 C 101.03 32.59 110.83 20.09 123.80 12.84 M 131.39 11.32 C 120.19 15.84 110.36 24.05 104.41 34.61 C 94.97 50.59 93.94 69.89 95.68 87.95 C 99.30 75.13 110.42 66.48 121.30 59.84 C 127.59 55.74 135.39 54.82 141.44 50.30 C 144.37 48.20 147.43 46.28 150.74 44.82 C 166.21 37.85 183.76 35.39 200.50 38.32 C 209.89 39.90 219.46 42.62 227.00 48.69 C 224.21 35.99 216.90 24.21 206.12 16.80 C 192.73 7.57 176.06 4.26 160.03 4.38 C 150.23 5.15 140.34 7.21 131.39 11.32 M 145.50 49.93 C 153.90 48.41 162.37 46.82 170.96 46.99 C 187.45 46.65 204.60 50.93 217.51 61.58 C 223.43 66.36 228.33 73.18 228.41 81.08 C 235.89 72.59 234.03 58.52 226.07 50.95 C 220.24 45.69 212.58 43.02 205.05 41.24 C 185.10 36.85 163.15 39.32 145.50 49.93 M 102.13 83.13 C 100.45 86.86 99.27 90.87 99.15 94.97 C 99.74 101.66 102.18 107.98 104.58 114.18 C 107.93 105.87 111.89 97.83 115.76 89.75 C 117.46 86.61 115.66 82.04 112.15 81.09 C 108.66 80.18 105.23 81.69 102.13 83.13 M 112.94 160.99 C 108.91 167.60 109.34 175.81 105.33 182.39 C 110.06 188.42 115.36 194.05 119.33 200.63 C 121.07 203.38 120.66 206.94 122.39 209.65 C 126.31 212.14 131.61 209.85 135.62 212.27 C 136.87 214.47 133.80 215.40 132.34 216.27 C 128.30 217.73 123.51 219.71 119.35 217.72 C 115.60 214.00 116.99 206.76 111.66 204.28 C 104.25 200.01 96.93 194.80 92.75 187.12 C 86.66 189.53 79.94 189.38 73.83 191.72 C 63.82 194.57 55.08 200.49 46.90 206.74 C 40.25 212.45 33.89 218.70 29.06 226.07 C 26.66 229.78 24.06 233.35 21.78 237.13 C 22.84 236.08 23.87 235.00 25.02 234.06 C 32.79 228.35 40.29 221.94 49.37 218.38 C 52.47 217.06 55.71 218.41 58.72 219.29 C 60.51 221.83 63.86 222.88 66.31 224.75 C 78.20 232.90 89.61 241.83 99.83 252.03 C 102.86 255.91 107.81 259.95 106.58 265.45 C 105.03 271.00 104.34 276.76 104.42 282.51 C 103.28 289.41 105.21 296.28 106.22 303.06 C 106.62 315.07 103.59 326.81 102.20 338.67 C 102.80 346.11 97.44 351.96 91.83 355.98 C 90.30 357.40 87.71 358.54 87.78 360.94 C 88.37 366.99 93.15 371.83 93.13 378.01 C 93.32 381.29 91.75 384.29 91.42 387.50 C 88.85 390.86 86.24 394.20 83.63 397.54 C 81.12 400.77 85.00 403.92 86.77 406.39 L 86.56 406.79 C 92.35 411.88 95.58 419.40 96.34 426.98 C 97.49 437.96 95.92 448.98 94.29 459.83 C 103.15 459.29 112.06 458.86 120.91 459.71 C 129.91 460.61 138.96 460.12 147.99 460.24 C 164.16 460.42 180.34 460.60 196.50 459.95 C 196.88 459.92 197.63 459.87 198.01 459.85 C 198.97 457.69 198.49 455.30 198.39 453.03 C 198.07 448.64 198.65 444.26 199.21 439.92 C 199.28 439.23 199.42 437.84 199.48 437.15 C 200.00 425.67 197.87 414.22 194.60 403.25 C 190.18 383.60 190.05 363.32 187.16 343.45 C 185.99 332.01 185.29 320.52 184.78 309.03 C 184.39 300.74 185.11 292.41 184.05 284.16 C 184.49 281.44 184.10 278.68 183.82 275.96 C 182.87 268.60 182.23 261.19 180.81 253.90 C 178.61 238.74 176.75 223.50 173.76 208.48 C 173.04 207.63 171.52 207.22 171.42 205.98 C 170.85 199.13 170.88 192.25 170.46 185.39 C 170.53 183.79 169.29 182.75 168.00 182.07 C 152.72 173.37 137.48 164.58 122.25 155.79 C 118.38 152.86 114.45 157.67 112.94 160.99 M 179.53 185.71 C 178.92 191.42 178.79 197.17 178.58 202.90 C 178.58 205.72 176.17 208.08 176.84 210.95 C 177.71 216.42 178.56 221.91 179.85 227.30 C 180.78 237.05 182.38 246.73 183.48 256.46 C 184.35 266.14 186.26 275.73 186.74 285.47 C 187.52 294.33 186.89 303.22 187.36 312.10 C 187.83 322.46 188.56 332.81 189.55 343.14 C 190.31 353.08 191.64 362.97 192.48 372.91 C 192.82 376.53 192.61 380.28 193.93 383.74 C 193.98 388.72 194.82 393.68 196.46 398.39 C 196.34 399.94 196.47 401.50 196.92 403.00 C 199.39 411.80 201.43 420.80 201.80 429.97 C 202.30 437.43 199.97 444.82 201.07 452.28 L 200.59 452.99 C 200.21 455.44 200.57 457.90 201.43 460.22 C 210.17 460.06 219.35 460.17 227.52 456.65 C 230.49 456.71 232.92 454.56 234.04 451.95 C 236.04 447.27 236.01 442.04 235.58 437.06 C 234.77 427.96 236.25 418.88 236.72 409.81 C 237.97 394.54 239.77 379.29 241.04 364.01 C 241.46 357.23 243.13 350.63 244.11 343.94 C 245.04 342.34 244.95 340.45 245.14 338.68 C 248.21 320.66 248.49 302.18 246.28 284.03 C 244.50 271.06 242.18 257.92 237.14 245.78 C 235.52 239.99 232.81 234.50 229.33 229.60 L 229.25 229.14 C 217.46 218.26 203.35 210.22 189.21 202.82 C 188.18 202.24 187.15 201.66 186.12 201.09 C 185.69 193.30 185.87 185.49 185.66 177.70 C 182.97 179.72 179.95 182.13 179.53 185.71 M 45.98 223.08 C 37.96 227.71 30.34 233.18 23.85 239.80 C 19.94 244.30 15.57 248.74 13.47 254.43 C 9.42 269.26 8.75 284.76 8.67 300.05 C 9.27 315.12 5.36 329.93 5.57 345.00 C 5.61 348.46 6.73 351.77 7.66 355.07 C 9.65 362.43 11.04 369.98 11.38 377.61 L 11.53 377.72 C 11.14 382.05 11.18 386.47 12.23 390.71 C 11.83 394.88 11.30 399.09 11.60 403.28 C 12.35 407.92 14.85 412.01 16.44 416.39 C 20.74 426.74 20.83 438.13 23.18 448.97 C 24.66 456.40 26.64 464.33 32.23 469.82 C 35.47 472.91 37.84 476.71 40.29 480.42 C 41.15 482.15 41.76 484.11 43.15 485.52 C 44.04 490.96 46.83 495.81 49.21 500.71 C 51.44 505.34 56.43 507.54 59.59 511.40 C 62.85 515.26 66.43 519.29 67.53 524.37 C 68.37 529.61 67.70 534.93 68.01 540.21 C 79.66 535.88 91.50 530.74 104.19 531.16 C 103.03 519.65 101.20 508.19 98.36 496.98 C 96.91 491.05 97.67 484.92 96.92 478.93 C 96.65 474.72 92.65 472.04 91.97 467.97 C 90.83 461.98 92.37 455.99 92.93 450.03 C 93.53 443.34 94.46 436.61 93.80 429.88 C 93.31 425.03 92.63 419.93 89.53 415.97 C 87.08 411.13 82.69 407.64 80.26 402.82 C 78.11 397.26 84.09 393.80 86.43 389.56 L 86.77 389.38 C 89.20 385.00 91.41 379.70 89.41 374.73 C 87.44 370.07 85.29 365.47 83.88 360.60 C 85.02 358.63 86.27 356.73 87.47 354.80 C 91.63 352.81 95.13 349.40 97.44 345.43 C 99.43 340.53 99.10 335.09 100.08 329.96 C 101.44 318.80 104.91 307.34 101.59 296.21 C 100.62 288.46 100.71 280.52 101.63 272.77 C 101.96 268.79 104.72 264.42 102.31 260.65 C 98.00 253.80 91.70 248.57 85.59 243.40 C 76.04 235.47 66.13 227.84 55.29 221.74 C 52.27 219.70 48.74 221.50 45.98 223.08 M 241.12 246.88 C 241.61 249.89 242.56 252.78 243.43 255.70 C 248.69 274.94 251.26 294.97 250.30 314.91 C 250.25 316.63 250.10 318.41 250.64 320.09 C 249.65 324.42 249.31 328.86 249.13 333.29 C 247.97 337.09 247.71 341.08 246.99 344.98 C 246.05 350.74 244.60 356.41 244.02 362.23 L 243.69 362.96 C 243.12 366.45 243.06 369.99 242.99 373.52 C 242.38 376.82 242.02 380.16 241.91 383.53 C 241.33 390.57 239.88 397.60 240.44 404.70 C 240.26 405.05 239.90 405.75 239.71 406.10 C 239.30 413.07 238.35 420.00 238.00 426.98 C 237.59 435.08 239.57 443.20 238.06 451.26 C 237.49 452.75 236.45 454.20 236.55 455.86 C 237.64 463.24 239.15 470.61 239.58 478.08 C 239.18 483.83 238.97 489.72 240.99 495.23 C 241.78 498.07 242.30 500.98 242.68 503.91 C 243.34 509.36 245.31 514.54 247.67 519.47 C 250.40 517.80 253.18 515.98 256.41 515.49 C 261.88 514.63 267.34 516.03 272.82 516.10 C 271.64 510.29 269.45 504.75 268.40 498.92 C 266.17 489.42 267.17 479.60 267.21 469.94 C 267.21 467.55 266.28 465.31 265.87 462.99 C 265.83 460.89 266.76 458.93 267.33 456.94 C 266.11 455.67 264.82 454.45 263.84 452.98 C 264.14 450.24 266.09 447.85 265.75 445.02 C 264.71 431.05 264.41 417.03 264.87 403.03 C 265.23 394.35 265.94 385.69 265.94 377.01 C 265.87 362.15 263.17 347.47 260.02 333.00 C 256.38 317.48 251.93 302.05 250.52 286.11 C 249.51 274.65 246.87 263.39 243.50 252.41 C 242.90 250.48 242.09 248.64 241.12 246.88 Z" />
</g>
<g id="#f1190cff">
<path fill="#f1190c" opacity="1.00" d=" M 131.39 11.32 C 140.34 7.21 150.23 5.15 160.03 4.38 C 176.06 4.26 192.73 7.57 206.12 16.80 C 216.90 24.21 224.21 35.99 227.00 48.69 C 219.46 42.62 209.89 39.90 200.50 38.32 C 183.76 35.39 166.21 37.85 150.74 44.82 C 147.43 46.28 144.37 48.20 141.44 50.30 C 135.39 54.82 127.59 55.74 121.30 59.84 C 117.30 58.20 112.87 56.19 111.08 51.94 C 109.21 47.00 110.74 41.54 112.93 36.97 C 117.50 27.40 124.32 19.13 131.39 11.32 Z" />
<path fill="#f1190c" opacity="1.00" d=" M 145.50 49.93 C 163.15 39.32 185.10 36.85 205.05 41.24 C 212.58 43.02 220.24 45.69 226.07 50.95 C 234.03 58.52 235.89 72.59 228.41 81.08 C 228.33 73.18 223.43 66.36 217.51 61.58 C 204.60 50.93 187.45 46.65 170.96 46.99 C 162.37 46.82 153.90 48.41 145.50 49.93 Z" />
<path fill="#f1190c" opacity="1.00" d=" M 104.60 281.80 C 113.32 282.46 122.06 282.98 130.81 283.25 C 130.00 288.50 129.86 293.82 129.24 299.08 C 128.77 304.03 127.77 309.08 128.90 314.02 C 130.95 323.24 134.27 332.10 137.25 341.04 C 126.35 340.51 115.49 339.53 104.61 338.86 C 107.26 328.43 111.71 318.20 111.34 307.24 C 109.62 298.63 105.90 290.52 104.60 281.80 Z" />
<path fill="#f1190c" opacity="1.00" d=" M 133.49 283.49 C 149.80 284.23 166.12 284.86 182.44 285.32 C 182.94 304.61 183.83 323.91 185.02 343.18 C 170.37 342.55 155.69 342.31 141.04 341.28 L 140.70 341.25 C 138.67 335.17 136.35 329.20 133.60 323.41 C 131.21 318.43 130.31 312.77 131.41 307.33 C 132.89 299.47 133.57 291.48 133.49 283.49 Z" />
<path fill="#f1190c" opacity="1.00" d=" M 186.74 285.47 C 206.58 285.65 226.55 286.62 246.28 284.03 C 248.49 302.18 248.21 320.66 245.14 338.68 C 227.05 343.56 208.11 342.93 189.55 343.14 C 188.56 332.81 187.83 322.46 187.36 312.10 C 186.89 303.22 187.52 294.33 186.74 285.47 Z" />
</g>
<g id="#ee574eff">
<path fill="#ee574e" opacity="1.00" d=" M 104.41 34.61 C 110.36 24.05 120.19 15.84 131.39 11.32 C 124.32 19.13 117.50 27.40 112.93 36.97 C 110.74 41.54 109.21 47.00 111.08 51.94 C 112.87 56.19 117.30 58.20 121.30 59.84 C 110.42 66.48 99.30 75.13 95.68 87.95 C 93.94 69.89 94.97 50.59 104.41 34.61 Z" />
<path fill="#ee574e" opacity="1.00" d=" M 104.42 282.51 L 104.60 281.80 C 105.90 290.52 109.62 298.63 111.34 307.24 C 111.71 318.20 107.26 328.43 104.61 338.86 C 104.01 338.81 102.80 338.72 102.20 338.67 C 103.59 326.81 106.62 315.07 106.22 303.06 C 105.21 296.28 103.28 289.41 104.42 282.51 Z" />
<path fill="#ee574e" opacity="1.00" d=" M 130.81 283.25 C 131.11 283.02 131.72 282.57 132.03 282.34 C 132.39 282.63 133.13 283.20 133.49 283.49 C 133.57 291.48 132.89 299.47 131.41 307.33 C 130.31 312.77 131.21 318.43 133.60 323.41 C 136.35 329.20 138.67 335.17 140.70 341.25 C 139.54 341.18 138.39 341.11 137.25 341.04 C 134.27 332.10 130.95 323.24 128.90 314.02 C 127.77 309.08 128.77 304.03 129.24 299.08 C 129.86 293.82 130.00 288.50 130.81 283.25 Z" />
<path fill="#ee574e" opacity="1.00" d=" M 182.44 285.32 C 182.85 285.03 183.65 284.45 184.05 284.16 C 185.11 292.41 184.39 300.74 184.78 309.03 C 185.29 320.52 185.99 332.01 187.16 343.45 C 186.62 343.38 185.56 343.24 185.02 343.18 C 183.83 323.91 182.94 304.61 182.44 285.32 Z" />
</g>
<g id="#1b232aff">
<path fill="#1b232a" opacity="1.00" d=" M 112.94 160.99 C 114.45 157.67 118.38 152.86 122.25 155.79 C 137.48 164.58 152.72 173.37 168.00 182.07 C 169.29 182.75 170.53 183.79 170.46 185.39 C 170.88 192.25 170.85 199.13 171.42 205.98 C 171.52 207.22 173.04 207.63 173.76 208.48 C 176.75 223.50 178.61 238.74 180.81 253.90 C 182.23 261.19 182.87 268.60 183.82 275.96 C 184.10 278.68 184.49 281.44 184.05 284.16 C 183.65 284.45 182.85 285.03 182.44 285.32 C 166.12 284.86 149.80 284.23 133.49 283.49 C 133.13 283.20 132.39 282.63 132.03 282.34 C 131.72 282.57 131.11 283.02 130.81 283.25 C 122.06 282.98 113.32 282.46 104.60 281.80 C 106.17 277.03 106.28 271.60 109.50 267.52 C 111.84 264.27 115.00 261.72 117.37 258.49 C 118.93 256.33 117.29 253.63 116.62 251.42 C 114.84 247.68 113.20 243.13 109.24 241.20 C 104.75 243.36 102.51 248.10 99.83 252.03 C 89.61 241.83 78.20 232.90 66.31 224.75 C 63.86 222.88 60.51 221.83 58.72 219.29 C 58.21 216.82 57.74 214.33 57.41 211.83 C 56.82 209.18 58.61 206.91 59.60 204.62 C 56.41 206.55 54.41 209.66 53.07 213.07 C 51.42 217.20 46.81 218.52 43.12 220.21 C 38.64 221.97 34.62 224.67 30.79 227.57 C 30.36 227.19 29.49 226.45 29.06 226.07 C 33.89 218.70 40.25 212.45 46.90 206.74 C 55.08 200.49 63.82 194.57 73.83 191.72 C 79.94 189.38 86.66 189.53 92.75 187.12 C 96.93 194.80 104.25 200.01 111.66 204.28 C 116.99 206.76 115.60 214.00 119.35 217.72 C 123.51 219.71 128.30 217.73 132.34 216.27 C 133.80 215.40 136.87 214.47 135.62 212.27 C 131.61 209.85 126.31 212.14 122.39 209.65 C 120.66 206.94 121.07 203.38 119.33 200.63 C 115.36 194.05 110.06 188.42 105.33 182.39 C 109.34 175.81 108.91 167.60 112.94 160.99 M 119.68 168.95 C 122.70 171.62 126.53 173.00 130.03 174.89 C 137.77 178.61 145.28 182.88 153.28 186.02 C 148.94 182.67 143.70 180.78 138.96 178.07 C 132.57 174.98 126.45 171.20 119.68 168.95 M 144.08 173.02 C 146.89 175.22 149.80 177.30 152.94 179.01 C 150.17 176.76 147.25 174.67 144.08 173.02 M 153.91 179.97 C 156.70 182.30 159.77 184.28 162.97 186.01 C 160.35 183.47 157.35 181.27 153.91 179.97 Z" />
<path fill="#1b232a" opacity="1.00" d=" M 179.53 185.71 C 179.95 182.13 182.97 179.72 185.66 177.70 C 185.87 185.49 185.69 193.30 186.12 201.09 C 183.90 203.26 181.22 205.15 179.85 208.03 C 182.54 212.20 186.69 215.13 189.88 218.89 C 189.23 213.56 189.10 208.18 189.21 202.82 C 203.35 210.22 217.46 218.26 229.25 229.14 L 229.33 229.60 C 230.30 235.83 233.39 241.61 233.37 248.02 C 233.41 258.02 234.24 267.99 234.57 277.98 C 234.61 280.11 235.00 282.25 236.09 284.12 C 237.32 271.39 237.40 258.56 237.14 245.78 C 242.18 257.92 244.50 271.06 246.28 284.03 C 226.55 286.62 206.58 285.65 186.74 285.47 C 186.26 275.73 184.35 266.14 183.48 256.46 C 183.86 250.32 183.60 244.16 183.04 238.04 C 182.51 232.52 182.52 226.82 180.41 221.61 C 180.17 223.50 179.96 225.39 179.85 227.30 C 178.56 221.91 177.71 216.42 176.84 210.95 C 176.17 208.08 178.58 205.72 178.58 202.90 C 178.79 197.17 178.92 191.42 179.53 185.71 Z" />
<path fill="#1b232a" opacity="1.00" d=" M 45.98 223.08 C 48.74 221.50 52.27 219.70 55.29 221.74 C 66.13 227.84 76.04 235.47 85.59 243.40 C 91.70 248.57 98.00 253.80 102.31 260.65 C 104.72 264.42 101.96 268.79 101.63 272.77 C 100.71 280.52 100.62 288.46 101.59 296.21 C 104.91 307.34 101.44 318.80 100.08 329.96 C 99.10 335.09 99.43 340.53 97.44 345.43 C 95.13 349.40 91.63 352.81 87.47 354.80 C 90.08 350.12 92.78 345.48 95.19 340.69 C 89.03 343.18 83.37 346.74 77.21 349.20 C 73.46 350.73 69.65 348.42 66.56 346.46 C 59.84 342.19 54.84 335.91 48.89 330.74 C 49.10 333.33 49.39 336.00 50.73 338.30 C 54.44 345.28 58.34 352.17 61.88 359.25 C 62.67 360.92 63.49 362.64 63.66 364.51 C 61.52 366.94 58.06 367.28 55.17 368.33 C 55.10 369.94 55.02 371.55 54.95 373.16 C 57.52 371.95 60.02 369.91 62.99 370.08 C 65.67 370.81 67.57 373.06 70.03 374.25 C 71.47 374.75 72.74 373.60 73.84 372.86 C 77.96 369.49 81.20 365.17 83.88 360.60 C 85.29 365.47 87.44 370.07 89.41 374.73 C 91.41 379.70 89.20 385.00 86.77 389.38 L 86.43 389.56 C 81.69 391.85 77.71 395.43 74.26 399.36 C 72.84 401.15 71.04 403.49 72.16 405.89 C 73.68 409.67 76.50 412.79 79.45 415.53 C 81.52 417.24 84.06 419.15 86.90 418.71 C 87.94 417.97 88.67 416.89 89.53 415.97 C 92.63 419.93 93.31 425.03 93.80 429.88 C 94.46 436.61 93.53 443.34 92.93 450.03 C 92.37 455.99 90.83 461.98 91.97 467.97 C 92.65 472.04 96.65 474.72 96.92 478.93 C 97.67 484.92 96.91 491.05 98.36 496.98 C 101.20 508.19 103.03 519.65 104.19 531.16 C 91.50 530.74 79.66 535.88 68.01 540.21 C 67.70 534.93 68.37 529.61 67.53 524.37 C 66.43 519.29 62.85 515.26 59.59 511.40 C 56.43 507.54 51.44 505.34 49.21 500.71 C 46.83 495.81 44.04 490.96 43.15 485.52 C 50.49 491.09 58.07 496.35 65.97 501.10 C 68.26 502.48 70.78 503.43 73.34 504.21 C 72.46 499.71 67.65 498.68 64.19 496.81 C 56.79 492.87 51.02 486.61 44.62 481.32 C 43.46 480.14 41.77 480.39 40.29 480.42 C 37.84 476.71 35.47 472.91 32.23 469.82 C 26.64 464.33 24.66 456.40 23.18 448.97 C 20.83 438.13 20.74 426.74 16.44 416.39 C 14.85 412.01 12.35 407.92 11.60 403.28 C 11.30 399.09 11.83 394.88 12.23 390.71 C 13.11 394.03 14.45 397.19 15.94 400.28 C 23.08 397.33 31.14 397.02 37.91 393.23 C 33.65 391.01 29.05 389.47 24.94 386.93 C 20.31 384.10 16.10 380.64 11.53 377.72 L 11.38 377.61 C 11.04 369.98 9.65 362.43 7.66 355.07 C 6.73 351.77 5.61 348.46 5.57 345.00 C 5.36 329.93 9.27 315.12 8.67 300.05 C 8.75 284.76 9.42 269.26 13.47 254.43 C 15.57 248.74 19.94 244.30 23.85 239.80 C 30.34 233.18 37.96 227.71 45.98 223.08 M 13.64 321.61 C 13.85 323.17 13.20 325.23 14.71 326.34 C 18.17 329.02 22.77 329.43 26.47 331.69 C 35.24 336.95 42.30 344.47 50.04 351.05 C 48.61 345.84 46.60 340.75 43.71 336.17 C 40.86 332.21 36.28 330.03 32.03 327.92 C 26.09 325.31 20.01 322.93 13.64 321.61 M 72.25 429.31 C 65.23 436.60 58.08 443.76 50.91 450.90 C 48.47 453.33 45.64 455.40 43.68 458.27 C 48.34 456.88 52.18 453.79 56.22 451.20 C 60.60 448.24 65.27 445.70 69.44 442.43 C 73.81 439.10 77.62 434.89 82.77 432.72 C 86.88 435.15 89.93 430.76 91.22 427.37 C 85.07 425.71 77.17 424.07 72.25 429.31 M 53.31 461.64 C 56.79 464.79 61.61 465.56 65.90 467.07 C 73.69 469.19 81.54 471.70 89.67 471.97 C 85.89 469.32 81.25 468.56 76.93 467.21 C 69.10 465.20 61.35 462.69 53.31 461.64 M 85.84 482.90 C 83.72 485.49 83.56 489.02 83.02 492.19 C 85.42 489.56 87.41 486.55 90.03 484.12 C 92.34 481.98 96.32 480.89 95.91 477.05 C 92.17 478.19 88.56 480.04 85.84 482.90 Z" />
<path fill="#1b232a" opacity="1.00" d=" M 241.12 246.88 C 242.09 248.64 242.90 250.48 243.50 252.41 C 246.87 263.39 249.51 274.65 250.52 286.11 C 251.93 302.05 256.38 317.48 260.02 333.00 C 263.17 347.47 265.87 362.15 265.94 377.01 C 265.94 385.69 265.23 394.35 264.87 403.03 C 264.41 417.03 264.71 431.05 265.75 445.02 C 266.09 447.85 264.14 450.24 263.84 452.98 C 264.82 454.45 266.11 455.67 267.33 456.94 C 266.76 458.93 265.83 460.89 265.87 462.99 C 266.28 465.31 267.21 467.55 267.21 469.94 C 267.17 479.60 266.17 489.42 268.40 498.92 C 269.45 504.75 271.64 510.29 272.82 516.10 C 267.34 516.03 261.88 514.63 256.41 515.49 C 253.18 515.98 250.40 517.80 247.67 519.47 C 245.31 514.54 243.34 509.36 242.68 503.91 C 242.30 500.98 241.78 498.07 240.99 495.23 C 247.69 496.39 253.26 492.13 257.78 487.79 C 254.60 488.22 251.41 488.88 248.18 488.78 C 245.67 485.71 244.99 481.01 246.42 477.36 C 250.31 472.15 256.61 469.53 261.10 464.91 C 254.73 467.80 249.70 473.01 243.08 475.39 C 241.83 471.55 240.66 467.46 241.64 463.41 C 243.20 456.63 243.06 449.56 241.89 442.74 C 240.61 445.58 239.37 448.43 238.06 451.26 C 239.57 443.20 237.59 435.08 238.00 426.98 C 238.35 420.00 239.30 413.07 239.71 406.10 C 243.17 403.81 246.74 401.36 250.99 400.96 C 254.85 400.14 259.32 401.04 262.53 398.30 C 259.03 396.81 254.93 395.57 251.31 397.39 C 247.45 399.45 243.96 402.12 240.44 404.70 C 239.88 397.60 241.33 390.57 241.91 383.53 C 247.83 379.84 253.77 376.21 259.65 372.46 C 261.16 371.44 263.32 369.72 262.12 367.66 C 258.85 368.59 256.15 370.81 252.92 371.86 C 249.73 372.95 246.33 373.18 242.99 373.52 C 243.06 369.99 243.12 366.45 243.69 362.96 C 243.77 363.48 243.95 364.51 244.04 365.03 C 248.72 361.02 252.86 356.44 257.42 352.30 C 259.22 350.72 260.61 348.76 261.58 346.58 C 254.59 350.37 250.07 357.23 244.02 362.23 C 244.60 356.41 246.05 350.74 246.99 344.98 C 247.71 341.08 247.97 337.09 249.13 333.29 C 250.35 329.04 252.53 324.49 250.64 320.09 C 250.10 318.41 250.25 316.63 250.30 314.91 C 251.26 294.97 248.69 274.94 243.43 255.70 C 242.56 252.78 241.61 249.89 241.12 246.88 Z" />
<path fill="#1b232a" opacity="1.00" d=" M 104.61 338.86 C 115.49 339.53 126.35 340.51 137.25 341.04 C 139.94 347.07 143.47 353.08 143.30 359.91 C 143.54 364.72 142.74 370.73 146.90 374.17 C 148.29 375.83 150.18 373.72 149.85 372.11 C 150.04 361.16 143.71 351.62 141.04 341.28 C 155.69 342.31 170.37 342.55 185.02 343.18 C 185.56 343.24 186.62 343.38 187.16 343.45 C 190.05 363.32 190.18 383.60 194.60 403.25 C 197.87 414.22 200.00 425.67 199.48 437.15 C 190.88 432.88 182.24 428.70 173.68 424.36 C 167.40 421.27 162.94 415.70 158.31 410.65 C 150.54 401.54 142.82 392.16 137.68 381.27 C 129.10 365.30 113.28 354.77 104.61 338.86 Z" />
<path fill="#1b232a" opacity="1.00" d=" M 189.55 343.14 C 208.11 342.93 227.05 343.56 245.14 338.68 C 244.95 340.45 245.04 342.34 244.11 343.94 C 242.44 347.14 240.65 350.37 240.04 353.98 C 239.41 357.99 240.56 362.01 240.19 366.03 C 239.84 368.34 238.41 370.28 237.21 372.22 C 231.57 380.59 225.98 389.00 220.34 397.38 C 217.65 401.39 214.60 405.19 212.54 409.59 C 217.05 406.26 219.12 400.87 222.70 396.72 C 227.18 391.34 231.68 385.87 237.22 381.53 C 234.97 400.39 226.98 418.19 226.34 437.29 C 229.05 433.14 228.76 427.94 230.33 423.37 C 231.46 418.42 234.15 414.11 236.72 409.81 C 236.25 418.88 234.77 427.96 235.58 437.06 C 236.01 442.04 236.04 447.27 234.04 451.95 C 232.92 454.56 230.49 456.71 227.52 456.65 C 224.00 456.92 220.55 457.84 217.02 457.97 C 212.65 458.06 208.66 456.01 204.75 454.35 C 203.65 456.30 202.55 458.27 201.43 460.22 C 200.57 457.90 200.21 455.44 200.59 452.99 C 200.73 453.89 201.01 455.68 201.14 456.58 C 203.50 453.68 206.06 450.59 206.56 446.75 C 206.74 443.25 204.12 440.50 201.59 438.45 C 201.75 441.11 202.92 443.52 203.67 446.04 C 203.90 448.41 202.22 450.37 201.07 452.28 C 199.97 444.82 202.30 437.43 201.80 429.97 C 201.43 420.80 199.39 411.80 196.92 403.00 C 196.47 401.50 196.34 399.94 196.46 398.39 C 197.09 393.36 195.67 388.41 193.93 383.74 C 192.61 380.28 192.82 376.53 192.48 372.91 C 191.64 362.97 190.31 353.08 189.55 343.14 M 201.76 419.73 C 205.64 425.32 211.01 429.86 214.01 436.06 C 214.86 438.19 214.68 440.55 215.33 442.74 C 217.23 445.76 221.03 447.56 224.48 446.08 C 222.07 443.61 218.60 442.16 216.97 438.99 C 214.84 434.93 212.50 430.97 209.66 427.35 C 207.36 424.51 205.25 421.22 201.76 419.73 Z" />
<path fill="#1b232a" opacity="1.00" d=" M 102.17 360.74 C 97.67 358.13 99.32 349.06 104.89 349.34 C 108.73 350.10 111.26 353.49 113.85 356.16 C 126.06 370.24 136.92 385.46 146.77 401.27 C 149.98 406.14 151.11 412.37 155.70 416.28 C 162.99 422.74 171.60 427.52 180.34 431.71 C 186.68 434.33 193.38 436.18 199.21 439.92 C 198.65 444.26 198.07 448.64 198.39 453.03 C 198.49 455.30 198.97 457.69 198.01 459.85 C 198.60 458.67 198.42 457.86 197.45 457.42 C 196.53 457.99 196.21 458.84 196.50 459.95 C 180.34 460.60 164.16 460.42 147.99 460.24 C 138.96 460.12 129.91 460.61 120.91 459.71 C 112.06 458.86 103.15 459.29 94.29 459.83 C 95.92 448.98 97.49 437.96 96.34 426.98 C 95.58 419.40 92.35 411.88 86.56 406.79 L 86.77 406.39 C 86.89 406.15 87.14 405.66 87.26 405.42 C 87.38 402.70 86.72 399.90 87.42 397.25 C 89.14 394.13 92.16 391.41 91.42 387.50 C 91.75 384.29 93.32 381.29 93.13 378.01 C 93.15 371.83 88.37 366.99 87.78 360.94 C 87.71 358.54 90.30 357.40 91.83 355.98 C 96.92 361.95 103.11 366.83 109.11 371.83 C 114.32 375.91 119.42 380.30 125.48 383.08 C 124.84 381.08 123.98 379.10 122.43 377.63 C 116.32 371.28 109.32 365.86 102.17 360.74 M 98.73 382.63 C 102.69 387.38 107.96 390.84 113.11 394.17 C 108.75 389.85 103.91 385.93 98.73 382.63 M 96.03 404.95 C 97.62 410.45 101.06 415.11 104.21 419.79 C 108.02 424.79 111.26 430.47 116.34 434.33 C 114.98 430.47 112.44 427.24 110.19 423.89 C 105.59 417.49 101.20 410.90 96.03 404.95 M 127.90 404.90 C 132.34 409.24 137.62 412.59 142.50 416.40 C 148.65 420.63 154.43 425.78 161.59 428.24 C 158.53 424.58 154.16 422.45 150.37 419.66 C 142.87 414.75 135.59 409.49 127.90 404.90 M 130.01 441.51 C 130.18 439.51 130.13 437.49 129.87 435.51 C 128.19 436.95 128.10 440.21 130.01 441.51 M 151.36 437.35 C 150.40 438.48 151.84 439.86 151.98 441.08 C 153.34 441.11 154.71 441.15 156.08 441.20 C 157.11 439.44 156.77 437.60 155.96 435.85 C 154.39 436.19 152.09 435.44 151.36 437.35 M 158.50 437.84 C 159.30 437.62 160.88 437.18 161.67 436.96 C 160.75 438.34 159.77 439.71 158.80 441.07 C 159.52 441.10 160.97 441.16 161.69 441.18 C 161.53 439.50 162.12 437.80 161.70 436.16 C 160.28 435.84 159.31 436.79 158.50 437.84 M 163.09 440.70 C 163.85 440.75 165.38 440.84 166.14 440.89 C 166.17 440.00 166.24 438.23 166.27 437.34 C 166.88 437.57 168.08 438.05 168.69 438.28 C 168.57 438.92 168.34 440.19 168.23 440.83 C 168.56 440.83 169.22 440.84 169.55 440.85 C 169.53 439.21 169.51 437.57 169.51 435.94 C 168.06 436.38 165.54 438.30 164.92 435.74 C 162.46 436.41 162.72 438.64 163.09 440.70 M 174.71 441.16 C 173.91 440.52 173.06 439.96 172.20 439.41 C 173.08 438.95 173.93 438.46 174.77 437.94 C 173.99 437.84 172.42 437.64 171.64 437.55 C 172.32 437.13 173.68 436.31 174.36 435.89 C 169.63 434.68 170.07 443.28 174.71 441.16 M 131.03 437.44 C 131.04 438.82 131.05 440.22 131.20 441.61 C 131.57 440.63 132.30 438.68 132.67 437.71 C 132.82 438.70 133.12 440.69 133.27 441.68 C 133.58 440.73 134.19 438.84 134.50 437.89 C 134.77 438.67 135.31 440.24 135.58 441.02 L 136.32 441.15 C 136.23 439.89 136.15 438.63 136.10 437.37 C 134.41 437.40 132.72 437.42 131.03 437.44 M 138.09 436.81 C 138.30 437.39 138.72 438.55 138.93 439.13 C 138.38 439.35 137.30 439.80 136.76 440.02 C 137.32 441.64 139.22 441.01 140.43 440.98 C 140.41 440.20 140.36 438.65 140.33 437.87 C 139.77 437.60 138.65 437.08 138.09 436.81 M 140.68 440.17 C 142.08 440.80 143.48 441.42 144.89 442.04 C 144.83 441.29 144.70 439.80 144.64 439.05 C 145.80 440.07 146.88 441.53 148.62 441.29 C 148.69 440.46 148.81 438.79 148.87 437.96 C 148.41 437.75 147.49 437.33 147.03 437.13 C 146.49 437.63 145.39 438.63 144.85 439.13 L 144.68 437.23 C 142.60 437.16 141.03 437.95 140.68 440.17 M 104.65 438.50 C 104.84 439.42 105.24 441.25 105.43 442.16 C 105.27 442.82 104.93 444.14 104.76 444.80 L 103.99 444.78 C 104.01 448.63 103.51 452.65 105.06 456.30 L 105.38 455.81 C 108.91 457.47 112.81 457.17 116.06 455.01 C 115.99 451.72 116.05 448.44 115.93 445.15 C 114.25 443.11 115.16 440.67 115.93 438.48 C 114.78 439.45 113.67 440.46 112.58 441.51 C 112.49 440.57 112.32 438.69 112.24 437.75 C 112.02 438.64 111.57 440.42 111.35 441.30 C 110.68 441.32 109.35 441.36 108.68 441.38 L 109.67 439.31 C 109.16 439.07 108.13 438.59 107.62 438.35 C 107.59 439.08 107.54 440.53 107.51 441.26 C 106.57 440.32 105.62 439.39 104.65 438.50 M 142.48 442.22 C 143.00 442.77 143.00 442.77 142.48 442.22 M 128.57 443.46 C 128.54 446.49 128.34 449.53 128.60 452.55 C 128.61 453.92 130.25 454.23 131.14 454.93 C 129.91 451.33 130.25 447.49 130.26 443.76 C 129.84 443.68 128.99 443.54 128.57 443.46 M 132.39 443.36 C 132.27 446.75 132.01 450.18 132.45 453.57 C 133.11 453.87 134.43 454.47 135.09 454.77 C 133.45 451.32 134.08 447.45 134.01 443.77 C 133.60 443.67 132.79 443.46 132.39 443.36 M 118.59 454.28 C 120.13 454.18 121.09 453.31 121.46 451.66 C 122.55 451.65 123.65 451.65 124.74 451.66 C 125.13 453.20 126.07 454.11 127.55 454.39 C 126.33 450.43 125.36 446.28 122.99 442.83 C 120.90 446.37 119.83 450.38 118.59 454.28 M 143.93 446.70 C 143.65 447.24 143.09 448.31 142.80 448.85 C 141.33 448.56 140.72 446.31 138.96 446.75 C 135.31 446.62 134.30 452.16 137.22 453.87 C 138.82 454.71 141.84 454.99 142.45 452.75 C 140.34 453.07 138.16 453.15 136.95 451.06 C 138.92 450.85 140.92 450.64 142.90 450.95 C 143.60 452.16 143.96 453.56 143.97 455.16 C 146.21 453.06 144.39 449.59 146.67 447.45 C 147.34 447.98 148.00 448.54 148.65 449.10 C 148.67 450.77 148.74 452.46 148.84 454.14 C 150.07 454.25 151.64 455.04 152.35 453.54 C 149.43 453.57 149.07 447.32 152.33 447.67 C 151.91 447.36 151.06 446.72 150.64 446.41 C 149.21 442.40 146.38 448.98 143.93 446.70 M 155.60 446.81 C 152.36 447.23 151.64 452.06 154.18 453.79 C 156.38 455.50 160.12 453.91 160.14 451.04 C 160.60 448.45 158.10 446.19 155.60 446.81 M 161.34 446.53 C 161.24 449.24 161.09 451.98 161.47 454.69 C 165.00 454.16 160.90 448.23 164.97 448.07 C 167.12 449.31 165.81 452.45 166.49 454.53 C 168.92 454.90 167.81 451.26 167.95 449.84 C 168.09 447.12 165.28 446.42 163.16 446.97 C 162.70 446.86 161.80 446.64 161.34 446.53 M 168.88 448.98 C 169.53 450.88 171.87 451.61 173.25 452.99 C 171.72 452.82 170.19 452.64 168.66 452.47 C 168.97 453.98 170.41 455.17 171.99 454.65 C 175.00 454.08 178.06 454.37 181.10 454.30 C 183.77 454.38 186.45 454.35 189.12 454.32 C 189.18 453.71 189.31 452.49 189.37 451.88 C 189.74 452.67 190.47 454.25 190.84 455.04 C 190.90 453.98 191.02 451.85 191.09 450.79 C 186.80 450.60 182.51 450.87 178.22 450.91 C 177.23 451.98 176.24 453.05 175.26 454.13 C 175.81 450.93 172.71 449.80 170.76 448.10 C 172.20 448.23 173.65 448.38 175.10 448.50 C 174.09 445.65 169.38 445.93 168.88 448.98 Z" />
<path fill="#1b232a" opacity="1.00" d=" M 164.35 437.39 C 165.63 437.65 165.86 438.42 165.03 439.70 C 163.73 439.44 163.51 438.68 164.35 437.39 Z" />
<path fill="#1b232a" opacity="1.00" d=" M 142.22 438.85 C 145.14 437.16 142.51 442.22 142.22 438.85 Z" />
<path fill="#1b232a" opacity="1.00" d=" M 110.08 445.36 L 110.34 445.02 C 111.41 447.56 112.53 450.08 113.54 452.66 C 113.59 453.18 113.70 454.23 113.76 454.76 C 111.96 453.48 111.04 451.47 110.12 449.55 C 109.31 451.27 108.47 452.99 107.61 454.69 L 106.48 454.08 L 106.45 453.25 C 107.54 450.56 108.67 447.89 110.08 445.36 Z" />
<path fill="#1b232a" opacity="1.00" d=" M 123.04 450.28 C 121.26 450.24 121.39 447.29 123.05 447.17 C 124.73 447.24 124.78 450.23 123.04 450.28 Z" />
<path fill="#1b232a" opacity="1.00" d=" M 156.17 448.28 C 159.20 447.65 158.86 453.81 156.08 452.85 C 153.85 452.52 153.95 448.58 156.17 448.28 Z" />
<path fill="#1b232a" opacity="1.00" d=" M 179.27 452.09 C 182.36 450.67 179.28 455.37 179.27 452.09 Z" />
</g>
<g id="#585e63ff">
<path fill="#585e63" opacity="1.00" d=" M 119.68 168.95 C 126.45 171.20 132.57 174.98 138.96 178.07 C 143.70 180.78 148.94 182.67 153.28 186.02 C 145.28 182.88 137.77 178.61 130.03 174.89 C 126.53 173.00 122.70 171.62 119.68 168.95 Z" />
<path fill="#585e63" opacity="1.00" d=" M 153.91 179.97 C 157.35 181.27 160.35 183.47 162.97 186.01 C 159.77 184.28 156.70 182.30 153.91 179.97 Z" />
<path fill="#585e63" opacity="1.00" d=" M 186.12 201.09 C 187.15 201.66 188.18 202.24 189.21 202.82 C 189.10 208.18 189.23 213.56 189.88 218.89 C 186.69 215.13 182.54 212.20 179.85 208.03 C 181.22 205.15 183.90 203.26 186.12 201.09 Z" />
<path fill="#585e63" opacity="1.00" d=" M 53.07 213.07 C 54.41 209.66 56.41 206.55 59.60 204.62 C 58.61 206.91 56.82 209.18 57.41 211.83 C 57.74 214.33 58.21 216.82 58.72 219.29 C 55.71 218.41 52.47 217.06 49.37 218.38 C 40.29 221.94 32.79 228.35 25.02 234.06 C 23.87 235.00 22.84 236.08 21.78 237.13 C 24.06 233.35 26.66 229.78 29.06 226.07 C 29.49 226.45 30.36 227.19 30.79 227.57 C 34.62 224.67 38.64 221.97 43.12 220.21 C 46.81 218.52 51.42 217.20 53.07 213.07 Z" />
<path fill="#585e63" opacity="1.00" d=" M 180.41 221.61 C 182.52 226.82 182.51 232.52 183.04 238.04 C 183.60 244.16 183.86 250.32 183.48 256.46 C 182.38 246.73 180.78 237.05 179.85 227.30 C 179.96 225.39 180.17 223.50 180.41 221.61 Z" />
<path fill="#585e63" opacity="1.00" d=" M 233.37 248.02 C 233.39 241.61 230.30 235.83 229.33 229.60 C 232.81 234.50 235.52 239.99 237.14 245.78 C 237.40 258.56 237.32 271.39 236.09 284.12 C 235.00 282.25 234.61 280.11 234.57 277.98 C 234.24 267.99 233.41 258.02 233.37 248.02 Z" />
<path fill="#585e63" opacity="1.00" d=" M 109.24 241.20 C 113.20 243.13 114.84 247.68 116.62 251.42 C 117.29 253.63 118.93 256.33 117.37 258.49 C 115.00 261.72 111.84 264.27 109.50 267.52 C 106.28 271.60 106.17 277.03 104.60 281.80 L 104.42 282.51 C 104.34 276.76 105.03 271.00 106.58 265.45 C 107.81 259.95 102.86 255.91 99.83 252.03 C 102.51 248.10 104.75 243.36 109.24 241.20 Z" />
<path fill="#585e63" opacity="1.00" d=" M 250.64 320.09 C 252.53 324.49 250.35 329.04 249.13 333.29 C 249.31 328.86 249.65 324.42 250.64 320.09 Z" />
<path fill="#585e63" opacity="1.00" d=" M 13.64 321.61 C 20.01 322.93 26.09 325.31 32.03 327.92 C 36.28 330.03 40.86 332.21 43.71 336.17 C 46.60 340.75 48.61 345.84 50.04 351.05 C 42.30 344.47 35.24 336.95 26.47 331.69 C 22.77 329.43 18.17 329.02 14.71 326.34 C 13.20 325.23 13.85 323.17 13.64 321.61 Z" />
<path fill="#585e63" opacity="1.00" d=" M 48.89 330.74 C 54.84 335.91 59.84 342.19 66.56 346.46 C 69.65 348.42 73.46 350.73 77.21 349.20 C 83.37 346.74 89.03 343.18 95.19 340.69 C 92.78 345.48 90.08 350.12 87.47 354.80 C 86.27 356.73 85.02 358.63 83.88 360.60 C 81.20 365.17 77.96 369.49 73.84 372.86 C 72.74 373.60 71.47 374.75 70.03 374.25 C 67.57 373.06 65.67 370.81 62.99 370.08 C 60.02 369.91 57.52 371.95 54.95 373.16 C 55.02 371.55 55.10 369.94 55.17 368.33 C 58.06 367.28 61.52 366.94 63.66 364.51 C 63.49 362.64 62.67 360.92 61.88 359.25 C 58.34 352.17 54.44 345.28 50.73 338.30 C 49.39 336.00 49.10 333.33 48.89 330.74 Z" />
<path fill="#585e63" opacity="1.00" d=" M 102.20 338.67 C 102.80 338.72 104.01 338.81 104.61 338.86 C 113.28 354.77 129.10 365.30 137.68 381.27 C 142.82 392.16 150.54 401.54 158.31 410.65 C 162.94 415.70 167.40 421.27 173.68 424.36 C 182.24 428.70 190.88 432.88 199.48 437.15 C 199.42 437.84 199.28 439.23 199.21 439.92 C 193.38 436.18 186.68 434.33 180.34 431.71 C 171.60 427.52 162.99 422.74 155.70 416.28 C 151.11 412.37 149.98 406.14 146.77 401.27 C 136.92 385.46 126.06 370.24 113.85 356.16 C 111.26 353.49 108.73 350.10 104.89 349.34 C 99.32 349.06 97.67 358.13 102.17 360.74 C 109.32 365.86 116.32 371.28 122.43 377.63 C 123.98 379.10 124.84 381.08 125.48 383.08 C 119.42 380.30 114.32 375.91 109.11 371.83 C 103.11 366.83 96.92 361.95 91.83 355.98 C 97.44 351.96 102.80 346.11 102.20 338.67 Z" />
<path fill="#585e63" opacity="1.00" d=" M 137.25 341.04 C 138.39 341.11 139.54 341.18 140.70 341.25 L 141.04 341.28 C 143.71 351.62 150.04 361.16 149.85 372.11 C 150.18 373.72 148.29 375.83 146.90 374.17 C 142.74 370.73 143.54 364.72 143.30 359.91 C 143.47 353.08 139.94 347.07 137.25 341.04 Z" />
<path fill="#585e63" opacity="1.00" d=" M 240.04 353.98 C 240.65 350.37 242.44 347.14 244.11 343.94 C 243.13 350.63 241.46 357.23 241.04 364.01 C 239.77 379.29 237.97 394.54 236.72 409.81 C 234.15 414.11 231.46 418.42 230.33 423.37 C 228.76 427.94 229.05 433.14 226.34 437.29 C 226.98 418.19 234.97 400.39 237.22 381.53 C 231.68 385.87 227.18 391.34 222.70 396.72 C 219.12 400.87 217.05 406.26 212.54 409.59 C 214.60 405.19 217.65 401.39 220.34 397.38 C 225.98 389.00 231.57 380.59 237.21 372.22 C 238.41 370.28 239.84 368.34 240.19 366.03 C 240.56 362.01 239.41 357.99 240.04 353.98 Z" />
<path fill="#585e63" opacity="1.00" d=" M 252.92 371.86 C 256.15 370.81 258.85 368.59 262.12 367.66 C 263.32 369.72 261.16 371.44 259.65 372.46 C 253.77 376.21 247.83 379.84 241.91 383.53 C 242.02 380.16 242.38 376.82 242.99 373.52 C 246.33 373.18 249.73 372.95 252.92 371.86 Z" />
<path fill="#585e63" opacity="1.00" d=" M 11.53 377.72 C 16.10 380.64 20.31 384.10 24.94 386.93 C 29.05 389.47 33.65 391.01 37.91 393.23 C 31.14 397.02 23.08 397.33 15.94 400.28 C 14.45 397.19 13.11 394.03 12.23 390.71 C 11.18 386.47 11.14 382.05 11.53 377.72 Z" />
<path fill="#585e63" opacity="1.00" d=" M 98.73 382.63 C 103.91 385.93 108.75 389.85 113.11 394.17 C 107.96 390.84 102.69 387.38 98.73 382.63 Z" />
<path fill="#585e63" opacity="1.00" d=" M 83.63 397.54 C 86.24 394.20 88.85 390.86 91.42 387.50 C 92.16 391.41 89.14 394.13 87.42 397.25 C 86.72 399.90 87.38 402.70 87.26 405.42 C 87.14 405.66 86.89 406.15 86.77 406.39 C 85.00 403.92 81.12 400.77 83.63 397.54 Z" />
<path fill="#585e63" opacity="1.00" d=" M 74.26 399.36 C 77.71 395.43 81.69 391.85 86.43 389.56 C 84.09 393.80 78.11 397.26 80.26 402.82 C 82.69 407.64 87.08 411.13 89.53 415.97 C 88.67 416.89 87.94 417.97 86.90 418.71 C 84.06 419.15 81.52 417.24 79.45 415.53 C 76.50 412.79 73.68 409.67 72.16 405.89 C 71.04 403.49 72.84 401.15 74.26 399.36 Z" />
<path fill="#585e63" opacity="1.00" d=" M 251.31 397.39 C 254.93 395.57 259.03 396.81 262.53 398.30 C 259.32 401.04 254.85 400.14 250.99 400.96 C 246.74 401.36 243.17 403.81 239.71 406.10 C 239.90 405.75 240.26 405.05 240.44 404.70 C 243.96 402.12 247.45 399.45 251.31 397.39 Z" />
<path fill="#585e63" opacity="1.00" d=" M 96.03 404.95 C 101.20 410.90 105.59 417.49 110.19 423.89 C 112.44 427.24 114.98 430.47 116.34 434.33 C 111.26 430.47 108.02 424.79 104.21 419.79 C 101.06 415.11 97.62 410.45 96.03 404.95 Z" />
<path fill="#585e63" opacity="1.00" d=" M 127.90 404.90 C 135.59 409.49 142.87 414.75 150.37 419.66 C 154.16 422.45 158.53 424.58 161.59 428.24 C 154.43 425.78 148.65 420.63 142.50 416.40 C 137.62 412.59 132.34 409.24 127.90 404.90 Z" />
<path fill="#585e63" opacity="1.00" d=" M 201.76 419.73 C 205.25 421.22 207.36 424.51 209.66 427.35 C 212.50 430.97 214.84 434.93 216.97 438.99 C 218.60 442.16 222.07 443.61 224.48 446.08 C 221.03 447.56 217.23 445.76 215.33 442.74 C 214.68 440.55 214.86 438.19 214.01 436.06 C 211.01 429.86 205.64 425.32 201.76 419.73 Z" />
<path fill="#585e63" opacity="1.00" d=" M 72.25 429.31 C 77.17 424.07 85.07 425.71 91.22 427.37 C 89.93 430.76 86.88 435.15 82.77 432.72 C 77.62 434.89 73.81 439.10 69.44 442.43 C 65.27 445.70 60.60 448.24 56.22 451.20 C 52.18 453.79 48.34 456.88 43.68 458.27 C 45.64 455.40 48.47 453.33 50.91 450.90 C 58.08 443.76 65.23 436.60 72.25 429.31 Z" />
<path fill="#585e63" opacity="1.00" d=" M 241.89 442.74 C 243.06 449.56 243.20 456.63 241.64 463.41 C 240.66 467.46 241.83 471.55 243.08 475.39 C 249.70 473.01 254.73 467.80 261.10 464.91 C 256.61 469.53 250.31 472.15 246.42 477.36 C 244.99 481.01 245.67 485.71 248.18 488.78 C 251.41 488.88 254.60 488.22 257.78 487.79 C 253.26 492.13 247.69 496.39 240.99 495.23 C 238.97 489.72 239.18 483.83 239.58 478.08 C 239.15 470.61 237.64 463.24 236.55 455.86 C 236.45 454.20 237.49 452.75 238.06 451.26 C 239.37 448.43 240.61 445.58 241.89 442.74 Z" />
<path fill="#585e63" opacity="1.00" d=" M 201.43 460.22 C 202.55 458.27 203.65 456.30 204.75 454.35 C 208.66 456.01 212.65 458.06 217.02 457.97 C 220.55 457.84 224.00 456.92 227.52 456.65 C 219.35 460.17 210.17 460.06 201.43 460.22 Z" />
<path fill="#585e63" opacity="1.00" d=" M 53.31 461.64 C 61.35 462.69 69.10 465.20 76.93 467.21 C 81.25 468.56 85.89 469.32 89.67 471.97 C 81.54 471.70 73.69 469.19 65.90 467.07 C 61.61 465.56 56.79 464.79 53.31 461.64 Z" />
<path fill="#585e63" opacity="1.00" d=" M 85.84 482.90 C 88.56 480.04 92.17 478.19 95.91 477.05 C 96.32 480.89 92.34 481.98 90.03 484.12 C 87.41 486.55 85.42 489.56 83.02 492.19 C 83.56 489.02 83.72 485.49 85.84 482.90 Z" />
<path fill="#585e63" opacity="1.00" d=" M 40.29 480.42 C 41.77 480.39 43.46 480.14 44.62 481.32 C 51.02 486.61 56.79 492.87 64.19 496.81 C 67.65 498.68 72.46 499.71 73.34 504.21 C 70.78 503.43 68.26 502.48 65.97 501.10 C 58.07 496.35 50.49 491.09 43.15 485.52 C 41.76 484.11 41.15 482.15 40.29 480.42 Z" />
</g>
<g id="#84888bff">
<path fill="#84888b" opacity="1.00" d=" M 144.08 173.02 C 147.25 174.67 150.17 176.76 152.94 179.01 C 149.80 177.30 146.89 175.22 144.08 173.02 Z" />
<path fill="#84888b" opacity="1.00" d=" M 168.88 448.98 C 169.38 445.93 174.09 445.65 175.10 448.50 C 173.65 448.38 172.20 448.23 170.76 448.10 C 172.71 449.80 175.81 450.93 175.26 454.13 C 176.24 453.05 177.23 451.98 178.22 450.91 C 182.51 450.87 186.80 450.60 191.09 450.79 C 191.02 451.85 190.90 453.98 190.84 455.04 C 190.47 454.25 189.74 452.67 189.37 451.88 C 189.31 452.49 189.18 453.71 189.12 454.32 C 186.45 454.35 183.77 454.38 181.10 454.30 C 178.06 454.37 175.00 454.08 171.99 454.65 C 170.41 455.17 168.97 453.98 168.66 452.47 C 170.19 452.64 171.72 452.82 173.25 452.99 C 171.87 451.61 169.53 450.88 168.88 448.98 M 179.27 452.09 C 179.28 455.37 182.36 450.67 179.27 452.09 M 182.41 452.12 C 182.52 455.43 185.43 450.64 182.41 452.12 Z" />
</g>
<g id="#4d5359ff">
<path fill="#4d5359" opacity="1.00" d=" M 244.02 362.23 C 250.07 357.23 254.59 350.37 261.58 346.58 C 260.61 348.76 259.22 350.72 257.42 352.30 C 252.86 356.44 248.72 361.02 244.04 365.03 C 243.95 364.51 243.77 363.48 243.69 362.96 L 244.02 362.23 Z" />
</g>
<g id="#33393eff">
<path fill="#33393e" opacity="1.00" d=" M 193.93 383.74 C 195.67 388.41 197.09 393.36 196.46 398.39 C 194.82 393.68 193.98 388.72 193.93 383.74 Z" />
</g>
<g id="#e6e7e7ff">
<path fill="#e6e7e7" opacity="1.00" d=" M 130.01 441.51 C 128.10 440.21 128.19 436.95 129.87 435.51 C 130.13 437.49 130.18 439.51 130.01 441.51 Z" />
<path fill="#e6e7e7" opacity="1.00" d=" M 158.50 437.84 C 159.31 436.79 160.28 435.84 161.70 436.16 C 162.12 437.80 161.53 439.50 161.69 441.18 C 160.97 441.16 159.52 441.10 158.80 441.07 C 159.77 439.71 160.75 438.34 161.67 436.96 C 160.88 437.18 159.30 437.62 158.50 437.84 Z" />
<path fill="#e6e7e7" opacity="1.00" d=" M 163.09 440.70 C 162.72 438.64 162.46 436.41 164.92 435.74 C 165.54 438.30 168.06 436.38 169.51 435.94 C 169.51 437.57 169.53 439.21 169.55 440.85 C 169.22 440.84 168.56 440.83 168.23 440.83 C 168.34 440.19 168.57 438.92 168.69 438.28 C 168.08 438.05 166.88 437.57 166.27 437.34 C 166.24 438.23 166.17 440.00 166.14 440.89 C 165.38 440.84 163.85 440.75 163.09 440.70 M 164.35 437.39 C 163.51 438.68 163.73 439.44 165.03 439.70 C 165.86 438.42 165.63 437.65 164.35 437.39 Z" />
<path fill="#e6e7e7" opacity="1.00" d=" M 174.71 441.16 C 170.07 443.28 169.63 434.68 174.36 435.89 C 173.68 436.31 172.32 437.13 171.64 437.55 C 172.42 437.64 173.99 437.84 174.77 437.94 C 173.93 438.46 173.08 438.95 172.20 439.41 C 173.06 439.96 173.91 440.52 174.71 441.16 Z" />
<path fill="#e6e7e7" opacity="1.00" d=" M 131.03 437.44 C 132.72 437.42 134.41 437.40 136.10 437.37 C 136.15 438.63 136.23 439.89 136.32 441.15 L 135.58 441.02 C 135.31 440.24 134.77 438.67 134.50 437.89 C 134.19 438.84 133.58 440.73 133.27 441.68 C 133.12 440.69 132.82 438.70 132.67 437.71 C 132.30 438.68 131.57 440.63 131.20 441.61 C 131.05 440.22 131.04 438.82 131.03 437.44 Z" />
<path fill="#e6e7e7" opacity="1.00" d=" M 138.09 436.81 C 138.65 437.08 139.77 437.60 140.33 437.87 C 140.36 438.65 140.41 440.20 140.43 440.98 C 139.22 441.01 137.32 441.64 136.76 440.02 C 137.30 439.80 138.38 439.35 138.93 439.13 C 138.72 438.55 138.30 437.39 138.09 436.81 Z" />
<path fill="#e6e7e7" opacity="1.00" d=" M 140.68 440.17 C 141.03 437.95 142.60 437.16 144.68 437.23 L 144.85 439.13 C 145.39 438.63 146.49 437.63 147.03 437.13 C 147.49 437.33 148.41 437.75 148.87 437.96 C 148.81 438.79 148.69 440.46 148.62 441.29 C 146.88 441.53 145.80 440.07 144.64 439.05 C 144.70 439.80 144.83 441.29 144.89 442.04 C 143.48 441.42 142.08 440.80 140.68 440.17 M 142.22 438.85 C 142.51 442.22 145.14 437.16 142.22 438.85 Z" />
<path fill="#e6e7e7" opacity="1.00" d=" M 107.62 438.35 C 108.13 438.59 109.16 439.07 109.67 439.31 L 108.68 441.38 C 109.35 441.36 110.68 441.32 111.35 441.30 C 111.57 440.42 112.02 438.64 112.24 437.75 C 112.32 438.69 112.49 440.57 112.58 441.51 C 113.06 441.91 114.03 442.73 114.51 443.13 C 111.69 442.99 108.50 443.92 105.92 442.44 C 106.31 442.15 107.11 441.55 107.51 441.26 C 107.54 440.53 107.59 439.08 107.62 438.35 Z" />
<path fill="#e6e7e7" opacity="1.00" d=" M 128.57 443.46 C 128.99 443.54 129.84 443.68 130.26 443.76 C 130.25 447.49 129.91 451.33 131.14 454.93 C 130.25 454.23 128.61 453.92 128.60 452.55 C 128.34 449.53 128.54 446.49 128.57 443.46 Z" />
<path fill="#e6e7e7" opacity="1.00" d=" M 132.39 443.36 C 132.79 443.46 133.60 443.67 134.01 443.77 C 134.08 447.45 133.45 451.32 135.09 454.77 C 134.43 454.47 133.11 453.87 132.45 453.57 C 132.01 450.18 132.27 446.75 132.39 443.36 Z" />
<path fill="#e6e7e7" opacity="1.00" d=" M 118.59 454.28 C 119.83 450.38 120.90 446.37 122.99 442.83 C 125.36 446.28 126.33 450.43 127.55 454.39 C 126.07 454.11 125.13 453.20 124.74 451.66 C 123.65 451.65 122.55 451.65 121.46 451.66 C 121.09 453.31 120.13 454.18 118.59 454.28 M 123.04 450.28 C 124.78 450.23 124.73 447.24 123.05 447.17 C 121.39 447.29 121.26 450.24 123.04 450.28 Z" />
<path fill="#e6e7e7" opacity="1.00" d=" M 105.86 444.84 C 106.44 444.86 107.60 444.90 108.18 444.92 C 108.66 445.03 109.61 445.25 110.08 445.36 C 108.67 447.89 107.54 450.56 106.45 453.25 C 106.15 450.45 106.02 447.64 105.86 444.84 Z" />
<path fill="#e6e7e7" opacity="1.00" d=" M 143.93 446.70 C 146.38 448.98 149.21 442.40 150.64 446.41 C 151.06 446.72 151.91 447.36 152.33 447.67 C 149.07 447.32 149.43 453.57 152.35 453.54 C 151.64 455.04 150.07 454.25 148.84 454.14 C 148.74 452.46 148.67 450.77 148.65 449.10 C 148.00 448.54 147.34 447.98 146.67 447.45 C 144.39 449.59 146.21 453.06 143.97 455.16 C 143.96 453.56 143.60 452.16 142.90 450.95 C 140.92 450.64 138.92 450.85 136.95 451.06 C 138.16 453.15 140.34 453.07 142.45 452.75 C 141.84 454.99 138.82 454.71 137.22 453.87 C 134.30 452.16 135.31 446.62 138.96 446.75 C 140.72 446.31 141.33 448.56 142.80 448.85 C 143.09 448.31 143.65 447.24 143.93 446.70 M 138.15 448.28 C 137.65 449.83 138.26 450.33 139.97 449.79 C 140.46 448.22 139.86 447.72 138.15 448.28 Z" />
<path fill="#e6e7e7" opacity="1.00" d=" M 155.60 446.81 C 158.10 446.19 160.60 448.45 160.14 451.04 C 160.12 453.91 156.38 455.50 154.18 453.79 C 151.64 452.06 152.36 447.23 155.60 446.81 M 156.17 448.28 C 153.95 448.58 153.85 452.52 156.08 452.85 C 158.86 453.81 159.20 447.65 156.17 448.28 Z" />
<path fill="#e6e7e7" opacity="1.00" d=" M 161.34 446.53 C 161.80 446.64 162.70 446.86 163.16 446.97 C 165.28 446.42 168.09 447.12 167.95 449.84 C 167.81 451.26 168.92 454.90 166.49 454.53 C 165.81 452.45 167.12 449.31 164.97 448.07 C 160.90 448.23 165.00 454.16 161.47 454.69 C 161.09 451.98 161.24 449.24 161.34 446.53 Z" />
<path fill="#e6e7e7" opacity="1.00" d=" M 107.61 454.69 C 108.47 452.99 109.31 451.27 110.12 449.55 C 111.04 451.47 111.96 453.48 113.76 454.76 L 113.77 454.90 C 111.71 454.97 109.65 454.97 107.61 454.69 Z" />
</g>
<g id="#666c70ff">
<path fill="#666c70" opacity="1.00" d=" M 151.36 437.35 C 152.09 435.44 154.39 436.19 155.96 435.85 C 156.77 437.60 157.11 439.44 156.08 441.20 C 154.71 441.15 153.34 441.11 151.98 441.08 C 151.84 439.86 150.40 438.48 151.36 437.35 M 154.94 439.51 L 155.70 439.03 L 155.68 438.00 L 154.90 437.54 L 154.69 437.01 C 151.65 435.87 153.20 442.24 154.94 439.51 Z" />
</g>
<g id="#9ea1a4ff">
<path fill="#9ea1a4" opacity="1.00" d=" M 154.94 439.51 C 153.20 442.24 151.65 435.87 154.69 437.01 L 154.90 437.54 C 154.91 438.03 154.93 439.02 154.94 439.51 Z" />
</g>
<g id="#232b32ff">
<path fill="#232b32" opacity="1.00" d=" M 154.94 439.51 C 154.93 439.02 154.91 438.03 154.90 437.54 L 155.68 438.00 L 155.70 439.03 L 154.94 439.51 Z" />
</g>
<g id="#898d90ff">
<path fill="#898d90" opacity="1.00" d=" M 104.65 438.50 C 105.62 439.39 106.57 440.32 107.51 441.26 C 107.11 441.55 106.31 442.15 105.92 442.44 C 108.50 443.92 111.69 442.99 114.51 443.13 C 114.03 442.73 113.06 441.91 112.58 441.51 C 113.67 440.46 114.78 439.45 115.93 438.48 C 115.16 440.67 114.25 443.11 115.93 445.15 C 116.05 448.44 115.99 451.72 116.06 455.01 C 112.81 457.17 108.91 457.47 105.38 455.81 C 105.66 455.38 106.21 454.51 106.48 454.08 L 107.61 454.69 C 109.65 454.97 111.71 454.97 113.77 454.90 L 113.76 454.76 C 113.70 454.23 113.59 453.18 113.54 452.66 C 113.91 449.91 114.04 447.13 114.10 444.37 C 112.84 444.56 111.59 444.77 110.34 445.02 L 110.08 445.36 C 109.61 445.25 108.66 445.03 108.18 444.92 C 107.60 444.90 106.44 444.86 105.86 444.84 L 104.76 444.80 C 104.93 444.14 105.27 442.82 105.43 442.16 C 105.24 441.25 104.84 439.42 104.65 438.50 Z" />
</g>
<g id="#51575cff">
<path fill="#51575c" opacity="1.00" d=" M 201.59 438.45 C 204.12 440.50 206.74 443.25 206.56 446.75 C 206.06 450.59 203.50 453.68 201.14 456.58 C 201.01 455.68 200.73 453.89 200.59 452.99 L 201.07 452.28 C 202.22 450.37 203.90 448.41 203.67 446.04 C 202.92 443.52 201.75 441.11 201.59 438.45 Z" />
</g>
<g id="#aaadafff">
<path fill="#aaadaf" opacity="1.00" d=" M 142.48 442.22 C 143.00 442.77 143.00 442.77 142.48 442.22 Z" />
</g>
<g id="#64696eff">
<path fill="#64696e" opacity="1.00" d=" M 103.99 444.78 L 104.76 444.80 L 105.86 444.84 C 106.02 447.64 106.15 450.45 106.45 453.25 L 106.48 454.08 C 106.21 454.51 105.66 455.38 105.38 455.81 L 105.06 456.30 C 103.51 452.65 104.01 448.63 103.99 444.78 Z" />
</g>
<g id="#d8dadaff">
<path fill="#d8dada" opacity="1.00" d=" M 110.34 445.02 C 111.59 444.77 112.84 444.56 114.10 444.37 C 114.04 447.13 113.91 449.91 113.54 452.66 C 112.53 450.08 111.41 447.56 110.34 445.02 Z" />
</g>
<g id="#61666bff">
<path fill="#61666b" opacity="1.00" d=" M 138.15 448.28 C 139.86 447.72 140.46 448.22 139.97 449.79 C 138.26 450.33 137.65 449.83 138.15 448.28 Z" />
</g>
<g id="#464c52ff">
<path fill="#464c52" opacity="1.00" d=" M 182.41 452.12 C 185.43 450.64 182.52 455.43 182.41 452.12 Z" />
</g>
<g id="#4e5459ff">
<path fill="#4e5459" opacity="1.00" d=" M 197.45 457.42 C 198.42 457.86 198.60 458.67 198.01 459.85 C 197.63 459.87 196.88 459.92 196.50 459.95 C 196.21 458.84 196.53 457.99 197.45 457.42 Z" />
</g>
</svg>
