<?xml version="1.0" encoding="utf-8"?>
<!-- Generator: Adobe Illustrator 27.5.0, SVG Export Plug-In . SVG Version: 6.00 Build 0)  -->
<svg version="1.1" id="Calque_1" xmlns="http://www.w3.org/2000/svg" xmlns:xlink="http://www.w3.org/1999/xlink" x="0px" y="0px"
	 viewBox="0 0 266 505" style="enable-background:new 0 0 266 505;" xml:space="preserve">
<style type="text/css">
	.st0{fill:#1B2228;}
	.st1{fill:#21AECE;}
</style>
<g id="_x23_ffffffff">
</g>
<g id="_x23_1b2228ff">
	<path class="st0" d="M117.6,14.5c18-9.1,39.5-11.1,58.6-4.7c12.2,3.8,23.4,11.7,30,22.8c3.2,5.1,5.1,10.8,6.5,16.6
		c0.6,3,3,5.2,4,8.1c2.2,5.9,2.3,12.6,0,18.5c-2.3,3.6-5.4,6.7-7.6,10.3c-3.1,4.8-7.8,8-11.6,12.1c-1.6,12.2-2.5,24.7-1.4,37
		c0.1,3.1,3,6.1,1.1,9.1c-2.7,4.2-6.8,7.7-11.4,9.6c-3.4-0.1-5.5-3.9-6.2-6.8c2.3-5,8.1-7.4,10.9-12c1.5-17.3,1.9-34.7,2.6-52
		c0.3-3.3-0.2-6.6-1.3-9.7c-12-10.4-28.9-11.5-44-10.1c-10.6,1.3-21.2,3.3-31.1,7.4c0.3,6.9,1,13.9-0.6,20.7c-1,5-4.9,8.6-6.6,13.3
		c-4,10.3-6.8,21.6-4.3,32.6c-4.9-1.8-8.1-6.4-12.9-8.2c-0.3,4.7,0.7,9.4,1.1,14c0.9,7.6-0.3,15.4,1.7,22.9c0.5,1.3,0.7,3.3,2.5,3.4
		c2.4-4.3,2.3-9.5,4.2-14.1c1.8-4.9,4.3-11.1,10.1-11.9c2.3,0.9,4.3,2.3,6.5,3.5c13.9,8,27.9,16,41.8,24c0.6,7.1,0.7,14.2,1.2,21.3
		c0.5-0.1,1.4-0.3,1.9-0.4c0.5-5.6,0.6-11.2,0.9-16.8c0.2-1.2,0-2.6,0.9-3.5c2.7-3.4,5.5-6.8,8.6-9.8c0.4,1.1,1.2,2.1,1.1,3.4
		c0.1,7.3,0.2,14.7,0.2,22c13.1,7.5,26.7,14.7,38.1,24.9c2.9,2.9,6.5,5.1,8.5,8.7c6.3,10.5,8.9,22.7,11.3,34.6
		c1,4.6,1.4,9.3,1.9,14.1c0.9,9.5,3.1,18.8,5.4,28c4.7,18.9,8.7,38.2,8,57.8c-0.4,11.7-1.5,23.3-1.1,35.1c0,7.7,0.8,15.3,1.1,23
		c0.1,2-1.1,3.6-1.9,5.4c1.4,1.3,3.5,2.3,3.6,4.4c-0.4,2.2-2.4,4.3-1.4,6.6c0.4,1.5,1.1,3,0.9,4.6c-0.2,9-1.2,18.2,1,27.1
		c1.2,5.9,3.2,11.6,4.5,17.4c-2.9,3-7.3,0.2-10.9,0.4c-5.7-0.9-11.4,1.2-15.4,5.3c-3.4-4.8-4.9-10.6-6.3-16.2
		c-0.2-7.2-3.6-13.8-3.2-21c0.9-8.3-1.1-16.5-2.5-24.6c-4,3.6-9.5,4.3-14.5,5.3c-5.9,1.1-12,0.1-17.9,0.9
		c-14.4-0.7-28.8,0.7-43.2-0.3c-13,0-26,0-39-0.9c-4.7-0.4-9.4,0.5-14.1,0.6c-0.2,4.4,2.3,7.9,4.4,11.4c1.9,5.6,0.5,11.8,1.8,17.6
		c2.9,12,4.7,24.3,6.1,36.6c-11.4-2.1-22.2,3.1-32.7,6.9c-1.7,0.4-3.8,2.4-5.4,0.6c-1-5.6,0.7-11.4-0.8-17C60,479.8,57,476.2,54,473
		c-2.9-3.1-7-5.1-9-9c-3.9-7-6.5-14.7-10.4-21.7c-2.6-4.9-7.6-8.1-9.9-13.2c-5-10.6-5.5-22.5-7.4-33.9c-1.3-6.8-4.7-13-6.8-19.6
		c-0.6-1.8-0.6-3.7-0.4-5.6c0.4-6-0.6-11.9-0.2-17.9c0.5-10-2.6-19.6-5.1-29.1C4,310.3,7,297.7,7.7,285c0-13.6-0.1-27.4,2.4-40.8
		c1.1-4.6,1.9-9.4,4.3-13.6C25,209.5,41,189.8,63,180c7.2-3.4,15-4.5,22.7-6.1c-2.5-6.2-5.2-14-1-20.1c1.6-3,4.4-5.2,5.8-8.3
		c0.2-3-2.2-5.4-2.8-8.3c-0.8-3.5-1.2-7.5,0.6-10.8c1.4-1.9,3.5-3.2,4.8-5.2c4.3-6.9,5.1-15.2,8.9-22.3c2.1-4.7,4.7-9.2,6.6-14
		c0.4-2.8-1.4-6.3-4.5-6.7c-3-0.4-6.3,0.4-8.6,2.5c-4.8,8.3-1.9,18.2,1.8,26.4c-0.4,0.5-0.8,1-1.2,1.6c-1.7-2.8-3.1-5.8-5.3-8.3
		c-4.9-18.6-5.8-38.9,1-57.2C96.4,30.7,105.9,20.4,117.6,14.5 M109.7,21.7c-9.2,7.1-15.2,17.7-18.1,28.8
		c-3.1,11.1-2.7,22.8-2.1,34.2c3.4-12,13.8-20.1,24.1-26.2c5.3-3.5,11.9-4.3,17-8.1c10.3-7.3,22.7-11.1,35.2-12.3
		c15.2-1,31.5,1.1,44.2,10c-2.4-8.9-6.4-17.6-13.3-23.9C183.9,11.7,165.3,7.9,147.9,8C134.4,9.4,120.6,13.3,109.7,21.7 M135,49.7
		c19.6-4.4,41.5-4.7,59.4,5.7c8.2,5,16.8,12.3,17.1,22.7c6.2-7.8,5.1-19.9-1.8-26.8c-4.7-4.8-11.2-7.3-17.6-8.9
		C173.1,37.3,152.1,40,135,49.7 M103.4,157.6c-1.7,4.6-1.6,9.9-4.7,13.9c4.4,5.2,8.9,10.3,12.6,16.1c2,2.6,1.2,6.3,3.1,8.9
		c4.3,1.2,9.3-0.3,13.2,2.6c-4,3.9-10,5.9-15.5,4.9c-4.6-2.7-2.3-10.2-7.5-12.5c-6.9-3.8-13.2-8.6-17.6-15.2
		c-16,1.8-31.7,8.1-43.6,19.1c-8.5,7.3-15.1,16.3-21.2,25.6c6.2-5.5,12.9-10.6,20.2-14.6c2.7-1.4,5.5-3,8.6-2.9
		c4.2,1.2,7.9,3.9,11.5,6.2c11.1,7.7,21.9,15.9,31.3,25.6c2.5,3.2,6.2,6.4,6.2,10.8c-1.4,5.3-2.3,10.8-2.4,16.3
		c24.4,1.4,48.9,2.3,73.3,3.4c-2.3-23.8-5.8-47.6-9.6-71.2c-0.6-0.1-1.7-0.4-2.2-0.6c-0.1-7.3-0.9-14.6-1.1-21.9
		c-13.1-7.6-26.2-15.1-39.4-22.6c-2.4-1.4-4.8-3-7.4-3.8C106.6,147.9,104.9,153.1,103.4,157.6 M166.5,174.9
		c-0.6,5.4-0.3,10.8-0.9,16.1c-0.3,2-2,3.8-1.5,5.9c3.5,22.8,7,45.7,9.1,68.7c18.2-0.1,36.5,1.1,54.6-1.5
		c-2.1-14.9-5.6-29.8-11.3-43.8c-1-2.4-2.6-4.5-4.4-6.3c-7-6.9-15.6-11.9-23.9-17.2c-5.1-3.2-10.8-5.6-15.7-9.1
		c-0.5-7-0.1-14.1-0.5-21.1C170,169.2,166.7,171.4,166.5,174.9 M206,317.8c-10.1,0.5-20.1,1-30.2,0.4c1.2,15.6,3,31.2,5.1,46.8
		c0.6,5.9,2.8,11.4,3.9,17.1c1.9,9.1,3.1,18.6,1.6,27.9c-0.8,5.2-0.4,10.4-0.3,15.6c9.1,0.6,18.4-0.2,26.9-3.7c5-3,5.2-9.8,5-15
		c-1.1-13.1,1.2-26,2.1-39c1.9-18,2.6-36.1,6.6-53.8C220.1,316.7,213,317.3,206,317.8 M95.9,314.2c-0.5,3.4-0.7,7-3,9.8
		c-2.7,3.9-7.1,6.1-10.3,9.5c-0.7,5.6,4.4,10.1,4.8,15.6c0.7,7.3-3.9,13.7-8.5,18.9c-1.9,1.8-0.7,4.6,0.9,6.2
		c4.1,4.6,8,9.6,9.6,15.7c2.9,11.8,0.7,23.9-0.8,35.7c8.2-0.7,16.3-0.6,24.5-0.3c10.3,1,20.6,0.2,30.9,0.6
		c13.4,0.6,26.7-0.3,40.1-0.1c-0.2-5.3-0.7-10.6,0.1-15.8c1.5-8.3,0.4-16.8-1-25c-1.1-6.4-3.7-12.5-4.4-19
		c-2.6-16-3.6-32.1-5.6-48.2c-11.7,0.8-23.4,0-35.1-0.5C124,316.1,109.9,315.9,95.9,314.2z"/>
	<path class="st0" d="M147.1,404.3c2.8-0.8,5.7,0.2,8.4,0.7c-1.3,0.3-3.9,0.9-5.2,1.1c1,0.2,3,0.6,3.9,0.8c-0.2,0.4-0.6,1.3-0.8,1.7
		c-1.8-1.3-4-0.8-6-0.4c1-1.1,2-2.2,3.1-3.3L147.1,404.3 M150.2,406.4C150.9,406.9,150.9,406.9,150.2,406.4z"/>
	<path class="st0" d="M159,405.3c0.7-0.8,1.5-1.6,2.2-2.3c0.3,2.2,1.1,4.5-0.4,6.5c0.1-1.1,0.2-3.4,0.3-4.5
		c-0.5,0.9-1.4,2.8-1.9,3.8l0-2.3c-0.9,0.7-1.7,1.4-2.6,2.1c-0.1-1.7-0.3-3.4-0.5-5.1C157.1,404,158.1,404.6,159,405.3z"/>
	<path class="st0" d="M120.2,407.6c-0.8-0.8-0.9-3.3,0.5-3.2C121.5,405.1,121.7,407.7,120.2,407.6z"/>
	<path class="st0" d="M122.1,404.8c1.7,0,3.3,0.1,5,0.2c0,0.8,0.1,2.5,0.2,3.4l-0.9,0c-0.3-0.8-0.9-2.5-1.2-3.3
		c-0.1,0.8-0.3,2.5-0.4,3.3l-0.8,0c-0.1-0.8-0.1-2.5-0.2-3.4c-0.6,1.2-1.3,2.5-1.9,3.7C122,407.7,122.1,405.7,122.1,404.8z"/>
	<path class="st0" d="M128.1,405.2c3.5,0.2,7,0.1,10.6,0.1c0,0.6-0.1,1.7-0.1,2.2c-1,0-2,0-3.1,0c-1,1-2.1,2.1-3.1,3
		c0.1-0.7,0.2-2.2,0.3-3c-1.5,0-2.9,0-4.4,0C128.2,407,128.1,405.8,128.1,405.2 M132.3,406.2C132.5,409.6,135.3,404.8,132.3,406.2z"
		/>
	<path class="st0" d="M97.8,405.9c0.7,0.8,1.9,2.3,2.6,3.1c0.1-0.9,0.4-2.6,0.5-3.5c0.7,1.2,1.5,2.4,2.2,3.6
		c0.7-1.3,1.3-2.5,1.9-3.8c0.2,1,0.6,3.1,0.7,4.1c0.6-0.9,1.7-2.6,2.2-3.5c-0.3,1.3-0.7,2.7-1,4c0.8,3.9,0.5,7.9,0.5,11.8
		c-0.7-0.1-2.2-0.2-2.9-0.3c-0.4,0.5-1.2,1.4-1.6,1.9c-0.4-0.5-1.2-1.4-1.6-1.9c-0.7,0.1-2.2,0.2-2.9,0.3c0.1-4.4-0.4-8.8,0.8-13
		C98.8,407.7,98.3,406.8,97.8,405.9 M99.2,421.4c1.8-1.4,2.8-3.4,3.8-5.4c0.9,2,2,4,3.7,5.4c-0.8-3.5-2.4-6.7-3.8-10
		C101.6,414.6,100.1,417.9,99.2,421.4z"/>
	<path class="st0" d="M119.9,410.7c0.4-0.1,1.1-0.2,1.4-0.3c0.3,3.3,0.2,6.6,0.6,9.9l-1.4,0.3l-0.3-2.2c-0.7,0.6-1.4,1.3-2.2,2
		c-0.8-1.8-2.4-2.6-4.2-2.7c-1,1-2,2-3.1,3c0.9-3.9,2.2-7.8,4.2-11.3c1.2,2.6,2.3,5.2,2.8,8.1c0.5,0.3,1.4,0.8,1.9,1.1
		C119.8,416,119.6,413.4,119.9,410.7 M115,416.9c1.9-0.1,1.5-3-0.2-3C113,413.9,113.3,416.9,115,416.9z"/>
	<path class="st0" d="M123.4,419c-0.4-3.3-0.3-6.6,0.7-9.8c0.9,3.9,0.9,7.9,1.4,11.9C124.8,420.4,123.5,420.1,123.4,419z"/>
	<path class="st0" d="M138,413.7c0.2-0.6,0.6-1.9,0.8-2.5c0.8,1.1,1.5,2.1,2.3,3.2c2.3-0.3,5.6-2.2,7.1,0.5c1.9,2.7-1,6.8-4.1,5.3
		c-2.7-0.9-1.5-4.5-3.3-6.2c-1.6,2.2-0.7,4.7,0,7c-0.9-0.4-1.7-0.8-2.6-1.1c0-2,0-4-0.1-5.9c-0.7,0.4-2.2,1.2-3,1.6c0,1.5,0,3,0,4.6
		c-2.6-0.1-5.5,1-7.9-0.4c-2.1-2-0.9-5,1-6.6c0.5,1.1,0.1,2.3-0.4,3.3c0.7-0.2,2-0.5,2.7-0.6c-0.2-0.8-0.2-1.6-0.2-2.5
		c0.8,0.8,2.3,2.2,3.1,3c0-0.7,0-2.1,0-2.8C135,413.6,136.5,413.6,138,413.7 M144.2,415.2c-1.7,1.1-0.4,5,1.8,3.8
		C148.7,418.2,146.5,412.8,144.2,415.2 M127.8,417.5c0.2,0.4,0.7,1.1,0.9,1.4c1.6,0.2,3.1,0.4,4.7,0.6c0-0.8,0.1-2.4,0.2-3.2
		C131.7,416.8,129.8,417.2,127.8,417.5z"/>
	<path class="st0" d="M149.7,413.5c1.8,0.1,3.6,0,5.4,0.3c0.9,1.2,1,2.8,0.9,4.3c-0.3,0.8,0.4,3.3-1.2,2.5c-0.8-2.2,0.6-6.9-3.1-5.8
		c-0.2,1.9-0.2,3.9-0.3,5.9c-0.4-0.1-1.2-0.3-1.7-0.4C149.7,418,149.7,415.8,149.7,413.5z"/>
	<path class="st0" d="M157.1,415.7c0.2-3,3.7-2.4,5.6-1.4c-1.1,0.2-3.3,0.5-4.4,0.6c1.4,1.2,3.5,2,4.1,4c-1.3,2.5-4.2,1.5-6.1,0.7
		c1.2-0.1,3.5-0.4,4.6-0.6C159.6,417.9,158.3,416.9,157.1,415.7z"/>
	<path class="st0" d="M162.8,419.6c1.5-0.9,2.9-2,4.4-2.9l0.3,1.3l-1.2,0.3c-0.9,1-1.8,1.9-2.7,2.9L162.8,419.6z"/>
	<path class="st0" d="M166.8,419.1c1.4-0.8,2.9-3.1,4.5-1.2c1.7-1,3.7-0.8,5.6-0.8c0,1.4-0.1,2.9-0.1,4.3c-0.4-1.1-0.8-2.3-1.2-3.4
		l-0.6,0c-0.1,0.8-0.1,2.5-0.2,3.3c-0.4-1-0.8-2.1-1.1-3.1c-1,0.4-1.4,1.3-1.3,2.6c-0.3-0.5-1-1.6-1.4-2.1c-0.2,0.5-0.6,1.6-0.9,2.1
		C169.1,420.3,168,419.7,166.8,419.1 M169.4,418.4C169.6,418.6,169.6,418.6,169.4,418.4z"/>
</g>
<g id="_x23_98c5ebff">
	<path class="st1" d="M109.7,21.7c10.9-8.4,24.7-12.3,38.2-13.7c17.3-0.1,36,3.7,48.8,16.2c6.9,6.4,10.9,15,13.3,23.9
		c-12.8-8.9-29-11-44.2-10c-12.5,1.2-24.9,5-35.2,12.3c-5.1,3.8-11.7,4.6-17,8.1c-10.3,6.1-20.7,14.2-24.1,26.2
		c-0.5-11.4-1-23.1,2.1-34.2C94.5,39.4,100.5,28.8,109.7,21.7z"/>
	<path class="st1" d="M135,49.7c17.1-9.8,38.1-12.4,57.1-7.4c6.4,1.7,12.9,4.2,17.6,8.9c6.9,6.9,8,19.1,1.8,26.8
		c-0.3-10.4-8.9-17.7-17.1-22.7C176.5,45,154.6,45.4,135,49.7z"/>
	<path class="st1" d="M103.4,157.6c1.5-4.5,3.2-9.8,7.8-12c2.7,0.8,5,2.5,7.4,3.8c13.1,7.6,26.2,15.1,39.4,22.6
		c0.2,7.3,1,14.6,1.1,21.9c0.6,0.1,1.7,0.4,2.2,0.6c3.8,23.6,7.3,47.4,9.6,71.2c-24.4-1.1-48.9-2-73.3-3.4c0.2-5.5,1-11,2.4-16.3
		c0-4.4-3.7-7.6-6.2-10.8c-9.3-9.8-20.2-17.9-31.3-25.6c-3.7-2.3-7.3-5-11.5-6.2c-3.1-0.1-5.9,1.5-8.6,2.9
		c-7.3,4-13.9,9.1-20.2,14.6c6.1-9.2,12.7-18.3,21.2-25.6c11.9-11,27.6-17.3,43.6-19.1c4.3,6.6,10.7,11.5,17.6,15.2
		c5.1,2.2,2.9,9.8,7.5,12.5c5.5,1,11.5-1,15.5-4.9c-3.9-2.9-8.9-1.4-13.2-2.6c-1.9-2.6-1.1-6.3-3.1-8.9c-3.7-5.7-8.2-10.9-12.6-16.1
		C101.8,167.5,101.7,162.3,103.4,157.6z"/>
	<path class="st1" d="M166.5,174.9c0.2-3.5,3.4-5.7,5.5-8.2c0.3,7-0.1,14.1,0.5,21.1c4.9,3.6,10.6,5.9,15.7,9.1
		c8.3,5.2,16.9,10.3,23.9,17.2c1.9,1.8,3.5,3.9,4.4,6.3c5.8,14,9.2,28.8,11.3,43.8c-18.1,2.5-36.4,1.3-54.6,1.5
		c-2.1-23-5.6-45.8-9.1-68.7c-0.5-2.1,1.2-3.9,1.5-5.9C166.2,185.7,165.9,180.3,166.5,174.9z"/>
	<path class="st1" d="M206,317.8c7-0.5,14.1-1.1,20.7-3.6c-4,17.7-4.7,35.9-6.6,53.8c-0.9,13-3.2,25.9-2.1,39c0.2,5.2,0,12-5,15
		c-8.5,3.5-17.8,4.3-26.9,3.7c0-5.2-0.4-10.5,0.3-15.6c1.5-9.3,0.3-18.8-1.6-27.9c-1.1-5.8-3.3-11.3-3.9-17.1
		c-2.1-15.6-3.9-31.2-5.1-46.8C185.9,318.9,196,318.3,206,317.8z"/>
	<path class="st1" d="M95.9,314.2c14,1.7,28.1,1.9,42.1,3c11.7,0.5,23.4,1.3,35.1,0.5c1.9,16,3,32.2,5.6,48.2
		c0.8,6.5,3.4,12.6,4.4,19c1.4,8.2,2.6,16.7,1,25c-0.9,5.2-0.4,10.6-0.1,15.8c-13.4-0.2-26.7,0.7-40.1,0.1
		c-10.3-0.4-20.6,0.4-30.9-0.6c-8.2-0.3-16.4-0.4-24.5,0.3c1.6-11.8,3.7-23.9,0.8-35.7c-1.6-6.1-5.5-11.1-9.6-15.7
		c-1.6-1.6-2.8-4.4-0.9-6.2c4.7-5.1,9.2-11.5,8.5-18.9c-0.4-5.5-5.5-10-4.8-15.6c3.2-3.4,7.6-5.6,10.3-9.5
		C95.2,321.2,95.5,317.6,95.9,314.2 M147.1,404.3l3.3,0.5c-1,1.1-2.1,2.2-3.1,3.3c2-0.4,4.2-0.9,6,0.4c0.2-0.4,0.6-1.3,0.8-1.7
		c-1-0.2-3-0.6-3.9-0.8c1.3-0.3,3.9-0.9,5.2-1.1C152.7,404.5,149.9,403.5,147.1,404.3 M159,405.3c-0.9-0.6-1.9-1.2-2.8-1.8
		c0.1,1.7,0.3,3.4,0.5,5.1c0.9-0.7,1.7-1.4,2.6-2.1l0,2.3c0.5-1,1.4-2.9,1.9-3.8c-0.1,1.1-0.2,3.4-0.3,4.5c1.5-2,0.7-4.3,0.4-6.5
		C160.4,403.7,159.7,404.5,159,405.3 M120.2,407.6c1.4,0.1,1.3-2.5,0.5-3.2C119.3,404.3,119.5,406.8,120.2,407.6 M122.1,404.8
		c0,1-0.1,2.9-0.1,3.9c0.6-1.2,1.3-2.4,1.9-3.7c0,0.8,0.1,2.5,0.2,3.4l0.8,0c0.1-0.8,0.3-2.5,0.4-3.3c0.3,0.8,0.9,2.5,1.2,3.3l0.9,0
		c-0.1-0.8-0.2-2.5-0.2-3.4C125.4,404.9,123.8,404.8,122.1,404.8 M128.1,405.2c0.1,0.6,0.2,1.8,0.2,2.4c1.5,0,2.9,0,4.4,0
		c-0.1,0.7-0.2,2.2-0.3,3c1.1-1,2.1-2,3.1-3c1,0,2,0,3.1,0c0-0.6,0.1-1.7,0.1-2.2C135.1,405.4,131.6,405.4,128.1,405.2 M97.8,405.9
		c0.5,0.9,1,1.8,1.5,2.7c-1.3,4.2-0.8,8.7-0.8,13c0.7-0.1,2.2-0.2,2.9-0.3c0.4,0.5,1.2,1.4,1.6,1.9c0.4-0.5,1.2-1.4,1.6-1.9
		c0.7,0.1,2.2,0.3,2.9,0.3c0-3.9,0.3-7.9-0.5-11.8c0.3-1.3,0.6-2.7,1-4c-0.6,0.9-1.7,2.6-2.2,3.5c-0.2-1-0.5-3.1-0.7-4.1
		c-0.7,1.3-1.3,2.5-1.9,3.8c-0.7-1.2-1.4-2.4-2.2-3.6c-0.1,0.9-0.4,2.6-0.5,3.5C99.8,408.2,98.5,406.6,97.8,405.9 M119.9,410.7
		c-0.3,2.6-0.1,5.3-0.2,7.9c-0.5-0.3-1.4-0.8-1.9-1.1c-0.5-2.8-1.6-5.5-2.8-8.1c-2,3.5-3.3,7.4-4.2,11.3c1.1-1,2.1-2,3.1-3
		c1.9,0.1,3.4,0.9,4.2,2.7c0.7-0.6,1.4-1.3,2.2-2l0.3,2.2l1.4-0.3c-0.4-3.3-0.2-6.6-0.6-9.9C121,410.5,120.2,410.7,119.9,410.7
		 M123.4,419c0.2,1,1.4,1.4,2.1,2.1c-0.5-4-0.5-8-1.4-11.9C123.1,412.4,123,415.8,123.4,419 M138,413.7c-1.5,0-3-0.1-4.5-0.2
		c0,0.7,0,2.1,0,2.8c-0.8-0.8-2.3-2.2-3.1-3c0,0.8,0.1,1.6,0.2,2.5c-0.7,0.2-2,0.5-2.7,0.6c0.5-1,0.9-2.2,0.4-3.3
		c-1.9,1.6-3.1,4.7-1,6.6c2.4,1.3,5.3,0.3,7.9,0.4c0-1.5,0-3.1,0-4.6c0.7-0.4,2.2-1.2,3-1.6c0,2,0,4,0.1,5.9
		c0.9,0.4,1.7,0.8,2.6,1.1c-0.7-2.3-1.6-4.7,0-7c1.8,1.8,0.6,5.4,3.3,6.2c3.1,1.5,6-2.6,4.1-5.3c-1.5-2.7-4.9-0.9-7.1-0.5
		c-0.8-1.1-1.5-2.2-2.3-3.2C138.6,411.8,138.2,413,138,413.7 M149.7,413.5c0,2.3,0,4.5,0,6.8c0.4,0.1,1.2,0.3,1.7,0.4
		c0.1-2,0.1-3.9,0.3-5.9c3.8-1.1,2.3,3.6,3.1,5.8c1.6,0.8,0.9-1.8,1.2-2.5c0.1-1.5,0-3-0.9-4.3C153.4,413.4,151.5,413.5,149.7,413.5
		 M157.1,415.7c1.2,1.2,2.5,2.2,3.8,3.3c-1.2,0.1-3.5,0.4-4.6,0.6c2,0.9,4.8,1.8,6.1-0.7c-0.6-2-2.6-2.8-4.1-4
		c1.1-0.1,3.3-0.5,4.4-0.6C160.8,413.3,157.3,412.6,157.1,415.7 M162.8,419.6l0.8,1.5c0.9-1,1.8-1.9,2.7-2.9l1.2-0.3l-0.3-1.3
		C165.7,417.6,164.3,418.6,162.8,419.6 M166.8,419.1c1.1,0.6,2.3,1.2,3.4,1.8c0.2-0.5,0.6-1.6,0.9-2.1c0.3,0.5,1,1.6,1.4,2.1
		c-0.1-1.3,0.3-2.2,1.3-2.6c0.4,1,0.8,2.1,1.1,3.1c0.1-0.8,0.1-2.5,0.2-3.3l0.6,0c0.4,1.2,0.8,2.3,1.2,3.4c0.1-1.4,0.1-2.9,0.1-4.3
		c-1.9,0-3.9-0.2-5.6,0.8C169.8,416,168.2,418.3,166.8,419.1z"/>
	<path class="st1" d="M132.3,406.2C135.3,404.8,132.5,409.6,132.3,406.2z"/>
	<path class="st1" d="M150.2,406.4C150.9,406.9,150.9,406.9,150.2,406.4z"/>
	<path class="st1" d="M99.2,421.4c0.9-3.5,2.4-6.7,3.8-10c1.4,3.3,2.9,6.5,3.8,10c-1.8-1.4-2.8-3.4-3.7-5.4
		C102,418,101,420,99.2,421.4z"/>
	<path class="st1" d="M115,416.9c-1.7,0-2-3-0.2-3C116.4,413.9,116.8,416.8,115,416.9z"/>
	<path class="st1" d="M144.2,415.2c2.3-2.4,4.4,3,1.8,3.8C143.8,420.2,142.6,416.3,144.2,415.2z"/>
	<path class="st1" d="M127.8,417.5c1.9-0.3,3.9-0.7,5.8-1.1c-0.1,0.8-0.1,2.4-0.2,3.2c-1.6-0.2-3.1-0.5-4.7-0.6
		C128.5,418.6,128.1,417.9,127.8,417.5z"/>
	<path class="st1" d="M169.4,418.4C169.6,418.6,169.6,418.6,169.4,418.4z"/>
</g>
</svg>
