<?xml version="1.0" encoding="utf-8"?>
<!-- Generator: Adobe Illustrator 27.5.0, SVG Export Plug-In . SVG Version: 6.00 Build 0)  -->
<svg version="1.1" id="Calque_1" xmlns="http://www.w3.org/2000/svg" xmlns:xlink="http://www.w3.org/1999/xlink" x="0px" y="0px"
	 viewBox="0 0 279 547" style="enable-background:new 0 0 279 547;" xml:space="preserve">
<style type="text/css">
	.st0{fill:#FFFFFF;}
	.st1{fill:#E2B700;}
	.st2{fill:#152CB5;}
</style>
<g id="_x23_ffffffff">
	<path class="st0" d="M102.1,84.2c3.1-1.5,6.6-3,10.1-2.1c3.5,1,5.3,5.5,3.6,8.6c-3.8,8.1-8,16.1-11.1,24.5
		c-2.5-6.2-4.9-12.6-5.5-19.3C99.2,91.9,100.5,87.9,102.1,84.2z"/>
	<path class="st0" d="M158.4,438.7c1.1-0.7,2.2-1.3,3.3-1.9c0,1.7-0.1,3.5-0.1,5.2c-0.7,0-2,0-2.7-0.1c0.9-1.3,1.8-2.5,2.7-3.9
		C160.8,438.2,159.2,438.5,158.4,438.7z"/>
	<path class="st0" d="M163.1,441.9c0.2-2-0.4-4.8,2.4-5.2l0,2c1.3-0.5,2.6-1.1,3.9-1.7c0,1.6,0,3.3,0.1,5c-0.2,0-0.7-0.1-0.9-0.2
		c-0.4-0.6-0.6-3.3-1.6-2.1C166.2,441.2,164.8,441.9,163.1,441.9 M164.3,438.4c-0.8,1.3-0.6,2,0.7,2.2
		C165.9,439.5,165.6,438.7,164.3,438.4z"/>
	<path class="st0" d="M171.3,437.4c0.8-0.1,2.3-0.2,3-0.3c-0.6,0.3-1.8,1-2.4,1.3c1.1,0.7,2.1,1.5,3.1,2.2c-0.8-0.2-2.3-0.6-3-0.8
		l0,1.7c0.6-0.2,1.9-0.6,2.6-0.8c-0.5,0.5-1.6,1.5-2.1,2C171.1,441.3,171.1,439.3,171.3,437.4z"/>
	<path class="st0" d="M130.9,438.5c1.6,0,3.3,0,4.9-0.1c0.1,1.3,0.1,2.6,0.1,3.9c-0.5-1.2-1-2.4-1.5-3.6c-0.2,1-0.8,2.9-1,3.9
		c-0.2-1-0.5-3-0.7-4c-0.4,1-1.3,2.9-1.8,3.9C131,441.2,130.9,439.8,130.9,438.5z"/>
	<path class="st0" d="M138.5,437.4c0.9,1.4,1.6,2.8,2.3,4.2c-1.3-0.2-3,0.6-3.9-0.6c0.5-0.2,1.5-0.6,2-0.8
		C138.7,439.5,138.6,438.1,138.5,437.4z"/>
	<path class="st0" d="M142.4,438.5c0.6,0,1.7,0,2.2,0l0.1,1.8c0.6-0.5,1.7-1.5,2.3-2c0.4,0.2,1.3,0.5,1.7,0.7
		c-0.1,0.8-0.2,2.5-0.3,3.4c-1-0.4-3,0-2.4-2l-1.6,0.1c0.1,0.6,0.3,1.9,0.4,2.6c-1.7-0.8-3.3-1.6-4.7-3
		C140.8,439.7,141.9,438.9,142.4,438.5 M142.2,439.9C142.4,443.2,145.2,438.2,142.2,439.9z"/>
	<path class="st0" d="M111.4,442.5c-0.1-1.3,0.1-2.6,1-3.6c0.1,1.1,0.2,3.3,0.2,4.4c1-1.2,2-2.4,3-3.5c-0.8,2-1.3,4-1.7,6.1l1.6-0.4
		c-0.1,3.6,0.2,7.3,0,10.9c-0.5-2.4-0.5-4.9-0.9-7.3c-0.2,1.9-0.3,3.9-0.4,5.8c-1.2-2.9-3-5.5-3.3-8.7l0.2-0.7c0.7,0,2-0.1,2.6-0.1
		c0-0.2,0.1-0.6,0.1-0.8c-2.7,0-5.3,0-8,0c-0.3-1.6-0.6-3.2-0.8-4.8c0.7,1.3,1.4,2.6,2.1,3.9c0.1-0.9,0.3-2.7,0.4-3.6
		c0.6,0.1,1.7,0.2,2.3,0.2c-0.4,0.5-1.3,1.6-1.7,2.1C109,442.4,110.6,442.4,111.4,442.5z"/>
	<path class="st0" d="M142.6,443.3C143.3,443.8,143.3,443.8,142.6,443.3z"/>
	<path class="st0" d="M128.6,452.9c0-3-0.6-6.3,0.9-9c1,4,0.6,8.1,1.3,12.2C129.9,455.1,128.4,454.3,128.6,452.9z"/>
	<path class="st0" d="M132.4,444.4c0.4,0.1,1.1,0.4,1.5,0.5c0,3.7-0.4,7.5,1.1,10.9c-0.6-0.3-1.9-1-2.5-1.4
		C132.1,451.1,132.4,447.7,132.4,444.4z"/>
	<path class="st0" d="M118.9,455.6c0.6-4.1,2.2-8.1,4.1-11.8c2,3.5,3.4,7.3,4.3,11.2c-1.4-0.1-2.2-0.9-2.5-2.5c-1.2,0-2.3,0-3.5,0.1
		C120.8,453.8,120,454.8,118.9,455.6 M122.3,448.5c-1.5,0.9,0,3.7,1.5,2.5C125.2,450,123.8,447.3,122.3,448.5z"/>
	<path class="st0" d="M105.5,445.1c1.5,0,3,0.4,4.3,1c-0.8,3-2.5,5.7-3.9,8.5C105.7,451.5,105.8,448.3,105.5,445.1z"/>
	<path class="st0" d="M145.6,448.3c1.7-0.6,4.7-4,4.9-0.5c0.4,0,1.3,0,1.7,0c-2.8,1.2-3.2,6.1,0,7.1c-1.2,1-3.7,0.4-3.5-1.5
		c-0.1-2-0.4-4.1-2.3-5.2c-2.1,2.2-0.5,5.6-2.6,7.7c-0.2-1.3-0.6-2.6-1.2-3.8c-1.9-1-4.1-0.2-6-0.2c1,2.4,3.6,2,5.7,2.1
		c-2.6,3.4-8.6,0.1-6.7-3.9c1-3.4,5.3-2.1,7,0c0.2-0.5,0.6-1.5,0.9-2C144.2,448.2,145.2,448.2,145.6,448.3 M137.7,450
		c0.9,1.3,1.9,1.3,2.8,0C139.5,448.7,138.6,448.7,137.7,450z"/>
	<path class="st0" d="M171.1,447.9c1.5-0.7,2.8,0.5,4,1.3c-1.5-0.1-3-0.2-4.5-0.3c0.7,1.4,2,2.2,3.3,3.1c0.8,0.7,1.4,2.5,2.8,1.7
		c2.3-1.9,5.3-1.2,8.1-1.4c0,0.6,0,1.7,0,2.2c-0.4,0.2-1.2,0.7-1.6,0.9c-0.4-0.3-1.3-0.9-1.7-1.2c-1.1,1-2.2,1.1-3.2,0.3
		c-0.7,0.4-1.4,0.9-2,1.3c-0.8-0.4-1.5-0.8-2.3-1.2c-1.8,0.9-4,1-5-1c1.6,0.2,3.1,0.3,4.7,0.4c-0.8-1.7-2.6-2.4-4.2-3.2
		C169.6,449.8,169.7,448.3,171.1,447.9 M179,453.3C179.2,456.5,182.1,451.6,179,453.3 M182.4,453.3
		C182.4,456.7,185.4,451.9,182.4,453.3z"/>
	<path class="st0" d="M158.4,450c-1.5-0.6-3-1.2-4.4-2c2.7-1,6.7,0.6,5.9,4c0.3,4-6.1,4.6-7,1c0-1,0.1-2.9,0.1-3.9
		c0.9,1.4,1.5,3,1.9,4.7C157.7,454.7,158.6,452.4,158.4,450z"/>
	<path class="st0" d="M161.3,448.2c2,0.2,4.4-0.8,6.1,0.6c0.7,2.3,1.3,5.4-0.7,7.3c-0.3-2.3-0.4-4.5-0.5-6.8
		c-0.8,0.1-2.5,0.2-3.4,0.2c0,1.9,0,3.7,0.1,5.6c-0.4,0.1-1.1,0.3-1.5,0.4C161.4,453.1,161.3,450.6,161.3,448.2z"/>
	<path class="st0" d="M107,456.4c1.3-1.9,2.3-3.8,3.4-5.8c0.5,1.5,1.1,2.9,1.7,4.4c0.9,0.3,2.5,1,3.4,1.3
		C112.6,456.4,109.8,456.5,107,456.4z"/>
	<path class="st0" d="M185.6,452.3c1.8,0,3.6,0,5.4,0c-0.2,1.1-0.5,2.1-0.7,3.2c-0.2-0.6-0.5-1.9-0.6-2.5l-0.8,0
		c-0.1,0.6-0.2,1.8-0.3,2.4c-0.1-0.6-0.4-1.7-0.5-2.3c-0.7,0.2-2,0.5-2.6,0.6L185.6,452.3z"/>
</g>
<g id="_x23_000000ff">
	<path d="M125.6,12.8c10.3-5.5,21.8-8.4,33.4-9.3c17.6-0.4,36.1,3.1,50.4,14c10.3,7.8,17.4,19.4,20.3,31.9c0.7,4.8,4.8,8.2,5.6,13.1
		c1.2,6.8,1.4,14.9-3.6,20.4c-1.6,2.1-3.4,4-4.9,6.2c-3.5,5.7-8.6,10.1-13.7,14.3c-1.4,13.3-2.9,26.8-1.5,40.2
		c0.2,3.1,2.2,5.9,1.8,9.1c-2.1,5.2-6.9,8.7-11.6,11.4c-2.4,1.7-4.9-0.8-6.2-2.7c-1-1.7-2.9-4-1.1-5.7c3.1-3.8,7.2-6.7,10.6-10.4
		c1-1,0.7-2.5,1-3.8c1.2-18.5,1.9-37,2.5-55.5c-0.1-4.1-0.1-9.2-4.1-11.5c-11.6-8.7-26.7-10-40.7-9.3c-13.2,1-26.5,3.4-38.8,8.5
		c0.7,7.4,1.1,15-0.5,22.4c-1.2,5.6-5.5,9.8-7.4,15.1c-4.1,11-7.3,23-4.6,34.7c-5.3-1.9-8.9-6.6-14-9c-0.6,4.8,0.5,9.5,0.9,14.3
		c0.8,8,0.1,16,1.4,23.9c0.3,2.6,1.4,4.9,2.8,7.1c2.9-3.5,2.7-8.2,4.1-12.3c1.8-5.9,3.8-12.8,9.5-16.1c2.5-1.7,5,0.5,7.2,1.6
		c15.3,8.8,30.5,17.6,45.8,26.3c0.9,0.6,2.3,1.1,2.2,2.4c0.6,7.5,0.8,14.9,1.3,22.4c0.5-0.2,1.6-0.5,2.1-0.7
		c0.8-7.1,0.6-14.2,1.5-21.3c2.7-3.6,5.7-7,8.8-10.3c1.5-1.3,2.2,0.7,2.1,1.9c0.2,8.3,0.1,16.5,0.3,24.8c7.5,3.9,14.8,8.2,21.9,12.6
		c8,5.2,16.2,10.5,22.8,17.6c3.9,1.9,6,5.9,8,9.5c5.1,10.3,8,21.4,10.2,32.6c2.2,10.5,2.2,21.4,4.6,31.9
		c4.9,22.1,11.4,44.1,12.4,66.9c0.3,6.3,0.1,12.6-0.2,19c-1.3,18.7-1.1,37.5,0.4,56.1c0.3,2.3-1.3,4.2-2.2,6.2
		c1.6,1.3,3.9,2.5,3.9,4.9c-0.5,2-1.5,3.9-1.9,5.9c0.5,2,1.7,3.9,1.4,6c-0.3,7-0.5,13.9-0.3,20.9c0.5,9.3,4.1,18.1,5.9,27.1
		c0.4,1.9-1.9,2.6-3.4,2.2c-4.7-0.4-9.5-1.9-14.2-1.1c-4,0.4-7.4,2.7-10.1,5.5c-1-0.8-2.1-1.6-2.5-2.9c-2.4-6.1-5-12.3-5.3-18.9
		c-0.9-6-3.3-11.8-3-17.9c0.9-9.2-1.2-18.3-2.9-27.3c-5.2,3.9-11.8,4.9-18,5.9c-11,1-22.1,0.1-33.1,0.4c-17.3,0.4-34.7-0.3-52-0.1
		c-7.3,0.2-14.6-1.1-21.9-1c-5-0.3-10,0.4-15,0.6c-0.6,4.3,1.7,8,4,11.4c3,6.3,0.8,13.5,2.4,20.2c3,13.1,5.4,26.5,6.5,39.9
		c-14.1-2.1-27.3,4.8-40.2,9.4c-3.2-5.6,0-12.4-1.6-18.4c-2.2-9-10.4-14.5-16.5-20.7C42.4,496.2,40,485,33.5,476
		c-2.7-3.5-6.2-6.4-8.3-10.4c-3.4-6.7-4.8-14.2-6.1-21.5c-1.4-8-1.6-16.3-4.6-23.9c-2.2-6.6-6.4-12.9-5.7-20.1c0.3-7-0.5-14-0.2-21
		c0.3-10.3-3-20.1-5.5-29.9c-1.1-16.5,3.8-32.7,3-49.2c0.2-15.9,0.7-32.1,5.4-47.4c10.2-22.2,25.7-42.7,46.9-55.3
		c10-6.1,21.5-9.2,33.1-10.5c-2.8-6.7-5.8-15.1-1.5-21.8c1.6-3,4-5.4,5.9-8.2c1.4-1.9,0.3-4.2-0.7-6c-2.4-4.2-2.8-9.4-2-14.1
		c0.5-3.5,4.3-4.7,6-7.5c2.5-4.1,4-8.6,5.4-13.2c-3.6-2.8-5.1-7.2-7.9-10.7c-4.9-19.8-6.1-41.2,1-60.7
		C102.7,31.1,112.8,19.5,125.6,12.8 M156.1,5.6c-10.9,1.7-22.1,4.2-31.5,10.2c-9.7,4.8-17.2,13.3-22,22.9c-8,15.4-8.7,33.4-7,50.3
		c1.8-5.1,4.3-10.1,8-14.1l0-0.2c6.8-6.8,14.6-12.7,23.3-16.7c4.9-2.1,10.2-3.3,14.5-6.6c6.2-4.7,13.5-7.5,20.9-9.8
		c16.8-5,35-4.4,51.7,1c4.6,1.8,9.1,4,13.1,7.1c-1.2-4.7-2.8-9.3-5-13.7c-6.3-12.5-18.2-21.8-31.5-25.8
		C179.6,6.2,167.7,4.8,156.1,5.6 M145.3,50.9c8.5-1.5,17-3.1,25.6-3c16.7-0.3,34.1,4.1,47.1,15c5.7,4.7,10.3,11.4,10.4,19.1
		c7.6-8.7,5.5-23.2-2.9-30.6c-5.5-4.7-12.5-7.2-19.5-9C185.7,37.7,163.4,40.3,145.3,50.9 M102.1,84.2c-1.6,3.7-2.8,7.7-2.9,11.8
		c0.6,6.7,3,13.1,5.5,19.3c3.2-8.4,7.3-16.4,11.1-24.5c1.7-3.1-0.1-7.7-3.6-8.6C108.7,81.2,105.2,82.7,102.1,84.2 M110.7,168.4
		c-1.8,5-1.7,10.8-5.2,15c3.2,4.4,7,8.4,10.3,12.8c2.2,3,4.6,6,5.2,9.8c0.5,1.9,0.4,4.5,2.6,5.4c4,1,8.4,0,12.3,1.8
		c1.1,2.1-1.4,3-2.8,3.8c-4,1.8-8.5,3.2-12.8,2.3c-4.6-3.1-2.7-10.7-7.7-13.5c-7.6-4.3-14.9-9.6-19.5-17.2c-7.8,2-16,2.7-23.5,6
		c-20.4,8.4-36.6,25-47.7,43.8c8.5-7.2,17.2-14.6,27.5-18.9c4.8-1.9,9.3,1.6,13.3,3.9c12.2,7.9,23.7,16.9,34.3,26.8
		c3.7,3.9,7.8,7.7,9.7,12.9c0.7,3.4-1.3,6.5-1.5,9.9c-0.7,6.3-1.4,12.6-0.9,19c0.4,5.1,2.2,9.9,2,15.1c-0.1,12.5-3.6,24.7-4.5,37.2
		c-1.4,7.4-8.7,11.1-13.5,16.1c-1.3,4.5,2.3,8.7,3.7,12.9c3.3,7.4-0.2,15.7-5.2,21.4c-1.6,2.2-4.5,4.3-3.8,7.3
		c1.6,3.5,4.6,6.1,6.9,9.2c3.2,4.4,5.6,9.4,6.3,14.8c1.7,11.7-0.2,23.4-1.7,35c8.5-1,17.2-1,25.7-0.3c10.9,1,22,0.4,32.9,0.6
		c15.1,0.6,30.3-0.1,45.5-0.2c0-3.7-0.2-7.4-0.1-11.1c0.1-5,1.4-10,1.3-15c-0.1-9.5-1.6-18.9-4.2-27.9c-2.2-7.5-3-15.2-4-22.9
		c-3.4-29.9-6.8-60-6.6-90.2c-0.8-17.5-3.4-34.7-5.7-52c-1.6-10.9-3.2-21.9-5.2-32.7c-0.8-0.7-2.5-0.9-2.4-2.2
		c-0.5-7.5-0.8-14.9-1.1-22.4c-16.7-10-33.8-19.3-50.5-29.3C114.4,157.4,112.4,163.4,110.7,168.4 M179.4,188
		c-0.3,6.4-0.7,12.8-1,19.3c-0.5,0.4-1.5,1.1-2.1,1.5c3.9,23.7,7.4,47.5,9.9,71.4c1.5,12.3,0.6,24.6,1.4,36.9
		c0.8,13.7,1.9,27.4,3.3,41c1.7,14.6,2.8,29.3,5.6,43.8c3.5,13.2,6.8,27,4.9,40.8c-0.8,6.2-0.8,12.5-0.5,18.7
		c10.3,0.4,21.3,0,30.7-4.8c4.4-4.1,4.5-10.9,4.2-16.5c-1.1-10.7,0.6-21.4,1.4-32c1.4-15,2.8-30,4.1-45c0.7-7,2.4-13.9,3.5-20.8
		c6.2-34.4,2.6-70.4-9.9-102.9c-2.6-8.2-10.2-13.2-16.8-18.1c-10-7.3-21.2-13-31.8-19.3c-0.7-7.9-0.3-15.8-0.5-23.7
		C183.4,181.1,179.2,183.6,179.4,188 M40.5,227.4c-7.7,5.1-15,10.9-20.8,18.2c-3,3.7-6,7.7-6.9,12.4c-4.3,17.3-4,35.2-4.2,52.9
		c-1,11.4-2.9,22.6-3.1,34.1c-0.2,5.2,2.2,10,3.2,14.9c1.4,6.9,3,13.9,2.5,21c-0.3,5.4,0.5,10.8,0.5,16.1c0.1,3.5-0.8,7.1,0.7,10.4
		c2.5,6.5,5.7,12.8,7,19.6c2.5,12.3,2.7,25.2,8,36.8c2.4,5.5,7.6,9,10.6,14.1c4.5,7.3,7,15.6,10.8,23.2c2.1,4.4,6.5,6.9,9.8,10.3
		c3.8,3.9,7.5,8.3,8.9,13.6c1,5.4,0.3,10.9,0.4,16.4c11.6-4.7,23.8-9.9,36.6-9.1c-1.6-11.5-3-23-6-34.2c-1.5-5.6-0.9-11.5-1.3-17.2
		c0-5.4-5.6-8.6-5.5-14c-0.2-13.3,4.1-26.5,1.7-39.8c-0.8-8-6.3-14.3-11.2-20.2c-2.3-2.5-3.3-6.7-0.9-9.5c3.7-4.6,7.8-9.3,8.8-15.4
		c1.4-7.8-6.4-13.8-5.3-21.4c2.9-6.3,11.2-8.5,13.3-15.4c1.4-6.4,1.6-12.9,2.8-19.3c1-8.3,3.3-16.7,1.5-25
		c-1.9-6.8-1.4-13.9-1.3-20.8c0.1-4.8,1.2-9.4,2.2-14c0.7-2.3-0.9-4.3-2.1-6.1c-5.6-7.4-12.9-13.2-20-19.1
		c-7.9-6.2-16-12.2-24.6-17.3c-1.7-0.9-3.6-2.2-5.6-1.5C47.2,223,43.8,225.3,40.5,227.4 M249.2,286.1c2.6,21.1,1.4,42.6-2.9,63.4
		c-3.8,17.5-4.2,35.6-6.2,53.4c-0.7,11.7-3,23.4-1.9,35.2c0.4,4.7,1,9.5-0.6,14c-0.4,2-1.8,3.9-1.3,6c1.2,6,2.3,11.9,3,18
		c0.6,4.4-0.6,8.7,0,13.1c0.5,5.1,2.7,9.8,3.1,15c0.4,5.9,3.1,11.2,5,16.7c7-6.3,16.9-4.7,25.3-3.3c-1.8-8.2-4.6-16.1-5.6-24.5
		c-0.5-7.4-0.2-14.7,0-22.1c0.2-2.4-1-4.6-1.5-6.9c0-2.2,1.1-4.2,1.8-6.3c-1.4-1.4-3.9-2.4-3.8-4.7c0.8-2.3,2.4-4.4,2-6.9
		c-1.4-18.3-1.5-36.7-0.2-55c1.1-15.8-0.2-31.6-3.5-47c-3.1-17.5-8.9-34.4-11-52c-1.5-15.8-4.2-31.8-10.8-46.4
		C244.1,258.9,247.8,272.3,249.2,286.1z"/>
</g>
<g id="_x23_02ae43ff">
	<path class="st1" d="M156.1,5.6c11.6-0.8,23.5,0.5,34.4,4.5c12.2,6.6,19.9,19.3,23.4,32.4c-16.6-5.4-34.9-6-51.7-1
		c0.7-9.5,1.3-19.2-1.4-28.5C160.2,10.1,158.1,7.8,156.1,5.6z"/>
	<path class="st1" d="M102.7,38.7c4.8-9.6,12.3-18.1,22-22.9c-4.2,3.4-7.9,7.4-10.9,12c-8.9,13.8-11.1,30.8-10.1,46.8l0,0.2
		c-3.8,4-6.2,9-8,14.1C94,72.1,94.7,54.1,102.7,38.7z"/>
	<path class="st1" d="M110.7,168.4c1.8-5.1,3.7-11,9.2-13.1c16.7,9.9,33.8,19.3,50.5,29.3c0.3,7.5,0.6,15,1.1,22.4
		c-0.1,1.3,1.7,1.5,2.4,2.2c2,10.9,3.5,21.8,5.2,32.7c2.3,17.3,5,34.6,5.7,52c-0.2,30.2,3.2,60.2,6.6,90.2c1,7.7,1.9,15.4,4,22.9
		c2.7,9.1,4.1,18.5,4.2,27.9c0.1,5-1.1,10-1.3,15c-0.1,3.7,0.1,7.4,0.1,11.1c-15.1,0.1-30.3,0.7-45.5,0.2c-11-0.2-22,0.4-32.9-0.6
		c-8.6-0.7-17.2-0.6-25.7,0.3c1.5-11.6,3.5-23.4,1.7-35c-0.7-5.4-3.1-10.5-6.3-14.8c-2.3-3.1-5.3-5.7-6.9-9.2
		c-0.7-3.1,2.2-5.1,3.8-7.3c5-5.7,8.5-14.1,5.2-21.4c-1.4-4.2-5-8.4-3.7-12.9c4.8-5,12.1-8.7,13.5-16.1c0.9-12.5,4.3-24.6,4.5-37.2
		c0.2-5.1-1.6-10-2-15.1c-0.6-6.3,0.2-12.7,0.9-19c0.2-3.3,2.2-6.5,1.5-9.9c-1.8-5.2-6-9-9.7-12.9c-10.6-9.9-22.1-18.9-34.3-26.8
		c-4-2.3-8.4-5.8-13.3-3.9c-10.4,4.3-19.1,11.7-27.5,18.9c11.1-18.8,27.3-35.3,47.7-43.8c7.5-3.2,15.6-4,23.5-6
		c4.5,7.6,11.9,12.9,19.5,17.2c5,2.8,3.1,10.4,7.7,13.5c4.4,0.9,8.9-0.5,12.8-2.3c1.4-0.9,3.9-1.7,2.8-3.8
		c-3.9-1.8-8.3-0.8-12.3-1.8c-2.2-0.8-2-3.5-2.6-5.4c-0.6-3.8-3-6.8-5.2-9.8c-3.3-4.4-7-8.4-10.3-12.8
		C108.9,179.2,108.9,173.4,110.7,168.4 M158.4,438.7c0.8-0.2,2.4-0.5,3.2-0.6c-0.9,1.3-1.8,2.6-2.7,3.9c0.7,0,2,0.1,2.7,0.1
		c0-1.7,0.1-3.5,0.1-5.2C160.6,437.3,159.5,438,158.4,438.7 M163.1,441.9c1.7,0,3.1-0.7,3.9-2.3c1.1-1.3,1.3,1.5,1.6,2.1
		c0.2,0,0.7,0.1,0.9,0.2c0-1.6-0.1-3.3-0.1-5c-1.3,0.6-2.6,1.2-3.9,1.7l0-2C162.7,437.1,163.3,439.9,163.1,441.9 M171.3,437.4
		c-0.2,1.9-0.2,3.9,1.2,5.4c0.5-0.5,1.5-1.5,2.1-2c-0.6,0.2-1.9,0.6-2.6,0.8l0-1.7c0.8,0.2,2.3,0.6,3,0.8c-1-0.8-2.1-1.5-3.1-2.2
		c0.6-0.3,1.8-1,2.4-1.3C173.6,437.2,172.1,437.3,171.3,437.4 M130.9,438.5c0,1.3,0,2.7,0.1,4c0.4-1,1.3-2.9,1.8-3.9
		c0.2,1,0.5,3,0.7,4c0.3-1,0.8-2.9,1-3.9c0.5,1.2,1,2.4,1.5,3.6c0-1.3-0.1-2.6-0.1-3.9C134.2,438.5,132.6,438.5,130.9,438.5
		 M138.5,437.4c0.1,0.7,0.3,2,0.4,2.7c-0.5,0.2-1.5,0.6-2,0.8c0.9,1.2,2.7,0.4,3.9,0.6C140,440.2,139.3,438.8,138.5,437.4
		 M142.4,438.5c-0.6,0.4-1.7,1.2-2.2,1.6c1.3,1.3,3,2.2,4.7,3c-0.1-0.6-0.3-1.9-0.4-2.6l1.6-0.1c-0.5,2,1.4,1.7,2.4,2
		c0.1-0.9,0.2-2.5,0.3-3.4c-0.4-0.2-1.3-0.5-1.7-0.7c-0.6,0.5-1.7,1.5-2.3,2l-0.1-1.8C144.1,438.5,143,438.5,142.4,438.5
		 M111.4,442.5c-0.8,0-2.4-0.1-3.2-0.1c0.4-0.5,1.3-1.6,1.7-2.1c-0.6-0.1-1.7-0.2-2.3-0.2c-0.1,0.9-0.3,2.7-0.4,3.6
		c-0.7-1.3-1.4-2.6-2.1-3.9c0.3,1.6,0.6,3.2,0.8,4.8c2.7,0,5.3,0,8,0c0,0.2,0,0.6-0.1,0.8c-0.7,0-2,0.1-2.6,0.1l-0.2,0.7
		c0.3,3.1,2.1,5.8,3.3,8.7c0.1-1.9,0.2-3.9,0.4-5.8c0.4,2.4,0.4,4.9,0.9,7.3c0.2-3.6,0-7.3,0-10.9l-1.6,0.4c0.4-2.1,0.9-4.2,1.7-6.1
		c-1,1.2-2,2.4-3,3.5c-0.1-1.1-0.2-3.3-0.2-4.4C111.5,439.9,111.3,441.1,111.4,442.5 M142.6,443.3
		C143.3,443.8,143.3,443.8,142.6,443.3 M128.6,452.9c-0.2,1.5,1.3,2.2,2.1,3.2c-0.7-4.1-0.2-8.2-1.3-12.2
		C128,446.6,128.6,449.9,128.6,452.9 M132.4,444.4c-0.1,3.4-0.3,6.7,0.1,10.1c0.6,0.3,1.9,1,2.5,1.4c-1.5-3.5-1.1-7.3-1.1-10.9
		C133.5,444.7,132.8,444.5,132.4,444.4 M118.9,455.6c1.1-0.8,1.9-1.8,2.4-3c1.2,0,2.3-0.1,3.5-0.1c0.3,1.5,1.1,2.4,2.5,2.5
		c-1-3.9-2.4-7.7-4.3-11.2C121.1,447.5,119.6,451.5,118.9,455.6 M105.5,445.1c0.3,3.2,0.2,6.4,0.4,9.6c1.4-2.8,3.1-5.5,3.9-8.5
		C108.4,445.5,107,445.1,105.5,445.1 M145.6,448.3c-0.5,0-1.4-0.1-1.9-0.2c-0.2,0.5-0.6,1.5-0.9,2c-1.7-2.1-6-3.4-7,0
		c-1.9,4,4.1,7.3,6.7,3.9c-2.1-0.1-4.7,0.3-5.7-2.1c2,0.1,4.2-0.8,6,0.2c0.5,1.2,0.9,2.5,1.2,3.8c2.1-2.1,0.5-5.5,2.6-7.7
		c1.9,1.1,2.2,3.2,2.3,5.2c-0.2,1.8,2.3,2.5,3.5,1.5c-3.3-1-2.8-5.9,0-7.1c-0.4,0-1.3,0-1.7,0C150.4,444.3,147.3,447.7,145.6,448.3
		 M171.1,447.9c-1.4,0.4-1.4,1.9-1.7,3c1.6,0.8,3.4,1.5,4.2,3.2c-1.6-0.1-3.1-0.3-4.7-0.4c1,2,3.3,1.9,5,1c0.8,0.4,1.5,0.8,2.3,1.2
		c0.7-0.5,1.4-0.9,2-1.3c1.1,0.8,2.1,0.7,3.2-0.3c0.4,0.3,1.3,0.9,1.7,1.2c0.4-0.2,1.2-0.7,1.6-0.9c0-0.6,0-1.7,0-2.2
		c-2.7,0.2-5.8-0.5-8.1,1.4c-1.4,0.8-2-1-2.8-1.7c-1.2-0.9-2.5-1.7-3.3-3.1c1.5,0.1,3,0.2,4.5,0.3
		C173.9,448.5,172.5,447.2,171.1,447.9 M158.4,450c0.2,2.4-0.7,4.7-3.5,3.7c-0.5-1.6-1-3.2-1.9-4.7c0,1-0.1,3-0.1,3.9
		c1,3.7,7.3,3,7-1c0.8-3.4-3.2-5-5.9-4C155.4,448.8,156.9,449.4,158.4,450 M161.3,448.2c0.1,2.5,0.1,5,0.2,7.4
		c0.4-0.1,1.1-0.3,1.5-0.4c0-1.9-0.1-3.8-0.1-5.6c0.8-0.1,2.5-0.2,3.4-0.2c0.1,2.2,0.2,4.5,0.5,6.8c2-1.9,1.4-5,0.7-7.3
		C165.6,447.4,163.2,448.4,161.3,448.2 M107,456.4c2.8,0.1,5.7,0,8.5,0c-0.8-0.3-2.5-1-3.4-1.3c-0.6-1.5-1.1-2.9-1.7-4.4
		C109.3,452.6,108.2,454.5,107,456.4 M185.6,452.3l-0.2,1.4c0.7-0.2,2-0.5,2.6-0.6c0.1,0.6,0.4,1.7,0.5,2.3c0.1-0.6,0.2-1.8,0.3-2.4
		l0.8,0c0.2,0.6,0.5,1.9,0.6,2.5c0.2-1.1,0.5-2.1,0.7-3.2C189.2,452.3,187.4,452.3,185.6,452.3z"/>
	<path class="st1" d="M179.4,188c-0.1-4.3,4.1-6.8,6.4-10c0.2,7.9-0.3,15.9,0.5,23.7c10.6,6.4,21.8,12,31.8,19.3
		c6.6,4.8,14.2,9.8,16.8,18.1c12.6,32.6,16.1,68.6,9.9,102.9c-1.1,7-2.8,13.8-3.5,20.8c-1.3,15-2.7,30-4.1,45
		c-0.9,10.6-2.6,21.3-1.4,32c0.3,5.6,0.2,12.4-4.2,16.5c-9.4,4.8-20.3,5.1-30.7,4.8c-0.3-6.2-0.3-12.5,0.5-18.7
		c2-13.8-1.4-27.5-4.9-40.8c-2.8-14.4-3.8-29.2-5.6-43.8c-1.4-13.6-2.6-27.3-3.3-41c-0.7-12.3,0.1-24.7-1.4-36.9
		c-2.5-23.9-5.9-47.7-9.9-71.4c0.5-0.4,1.6-1.1,2.1-1.5C178.6,200.8,179,194.4,179.4,188z"/>
	<path class="st1" d="M164.3,438.4c1.3,0.3,1.6,1,0.7,2.2C163.7,440.5,163.5,439.7,164.3,438.4z"/>
	<path class="st1" d="M142.2,439.9C145.2,438.2,142.4,443.2,142.2,439.9z"/>
	<path class="st1" d="M122.3,448.5c1.5-1.2,2.9,1.5,1.5,2.5C122.3,452.2,120.8,449.4,122.3,448.5z"/>
	<path class="st1" d="M137.7,450c0.9-1.4,1.8-1.4,2.8,0C139.5,451.4,138.6,451.4,137.7,450z"/>
	<path class="st1" d="M179,453.3C182.1,451.6,179.2,456.5,179,453.3z"/>
	<path class="st1" d="M182.4,453.3C185.4,451.9,182.4,456.7,182.4,453.3z"/>
</g>
<g id="_x23_f25280ff">
	<path class="st2" d="M124.6,15.8c9.4-6,20.6-8.5,31.5-10.2c2,2.1,4.1,4.4,4.8,7.4c2.6,9.3,2.1,19,1.4,28.5
		c-7.4,2.2-14.7,5.1-20.9,9.8c-4.3,3.3-9.6,4.6-14.5,6.6c-8.7,4.1-16.5,9.9-23.3,16.7c-1-16.1,1.2-33.1,10.1-46.8
		C116.7,23.2,120.4,19.2,124.6,15.8z"/>
	<path class="st2" d="M190.6,10.2c13.3,4,25.1,13.4,31.5,25.8c2.2,4.3,3.8,8.9,5,13.7c-3.9-3.1-8.4-5.3-13.1-7.1
		C210.4,29.4,202.8,16.8,190.6,10.2z"/>
	<path class="st2" d="M145.3,50.9c18.1-10.7,40.4-13.2,60.7-8.5c7,1.7,14,4.3,19.5,9c8.4,7.5,10.5,21.9,2.9,30.6
		c-0.1-7.6-4.7-14.3-10.4-19.1c-12.9-11-30.4-15.4-47.1-15C162.3,47.8,153.8,49.5,145.3,50.9z"/>
	<path class="st2" d="M40.5,227.4c3.4-2.1,6.7-4.4,10.6-5.5c2-0.7,3.9,0.6,5.6,1.5c8.7,5.1,16.7,11.1,24.6,17.3
		c7.1,5.9,14.4,11.7,20,19.1c1.2,1.8,2.8,3.8,2.1,6.1c-1.1,4.6-2.2,9.2-2.2,14c0,6.9-0.6,14,1.3,20.8c1.8,8.3-0.5,16.8-1.5,25
		c-1.2,6.4-1.4,13-2.8,19.3c-2.2,6.9-10.4,9.1-13.3,15.4c-1,7.7,6.7,13.7,5.3,21.4c-1,6.1-5.1,10.8-8.8,15.4c-2.4,2.8-1.4,7,0.9,9.5
		c4.9,6,10.4,12.2,11.2,20.2c2.4,13.3-1.9,26.6-1.7,39.8c-0.1,5.4,5.5,8.7,5.5,14c0.4,5.7-0.2,11.6,1.3,17.2
		c2.9,11.2,4.4,22.7,6,34.2c-12.8-0.7-24.9,4.4-36.6,9.1c-0.1-5.5,0.6-11-0.4-16.4c-1.4-5.3-5.1-9.7-8.9-13.6
		c-3.2-3.5-7.7-5.9-9.8-10.3C45,493.6,42.5,485.3,38,478c-3-5.1-8.2-8.6-10.6-14.1c-5.3-11.6-5.5-24.5-8-36.8
		c-1.4-6.9-4.5-13.1-7-19.6c-1.5-3.3-0.6-7-0.7-10.4c-0.1-5.4-0.8-10.8-0.5-16.1c0.5-7.1-1.1-14.1-2.5-21c-1-5-3.3-9.8-3.2-14.9
		c0.2-11.4,2.1-22.7,3.1-34.1c0.2-17.7-0.1-35.6,4.2-52.9c0.9-4.8,3.9-8.8,6.9-12.4C25.4,238.3,32.8,232.5,40.5,227.4z"/>
	<path class="st2" d="M249.2,286.1c-1.3-13.8-5.1-27.2-8.9-40.5c6.5,14.6,9.3,30.6,10.8,46.4c2.1,17.6,7.9,34.5,11,52
		c3.3,15.4,4.6,31.3,3.5,47c-1.3,18.3-1.1,36.7,0.2,55c0.5,2.5-1.1,4.7-2,6.9c-0.1,2.3,2.3,3.3,3.8,4.7c-0.7,2-1.8,4.1-1.8,6.3
		c0.5,2.3,1.7,4.5,1.5,6.9c-0.2,7.4-0.5,14.7,0,22.1c0.9,8.3,3.8,16.3,5.6,24.5c-8.5-1.4-18.4-3-25.3,3.3c-1.9-5.5-4.6-10.9-5-16.7
		c-0.4-5.1-2.6-9.9-3.1-15c-0.6-4.4,0.6-8.7,0-13.1c-0.7-6-1.8-12-3-18c-0.5-2.1,0.9-4,1.3-6c1.5-4.5,0.9-9.4,0.6-14
		c-1.1-11.8,1.2-23.5,1.9-35.2c2-17.8,2.4-35.8,6.2-53.4C250.5,328.7,251.8,307.2,249.2,286.1z"/>
</g>
</svg>
