<?xml version="1.0" encoding="UTF-8" ?>
<!DOCTYPE svg PUBLIC "-//W3C//DTD SVG 1.1//EN" "http://www.w3.org/Graphics/SVG/1.1/DTD/svg11.dtd">
<svg width="279pt" height="547pt" viewBox="0 0 279 547" version="1.1" xmlns="http://www.w3.org/2000/svg">
<g id="#ffffffff">
<path fill="#ffffff" opacity="1.00" d=" M 0.00 0.00 L 279.00 0.00 L 279.00 547.00 L 0.00 547.00 L 0.00 0.00 M 123.19 14.20 C 110.50 21.47 100.97 33.83 96.80 47.81 C 90.77 66.45 92.17 86.64 96.77 105.42 C 99.65 108.84 101.11 113.32 104.73 116.11 C 103.36 120.66 101.84 125.25 99.32 129.31 C 97.69 132.11 93.86 133.34 93.34 136.81 C 92.51 141.51 92.93 146.63 95.32 150.85 C 96.30 152.63 97.39 154.89 96.06 156.80 C 94.10 159.61 91.64 162.07 90.04 165.13 C 85.80 171.80 88.90 180.13 91.60 186.81 C 77.54 188.23 63.83 193.00 52.33 201.29 C 34.10 214.30 20.46 233.01 11.35 253.31 C 6.15 271.35 6.30 290.34 6.23 308.96 C 5.25 321.32 2.95 333.59 2.99 346.02 C 2.83 350.14 4.60 353.93 5.57 357.85 C 7.14 364.12 8.55 370.49 8.72 376.97 C 8.48 386.01 9.02 395.04 8.96 404.08 C 10.44 411.98 15.07 418.92 16.60 426.84 C 18.90 439.49 19.35 452.77 24.77 464.64 C 27.27 470.27 32.66 473.84 35.61 479.19 C 39.24 485.47 41.81 492.29 44.93 498.82 C 46.44 502.26 48.40 505.56 51.32 507.98 C 56.50 512.30 61.54 517.16 64.38 523.38 C 66.72 529.33 64.76 535.79 65.54 541.95 C 65.74 542.94 66.57 544.82 67.89 544.04 C 80.41 539.50 93.32 533.01 107.02 535.07 C 105.83 521.65 103.52 508.31 100.47 495.18 C 98.84 488.57 101.07 481.31 98.05 475.03 C 95.71 471.64 93.39 467.91 94.02 463.58 C 101.69 462.89 109.38 462.67 117.07 463.24 C 129.34 464.47 141.69 463.58 154.00 463.98 C 169.31 464.53 184.64 463.61 199.95 464.05 C 206.33 463.79 212.78 464.40 219.09 463.12 C 224.29 462.00 229.91 461.15 234.11 457.61 C 235.62 465.28 237.13 473.02 237.29 480.86 C 236.20 488.02 238.29 495.01 239.86 501.91 C 240.11 508.85 242.64 515.40 245.24 521.76 C 245.61 523.10 246.71 523.94 247.78 524.74 C 250.71 521.65 254.60 519.30 258.94 519.13 C 264.04 518.46 268.99 520.52 274.06 520.26 C 274.42 519.93 275.12 519.27 275.47 518.95 C 274.09 509.54 269.94 500.56 269.55 490.94 C 269.39 483.98 269.56 477.02 269.84 470.07 C 270.10 467.92 268.89 466.04 268.40 464.04 C 268.83 461.97 269.81 460.09 270.32 458.05 C 270.23 455.67 268.01 454.57 266.39 453.28 C 267.33 451.28 268.94 449.34 268.60 446.99 C 267.29 431.02 267.04 414.98 267.74 398.98 C 268.55 387.03 269.19 374.99 267.79 363.06 C 266.98 353.54 264.93 344.20 263.11 334.85 C 259.91 320.30 255.51 305.96 253.90 291.11 C 252.37 274.49 249.08 257.81 242.26 242.50 C 240.07 238.22 237.88 233.29 233.34 231.05 C 226.73 223.99 218.59 218.67 210.52 213.46 C 203.39 209.01 196.15 204.71 188.67 200.89 C 188.46 192.61 188.56 184.34 188.35 176.06 C 188.55 174.91 187.45 172.58 186.23 174.22 C 183.17 177.48 180.16 180.85 177.49 184.43 C 176.59 191.58 176.81 198.84 176.01 206.01 C 175.50 206.03 174.48 206.09 173.97 206.12 C 173.27 198.78 173.29 191.38 172.64 184.03 C 172.69 182.73 171.29 182.26 170.42 181.65 C 155.12 172.91 139.84 164.14 124.58 155.35 C 122.40 154.21 119.95 152.00 117.44 153.70 C 111.65 157.01 109.67 163.91 107.89 169.90 C 106.48 173.95 106.76 178.67 103.84 182.09 C 99.37 175.29 100.61 166.73 100.08 159.02 C 100.32 151.59 98.02 144.30 98.67 136.88 C 103.78 139.18 107.33 143.93 112.65 145.86 C 110.01 134.14 113.16 122.10 117.24 111.10 C 119.07 105.74 123.40 101.56 124.60 95.95 C 126.26 88.58 125.68 80.97 125.18 73.50 C 138.79 68.15 153.39 65.44 167.98 64.99 C 181.69 64.65 196.39 67.07 207.07 76.34 C 208.10 79.44 208.87 82.66 208.69 85.95 C 208.04 104.26 207.31 122.56 206.19 140.84 C 205.96 142.28 206.22 144.00 205.18 145.17 C 201.87 148.81 197.76 151.67 194.65 155.49 C 192.84 157.24 194.76 159.57 195.73 161.24 C 196.99 163.17 199.38 165.63 201.83 164.03 C 206.59 161.36 211.43 157.76 213.54 152.55 C 213.92 149.41 211.84 146.52 211.69 143.38 C 210.30 130.05 211.81 116.64 213.22 103.37 C 218.32 99.15 223.47 94.72 226.97 89.02 C 229.39 85.48 232.67 82.52 234.58 78.64 C 236.73 72.03 236.74 64.48 233.79 58.10 C 232.72 55.69 230.72 53.71 230.20 51.06 C 228.54 43.30 225.39 35.83 220.83 29.32 C 212.24 17.08 198.49 9.09 184.01 5.98 C 163.66 0.91 141.36 3.59 123.19 14.20 Z" />
<path fill="#ffffff" opacity="1.00" d=" M 102.24 84.30 C 105.11 82.41 108.72 81.31 112.14 82.09 C 115.68 83.03 117.48 87.67 115.73 90.82 C 111.88 98.89 107.86 106.89 104.61 115.22 C 102.18 109.00 99.73 102.64 99.15 95.93 C 99.43 91.94 100.17 87.77 102.24 84.30 Z" />
<path fill="#ffffff" opacity="1.00" d=" M 120.16 170.26 C 131.11 175.59 142.00 181.04 152.80 186.67 C 141.85 181.34 130.91 175.99 120.16 170.26 Z" />
</g>
<g id="#000000ff">
<path fill="#000000" opacity="1.00" d=" M 123.19 14.20 C 141.36 3.59 163.66 0.91 184.01 5.98 C 198.49 9.09 212.24 17.08 220.83 29.32 C 225.39 35.83 228.54 43.30 230.20 51.06 C 230.72 53.71 232.72 55.69 233.79 58.10 C 236.74 64.48 236.73 72.03 234.58 78.64 C 232.67 82.52 229.39 85.48 226.97 89.02 C 223.47 94.72 218.32 99.15 213.22 103.37 C 211.81 116.64 210.30 130.05 211.69 143.38 C 211.84 146.52 213.92 149.41 213.54 152.55 C 211.43 157.76 206.59 161.36 201.83 164.03 C 199.38 165.63 196.99 163.17 195.73 161.24 C 194.76 159.57 192.84 157.24 194.65 155.49 C 197.76 151.67 201.87 148.81 205.18 145.17 C 206.22 144.00 205.96 142.28 206.19 140.84 C 207.31 122.56 208.04 104.26 208.69 85.95 C 208.87 82.66 208.10 79.44 207.07 76.34 C 196.39 67.07 181.69 64.65 167.98 64.99 C 153.39 65.44 138.79 68.15 125.18 73.50 C 125.68 80.97 126.26 88.58 124.60 95.95 C 123.40 101.56 119.07 105.74 117.24 111.10 C 113.16 122.10 110.01 134.14 112.65 145.86 C 107.33 143.93 103.78 139.18 98.67 136.88 C 98.02 144.30 100.32 151.59 100.08 159.02 C 100.61 166.73 99.37 175.29 103.84 182.09 C 106.76 178.67 106.48 173.95 107.89 169.90 C 109.67 163.91 111.65 157.01 117.44 153.70 C 119.95 152.00 122.40 154.21 124.58 155.35 C 139.84 164.14 155.12 172.91 170.42 181.65 C 171.29 182.26 172.69 182.73 172.64 184.03 C 173.29 191.38 173.27 198.78 173.97 206.12 C 174.48 206.09 175.50 206.03 176.01 206.01 C 176.81 198.84 176.59 191.58 177.49 184.43 C 180.16 180.85 183.17 177.48 186.23 174.22 C 187.45 172.58 188.55 174.91 188.35 176.06 C 188.56 184.34 188.46 192.61 188.67 200.89 C 196.15 204.71 203.39 209.01 210.52 213.46 C 218.59 218.67 226.73 223.99 233.34 231.05 C 237.88 233.29 240.07 238.22 242.26 242.50 C 249.08 257.81 252.37 274.49 253.90 291.11 C 255.51 305.96 259.91 320.30 263.11 334.85 C 264.93 344.20 266.98 353.54 267.79 363.06 C 269.19 374.99 268.55 387.03 267.74 398.98 C 267.04 414.98 267.29 431.02 268.60 446.99 C 268.94 449.34 267.33 451.28 266.39 453.28 C 268.01 454.57 270.23 455.67 270.32 458.05 C 269.81 460.09 268.83 461.97 268.40 464.04 C 268.89 466.04 270.10 467.92 269.84 470.07 C 269.56 477.02 269.39 483.98 269.55 490.94 C 269.94 500.56 274.09 509.54 275.47 518.95 C 275.12 519.27 274.42 519.93 274.06 520.26 C 268.99 520.52 264.04 518.46 258.94 519.13 C 254.60 519.30 250.71 521.65 247.78 524.74 C 246.71 523.94 245.61 523.10 245.24 521.76 C 242.64 515.40 240.11 508.85 239.86 501.91 C 238.29 495.01 236.20 488.02 237.29 480.86 C 237.13 473.02 235.62 465.28 234.11 457.61 C 229.91 461.15 224.29 462.00 219.09 463.12 C 212.78 464.40 206.33 463.79 199.95 464.05 C 184.64 463.61 169.31 464.53 154.00 463.98 C 141.69 463.58 129.34 464.47 117.07 463.24 C 109.38 462.67 101.69 462.89 94.02 463.58 C 93.39 467.91 95.71 471.64 98.05 475.03 C 101.07 481.31 98.84 488.57 100.47 495.18 C 103.52 508.31 105.83 521.65 107.02 535.07 C 93.32 533.01 80.41 539.50 67.89 544.04 C 66.57 544.82 65.74 542.94 65.54 541.95 C 64.76 535.79 66.72 529.33 64.38 523.38 C 61.54 517.16 56.50 512.30 51.32 507.98 C 48.40 505.56 46.44 502.26 44.93 498.82 C 41.81 492.29 39.24 485.47 35.61 479.19 C 32.66 473.84 27.27 470.27 24.77 464.64 C 19.35 452.77 18.90 439.49 16.60 426.84 C 15.07 418.92 10.44 411.98 8.96 404.08 C 9.02 395.04 8.48 386.01 8.72 376.97 C 8.55 370.49 7.14 364.12 5.57 357.85 C 4.60 353.93 2.83 350.14 2.99 346.02 C 2.95 333.59 5.25 321.32 6.23 308.96 C 6.30 290.34 6.15 271.35 11.35 253.31 C 20.46 233.01 34.10 214.30 52.33 201.29 C 63.83 193.00 77.54 188.23 91.60 186.81 C 88.90 180.13 85.80 171.80 90.04 165.13 C 91.64 162.07 94.10 159.61 96.06 156.80 C 97.39 154.89 96.30 152.63 95.32 150.85 C 92.93 146.63 92.51 141.51 93.34 136.81 C 93.86 133.34 97.69 132.11 99.32 129.31 C 101.84 125.25 103.36 120.66 104.73 116.11 C 101.11 113.32 99.65 108.84 96.77 105.42 C 92.17 86.64 90.77 66.45 96.80 47.81 C 100.97 33.83 110.50 21.47 123.19 14.20 M 130.59 12.51 L 130.34 12.87 C 120.42 16.85 111.85 24.10 105.96 33.00 C 95.22 49.47 93.75 69.98 95.70 89.05 C 99.18 76.20 110.36 67.54 121.21 60.91 C 126.66 57.33 133.21 56.14 138.85 52.98 C 156.88 39.72 180.76 35.53 202.56 39.67 C 211.26 41.31 220.01 44.09 227.03 49.68 C 224.25 37.42 217.41 25.98 207.17 18.54 C 193.62 8.73 176.43 5.26 159.96 5.37 C 149.87 6.09 139.89 8.53 130.59 12.51 M 145.56 50.94 C 166.78 46.41 190.37 46.00 209.70 57.18 C 218.81 62.47 228.23 70.72 228.39 82.11 C 236.90 72.42 233.36 55.81 222.61 49.24 C 212.06 42.56 199.28 40.46 186.99 40.16 C 172.62 40.17 157.86 43.29 145.56 50.94 M 102.24 84.30 C 100.17 87.77 99.43 91.94 99.15 95.93 C 99.73 102.64 102.18 109.00 104.61 115.22 C 107.86 106.89 111.88 98.89 115.73 90.82 C 117.48 87.67 115.68 83.03 112.14 82.09 C 108.72 81.31 105.11 82.41 102.24 84.30 M 110.91 167.85 C 108.92 173.14 109.06 179.23 105.40 183.82 C 109.15 188.01 112.73 192.34 116.12 196.82 C 118.10 199.60 120.39 202.42 120.86 205.91 C 121.33 207.68 121.09 210.06 122.94 211.11 C 127.13 213.19 133.70 210.01 136.46 214.75 C 133.75 216.71 130.67 218.01 127.51 219.05 C 124.84 219.22 121.74 220.34 119.32 218.74 C 115.56 214.96 117.12 207.64 111.63 205.30 C 104.09 201.24 97.44 195.59 92.57 188.51 C 89.79 189.35 86.96 190.04 84.09 190.51 C 75.44 191.81 67.26 195.18 59.64 199.39 C 43.85 208.77 31.11 222.72 21.75 238.42 C 29.99 230.92 38.97 224.15 49.03 219.28 C 52.23 218.33 55.45 219.09 58.30 220.67 C 73.28 229.89 87.37 240.69 99.84 253.11 C 102.83 256.80 107.38 260.62 106.71 265.84 C 104.47 274.03 103.92 282.61 104.24 291.07 C 104.30 296.46 106.56 301.57 106.28 306.97 C 106.07 317.36 103.83 327.55 102.41 337.81 C 101.88 341.07 102.33 344.62 100.62 347.59 C 98.60 351.45 95.26 354.38 91.82 356.95 L 91.89 357.04 C 90.28 358.43 87.58 359.53 87.72 362.07 C 88.44 368.06 93.14 372.89 93.15 379.04 C 93.35 382.27 92.11 385.31 91.10 388.32 C 88.98 392.33 85.70 395.50 83.19 399.23 C 81.65 402.59 85.32 405.25 87.11 407.63 C 90.90 412.45 94.51 417.70 95.68 423.84 C 98.00 436.16 96.04 448.74 94.27 461.00 C 102.86 460.08 111.54 459.99 120.15 460.68 C 131.75 461.77 143.41 460.99 155.03 461.30 C 169.50 461.86 183.97 461.14 198.44 461.11 C 198.34 454.36 198.04 447.57 199.28 440.90 C 199.35 440.21 199.49 438.83 199.56 438.15 C 200.08 425.59 197.34 413.20 193.83 401.22 C 188.94 370.27 186.33 338.98 184.59 307.71 C 185.08 293.39 184.01 279.05 181.90 264.90 C 179.99 246.08 176.78 227.42 173.90 208.74 C 173.31 208.66 172.14 208.49 171.55 208.41 C 171.03 200.46 170.61 192.50 170.31 184.53 C 153.58 174.62 136.58 165.16 119.78 155.34 C 114.52 157.31 112.62 163.03 110.91 167.85 M 179.63 185.43 C 178.86 192.63 178.99 199.92 178.18 207.12 C 177.71 207.54 176.79 208.38 176.32 208.81 C 177.32 214.70 178.23 220.62 179.21 226.52 L 179.35 226.14 C 180.31 235.69 181.94 245.21 183.38 254.72 L 183.43 254.07 C 184.10 264.74 186.07 275.34 186.67 286.05 C 187.59 294.45 186.80 302.91 187.40 311.32 C 188.27 337.03 191.22 362.64 194.29 388.17 C 195.22 394.95 195.89 401.85 198.25 408.33 C 200.43 418.53 202.50 428.91 201.75 439.41 C 201.65 440.12 201.46 441.56 201.37 442.28 C 200.82 446.03 200.49 449.82 200.65 453.62 C 200.66 454.95 200.68 456.29 200.71 457.63 C 200.77 458.98 200.84 460.34 200.93 461.71 L 201.34 461.03 C 208.99 461.60 216.80 461.31 224.19 459.10 C 227.71 458.18 232.11 457.37 233.71 453.62 C 237.17 446.89 235.36 439.17 235.32 431.97 C 235.48 424.86 236.26 417.77 236.87 410.69 C 238.22 396.63 239.45 382.56 240.74 368.49 L 240.72 368.35 C 241.15 361.36 242.43 354.48 243.62 347.60 L 243.80 347.36 C 250.57 313.72 248.70 278.08 237.03 245.73 C 235.54 240.85 234.01 235.80 230.85 231.70 C 222.38 223.07 211.93 216.79 201.67 210.56 C 197.56 208.17 193.42 205.85 189.21 203.66 C 188.57 203.32 187.30 202.65 186.67 202.32 C 186.47 202.02 186.07 201.42 185.88 201.12 C 185.95 193.39 185.66 185.67 185.76 177.94 C 183.71 180.43 181.27 182.64 179.63 185.43 M 46.67 223.70 C 38.51 228.18 30.95 233.79 24.31 240.32 C 20.12 244.89 15.74 249.60 13.46 255.46 C 12.16 260.33 11.15 265.28 10.41 270.27 C 8.97 281.55 8.64 292.94 8.64 304.30 C 8.76 319.10 4.97 333.67 5.56 348.50 C 8.08 357.19 10.36 366.01 11.14 375.06 C 11.40 378.94 10.91 382.84 11.30 386.72 C 11.09 390.79 11.89 394.85 11.63 398.93 C 11.48 401.81 11.11 404.82 12.36 407.52 C 15.45 415.29 19.21 422.96 20.11 431.38 L 20.26 431.40 C 21.99 443.13 22.92 455.38 28.42 466.11 C 32.27 471.36 37.32 475.70 40.17 481.67 C 40.92 483.29 41.69 484.93 42.50 486.53 C 45.89 493.82 47.63 502.60 54.41 507.67 C 59.62 512.12 64.66 517.29 67.10 523.83 C 68.71 529.57 67.63 535.60 67.86 541.47 C 79.49 536.78 91.62 531.59 104.43 532.35 C 103.23 523.48 102.01 514.61 100.26 505.83 C 99.24 500.92 97.56 496.10 97.45 491.04 C 97.15 486.69 97.67 482.25 96.61 477.98 C 95.39 474.80 92.58 472.39 91.92 468.96 C 91.36 465.91 91.58 462.78 91.83 459.71 C 93.15 448.77 95.09 437.66 93.31 426.66 C 92.75 423.09 91.47 419.66 89.52 416.62 C 86.87 412.01 82.61 408.53 80.23 403.78 C 78.13 398.20 84.12 394.81 86.43 390.55 L 86.58 390.47 C 87.03 389.67 87.48 388.87 87.94 388.09 C 90.01 384.11 91.18 379.20 89.13 374.97 C 87.16 370.58 85.03 366.21 84.15 361.43 C 86.00 356.76 90.58 354.34 93.99 350.98 C 96.98 348.59 98.59 344.79 98.83 341.01 C 99.91 329.80 102.38 318.77 103.16 307.52 C 103.28 302.24 101.04 297.29 101.04 292.03 C 100.96 285.81 100.82 279.57 101.60 273.38 L 101.78 273.37 C 101.83 269.45 105.03 265.21 102.32 261.58 C 96.81 253.30 88.81 247.16 81.30 240.81 C 72.78 234.20 64.18 227.55 54.66 222.42 C 52.03 220.83 49.09 222.53 46.67 223.70 M 239.15 242.96 C 242.02 251.25 244.11 259.77 246.54 268.20 C 246.47 270.21 247.06 272.17 247.39 274.15 C 249.45 284.64 250.27 295.33 250.56 306.01 C 250.67 319.66 249.48 333.32 246.84 346.72 C 244.99 356.00 243.20 365.32 242.81 374.80 C 242.44 378.01 242.01 381.21 241.88 384.44 C 241.76 385.75 241.65 387.06 241.52 388.38 C 240.23 401.27 239.19 414.19 237.94 427.09 C 237.53 435.24 239.49 443.37 238.16 451.49 C 237.43 453.17 236.54 454.84 236.22 456.67 C 236.45 459.10 237.14 461.46 237.48 463.89 C 237.91 465.32 237.39 467.61 239.08 468.33 L 239.25 468.76 L 238.86 469.54 C 238.70 473.67 240.08 477.74 239.48 481.89 C 238.85 486.68 239.60 491.50 240.80 496.15 C 241.98 499.50 242.46 503.03 242.78 506.56 C 243.72 511.50 245.84 516.11 247.50 520.83 C 254.43 514.49 264.38 516.07 272.82 517.51 C 270.93 509.02 267.94 500.74 267.15 492.03 C 266.83 484.67 267.03 477.30 267.28 469.95 C 267.48 468.39 266.58 467.04 265.99 465.69 C 265.39 462.89 266.59 460.24 267.63 457.71 C 266.16 456.38 263.68 455.38 263.81 453.04 C 264.41 451.02 266.05 449.26 265.82 447.06 C 265.42 439.29 264.74 431.53 264.74 423.75 C 264.37 411.27 265.07 398.81 265.77 386.36 C 266.44 372.51 265.05 358.61 262.28 345.04 C 259.83 331.59 256.08 318.42 253.12 305.08 C 250.42 292.21 250.59 278.84 246.80 266.21 C 245.31 258.19 242.70 250.31 239.15 242.96 Z" />
</g>
<g id="#f6ec5aff">
<path fill="#f6ec5a" opacity="1.00" d=" M 130.59 12.51 C 139.89 8.53 149.87 6.09 159.96 5.37 C 176.43 5.26 193.62 8.73 207.17 18.54 C 217.41 25.98 224.25 37.42 227.03 49.68 C 220.01 44.09 211.26 41.31 202.56 39.67 C 180.76 35.53 156.88 39.72 138.85 52.98 C 133.21 56.14 126.66 57.33 121.21 60.91 C 117.07 59.04 112.27 56.77 110.87 52.03 C 109.03 45.99 111.90 39.91 114.60 34.62 C 118.68 26.56 125.21 20.20 130.34 12.87 L 130.59 12.51 Z" />
<path fill="#f6ec5a" opacity="1.00" d=" M 145.56 50.94 C 157.86 43.29 172.62 40.17 186.99 40.16 C 199.28 40.46 212.06 42.56 222.61 49.24 C 233.36 55.81 236.90 72.42 228.39 82.11 C 228.23 70.72 218.81 62.47 209.70 57.18 C 190.37 46.00 166.78 46.41 145.56 50.94 Z" />
<path fill="#f6ec5a" opacity="1.00" d=" M 110.91 167.85 C 112.62 163.03 114.52 157.31 119.78 155.34 C 136.58 165.16 153.58 174.62 170.31 184.53 C 170.61 192.50 171.03 200.46 171.55 208.41 C 172.14 208.49 173.31 208.66 173.90 208.74 C 176.78 227.42 179.99 246.08 181.90 264.90 C 181.32 276.49 183.08 288.07 182.33 299.67 C 171.09 268.73 150.02 242.58 127.51 219.05 C 130.67 218.01 133.75 216.71 136.46 214.75 C 133.70 210.01 127.13 213.19 122.94 211.11 C 121.09 210.06 121.33 207.68 120.86 205.91 C 120.39 202.42 118.10 199.60 116.12 196.82 C 112.73 192.34 109.15 188.01 105.40 183.82 C 109.06 179.23 108.92 173.14 110.91 167.85 M 120.16 170.26 C 130.91 175.99 141.85 181.34 152.80 186.67 C 142.00 181.04 131.11 175.59 120.16 170.26 Z" />
<path fill="#f6ec5a" opacity="1.00" d=" M 179.63 185.43 C 181.27 182.64 183.71 180.43 185.76 177.94 C 185.66 185.67 185.95 193.39 185.88 201.12 C 186.07 201.42 186.47 202.02 186.67 202.32 C 184.31 204.12 181.79 205.82 180.01 208.25 C 181.66 212.96 186.44 215.69 189.75 219.20 C 189.25 214.04 189.05 208.84 189.21 203.66 C 193.42 205.85 197.56 208.17 201.67 210.56 C 200.77 224.50 198.15 238.25 195.93 252.03 C 192.81 271.75 189.09 291.41 187.40 311.32 C 186.80 302.91 187.59 294.45 186.67 286.05 C 186.07 275.34 184.10 264.74 183.43 254.07 C 184.16 247.70 183.27 241.32 182.90 234.96 C 182.66 230.77 181.98 226.60 180.61 222.62 C 180.29 223.50 179.66 225.26 179.35 226.14 L 179.21 226.52 C 178.23 220.62 177.32 214.70 176.32 208.81 C 176.79 208.38 177.71 207.54 178.18 207.12 C 178.99 199.92 178.86 192.63 179.63 185.43 Z" />
<path fill="#f6ec5a" opacity="1.00" d=" M 21.75 238.42 C 31.11 222.72 43.85 208.77 59.64 199.39 C 76.52 212.59 91.57 227.97 105.68 244.04 C 103.86 247.14 101.89 250.16 99.84 253.11 C 87.37 240.69 73.28 229.89 58.30 220.67 C 58.37 217.44 57.55 214.29 57.32 211.09 C 57.74 209.18 58.72 207.46 59.50 205.69 C 54.24 208.76 53.42 215.39 49.03 219.28 C 38.97 224.15 29.99 230.92 21.75 238.42 Z" />
<path fill="#f6ec5a" opacity="1.00" d=" M 46.67 223.70 C 49.09 222.53 52.03 220.83 54.66 222.42 C 64.18 227.55 72.78 234.20 81.30 240.81 C 88.81 247.16 96.81 253.30 102.32 261.58 C 105.03 265.21 101.83 269.45 101.78 273.37 L 101.60 273.38 C 78.73 274.56 55.77 275.17 32.90 273.48 C 25.35 272.91 17.80 271.98 10.41 270.27 C 11.15 265.28 12.16 260.33 13.46 255.46 C 15.74 249.60 20.12 244.89 24.31 240.32 C 30.95 233.79 38.51 228.18 46.67 223.70 Z" />
<path fill="#f6ec5a" opacity="1.00" d=" M 230.10 239.82 C 230.54 239.68 231.41 239.39 231.85 239.24 C 233.94 247.34 233.22 255.76 233.89 264.02 C 234.43 271.21 233.63 278.63 235.94 285.59 C 237.75 272.41 237.17 259.00 237.03 245.73 C 248.70 278.08 250.57 313.72 243.80 347.36 L 243.62 347.60 C 238.14 353.12 239.99 361.46 240.72 368.35 L 240.74 368.49 C 234.80 376.10 229.90 384.46 224.39 392.38 C 220.71 398.48 215.82 403.82 212.78 410.30 C 214.46 408.80 216.09 407.23 217.36 405.36 C 222.84 396.93 229.35 389.07 237.14 382.68 C 234.99 401.49 226.85 419.23 226.41 438.28 C 229.25 433.32 229.06 427.41 231.02 422.14 C 232.23 417.98 234.66 414.36 236.87 410.69 C 236.26 417.77 235.48 424.86 235.32 431.97 C 235.36 439.17 237.17 446.89 233.71 453.62 C 232.11 457.37 227.71 458.18 224.19 459.10 C 217.56 459.68 211.16 458.06 204.98 455.86 C 203.46 457.34 202.45 459.24 201.34 461.03 L 200.93 461.71 C 200.84 460.34 200.77 458.98 200.71 457.63 C 203.44 454.75 206.35 451.43 206.52 447.26 C 206.48 443.95 203.90 441.57 201.75 439.41 C 202.50 428.91 200.43 418.53 198.25 408.33 C 203.78 381.14 209.41 353.96 214.75 326.73 C 220.32 297.85 226.30 269.00 230.10 239.82 M 201.95 420.83 C 205.64 426.44 211.01 430.86 213.94 437.00 C 215.23 440.07 214.41 444.32 217.77 446.22 C 219.35 447.44 222.70 448.80 223.83 446.41 C 221.25 444.29 218.19 442.52 216.69 439.39 C 213.66 433.62 209.92 428.24 205.62 423.35 C 204.63 422.20 203.25 421.54 201.95 420.83 Z" />
<path fill="#f6ec5a" opacity="1.00" d=" M 239.15 242.96 C 242.70 250.31 245.31 258.19 246.80 266.21 C 246.73 266.70 246.61 267.70 246.54 268.20 C 244.11 259.77 242.02 251.25 239.15 242.96 Z" />
<path fill="#f6ec5a" opacity="1.00" d=" M 105.20 285.96 C 104.08 275.42 109.91 265.26 118.56 259.52 C 151.43 302.02 177.42 350.02 193.83 401.22 C 197.34 413.20 200.08 425.59 199.56 438.15 C 193.10 435.10 186.74 431.84 180.33 428.70 C 175.57 426.29 170.44 424.24 166.65 420.33 C 158.18 412.05 150.57 402.88 143.86 393.12 C 140.31 388.13 138.08 382.36 134.69 377.28 C 126.15 364.66 113.86 355.09 105.79 342.13 C 104.22 339.38 105.68 336.15 106.36 333.36 C 109.03 325.41 111.37 317.18 111.34 308.73 C 110.17 300.93 106.62 293.70 105.20 285.96 M 131.33 283.36 C 129.77 287.03 130.21 291.14 129.69 295.02 C 129.21 302.31 127.29 309.74 129.28 316.97 C 131.22 324.68 133.86 332.18 136.47 339.68 C 138.66 346.15 142.78 352.06 143.18 359.04 C 143.57 364.08 142.61 369.75 145.74 374.14 C 146.51 375.45 148.77 376.67 149.61 374.75 C 150.67 368.06 147.97 361.53 145.72 355.36 C 141.52 344.83 138.26 333.91 133.30 323.70 C 131.64 320.06 130.71 316.05 130.96 312.04 C 131.93 302.42 134.89 292.58 132.83 282.93 C 132.45 283.04 131.71 283.26 131.33 283.36 Z" />
<path fill="#f6ec5a" opacity="1.00" d=" M 8.64 304.30 C 22.84 307.63 37.47 308.12 51.98 308.58 C 69.05 308.81 86.12 308.49 103.16 307.52 C 102.38 318.77 99.91 329.80 98.83 341.01 C 98.59 344.79 96.98 348.59 93.99 350.98 C 92.97 351.05 90.93 351.19 89.91 351.26 C 91.79 348.20 93.52 345.04 95.04 341.79 C 89.12 344.07 83.75 347.52 77.90 349.94 C 75.75 350.91 73.26 351.04 71.12 349.97 C 62.19 345.98 56.11 338.04 48.91 331.77 C 48.87 339.67 55.12 345.37 57.46 352.54 C 55.04 352.53 52.62 352.53 50.20 352.47 C 48.52 347.22 46.99 341.76 43.70 337.24 C 40.79 333.32 36.37 330.94 32.03 328.92 C 26.05 326.29 19.93 323.80 13.46 322.65 C 13.97 324.53 13.62 327.25 15.81 328.13 C 20.70 330.59 26.23 331.84 30.57 335.35 C 37.31 340.57 43.94 346.04 49.60 352.45 C 34.86 352.32 20.01 351.64 5.56 348.50 C 4.97 333.67 8.76 319.10 8.64 304.30 Z" />
<path fill="#f6ec5a" opacity="1.00" d=" M 250.56 306.01 C 251.41 305.69 252.26 305.38 253.12 305.08 C 256.08 318.42 259.83 331.59 262.28 345.04 C 257.20 346.13 252.03 346.62 246.84 346.72 C 249.48 333.32 250.67 319.66 250.56 306.01 Z" />
<path fill="#f6ec5a" opacity="1.00" d=" M 99.65 357.03 C 99.29 353.74 101.86 349.48 105.60 350.38 C 110.05 352.26 112.98 356.41 116.20 359.83 C 126.30 371.90 135.55 384.67 144.02 397.93 C 146.81 402.00 149.17 406.35 151.09 410.90 C 153.47 416.51 158.77 420.02 163.59 423.38 C 170.92 428.07 178.55 432.45 186.84 435.21 C 191.18 436.64 195.30 438.64 199.28 440.90 C 198.04 447.57 198.34 454.36 198.44 461.11 C 183.97 461.14 169.50 461.86 155.03 461.30 C 143.41 460.99 131.75 461.77 120.15 460.68 C 111.54 459.99 102.86 460.08 94.27 461.00 C 96.04 448.74 98.00 436.16 95.68 423.84 C 94.51 417.70 90.90 412.45 87.11 407.63 C 87.01 404.53 86.69 401.34 87.51 398.31 C 89.00 395.05 92.58 392.29 91.10 388.32 C 92.11 385.31 93.35 382.27 93.15 379.04 C 93.14 372.89 88.44 368.06 87.72 362.07 C 87.58 359.53 90.28 358.43 91.89 357.04 C 96.55 362.74 102.46 367.20 108.03 371.97 C 113.55 376.36 118.97 381.08 125.44 384.06 C 124.65 382.13 123.83 380.15 122.33 378.65 C 116.91 373.03 110.90 367.98 104.49 363.51 C 102.33 361.89 99.56 360.10 99.65 357.03 M 96.02 405.92 C 97.17 410.82 100.20 414.93 102.94 419.05 C 107.00 424.73 110.64 431.06 116.30 435.32 C 115.09 431.38 112.49 428.14 110.21 424.79 C 105.58 418.44 101.40 411.68 96.02 405.92 M 134.59 410.76 C 137.08 413.89 140.52 416.00 143.68 418.38 C 149.30 422.36 154.71 427.02 161.35 429.23 C 158.91 425.72 155.04 423.76 151.63 421.38 C 145.93 417.88 140.84 413.28 134.59 410.76 M 130.01 442.60 C 130.17 440.54 130.11 438.48 129.85 436.43 C 128.24 438.08 128.18 441.08 130.01 442.60 M 151.45 438.31 C 150.57 439.45 151.85 440.84 151.94 442.07 C 153.24 442.08 154.54 442.10 155.84 442.13 C 156.14 441.56 156.75 440.41 157.06 439.84 C 156.63 438.85 156.20 437.86 155.78 436.88 C 154.32 437.23 152.15 436.55 151.45 438.31 M 158.53 438.81 C 159.31 438.60 160.86 438.19 161.64 437.98 C 160.70 439.36 159.74 440.72 158.78 442.08 C 159.49 442.09 160.91 442.10 161.62 442.10 C 161.68 440.34 161.78 438.59 161.83 436.84 C 160.59 437.24 159.29 437.64 158.53 438.81 M 162.53 438.35 C 162.72 439.20 163.11 440.90 163.30 441.75 C 164.01 441.78 165.43 441.84 166.14 441.88 C 166.18 441.01 166.27 439.28 166.31 438.42 C 166.86 438.62 167.95 439.02 168.50 439.22 C 168.25 440.45 168.52 441.50 169.32 442.39 C 169.47 440.68 169.57 438.97 169.69 437.27 C 168.02 438.00 166.12 438.19 164.53 437.13 C 163.86 437.52 163.19 437.93 162.53 438.35 M 171.31 437.11 C 170.76 439.57 170.93 443.54 174.68 442.27 C 173.96 441.63 173.22 441.03 172.48 440.45 C 173.21 439.94 173.93 439.43 174.66 438.92 C 173.86 438.78 172.27 438.49 171.47 438.35 C 172.21 438.19 173.69 437.86 174.43 437.70 C 173.39 437.48 172.35 437.29 171.31 437.11 M 131.01 438.44 C 131.06 439.81 131.10 441.20 131.17 442.59 C 131.57 441.61 132.35 439.65 132.75 438.67 C 132.84 439.54 133.03 441.27 133.12 442.14 L 133.94 442.15 C 133.95 441.45 133.97 440.04 133.99 439.33 L 134.88 439.42 C 135.11 440.19 135.58 441.73 135.81 442.51 C 135.87 441.12 135.92 439.74 135.96 438.37 C 134.31 438.40 132.66 438.41 131.01 438.44 M 137.49 437.70 C 137.87 438.24 138.63 439.30 139.01 439.83 C 138.32 439.65 136.92 439.28 136.22 439.10 C 136.35 439.84 136.61 441.31 136.74 442.05 C 137.76 442.11 139.78 442.23 140.80 442.29 C 140.52 440.14 140.41 437.46 137.49 437.70 M 141.48 442.21 C 142.65 442.39 143.81 442.59 144.98 442.80 C 144.87 442.14 144.66 440.81 144.56 440.15 C 145.78 441.09 146.96 442.31 148.61 442.38 C 148.67 441.53 148.80 439.83 148.86 438.98 C 148.40 438.76 147.48 438.32 147.01 438.09 C 146.23 439.92 145.28 440.00 144.16 438.34 C 141.51 437.85 140.82 440.02 141.48 442.21 M 111.28 442.29 C 110.61 442.31 109.28 442.33 108.61 442.35 C 108.93 441.72 109.57 440.48 109.89 439.85 C 106.99 438.40 107.49 441.62 107.06 443.50 C 106.64 442.53 105.80 440.60 105.38 439.63 C 105.49 441.24 105.69 442.84 105.89 444.45 C 104.44 444.78 104.27 446.71 104.21 447.96 C 104.19 450.64 103.85 453.49 104.76 456.07 C 107.61 458.72 111.82 458.07 115.22 456.92 L 115.20 455.90 L 115.75 455.84 C 115.67 452.44 115.55 449.04 115.84 445.65 C 115.36 444.94 114.87 444.24 114.39 443.54 C 114.75 442.24 115.16 440.98 115.52 439.69 C 114.59 440.84 113.66 441.99 112.74 443.15 C 112.67 442.07 112.52 439.90 112.45 438.81 C 111.53 439.76 111.17 440.96 111.28 442.29 M 142.53 443.24 C 143.05 443.77 143.05 443.77 142.53 443.24 M 128.71 443.99 C 128.48 447.15 128.33 450.35 128.60 453.52 C 128.53 454.86 129.94 455.27 130.90 455.76 C 130.40 452.82 130.18 449.86 130.22 446.89 C 130.65 445.56 129.45 444.78 128.71 443.99 M 132.44 444.71 C 132.12 447.95 132.06 451.26 132.45 454.51 C 133.10 454.84 134.40 455.50 135.04 455.84 C 133.51 452.22 134.04 448.26 134.03 444.45 C 133.63 444.52 132.83 444.64 132.44 444.71 M 118.63 455.59 C 119.95 455.01 120.90 454.06 121.48 452.74 C 122.53 452.69 123.58 452.66 124.63 452.64 C 125.21 453.99 126.16 454.97 127.50 455.55 C 126.49 451.47 125.24 447.37 123.02 443.77 C 120.92 447.44 119.66 451.51 118.63 455.59 M 143.92 447.87 C 143.63 448.37 143.07 449.36 142.78 449.86 C 141.36 449.45 140.67 447.45 139.01 447.75 C 136.37 447.58 134.84 450.74 135.76 452.97 C 136.55 455.79 141.10 456.47 142.58 453.86 C 140.43 454.04 138.26 454.05 136.86 452.14 C 138.87 451.95 140.91 451.63 142.92 451.93 C 143.61 452.87 143.83 454.05 143.60 455.48 C 144.00 455.42 144.80 455.31 145.20 455.26 C 145.26 452.90 144.95 450.36 146.63 448.42 C 147.31 448.97 147.99 449.55 148.66 450.15 C 148.68 451.82 148.75 453.52 148.84 455.21 C 150.05 455.30 151.39 455.71 152.40 454.77 C 149.58 454.30 150.52 451.35 149.98 449.49 C 150.58 449.32 151.79 448.97 152.39 448.80 C 151.98 448.43 151.15 447.71 150.74 447.35 C 148.94 443.75 146.53 449.49 143.92 447.87 M 161.30 447.67 C 161.23 450.34 161.25 453.02 161.38 455.70 C 161.77 455.58 162.56 455.33 162.95 455.21 C 163.38 453.11 161.77 449.17 165.08 449.15 C 167.02 450.55 165.88 453.66 166.58 455.79 C 169.05 455.07 167.84 451.86 167.79 449.97 C 167.19 446.99 163.50 448.08 161.30 447.67 M 169.69 448.79 C 168.35 451.46 172.32 452.23 173.51 454.08 C 172.13 453.92 170.77 453.73 169.41 453.51 C 169.31 453.93 169.12 454.76 169.03 455.17 C 170.68 455.41 172.30 455.30 173.89 454.86 C 174.37 455.11 174.84 455.37 175.32 455.64 C 176.69 453.64 178.28 454.62 179.78 455.78 L 179.40 454.91 C 182.42 455.93 185.58 455.31 188.61 454.71 L 189.00 455.22 C 189.09 454.55 189.26 453.23 189.35 452.57 C 189.49 453.24 189.76 454.60 189.89 455.28 L 191.03 455.46 C 191.00 454.53 190.96 452.67 190.93 451.74 C 189.05 451.81 187.17 451.95 185.31 452.26 L 184.76 452.00 L 183.89 451.60 C 183.44 451.82 182.55 452.26 182.10 452.48 C 181.50 452.22 180.31 451.71 179.71 451.46 C 178.16 452.84 176.50 454.12 174.45 454.67 C 175.63 451.73 171.94 450.98 170.56 449.16 C 172.03 449.14 173.52 449.19 175.00 449.21 C 173.63 447.73 171.15 446.97 169.69 448.79 M 154.28 448.31 C 151.79 449.87 152.18 454.40 155.11 455.26 C 157.78 456.37 160.84 453.71 160.09 450.90 C 159.92 448.16 156.43 446.87 154.28 448.31 Z" />
<path fill="#f6ec5a" opacity="1.00" d=" M 11.30 386.72 L 11.41 385.55 L 11.57 386.71 C 12.55 391.55 12.94 396.95 16.23 400.90 C 20.70 400.24 24.86 398.31 29.30 397.44 C 32.05 396.61 35.38 396.45 37.38 394.13 C 34.86 392.54 32.12 391.38 29.47 390.06 C 30.72 389.79 31.97 389.55 33.22 389.34 C 51.47 389.86 69.73 389.35 87.94 388.09 C 87.48 388.87 87.03 389.67 86.58 390.47 L 86.43 390.55 C 81.58 393.05 77.32 396.62 73.84 400.80 C 72.27 402.64 71.22 405.30 72.40 407.63 C 75.36 413.51 80.37 418.69 86.92 420.35 C 87.78 419.10 88.65 417.86 89.52 416.62 C 91.47 419.66 92.75 423.09 93.31 426.66 C 92.86 426.76 91.97 426.95 91.53 427.05 C 84.76 428.13 77.97 429.11 71.22 430.33 C 54.35 432.50 37.20 433.42 20.26 431.40 L 20.11 431.38 C 19.21 422.96 15.45 415.29 12.36 407.52 C 11.11 404.82 11.48 401.81 11.63 398.93 C 11.89 394.85 11.09 390.79 11.30 386.72 Z" />
<path fill="#f6ec5a" opacity="1.00" d=" M 241.52 388.38 C 249.65 389.36 257.97 388.96 265.77 386.36 C 265.07 398.81 264.37 411.27 264.74 423.75 C 256.01 426.13 246.92 426.53 237.94 427.09 C 239.19 414.19 240.23 401.27 241.52 388.38 M 255.34 397.46 C 250.73 397.80 246.87 400.72 243.73 403.89 C 247.76 402.62 251.90 401.64 256.14 401.40 C 258.11 401.08 260.49 401.35 261.97 399.73 C 260.43 397.74 257.69 397.41 255.34 397.46 Z" />
<path fill="#f6ec5a" opacity="1.00" d=" M 164.33 438.44 C 165.65 438.68 165.88 439.42 165.02 440.66 C 163.70 440.42 163.47 439.68 164.33 438.44 Z" />
<path fill="#f6ec5a" opacity="1.00" d=" M 142.22 439.85 C 145.14 438.17 142.49 443.21 142.22 439.85 Z" />
<path fill="#f6ec5a" opacity="1.00" d=" M 109.93 446.12 L 110.26 446.54 C 111.53 448.74 112.59 451.07 113.48 453.46 C 113.49 454.05 113.51 455.25 113.52 455.84 C 112.13 454.26 111.06 452.44 110.12 450.58 C 109.24 452.40 108.31 454.19 107.31 455.96 C 107.16 455.51 106.85 454.62 106.70 454.17 C 107.61 451.42 108.85 448.80 109.93 446.12 Z" />
<path fill="#f6ec5a" opacity="1.00" d=" M 122.32 448.48 C 123.81 447.31 125.16 450.01 123.83 450.97 C 122.28 452.19 120.88 449.43 122.32 448.48 Z" />
<path fill="#f6ec5a" opacity="1.00" d=" M 154.53 451.10 C 154.51 449.43 157.01 448.42 157.85 450.03 C 159.07 451.45 157.58 453.08 157.18 454.51 C 155.93 453.80 153.93 452.92 154.53 451.10 Z" />
<path fill="#f6ec5a" opacity="1.00" d=" M 179.09 454.17 C 179.14 453.77 179.23 452.97 179.27 452.56 C 179.58 452.87 180.21 453.49 180.52 453.80 C 180.16 453.89 179.45 454.08 179.09 454.17 Z" />
<path fill="#f6ec5a" opacity="1.00" d=" M 67.40 465.15 C 75.69 464.11 83.89 462.34 91.83 459.71 C 91.58 462.78 91.36 465.91 91.92 468.96 C 92.58 472.39 95.39 474.80 96.61 477.98 C 97.67 482.25 97.15 486.69 97.45 491.04 C 97.56 496.10 99.24 500.92 100.26 505.83 C 102.01 514.61 103.23 523.48 104.43 532.35 C 91.62 531.59 79.49 536.78 67.86 541.47 C 67.63 535.60 68.71 529.57 67.10 523.83 C 64.66 517.29 59.62 512.12 54.41 507.67 C 47.63 502.60 45.89 493.82 42.50 486.53 C 47.52 489.39 51.90 493.18 56.77 496.27 C 62.07 499.62 67.16 503.70 73.44 505.06 C 71.64 499.85 65.71 499.06 61.64 496.36 C 55.46 492.34 50.31 487.00 44.65 482.35 C 43.47 481.05 41.68 481.63 40.17 481.67 C 37.32 475.70 32.27 471.36 28.42 466.11 C 39.13 466.73 49.88 466.90 60.56 465.91 C 63.80 467.41 67.16 468.63 70.62 469.46 C 76.83 470.93 83.01 472.85 89.45 472.90 C 82.74 468.67 74.56 468.29 67.40 465.15 M 85.88 483.88 C 83.72 486.41 83.58 489.91 83.15 493.06 C 86.31 489.23 89.36 485.21 93.61 482.50 C 95.40 481.63 95.70 479.70 96.04 477.95 C 92.27 479.12 88.63 480.99 85.88 483.88 Z" />
<path fill="#f6ec5a" opacity="1.00" d=" M 256.54 468.96 C 259.48 467.33 262.76 466.54 265.99 465.69 C 266.58 467.04 267.48 468.39 267.28 469.95 C 267.03 477.30 266.83 484.67 267.15 492.03 C 267.94 500.74 270.93 509.02 272.82 517.51 C 264.38 516.07 254.43 514.49 247.50 520.83 C 245.84 516.11 243.72 511.50 242.78 506.56 C 242.46 503.03 241.98 499.50 240.80 496.15 C 243.62 496.06 246.64 496.49 249.26 495.18 C 252.32 493.66 254.84 491.30 257.39 489.07 C 254.36 489.34 251.33 489.83 248.28 489.65 C 245.50 486.76 245.10 481.94 246.47 478.33 C 248.92 475.01 252.69 472.96 255.35 469.81 C 251.33 471.50 247.96 474.35 244.03 476.19 C 242.45 474.36 241.93 471.94 240.95 469.79 L 240.24 468.83 C 245.28 469.04 250.39 469.01 255.37 468.03 C 255.66 468.26 256.25 468.73 256.54 468.96 Z" />
</g>
<g id="#f2eb85ff">
<path fill="#f2eb85" opacity="1.00" d=" M 105.96 33.00 C 111.85 24.10 120.42 16.85 130.34 12.87 C 125.21 20.20 118.68 26.56 114.60 34.62 C 111.90 39.91 109.03 45.99 110.87 52.03 C 112.27 56.77 117.07 59.04 121.21 60.91 C 110.36 67.54 99.18 76.20 95.70 89.05 C 93.75 69.98 95.22 49.47 105.96 33.00 Z" />
<path fill="#f2eb85" opacity="1.00" d=" M 180.01 208.25 C 181.79 205.82 184.31 204.12 186.67 202.32 C 187.30 202.65 188.57 203.32 189.21 203.66 C 189.05 208.84 189.25 214.04 189.75 219.20 C 186.44 215.69 181.66 212.96 180.01 208.25 Z" />
<path fill="#f2eb85" opacity="1.00" d=" M 49.03 219.28 C 53.42 215.39 54.24 208.76 59.50 205.69 C 58.72 207.46 57.74 209.18 57.32 211.09 C 57.55 214.29 58.37 217.44 58.30 220.67 C 55.45 219.09 52.23 218.33 49.03 219.28 Z" />
<path fill="#f2eb85" opacity="1.00" d=" M 230.85 231.70 C 234.01 235.80 235.54 240.85 237.03 245.73 C 237.17 259.00 237.75 272.41 235.94 285.59 C 233.63 278.63 234.43 271.21 233.89 264.02 C 233.22 255.76 233.94 247.34 231.85 239.24 C 231.41 239.39 230.54 239.68 230.10 239.82 C 230.36 237.12 230.60 234.41 230.85 231.70 Z" />
<path fill="#f2eb85" opacity="1.00" d=" M 105.68 244.04 L 105.83 244.22 C 109.85 249.04 113.84 253.89 117.94 258.65 C 118.10 258.87 118.41 259.30 118.56 259.52 C 109.91 265.26 104.08 275.42 105.20 285.96 C 106.62 293.70 110.17 300.93 111.34 308.73 C 111.37 317.18 109.03 325.41 106.36 333.36 C 105.68 336.15 104.22 339.38 105.79 342.13 C 113.86 355.09 126.15 364.66 134.69 377.28 C 138.08 382.36 140.31 388.13 143.86 393.12 C 150.57 402.88 158.18 412.05 166.65 420.33 C 170.44 424.24 175.57 426.29 180.33 428.70 C 186.74 431.84 193.10 435.10 199.56 438.15 C 199.49 438.83 199.35 440.21 199.28 440.90 C 195.30 438.64 191.18 436.64 186.84 435.21 C 178.55 432.45 170.92 428.07 163.59 423.38 C 158.77 420.02 153.47 416.51 151.09 410.90 C 149.17 406.35 146.81 402.00 144.02 397.93 C 135.55 384.67 126.30 371.90 116.20 359.83 C 112.98 356.41 110.05 352.26 105.60 350.38 C 101.86 349.48 99.29 353.74 99.65 357.03 C 99.56 360.10 102.33 361.89 104.49 363.51 C 110.90 367.98 116.91 373.03 122.33 378.65 C 123.83 380.15 124.65 382.13 125.44 384.06 C 118.97 381.08 113.55 376.36 108.03 371.97 C 102.46 367.20 96.55 362.74 91.89 357.04 L 91.82 356.95 C 95.26 354.38 98.60 351.45 100.62 347.59 C 102.33 344.62 101.88 341.07 102.41 337.81 C 103.83 327.55 106.07 317.36 106.28 306.97 C 106.56 301.57 104.30 296.46 104.24 291.07 C 103.92 282.61 104.47 274.03 106.71 265.84 C 107.38 260.62 102.83 256.80 99.84 253.11 C 101.89 250.16 103.86 247.14 105.68 244.04 Z" />
<path fill="#f2eb85" opacity="1.00" d=" M 181.90 264.90 C 184.01 279.05 185.08 293.39 184.59 307.71 C 183.88 305.01 183.05 302.36 182.33 299.67 C 183.08 288.07 181.32 276.49 181.90 264.90 Z" />
<path fill="#f2eb85" opacity="1.00" d=" M 131.33 283.36 C 131.71 283.26 132.45 283.04 132.83 282.93 C 134.89 292.58 131.93 302.42 130.96 312.04 C 130.71 316.05 131.64 320.06 133.30 323.70 C 138.26 333.91 141.52 344.83 145.72 355.36 C 147.97 361.53 150.67 368.06 149.61 374.75 C 148.77 376.67 146.51 375.45 145.74 374.14 C 142.61 369.75 143.57 364.08 143.18 359.04 C 142.78 352.06 138.66 346.15 136.47 339.68 C 133.86 332.18 131.22 324.68 129.28 316.97 C 127.29 309.74 129.21 302.31 129.69 295.02 C 130.21 291.14 129.77 287.03 131.33 283.36 Z" />
<path fill="#f2eb85" opacity="1.00" d=" M 13.46 322.65 C 19.93 323.80 26.05 326.29 32.03 328.92 C 36.37 330.94 40.79 333.32 43.70 337.24 C 46.99 341.76 48.52 347.22 50.20 352.47 L 49.60 352.45 C 43.94 346.04 37.31 340.57 30.57 335.35 C 26.23 331.84 20.70 330.59 15.81 328.13 C 13.62 327.25 13.97 324.53 13.46 322.65 Z" />
<path fill="#f2eb85" opacity="1.00" d=" M 48.91 331.77 C 56.11 338.04 62.19 345.98 71.12 349.97 C 73.26 351.04 75.75 350.91 77.90 349.94 C 83.75 347.52 89.12 344.07 95.04 341.79 C 93.52 345.04 91.79 348.20 89.91 351.26 C 80.34 351.84 70.76 352.08 61.18 352.49 C 59.94 352.51 58.70 352.53 57.46 352.54 C 55.12 345.37 48.87 339.67 48.91 331.77 Z" />
<path fill="#f2eb85" opacity="1.00" d=" M 240.72 368.35 C 239.99 361.46 238.14 353.12 243.62 347.60 C 242.43 354.48 241.15 361.36 240.72 368.35 Z" />
<path fill="#f2eb85" opacity="1.00" d=" M 224.39 392.38 C 229.90 384.46 234.80 376.10 240.74 368.49 C 239.45 382.56 238.22 396.63 236.87 410.69 C 234.66 414.36 232.23 417.98 231.02 422.14 C 229.06 427.41 229.25 433.32 226.41 438.28 C 226.85 419.23 234.99 401.49 237.14 382.68 C 229.35 389.07 222.84 396.93 217.36 405.36 C 216.09 407.23 214.46 408.80 212.78 410.30 C 215.82 403.82 220.71 398.48 224.39 392.38 Z" />
<path fill="#f2eb85" opacity="1.00" d=" M 11.57 386.71 C 15.86 387.55 20.17 388.24 24.53 388.61 C 27.42 388.88 30.32 389.14 33.22 389.34 C 31.97 389.55 30.72 389.79 29.47 390.06 C 32.12 391.38 34.86 392.54 37.38 394.13 C 35.38 396.45 32.05 396.61 29.30 397.44 C 24.86 398.31 20.70 400.24 16.23 400.90 C 12.94 396.95 12.55 391.55 11.57 386.71 Z" />
<path fill="#f2eb85" opacity="1.00" d=" M 83.19 399.23 C 85.70 395.50 88.98 392.33 91.10 388.32 C 92.58 392.29 89.00 395.05 87.51 398.31 C 86.69 401.34 87.01 404.53 87.11 407.63 C 85.32 405.25 81.65 402.59 83.19 399.23 Z" />
<path fill="#f2eb85" opacity="1.00" d=" M 73.84 400.80 C 77.32 396.62 81.58 393.05 86.43 390.55 C 84.12 394.81 78.13 398.20 80.23 403.78 C 82.61 408.53 86.87 412.01 89.52 416.62 C 88.65 417.86 87.78 419.10 86.92 420.35 C 80.37 418.69 75.36 413.51 72.40 407.63 C 71.22 405.30 72.27 402.64 73.84 400.80 Z" />
<path fill="#f2eb85" opacity="1.00" d=" M 255.34 397.46 C 257.69 397.41 260.43 397.74 261.97 399.73 C 260.49 401.35 258.11 401.08 256.14 401.40 C 251.90 401.64 247.76 402.62 243.73 403.89 C 246.87 400.72 250.73 397.80 255.34 397.46 Z" />
<path fill="#f2eb85" opacity="1.00" d=" M 201.95 420.83 C 203.25 421.54 204.63 422.20 205.62 423.35 C 209.92 428.24 213.66 433.62 216.69 439.39 C 218.19 442.52 221.25 444.29 223.83 446.41 C 222.70 448.80 219.35 447.44 217.77 446.22 C 214.41 444.32 215.23 440.07 213.94 437.00 C 211.01 430.86 205.64 426.44 201.95 420.83 Z" />
<path fill="#f2eb85" opacity="1.00" d=" M 201.34 461.03 C 202.45 459.24 203.46 457.34 204.98 455.86 C 211.16 458.06 217.56 459.68 224.19 459.10 C 216.80 461.31 208.99 461.60 201.34 461.03 Z" />
<path fill="#f2eb85" opacity="1.00" d=" M 60.56 465.91 C 62.84 465.67 65.12 465.42 67.40 465.15 C 74.56 468.29 82.74 468.67 89.45 472.90 C 83.01 472.85 76.83 470.93 70.62 469.46 C 67.16 468.63 63.80 467.41 60.56 465.91 Z" />
<path fill="#f2eb85" opacity="1.00" d=" M 239.25 468.76 C 239.49 468.78 239.99 468.81 240.24 468.83 L 240.95 469.79 C 241.93 471.94 242.45 474.36 244.03 476.19 C 247.96 474.35 251.33 471.50 255.35 469.81 C 252.69 472.96 248.92 475.01 246.47 478.33 C 245.10 481.94 245.50 486.76 248.28 489.65 C 251.33 489.83 254.36 489.34 257.39 489.07 C 254.84 491.30 252.32 493.66 249.26 495.18 C 246.64 496.49 243.62 496.06 240.80 496.15 C 239.60 491.50 238.85 486.68 239.48 481.89 C 240.08 477.74 238.70 473.67 238.86 469.54 L 239.25 468.76 Z" />
<path fill="#f2eb85" opacity="1.00" d=" M 85.88 483.88 C 88.63 480.99 92.27 479.12 96.04 477.95 C 95.70 479.70 95.40 481.63 93.61 482.50 C 89.36 485.21 86.31 489.23 83.15 493.06 C 83.58 489.91 83.72 486.41 85.88 483.88 Z" />
<path fill="#f2eb85" opacity="1.00" d=" M 40.17 481.67 C 41.68 481.63 43.47 481.05 44.65 482.35 C 50.31 487.00 55.46 492.34 61.64 496.36 C 65.71 499.06 71.64 499.85 73.44 505.06 C 67.16 503.70 62.07 499.62 56.77 496.27 C 51.90 493.18 47.52 489.39 42.50 486.53 C 41.69 484.93 40.92 483.29 40.17 481.67 Z" />
</g>
<g id="#97c5ebff">
<path fill="#97c5eb" opacity="1.00" d=" M 84.09 190.51 C 86.96 190.04 89.79 189.35 92.57 188.51 C 97.44 195.59 104.09 201.24 111.63 205.30 C 117.12 207.64 115.56 214.96 119.32 218.74 C 121.74 220.34 124.84 219.22 127.51 219.05 C 150.02 242.58 171.09 268.73 182.33 299.67 C 183.05 302.36 183.88 305.01 184.59 307.71 C 186.33 338.98 188.94 370.27 193.83 401.22 C 177.42 350.02 151.43 302.02 118.56 259.52 C 118.41 259.30 118.10 258.87 117.94 258.65 C 117.47 252.27 114.10 246.66 109.86 242.05 C 108.51 242.77 107.17 243.49 105.83 244.22 L 105.68 244.04 C 91.57 227.97 76.52 212.59 59.64 199.39 C 67.26 195.18 75.44 191.81 84.09 190.51 Z" />
<path fill="#97c5eb" opacity="1.00" d=" M 201.67 210.56 C 211.93 216.79 222.38 223.07 230.85 231.70 C 230.60 234.41 230.36 237.12 230.10 239.82 C 226.30 269.00 220.32 297.85 214.75 326.73 C 209.41 353.96 203.78 381.14 198.25 408.33 C 195.89 401.85 195.22 394.95 194.29 388.17 C 191.22 362.64 188.27 337.03 187.40 311.32 C 189.09 291.41 192.81 271.75 195.93 252.03 C 198.15 238.25 200.77 224.50 201.67 210.56 Z" />
<path fill="#97c5eb" opacity="1.00" d=" M 246.80 266.21 C 250.59 278.84 250.42 292.21 253.12 305.08 C 252.26 305.38 251.41 305.69 250.56 306.01 C 250.27 295.33 249.45 284.64 247.39 274.15 C 247.06 272.17 246.47 270.21 246.54 268.20 C 246.61 267.70 246.73 266.70 246.80 266.21 Z" />
<path fill="#97c5eb" opacity="1.00" d=" M 8.64 304.30 C 8.64 292.94 8.97 281.55 10.41 270.27 C 17.80 271.98 25.35 272.91 32.90 273.48 C 55.77 275.17 78.73 274.56 101.60 273.38 C 100.82 279.57 100.96 285.81 101.04 292.03 C 101.04 297.29 103.28 302.24 103.16 307.52 C 86.12 308.49 69.05 308.81 51.98 308.58 C 37.47 308.12 22.84 307.63 8.64 304.30 Z" />
<path fill="#97c5eb" opacity="1.00" d=" M 246.84 346.72 C 252.03 346.62 257.20 346.13 262.28 345.04 C 265.05 358.61 266.44 372.51 265.77 386.36 C 257.97 388.96 249.65 389.36 241.52 388.38 C 241.65 387.06 241.76 385.75 241.88 384.44 C 247.83 380.89 253.70 377.19 259.58 373.52 C 261.50 372.58 261.95 370.43 262.45 368.57 C 256.16 371.42 249.81 374.29 242.81 374.80 C 243.20 365.32 244.99 356.00 246.84 346.72 Z" />
<path fill="#97c5eb" opacity="1.00" d=" M 5.56 348.50 C 20.01 351.64 34.86 352.32 49.60 352.45 L 50.20 352.47 C 52.62 352.53 55.04 352.53 57.46 352.54 C 58.70 352.53 59.94 352.51 61.18 352.49 C 60.14 352.77 59.12 353.10 58.09 353.42 C 60.26 357.22 63.34 360.93 63.55 365.48 C 61.47 367.75 58.18 368.16 55.66 369.78 C 55.19 371.19 55.00 372.68 54.72 374.15 C 57.43 372.99 60.02 370.97 63.07 371.03 C 65.68 371.84 67.56 374.02 70.04 375.13 C 71.96 375.45 73.50 374.00 74.85 372.87 C 78.46 369.51 81.58 365.63 84.15 361.43 C 85.03 366.21 87.16 370.58 89.13 374.97 C 91.18 379.20 90.01 384.11 87.94 388.09 C 69.73 389.35 51.47 389.86 33.22 389.34 C 30.32 389.14 27.42 388.88 24.53 388.61 C 20.88 384.86 16.49 381.97 12.14 379.10 C 11.89 381.24 11.61 383.39 11.41 385.55 L 11.30 386.72 C 10.91 382.84 11.40 378.94 11.14 375.06 C 10.36 366.01 8.08 357.19 5.56 348.50 Z" />
<path fill="#97c5eb" opacity="1.00" d=" M 237.94 427.09 C 246.92 426.53 256.01 426.13 264.74 423.75 C 264.74 431.53 265.42 439.29 265.82 447.06 C 266.05 449.26 264.41 451.02 263.81 453.04 C 263.68 455.38 266.16 456.38 267.63 457.71 C 266.59 460.24 265.39 462.89 265.99 465.69 C 262.76 466.54 259.48 467.33 256.54 468.96 C 256.25 468.73 255.66 468.26 255.37 468.03 C 250.39 469.01 245.28 469.04 240.24 468.83 C 239.99 468.81 239.49 468.78 239.25 468.76 L 239.08 468.33 C 239.64 468.25 240.75 468.09 241.31 468.01 C 242.48 460.07 243.94 451.94 241.81 444.01 C 240.59 446.50 239.37 448.99 238.16 451.49 C 239.49 443.37 237.53 435.24 237.94 427.09 Z" />
<path fill="#97c5eb" opacity="1.00" d=" M 91.53 427.05 C 91.97 426.95 92.86 426.76 93.31 426.66 C 95.09 437.66 93.15 448.77 91.83 459.71 C 83.89 462.34 75.69 464.11 67.40 465.15 C 65.12 465.42 62.84 465.67 60.56 465.91 C 49.88 466.90 39.13 466.73 28.42 466.11 C 22.92 455.38 21.99 443.13 20.26 431.40 C 37.20 433.42 54.35 432.50 71.22 430.33 C 63.22 440.94 52.32 448.97 43.87 459.20 C 50.94 456.69 56.53 451.47 63.03 447.88 C 68.83 444.59 73.44 439.71 78.79 435.82 C 81.13 433.89 84.30 434.61 87.05 433.98 C 89.59 432.58 90.19 429.40 91.53 427.05 Z" />
</g>
<g id="#f1e97cff">
<path fill="#f1e97c" opacity="1.00" d=" M 180.61 222.62 C 181.98 226.60 182.66 230.77 182.90 234.96 C 183.27 241.32 184.16 247.70 183.43 254.07 L 183.38 254.72 C 181.94 245.21 180.31 235.69 179.35 226.14 C 179.66 225.26 180.29 223.50 180.61 222.62 Z" />
</g>
<g id="#afcfebff">
<path fill="#afcfeb" opacity="1.00" d=" M 105.83 244.22 C 107.17 243.49 108.51 242.77 109.86 242.05 C 114.10 246.66 117.47 252.27 117.94 258.65 C 113.84 253.89 109.85 249.04 105.83 244.22 Z" />
<path fill="#afcfeb" opacity="1.00" d=" M 61.18 352.49 C 70.76 352.08 80.34 351.84 89.91 351.26 C 90.93 351.19 92.97 351.05 93.99 350.98 C 90.58 354.34 86.00 356.76 84.15 361.43 C 81.58 365.63 78.46 369.51 74.85 372.87 C 73.50 374.00 71.96 375.45 70.04 375.13 C 67.56 374.02 65.68 371.84 63.07 371.03 C 60.02 370.97 57.43 372.99 54.72 374.15 C 55.00 372.68 55.19 371.19 55.66 369.78 C 58.18 368.16 61.47 367.75 63.55 365.48 C 63.34 360.93 60.26 357.22 58.09 353.42 C 59.12 353.10 60.14 352.77 61.18 352.49 Z" />
<path fill="#afcfeb" opacity="1.00" d=" M 242.81 374.80 C 249.81 374.29 256.16 371.42 262.45 368.57 C 261.95 370.43 261.50 372.58 259.58 373.52 C 253.70 377.19 247.83 380.89 241.88 384.44 C 242.01 381.21 242.44 378.01 242.81 374.80 Z" />
<path fill="#afcfeb" opacity="1.00" d=" M 12.14 379.10 C 16.49 381.97 20.88 384.86 24.53 388.61 C 20.17 388.24 15.86 387.55 11.57 386.71 L 11.41 385.55 C 11.61 383.39 11.89 381.24 12.14 379.10 Z" />
<path fill="#afcfeb" opacity="1.00" d=" M 71.22 430.33 C 77.97 429.11 84.76 428.13 91.53 427.05 C 90.19 429.40 89.59 432.58 87.05 433.98 C 84.30 434.61 81.13 433.89 78.79 435.82 C 73.44 439.71 68.83 444.59 63.03 447.88 C 56.53 451.47 50.94 456.69 43.87 459.20 C 52.32 448.97 63.22 440.94 71.22 430.33 Z" />
<path fill="#afcfeb" opacity="1.00" d=" M 241.81 444.01 C 243.94 451.94 242.48 460.07 241.31 468.01 C 240.75 468.09 239.64 468.25 239.08 468.33 C 237.39 467.61 237.91 465.32 237.48 463.89 C 237.14 461.46 236.45 459.10 236.22 456.67 C 236.54 454.84 237.43 453.17 238.16 451.49 C 239.37 448.99 240.59 446.50 241.81 444.01 Z" />
</g>
<g id="#f2eb7dff">
<path fill="#f2eb7d" opacity="1.00" d=" M 96.02 405.92 C 101.40 411.68 105.58 418.44 110.21 424.79 C 112.49 428.14 115.09 431.38 116.30 435.32 C 110.64 431.06 107.00 424.73 102.94 419.05 C 100.20 414.93 97.17 410.82 96.02 405.92 Z" />
<path fill="#f2eb7d" opacity="1.00" d=" M 134.59 410.76 C 140.84 413.28 145.93 417.88 151.63 421.38 C 155.04 423.76 158.91 425.72 161.35 429.23 C 154.71 427.02 149.30 422.36 143.68 418.38 C 140.52 416.00 137.08 413.89 134.59 410.76 Z" />
</g>
<g id="#231f20ff">
<path fill="#231f20" opacity="1.00" d=" M 130.01 442.60 C 128.18 441.08 128.24 438.08 129.85 436.43 C 130.11 438.48 130.17 440.54 130.01 442.60 Z" />
<path fill="#231f20" opacity="1.00" d=" M 158.53 438.81 C 159.29 437.64 160.59 437.24 161.83 436.84 C 161.78 438.59 161.68 440.34 161.62 442.10 C 160.91 442.10 159.49 442.09 158.78 442.08 C 159.74 440.72 160.70 439.36 161.64 437.98 C 160.86 438.19 159.31 438.60 158.53 438.81 Z" />
<path fill="#231f20" opacity="1.00" d=" M 162.53 438.35 C 163.19 437.93 163.86 437.52 164.53 437.13 C 166.12 438.19 168.02 438.00 169.69 437.27 C 169.57 438.97 169.47 440.68 169.32 442.39 C 168.52 441.50 168.25 440.45 168.50 439.22 C 167.95 439.02 166.86 438.62 166.31 438.42 C 166.27 439.28 166.18 441.01 166.14 441.88 C 165.43 441.84 164.01 441.78 163.30 441.75 C 163.11 440.90 162.72 439.20 162.53 438.35 M 164.33 438.44 C 163.47 439.68 163.70 440.42 165.02 440.66 C 165.88 439.42 165.65 438.68 164.33 438.44 Z" />
<path fill="#231f20" opacity="1.00" d=" M 171.31 437.11 C 172.35 437.29 173.39 437.48 174.43 437.70 C 173.69 437.86 172.21 438.19 171.47 438.35 C 172.27 438.49 173.86 438.78 174.66 438.92 C 173.93 439.43 173.21 439.94 172.48 440.45 C 173.22 441.03 173.96 441.63 174.68 442.27 C 170.93 443.54 170.76 439.57 171.31 437.11 Z" />
<path fill="#231f20" opacity="1.00" d=" M 131.01 438.44 C 132.66 438.41 134.31 438.40 135.96 438.37 C 135.92 439.74 135.87 441.12 135.81 442.51 C 135.58 441.73 135.11 440.19 134.88 439.42 L 133.99 439.33 C 133.97 440.04 133.95 441.45 133.94 442.15 L 133.12 442.14 C 133.03 441.27 132.84 439.54 132.75 438.67 C 132.35 439.65 131.57 441.61 131.17 442.59 C 131.10 441.20 131.06 439.81 131.01 438.44 Z" />
<path fill="#231f20" opacity="1.00" d=" M 141.48 442.21 C 140.82 440.02 141.51 437.85 144.16 438.34 C 145.28 440.00 146.23 439.92 147.01 438.09 C 147.48 438.32 148.40 438.76 148.86 438.98 C 148.80 439.83 148.67 441.53 148.61 442.38 C 146.96 442.31 145.78 441.09 144.56 440.15 C 144.66 440.81 144.87 442.14 144.98 442.80 C 143.81 442.59 142.65 442.39 141.48 442.21 M 142.22 439.85 C 142.49 443.21 145.14 438.17 142.22 439.85 Z" />
<path fill="#231f20" opacity="1.00" d=" M 111.28 442.29 C 111.17 440.96 111.53 439.76 112.45 438.81 C 112.52 439.90 112.67 442.07 112.74 443.15 C 113.66 441.99 114.59 440.84 115.52 439.69 C 115.16 440.98 114.75 442.24 114.39 443.54 C 114.87 444.24 115.36 444.94 115.84 445.65 C 115.55 449.04 115.67 452.44 115.75 455.84 L 115.20 455.90 C 115.15 453.46 115.03 451.01 114.85 448.58 C 114.35 450.19 113.85 451.81 113.48 453.46 C 112.59 451.07 111.53 448.74 110.26 446.54 C 111.21 446.48 113.11 446.36 114.06 446.30 C 114.10 445.80 114.18 444.80 114.22 444.30 C 111.44 444.25 108.66 444.22 105.89 444.45 C 105.69 442.84 105.49 441.24 105.38 439.63 C 105.80 440.60 106.64 442.53 107.06 443.50 C 107.49 441.62 106.99 438.40 109.89 439.85 C 109.57 440.48 108.93 441.72 108.61 442.35 C 109.28 442.33 110.61 442.31 111.28 442.29 Z" />
<path fill="#231f20" opacity="1.00" d=" M 128.71 443.99 C 129.45 444.78 130.65 445.56 130.22 446.89 C 130.18 449.86 130.40 452.82 130.90 455.76 C 129.94 455.27 128.53 454.86 128.60 453.52 C 128.33 450.35 128.48 447.15 128.71 443.99 Z" />
<path fill="#231f20" opacity="1.00" d=" M 132.44 444.71 C 132.83 444.64 133.63 444.52 134.03 444.45 C 134.04 448.26 133.51 452.22 135.04 455.84 C 134.40 455.50 133.10 454.84 132.45 454.51 C 132.06 451.26 132.12 447.95 132.44 444.71 Z" />
<path fill="#231f20" opacity="1.00" d=" M 118.63 455.59 C 119.66 451.51 120.92 447.44 123.02 443.77 C 125.24 447.37 126.49 451.47 127.50 455.55 C 126.16 454.97 125.21 453.99 124.63 452.64 C 123.58 452.66 122.53 452.69 121.48 452.74 C 120.90 454.06 119.95 455.01 118.63 455.59 M 122.32 448.48 C 120.88 449.43 122.28 452.19 123.83 450.97 C 125.16 450.01 123.81 447.31 122.32 448.48 Z" />
<path fill="#231f20" opacity="1.00" d=" M 105.97 445.82 C 106.81 445.71 108.49 445.50 109.33 445.40 C 109.48 445.58 109.78 445.94 109.93 446.12 C 108.85 448.80 107.61 451.42 106.70 454.17 C 105.90 451.46 106.01 448.60 105.97 445.82 Z" />
<path fill="#231f20" opacity="1.00" d=" M 143.92 447.87 C 146.53 449.49 148.94 443.75 150.74 447.35 C 151.15 447.71 151.98 448.43 152.39 448.80 C 151.79 448.97 150.58 449.32 149.98 449.49 C 150.52 451.35 149.58 454.30 152.40 454.77 C 151.39 455.71 150.05 455.30 148.84 455.21 C 148.75 453.52 148.68 451.82 148.66 450.15 C 147.99 449.55 147.31 448.97 146.63 448.42 C 144.95 450.36 145.26 452.90 145.20 455.26 C 144.80 455.31 144.00 455.42 143.60 455.48 C 143.83 454.05 143.61 452.87 142.92 451.93 C 140.91 451.63 138.87 451.95 136.86 452.14 C 138.26 454.05 140.43 454.04 142.58 453.86 C 141.10 456.47 136.55 455.79 135.76 452.97 C 134.84 450.74 136.37 447.58 139.01 447.75 C 140.67 447.45 141.36 449.45 142.78 449.86 C 143.07 449.36 143.63 448.37 143.92 447.87 M 138.07 449.36 C 136.91 450.75 139.49 451.91 140.40 450.81 C 141.51 449.44 138.97 448.21 138.07 449.36 Z" />
<path fill="#231f20" opacity="1.00" d=" M 161.30 447.67 C 163.50 448.08 167.19 446.99 167.79 449.97 C 167.84 451.86 169.05 455.07 166.58 455.79 C 165.88 453.66 167.02 450.55 165.08 449.15 C 161.77 449.17 163.38 453.11 162.95 455.21 C 162.56 455.33 161.77 455.58 161.38 455.70 C 161.25 453.02 161.23 450.34 161.30 447.67 Z" />
<path fill="#231f20" opacity="1.00" d=" M 169.69 448.79 C 171.15 446.97 173.63 447.73 175.00 449.21 C 173.52 449.19 172.03 449.14 170.56 449.16 C 171.94 450.98 175.63 451.73 174.45 454.67 C 176.50 454.12 178.16 452.84 179.71 451.46 L 179.27 452.56 C 179.23 452.97 179.14 453.77 179.09 454.17 C 179.17 454.35 179.32 454.72 179.40 454.91 L 179.78 455.78 C 178.28 454.62 176.69 453.64 175.32 455.64 C 174.84 455.37 174.37 455.11 173.89 454.86 C 172.30 455.30 170.68 455.41 169.03 455.17 C 169.12 454.76 169.31 453.93 169.41 453.51 C 170.77 453.73 172.13 453.92 173.51 454.08 C 172.32 452.23 168.35 451.46 169.69 448.79 Z" />
<path fill="#231f20" opacity="1.00" d=" M 154.28 448.31 C 156.43 446.87 159.92 448.16 160.09 450.90 C 160.84 453.71 157.78 456.37 155.11 455.26 C 152.18 454.40 151.79 449.87 154.28 448.31 M 154.53 451.10 C 153.93 452.92 155.93 453.80 157.18 454.51 C 157.58 453.08 159.07 451.45 157.85 450.03 C 157.01 448.42 154.51 449.43 154.53 451.10 Z" />
<path fill="#231f20" opacity="1.00" d=" M 107.31 455.96 C 108.31 454.19 109.24 452.40 110.12 450.58 C 111.06 452.44 112.13 454.26 113.52 455.84 L 113.49 455.84 C 111.43 455.94 109.37 455.99 107.31 455.96 Z" />
</g>
<g id="#9c9441ff">
<path fill="#9c9441" opacity="1.00" d=" M 151.45 438.31 C 152.15 436.55 154.32 437.23 155.78 436.88 C 156.20 437.86 156.63 438.85 157.06 439.84 C 156.75 440.41 156.14 441.56 155.84 442.13 C 154.54 442.10 153.24 442.08 151.94 442.07 C 151.85 440.84 150.57 439.45 151.45 438.31 M 154.41 439.09 C 154.49 442.41 157.42 437.62 154.41 439.09 Z" />
</g>
<g id="#635d32ff">
<path fill="#635d32" opacity="1.00" d=" M 137.49 437.70 C 140.41 437.46 140.52 440.14 140.80 442.29 C 139.78 442.23 137.76 442.11 136.74 442.05 C 136.61 441.31 136.35 439.84 136.22 439.10 C 136.92 439.28 138.32 439.65 139.01 439.83 C 138.63 439.30 137.87 438.24 137.49 437.70 Z" />
</g>
<g id="#eee458ff">
<path fill="#eee458" opacity="1.00" d=" M 154.41 439.09 C 157.42 437.62 154.49 442.41 154.41 439.09 Z" />
</g>
<g id="#f2eb80ff">
<path fill="#f2eb80" opacity="1.00" d=" M 201.75 439.41 C 203.90 441.57 206.48 443.95 206.52 447.26 C 206.35 451.43 203.44 454.75 200.71 457.63 C 200.68 456.29 200.66 454.95 200.65 453.62 C 201.81 451.79 203.34 450.04 203.72 447.85 C 204.14 445.67 202.28 444.02 201.37 442.28 C 201.46 441.56 201.65 440.12 201.75 439.41 Z" />
</g>
<g id="#625c31ff">
<path fill="#625c31" opacity="1.00" d=" M 142.53 443.24 C 143.05 443.77 143.05 443.77 142.53 443.24 Z" />
<path fill="#625c31" opacity="1.00" d=" M 182.10 452.48 C 182.55 452.26 183.44 451.82 183.89 451.60 L 184.76 452.00 C 184.61 452.49 184.31 453.46 184.16 453.95 C 183.69 453.72 182.73 453.26 182.26 453.03 L 182.10 452.48 Z" />
</g>
<g id="#f2e95cff">
<path fill="#f2e95c" opacity="1.00" d=" M 200.65 453.62 C 200.49 449.82 200.82 446.03 201.37 442.28 C 202.28 444.02 204.14 445.67 203.72 447.85 C 203.34 450.04 201.81 451.79 200.65 453.62 Z" />
</g>
<g id="#8f883eff">
<path fill="#8f883e" opacity="1.00" d=" M 105.89 444.45 C 108.66 444.22 111.44 444.25 114.22 444.30 C 114.18 444.80 114.10 445.80 114.06 446.30 C 113.11 446.36 111.21 446.48 110.26 446.54 L 109.93 446.12 C 109.78 445.94 109.48 445.58 109.33 445.40 C 108.49 445.50 106.81 445.71 105.97 445.82 C 106.01 448.60 105.90 451.46 106.70 454.17 C 106.85 454.62 107.16 455.51 107.31 455.96 C 109.37 455.99 111.43 455.94 113.49 455.84 L 113.52 455.84 C 113.51 455.25 113.49 454.05 113.48 453.46 C 113.85 451.81 114.35 450.19 114.85 448.58 C 115.03 451.01 115.15 453.46 115.20 455.90 L 115.22 456.92 C 111.82 458.07 107.61 458.72 104.76 456.07 C 103.85 453.49 104.19 450.64 104.21 447.96 C 104.27 446.71 104.44 444.78 105.89 444.45 Z" />
</g>
<g id="#a09942ff">
<path fill="#a09942" opacity="1.00" d=" M 138.07 449.36 C 138.97 448.21 141.51 449.44 140.40 450.81 C 139.49 451.91 136.91 450.75 138.07 449.36 Z" />
</g>
<g id="#968f40ff">
<path fill="#968f40" opacity="1.00" d=" M 179.71 451.46 C 180.31 451.71 181.50 452.22 182.10 452.48 L 182.26 453.03 C 182.55 453.38 183.12 454.06 183.41 454.41 L 184.16 453.95 C 184.31 453.46 184.61 452.49 184.76 452.00 L 185.31 452.26 C 185.87 452.54 186.99 453.10 187.55 453.37 C 187.82 453.71 188.34 454.37 188.61 454.71 C 185.58 455.31 182.42 455.93 179.40 454.91 C 179.32 454.72 179.17 454.35 179.09 454.17 C 179.45 454.08 180.16 453.89 180.52 453.80 C 180.21 453.49 179.58 452.87 179.27 452.56 L 179.71 451.46 Z" />
</g>
<g id="#5a552fff">
<path fill="#5a552f" opacity="1.00" d=" M 185.31 452.26 C 187.17 451.95 189.05 451.81 190.93 451.74 C 190.96 452.67 191.00 454.53 191.03 455.46 L 189.89 455.28 C 189.76 454.60 189.49 453.24 189.35 452.57 C 189.26 453.23 189.09 454.55 189.00 455.22 L 188.61 454.71 C 188.34 454.37 187.82 453.71 187.55 453.37 C 186.99 453.10 185.87 452.54 185.31 452.26 Z" />
</g>
<g id="#cac14eff">
<path fill="#cac14e" opacity="1.00" d=" M 182.26 453.03 C 182.73 453.26 183.69 453.72 184.16 453.95 L 183.41 454.41 C 183.12 454.06 182.55 453.38 182.26 453.03 Z" />
</g>
</svg>
