<?xml version="1.0" encoding="UTF-8" ?>
<!DOCTYPE svg PUBLIC "-//W3C//DTD SVG 1.1//EN" "http://www.w3.org/Graphics/SVG/1.1/DTD/svg11.dtd">
<svg width="279pt" height="547pt" viewBox="0 0 279 547" version="1.1" xmlns="http://www.w3.org/2000/svg">
<g id="#ffffffff">
<path fill="#ffffff" opacity="1.00" d=" M 0.00 0.00 L 279.00 0.00 L 279.00 547.00 L 0.00 547.00 L 0.00 0.00 M 120.86 15.62 C 109.32 23.02 100.71 34.72 96.79 47.84 C 90.68 66.68 92.27 87.04 96.87 106.03 C 100.19 108.82 101.00 113.61 104.73 116.11 C 103.36 120.66 101.84 125.25 99.31 129.32 C 97.69 132.11 93.88 133.33 93.35 136.78 C 92.50 141.52 92.94 146.69 95.37 150.93 C 96.35 152.70 97.39 154.99 96.02 156.87 C 94.07 159.65 91.62 162.10 90.04 165.13 C 85.80 171.80 88.89 180.14 91.60 186.80 C 80.21 188.10 68.93 191.16 59.00 197.03 C 37.53 209.61 21.91 230.32 11.60 252.64 C 5.96 271.16 6.40 290.78 6.18 309.93 C 5.17 320.61 3.50 331.23 3.03 341.96 C 2.96 344.96 2.83 348.02 3.56 350.96 C 6.47 360.68 9.20 370.73 8.66 380.98 C 8.45 387.33 9.17 393.67 8.87 400.03 C 8.23 407.56 12.77 414.02 14.90 420.95 C 17.52 428.02 17.74 435.63 19.02 443.00 C 20.34 450.80 21.70 458.79 25.41 465.88 C 27.60 470.07 31.40 473.06 34.11 476.87 C 40.00 485.51 42.58 495.93 48.22 504.69 C 53.09 510.19 59.58 514.31 63.14 520.96 C 67.24 527.25 64.71 534.98 65.53 541.94 C 65.72 542.96 66.61 544.83 67.93 544.03 C 80.43 539.49 93.33 533.00 107.01 535.08 C 105.85 521.65 103.51 508.30 100.47 495.16 C 98.85 488.56 101.06 481.32 98.06 475.04 C 95.71 471.65 93.38 467.91 94.04 463.57 C 108.38 461.78 122.70 464.35 137.06 463.92 C 152.40 463.82 167.74 464.41 183.08 464.00 C 194.09 463.65 205.14 464.56 216.12 463.58 C 222.33 462.54 229.00 461.65 234.12 457.69 C 235.81 466.69 237.88 475.84 237.03 485.04 C 236.80 490.83 238.73 496.33 239.86 501.91 C 240.11 508.91 242.68 515.51 245.30 521.91 C 245.65 523.20 246.77 523.97 247.79 524.73 C 250.71 521.65 254.58 519.31 258.91 519.14 C 263.98 518.46 268.91 520.48 273.96 520.28 C 274.33 519.94 275.09 519.27 275.47 518.93 C 274.11 509.55 269.95 500.61 269.55 491.02 C 269.39 484.00 269.56 476.98 269.85 469.96 C 270.08 467.86 268.88 466.03 268.40 464.06 C 268.79 461.95 269.90 460.06 270.30 457.96 C 270.19 455.61 267.97 454.55 266.38 453.25 C 267.33 451.27 268.93 449.36 268.60 447.04 C 267.11 428.38 266.90 409.61 268.24 390.94 C 268.56 384.63 268.77 378.31 268.48 372.00 C 267.50 349.20 261.05 327.19 256.11 305.05 C 253.69 294.56 253.63 283.71 251.48 273.17 C 249.27 261.98 246.37 250.79 241.30 240.53 C 239.31 236.93 237.26 232.89 233.35 231.07 C 226.75 224.01 218.61 218.68 210.54 213.47 C 203.40 208.99 196.12 204.73 188.64 200.84 C 188.49 192.58 188.54 184.33 188.36 176.07 C 188.54 174.91 187.50 172.63 186.23 174.21 C 183.18 177.47 180.19 180.83 177.50 184.40 C 176.58 191.47 176.83 198.67 176.02 205.75 C 175.49 205.91 174.43 206.23 173.90 206.39 C 173.41 198.94 173.22 191.48 172.65 184.04 C 172.69 182.67 171.20 182.22 170.30 181.58 C 155.05 172.88 139.83 164.13 124.62 155.38 C 122.44 154.25 120.00 152.00 117.48 153.68 C 111.67 156.96 109.67 163.89 107.89 169.87 C 106.48 173.93 106.76 178.65 103.85 182.08 C 99.34 175.28 100.62 166.68 100.08 158.95 C 100.29 151.57 98.10 144.34 98.62 136.97 C 103.84 139.06 107.29 144.00 112.65 145.85 C 111.93 141.29 111.13 136.65 111.91 132.04 C 113.36 121.53 116.14 110.91 122.11 102.01 C 127.18 93.42 125.38 82.97 125.36 73.51 C 132.09 70.55 139.30 68.89 146.46 67.36 C 159.92 64.86 173.92 63.80 187.40 66.73 C 194.47 68.36 201.44 71.35 206.82 76.33 C 208.60 79.57 208.78 83.41 208.67 87.03 C 207.98 105.14 207.30 123.25 206.15 141.34 C 205.92 142.62 206.15 144.16 205.18 145.17 C 201.88 148.80 197.79 151.66 194.67 155.46 C 192.82 157.21 194.76 159.57 195.74 161.25 C 197.01 163.21 199.46 165.66 201.91 163.99 C 206.63 161.31 211.42 157.74 213.53 152.58 C 213.95 149.44 211.84 146.55 211.69 143.41 C 210.30 130.06 211.81 116.64 213.22 103.37 C 218.32 99.15 223.47 94.74 226.96 89.04 C 229.37 85.49 232.66 82.53 234.58 78.65 C 236.74 72.01 236.74 64.43 233.75 58.03 C 232.69 55.65 230.70 53.69 230.20 51.06 C 228.02 41.01 223.42 31.35 216.35 23.82 C 206.91 13.56 193.64 7.47 180.03 5.15 C 159.95 1.02 138.22 4.61 120.86 15.62 Z" />
<path fill="#ffffff" opacity="1.00" d=" M 102.14 84.12 C 105.26 82.69 108.72 81.15 112.22 82.11 C 115.69 83.09 117.46 87.65 115.75 90.77 C 111.90 98.85 107.89 106.87 104.60 115.21 C 102.18 108.99 99.74 102.65 99.15 95.95 C 99.27 91.85 100.46 87.84 102.14 84.12 Z" />
<path fill="#ffffff" opacity="1.00" d=" M 158.36 452.05 C 159.03 449.38 155.58 449.22 154.07 447.98 C 156.82 447.01 160.72 448.64 159.92 452.01 C 160.22 455.97 153.86 456.60 152.92 452.95 C 152.94 451.97 152.98 450.03 153.01 449.05 C 153.96 450.43 154.50 452.01 154.91 453.63 C 156.18 453.91 158.60 454.06 158.36 452.05 Z" />
</g>
<g id="#000000ff">
<path fill="#000000" opacity="1.00" d=" M 120.86 15.62 C 138.22 4.61 159.95 1.02 180.03 5.15 C 193.64 7.47 206.91 13.56 216.35 23.82 C 223.42 31.35 228.02 41.01 230.20 51.06 C 230.70 53.69 232.69 55.65 233.75 58.03 C 236.74 64.43 236.74 72.01 234.58 78.65 C 232.66 82.53 229.37 85.49 226.96 89.04 C 223.47 94.74 218.32 99.15 213.22 103.37 C 211.81 116.64 210.30 130.06 211.69 143.41 C 211.84 146.55 213.95 149.44 213.53 152.58 C 211.42 157.74 206.63 161.31 201.91 163.99 C 199.46 165.66 197.01 163.21 195.74 161.25 C 194.76 159.57 192.82 157.21 194.67 155.46 C 197.79 151.66 201.88 148.80 205.18 145.17 C 206.15 144.16 205.92 142.62 206.15 141.34 C 207.30 123.25 207.98 105.14 208.67 87.03 C 208.78 83.41 208.60 79.57 206.82 76.33 C 201.44 71.35 194.47 68.36 187.40 66.73 C 173.92 63.80 159.92 64.86 146.46 67.36 C 139.30 68.89 132.09 70.55 125.36 73.51 C 125.38 82.97 127.18 93.42 122.11 102.01 C 116.14 110.91 113.36 121.53 111.91 132.04 C 111.13 136.65 111.93 141.29 112.65 145.85 C 107.29 144.00 103.84 139.06 98.62 136.97 C 98.10 144.34 100.29 151.57 100.08 158.95 C 100.62 166.68 99.34 175.28 103.85 182.08 C 106.76 178.65 106.48 173.93 107.89 169.87 C 109.67 163.89 111.67 156.96 117.48 153.68 C 120.00 152.00 122.44 154.25 124.62 155.38 C 139.83 164.13 155.05 172.88 170.30 181.58 C 171.20 182.22 172.69 182.67 172.65 184.04 C 173.22 191.48 173.41 198.94 173.90 206.39 C 174.43 206.23 175.49 205.91 176.02 205.75 C 176.83 198.67 176.58 191.47 177.50 184.40 C 180.19 180.83 183.18 177.47 186.23 174.21 C 187.50 172.63 188.54 174.91 188.36 176.07 C 188.54 184.33 188.49 192.58 188.64 200.84 C 196.12 204.73 203.40 208.99 210.54 213.47 C 218.61 218.68 226.75 224.01 233.35 231.07 C 237.26 232.89 239.31 236.93 241.30 240.53 C 246.37 250.79 249.27 261.98 251.48 273.17 C 253.63 283.71 253.69 294.56 256.11 305.05 C 261.05 327.19 267.50 349.20 268.48 372.00 C 268.77 378.31 268.56 384.63 268.24 390.94 C 266.90 409.61 267.11 428.38 268.60 447.04 C 268.93 449.36 267.33 451.27 266.38 453.25 C 267.97 454.55 270.19 455.61 270.30 457.96 C 269.90 460.06 268.79 461.95 268.40 464.06 C 268.88 466.03 270.08 467.86 269.85 469.96 C 269.56 476.98 269.39 484.00 269.55 491.02 C 269.95 500.61 274.11 509.55 275.47 518.93 C 275.09 519.27 274.33 519.94 273.96 520.28 C 268.91 520.48 263.98 518.46 258.91 519.14 C 254.58 519.31 250.71 521.65 247.79 524.73 C 246.77 523.97 245.65 523.20 245.30 521.91 C 242.68 515.51 240.11 508.91 239.86 501.91 C 238.73 496.33 236.80 490.83 237.03 485.04 C 237.88 475.84 235.81 466.69 234.12 457.69 C 229.00 461.65 222.33 462.54 216.12 463.58 C 205.14 464.56 194.09 463.65 183.08 464.00 C 167.74 464.41 152.40 463.82 137.06 463.92 C 122.70 464.35 108.38 461.78 94.04 463.57 C 93.38 467.91 95.71 471.65 98.06 475.04 C 101.06 481.32 98.85 488.56 100.47 495.16 C 103.51 508.30 105.85 521.65 107.01 535.08 C 93.33 533.00 80.43 539.49 67.93 544.03 C 66.61 544.83 65.72 542.96 65.53 541.94 C 64.71 534.98 67.24 527.25 63.14 520.96 C 59.58 514.31 53.09 510.19 48.22 504.69 C 42.58 495.93 40.00 485.51 34.11 476.87 C 31.40 473.06 27.60 470.07 25.41 465.88 C 21.70 458.79 20.34 450.80 19.02 443.00 C 17.74 435.63 17.52 428.02 14.90 420.95 C 12.77 414.02 8.23 407.56 8.87 400.03 C 9.17 393.67 8.45 387.33 8.66 380.98 C 9.20 370.73 6.47 360.68 3.56 350.96 C 2.83 348.02 2.96 344.96 3.03 341.96 C 3.50 331.23 5.17 320.61 6.18 309.93 C 6.40 290.78 5.96 271.16 11.60 252.64 C 21.91 230.32 37.53 209.61 59.00 197.03 C 68.93 191.16 80.21 188.10 91.60 186.80 C 88.89 180.14 85.80 171.80 90.04 165.13 C 91.62 162.10 94.07 159.65 96.02 156.87 C 97.39 154.99 96.35 152.70 95.37 150.93 C 92.94 146.69 92.50 141.52 93.35 136.78 C 93.88 133.33 97.69 132.11 99.31 129.32 C 101.84 125.25 103.36 120.66 104.73 116.11 C 101.00 113.61 100.19 108.82 96.87 106.03 C 92.27 87.04 90.68 66.68 96.79 47.84 C 100.71 34.72 109.32 23.02 120.86 15.62 M 146.50 7.38 C 141.09 8.78 135.45 9.95 130.61 12.85 C 128.87 12.76 127.47 14.09 125.98 14.79 C 117.21 19.66 109.45 26.61 104.52 35.42 C 94.97 51.42 93.98 70.77 95.63 88.88 C 99.40 76.16 110.37 67.47 121.26 60.86 C 126.75 57.34 133.28 56.08 138.93 52.93 C 156.20 40.26 178.86 35.89 199.84 39.21 C 209.45 40.78 219.28 43.46 226.99 49.70 C 224.29 37.51 217.51 25.91 207.18 18.70 C 200.17 13.28 191.77 9.76 183.08 8.16 C 171.22 4.77 158.48 4.42 146.50 7.38 M 145.67 50.85 C 150.75 50.08 155.78 48.99 160.90 48.49 C 178.71 46.69 197.74 49.00 212.90 59.17 C 220.79 64.28 228.14 72.06 228.48 81.99 C 236.04 73.29 233.92 58.88 225.52 51.46 C 219.99 46.73 212.96 44.20 205.99 42.46 C 185.84 37.77 163.56 40.13 145.67 50.85 M 102.14 84.12 C 100.46 87.84 99.27 91.85 99.15 95.95 C 99.74 102.65 102.18 108.99 104.60 115.21 C 107.89 106.87 111.90 98.85 115.75 90.77 C 117.46 87.65 115.69 83.09 112.22 82.11 C 108.72 81.15 105.26 82.69 102.14 84.12 M 111.63 165.43 C 108.91 171.24 109.37 178.24 105.36 183.47 C 110.14 189.67 115.74 195.31 119.63 202.16 C 121.41 204.90 120.30 208.99 122.95 211.15 C 127.05 212.58 131.73 211.25 135.75 213.16 C 136.24 214.35 135.93 215.23 134.82 215.81 C 131.63 217.98 127.79 219.07 123.99 219.52 C 122.20 219.59 119.92 219.83 118.75 218.14 C 116.41 214.78 116.47 210.28 114.03 206.99 C 110.39 204.23 106.16 202.31 102.64 199.36 C 98.57 196.37 95.57 192.28 92.46 188.37 C 87.72 190.13 82.65 190.49 77.79 191.75 C 61.13 196.12 46.71 206.71 35.34 219.40 C 32.35 223.21 28.68 226.64 26.79 231.18 C 24.59 233.04 23.41 235.78 21.85 238.15 C 28.78 231.81 36.47 226.39 44.41 221.39 C 46.11 221.12 47.78 220.48 49.02 219.26 C 52.29 218.40 55.60 219.07 58.52 220.67 C 73.27 230.07 87.39 240.64 99.79 253.03 C 102.52 256.32 105.98 259.49 106.81 263.88 C 106.89 266.98 105.47 269.87 105.15 272.94 C 104.34 279.61 103.77 286.37 104.41 293.09 C 104.79 297.79 106.55 302.33 106.29 307.09 C 106.05 317.39 103.84 327.50 102.43 337.67 C 101.92 340.99 102.29 344.58 100.61 347.61 C 98.58 351.47 95.23 354.37 91.82 356.99 C 90.26 358.42 87.70 359.54 87.73 362.00 C 88.37 367.69 92.59 372.29 93.09 378.02 C 93.54 381.61 92.16 385.03 91.17 388.41 C 88.98 392.02 86.18 395.17 83.63 398.52 C 81.04 402.05 85.33 405.37 87.39 407.87 C 87.40 408.00 87.42 408.26 87.43 408.40 C 92.13 413.45 95.41 419.94 96.20 426.84 C 97.69 438.25 95.83 449.69 94.36 460.99 C 105.55 459.63 116.82 460.39 128.02 461.20 C 150.79 461.13 173.58 461.93 196.35 460.99 C 197.71 461.81 199.30 459.54 198.33 458.41 C 198.27 452.57 198.25 446.70 199.27 440.93 C 199.34 440.24 199.47 438.86 199.53 438.17 C 200.01 426.47 197.79 414.86 194.50 403.68 C 190.19 383.62 189.57 363.00 186.79 342.73 C 186.08 329.47 184.67 316.23 184.64 302.94 C 184.93 290.52 183.78 278.10 182.00 265.82 C 181.20 256.82 179.86 247.87 178.54 238.93 C 177.20 228.98 175.53 219.06 173.91 209.15 C 173.06 208.70 172.22 208.26 171.38 207.82 C 171.17 200.08 170.50 192.36 170.35 184.61 C 157.17 176.67 143.71 169.19 130.39 161.48 C 126.91 159.59 123.63 157.30 120.00 155.70 C 115.28 156.29 113.30 161.59 111.63 165.43 M 179.68 185.40 C 178.85 192.21 178.92 199.12 178.37 205.96 C 178.32 207.27 177.10 208.06 176.43 209.05 C 177.42 215.26 178.17 221.51 179.61 227.64 C 179.57 228.79 179.58 230.02 180.07 231.09 C 181.12 240.76 182.68 250.37 184.01 260.01 C 185.25 272.65 187.19 285.26 187.18 297.98 C 186.94 312.36 188.04 326.72 189.26 341.04 C 190.64 357.09 192.40 373.12 194.27 389.13 C 195.66 402.62 200.91 415.40 201.67 429.00 C 202.61 437.25 200.17 445.40 200.77 453.66 C 200.71 455.04 200.65 456.43 200.61 457.83 C 200.82 459.01 201.05 460.20 201.29 461.38 C 208.05 461.06 214.92 461.43 221.51 459.60 L 221.68 459.33 C 223.22 460.14 224.41 459.80 225.26 458.32 C 228.70 458.79 232.75 456.34 234.04 452.97 C 236.88 446.71 235.53 439.73 235.35 433.13 C 235.28 425.65 236.34 418.22 236.78 410.77 C 237.49 403.53 238.11 396.27 238.79 389.02 C 240.30 375.82 240.77 362.50 243.23 349.42 L 243.33 350.02 C 247.32 331.01 248.68 311.44 247.06 292.08 C 245.46 276.38 242.76 260.58 236.99 245.84 C 235.23 240.42 233.40 234.73 229.37 230.51 L 229.33 230.22 C 217.53 219.25 203.32 211.25 189.18 203.71 C 188.15 203.16 187.13 202.61 186.11 202.06 C 185.68 194.06 185.83 186.05 185.71 178.04 C 183.64 180.44 181.19 182.58 179.68 185.40 M 45.99 224.05 C 37.73 228.75 29.98 234.47 23.37 241.32 C 19.55 245.60 15.53 249.99 13.49 255.45 C 8.39 273.49 8.82 292.43 8.54 311.00 C 7.56 322.31 5.70 333.56 5.48 344.92 C 5.33 350.15 7.61 354.97 8.66 359.99 C 10.12 366.89 11.57 373.90 11.13 381.00 C 10.79 387.70 12.04 394.36 11.52 401.05 C 10.93 406.78 14.38 411.73 16.21 416.92 C 22.77 432.49 20.24 450.55 28.28 465.64 C 31.82 471.22 37.16 475.46 40.16 481.46 C 40.94 483.07 41.73 484.71 42.53 486.32 L 42.92 486.58 C 44.22 491.61 46.50 496.33 48.75 501.01 C 50.93 505.70 55.66 508.24 59.04 511.94 C 62.69 515.79 66.25 520.12 67.51 525.39 C 68.41 530.66 67.72 536.04 67.89 541.36 C 79.57 536.85 91.57 531.63 104.36 532.28 C 102.93 521.07 101.45 509.82 98.59 498.87 C 96.77 492.20 97.73 485.23 96.85 478.44 L 96.32 479.20 L 96.97 477.89 C 94.71 474.57 91.84 471.24 91.66 467.03 C 91.22 461.31 92.49 455.67 93.04 450.00 C 94.14 438.99 95.65 426.74 89.62 416.82 C 86.95 412.17 82.73 408.61 80.28 403.86 C 78.10 398.29 84.06 394.80 86.43 390.58 L 86.71 390.43 C 88.92 386.39 91.11 381.75 89.84 377.05 C 88.18 371.39 83.95 366.30 84.69 360.10 C 85.58 358.69 86.64 357.40 87.52 355.98 C 92.97 352.84 98.52 347.94 98.81 341.18 C 99.85 330.07 102.37 319.14 103.08 308.00 C 103.47 302.54 101.03 297.42 101.04 292.00 C 100.97 284.71 100.61 277.30 102.37 270.16 C 102.92 267.35 104.39 264.17 102.33 261.61 C 96.96 253.48 89.14 247.43 81.79 241.21 C 73.32 234.56 64.71 227.99 55.29 222.73 C 52.28 220.66 48.78 222.57 45.99 224.05 M 240.18 244.95 C 240.84 249.08 242.44 252.97 243.49 257.00 C 246.23 267.20 248.42 277.59 249.34 288.12 C 249.49 289.58 249.62 291.09 250.31 292.41 C 249.96 296.84 250.37 301.29 250.58 305.72 C 250.79 311.54 249.87 317.36 250.49 323.17 C 250.06 325.33 249.78 327.51 249.50 329.71 L 249.09 329.94 C 248.63 341.18 245.37 352.07 243.90 363.19 C 243.81 364.00 243.64 365.61 243.55 366.42 C 243.19 369.13 242.98 371.86 242.82 374.60 C 242.43 377.89 242.06 381.18 241.88 384.49 C 241.20 391.40 240.45 398.32 240.03 405.26 C 240.03 405.63 240.02 406.39 240.01 406.76 C 239.04 412.79 238.79 418.91 238.14 424.98 C 237.23 433.79 239.43 442.59 238.29 451.39 C 237.43 453.48 235.98 455.62 236.55 457.99 C 237.74 465.29 239.43 472.58 239.57 480.00 C 239.01 485.40 239.25 490.89 240.84 496.12 C 241.96 499.47 242.35 502.98 242.78 506.48 C 243.69 511.42 245.76 516.05 247.53 520.72 C 254.55 514.57 264.32 516.08 272.75 517.44 C 271.58 511.16 269.34 505.14 268.21 498.85 C 266.29 490.66 267.20 482.19 267.06 473.86 C 267.35 471.18 267.48 468.43 266.29 465.94 C 264.90 463.17 266.75 460.31 267.63 457.71 C 266.15 456.39 263.71 455.38 263.80 453.04 C 265.08 450.44 266.30 447.77 265.81 444.79 L 265.52 444.77 C 264.68 429.38 264.48 413.97 264.91 398.57 C 266.06 388.33 266.19 377.93 265.51 367.65 C 264.20 352.69 261.27 337.89 257.33 323.42 C 255.87 315.62 253.44 308.02 252.33 300.15 C 251.91 297.96 251.78 295.67 250.88 293.61 C 250.20 276.96 246.53 260.35 240.18 244.95 Z" />
</g>
<g id="#ffcc00ff">
<path fill="#ffcc00" opacity="1.00" d=" M 146.50 7.38 C 158.48 4.42 171.22 4.77 183.08 8.16 C 191.77 9.76 200.17 13.28 207.18 18.70 C 201.02 17.81 194.81 17.26 188.63 16.52 C 190.55 23.04 192.41 29.59 193.87 36.23 C 184.54 28.33 173.48 22.82 162.06 18.62 C 148.40 23.27 135.54 29.91 122.87 36.75 C 127.85 28.31 133.73 19.97 141.90 14.33 C 142.35 14.04 143.25 13.46 143.70 13.18 C 139.33 13.31 134.96 13.26 130.61 12.85 C 135.45 9.95 141.09 8.78 146.50 7.38 Z" />
<path fill="#ffcc00" opacity="1.00" d=" M 183.13 236.51 C 190.87 251.99 197.82 267.87 203.95 284.06 C 215.76 285.50 227.58 286.83 239.39 288.24 C 232.41 295.61 225.12 302.68 217.99 309.91 C 216.08 311.96 213.67 313.63 212.24 316.07 C 218.81 338.06 223.35 360.62 227.64 383.16 C 223.56 377.97 220.07 372.32 215.71 367.35 C 207.93 357.59 198.71 349.13 189.26 341.04 C 188.04 326.72 186.94 312.36 187.18 297.98 C 187.19 285.26 185.25 272.65 184.01 260.01 C 183.89 252.17 183.34 244.34 183.13 236.51 Z" />
<path fill="#ffcc00" opacity="1.00" d=" M 178.54 238.93 C 179.86 247.87 181.20 256.82 182.00 265.82 C 181.32 274.55 182.63 283.26 182.61 292.00 C 183.12 309.31 183.72 326.63 185.15 343.89 C 172.30 353.02 161.33 364.44 150.24 375.56 C 150.09 371.56 149.36 367.63 148.70 363.70 C 148.76 363.47 148.88 363.02 148.93 362.80 C 153.66 346.54 158.71 330.37 163.32 314.08 C 153.37 305.76 143.65 297.17 133.82 288.70 C 132.66 287.68 131.48 286.68 130.31 285.67 C 130.01 285.40 129.41 284.85 129.10 284.58 C 130.05 284.48 130.99 284.39 131.94 284.30 C 144.95 283.97 157.94 283.08 170.94 282.60 C 173.36 268.02 176.63 253.57 178.54 238.93 Z" />
<path fill="#ffcc00" opacity="1.00" d=" M 54.54 257.77 C 56.48 265.30 58.04 272.93 59.67 280.54 C 67.15 281.80 74.71 282.55 82.20 283.77 C 76.19 288.18 69.50 291.59 63.07 295.35 C 63.98 303.21 66.05 310.90 66.87 318.78 C 61.23 313.47 55.27 308.53 49.63 303.23 C 42.59 306.64 35.84 310.63 28.87 314.17 C 31.81 306.92 35.05 299.80 37.91 292.51 C 32.29 287.42 26.94 282.06 21.50 276.79 C 29.17 277.30 36.79 278.31 44.46 278.79 C 47.61 271.69 51.20 264.78 54.54 257.77 Z" />
<path fill="#ffcc00" opacity="1.00" d=" M 250.31 292.41 L 250.88 293.61 C 251.78 295.67 251.91 297.96 252.33 300.15 C 253.44 308.02 255.87 315.62 257.33 323.42 C 254.98 325.82 252.41 328.02 249.50 329.71 C 249.78 327.51 250.06 325.33 250.49 323.17 C 251.76 318.10 252.65 312.96 253.66 307.84 C 252.63 307.13 251.60 306.42 250.58 305.72 C 250.37 301.29 249.96 296.84 250.31 292.41 Z" />
<path fill="#ffcc00" opacity="1.00" d=" M 42.97 345.77 C 45.26 347.89 47.56 350.00 49.91 352.06 C 49.92 351.18 49.93 349.41 49.94 348.52 C 51.62 352.08 53.39 355.59 55.11 359.13 C 57.15 359.01 59.19 358.89 61.24 358.79 C 62.16 361.08 64.02 363.52 63.26 366.10 C 60.90 367.76 57.98 368.24 55.43 369.51 C 54.99 370.99 54.93 372.56 54.74 374.10 C 57.57 372.60 60.54 371.20 63.82 371.28 C 63.35 371.79 62.40 372.81 61.93 373.32 C 64.39 380.96 68.14 388.11 70.93 395.64 C 63.99 391.86 57.10 388.00 50.17 384.19 C 46.31 387.68 42.30 391.00 38.42 394.47 C 36.84 393.72 35.26 392.97 33.67 392.26 C 34.38 386.94 35.45 381.68 36.03 376.35 C 29.22 372.47 22.56 368.33 15.82 364.32 C 23.58 363.07 31.46 362.53 39.15 360.98 C 40.82 356.40 41.53 351.53 42.74 346.81 C 42.79 346.55 42.91 346.03 42.97 345.77 Z" />
<path fill="#ffcc00" opacity="1.00" d=" M 246.26 365.90 C 252.69 366.37 259.09 367.08 265.51 367.65 C 266.19 377.93 266.06 388.33 264.91 398.57 L 263.73 399.17 C 261.39 398.74 259.13 398.02 256.85 397.41 C 258.82 392.31 261.24 387.39 263.20 382.28 C 260.95 380.17 258.71 378.04 256.47 375.92 C 258.73 373.86 262.96 372.37 262.25 368.65 C 259.10 369.72 256.17 371.32 253.20 372.81 L 252.94 372.55 C 250.66 370.39 248.43 368.17 246.26 365.90 Z" />
<path fill="#ffcc00" opacity="1.00" d=" M 145.29 373.37 L 145.53 373.84 C 146.85 374.71 148.22 375.47 149.59 376.26 C 147.38 378.57 145.15 380.87 142.91 383.16 C 143.81 379.93 144.93 376.72 145.29 373.37 Z" />
<path fill="#ffcc00" opacity="1.00" d=" M 55.14 424.35 C 58.28 428.90 61.20 433.59 64.16 438.26 L 64.36 438.57 C 57.58 444.96 51.17 451.74 44.41 458.15 C 40.06 456.27 35.62 454.56 31.55 452.12 C 38.53 450.16 45.58 448.43 52.59 446.59 C 53.50 439.18 54.22 431.75 55.14 424.35 Z" />
<path fill="#ffcc00" opacity="1.00" d=" M 71.66 442.26 C 77.43 440.82 83.30 439.81 89.09 438.48 C 84.63 444.23 79.78 449.68 75.20 455.33 C 76.28 460.41 80.45 464.44 82.31 469.35 C 72.58 467.58 63.30 463.70 53.41 462.83 C 56.79 465.22 60.68 466.71 64.72 467.55 C 60.05 473.17 54.79 478.27 50.00 483.78 C 50.32 476.48 51.07 469.20 51.33 461.90 C 49.80 460.33 47.50 459.79 45.66 458.66 C 50.92 456.13 55.46 452.40 60.48 449.45 C 63.72 447.58 66.72 445.36 69.56 442.93 C 70.25 442.69 70.95 442.47 71.66 442.26 Z" />
<path fill="#ffcc00" opacity="1.00" d=" M 247.88 444.10 C 253.76 444.27 259.64 444.52 265.52 444.77 L 265.81 444.79 C 266.30 447.77 265.08 450.44 263.80 453.04 C 263.71 455.38 266.15 456.39 267.63 457.71 C 266.75 460.31 264.90 463.17 266.29 465.94 C 267.48 468.43 267.35 471.18 267.06 473.86 C 263.74 475.80 260.48 477.84 257.20 479.84 C 259.45 473.31 262.11 466.93 264.35 460.40 C 265.36 458.70 263.48 457.59 262.43 456.58 C 257.56 452.45 252.68 448.31 247.88 444.10 Z" />
<path fill="#ffcc00" opacity="1.00" d=" M 77.56 471.77 C 79.74 471.91 81.93 471.97 84.11 472.17 C 84.81 473.09 85.40 474.10 86.01 475.10 C 83.12 474.19 80.28 473.10 77.56 471.77 Z" />
</g>
<g id="#7c509cff">
<path fill="#7c509c" opacity="1.00" d=" M 125.98 14.79 C 127.47 14.09 128.87 12.76 130.61 12.85 C 134.96 13.26 139.33 13.31 143.70 13.18 C 143.25 13.46 142.35 14.04 141.90 14.33 C 138.19 13.18 134.03 12.72 130.33 14.15 C 127.72 15.90 125.89 18.54 123.93 20.95 C 118.78 27.75 113.52 34.77 111.02 43.04 C 109.95 46.89 109.66 51.45 112.18 54.81 C 114.32 57.92 117.95 59.38 121.26 60.86 C 110.37 67.47 99.40 76.16 95.63 88.88 C 93.98 70.77 94.97 51.42 104.52 35.42 C 109.45 26.61 117.21 19.66 125.98 14.79 Z" />
<path fill="#7c509c" opacity="1.00" d=" M 119.72 170.07 C 126.50 172.19 132.58 176.02 138.97 179.06 C 143.76 181.68 148.89 183.73 153.30 187.00 C 145.28 183.89 137.78 179.59 130.02 175.88 C 126.50 174.11 122.84 172.51 119.72 170.07 Z" />
<path fill="#7c509c" opacity="1.00" d=" M 143.96 173.93 C 147.38 175.37 150.37 177.59 153.05 180.13 C 149.68 178.61 146.71 176.38 143.96 173.93 Z" />
<path fill="#7c509c" opacity="1.00" d=" M 153.90 180.86 C 156.27 181.79 158.42 183.19 160.11 185.11 C 157.83 184.03 155.72 182.61 153.90 180.86 Z" />
<path fill="#7c509c" opacity="1.00" d=" M 186.11 202.06 C 187.13 202.61 188.15 203.16 189.18 203.71 C 189.15 209.13 189.35 214.55 189.82 219.96 C 186.63 216.16 182.59 213.11 179.81 208.98 C 181.33 206.20 183.85 204.20 186.11 202.06 Z" />
<path fill="#7c509c" opacity="1.00" d=" M 49.02 219.26 C 53.56 215.44 54.18 208.64 59.57 205.64 C 58.77 207.43 57.73 209.15 57.31 211.09 C 57.47 214.31 58.33 217.45 58.52 220.67 C 55.60 219.07 52.29 218.40 49.02 219.26 Z" />
<path fill="#7c509c" opacity="1.00" d=" M 26.79 231.18 C 32.63 227.89 37.45 222.23 44.41 221.39 C 36.47 226.39 28.78 231.81 21.85 238.15 C 23.41 235.78 24.59 233.04 26.79 231.18 Z" />
<path fill="#7c509c" opacity="1.00" d=" M 180.47 222.68 C 181.98 226.47 182.36 230.56 182.43 234.61 C 181.66 233.42 180.84 232.26 180.07 231.09 C 179.58 230.02 179.57 228.79 179.61 227.64 C 179.84 225.97 180.15 224.32 180.47 222.68 Z" />
<path fill="#7c509c" opacity="1.00" d=" M 233.23 247.10 C 232.84 241.37 229.96 236.20 229.37 230.51 C 233.40 234.73 235.23 240.42 236.99 245.84 C 237.54 254.54 237.23 263.27 236.96 271.98 C 236.72 276.32 237.10 280.83 235.41 284.95 C 233.84 272.41 233.74 259.72 233.23 247.10 Z" />
<path fill="#7c509c" opacity="1.00" d=" M 109.15 242.19 C 112.30 243.48 113.81 246.81 115.35 249.61 C 116.64 252.48 118.33 255.57 117.77 258.81 C 115.47 262.43 111.94 265.06 109.48 268.56 C 107.17 271.58 106.32 275.38 105.57 279.03 C 103.65 287.28 108.19 295.05 110.06 302.88 C 112.62 309.28 110.85 316.17 109.57 322.63 C 108.32 328.74 105.02 334.48 105.16 340.83 C 114.24 356.88 130.69 367.56 138.74 384.33 C 143.76 394.41 151.07 403.08 158.31 411.62 C 163.05 416.88 167.75 422.57 174.28 425.69 C 182.68 429.89 191.11 434.02 199.53 438.17 C 199.47 438.86 199.34 440.24 199.27 440.93 C 193.98 437.70 188.14 435.63 182.34 433.55 C 173.02 429.44 164.00 424.37 156.21 417.76 C 151.29 413.82 150.04 407.34 146.75 402.25 C 136.78 386.25 125.80 370.81 113.36 356.62 C 110.75 354.05 108.14 350.46 104.17 350.30 C 99.12 351.08 97.92 359.22 102.24 361.77 C 109.33 366.92 116.31 372.30 122.42 378.62 C 123.93 380.09 124.67 382.11 125.41 384.04 C 120.02 381.60 115.43 377.83 110.82 374.20 C 104.19 368.82 97.42 363.48 91.82 356.99 C 95.23 354.37 98.58 351.47 100.61 347.61 C 102.29 344.58 101.92 340.99 102.43 337.67 C 103.84 327.50 106.05 317.39 106.29 307.09 C 106.55 302.33 104.79 297.79 104.41 293.09 C 103.77 286.37 104.34 279.61 105.15 272.94 C 105.47 269.87 106.89 266.98 106.81 263.88 C 105.98 259.49 102.52 256.32 99.79 253.03 C 102.48 249.12 104.78 244.48 109.15 242.19 Z" />
<path fill="#7c509c" opacity="1.00" d=" M 130.31 285.67 C 131.48 286.68 132.66 287.68 133.82 288.70 C 133.12 294.76 132.77 300.87 131.65 306.89 C 130.87 311.22 130.54 315.77 131.97 320.02 C 133.80 325.62 136.77 330.78 138.63 336.39 C 142.09 345.18 144.75 354.31 148.93 362.80 C 148.88 363.02 148.76 363.47 148.70 363.70 C 147.71 367.10 146.58 370.46 145.53 373.84 L 145.29 373.37 C 141.79 366.56 144.70 358.53 141.50 351.62 C 137.05 341.91 133.54 331.80 130.54 321.55 C 129.19 316.95 127.97 312.19 128.46 307.35 C 129.12 300.13 130.22 292.93 130.31 285.67 Z" />
<path fill="#7c509c" opacity="1.00" d=" M 13.39 322.55 C 20.09 323.95 26.51 326.40 32.71 329.23 C 37.31 331.34 41.65 334.23 44.81 338.24 C 44.16 340.73 43.54 343.24 42.97 345.77 C 42.91 346.03 42.79 346.55 42.74 346.81 C 40.03 341.81 34.85 338.93 30.60 335.40 C 26.29 331.80 20.73 330.59 15.83 328.14 C 13.57 327.21 13.87 324.50 13.39 322.55 Z" />
<path fill="#7c509c" opacity="1.00" d=" M 50.38 338.63 C 49.11 336.52 49.09 334.03 49.20 331.65 C 55.21 337.72 60.96 344.27 68.43 348.61 C 71.03 350.06 74.18 351.46 77.14 350.18 C 83.34 347.83 88.97 344.19 95.14 341.76 C 92.72 346.56 89.97 351.19 87.52 355.98 C 86.64 357.40 85.58 358.69 84.69 360.10 C 81.37 365.76 77.63 371.62 71.91 375.12 C 68.78 375.85 66.56 372.63 64.08 371.25 C 69.28 366.87 73.91 361.86 78.88 357.22 C 72.96 357.66 67.06 358.26 61.13 358.57 C 57.56 351.92 53.92 345.30 50.38 338.63 Z" />
<path fill="#7c509c" opacity="1.00" d=" M 239.88 356.95 C 239.80 353.57 241.42 350.51 242.92 347.59 C 243.00 348.05 243.15 348.97 243.23 349.42 C 240.77 362.50 240.30 375.82 238.79 389.02 C 238.11 396.27 237.49 403.53 236.78 410.77 C 234.66 414.41 232.18 417.91 231.03 422.03 C 229.06 427.37 229.24 433.36 226.38 438.39 C 226.86 419.27 235.01 401.45 237.19 382.56 C 229.25 389.22 222.51 397.29 216.92 406.00 C 215.75 407.74 214.19 409.16 212.63 410.54 C 214.96 405.48 218.55 401.18 221.57 396.54 C 227.15 388.13 232.91 379.84 238.37 371.36 C 241.46 367.12 239.73 361.75 239.88 356.95 Z" />
<path fill="#7c509c" opacity="1.00" d=" M 252.94 372.55 L 253.20 372.81 C 254.17 373.72 255.13 374.64 256.10 375.56 C 251.43 378.65 246.69 381.63 241.88 384.49 C 242.06 381.18 242.43 377.89 242.82 374.60 C 246.26 374.32 249.69 373.76 252.94 372.55 Z" />
<path fill="#7c509c" opacity="1.00" d=" M 11.70 378.81 C 18.75 383.50 25.32 389.10 33.35 392.12 C 33.16 393.65 32.97 395.20 32.75 396.75 C 27.01 397.76 21.43 399.47 15.89 401.26 C 12.28 394.39 11.05 386.49 11.70 378.81 Z" />
<path fill="#7c509c" opacity="1.00" d=" M 98.74 383.69 C 103.97 386.87 108.71 390.90 113.13 395.12 C 107.93 391.91 102.74 388.36 98.74 383.69 Z" />
<path fill="#7c509c" opacity="1.00" d=" M 83.63 398.52 C 86.18 395.17 88.98 392.02 91.17 388.41 C 92.63 392.37 88.96 395.05 87.43 398.25 C 86.75 401.40 87.25 404.67 87.39 407.87 C 85.33 405.37 81.04 402.05 83.63 398.52 Z" />
<path fill="#7c509c" opacity="1.00" d=" M 72.65 402.63 C 76.04 397.49 80.99 393.41 86.43 390.58 C 84.06 394.80 78.10 398.29 80.28 403.86 C 82.73 408.61 86.95 412.17 89.62 416.82 C 88.29 417.97 87.36 420.60 85.17 419.70 C 80.65 418.60 77.45 414.82 74.68 411.32 C 72.93 408.89 70.68 405.58 72.65 402.63 Z" />
<path fill="#7c509c" opacity="1.00" d=" M 243.43 403.98 C 247.10 400.65 251.34 397.34 256.56 397.36 C 255.99 398.77 255.42 400.18 254.85 401.60 C 250.96 401.95 247.14 402.76 243.43 403.98 Z" />
<path fill="#7c509c" opacity="1.00" d=" M 127.94 405.89 C 137.59 411.85 146.89 418.39 156.34 424.68 C 158.27 425.90 159.97 427.47 161.44 429.23 C 154.37 426.74 148.65 421.65 142.57 417.44 C 137.67 413.62 132.35 410.29 127.94 405.89 Z" />
<path fill="#7c509c" opacity="1.00" d=" M 201.82 420.71 C 205.48 422.38 207.67 425.89 210.08 428.94 C 212.60 432.20 214.74 435.73 216.64 439.38 C 218.27 442.83 221.85 444.55 224.47 447.12 C 221.96 447.88 219.17 447.74 217.21 445.80 C 214.12 443.89 215.26 439.88 214.00 436.99 C 210.95 430.85 205.59 426.35 201.82 420.71 Z" />
<path fill="#7c509c" opacity="1.00" d=" M 74.36 428.52 C 79.52 425.43 85.77 427.01 91.22 428.36 C 90.24 430.53 89.13 432.84 86.95 434.06 C 84.92 434.80 82.57 433.48 80.65 434.71 C 77.22 436.64 74.20 439.27 71.66 442.26 C 70.95 442.47 70.25 442.69 69.56 442.93 C 69.00 442.92 67.90 442.91 67.34 442.90 C 66.29 441.49 65.31 440.03 64.36 438.57 L 64.16 438.26 C 67.84 435.30 70.58 431.34 74.36 428.52 Z" />
<path fill="#7c509c" opacity="1.00" d=" M 241.98 443.80 C 243.12 450.85 243.08 458.10 241.56 465.09 C 240.69 468.94 241.91 472.77 243.10 476.41 C 249.64 473.94 254.68 468.84 261.03 466.01 C 257.10 469.83 252.22 472.48 248.22 476.21 C 244.30 479.51 245.54 485.50 247.67 489.49 C 251.00 490.09 254.36 489.21 257.68 488.88 C 253.16 493.23 247.53 497.50 240.84 496.12 C 239.25 490.89 239.01 485.40 239.57 480.00 C 239.43 472.58 237.74 465.29 236.55 457.99 C 235.98 455.62 237.43 453.48 238.29 451.39 C 239.50 448.85 240.72 446.31 241.98 443.80 Z" />
<path fill="#7c509c" opacity="1.00" d=" M 201.29 461.38 C 202.50 459.39 203.66 457.37 204.80 455.34 C 209.99 457.99 215.73 459.19 221.51 459.60 C 214.92 461.43 208.05 461.06 201.29 461.38 Z" />
<path fill="#7c509c" opacity="1.00" d=" M 221.68 459.33 C 222.10 457.64 223.99 457.23 225.26 458.32 C 224.41 459.80 223.22 460.14 221.68 459.33 Z" />
<path fill="#7c509c" opacity="1.00" d=" M 85.41 484.49 C 88.22 480.86 92.65 479.02 96.97 477.89 L 96.32 479.20 C 94.97 481.53 92.74 483.07 90.69 484.72 C 87.68 487.11 85.51 490.33 83.02 493.22 C 83.56 490.27 83.71 487.06 85.41 484.49 Z" />
<path fill="#7c509c" opacity="1.00" d=" M 40.16 481.46 C 41.72 481.39 43.46 481.14 44.67 482.38 C 50.86 487.46 56.40 493.48 63.46 497.40 C 67.14 499.47 72.15 500.52 73.42 505.16 C 71.51 504.57 69.61 503.98 67.83 503.09 C 59.04 498.35 51.14 492.19 42.92 486.58 L 42.53 486.32 C 41.73 484.71 40.94 483.07 40.16 481.46 Z" />
</g>
<g id="#4f107aff">
<path fill="#4f107a" opacity="1.00" d=" M 130.33 14.15 C 134.03 12.72 138.19 13.18 141.90 14.33 C 133.73 19.97 127.85 28.31 122.87 36.75 C 135.54 29.91 148.40 23.27 162.06 18.62 C 173.48 22.82 184.54 28.33 193.87 36.23 C 192.41 29.59 190.55 23.04 188.63 16.52 C 194.81 17.26 201.02 17.81 207.18 18.70 C 217.51 25.91 224.29 37.51 226.99 49.70 C 219.28 43.46 209.45 40.78 199.84 39.21 C 178.86 35.89 156.20 40.26 138.93 52.93 C 133.28 56.08 126.75 57.34 121.26 60.86 C 117.95 59.38 114.32 57.92 112.18 54.81 C 109.66 51.45 109.95 46.89 111.02 43.04 C 113.52 34.77 118.78 27.75 123.93 20.95 C 125.89 18.54 127.72 15.90 130.33 14.15 Z" />
<path fill="#4f107a" opacity="1.00" d=" M 145.67 50.85 C 163.56 40.13 185.84 37.77 205.99 42.46 C 212.96 44.20 219.99 46.73 225.52 51.46 C 233.92 58.88 236.04 73.29 228.48 81.99 C 228.14 72.06 220.79 64.28 212.90 59.17 C 197.74 49.00 178.71 46.69 160.90 48.49 C 155.78 48.99 150.75 50.08 145.67 50.85 Z" />
<path fill="#4f107a" opacity="1.00" d=" M 111.63 165.43 C 113.30 161.59 115.28 156.29 120.00 155.70 C 123.63 157.30 126.91 159.59 130.39 161.48 C 143.71 169.19 157.17 176.67 170.35 184.61 C 170.50 192.36 171.17 200.08 171.38 207.82 C 172.22 208.26 173.06 208.70 173.91 209.15 C 175.53 219.06 177.20 228.98 178.54 238.93 C 176.63 253.57 173.36 268.02 170.94 282.60 C 157.94 283.08 144.95 283.97 131.94 284.30 C 130.99 284.39 130.05 284.48 129.10 284.58 C 129.41 284.85 130.01 285.40 130.31 285.67 C 130.22 292.93 129.12 300.13 128.46 307.35 C 127.97 312.19 129.19 316.95 130.54 321.55 C 133.54 331.80 137.05 341.91 141.50 351.62 C 144.70 358.53 141.79 366.56 145.29 373.37 C 144.93 376.72 143.81 379.93 142.91 383.16 C 145.15 380.87 147.38 378.57 149.59 376.26 L 150.24 375.56 C 161.33 364.44 172.30 353.02 185.15 343.89 C 185.56 343.60 186.38 343.02 186.79 342.73 C 189.57 363.00 190.19 383.62 194.50 403.68 C 197.79 414.86 200.01 426.47 199.53 438.17 C 191.11 434.02 182.68 429.89 174.28 425.69 C 167.75 422.57 163.05 416.88 158.31 411.62 C 151.07 403.08 143.76 394.41 138.74 384.33 C 130.69 367.56 114.24 356.88 105.16 340.83 C 105.02 334.48 108.32 328.74 109.57 322.63 C 110.85 316.17 112.62 309.28 110.06 302.88 C 108.19 295.05 103.65 287.28 105.57 279.03 C 106.32 275.38 107.17 271.58 109.48 268.56 C 111.94 265.06 115.47 262.43 117.77 258.81 C 118.33 255.57 116.64 252.48 115.35 249.61 C 113.81 246.81 112.30 243.48 109.15 242.19 C 104.78 244.48 102.48 249.12 99.79 253.03 C 87.39 240.64 73.27 230.07 58.52 220.67 C 58.33 217.45 57.47 214.31 57.31 211.09 C 57.73 209.15 58.77 207.43 59.57 205.64 C 54.18 208.64 53.56 215.44 49.02 219.26 C 47.78 220.48 46.11 221.12 44.41 221.39 C 37.45 222.23 32.63 227.89 26.79 231.18 C 28.68 226.64 32.35 223.21 35.34 219.40 C 46.71 206.71 61.13 196.12 77.79 191.75 C 82.65 190.49 87.72 190.13 92.46 188.37 C 95.57 192.28 98.57 196.37 102.64 199.36 C 106.16 202.31 110.39 204.23 114.03 206.99 C 116.47 210.28 116.41 214.78 118.75 218.14 C 119.92 219.83 122.20 219.59 123.99 219.52 C 127.79 219.07 131.63 217.98 134.82 215.81 C 135.93 215.23 136.24 214.35 135.75 213.16 C 131.73 211.25 127.05 212.58 122.95 211.15 C 120.30 208.99 121.41 204.90 119.63 202.16 C 115.74 195.31 110.14 189.67 105.36 183.47 C 109.37 178.24 108.91 171.24 111.63 165.43 M 119.72 170.07 C 122.84 172.51 126.50 174.11 130.02 175.88 C 137.78 179.59 145.28 183.89 153.30 187.00 C 148.89 183.73 143.76 181.68 138.97 179.06 C 132.58 176.02 126.50 172.19 119.72 170.07 M 143.96 173.93 C 146.71 176.38 149.68 178.61 153.05 180.13 C 150.37 177.59 147.38 175.37 143.96 173.93 M 153.90 180.86 C 155.72 182.61 157.83 184.03 160.11 185.11 C 158.42 183.19 156.27 181.79 153.90 180.86 Z" />
<path fill="#4f107a" opacity="1.00" d=" M 179.68 185.40 C 181.19 182.58 183.64 180.44 185.71 178.04 C 185.83 186.05 185.68 194.06 186.11 202.06 C 183.85 204.20 181.33 206.20 179.81 208.98 C 182.59 213.11 186.63 216.16 189.82 219.96 C 189.35 214.55 189.15 209.13 189.18 203.71 C 203.32 211.25 217.53 219.25 229.33 230.22 L 229.37 230.51 C 229.96 236.20 232.84 241.37 233.23 247.10 C 233.74 259.72 233.84 272.41 235.41 284.95 C 237.10 280.83 236.72 276.32 236.96 271.98 C 237.23 263.27 237.54 254.54 236.99 245.84 C 242.76 260.58 245.46 276.38 247.06 292.08 C 248.68 311.44 247.32 331.01 243.33 350.02 L 243.23 349.42 C 243.15 348.97 243.00 348.05 242.92 347.59 C 241.42 350.51 239.80 353.57 239.88 356.95 C 239.73 361.75 241.46 367.12 238.37 371.36 C 232.91 379.84 227.15 388.13 221.57 396.54 C 218.55 401.18 214.96 405.48 212.63 410.54 C 214.19 409.16 215.75 407.74 216.92 406.00 C 222.51 397.29 229.25 389.22 237.19 382.56 C 235.01 401.45 226.86 419.27 226.38 438.39 C 229.24 433.36 229.06 427.37 231.03 422.03 C 232.18 417.91 234.66 414.41 236.78 410.77 C 236.34 418.22 235.28 425.65 235.35 433.13 C 235.53 439.73 236.88 446.71 234.04 452.97 C 232.75 456.34 228.70 458.79 225.26 458.32 C 223.99 457.23 222.10 457.64 221.68 459.33 L 221.51 459.60 C 215.73 459.19 209.99 457.99 204.80 455.34 C 203.66 457.37 202.50 459.39 201.29 461.38 C 201.05 460.20 200.82 459.01 200.61 457.83 C 203.96 454.40 208.23 449.33 205.77 444.27 C 204.88 442.81 203.89 440.70 202.13 440.33 C 201.40 443.19 204.17 445.77 203.57 448.65 C 202.97 450.48 201.79 452.04 200.77 453.66 C 200.17 445.40 202.61 437.25 201.67 429.00 C 200.91 415.40 195.66 402.62 194.27 389.13 C 192.40 373.12 190.64 357.09 189.26 341.04 C 198.71 349.13 207.93 357.59 215.71 367.35 C 220.07 372.32 223.56 377.97 227.64 383.16 C 223.35 360.62 218.81 338.06 212.24 316.07 C 213.67 313.63 216.08 311.96 217.99 309.91 C 225.12 302.68 232.41 295.61 239.39 288.24 C 227.58 286.83 215.76 285.50 203.95 284.06 C 197.82 267.87 190.87 251.99 183.13 236.51 C 182.95 236.03 182.60 235.08 182.43 234.61 C 182.36 230.56 181.98 226.47 180.47 222.68 C 180.15 224.32 179.84 225.97 179.61 227.64 C 178.17 221.51 177.42 215.26 176.43 209.05 C 177.10 208.06 178.32 207.27 178.37 205.96 C 178.92 199.12 178.85 192.21 179.68 185.40 M 201.82 420.71 C 205.59 426.35 210.95 430.85 214.00 436.99 C 215.26 439.88 214.12 443.89 217.21 445.80 C 219.17 447.74 221.96 447.88 224.47 447.12 C 221.85 444.55 218.27 442.83 216.64 439.38 C 214.74 435.73 212.60 432.20 210.08 428.94 C 207.67 425.89 205.48 422.38 201.82 420.71 Z" />
<path fill="#4f107a" opacity="1.00" d=" M 45.99 224.05 C 48.78 222.57 52.28 220.66 55.29 222.73 C 64.71 227.99 73.32 234.56 81.79 241.21 C 89.14 247.43 96.96 253.48 102.33 261.61 C 104.39 264.17 102.92 267.35 102.37 270.16 C 100.61 277.30 100.97 284.71 101.04 292.00 C 101.03 297.42 103.47 302.54 103.08 308.00 C 102.37 319.14 99.85 330.07 98.81 341.18 C 98.52 347.94 92.97 352.84 87.52 355.98 C 89.97 351.19 92.72 346.56 95.14 341.76 C 88.97 344.19 83.34 347.83 77.14 350.18 C 74.18 351.46 71.03 350.06 68.43 348.61 C 60.96 344.27 55.21 337.72 49.20 331.65 C 49.09 334.03 49.11 336.52 50.38 338.63 C 53.92 345.30 57.56 351.92 61.13 358.57 L 61.24 358.79 C 59.19 358.89 57.15 359.01 55.11 359.13 C 53.39 355.59 51.62 352.08 49.94 348.52 C 48.41 345.01 46.83 341.50 44.81 338.24 C 41.65 334.23 37.31 331.34 32.71 329.23 C 26.51 326.40 20.09 323.95 13.39 322.55 C 13.87 324.50 13.57 327.21 15.83 328.14 C 20.73 330.59 26.29 331.80 30.60 335.40 C 34.85 338.93 40.03 341.81 42.74 346.81 C 41.53 351.53 40.82 356.40 39.15 360.98 C 31.46 362.53 23.58 363.07 15.82 364.32 C 22.56 368.33 29.22 372.47 36.03 376.35 C 35.45 381.68 34.38 386.94 33.67 392.26 L 33.35 392.12 C 25.32 389.10 18.75 383.50 11.70 378.81 C 11.05 386.49 12.28 394.39 15.89 401.26 C 21.43 399.47 27.01 397.76 32.75 396.75 C 32.63 397.53 32.40 399.11 32.28 399.90 C 34.33 398.09 36.39 396.30 38.42 394.47 C 42.30 391.00 46.31 387.68 50.17 384.19 C 57.10 388.00 63.99 391.86 70.93 395.64 C 68.14 388.11 64.39 380.96 61.93 373.32 C 62.40 372.81 63.35 371.79 63.82 371.28 L 64.08 371.25 C 66.56 372.63 68.78 375.85 71.91 375.12 C 77.63 371.62 81.37 365.76 84.69 360.10 C 83.95 366.30 88.18 371.39 89.84 377.05 C 91.11 381.75 88.92 386.39 86.71 390.43 L 86.43 390.58 C 80.99 393.41 76.04 397.49 72.65 402.63 C 70.68 405.58 72.93 408.89 74.68 411.32 C 77.45 414.82 80.65 418.60 85.17 419.70 C 87.36 420.60 88.29 417.97 89.62 416.82 C 95.65 426.74 94.14 438.99 93.04 450.00 C 92.49 455.67 91.22 461.31 91.66 467.03 C 91.84 471.24 94.71 474.57 96.97 477.89 C 92.65 479.02 88.22 480.86 85.41 484.49 C 83.71 487.06 83.56 490.27 83.02 493.22 C 85.51 490.33 87.68 487.11 90.69 484.72 C 92.74 483.07 94.97 481.53 96.32 479.20 L 96.85 478.44 C 97.73 485.23 96.77 492.20 98.59 498.87 C 101.45 509.82 102.93 521.07 104.36 532.28 C 91.57 531.63 79.57 536.85 67.89 541.36 C 67.72 536.04 68.41 530.66 67.51 525.39 C 66.25 520.12 62.69 515.79 59.04 511.94 C 55.66 508.24 50.93 505.70 48.75 501.01 C 46.50 496.33 44.22 491.61 42.92 486.58 C 51.14 492.19 59.04 498.35 67.83 503.09 C 69.61 503.98 71.51 504.57 73.42 505.16 C 72.15 500.52 67.14 499.47 63.46 497.40 C 56.40 493.48 50.86 487.46 44.67 482.38 C 43.46 481.14 41.72 481.39 40.16 481.46 C 37.16 475.46 31.82 471.22 28.28 465.64 C 20.24 450.55 22.77 432.49 16.21 416.92 C 14.38 411.73 10.93 406.78 11.52 401.05 C 12.04 394.36 10.79 387.70 11.13 381.00 C 11.57 373.90 10.12 366.89 8.66 359.99 C 7.61 354.97 5.33 350.15 5.48 344.92 C 5.70 333.56 7.56 322.31 8.54 311.00 C 8.82 292.43 8.39 273.49 13.49 255.45 C 15.53 249.99 19.55 245.60 23.37 241.32 C 29.98 234.47 37.73 228.75 45.99 224.05 M 54.54 257.77 C 51.20 264.78 47.61 271.69 44.46 278.79 C 36.79 278.31 29.17 277.30 21.50 276.79 C 26.94 282.06 32.29 287.42 37.91 292.51 C 35.05 299.80 31.81 306.92 28.87 314.17 C 35.84 310.63 42.59 306.64 49.63 303.23 C 55.27 308.53 61.23 313.47 66.87 318.78 C 66.05 310.90 63.98 303.21 63.07 295.35 C 69.50 291.59 76.19 288.18 82.20 283.77 C 74.71 282.55 67.15 281.80 59.67 280.54 C 58.04 272.93 56.48 265.30 54.54 257.77 M 55.14 424.35 C 54.22 431.75 53.50 439.18 52.59 446.59 C 45.58 448.43 38.53 450.16 31.55 452.12 C 35.62 454.56 40.06 456.27 44.41 458.15 L 43.76 458.82 C 44.23 458.78 45.19 458.70 45.66 458.66 C 47.50 459.79 49.80 460.33 51.33 461.90 C 51.07 469.20 50.32 476.48 50.00 483.78 C 54.79 478.27 60.05 473.17 64.72 467.55 C 69.18 468.41 73.16 470.76 77.56 471.77 C 80.28 473.10 83.12 474.19 86.01 475.10 C 85.40 474.10 84.81 473.09 84.11 472.17 C 83.71 471.26 83.30 470.36 82.90 469.47 L 82.31 469.35 C 80.45 464.44 76.28 460.41 75.20 455.33 C 79.78 449.68 84.63 444.23 89.09 438.48 C 83.30 439.81 77.43 440.82 71.66 442.26 C 74.20 439.27 77.22 436.64 80.65 434.71 C 82.57 433.48 84.92 434.80 86.95 434.06 C 89.13 432.84 90.24 430.53 91.22 428.36 C 85.77 427.01 79.52 425.43 74.36 428.52 C 70.58 431.34 67.84 435.30 64.16 438.26 C 61.20 433.59 58.28 428.90 55.14 424.35 Z" />
<path fill="#4f107a" opacity="1.00" d=" M 240.18 244.95 C 246.53 260.35 250.20 276.96 250.88 293.61 L 250.31 292.41 C 249.62 291.09 249.49 289.58 249.34 288.12 C 248.42 277.59 246.23 267.20 243.49 257.00 C 242.44 252.97 240.84 249.08 240.18 244.95 Z" />
<path fill="#4f107a" opacity="1.00" d=" M 133.82 288.70 C 143.65 297.17 153.37 305.76 163.32 314.08 C 158.71 330.37 153.66 346.54 148.93 362.80 C 144.75 354.31 142.09 345.18 138.63 336.39 C 136.77 330.78 133.80 325.62 131.97 320.02 C 130.54 315.77 130.87 311.22 131.65 306.89 C 132.77 300.87 133.12 294.76 133.82 288.70 Z" />
<path fill="#4f107a" opacity="1.00" d=" M 250.58 305.72 C 251.60 306.42 252.63 307.13 253.66 307.84 C 252.65 312.96 251.76 318.10 250.49 323.17 C 249.87 317.36 250.79 311.54 250.58 305.72 Z" />
<path fill="#4f107a" opacity="1.00" d=" M 249.50 329.71 C 252.41 328.02 254.98 325.82 257.33 323.42 C 261.27 337.89 264.20 352.69 265.51 367.65 C 259.09 367.08 252.69 366.37 246.26 365.90 C 248.43 368.17 250.66 370.39 252.94 372.55 C 249.69 373.76 246.26 374.32 242.82 374.60 C 242.98 371.86 243.19 369.13 243.55 366.42 C 248.44 362.36 252.69 357.62 257.38 353.33 C 259.17 351.74 260.55 349.77 261.62 347.64 C 254.54 351.35 250.09 358.33 243.90 363.19 C 245.37 352.07 248.63 341.18 249.09 329.94 L 249.50 329.71 Z" />
<path fill="#4f107a" opacity="1.00" d=" M 102.24 361.77 C 97.92 359.22 99.12 351.08 104.17 350.30 C 108.14 350.46 110.75 354.05 113.36 356.62 C 125.80 370.81 136.78 386.25 146.75 402.25 C 150.04 407.34 151.29 413.82 156.21 417.76 C 164.00 424.37 173.02 429.44 182.34 433.55 C 188.14 435.63 193.98 437.70 199.27 440.93 C 198.25 446.70 198.27 452.57 198.33 458.41 C 197.14 458.65 196.29 459.77 196.35 460.99 C 173.58 461.93 150.79 461.13 128.02 461.20 C 116.82 460.39 105.55 459.63 94.36 460.99 C 95.83 449.69 97.69 438.25 96.20 426.84 C 95.41 419.94 92.13 413.45 87.43 408.40 C 87.42 408.26 87.40 408.00 87.39 407.87 C 87.25 404.67 86.75 401.40 87.43 398.25 C 88.96 395.05 92.63 392.37 91.17 388.41 C 92.16 385.03 93.54 381.61 93.09 378.02 C 92.59 372.29 88.37 367.69 87.73 362.00 C 87.70 359.54 90.26 358.42 91.82 356.99 C 97.42 363.48 104.19 368.82 110.82 374.20 C 115.43 377.83 120.02 381.60 125.41 384.04 C 124.67 382.11 123.93 380.09 122.42 378.62 C 116.31 372.30 109.33 366.92 102.24 361.77 M 98.74 383.69 C 102.74 388.36 107.93 391.91 113.13 395.12 C 108.71 390.90 103.97 386.87 98.74 383.69 M 95.99 405.81 C 96.73 408.59 97.87 411.26 99.43 413.69 C 103.48 420.15 107.88 426.41 112.75 432.29 C 113.82 433.58 115.15 434.58 116.49 435.59 C 115.32 431.80 112.89 428.63 110.68 425.42 C 105.88 418.81 101.47 411.88 95.99 405.81 M 127.94 405.89 C 132.35 410.29 137.67 413.62 142.57 417.44 C 148.65 421.65 154.37 426.74 161.44 429.23 C 159.97 427.47 158.27 425.90 156.34 424.68 C 146.89 418.39 137.59 411.85 127.94 405.89 M 129.77 442.64 C 130.11 440.58 130.17 438.49 129.83 436.43 C 128.16 438.07 128.36 440.90 129.77 442.64 M 150.72 438.85 C 151.19 439.90 151.66 440.95 152.13 442.00 C 153.36 442.04 154.59 442.09 155.83 442.14 C 156.13 441.57 156.74 440.44 157.05 439.87 C 156.63 438.88 156.22 437.88 155.80 436.89 C 153.83 436.77 152.07 437.39 150.72 438.85 M 158.45 438.98 C 159.24 438.71 160.82 438.17 161.61 437.90 C 160.71 439.28 159.77 440.63 158.83 441.99 C 159.53 442.02 160.93 442.09 161.62 442.12 C 161.66 440.34 161.75 438.55 161.78 436.78 C 160.49 437.23 159.24 437.81 158.45 438.98 M 162.52 438.41 C 162.71 439.24 163.10 440.91 163.30 441.74 C 164.01 441.77 165.44 441.84 166.15 441.88 C 166.18 441.01 166.23 439.27 166.25 438.40 C 166.87 438.63 168.11 439.09 168.73 439.33 C 168.60 439.95 168.34 441.19 168.21 441.82 C 168.54 441.83 169.21 441.85 169.54 441.86 C 169.53 440.29 169.53 438.73 169.55 437.18 L 169.23 437.41 C 167.72 438.11 165.97 438.15 164.63 437.05 C 163.92 437.49 163.22 437.95 162.52 438.41 M 171.26 437.37 C 171.25 439.07 170.62 441.29 172.26 442.48 C 173.14 442.17 173.94 441.72 174.66 441.11 C 174.70 439.48 172.91 439.09 171.93 438.22 C 172.54 437.93 173.75 437.35 174.36 437.06 C 173.58 437.14 172.03 437.29 171.26 437.37 M 131.20 438.41 C 131.04 439.61 130.88 440.81 130.72 442.02 L 131.51 442.10 C 131.80 441.25 132.37 439.56 132.65 438.71 C 132.84 439.70 133.21 441.70 133.39 442.70 C 133.65 441.75 134.16 439.85 134.42 438.89 C 134.90 440.06 135.40 441.24 135.90 442.41 C 135.90 441.06 135.90 439.71 135.89 438.37 C 134.33 438.39 132.76 438.40 131.20 438.41 M 137.80 437.66 C 138.06 438.19 138.57 439.26 138.82 439.80 C 138.18 439.63 136.90 439.29 136.26 439.12 C 136.38 439.85 136.61 441.32 136.73 442.05 C 137.73 442.11 139.74 442.24 140.74 442.30 C 140.55 440.27 140.48 437.70 137.80 437.66 M 141.13 440.18 C 140.84 442.16 143.41 442.19 144.63 443.06 C 144.74 442.32 144.96 440.85 145.07 440.11 C 145.63 440.74 146.74 442.00 147.30 442.63 C 148.87 442.52 148.56 440.12 149.12 439.05 C 148.59 438.81 147.52 438.35 146.99 438.11 C 146.48 438.63 145.45 439.67 144.94 440.18 L 144.59 438.22 C 143.24 438.57 141.07 438.16 141.13 440.18 M 111.27 442.29 C 110.61 442.30 109.30 442.32 108.65 442.33 C 108.94 441.76 109.51 440.62 109.80 440.05 C 109.26 439.87 108.18 439.50 107.64 439.32 C 107.54 440.34 107.33 442.37 107.23 443.39 C 106.52 442.14 105.81 440.89 105.10 439.65 C 105.38 441.29 105.70 442.92 106.01 444.57 C 104.42 444.69 104.25 446.71 104.20 447.95 C 104.21 450.64 103.83 453.53 104.79 456.09 C 107.66 458.78 111.96 458.02 115.39 456.89 L 115.36 456.29 C 115.99 452.22 115.91 448.01 114.86 444.03 C 114.29 442.53 115.35 441.11 115.70 439.72 C 114.70 440.83 113.69 441.91 112.67 443.02 C 112.63 441.97 112.53 439.87 112.49 438.82 C 111.50 439.74 111.19 440.96 111.27 442.29 M 142.57 443.23 C 143.05 443.76 143.05 443.76 142.57 443.23 M 128.73 443.95 C 128.47 447.15 128.33 450.38 128.60 453.59 C 128.44 454.89 131.27 456.74 130.80 454.48 C 129.42 451.08 131.70 446.56 128.73 443.95 M 132.49 444.39 C 132.12 447.74 132.05 451.16 132.45 454.52 C 133.10 454.84 134.40 455.48 135.05 455.80 C 133.35 452.22 134.49 448.20 133.62 444.47 C 133.34 444.45 132.77 444.41 132.49 444.39 M 118.63 455.54 C 119.99 455.01 120.95 454.07 121.50 452.71 C 122.56 452.68 123.62 452.66 124.69 452.66 C 125.17 454.12 126.12 455.04 127.55 455.42 C 126.39 451.42 125.29 447.31 122.99 443.79 C 120.92 447.45 119.67 451.49 118.63 455.54 M 143.92 447.95 C 143.63 448.42 143.04 449.36 142.74 449.83 C 140.94 447.66 136.84 446.63 135.78 450.08 C 133.79 454.15 140.25 457.71 142.59 453.85 C 140.43 454.04 138.19 454.10 136.90 452.03 C 138.89 451.89 140.91 451.70 142.91 451.94 C 143.58 452.90 143.81 454.09 143.60 455.52 C 143.99 455.45 144.78 455.30 145.18 455.22 C 145.24 452.87 145.00 450.36 146.63 448.41 C 147.31 448.96 147.98 449.54 148.64 450.14 C 148.67 451.81 148.75 453.52 148.84 455.20 C 150.05 455.31 151.42 455.76 152.41 454.76 C 149.58 454.24 148.97 448.89 152.24 448.54 C 151.85 448.26 151.07 447.69 150.68 447.40 C 149.46 444.15 146.40 449.15 143.92 447.95 M 169.38 450.58 C 170.71 451.75 172.18 452.76 173.49 453.97 C 171.91 453.91 170.34 453.82 168.77 453.74 C 169.77 455.84 172.15 455.67 173.96 454.81 C 174.42 455.10 174.87 455.40 175.33 455.71 C 176.55 454.29 177.88 454.06 179.19 455.50 C 179.71 455.18 180.74 454.55 181.26 454.23 C 181.67 454.54 182.48 455.14 182.89 455.45 C 184.26 454.98 185.66 454.57 187.07 454.24 C 186.86 453.91 186.44 453.25 186.23 452.93 C 186.78 453.51 187.87 454.67 188.41 455.26 C 188.62 454.64 189.03 453.40 189.24 452.78 C 189.77 453.83 190.29 454.88 190.80 455.95 C 190.85 454.91 190.95 452.83 191.00 451.79 C 189.15 451.74 187.30 451.82 185.53 452.41 C 183.08 452.34 180.64 452.39 178.20 452.22 C 177.86 452.72 177.19 453.74 176.86 454.25 C 176.26 454.24 175.07 454.23 174.47 454.23 C 175.26 451.52 171.83 450.91 170.55 449.17 C 172.03 449.16 173.53 449.20 175.01 449.21 C 173.48 446.94 168.95 447.28 169.38 450.58 M 158.36 452.05 C 158.60 454.06 156.18 453.91 154.91 453.63 C 154.50 452.01 153.96 450.43 153.01 449.05 C 152.98 450.03 152.94 451.97 152.92 452.95 C 153.86 456.60 160.22 455.97 159.92 452.01 C 160.72 448.64 156.82 447.01 154.07 447.98 C 155.58 449.22 159.03 449.38 158.36 452.05 M 161.21 447.78 C 161.24 450.34 161.13 452.93 161.44 455.49 C 164.08 455.96 162.44 451.46 163.19 449.84 C 163.91 449.69 165.34 449.40 166.06 449.25 C 166.18 451.38 166.21 453.54 166.50 455.67 C 169.14 455.38 167.80 451.78 167.80 450.01 C 167.24 446.92 163.43 448.07 161.21 447.78 Z" />
<path fill="#4f107a" opacity="1.00" d=" M 241.88 384.49 C 246.69 381.63 251.43 378.65 256.10 375.56 L 256.47 375.92 C 258.71 378.04 260.95 380.17 263.20 382.28 C 261.24 387.39 258.82 392.31 256.85 397.41 L 256.56 397.36 C 251.34 397.34 247.10 400.65 243.43 403.98 C 247.14 402.76 250.96 401.95 254.85 401.60 C 254.59 402.26 254.06 403.58 253.80 404.24 C 257.10 402.55 260.42 400.86 263.73 399.17 L 264.91 398.57 C 264.48 413.97 264.68 429.38 265.52 444.77 C 259.64 444.52 253.76 444.27 247.88 444.10 C 252.68 448.31 257.56 452.45 262.43 456.58 C 263.48 457.59 265.36 458.70 264.35 460.40 C 262.11 466.93 259.45 473.31 257.20 479.84 C 260.48 477.84 263.74 475.80 267.06 473.86 C 267.20 482.19 266.29 490.66 268.21 498.85 C 269.34 505.14 271.58 511.16 272.75 517.44 C 264.32 516.08 254.55 514.57 247.53 520.72 C 245.76 516.05 243.69 511.42 242.78 506.48 C 242.35 502.98 241.96 499.47 240.84 496.12 C 247.53 497.50 253.16 493.23 257.68 488.88 C 254.36 489.21 251.00 490.09 247.67 489.49 C 245.54 485.50 244.30 479.51 248.22 476.21 C 252.22 472.48 257.10 469.83 261.03 466.01 C 254.68 468.84 249.64 473.94 243.10 476.41 C 241.91 472.77 240.69 468.94 241.56 465.09 C 243.08 458.10 243.12 450.85 241.98 443.80 C 240.72 446.31 239.50 448.85 238.29 451.39 C 239.43 442.59 237.23 433.79 238.14 424.98 C 238.79 418.91 239.04 412.79 240.01 406.76 C 242.27 407.50 242.33 403.88 240.03 405.26 C 240.45 398.32 241.20 391.40 241.88 384.49 Z" />
<path fill="#4f107a" opacity="1.00" d=" M 164.33 438.44 C 165.65 438.68 165.88 439.43 165.02 440.67 C 163.71 440.43 163.47 439.69 164.33 438.44 Z" />
<path fill="#4f107a" opacity="1.00" d=" M 142.22 439.84 C 145.14 438.16 142.50 443.20 142.22 439.84 Z" />
<path fill="#4f107a" opacity="1.00" d=" M 172.49 440.35 C 172.98 440.94 172.98 440.94 172.49 440.35 Z" />
<path fill="#4f107a" opacity="1.00" d=" M 110.09 445.93 L 110.36 446.30 C 111.48 448.68 112.57 451.08 113.54 453.54 C 113.52 454.10 113.49 455.23 113.48 455.79 C 112.16 454.22 111.05 452.48 110.05 450.70 C 109.21 452.45 108.34 454.18 107.42 455.90 C 107.23 455.47 106.86 454.59 106.68 454.15 C 107.63 451.33 108.86 448.63 110.09 445.93 Z" />
<path fill="#4f107a" opacity="1.00" d=" M 122.31 448.49 C 123.78 447.27 125.16 449.96 123.86 450.93 C 122.32 452.20 120.88 449.46 122.31 448.49 Z" />
<path fill="#4f107a" opacity="1.00" d=" M 179.10 453.22 C 182.17 451.65 179.17 456.52 179.10 453.22 Z" />
<path fill="#4f107a" opacity="1.00" d=" M 182.38 453.34 C 185.36 451.78 182.55 456.69 182.38 453.34 Z" />
</g>
<g id="#f8d446ff">
<path fill="#f8d446" opacity="1.00" d=" M 180.07 231.09 C 180.84 232.26 181.66 233.42 182.43 234.61 C 182.60 235.08 182.95 236.03 183.13 236.51 C 183.34 244.34 183.89 252.17 184.01 260.01 C 182.68 250.37 181.12 240.76 180.07 231.09 Z" />
<path fill="#f8d446" opacity="1.00" d=" M 182.00 265.82 C 183.78 278.10 184.93 290.52 184.64 302.94 C 184.67 316.23 186.08 329.47 186.79 342.73 C 186.38 343.02 185.56 343.60 185.15 343.89 C 183.72 326.63 183.12 309.31 182.61 292.00 C 182.63 283.26 181.32 274.55 182.00 265.82 Z" />
<path fill="#f8d446" opacity="1.00" d=" M 42.97 345.77 C 43.54 343.24 44.16 340.73 44.81 338.24 C 46.83 341.50 48.41 345.01 49.94 348.52 C 49.93 349.41 49.92 351.18 49.91 352.06 C 47.56 350.00 45.26 347.89 42.97 345.77 Z" />
<path fill="#f8d446" opacity="1.00" d=" M 61.13 358.57 C 67.06 358.26 72.96 357.66 78.88 357.22 C 73.91 361.86 69.28 366.87 64.08 371.25 L 63.82 371.28 C 60.54 371.20 57.57 372.60 54.74 374.10 C 54.93 372.56 54.99 370.99 55.43 369.51 C 57.98 368.24 60.90 367.76 63.26 366.10 C 64.02 363.52 62.16 361.08 61.24 358.79 L 61.13 358.57 Z" />
<path fill="#f8d446" opacity="1.00" d=" M 145.53 373.84 C 146.58 370.46 147.71 367.10 148.70 363.70 C 149.36 367.63 150.09 371.56 150.24 375.56 L 149.59 376.26 C 148.22 375.47 146.85 374.71 145.53 373.84 Z" />
<path fill="#f8d446" opacity="1.00" d=" M 253.20 372.81 C 256.17 371.32 259.10 369.72 262.25 368.65 C 262.96 372.37 258.73 373.86 256.47 375.92 L 256.10 375.56 C 255.13 374.64 254.17 373.72 253.20 372.81 Z" />
<path fill="#f8d446" opacity="1.00" d=" M 33.35 392.12 L 33.67 392.26 C 35.26 392.97 36.84 393.72 38.42 394.47 C 36.39 396.30 34.33 398.09 32.28 399.90 C 32.40 399.11 32.63 397.53 32.75 396.75 C 32.97 395.20 33.16 393.65 33.35 392.12 Z" />
<path fill="#f8d446" opacity="1.00" d=" M 256.56 397.36 L 256.85 397.41 C 259.13 398.02 261.39 398.74 263.73 399.17 C 260.42 400.86 257.10 402.55 253.80 404.24 C 254.06 403.58 254.59 402.26 254.85 401.60 C 255.42 400.18 255.99 398.77 256.56 397.36 Z" />
<path fill="#f8d446" opacity="1.00" d=" M 44.41 458.15 C 51.17 451.74 57.58 444.96 64.36 438.57 C 65.31 440.03 66.29 441.49 67.34 442.90 C 67.90 442.91 69.00 442.92 69.56 442.93 C 66.72 445.36 63.72 447.58 60.48 449.45 C 55.46 452.40 50.92 456.13 45.66 458.66 C 45.19 458.70 44.23 458.78 43.76 458.82 L 44.41 458.15 Z" />
<path fill="#f8d446" opacity="1.00" d=" M 53.41 462.83 C 63.30 463.70 72.58 467.58 82.31 469.35 L 82.90 469.47 C 83.30 470.36 83.71 471.26 84.11 472.17 C 81.93 471.97 79.74 471.91 77.56 471.77 C 73.16 470.76 69.18 468.41 64.72 467.55 C 60.68 466.71 56.79 465.22 53.41 462.83 Z" />
</g>
<g id="#744595ff">
<path fill="#744595" opacity="1.00" d=" M 243.90 363.19 C 250.09 358.33 254.54 351.35 261.62 347.64 C 260.55 349.77 259.17 351.74 257.38 353.33 C 252.69 357.62 248.44 362.36 243.55 366.42 C 243.64 365.61 243.81 364.00 243.90 363.19 Z" />
<path fill="#744595" opacity="1.00" d=" M 95.99 405.81 C 101.47 411.88 105.88 418.81 110.68 425.42 C 112.89 428.63 115.32 431.80 116.49 435.59 C 115.15 434.58 113.82 433.58 112.75 432.29 C 107.88 426.41 103.48 420.15 99.43 413.69 C 97.87 411.26 96.73 408.59 95.99 405.81 Z" />
</g>
<g id="#6d3b90ff">
<path fill="#6d3b90" opacity="1.00" d=" M 240.03 405.26 C 242.33 403.88 242.27 407.50 240.01 406.76 C 240.02 406.39 240.03 405.63 240.03 405.26 Z" />
</g>
<g id="#e6e7e7ff">
<path fill="#e6e7e7" opacity="1.00" d=" M 129.77 442.64 C 128.36 440.90 128.16 438.07 129.83 436.43 C 130.17 438.49 130.11 440.58 129.77 442.64 Z" />
<path fill="#e6e7e7" opacity="1.00" d=" M 158.45 438.98 C 159.24 437.81 160.49 437.23 161.78 436.78 C 161.75 438.55 161.66 440.34 161.62 442.12 C 160.93 442.09 159.53 442.02 158.83 441.99 C 159.77 440.63 160.71 439.28 161.61 437.90 C 160.82 438.17 159.24 438.71 158.45 438.98 Z" />
<path fill="#e6e7e7" opacity="1.00" d=" M 162.52 438.41 C 163.22 437.95 163.92 437.49 164.63 437.05 C 165.97 438.15 167.72 438.11 169.23 437.41 L 169.55 437.18 C 169.53 438.73 169.53 440.29 169.54 441.86 C 169.21 441.85 168.54 441.83 168.21 441.82 C 168.34 441.19 168.60 439.95 168.73 439.33 C 168.11 439.09 166.87 438.63 166.25 438.40 C 166.23 439.27 166.18 441.01 166.15 441.88 C 165.44 441.84 164.01 441.77 163.30 441.74 C 163.10 440.91 162.71 439.24 162.52 438.41 M 164.33 438.44 C 163.47 439.69 163.71 440.43 165.02 440.67 C 165.88 439.43 165.65 438.68 164.33 438.44 Z" />
<path fill="#e6e7e7" opacity="1.00" d=" M 171.26 437.37 C 172.03 437.29 173.58 437.14 174.36 437.06 C 173.75 437.35 172.54 437.93 171.93 438.22 C 172.91 439.09 174.70 439.48 174.66 441.11 C 173.94 441.72 173.14 442.17 172.26 442.48 C 170.62 441.29 171.25 439.07 171.26 437.37 M 172.49 440.35 C 172.98 440.94 172.98 440.94 172.49 440.35 Z" />
<path fill="#e6e7e7" opacity="1.00" d=" M 131.20 438.41 C 132.76 438.40 134.33 438.39 135.89 438.37 C 135.90 439.71 135.90 441.06 135.90 442.41 C 135.40 441.24 134.90 440.06 134.42 438.89 C 134.16 439.85 133.65 441.75 133.39 442.70 C 133.21 441.70 132.84 439.70 132.65 438.71 C 132.37 439.56 131.80 441.25 131.51 442.10 L 130.72 442.02 C 130.88 440.81 131.04 439.61 131.20 438.41 Z" />
<path fill="#e6e7e7" opacity="1.00" d=" M 141.13 440.18 C 141.07 438.16 143.24 438.57 144.59 438.22 L 144.94 440.18 C 145.45 439.67 146.48 438.63 146.99 438.11 C 147.52 438.35 148.59 438.81 149.12 439.05 C 148.56 440.12 148.87 442.52 147.30 442.63 C 146.74 442.00 145.63 440.74 145.07 440.11 C 144.96 440.85 144.74 442.32 144.63 443.06 C 143.41 442.19 140.84 442.16 141.13 440.18 M 142.22 439.84 C 142.50 443.20 145.14 438.16 142.22 439.84 Z" />
<path fill="#e6e7e7" opacity="1.00" d=" M 111.27 442.29 C 111.19 440.96 111.50 439.74 112.49 438.82 C 112.53 439.87 112.63 441.97 112.67 443.02 C 113.69 441.91 114.70 440.83 115.70 439.72 C 115.35 441.11 114.29 442.53 114.86 444.03 C 115.91 448.01 115.99 452.22 115.36 456.29 C 115.24 453.70 114.99 451.12 114.53 448.58 C 114.15 450.22 113.82 451.87 113.54 453.54 C 112.57 451.08 111.48 448.68 110.36 446.30 C 111.32 446.33 113.24 446.38 114.20 446.41 C 114.15 445.44 114.10 444.49 114.06 443.53 C 111.38 443.97 108.69 444.25 106.01 444.57 C 105.70 442.92 105.38 441.29 105.10 439.65 C 105.81 440.89 106.52 442.14 107.23 443.39 C 107.33 442.37 107.54 440.34 107.64 439.32 C 108.18 439.50 109.26 439.87 109.80 440.05 C 109.51 440.62 108.94 441.76 108.65 442.33 C 109.30 442.32 110.61 442.30 111.27 442.29 Z" />
<path fill="#e6e7e7" opacity="1.00" d=" M 128.73 443.95 C 131.70 446.56 129.42 451.08 130.80 454.48 C 131.27 456.74 128.44 454.89 128.60 453.59 C 128.33 450.38 128.47 447.15 128.73 443.95 Z" />
<path fill="#e6e7e7" opacity="1.00" d=" M 132.49 444.39 C 132.77 444.41 133.34 444.45 133.62 444.47 C 134.49 448.20 133.35 452.22 135.05 455.80 C 134.40 455.48 133.10 454.84 132.45 454.52 C 132.05 451.16 132.12 447.74 132.49 444.39 Z" />
<path fill="#e6e7e7" opacity="1.00" d=" M 118.63 455.54 C 119.67 451.49 120.92 447.45 122.99 443.79 C 125.29 447.31 126.39 451.42 127.55 455.42 C 126.12 455.04 125.17 454.12 124.69 452.66 C 123.62 452.66 122.56 452.68 121.50 452.71 C 120.95 454.07 119.99 455.01 118.63 455.54 M 122.31 448.49 C 120.88 449.46 122.32 452.20 123.86 450.93 C 125.16 449.96 123.78 447.27 122.31 448.49 Z" />
<path fill="#e6e7e7" opacity="1.00" d=" M 105.97 445.64 C 107.34 445.71 108.72 445.79 110.09 445.93 C 108.86 448.63 107.63 451.33 106.68 454.15 C 105.87 451.39 106.02 448.48 105.97 445.64 Z" />
<path fill="#e6e7e7" opacity="1.00" d=" M 143.92 447.95 C 146.40 449.15 149.46 444.15 150.68 447.40 C 151.07 447.69 151.85 448.26 152.24 448.54 C 148.97 448.89 149.58 454.24 152.41 454.76 C 151.42 455.76 150.05 455.31 148.84 455.20 C 148.75 453.52 148.67 451.81 148.64 450.14 C 147.98 449.54 147.31 448.96 146.63 448.41 C 145.00 450.36 145.24 452.87 145.18 455.22 C 144.78 455.30 143.99 455.45 143.60 455.52 C 143.81 454.09 143.58 452.90 142.91 451.94 C 140.91 451.70 138.89 451.89 136.90 452.03 C 138.19 454.10 140.43 454.04 142.59 453.85 C 140.25 457.71 133.79 454.15 135.78 450.08 C 136.84 446.63 140.94 447.66 142.74 449.83 C 143.04 449.36 143.63 448.42 143.92 447.95 M 138.16 449.26 C 137.65 450.82 138.24 451.33 139.94 450.80 C 140.45 449.22 139.86 448.71 138.16 449.26 Z" />
<path fill="#e6e7e7" opacity="1.00" d=" M 169.38 450.58 C 168.95 447.28 173.48 446.94 175.01 449.21 C 173.53 449.20 172.03 449.16 170.55 449.17 C 171.83 450.91 175.26 451.52 174.47 454.23 C 175.07 454.23 176.26 454.24 176.86 454.25 C 177.19 453.74 177.86 452.72 178.20 452.22 C 180.64 452.39 183.08 452.34 185.53 452.41 C 185.70 452.54 186.06 452.80 186.23 452.93 C 186.44 453.25 186.86 453.91 187.07 454.24 C 185.66 454.57 184.26 454.98 182.89 455.45 C 182.48 455.14 181.67 454.54 181.26 454.23 C 180.74 454.55 179.71 455.18 179.19 455.50 C 177.88 454.06 176.55 454.29 175.33 455.71 C 174.87 455.40 174.42 455.10 173.96 454.81 C 172.15 455.67 169.77 455.84 168.77 453.74 C 170.34 453.82 171.91 453.91 173.49 453.97 C 172.18 452.76 170.71 451.75 169.38 450.58 M 179.10 453.22 C 179.17 456.52 182.17 451.65 179.10 453.22 M 182.38 453.34 C 182.55 456.69 185.36 451.78 182.38 453.34 Z" />
<path fill="#e6e7e7" opacity="1.00" d=" M 161.21 447.78 C 163.43 448.07 167.24 446.92 167.80 450.01 C 167.80 451.78 169.14 455.38 166.50 455.67 C 166.21 453.54 166.18 451.38 166.06 449.25 C 165.34 449.40 163.91 449.69 163.19 449.84 C 162.44 451.46 164.08 455.96 161.44 455.49 C 161.13 452.93 161.24 450.34 161.21 447.78 Z" />
<path fill="#e6e7e7" opacity="1.00" d=" M 107.42 455.90 C 108.34 454.18 109.21 452.45 110.05 450.70 C 111.05 452.48 112.16 454.22 113.48 455.79 L 113.47 455.90 C 111.45 455.97 109.43 455.98 107.42 455.90 Z" />
</g>
<g id="#906ca9ff">
<path fill="#906ca9" opacity="1.00" d=" M 150.72 438.85 C 152.07 437.39 153.83 436.77 155.80 436.89 C 156.22 437.88 156.63 438.88 157.05 439.87 C 156.74 440.44 156.13 441.57 155.83 442.14 C 154.59 442.09 153.36 442.04 152.13 442.00 C 151.66 440.95 151.19 439.90 150.72 438.85 M 154.35 439.13 C 154.70 442.44 157.23 437.42 154.35 439.13 Z" />
</g>
<g id="#b8a6c6ff">
<path fill="#b8a6c6" opacity="1.00" d=" M 137.80 437.66 C 140.48 437.70 140.55 440.27 140.74 442.30 C 139.74 442.24 137.73 442.11 136.73 442.05 C 136.61 441.32 136.38 439.85 136.26 439.12 C 136.90 439.29 138.18 439.63 138.82 439.80 C 138.57 439.26 138.06 438.19 137.80 437.66 Z" />
</g>
<g id="#55197eff">
<path fill="#55197e" opacity="1.00" d=" M 154.35 439.13 C 157.23 437.42 154.70 442.44 154.35 439.13 Z" />
</g>
<g id="#774998ff">
<path fill="#774998" opacity="1.00" d=" M 202.13 440.33 C 203.89 440.70 204.88 442.81 205.77 444.27 C 208.23 449.33 203.96 454.40 200.61 457.83 C 200.65 456.43 200.71 455.04 200.77 453.66 C 201.79 452.04 202.97 450.48 203.57 448.65 C 204.17 445.77 201.40 443.19 202.13 440.33 Z" />
</g>
<g id="#b9a7c7ff">
<path fill="#b9a7c7" opacity="1.00" d=" M 142.57 443.23 C 143.05 443.76 143.05 443.76 142.57 443.23 Z" />
</g>
<g id="#9979afff">
<path fill="#9979af" opacity="1.00" d=" M 106.01 444.57 C 108.69 444.25 111.38 443.97 114.06 443.53 C 114.10 444.49 114.15 445.44 114.20 446.41 C 113.24 446.38 111.32 446.33 110.36 446.30 L 110.09 445.93 C 108.72 445.79 107.34 445.71 105.97 445.64 C 106.02 448.48 105.87 451.39 106.68 454.15 C 106.86 454.59 107.23 455.47 107.42 455.90 C 109.43 455.98 111.45 455.97 113.47 455.90 L 113.48 455.79 C 113.49 455.23 113.52 454.10 113.54 453.54 C 113.82 451.87 114.15 450.22 114.53 448.58 C 114.99 451.12 115.24 453.70 115.36 456.29 L 115.39 456.89 C 111.96 458.02 107.66 458.78 104.79 456.09 C 103.83 453.53 104.21 450.64 104.20 447.95 C 104.25 446.71 104.42 444.69 106.01 444.57 Z" />
</g>
<g id="#835a9fff">
<path fill="#835a9f" opacity="1.00" d=" M 138.16 449.26 C 139.86 448.71 140.45 449.22 139.94 450.80 C 138.24 451.33 137.65 450.82 138.16 449.26 Z" />
</g>
<g id="#beafcaff">
<path fill="#beafca" opacity="1.00" d=" M 185.53 452.41 C 187.30 451.82 189.15 451.74 191.00 451.79 C 190.95 452.83 190.85 454.91 190.80 455.95 C 190.29 454.88 189.77 453.83 189.24 452.78 C 189.03 453.40 188.62 454.64 188.41 455.26 C 187.87 454.67 186.78 453.51 186.23 452.93 C 186.06 452.80 185.70 452.54 185.53 452.41 Z" />
</g>
<g id="#754595ff">
<path fill="#754595" opacity="1.00" d=" M 196.35 460.99 C 196.29 459.77 197.14 458.65 198.33 458.41 C 199.30 459.54 197.71 461.81 196.35 460.99 Z" />
</g>
</svg>
