<?xml version="1.0" encoding="UTF-8" ?>
<!DOCTYPE svg PUBLIC "-//W3C//DTD SVG 1.1//EN" "http://www.w3.org/Graphics/SVG/1.1/DTD/svg11.dtd">
<svg width="279pt" height="547pt" viewBox="0 0 279 547" version="1.1" xmlns="http://www.w3.org/2000/svg">
<g id="#ffffffff">
<path fill="#ffffff" opacity="1.00" d=" M 0.00 0.00 L 279.00 0.00 L 279.00 547.00 L 0.00 547.00 L 0.00 0.00 M 111.82 22.91 C 101.08 33.11 95.50 47.63 93.61 62.09 C 91.65 76.59 93.32 91.37 96.82 105.50 C 99.66 108.90 101.16 113.32 104.73 116.13 C 103.35 120.68 101.83 125.27 99.30 129.33 C 97.65 132.12 93.83 133.38 93.33 136.86 C 92.52 141.55 92.94 146.65 95.33 150.85 C 96.30 152.65 97.42 154.97 96.01 156.87 C 94.09 159.63 91.68 162.04 90.09 165.03 C 85.79 171.72 88.86 180.10 91.60 186.79 C 78.84 188.20 66.25 192.02 55.50 199.19 C 35.65 212.06 21.05 231.85 11.39 253.20 C 6.14 271.27 6.30 290.31 6.23 308.96 C 5.25 321.32 2.95 333.60 2.99 346.03 C 2.84 350.13 4.59 353.91 5.56 357.81 C 7.37 365.09 9.06 372.52 8.69 380.07 C 8.39 386.71 9.18 393.34 8.87 399.99 C 8.22 407.22 12.42 413.47 14.60 420.07 C 17.57 427.75 17.76 436.07 19.19 444.09 C 20.48 451.41 21.82 458.87 25.23 465.55 C 27.42 469.90 31.34 472.98 34.13 476.90 C 40.01 485.53 42.59 495.94 48.22 504.70 C 53.09 510.18 59.55 514.29 63.11 520.91 C 67.26 527.23 64.69 535.01 65.54 542.00 C 65.77 542.99 66.65 544.92 67.97 544.02 C 80.48 539.43 93.38 533.07 107.09 535.03 C 105.74 521.62 103.56 508.27 100.47 495.16 C 98.84 488.54 101.07 481.28 98.03 475.00 C 95.69 471.62 93.41 467.91 94.00 463.58 C 99.00 463.34 103.98 462.66 108.99 462.96 C 116.66 462.85 124.26 464.19 131.94 463.92 C 148.31 463.73 164.67 464.41 181.04 464.02 C 186.75 463.99 192.48 463.74 198.19 464.09 C 210.28 463.93 223.51 464.67 234.12 457.83 C 235.70 465.41 237.09 473.08 237.29 480.83 C 236.34 487.62 237.94 494.36 239.68 500.87 C 240.13 508.64 242.66 516.11 245.92 523.13 C 246.37 523.53 247.29 524.34 247.75 524.74 C 250.91 521.37 255.26 519.05 259.95 519.06 C 264.67 518.68 269.24 520.49 273.94 520.28 C 275.38 519.74 275.85 518.70 275.36 517.14 C 273.29 508.44 270.08 499.91 269.55 490.91 C 269.39 483.93 269.56 476.95 269.85 469.98 C 270.07 467.86 268.87 466.01 268.41 464.02 C 268.83 461.98 269.79 460.11 270.32 458.11 C 270.26 455.69 268.02 454.57 266.39 453.26 C 267.34 451.25 268.96 449.31 268.59 446.96 C 267.31 431.33 267.06 415.63 267.69 399.97 C 268.26 390.66 268.92 381.33 268.48 372.00 C 267.50 349.22 261.06 327.23 256.12 305.10 C 253.69 294.59 253.63 283.72 251.47 273.15 C 249.28 261.99 246.38 250.84 241.34 240.60 C 239.34 236.97 237.27 232.93 233.37 231.06 C 226.72 224.02 218.59 218.66 210.50 213.44 C 203.37 208.98 196.11 204.72 188.64 200.85 C 188.48 192.62 188.55 184.39 188.35 176.16 C 188.48 174.93 187.76 172.72 186.26 174.18 C 183.19 177.46 180.16 180.84 177.49 184.45 C 176.59 191.50 176.84 198.66 176.01 205.71 C 175.49 205.89 174.43 206.25 173.91 206.43 C 173.41 198.96 173.23 191.47 172.64 184.00 C 172.67 182.69 171.24 182.24 170.37 181.62 C 155.08 172.89 139.81 164.12 124.55 155.34 C 122.37 154.19 119.90 151.98 117.40 153.73 C 111.64 157.04 109.67 163.91 107.89 169.87 C 106.50 173.94 106.73 178.65 103.85 182.11 C 102.50 179.96 101.38 177.63 101.06 175.08 C 99.76 167.15 100.48 159.06 99.64 151.08 C 99.19 146.34 98.08 141.61 98.69 136.82 C 103.75 139.23 107.34 143.93 112.67 145.84 C 109.99 134.14 113.17 122.10 117.24 111.12 C 119.06 105.75 123.40 101.57 124.60 95.95 C 126.22 88.62 125.78 81.03 125.11 73.61 C 139.00 67.96 154.06 65.33 169.01 64.98 C 182.25 64.85 196.66 67.11 206.81 76.32 C 208.60 79.55 208.77 83.39 208.67 87.01 C 207.98 105.14 207.30 123.27 206.15 141.38 C 205.93 142.65 206.13 144.18 205.17 145.19 C 201.85 148.83 197.73 151.69 194.62 155.54 C 192.86 157.27 194.76 159.56 195.72 161.21 C 196.98 163.17 199.42 165.67 201.88 164.00 C 206.62 161.33 211.42 157.75 213.54 152.57 C 213.94 149.46 211.87 146.60 211.71 143.49 C 210.29 130.11 211.80 116.66 213.23 103.35 C 218.34 99.14 223.48 94.71 226.98 89.01 C 228.46 86.89 230.20 84.96 231.78 82.91 C 236.71 77.45 236.60 69.33 235.37 62.53 C 234.56 57.66 230.45 54.22 229.78 49.34 C 226.85 36.88 219.77 25.31 209.50 17.57 C 194.96 6.45 175.98 2.96 158.04 3.57 C 141.24 5.13 124.03 10.83 111.82 22.91 Z" />
<path fill="#ffffff" opacity="1.00" d=" M 102.10 84.15 C 105.22 82.70 108.67 81.16 112.17 82.10 C 115.69 83.06 117.47 87.66 115.74 90.80 C 111.91 98.90 107.80 106.88 104.64 115.27 C 102.19 109.05 99.75 102.69 99.15 95.98 C 99.25 91.88 100.47 87.89 102.10 84.15 Z" />
</g>
<g id="#000000ff">
<path fill="#000000" opacity="1.00" d=" M 111.82 22.91 C 124.03 10.83 141.24 5.13 158.04 3.57 C 175.98 2.96 194.96 6.45 209.50 17.57 C 219.77 25.31 226.85 36.88 229.78 49.34 C 230.45 54.22 234.56 57.66 235.37 62.53 C 236.60 69.33 236.71 77.45 231.78 82.91 C 230.20 84.96 228.46 86.89 226.98 89.01 C 223.48 94.71 218.34 99.14 213.23 103.35 C 211.80 116.66 210.29 130.11 211.71 143.49 C 211.87 146.60 213.94 149.46 213.54 152.57 C 211.42 157.75 206.62 161.33 201.88 164.00 C 199.42 165.67 196.98 163.17 195.72 161.21 C 194.76 159.56 192.86 157.27 194.62 155.54 C 197.73 151.69 201.85 148.83 205.17 145.19 C 206.13 144.18 205.93 142.65 206.15 141.38 C 207.30 123.27 207.98 105.14 208.67 87.01 C 208.77 83.39 208.60 79.55 206.81 76.32 C 196.66 67.11 182.25 64.85 169.01 64.98 C 154.06 65.33 139.00 67.96 125.11 73.61 C 125.78 81.03 126.22 88.62 124.60 95.95 C 123.40 101.57 119.06 105.75 117.24 111.12 C 113.17 122.10 109.99 134.14 112.67 145.84 C 107.34 143.93 103.75 139.23 98.69 136.82 C 98.08 141.61 99.19 146.34 99.64 151.08 C 100.48 159.06 99.76 167.15 101.06 175.08 C 101.38 177.63 102.50 179.96 103.85 182.11 C 106.73 178.65 106.50 173.94 107.89 169.87 C 109.67 163.91 111.64 157.04 117.40 153.73 C 119.90 151.98 122.37 154.19 124.55 155.34 C 139.81 164.12 155.08 172.89 170.37 181.62 C 171.24 182.24 172.67 182.69 172.64 184.00 C 173.23 191.47 173.41 198.96 173.91 206.43 C 174.43 206.25 175.49 205.89 176.01 205.71 C 176.84 198.66 176.59 191.50 177.49 184.45 C 180.16 180.84 183.19 177.46 186.26 174.18 C 187.76 172.72 188.48 174.93 188.35 176.16 C 188.55 184.39 188.48 192.62 188.64 200.85 C 196.11 204.72 203.37 208.98 210.50 213.44 C 218.59 218.66 226.72 224.02 233.37 231.06 C 237.27 232.93 239.34 236.97 241.34 240.60 C 246.38 250.84 249.28 261.99 251.47 273.15 C 253.63 283.72 253.69 294.59 256.12 305.10 C 261.06 327.23 267.50 349.22 268.48 372.00 C 268.92 381.33 268.26 390.66 267.69 399.97 C 267.06 415.63 267.31 431.33 268.59 446.96 C 268.96 449.31 267.34 451.25 266.39 453.26 C 268.02 454.57 270.26 455.69 270.32 458.11 C 269.79 460.11 268.83 461.98 268.41 464.02 C 268.87 466.01 270.07 467.86 269.85 469.98 C 269.56 476.95 269.39 483.93 269.55 490.91 C 270.08 499.91 273.29 508.44 275.36 517.14 C 275.85 518.70 275.38 519.74 273.94 520.28 C 269.24 520.49 264.67 518.68 259.95 519.06 C 255.26 519.05 250.91 521.37 247.75 524.74 C 247.29 524.34 246.37 523.53 245.92 523.13 C 242.66 516.11 240.13 508.64 239.68 500.87 C 237.94 494.36 236.34 487.62 237.29 480.83 C 237.09 473.08 235.70 465.41 234.12 457.83 C 223.51 464.67 210.28 463.93 198.19 464.09 C 192.48 463.74 186.75 463.99 181.04 464.02 C 164.67 464.41 148.31 463.73 131.94 463.92 C 124.26 464.19 116.66 462.85 108.99 462.96 C 103.98 462.66 99.00 463.34 94.00 463.58 C 93.41 467.91 95.69 471.62 98.03 475.00 C 101.07 481.28 98.84 488.54 100.47 495.16 C 103.56 508.27 105.74 521.62 107.09 535.03 C 93.38 533.07 80.48 539.43 67.97 544.02 C 66.65 544.92 65.77 542.99 65.54 542.00 C 64.69 535.01 67.26 527.23 63.11 520.91 C 59.55 514.29 53.09 510.18 48.22 504.70 C 42.59 495.94 40.01 485.53 34.13 476.90 C 31.34 472.98 27.42 469.90 25.23 465.55 C 21.82 458.87 20.48 451.41 19.19 444.09 C 17.76 436.07 17.57 427.75 14.60 420.07 C 12.42 413.47 8.22 407.22 8.87 399.99 C 9.18 393.34 8.39 386.71 8.69 380.07 C 9.06 372.52 7.37 365.09 5.56 357.81 C 4.59 353.91 2.84 350.13 2.99 346.03 C 2.95 333.60 5.25 321.32 6.23 308.96 C 6.30 290.31 6.14 271.27 11.39 253.20 C 21.05 231.85 35.65 212.06 55.50 199.19 C 66.25 192.02 78.84 188.20 91.60 186.79 C 88.86 180.10 85.79 171.72 90.09 165.03 C 91.68 162.04 94.09 159.63 96.01 156.87 C 97.42 154.97 96.30 152.65 95.33 150.85 C 92.94 146.65 92.52 141.55 93.33 136.86 C 93.83 133.38 97.65 132.12 99.30 129.33 C 101.83 125.27 103.35 120.68 104.73 116.13 C 101.16 113.32 99.66 108.90 96.82 105.50 C 93.32 91.37 91.65 76.59 93.61 62.09 C 95.50 47.63 101.08 33.11 111.82 22.91 M 130.67 12.41 L 130.37 12.84 C 119.60 17.25 110.29 25.33 104.50 35.44 C 94.97 51.45 93.97 70.80 95.64 88.91 C 99.36 76.15 110.38 67.49 121.25 60.86 C 125.30 58.48 129.67 56.75 134.09 55.22 C 139.74 53.28 144.03 48.88 149.42 46.44 C 165.35 38.90 183.64 36.28 201.01 39.41 C 210.23 40.99 219.59 43.73 226.99 49.70 C 224.28 37.22 217.17 25.64 206.70 18.21 C 193.77 9.00 177.56 5.58 161.92 5.35 C 151.18 5.62 140.59 8.38 130.67 12.41 M 145.74 50.82 C 151.11 50.01 156.43 48.88 161.85 48.39 C 179.57 46.76 198.48 49.25 213.44 59.53 C 221.10 64.63 228.20 72.31 228.44 82.02 C 236.05 73.33 233.93 58.89 225.52 51.46 C 219.44 46.30 211.65 43.69 203.97 42.01 C 184.41 37.98 163.00 40.45 145.74 50.82 M 102.10 84.15 C 100.47 87.89 99.25 91.88 99.15 95.98 C 99.75 102.69 102.19 109.05 104.64 115.27 C 107.80 106.88 111.91 98.90 115.74 90.80 C 117.47 87.66 115.69 83.06 112.17 82.10 C 108.67 81.16 105.22 82.70 102.10 84.15 M 111.68 165.45 C 108.98 171.25 109.42 178.21 105.43 183.43 C 110.19 190.02 116.33 195.69 120.01 203.02 C 121.44 205.66 120.38 209.82 123.43 211.36 C 127.66 212.15 132.05 211.87 136.24 212.99 C 135.70 216.74 131.46 217.58 128.49 218.66 C 125.55 219.30 122.03 220.42 119.28 218.71 C 116.29 215.46 116.70 210.41 114.03 206.99 C 110.57 204.33 106.53 202.52 103.15 199.76 C 98.90 196.69 95.69 192.52 92.51 188.43 C 88.40 189.81 84.11 190.43 79.88 191.27 C 62.39 195.27 47.21 206.22 35.40 219.43 C 32.29 223.19 28.83 226.79 26.71 231.24 C 24.60 233.12 23.38 235.77 21.87 238.12 C 28.90 231.80 36.57 226.27 44.59 221.30 C 45.97 220.92 47.31 220.39 48.66 219.90 L 49.19 219.26 C 52.37 218.39 55.54 219.23 58.50 220.45 L 58.55 220.88 C 73.47 229.95 87.37 240.77 99.80 253.04 C 102.56 256.35 106.03 259.55 106.82 263.98 C 106.82 267.03 105.50 269.89 105.16 272.90 C 104.33 279.57 103.76 286.33 104.41 293.04 C 104.79 297.73 106.51 302.25 106.29 306.99 C 106.05 319.50 102.76 331.68 101.76 344.11 C 100.74 349.73 96.05 353.68 91.78 357.02 C 90.26 358.45 87.72 359.55 87.73 361.96 C 88.40 367.99 93.09 372.85 93.16 379.01 C 93.38 382.27 91.77 385.24 91.40 388.41 C 88.74 392.41 85.23 395.82 82.86 399.99 C 82.42 403.31 85.58 405.58 87.41 407.92 C 90.97 412.78 94.63 417.87 95.70 423.95 C 97.91 436.16 96.22 448.67 94.17 460.79 C 105.12 459.98 116.10 460.16 127.04 461.15 C 150.17 461.19 173.30 461.87 196.43 461.02 C 197.82 461.79 199.34 459.47 198.33 458.38 C 198.28 452.55 198.26 446.69 199.27 440.93 C 199.34 440.24 199.48 438.86 199.55 438.17 C 199.94 426.96 198.02 415.78 194.85 405.05 C 192.93 398.61 192.80 391.80 191.17 385.31 C 190.66 375.88 189.42 366.50 188.45 357.10 C 186.19 336.48 184.51 315.75 184.78 294.98 C 184.27 283.81 183.32 272.62 181.56 261.57 C 180.86 253.65 179.51 245.76 178.29 237.90 C 177.19 228.25 175.41 218.68 173.89 209.09 C 173.05 208.68 172.22 208.27 171.39 207.86 C 171.16 200.10 170.52 192.35 170.34 184.59 C 157.18 176.68 143.74 169.23 130.46 161.52 C 126.94 159.62 123.65 157.29 119.98 155.69 C 115.25 156.33 113.36 161.61 111.68 165.45 M 179.68 185.44 C 178.88 192.64 178.77 199.91 178.35 207.14 C 177.83 207.55 176.81 208.37 176.29 208.78 C 177.61 216.20 178.67 223.67 179.95 231.10 C 180.08 232.69 180.36 234.26 180.63 235.84 C 182.63 256.57 187.07 277.07 187.18 297.97 C 186.86 325.81 190.59 353.46 193.12 381.13 C 193.28 382.75 193.76 384.33 194.28 385.88 C 194.37 389.15 194.75 392.41 195.50 395.60 C 195.67 400.88 197.60 405.86 198.75 410.97 C 200.54 418.87 201.94 426.94 201.87 435.07 C 201.22 441.25 200.53 447.47 200.75 453.70 C 200.70 455.08 200.66 456.46 200.63 457.86 C 200.84 459.02 201.06 460.19 201.29 461.37 C 208.12 461.09 215.08 461.47 221.73 459.54 L 221.92 459.56 C 223.41 460.14 224.49 459.72 225.17 458.30 C 228.69 458.81 232.72 456.38 234.03 452.98 C 236.98 446.52 235.43 439.31 235.33 432.49 C 235.38 425.20 236.34 417.95 236.79 410.67 C 238.27 394.76 239.83 378.84 241.23 362.92 C 241.74 356.69 243.39 350.64 244.16 344.46 C 247.77 327.90 248.27 310.73 247.21 293.85 C 245.72 277.51 242.90 261.10 236.99 245.75 C 236.74 244.60 236.29 243.52 235.78 242.48 C 234.81 238.74 233.57 234.91 230.95 231.97 C 226.07 226.43 219.88 222.29 213.84 218.16 C 205.88 212.89 197.66 208.03 189.17 203.68 C 188.14 203.14 187.12 202.59 186.10 202.05 C 185.72 194.04 185.78 186.01 185.74 177.99 C 183.68 180.42 181.19 182.59 179.68 185.44 M 45.44 224.36 C 36.98 229.29 28.99 235.19 22.35 242.42 C 18.80 246.54 15.00 250.77 13.31 256.04 C 8.92 272.30 8.68 289.28 8.65 306.00 C 8.74 314.38 7.05 322.63 6.43 330.96 C 5.98 337.61 4.62 344.42 6.23 351.02 C 9.12 361.06 11.68 371.44 11.13 381.97 C 10.89 388.34 12.03 394.68 11.52 401.05 C 10.95 407.28 14.88 412.59 16.74 418.28 C 22.55 433.33 20.57 450.44 27.92 465.01 C 31.42 470.92 37.05 475.26 40.17 481.46 C 40.92 483.07 41.69 484.69 42.47 486.30 L 42.85 486.56 C 44.30 491.59 46.47 496.38 48.78 501.07 C 50.86 505.51 55.27 508.01 58.55 511.44 C 62.41 515.41 66.17 519.89 67.51 525.39 C 68.41 530.67 67.73 536.05 67.90 541.38 C 79.56 536.81 91.59 531.65 104.38 532.28 C 103.32 523.85 102.10 515.43 100.51 507.08 C 99.50 501.73 97.61 496.53 97.45 491.05 C 97.17 486.70 97.66 482.26 96.60 478.00 C 95.22 474.52 92.08 471.80 91.76 467.91 C 91.02 461.20 92.76 454.58 93.25 447.92 C 94.29 437.55 95.25 426.09 89.65 416.78 C 86.90 412.18 82.70 408.58 80.26 403.81 C 78.15 398.29 84.03 394.79 86.41 390.61 L 86.64 390.48 C 88.90 386.43 91.14 381.75 89.82 377.01 C 88.15 371.38 84.00 366.34 84.68 360.16 C 85.34 359.08 86.05 358.04 86.71 356.96 C 91.80 353.21 98.03 349.03 98.67 342.14 C 99.75 331.03 102.16 320.08 103.03 308.95 C 103.67 303.19 101.10 297.76 101.05 292.04 C 100.95 284.68 100.62 277.19 102.41 269.98 C 102.97 267.21 104.35 264.07 102.29 261.56 C 96.93 253.44 89.11 247.40 81.76 241.19 C 73.31 234.55 64.71 227.98 55.30 222.74 C 52.07 220.57 48.39 222.77 45.44 224.36 M 242.49 253.57 C 247.47 270.26 250.16 287.62 250.51 305.03 C 250.80 310.35 250.12 315.68 250.42 321.01 C 249.82 325.14 249.31 329.30 249.21 333.48 C 247.42 343.38 245.53 353.28 243.87 363.21 C 243.79 364.01 243.63 365.62 243.56 366.42 C 243.20 369.12 242.98 371.84 242.81 374.57 C 242.44 377.86 242.07 381.16 241.88 384.47 C 241.33 391.61 240.08 398.73 240.28 405.91 C 240.11 406.18 239.75 406.73 239.57 407.00 C 239.47 414.04 238.26 421.01 237.98 428.04 C 237.62 435.84 239.34 443.62 238.29 451.40 C 237.56 453.21 236.35 454.99 236.43 457.01 C 237.60 465.95 240.31 474.86 239.34 483.96 C 239.02 488.09 239.79 492.20 240.85 496.18 C 241.63 498.74 242.18 501.37 242.48 504.04 C 243.00 509.90 245.47 515.31 247.53 520.74 C 254.52 514.57 264.33 516.06 272.75 517.47 C 270.55 507.03 266.49 496.81 266.99 485.96 C 266.51 478.97 268.35 471.74 266.07 464.96 C 265.31 462.48 266.87 460.10 267.53 457.80 C 266.23 456.37 263.66 455.34 263.92 453.06 C 264.79 450.59 266.23 448.20 265.77 445.47 C 264.23 426.36 264.40 407.16 265.69 388.05 C 267.01 368.11 263.44 348.29 258.85 328.98 C 255.70 316.05 252.23 303.15 250.80 289.89 C 249.41 274.53 246.20 259.22 240.20 244.98 C 240.70 247.91 241.58 250.75 242.49 253.57 Z" />
</g>
<g id="#9e1b32ff">
<path fill="#9e1b32" opacity="1.00" d=" M 130.67 12.41 C 140.59 8.38 151.18 5.62 161.92 5.35 C 177.56 5.58 193.77 9.00 206.70 18.21 C 217.17 25.64 224.28 37.22 226.99 49.70 C 219.59 43.73 210.23 40.99 201.01 39.41 C 183.64 36.28 165.35 38.90 149.42 46.44 C 144.03 48.88 139.74 53.28 134.09 55.22 C 129.67 56.75 125.30 58.48 121.25 60.86 C 117.05 59.10 112.38 56.85 110.82 52.20 C 109.04 46.40 111.61 40.46 114.23 35.35 C 118.42 27.04 124.92 20.28 130.37 12.84 L 130.67 12.41 Z" />
<path fill="#9e1b32" opacity="1.00" d=" M 145.74 50.82 C 163.00 40.45 184.41 37.98 203.97 42.01 C 211.65 43.69 219.44 46.30 225.52 51.46 C 233.93 58.89 236.05 73.33 228.44 82.02 C 228.20 72.31 221.10 64.63 213.44 59.53 C 198.48 49.25 179.57 46.76 161.85 48.39 C 156.43 48.88 151.11 50.01 145.74 50.82 Z" />
<path fill="#9e1b32" opacity="1.00" d=" M 111.68 165.45 C 113.36 161.61 115.25 156.33 119.98 155.69 C 123.65 157.29 126.94 159.62 130.46 161.52 C 143.74 169.23 157.18 176.68 170.34 184.59 C 170.52 192.35 171.16 200.10 171.39 207.86 C 172.22 208.27 173.05 208.68 173.89 209.09 C 175.41 218.68 177.19 228.25 178.29 237.90 C 169.43 259.16 158.92 279.85 145.83 298.85 C 143.48 302.41 140.38 305.42 138.20 309.10 C 140.34 312.73 143.43 315.66 145.97 318.99 C 158.43 334.65 170.45 350.70 181.26 367.56 C 184.83 373.32 188.40 379.11 191.17 385.31 C 192.80 391.80 192.93 398.61 194.85 405.05 C 198.02 415.78 199.94 426.96 199.55 438.17 C 191.11 434.02 182.68 429.88 174.27 425.70 C 168.64 423.00 164.35 418.34 160.22 413.80 C 152.55 405.00 144.89 395.99 139.41 385.62 C 131.65 368.69 115.59 357.80 105.84 342.22 C 104.20 339.46 105.70 336.16 106.35 333.32 C 109.04 325.26 111.56 316.92 111.34 308.34 C 109.93 300.41 106.37 293.01 105.05 285.07 C 104.97 277.94 107.00 270.35 112.25 265.26 C 114.16 262.90 116.99 261.04 117.94 258.07 C 117.51 251.80 113.79 246.29 109.73 241.70 C 105.35 244.42 102.40 248.70 99.80 253.04 C 87.37 240.77 73.47 229.95 58.55 220.88 L 58.50 220.45 C 58.19 217.33 57.45 214.25 57.37 211.10 C 57.69 209.12 58.78 207.39 59.57 205.58 C 54.44 208.76 53.28 215.12 49.19 219.26 L 48.66 219.90 C 47.31 220.39 45.97 220.92 44.59 221.30 C 37.57 222.36 32.58 227.79 26.71 231.24 C 28.83 226.79 32.29 223.19 35.40 219.43 C 47.21 206.22 62.39 195.27 79.88 191.27 C 84.11 190.43 88.40 189.81 92.51 188.43 C 95.69 192.52 98.90 196.69 103.15 199.76 C 106.53 202.52 110.57 204.33 114.03 206.99 C 116.70 210.41 116.29 215.46 119.28 218.71 C 122.03 220.42 125.55 219.30 128.49 218.66 C 131.46 217.58 135.70 216.74 136.24 212.99 C 132.05 211.87 127.66 212.15 123.43 211.36 C 120.38 209.82 121.44 205.66 120.01 203.02 C 116.33 195.69 110.19 190.02 105.43 183.43 C 109.42 178.21 108.98 171.25 111.68 165.45 M 119.70 170.02 C 123.04 172.63 126.93 174.35 130.70 176.24 C 138.22 179.80 145.46 184.01 153.25 186.97 C 149.69 184.27 145.53 182.55 141.61 180.44 C 134.35 176.90 127.38 172.61 119.70 170.02 M 144.02 173.98 C 146.75 176.44 149.73 178.66 153.14 180.11 C 150.42 177.62 147.41 175.45 144.02 173.98 M 153.90 180.88 C 155.73 182.57 157.82 183.98 160.06 185.08 C 158.40 183.16 156.27 181.76 153.90 180.88 M 130.58 285.72 C 129.79 292.69 129.37 299.71 128.52 306.67 C 127.74 312.58 129.63 318.33 131.25 323.92 C 133.87 332.32 136.55 340.73 140.29 348.71 C 142.10 352.55 143.35 356.70 143.32 360.98 C 143.48 365.39 142.95 370.42 145.81 374.16 C 146.60 375.38 148.93 376.73 149.56 374.65 C 150.65 369.00 148.52 363.32 146.70 358.02 C 142.83 348.19 139.54 338.13 135.42 328.40 C 132.63 322.70 129.98 316.44 131.18 309.95 C 132.68 300.91 134.16 291.70 133.01 282.53 C 131.69 283.14 130.58 284.16 130.58 285.72 Z" />
<path fill="#9e1b32" opacity="1.00" d=" M 179.68 185.44 C 181.19 182.59 183.68 180.42 185.74 177.99 C 185.78 186.01 185.72 194.04 186.10 202.05 C 184.02 204.24 181.10 206.03 180.10 208.98 C 182.36 213.28 186.79 216.10 189.79 219.93 C 189.36 214.53 189.18 209.10 189.17 203.68 C 197.66 208.03 205.88 212.89 213.84 218.16 C 219.88 222.29 226.07 226.43 230.95 231.97 C 233.57 234.91 234.81 238.74 235.78 242.48 C 234.24 239.54 232.46 236.73 230.57 234.00 C 231.57 239.64 233.52 245.16 233.41 250.96 C 233.32 259.97 234.36 268.93 234.54 277.94 C 234.59 281.10 235.28 284.20 236.29 287.19 C 236.95 273.39 237.69 259.55 236.99 245.75 C 242.90 261.10 245.72 277.51 247.21 293.85 C 248.27 310.73 247.77 327.90 244.16 344.46 C 242.31 348.79 239.60 353.06 239.89 357.96 C 239.90 362.43 241.22 367.42 238.39 371.36 C 233.18 379.45 227.66 387.35 222.37 395.39 C 219.14 400.41 215.22 405.01 212.68 410.46 C 214.41 408.92 216.07 407.27 217.35 405.34 C 222.83 396.87 229.47 389.09 237.16 382.54 C 235.09 401.45 226.80 419.24 226.40 438.38 C 229.26 433.09 229.15 426.87 231.28 421.33 C 232.53 417.49 234.86 414.17 236.79 410.67 C 236.34 417.95 235.38 425.20 235.33 432.49 C 235.43 439.31 236.98 446.52 234.03 452.98 C 232.72 456.38 228.69 458.81 225.17 458.30 C 224.00 457.35 221.47 457.55 221.92 459.56 L 221.73 459.54 C 215.87 459.19 210.07 458.05 204.80 455.39 C 203.65 457.39 202.49 459.39 201.29 461.37 C 201.06 460.19 200.84 459.02 200.63 457.86 C 203.32 454.85 206.36 451.51 206.55 447.26 C 206.30 444.46 204.74 441.66 202.26 440.26 C 201.85 442.90 203.36 445.35 203.67 447.93 C 203.41 450.12 201.83 451.85 200.75 453.70 C 200.53 447.47 201.22 441.25 201.87 435.07 C 201.94 426.94 200.54 418.87 198.75 410.97 C 197.60 405.86 195.67 400.88 195.50 395.60 C 195.53 392.65 195.52 389.66 194.58 386.83 C 206.99 364.87 219.42 342.83 229.33 319.59 C 231.49 314.17 233.94 308.70 234.52 302.83 C 233.91 300.86 232.62 299.20 231.46 297.52 C 219.75 281.06 207.88 264.67 194.63 249.40 C 190.95 245.28 187.44 240.92 183.03 237.54 C 182.71 232.42 182.48 227.15 180.35 222.39 C 180.05 225.28 179.85 228.19 179.95 231.10 C 178.67 223.67 177.61 216.20 176.29 208.78 C 176.81 208.37 177.83 207.55 178.35 207.14 C 178.77 199.91 178.88 192.64 179.68 185.44 M 201.83 420.70 C 205.54 426.41 211.10 430.81 213.98 437.07 C 214.77 439.20 214.78 441.52 215.38 443.70 C 217.11 446.85 221.08 448.44 224.48 447.09 C 221.80 444.62 218.37 442.77 216.66 439.41 C 213.78 433.83 210.18 428.65 206.07 423.92 C 204.90 422.55 203.37 421.59 201.83 420.70 Z" />
<path fill="#9e1b32" opacity="1.00" d=" M 45.44 224.36 C 48.39 222.77 52.07 220.57 55.30 222.74 C 64.71 227.98 73.31 234.55 81.76 241.19 C 89.11 247.40 96.93 253.44 102.29 261.56 C 104.35 264.07 102.97 267.21 102.41 269.98 C 100.62 277.19 100.95 284.68 101.05 292.04 C 101.10 297.76 103.67 303.19 103.03 308.95 C 102.16 320.08 99.75 331.03 98.67 342.14 C 98.03 349.03 91.80 353.21 86.71 356.96 C 89.65 351.96 92.54 346.93 95.13 341.74 C 89.19 344.10 83.74 347.51 77.84 349.94 C 75.71 350.90 73.25 350.89 71.14 349.89 C 62.14 346.03 56.08 338.02 48.89 331.75 C 49.16 334.56 49.54 337.45 51.01 339.94 C 54.83 346.89 58.66 353.84 62.22 360.93 C 62.81 362.53 64.11 364.33 63.20 366.06 C 60.92 367.72 58.01 368.13 55.60 369.57 C 54.70 370.85 55.06 372.63 54.72 374.12 C 57.10 373.02 59.38 371.58 61.98 371.08 C 65.79 370.89 68.08 375.95 71.92 375.06 C 77.64 371.63 81.31 365.75 84.68 360.16 C 84.00 366.34 88.15 371.38 89.82 377.01 C 91.14 381.75 88.90 386.43 86.64 390.48 L 86.41 390.61 C 81.00 393.47 76.02 397.48 72.65 402.62 C 70.73 405.56 72.88 408.90 74.66 411.31 C 77.45 414.79 80.63 418.56 85.14 419.69 C 87.33 420.47 88.35 417.96 89.65 416.78 C 95.25 426.09 94.29 437.55 93.25 447.92 C 92.76 454.58 91.02 461.20 91.76 467.91 C 92.08 471.80 95.22 474.52 96.60 478.00 C 97.66 482.26 97.17 486.70 97.45 491.05 C 97.61 496.53 99.50 501.73 100.51 507.08 C 102.10 515.43 103.32 523.85 104.38 532.28 C 91.59 531.65 79.56 536.81 67.90 541.38 C 67.73 536.05 68.41 530.67 67.51 525.39 C 66.17 519.89 62.41 515.41 58.55 511.44 C 55.27 508.01 50.86 505.51 48.78 501.07 C 46.47 496.38 44.30 491.59 42.85 486.56 C 50.74 491.92 58.32 497.76 66.62 502.49 C 68.79 503.69 71.17 504.46 73.54 505.15 C 71.91 500.41 66.73 499.31 62.86 497.07 C 56.08 493.13 50.69 487.32 44.69 482.38 C 43.48 481.15 41.70 481.48 40.17 481.46 C 37.05 475.26 31.42 470.92 27.92 465.01 C 20.57 450.44 22.55 433.33 16.74 418.28 C 14.88 412.59 10.95 407.28 11.52 401.05 C 12.03 394.68 10.89 388.34 11.13 381.97 C 11.68 371.44 9.12 361.06 6.23 351.02 C 4.62 344.42 5.98 337.61 6.43 330.96 C 7.05 322.63 8.74 314.38 8.65 306.00 C 8.68 289.28 8.92 272.30 13.31 256.04 C 15.00 250.77 18.80 246.54 22.35 242.42 C 28.99 235.19 36.98 229.29 45.44 224.36 M 13.55 322.70 C 13.78 324.43 13.46 326.70 15.24 327.74 C 18.87 330.11 23.34 330.71 27.01 333.02 C 35.46 338.32 42.46 345.53 49.97 352.01 C 48.62 346.83 46.69 341.74 43.74 337.25 C 40.72 333.03 35.83 330.77 31.28 328.59 C 25.55 326.15 19.74 323.69 13.55 322.70 M 11.78 378.86 C 11.06 385.93 12.06 393.32 15.16 399.75 C 15.81 401.64 17.93 400.56 19.27 400.27 C 25.35 398.08 31.77 397.11 37.83 394.87 C 35.43 392.37 31.97 391.59 28.95 390.12 C 22.73 387.18 17.53 382.58 11.78 378.86 M 72.27 430.30 C 62.91 440.11 53.03 449.43 43.68 459.23 C 46.69 458.32 49.45 456.79 52.02 455.01 C 59.47 449.80 67.63 445.58 74.34 439.36 C 77.41 437.07 80.47 433.28 84.75 434.25 C 88.28 434.91 89.90 430.87 91.30 428.38 C 85.13 426.73 77.21 425.04 72.27 430.30 M 53.37 462.80 C 57.05 465.65 61.63 466.75 65.98 468.11 C 73.73 470.23 81.53 472.67 89.61 472.97 C 84.62 469.72 78.62 468.85 73.03 467.12 C 66.50 465.59 60.11 463.25 53.37 462.80 M 85.41 484.47 C 83.73 487.02 83.57 490.19 83.03 493.12 C 86.28 489.33 89.24 485.19 93.55 482.52 C 95.35 481.67 95.70 479.76 96.01 478.00 C 92.07 479.31 88.08 481.17 85.41 484.47 Z" />
<path fill="#9e1b32" opacity="1.00" d=" M 242.49 253.57 C 241.58 250.75 240.70 247.91 240.20 244.98 C 246.20 259.22 249.41 274.53 250.80 289.89 C 252.23 303.15 255.70 316.05 258.85 328.98 C 263.44 348.29 267.01 368.11 265.69 388.05 C 264.40 407.16 264.23 426.36 265.77 445.47 C 266.23 448.20 264.79 450.59 263.92 453.06 C 263.66 455.34 266.23 456.37 267.53 457.80 C 266.87 460.10 265.31 462.48 266.07 464.96 C 268.35 471.74 266.51 478.97 266.99 485.96 C 266.49 496.81 270.55 507.03 272.75 517.47 C 264.33 516.06 254.52 514.57 247.53 520.74 C 245.47 515.31 243.00 509.90 242.48 504.04 C 242.18 501.37 241.63 498.74 240.85 496.18 C 243.65 496.13 246.63 496.46 249.21 495.16 C 252.39 493.63 255.01 491.20 257.64 488.90 C 254.48 489.27 251.32 489.85 248.13 489.74 C 245.65 486.69 244.99 482.05 246.44 478.42 C 250.20 473.13 256.56 470.59 261.04 465.99 C 254.71 468.90 249.60 473.90 243.08 476.46 C 241.79 472.60 240.71 468.50 241.69 464.43 C 243.15 457.65 243.04 450.64 241.97 443.82 C 240.73 446.34 239.51 448.87 238.29 451.40 C 239.34 443.62 237.62 435.84 237.98 428.04 C 238.26 421.01 239.47 414.04 239.57 407.00 C 242.92 405.14 246.14 402.74 250.02 402.12 C 254.05 401.25 258.38 401.75 262.18 399.95 C 259.58 396.91 254.77 397.01 251.35 398.44 C 247.39 400.48 243.77 403.15 240.28 405.91 C 240.08 398.73 241.33 391.61 241.88 384.47 C 247.21 381.31 252.39 377.93 257.70 374.74 C 259.88 373.32 262.95 371.78 262.34 368.63 C 258.46 369.87 255.11 372.34 251.16 373.35 C 248.42 374.04 245.60 374.24 242.81 374.57 C 242.98 371.84 243.20 369.12 243.56 366.42 C 248.43 362.37 252.71 357.68 257.35 353.38 C 259.16 351.75 260.52 349.70 261.62 347.54 C 254.61 351.42 250.00 358.22 243.87 363.21 C 245.53 353.28 247.42 343.38 249.21 333.48 C 250.26 329.46 252.84 325.03 250.42 321.01 C 250.12 315.68 250.80 310.35 250.51 305.03 C 250.16 287.62 247.47 270.26 242.49 253.57 Z" />
<path fill="#9e1b32" opacity="1.00" d=" M 99.72 358.01 C 99.24 354.94 100.61 350.80 104.07 350.27 C 107.59 350.30 110.06 353.36 112.41 355.60 C 122.64 366.92 131.63 379.31 140.16 391.95 C 143.68 397.42 147.47 402.77 150.12 408.75 C 153.80 418.63 163.91 423.55 172.39 428.65 C 180.81 433.94 190.82 435.71 199.27 440.93 C 198.26 446.69 198.28 452.55 198.33 458.38 C 197.14 458.66 196.32 459.80 196.43 461.02 C 173.30 461.87 150.17 461.19 127.04 461.15 C 116.10 460.16 105.12 459.98 94.17 460.79 C 96.22 448.67 97.91 436.16 95.70 423.95 C 94.63 417.87 90.97 412.78 87.41 407.92 C 87.12 404.74 86.76 401.46 87.47 398.32 C 89.11 395.12 92.05 392.33 91.40 388.41 C 91.77 385.24 93.38 382.27 93.16 379.01 C 93.09 372.85 88.40 367.99 87.73 361.96 C 87.72 359.55 90.26 358.45 91.78 357.02 C 96.79 362.75 102.72 367.54 108.55 372.39 C 113.94 376.67 119.26 381.22 125.59 384.08 C 124.65 381.91 123.61 379.72 121.88 378.07 C 116.35 372.55 110.32 367.55 103.93 363.06 C 102.25 361.69 99.95 360.41 99.72 358.01 M 98.72 383.63 C 102.67 388.39 107.95 391.81 113.08 395.15 C 108.76 390.79 103.85 386.99 98.72 383.63 M 95.94 405.86 C 98.24 413.47 103.41 419.72 107.92 426.13 C 110.54 429.49 112.94 433.14 116.50 435.61 C 115.25 431.57 112.61 428.24 110.26 424.81 C 105.59 418.42 101.35 411.66 95.94 405.86 M 128.00 405.97 C 132.64 410.45 138.09 413.96 143.19 417.89 C 149.07 421.97 154.63 426.87 161.50 429.21 C 159.53 426.92 157.11 425.09 154.57 423.49 C 145.72 417.65 137.07 411.46 128.00 405.97 M 130.04 442.63 C 130.17 440.53 130.06 438.43 129.77 436.36 C 128.39 438.14 128.11 441.09 130.04 442.63 M 151.43 438.38 C 150.65 439.53 151.84 440.87 151.96 442.09 C 153.25 442.09 154.55 442.10 155.85 442.11 C 156.15 441.54 156.76 440.40 157.07 439.83 C 156.64 438.83 156.22 437.84 155.79 436.85 C 154.32 437.22 152.13 436.62 151.43 438.38 M 158.41 438.88 C 159.21 438.65 160.79 438.19 161.59 437.96 C 160.68 439.36 159.73 440.73 158.79 442.11 C 159.50 442.10 160.92 442.08 161.63 442.07 C 161.66 440.38 161.87 438.69 161.70 437.02 C 160.32 437.03 159.29 437.90 158.41 438.88 M 162.63 437.89 C 162.82 439.17 163.03 440.45 163.23 441.74 C 163.96 441.77 165.43 441.84 166.16 441.88 C 166.19 441.03 166.24 439.31 166.27 438.46 C 166.87 438.66 168.09 439.05 168.69 439.25 C 168.58 439.91 168.35 441.23 168.24 441.89 C 168.56 441.87 169.19 441.83 169.50 441.81 C 169.54 440.32 169.59 438.85 169.66 437.38 C 167.96 437.98 166.13 438.06 164.46 437.32 C 164.00 437.46 163.08 437.75 162.63 437.89 M 171.20 437.48 C 171.34 439.02 170.64 440.98 171.93 442.18 C 172.96 442.88 173.84 441.45 174.72 441.13 C 174.46 439.54 172.83 438.95 171.80 437.98 C 172.32 437.95 173.37 437.90 173.89 437.88 L 173.83 436.93 C 173.17 437.07 171.86 437.35 171.20 437.48 M 131.06 438.43 C 131.03 439.84 131.02 441.25 131.03 442.67 C 131.32 441.83 131.90 440.15 132.19 439.31 L 132.71 439.22 C 132.98 440.10 133.53 441.85 133.81 442.73 C 133.90 441.89 134.09 440.19 134.18 439.35 L 134.95 439.28 C 135.09 440.08 135.38 441.68 135.52 442.47 C 135.73 441.11 135.89 439.74 136.07 438.38 C 134.40 438.40 132.73 438.42 131.06 438.43 M 137.53 437.72 C 137.88 438.24 138.58 439.27 138.93 439.79 C 138.25 439.63 136.91 439.31 136.23 439.15 C 135.63 442.48 138.40 442.34 140.79 442.34 C 140.50 440.21 140.43 437.50 137.53 437.72 M 141.11 440.13 C 140.95 442.16 143.48 442.28 144.70 443.25 C 144.70 442.44 144.69 440.84 144.69 440.03 C 145.70 441.26 147.03 442.13 148.60 442.43 C 148.67 441.56 148.79 439.82 148.85 438.95 C 148.39 438.73 147.46 438.29 147.00 438.07 C 146.59 438.54 145.77 439.47 145.35 439.93 C 144.88 437.84 140.96 437.74 141.11 440.13 M 111.16 442.27 C 110.54 442.29 109.30 442.33 108.67 442.35 C 108.97 441.71 109.56 440.44 109.86 439.80 C 107.03 438.53 107.47 441.48 107.15 443.36 C 106.49 442.14 105.81 440.93 105.13 439.73 C 105.38 441.27 105.68 442.82 105.97 444.36 C 104.11 445.04 104.28 447.36 104.17 448.97 C 104.20 451.33 103.91 453.85 104.79 456.10 C 107.70 458.80 111.99 457.97 115.44 456.89 L 115.39 456.32 C 115.65 451.98 116.43 447.34 114.69 443.22 C 114.90 442.01 115.20 440.81 115.56 439.64 C 114.63 440.82 113.69 441.99 112.75 443.18 C 112.67 442.08 112.50 439.87 112.42 438.76 C 111.63 439.78 111.29 440.99 111.16 442.27 M 142.34 443.16 C 142.86 443.73 142.86 443.73 142.34 443.16 M 128.69 444.66 C 128.36 447.61 128.36 450.60 128.60 453.57 C 128.66 454.78 130.05 455.94 131.19 455.15 C 129.49 451.78 130.84 447.90 129.78 444.39 C 129.51 444.46 128.96 444.59 128.69 444.66 M 132.39 444.30 C 132.29 447.70 131.96 451.15 132.49 454.53 C 133.12 454.86 134.37 455.51 135.00 455.84 C 133.66 452.31 133.97 448.51 134.00 444.82 C 133.60 444.69 132.79 444.43 132.39 444.30 M 118.63 455.61 C 119.91 454.96 120.90 453.99 121.57 452.72 C 122.58 452.69 123.59 452.67 124.60 452.66 C 125.23 453.98 126.21 454.94 127.53 455.54 C 126.47 451.45 125.24 447.34 122.99 443.74 C 120.98 447.47 119.62 451.51 118.63 455.61 M 144.00 447.98 C 143.69 448.49 143.07 449.50 142.76 450.01 C 141.35 448.99 140.00 447.09 138.01 447.89 C 134.66 448.74 134.72 454.38 138.06 455.23 C 139.75 455.91 141.49 455.19 142.72 453.98 C 140.50 454.04 138.24 454.00 136.81 452.03 C 138.78 452.07 140.91 451.33 142.80 452.20 C 143.22 453.25 143.58 454.33 143.88 455.44 C 144.20 455.40 144.85 455.31 145.17 455.26 C 145.38 452.99 144.68 450.29 146.62 448.57 C 149.38 449.62 148.55 452.91 148.92 455.23 C 150.11 455.35 151.36 455.55 152.44 454.88 C 149.68 454.25 148.89 448.93 152.26 448.60 C 151.20 447.83 150.32 446.86 149.43 445.93 C 147.75 446.91 146.10 448.45 144.00 447.98 M 169.73 448.79 C 168.32 451.39 172.23 452.33 173.52 453.97 C 171.90 453.90 170.30 453.82 168.69 453.77 C 169.87 455.75 172.09 455.68 173.99 454.82 C 174.43 455.10 174.86 455.38 175.29 455.68 C 176.55 454.41 177.92 454.14 179.28 455.46 C 179.77 455.16 180.76 454.56 181.26 454.26 C 181.66 454.55 182.48 455.13 182.88 455.43 C 184.30 454.98 185.72 454.55 187.15 454.16 C 186.90 453.86 186.41 453.26 186.17 452.96 C 186.74 453.48 187.90 454.52 188.47 455.03 C 188.91 454.24 189.36 453.46 189.81 452.68 C 189.80 453.35 189.77 454.69 189.75 455.36 L 191.03 455.41 C 191.00 454.48 190.95 452.63 190.93 451.71 C 189.11 451.80 187.30 451.98 185.53 452.40 C 183.08 452.30 180.62 452.39 178.18 452.23 C 177.84 452.75 177.16 453.79 176.83 454.30 C 176.26 454.27 175.12 454.19 174.56 454.15 C 174.98 451.54 171.92 450.79 170.50 449.21 C 172.01 449.17 173.53 449.18 175.04 449.14 C 173.61 447.86 171.13 446.90 169.73 448.79 M 157.85 449.80 C 158.97 451.89 157.73 454.79 155.08 453.60 C 154.53 452.00 153.94 450.42 152.97 449.04 C 150.95 452.76 155.17 457.43 158.72 454.71 C 162.41 451.87 158.49 445.59 154.02 448.00 C 155.24 448.72 156.53 449.27 157.85 449.80 M 161.20 447.78 C 161.23 450.40 161.15 453.03 161.47 455.64 C 164.08 455.54 162.43 451.54 163.22 449.81 C 163.93 449.65 165.33 449.34 166.03 449.18 C 166.18 451.38 166.24 453.60 166.54 455.79 C 169.06 455.10 167.85 451.85 167.78 449.94 C 167.15 446.91 163.40 448.09 161.20 447.78 Z" />
<path fill="#9e1b32" opacity="1.00" d=" M 164.35 438.45 C 165.68 438.73 165.90 439.46 165.00 440.65 C 163.66 440.38 163.45 439.65 164.35 438.45 Z" />
<path fill="#9e1b32" opacity="1.00" d=" M 142.23 439.82 C 145.19 438.21 142.42 443.17 142.23 439.82 Z" />
<path fill="#9e1b32" opacity="1.00" d=" M 172.41 440.40 C 173.05 440.92 173.05 440.92 172.41 440.40 Z" />
<path fill="#9e1b32" opacity="1.00" d=" M 110.06 446.01 L 110.38 446.31 C 111.49 448.63 112.54 450.99 113.32 453.45 C 113.39 454.06 113.54 455.29 113.61 455.91 C 112.37 454.27 111.22 452.57 110.18 450.81 C 109.25 452.51 108.31 454.21 107.23 455.84 C 107.10 455.42 106.84 454.58 106.71 454.16 C 107.62 451.36 108.84 448.68 110.06 446.01 Z" />
<path fill="#9e1b32" opacity="1.00" d=" M 122.28 448.51 C 123.76 447.29 125.18 449.95 123.86 450.93 C 122.34 452.18 120.85 449.49 122.28 448.51 Z" />
<path fill="#9e1b32" opacity="1.00" d=" M 179.14 453.26 C 182.11 451.55 179.38 456.58 179.14 453.26 Z" />
<path fill="#9e1b32" opacity="1.00" d=" M 182.40 453.31 C 185.45 451.88 182.43 456.66 182.40 453.31 Z" />
</g>
<g id="#b45869ff">
<path fill="#b45869" opacity="1.00" d=" M 104.50 35.44 C 110.29 25.33 119.60 17.25 130.37 12.84 C 124.92 20.28 118.42 27.04 114.23 35.35 C 111.61 40.46 109.04 46.40 110.82 52.20 C 112.38 56.85 117.05 59.10 121.25 60.86 C 110.38 67.49 99.36 76.15 95.64 88.91 C 93.97 70.80 94.97 51.45 104.50 35.44 Z" />
<path fill="#b45869" opacity="1.00" d=" M 119.70 170.02 C 127.38 172.61 134.35 176.90 141.61 180.44 C 145.53 182.55 149.69 184.27 153.25 186.97 C 145.46 184.01 138.22 179.80 130.70 176.24 C 126.93 174.35 123.04 172.63 119.70 170.02 Z" />
<path fill="#b45869" opacity="1.00" d=" M 144.02 173.98 C 147.41 175.45 150.42 177.62 153.14 180.11 C 149.73 178.66 146.75 176.44 144.02 173.98 Z" />
<path fill="#b45869" opacity="1.00" d=" M 153.90 180.88 C 156.27 181.76 158.40 183.16 160.06 185.08 C 157.82 183.98 155.73 182.57 153.90 180.88 Z" />
<path fill="#b45869" opacity="1.00" d=" M 186.10 202.05 C 187.12 202.59 188.14 203.14 189.17 203.68 C 189.18 209.10 189.36 214.53 189.79 219.93 C 186.79 216.10 182.36 213.28 180.10 208.98 C 181.10 206.03 184.02 204.24 186.10 202.05 Z" />
<path fill="#b45869" opacity="1.00" d=" M 49.19 219.26 C 53.28 215.12 54.44 208.76 59.57 205.58 C 58.78 207.39 57.69 209.12 57.37 211.10 C 57.45 214.25 58.19 217.33 58.50 220.45 C 55.54 219.23 52.37 218.39 49.19 219.26 Z" />
<path fill="#b45869" opacity="1.00" d=" M 26.71 231.24 C 32.58 227.79 37.57 222.36 44.59 221.30 C 36.57 226.27 28.90 231.80 21.87 238.12 C 23.38 235.77 24.60 233.12 26.71 231.24 Z" />
<path fill="#b45869" opacity="1.00" d=" M 230.57 234.00 C 232.46 236.73 234.24 239.54 235.78 242.48 C 236.29 243.52 236.74 244.60 236.99 245.75 C 237.69 259.55 236.95 273.39 236.29 287.19 C 235.28 284.20 234.59 281.10 234.54 277.94 C 234.36 268.93 233.32 259.97 233.41 250.96 C 233.52 245.16 231.57 239.64 230.57 234.00 Z" />
<path fill="#b45869" opacity="1.00" d=" M 99.80 253.04 C 102.40 248.70 105.35 244.42 109.73 241.70 C 113.79 246.29 117.51 251.80 117.94 258.07 C 116.99 261.04 114.16 262.90 112.25 265.26 C 107.00 270.35 104.97 277.94 105.05 285.07 C 106.37 293.01 109.93 300.41 111.34 308.34 C 111.56 316.92 109.04 325.26 106.35 333.32 C 105.70 336.16 104.20 339.46 105.84 342.22 C 115.59 357.80 131.65 368.69 139.41 385.62 C 144.89 395.99 152.55 405.00 160.22 413.80 C 164.35 418.34 168.64 423.00 174.27 425.70 C 182.68 429.88 191.11 434.02 199.55 438.17 C 199.48 438.86 199.34 440.24 199.27 440.93 C 190.82 435.71 180.81 433.94 172.39 428.65 C 163.91 423.55 153.80 418.63 150.12 408.75 C 147.47 402.77 143.68 397.42 140.16 391.95 C 131.63 379.31 122.64 366.92 112.41 355.60 C 110.06 353.36 107.59 350.30 104.07 350.27 C 100.61 350.80 99.24 354.94 99.72 358.01 C 99.95 360.41 102.25 361.69 103.93 363.06 C 110.32 367.55 116.35 372.55 121.88 378.07 C 123.61 379.72 124.65 381.91 125.59 384.08 C 119.26 381.22 113.94 376.67 108.55 372.39 C 102.72 367.54 96.79 362.75 91.78 357.02 C 96.05 353.68 100.74 349.73 101.76 344.11 C 102.76 331.68 106.05 319.50 106.29 306.99 C 106.51 302.25 104.79 297.73 104.41 293.04 C 103.76 286.33 104.33 279.57 105.16 272.90 C 105.50 269.89 106.82 267.03 106.82 263.98 C 106.03 259.55 102.56 256.35 99.80 253.04 Z" />
<path fill="#b45869" opacity="1.00" d=" M 130.58 285.72 C 130.58 284.16 131.69 283.14 133.01 282.53 C 134.16 291.70 132.68 300.91 131.18 309.95 C 129.98 316.44 132.63 322.70 135.42 328.40 C 139.54 338.13 142.83 348.19 146.70 358.02 C 148.52 363.32 150.65 369.00 149.56 374.65 C 148.93 376.73 146.60 375.38 145.81 374.16 C 142.95 370.42 143.48 365.39 143.32 360.98 C 143.35 356.70 142.10 352.55 140.29 348.71 C 136.55 340.73 133.87 332.32 131.25 323.92 C 129.63 318.33 127.74 312.58 128.52 306.67 C 129.37 299.71 129.79 292.69 130.58 285.72 Z" />
<path fill="#b45869" opacity="1.00" d=" M 250.42 321.01 C 252.84 325.03 250.26 329.46 249.21 333.48 C 249.31 329.30 249.82 325.14 250.42 321.01 Z" />
<path fill="#b45869" opacity="1.00" d=" M 13.55 322.70 C 19.74 323.69 25.55 326.15 31.28 328.59 C 35.83 330.77 40.72 333.03 43.74 337.25 C 46.69 341.74 48.62 346.83 49.97 352.01 C 42.46 345.53 35.46 338.32 27.01 333.02 C 23.34 330.71 18.87 330.11 15.24 327.74 C 13.46 326.70 13.78 324.43 13.55 322.70 Z" />
<path fill="#b45869" opacity="1.00" d=" M 48.89 331.75 C 56.08 338.02 62.14 346.03 71.14 349.89 C 73.25 350.89 75.71 350.90 77.84 349.94 C 83.74 347.51 89.19 344.10 95.13 341.74 C 92.54 346.93 89.65 351.96 86.71 356.96 C 86.05 358.04 85.34 359.08 84.68 360.16 C 81.31 365.75 77.64 371.63 71.92 375.06 C 68.08 375.95 65.79 370.89 61.98 371.08 C 59.38 371.58 57.10 373.02 54.72 374.12 C 55.06 372.63 54.70 370.85 55.60 369.57 C 58.01 368.13 60.92 367.72 63.20 366.06 C 64.11 364.33 62.81 362.53 62.22 360.93 C 58.66 353.84 54.83 346.89 51.01 339.94 C 49.54 337.45 49.16 334.56 48.89 331.75 Z" />
<path fill="#b45869" opacity="1.00" d=" M 239.89 357.96 C 239.60 353.06 242.31 348.79 244.16 344.46 C 243.39 350.64 241.74 356.69 241.23 362.92 C 239.83 378.84 238.27 394.76 236.79 410.67 C 234.86 414.17 232.53 417.49 231.28 421.33 C 229.15 426.87 229.26 433.09 226.40 438.38 C 226.80 419.24 235.09 401.45 237.16 382.54 C 229.47 389.09 222.83 396.87 217.35 405.34 C 216.07 407.27 214.41 408.92 212.68 410.46 C 215.22 405.01 219.14 400.41 222.37 395.39 C 227.66 387.35 233.18 379.45 238.39 371.36 C 241.22 367.42 239.90 362.43 239.89 357.96 Z" />
<path fill="#b45869" opacity="1.00" d=" M 251.16 373.35 C 255.11 372.34 258.46 369.87 262.34 368.63 C 262.95 371.78 259.88 373.32 257.70 374.74 C 252.39 377.93 247.21 381.31 241.88 384.47 C 242.07 381.16 242.44 377.86 242.81 374.57 C 245.60 374.24 248.42 374.04 251.16 373.35 Z" />
<path fill="#b45869" opacity="1.00" d=" M 11.78 378.86 C 17.53 382.58 22.73 387.18 28.95 390.12 C 31.97 391.59 35.43 392.37 37.83 394.87 C 31.77 397.11 25.35 398.08 19.27 400.27 C 17.93 400.56 15.81 401.64 15.16 399.75 C 12.06 393.32 11.06 385.93 11.78 378.86 Z" />
<path fill="#b45869" opacity="1.00" d=" M 98.72 383.63 C 103.85 386.99 108.76 390.79 113.08 395.15 C 107.95 391.81 102.67 388.39 98.72 383.63 Z" />
<path fill="#b45869" opacity="1.00" d=" M 194.28 385.88 L 194.58 386.83 C 195.52 389.66 195.53 392.65 195.50 395.60 C 194.75 392.41 194.37 389.15 194.28 385.88 Z" />
<path fill="#b45869" opacity="1.00" d=" M 82.86 399.99 C 85.23 395.82 88.74 392.41 91.40 388.41 C 92.05 392.33 89.11 395.12 87.47 398.32 C 86.76 401.46 87.12 404.74 87.41 407.92 C 85.58 405.58 82.42 403.31 82.86 399.99 Z" />
<path fill="#b45869" opacity="1.00" d=" M 72.65 402.62 C 76.02 397.48 81.00 393.47 86.41 390.61 C 84.03 394.79 78.15 398.29 80.26 403.81 C 82.70 408.58 86.90 412.18 89.65 416.78 C 88.35 417.96 87.33 420.47 85.14 419.69 C 80.63 418.56 77.45 414.79 74.66 411.31 C 72.88 408.90 70.73 405.56 72.65 402.62 Z" />
<path fill="#b45869" opacity="1.00" d=" M 251.35 398.44 C 254.77 397.01 259.58 396.91 262.18 399.95 C 258.38 401.75 254.05 401.25 250.02 402.12 C 246.14 402.74 242.92 405.14 239.57 407.00 C 239.75 406.73 240.11 406.18 240.28 405.91 C 243.77 403.15 247.39 400.48 251.35 398.44 Z" />
<path fill="#b45869" opacity="1.00" d=" M 128.00 405.97 C 137.07 411.46 145.72 417.65 154.57 423.49 C 157.11 425.09 159.53 426.92 161.50 429.21 C 154.63 426.87 149.07 421.97 143.19 417.89 C 138.09 413.96 132.64 410.45 128.00 405.97 Z" />
<path fill="#b45869" opacity="1.00" d=" M 201.83 420.70 C 203.37 421.59 204.90 422.55 206.07 423.92 C 210.18 428.65 213.78 433.83 216.66 439.41 C 218.37 442.77 221.80 444.62 224.48 447.09 C 221.08 448.44 217.11 446.85 215.38 443.70 C 214.78 441.52 214.77 439.20 213.98 437.07 C 211.10 430.81 205.54 426.41 201.83 420.70 Z" />
<path fill="#b45869" opacity="1.00" d=" M 72.27 430.30 C 77.21 425.04 85.13 426.73 91.30 428.38 C 89.90 430.87 88.28 434.91 84.75 434.25 C 80.47 433.28 77.41 437.07 74.34 439.36 C 67.63 445.58 59.47 449.80 52.02 455.01 C 49.45 456.79 46.69 458.32 43.68 459.23 C 53.03 449.43 62.91 440.11 72.27 430.30 Z" />
<path fill="#b45869" opacity="1.00" d=" M 241.97 443.82 C 243.04 450.64 243.15 457.65 241.69 464.43 C 240.71 468.50 241.79 472.60 243.08 476.46 C 249.60 473.90 254.71 468.90 261.04 465.99 C 256.56 470.59 250.20 473.13 246.44 478.42 C 244.99 482.05 245.65 486.69 248.13 489.74 C 251.32 489.85 254.48 489.27 257.64 488.90 C 255.01 491.20 252.39 493.63 249.21 495.16 C 246.63 496.46 243.65 496.13 240.85 496.18 C 239.79 492.20 239.02 488.09 239.34 483.96 C 240.31 474.86 237.60 465.95 236.43 457.01 C 236.35 454.99 237.56 453.21 238.29 451.40 C 239.51 448.87 240.73 446.34 241.97 443.82 Z" />
<path fill="#b45869" opacity="1.00" d=" M 201.29 461.37 C 202.49 459.39 203.65 457.39 204.80 455.39 C 210.07 458.05 215.87 459.19 221.73 459.54 C 215.08 461.47 208.12 461.09 201.29 461.37 Z" />
<path fill="#b45869" opacity="1.00" d=" M 221.92 459.56 C 221.47 457.55 224.00 457.35 225.17 458.30 C 224.49 459.72 223.41 460.14 221.92 459.56 Z" />
<path fill="#b45869" opacity="1.00" d=" M 53.37 462.80 C 60.11 463.25 66.50 465.59 73.03 467.12 C 78.62 468.85 84.62 469.72 89.61 472.97 C 81.53 472.67 73.73 470.23 65.98 468.11 C 61.63 466.75 57.05 465.65 53.37 462.80 Z" />
<path fill="#b45869" opacity="1.00" d=" M 85.41 484.47 C 88.08 481.17 92.07 479.31 96.01 478.00 C 95.70 479.76 95.35 481.67 93.55 482.52 C 89.24 485.19 86.28 489.33 83.03 493.12 C 83.57 490.19 83.73 487.02 85.41 484.47 Z" />
<path fill="#b45869" opacity="1.00" d=" M 40.17 481.46 C 41.70 481.48 43.48 481.15 44.69 482.38 C 50.69 487.32 56.08 493.13 62.86 497.07 C 66.73 499.31 71.91 500.41 73.54 505.15 C 71.17 504.46 68.79 503.69 66.62 502.49 C 58.32 497.76 50.74 491.92 42.85 486.56 L 42.47 486.30 C 41.69 484.69 40.92 483.07 40.17 481.46 Z" />
</g>
<g id="#a94a5bff">
<path fill="#a94a5b" opacity="1.00" d=" M 180.35 222.39 C 182.48 227.15 182.71 232.42 183.03 237.54 C 182.43 237.12 181.23 236.26 180.63 235.84 C 180.36 234.26 180.08 232.69 179.95 231.10 C 179.85 228.19 180.05 225.28 180.35 222.39 Z" />
</g>
<g id="#162b48ff">
<path fill="#162b48" opacity="1.00" d=" M 180.63 235.84 C 181.23 236.26 182.43 237.12 183.03 237.54 C 187.44 240.92 190.95 245.28 194.63 249.40 C 207.88 264.67 219.75 281.06 231.46 297.52 C 232.62 299.20 233.91 300.86 234.52 302.83 C 233.94 308.70 231.49 314.17 229.33 319.59 C 219.42 342.83 206.99 364.87 194.58 386.83 L 194.28 385.88 C 193.76 384.33 193.28 382.75 193.12 381.13 C 190.59 353.46 186.86 325.81 187.18 297.97 C 187.07 277.07 182.63 256.57 180.63 235.84 Z" />
<path fill="#162b48" opacity="1.00" d=" M 178.29 237.90 C 179.51 245.76 180.86 253.65 181.56 261.57 C 181.11 270.35 181.97 279.12 182.36 287.89 C 182.84 304.91 183.59 321.93 184.57 338.94 C 184.81 345.69 186.49 352.25 187.44 358.92 C 187.69 358.46 188.20 357.56 188.45 357.10 C 189.42 366.50 190.66 375.88 191.17 385.31 C 188.40 379.11 184.83 373.32 181.26 367.56 C 170.45 350.70 158.43 334.65 145.97 318.99 C 143.43 315.66 140.34 312.73 138.20 309.10 C 140.38 305.42 143.48 302.41 145.83 298.85 C 158.92 279.85 169.43 259.16 178.29 237.90 Z" />
</g>
<g id="#445266ff">
<path fill="#445266" opacity="1.00" d=" M 182.36 287.89 C 181.97 279.12 181.11 270.35 181.56 261.57 C 183.32 272.62 184.27 283.81 184.78 294.98 C 184.51 315.75 186.19 336.48 188.45 357.10 C 188.20 357.56 187.69 358.46 187.44 358.92 C 186.49 352.25 184.81 345.69 184.57 338.94 C 183.59 321.93 182.84 304.91 182.36 287.89 Z" />
</g>
<g id="#b04d5fff">
<path fill="#b04d5f" opacity="1.00" d=" M 243.87 363.21 C 250.00 358.22 254.61 351.42 261.62 347.54 C 260.52 349.70 259.16 351.75 257.35 353.38 C 252.71 357.68 248.43 362.37 243.56 366.42 C 243.63 365.62 243.79 364.01 243.87 363.21 Z" />
<path fill="#b04d5f" opacity="1.00" d=" M 95.94 405.86 C 101.35 411.66 105.59 418.42 110.26 424.81 C 112.61 428.24 115.25 431.57 116.50 435.61 C 112.94 433.14 110.54 429.49 107.92 426.13 C 103.41 419.72 98.24 413.47 95.94 405.86 Z" />
</g>
<g id="#e6e7e7ff">
<path fill="#e6e7e7" opacity="1.00" d=" M 130.04 442.63 C 128.11 441.09 128.39 438.14 129.77 436.36 C 130.06 438.43 130.17 440.53 130.04 442.63 Z" />
<path fill="#e6e7e7" opacity="1.00" d=" M 158.41 438.88 C 159.29 437.90 160.32 437.03 161.70 437.02 C 161.87 438.69 161.66 440.38 161.63 442.07 C 160.92 442.08 159.50 442.10 158.79 442.11 C 159.73 440.73 160.68 439.36 161.59 437.96 C 160.79 438.19 159.21 438.65 158.41 438.88 Z" />
<path fill="#e6e7e7" opacity="1.00" d=" M 162.63 437.89 C 163.08 437.75 164.00 437.46 164.46 437.32 C 166.13 438.06 167.96 437.98 169.66 437.38 C 169.59 438.85 169.54 440.32 169.50 441.81 C 169.19 441.83 168.56 441.87 168.24 441.89 C 168.35 441.23 168.58 439.91 168.69 439.25 C 168.09 439.05 166.87 438.66 166.27 438.46 C 166.24 439.31 166.19 441.03 166.16 441.88 C 165.43 441.84 163.96 441.77 163.23 441.74 C 163.03 440.45 162.82 439.17 162.63 437.89 M 164.35 438.45 C 163.45 439.65 163.66 440.38 165.00 440.65 C 165.90 439.46 165.68 438.73 164.35 438.45 Z" />
<path fill="#e6e7e7" opacity="1.00" d=" M 171.20 437.48 C 171.86 437.35 173.17 437.07 173.83 436.93 L 173.89 437.88 C 173.37 437.90 172.32 437.95 171.80 437.98 C 172.83 438.95 174.46 439.54 174.72 441.13 C 173.84 441.45 172.96 442.88 171.93 442.18 C 170.64 440.98 171.34 439.02 171.20 437.48 M 172.41 440.40 C 173.05 440.92 173.05 440.92 172.41 440.40 Z" />
<path fill="#e6e7e7" opacity="1.00" d=" M 131.06 438.43 C 132.73 438.42 134.40 438.40 136.07 438.38 C 135.89 439.74 135.73 441.11 135.52 442.47 C 135.38 441.68 135.09 440.08 134.95 439.28 L 134.18 439.35 C 134.09 440.19 133.90 441.89 133.81 442.73 C 133.53 441.85 132.98 440.10 132.71 439.22 L 132.19 439.31 C 131.90 440.15 131.32 441.83 131.03 442.67 C 131.02 441.25 131.03 439.84 131.06 438.43 Z" />
<path fill="#e6e7e7" opacity="1.00" d=" M 141.11 440.13 C 140.96 437.74 144.88 437.84 145.35 439.93 C 145.77 439.47 146.59 438.54 147.00 438.07 C 147.46 438.29 148.39 438.73 148.85 438.95 C 148.79 439.82 148.67 441.56 148.60 442.43 C 147.03 442.13 145.70 441.26 144.69 440.03 C 144.69 440.84 144.70 442.44 144.70 443.25 C 143.48 442.28 140.95 442.16 141.11 440.13 M 142.23 439.82 C 142.42 443.17 145.19 438.21 142.23 439.82 Z" />
<path fill="#e6e7e7" opacity="1.00" d=" M 111.16 442.27 C 111.29 440.99 111.63 439.78 112.42 438.76 C 112.50 439.87 112.67 442.08 112.75 443.18 C 113.69 441.99 114.63 440.82 115.56 439.64 C 115.20 440.81 114.90 442.01 114.69 443.22 C 116.43 447.34 115.65 451.98 115.39 456.32 C 115.17 453.75 114.95 451.19 114.64 448.63 C 114.16 450.22 113.72 451.83 113.32 453.45 C 112.54 450.99 111.49 448.63 110.38 446.31 C 111.24 446.25 112.95 446.12 113.81 446.06 C 113.93 445.65 114.19 444.84 114.31 444.44 C 111.53 444.30 108.75 444.20 105.97 444.36 C 105.68 442.82 105.38 441.27 105.13 439.73 C 105.81 440.93 106.49 442.14 107.15 443.36 C 107.47 441.48 107.03 438.53 109.86 439.80 C 109.56 440.44 108.97 441.71 108.67 442.35 C 109.30 442.33 110.54 442.29 111.16 442.27 Z" />
<path fill="#e6e7e7" opacity="1.00" d=" M 128.69 444.66 C 128.96 444.59 129.51 444.46 129.78 444.39 C 130.84 447.90 129.49 451.78 131.19 455.15 C 130.05 455.94 128.66 454.78 128.60 453.57 C 128.36 450.60 128.36 447.61 128.69 444.66 Z" />
<path fill="#e6e7e7" opacity="1.00" d=" M 132.39 444.30 C 132.79 444.43 133.60 444.69 134.00 444.82 C 133.97 448.51 133.66 452.31 135.00 455.84 C 134.37 455.51 133.12 454.86 132.49 454.53 C 131.96 451.15 132.29 447.70 132.39 444.30 Z" />
<path fill="#e6e7e7" opacity="1.00" d=" M 118.63 455.61 C 119.62 451.51 120.98 447.47 122.99 443.74 C 125.24 447.34 126.47 451.45 127.53 455.54 C 126.21 454.94 125.23 453.98 124.60 452.66 C 123.59 452.67 122.58 452.69 121.57 452.72 C 120.90 453.99 119.91 454.96 118.63 455.61 M 122.28 448.51 C 120.85 449.49 122.34 452.18 123.86 450.93 C 125.18 449.95 123.76 447.29 122.28 448.51 Z" />
<path fill="#e6e7e7" opacity="1.00" d=" M 105.93 445.58 C 107.30 445.70 108.69 445.82 110.06 446.01 C 108.84 448.68 107.62 451.36 106.71 454.16 C 105.95 451.36 106.01 448.44 105.93 445.58 Z" />
<path fill="#e6e7e7" opacity="1.00" d=" M 144.00 447.98 C 146.10 448.45 147.75 446.91 149.43 445.93 C 150.32 446.86 151.20 447.83 152.26 448.60 C 148.89 448.93 149.68 454.25 152.44 454.88 C 151.36 455.55 150.11 455.35 148.92 455.23 C 148.55 452.91 149.38 449.62 146.62 448.57 C 144.68 450.29 145.38 452.99 145.17 455.26 C 144.85 455.31 144.20 455.40 143.88 455.44 C 143.58 454.33 143.22 453.25 142.80 452.20 C 140.91 451.33 138.78 452.07 136.81 452.03 C 138.24 454.00 140.50 454.04 142.72 453.98 C 141.49 455.19 139.75 455.91 138.06 455.23 C 134.72 454.38 134.66 448.74 138.01 447.89 C 140.00 447.09 141.35 448.99 142.76 450.01 C 143.07 449.50 143.69 448.49 144.00 447.98 M 138.17 449.25 C 137.68 450.83 138.27 451.35 139.94 450.80 C 140.43 449.20 139.84 448.69 138.17 449.25 Z" />
<path fill="#e6e7e7" opacity="1.00" d=" M 169.73 448.79 C 171.13 446.90 173.61 447.86 175.04 449.14 C 173.53 449.18 172.01 449.17 170.50 449.21 C 171.92 450.79 174.98 451.54 174.56 454.15 C 175.12 454.19 176.26 454.27 176.83 454.30 C 177.16 453.79 177.84 452.75 178.18 452.23 C 180.62 452.39 183.08 452.30 185.53 452.40 C 185.69 452.54 186.01 452.82 186.17 452.96 C 186.41 453.26 186.90 453.86 187.15 454.16 C 185.72 454.55 184.30 454.98 182.88 455.43 C 182.48 455.13 181.66 454.55 181.26 454.26 C 180.76 454.56 179.77 455.16 179.28 455.46 C 177.92 454.14 176.55 454.41 175.29 455.68 C 174.86 455.38 174.43 455.10 173.99 454.82 C 172.09 455.68 169.87 455.75 168.69 453.77 C 170.30 453.82 171.90 453.90 173.52 453.97 C 172.23 452.33 168.32 451.39 169.73 448.79 M 179.14 453.26 C 179.38 456.58 182.11 451.55 179.14 453.26 M 182.40 453.31 C 182.43 456.66 185.45 451.88 182.40 453.31 Z" />
<path fill="#e6e7e7" opacity="1.00" d=" M 157.85 449.80 C 156.53 449.27 155.24 448.72 154.02 448.00 C 158.49 445.59 162.41 451.87 158.72 454.71 C 155.17 457.43 150.95 452.76 152.97 449.04 C 153.94 450.42 154.53 452.00 155.08 453.60 C 157.73 454.79 158.97 451.89 157.85 449.80 Z" />
<path fill="#e6e7e7" opacity="1.00" d=" M 161.20 447.78 C 163.40 448.09 167.15 446.91 167.78 449.94 C 167.85 451.85 169.06 455.10 166.54 455.79 C 166.24 453.60 166.18 451.38 166.03 449.18 C 165.33 449.34 163.93 449.65 163.22 449.81 C 162.43 451.54 164.08 455.54 161.47 455.64 C 161.15 453.03 161.23 450.40 161.20 447.78 Z" />
<path fill="#e6e7e7" opacity="1.00" d=" M 107.23 455.84 C 108.31 454.21 109.25 452.51 110.18 450.81 C 111.22 452.57 112.37 454.27 113.61 455.91 L 113.72 456.08 C 111.56 455.98 109.39 455.94 107.23 455.84 Z" />
</g>
<g id="#bd7280ff">
<path fill="#bd7280" opacity="1.00" d=" M 151.43 438.38 C 152.13 436.62 154.32 437.22 155.79 436.85 C 156.22 437.84 156.64 438.83 157.07 439.83 C 156.76 440.40 156.15 441.54 155.85 442.11 C 154.55 442.10 153.25 442.09 151.96 442.09 C 151.84 440.87 150.65 439.53 151.43 438.38 M 154.39 439.11 C 154.54 442.44 157.37 437.57 154.39 439.11 Z" />
</g>
<g id="#d0a9b0ff">
<path fill="#d0a9b0" opacity="1.00" d=" M 137.53 437.72 C 140.43 437.50 140.50 440.21 140.79 442.34 C 138.40 442.34 135.63 442.48 136.23 439.15 C 136.91 439.31 138.25 439.63 138.93 439.79 C 138.58 439.27 137.88 438.24 137.53 437.72 Z" />
</g>
<g id="#a12339ff">
<path fill="#a12339" opacity="1.00" d=" M 154.39 439.11 C 157.37 437.57 154.54 442.44 154.39 439.11 Z" />
</g>
<g id="#b15163ff">
<path fill="#b15163" opacity="1.00" d=" M 202.26 440.26 C 204.74 441.66 206.30 444.46 206.55 447.26 C 206.36 451.51 203.32 454.85 200.63 457.86 C 200.66 456.46 200.70 455.08 200.75 453.70 C 201.83 451.85 203.41 450.12 203.67 447.93 C 203.36 445.35 201.85 442.90 202.26 440.26 Z" />
</g>
<g id="#d1aab1ff">
<path fill="#d1aab1" opacity="1.00" d=" M 142.34 443.16 C 142.86 443.73 142.86 443.73 142.34 443.16 Z" />
</g>
<g id="#c17f8bff">
<path fill="#c17f8b" opacity="1.00" d=" M 105.97 444.36 C 108.75 444.20 111.53 444.30 114.31 444.44 C 114.19 444.84 113.93 445.65 113.81 446.06 C 112.95 446.12 111.24 446.25 110.38 446.31 L 110.06 446.01 C 108.69 445.82 107.30 445.70 105.93 445.58 C 106.01 448.44 105.95 451.36 106.71 454.16 C 106.84 454.58 107.10 455.42 107.23 455.84 C 109.39 455.94 111.56 455.98 113.72 456.08 L 113.61 455.91 C 113.54 455.29 113.39 454.06 113.32 453.45 C 113.72 451.83 114.16 450.22 114.64 448.63 C 114.95 451.19 115.17 453.75 115.39 456.32 L 115.44 456.89 C 111.99 457.97 107.70 458.80 104.79 456.10 C 103.91 453.85 104.20 451.33 104.17 448.97 C 104.28 447.36 104.11 445.04 105.97 444.36 Z" />
</g>
<g id="#b76170ff">
<path fill="#b76170" opacity="1.00" d=" M 138.17 449.25 C 139.84 448.69 140.43 449.20 139.94 450.80 C 138.27 451.35 137.68 450.83 138.17 449.25 Z" />
</g>
<g id="#d3b1b8ff">
<path fill="#d3b1b8" opacity="1.00" d=" M 185.53 452.40 C 187.30 451.98 189.11 451.80 190.93 451.71 C 190.95 452.63 191.00 454.48 191.03 455.41 L 189.75 455.36 C 189.77 454.69 189.80 453.35 189.81 452.68 C 189.36 453.46 188.91 454.24 188.47 455.03 C 187.90 454.52 186.74 453.48 186.17 452.96 C 186.01 452.82 185.69 452.54 185.53 452.40 Z" />
</g>
<g id="#b04e5fff">
<path fill="#b04e5f" opacity="1.00" d=" M 196.43 461.02 C 196.32 459.80 197.14 458.66 198.33 458.38 C 199.34 459.47 197.82 461.79 196.43 461.02 Z" />
</g>
</svg>
