<?xml version="1.0" encoding="UTF-8" ?>
<!DOCTYPE svg PUBLIC "-//W3C//DTD SVG 1.1//EN" "http://www.w3.org/Graphics/SVG/1.1/DTD/svg11.dtd">
<svg width="284pt" height="551pt" viewBox="0 0 284 551" version="1.1" xmlns="http://www.w3.org/2000/svg">
<g id="#ffffffff">
<path fill="#ffffff" opacity="1.00" d=" M 0.00 0.00 L 284.00 0.00 L 284.00 551.00 L 0.00 551.00 L 0.00 0.00 M 126.79 17.85 C 113.83 25.09 104.05 37.58 99.81 51.78 C 93.68 70.61 95.26 90.98 99.86 109.96 C 103.09 112.88 104.10 117.54 107.72 120.17 C 106.33 124.70 104.83 129.29 102.30 133.33 C 100.65 136.12 96.83 137.38 96.33 140.86 C 95.51 145.56 95.95 150.65 98.33 154.86 C 99.30 156.65 100.41 158.94 99.03 160.84 C 97.10 163.63 94.65 166.06 93.06 169.09 C 88.80 175.76 91.87 184.12 94.61 190.78 C 83.23 192.12 71.95 195.14 62.02 201.02 C 40.55 213.60 24.91 234.30 14.61 256.63 C 9.07 274.85 9.34 294.15 9.22 313.00 C 8.25 325.32 5.96 337.56 5.99 349.96 C 5.82 354.12 7.61 357.95 8.58 361.91 C 10.38 369.13 12.05 376.51 11.69 384.01 C 11.39 390.69 12.18 397.37 11.87 404.06 C 11.25 411.25 15.42 417.47 17.59 424.05 C 20.57 431.72 20.76 440.04 22.18 448.07 C 23.52 455.58 24.87 463.27 28.52 470.07 C 30.73 474.16 34.44 477.12 37.11 480.87 C 43.04 489.55 45.59 500.05 51.32 508.83 C 56.21 514.21 62.57 518.36 66.12 524.92 C 69.46 529.99 68.45 536.31 68.35 542.04 C 68.41 544.16 67.99 546.84 70.00 548.28 C 82.91 543.88 96.01 536.91 110.07 539.07 C 108.77 525.62 106.53 512.25 103.45 499.09 C 101.85 492.51 104.06 485.28 101.04 479.03 C 98.69 475.64 96.46 471.92 96.96 467.60 C 104.97 466.86 113.02 466.68 121.04 467.30 C 132.32 468.45 143.67 467.69 154.99 467.94 C 171.34 468.51 187.70 467.69 204.04 468.03 C 215.21 468.06 227.45 468.16 237.13 461.78 C 238.65 469.14 239.94 476.57 240.32 484.10 C 239.68 489.81 240.15 495.64 241.77 501.17 C 243.47 506.32 242.85 511.95 245.00 517.00 C 246.65 520.98 247.17 525.90 250.66 528.76 C 253.47 526.04 256.86 523.62 260.87 523.26 C 266.29 522.26 271.60 524.46 277.00 524.27 C 277.37 523.93 278.11 523.26 278.49 522.92 C 277.08 513.51 272.93 504.55 272.55 494.93 C 272.39 487.94 272.56 480.95 272.85 473.97 C 273.07 471.88 271.88 470.04 271.41 468.07 C 271.80 466.01 272.79 464.13 273.32 462.11 C 273.27 459.69 271.01 458.58 269.39 457.25 C 270.33 455.27 271.93 453.36 271.60 451.03 C 270.31 435.38 270.06 419.65 270.69 403.96 C 271.26 394.66 271.91 385.33 271.48 376.01 C 270.50 353.22 264.06 331.22 259.12 309.09 C 256.74 298.82 256.66 288.21 254.61 277.89 C 252.39 266.45 249.49 255.00 244.31 244.51 C 242.34 240.89 240.23 236.91 236.36 235.02 C 223.55 222.20 207.38 213.49 191.64 204.84 C 191.40 196.21 191.72 187.56 191.20 178.95 C 190.90 178.61 190.28 177.93 189.97 177.59 C 186.49 180.89 183.41 184.64 180.50 188.43 C 179.58 195.57 179.82 202.84 179.01 210.00 C 178.50 210.03 177.48 210.11 176.98 210.14 C 176.26 202.78 176.30 195.35 175.64 187.98 C 175.66 186.69 174.24 186.24 173.38 185.62 C 157.62 176.62 141.87 167.60 126.15 158.53 C 124.59 157.69 122.84 156.37 121.02 157.44 C 115.03 160.32 112.88 167.26 111.10 173.17 C 109.55 177.45 109.82 182.43 106.86 186.13 C 102.38 179.34 103.60 170.78 103.08 163.07 C 103.34 155.59 100.97 148.25 101.71 140.77 C 106.69 143.31 110.38 147.84 115.64 149.89 C 113.02 138.16 116.15 126.11 120.24 115.11 C 122.07 109.74 126.40 105.56 127.60 99.96 C 129.23 92.62 128.77 85.02 128.12 77.60 C 135.14 74.56 142.61 72.76 150.09 71.24 C 163.83 68.76 178.17 67.75 191.87 71.08 C 198.40 72.81 204.80 75.67 209.79 80.30 C 211.59 83.51 211.77 87.33 211.67 90.93 C 211.01 108.64 210.31 126.36 209.25 144.05 C 209.12 145.57 209.08 147.13 208.63 148.59 C 205.34 152.57 200.90 155.45 197.66 159.48 C 195.82 161.23 197.77 163.59 198.75 165.26 C 200.01 167.20 202.44 169.65 204.87 168.01 C 209.62 165.34 214.44 161.74 216.55 156.54 C 216.90 153.42 214.87 150.56 214.70 147.45 C 213.29 134.10 214.81 120.66 216.22 107.37 C 221.32 103.15 226.47 98.72 229.97 93.03 C 231.76 90.47 233.89 88.17 235.73 85.65 C 239.21 81.29 239.17 75.33 238.94 70.03 C 238.72 65.03 236.07 60.70 233.63 56.50 C 231.33 46.21 227.05 36.12 219.80 28.32 C 210.10 17.49 196.18 11.23 181.99 8.96 C 163.30 5.31 143.36 8.46 126.79 17.85 Z" />
<path fill="#ffffff" opacity="1.00" d=" M 105.09 88.16 C 108.18 86.71 111.58 85.21 115.06 86.06 C 118.60 86.95 120.48 91.55 118.77 94.72 C 114.97 102.87 110.73 110.84 107.68 119.33 C 105.19 113.12 102.77 106.74 102.15 100.03 C 102.23 95.91 103.48 91.91 105.09 88.16 Z" />
</g>
<g id="#000000ff">
<path fill="#000000" opacity="1.00" d=" M 126.79 17.85 C 143.36 8.46 163.30 5.31 181.99 8.96 C 196.18 11.23 210.10 17.49 219.80 28.32 C 227.05 36.12 231.33 46.21 233.63 56.50 C 236.07 60.70 238.72 65.03 238.94 70.03 C 239.17 75.33 239.21 81.29 235.73 85.65 C 233.89 88.17 231.76 90.47 229.97 93.03 C 226.47 98.72 221.32 103.15 216.22 107.37 C 214.81 120.66 213.29 134.10 214.70 147.45 C 214.87 150.56 216.90 153.42 216.55 156.54 C 214.44 161.74 209.62 165.34 204.87 168.01 C 202.44 169.65 200.01 167.20 198.75 165.26 C 197.77 163.59 195.82 161.23 197.66 159.48 C 200.90 155.45 205.34 152.57 208.63 148.59 C 209.08 147.13 209.12 145.57 209.25 144.05 C 210.31 126.36 211.01 108.64 211.67 90.93 C 211.77 87.33 211.59 83.51 209.79 80.30 C 204.80 75.67 198.40 72.81 191.87 71.08 C 178.17 67.75 163.83 68.76 150.09 71.24 C 142.61 72.76 135.14 74.56 128.12 77.60 C 128.77 85.02 129.23 92.62 127.60 99.96 C 126.40 105.56 122.07 109.74 120.24 115.11 C 116.15 126.11 113.02 138.16 115.64 149.89 C 110.38 147.84 106.69 143.31 101.71 140.77 C 100.97 148.25 103.34 155.59 103.08 163.07 C 103.60 170.78 102.38 179.34 106.86 186.13 C 109.82 182.43 109.55 177.45 111.10 173.17 C 112.88 167.26 115.03 160.32 121.02 157.44 C 122.84 156.37 124.59 157.69 126.15 158.53 C 141.87 167.60 157.62 176.62 173.38 185.62 C 174.24 186.24 175.66 186.69 175.64 187.98 C 176.30 195.35 176.26 202.78 176.98 210.14 C 177.48 210.11 178.50 210.03 179.01 210.00 C 179.82 202.84 179.58 195.57 180.50 188.43 C 183.41 184.64 186.49 180.89 189.97 177.59 C 190.28 177.93 190.90 178.61 191.20 178.95 C 191.72 187.56 191.40 196.21 191.64 204.84 C 207.38 213.49 223.55 222.20 236.36 235.02 C 240.23 236.91 242.34 240.89 244.31 244.51 C 249.49 255.00 252.39 266.45 254.61 277.89 C 256.66 288.21 256.74 298.82 259.12 309.09 C 264.06 331.22 270.50 353.22 271.48 376.01 C 271.91 385.33 271.26 394.66 270.69 403.96 C 270.06 419.65 270.31 435.38 271.60 451.03 C 271.93 453.36 270.33 455.27 269.39 457.25 C 271.01 458.58 273.27 459.69 273.32 462.11 C 272.79 464.13 271.80 466.01 271.41 468.07 C 271.88 470.04 273.07 471.88 272.85 473.97 C 272.56 480.95 272.39 487.94 272.55 494.93 C 272.93 504.55 277.08 513.51 278.49 522.92 C 278.11 523.26 277.37 523.93 277.00 524.27 C 271.60 524.46 266.29 522.26 260.87 523.26 C 256.86 523.62 253.47 526.04 250.66 528.76 C 247.17 525.90 246.65 520.98 245.00 517.00 C 242.85 511.95 243.47 506.32 241.77 501.17 C 240.15 495.64 239.68 489.81 240.32 484.10 C 239.94 476.57 238.65 469.14 237.13 461.78 C 227.45 468.16 215.21 468.06 204.04 468.03 C 187.70 467.69 171.34 468.51 154.99 467.94 C 143.67 467.69 132.32 468.45 121.04 467.30 C 113.02 466.68 104.97 466.86 96.96 467.60 C 96.46 471.92 98.69 475.64 101.04 479.03 C 104.06 485.28 101.85 492.51 103.45 499.09 C 106.53 512.25 108.77 525.62 110.07 539.07 C 96.01 536.91 82.91 543.88 70.00 548.28 C 67.99 546.84 68.41 544.16 68.35 542.04 C 68.45 536.31 69.46 529.99 66.12 524.92 C 62.57 518.36 56.21 514.21 51.32 508.83 C 45.59 500.05 43.04 489.55 37.11 480.87 C 34.44 477.12 30.73 474.16 28.52 470.07 C 24.87 463.27 23.52 455.58 22.18 448.07 C 20.76 440.04 20.57 431.72 17.59 424.05 C 15.42 417.47 11.25 411.25 11.87 404.06 C 12.18 397.37 11.39 390.69 11.69 384.01 C 12.05 376.51 10.38 369.13 8.58 361.91 C 7.61 357.95 5.82 354.12 5.99 349.96 C 5.96 337.56 8.25 325.32 9.22 313.00 C 9.34 294.15 9.07 274.85 14.61 256.63 C 24.91 234.30 40.55 213.60 62.02 201.02 C 71.95 195.14 83.23 192.12 94.61 190.78 C 91.87 184.12 88.80 175.76 93.06 169.09 C 94.65 166.06 97.10 163.63 99.03 160.84 C 100.41 158.94 99.30 156.65 98.33 154.86 C 95.95 150.65 95.51 145.56 96.33 140.86 C 96.83 137.38 100.65 136.12 102.30 133.33 C 104.83 129.29 106.33 124.70 107.72 120.17 C 104.10 117.54 103.09 112.88 99.86 109.96 C 95.26 90.98 93.68 70.61 99.81 51.78 C 104.05 37.58 113.83 25.09 126.79 17.85 M 134.46 16.30 C 123.46 20.71 113.78 28.69 107.78 38.96 C 98.02 55.07 96.90 74.67 98.67 92.97 C 102.28 80.16 113.39 71.52 124.24 64.87 C 129.75 61.33 136.31 60.10 141.97 56.90 C 158.72 44.60 180.58 40.18 201.00 42.93 C 211.26 44.41 221.74 47.15 230.04 53.66 C 227.19 41.24 220.22 29.65 209.74 22.23 C 195.95 12.49 178.54 9.05 161.90 9.43 C 152.53 10.38 143.02 12.30 134.46 16.30 M 148.49 54.92 C 156.92 53.42 165.40 51.81 174.00 51.98 C 190.50 51.66 207.65 55.94 220.55 66.61 C 226.50 71.39 231.26 78.22 231.46 86.09 C 239.01 77.30 236.96 62.86 228.47 55.40 C 222.70 50.54 215.39 47.97 208.14 46.26 C 188.15 41.83 166.19 44.32 148.49 54.92 M 105.09 88.16 C 103.48 91.91 102.23 95.91 102.15 100.03 C 102.77 106.74 105.19 113.12 107.68 119.33 C 110.73 110.84 114.97 102.87 118.77 94.72 C 120.48 91.55 118.60 86.95 115.06 86.06 C 111.58 85.21 108.18 86.71 105.09 88.16 M 115.49 167.32 C 112.13 173.72 112.53 181.47 108.42 187.52 C 113.03 193.52 118.38 198.99 122.28 205.50 C 124.20 208.44 123.44 212.58 125.90 215.16 C 130.07 216.48 134.71 215.37 138.79 217.15 C 139.49 220.52 134.60 221.05 132.53 222.72 C 129.38 222.88 126.21 224.08 123.08 223.26 C 121.59 222.33 120.94 220.60 120.04 219.17 C 119.39 216.55 118.89 213.80 117.43 211.48 C 115.82 209.70 113.55 208.73 111.57 207.43 C 105.32 203.73 99.73 198.79 95.90 192.56 C 91.10 193.75 86.20 194.49 81.38 195.61 C 64.93 199.69 50.66 210.00 39.29 222.30 C 35.83 226.42 31.98 230.35 29.69 235.28 C 27.56 237.18 26.31 239.83 24.77 242.19 C 31.99 235.63 39.95 229.93 48.35 224.97 C 49.68 224.58 51.17 224.29 52.14 223.20 C 55.38 222.51 58.62 223.23 61.66 224.39 C 62.10 225.52 63.50 225.96 64.40 226.69 C 71.70 230.93 78.29 236.22 85.05 241.24 C 91.18 246.28 97.27 251.39 102.82 257.08 C 105.29 259.98 108.13 262.77 109.46 266.43 C 110.38 268.71 109.37 271.11 108.84 273.35 C 107.42 280.29 107.02 287.42 107.20 294.49 C 107.33 300.05 109.42 305.38 109.29 310.96 C 109.08 323.14 105.88 335.00 104.89 347.11 C 104.34 353.19 99.32 357.50 94.80 360.99 C 93.31 362.46 90.72 363.58 90.75 365.99 C 91.14 369.64 92.89 372.97 94.60 376.16 C 98.37 383.91 95.09 392.86 89.59 398.85 C 87.73 400.77 85.01 402.90 85.83 405.96 C 86.92 408.71 89.12 410.79 90.96 413.05 C 95.14 417.82 98.26 423.69 99.09 430.04 C 100.77 441.68 98.88 453.41 97.37 464.96 C 108.57 463.67 119.84 464.37 131.05 465.19 C 153.83 465.22 176.61 465.78 199.39 465.08 C 200.97 465.94 202.36 463.18 201.03 462.19 C 201.76 456.47 201.03 450.59 202.27 444.90 C 202.34 444.21 202.47 442.85 202.54 442.16 C 202.97 430.59 200.87 419.08 197.57 408.03 C 193.32 388.31 192.56 368.06 190.03 348.11 C 188.78 332.43 187.42 316.72 187.68 300.98 C 187.73 296.34 187.15 291.72 187.26 287.08 C 186.76 286.91 185.75 286.59 185.24 286.43 L 184.82 286.28 C 185.28 285.52 186.18 284.00 186.63 283.24 C 186.21 274.42 184.71 265.68 183.52 256.94 C 181.55 242.32 179.39 227.73 176.91 213.19 C 176.07 212.72 175.23 212.26 174.39 211.79 C 173.95 204.12 173.90 196.40 173.15 188.76 C 170.50 186.29 167.03 184.94 163.98 183.05 C 150.27 175.06 136.40 167.37 122.76 159.28 C 119.31 160.84 116.90 163.87 115.49 167.32 M 182.36 191.92 C 181.97 198.32 181.65 204.72 181.34 211.13 C 180.84 211.57 179.85 212.44 179.35 212.87 C 180.68 220.33 181.49 227.88 183.13 235.27 C 184.12 244.56 185.58 253.80 186.83 263.06 C 187.53 271.25 188.95 279.36 189.44 287.58 L 189.58 287.64 C 189.79 292.09 190.19 296.53 190.18 300.99 C 189.95 316.24 191.01 331.47 192.44 346.64 C 193.16 357.14 194.55 367.58 195.55 378.06 C 196.05 382.55 196.20 387.12 197.42 391.50 C 197.49 394.25 197.86 396.97 198.54 399.64 C 198.75 405.65 201.08 411.29 202.22 417.14 C 203.71 424.34 205.01 431.65 204.85 439.03 C 204.04 445.24 203.60 451.53 203.81 457.79 C 203.74 459.18 203.68 460.57 203.62 461.98 C 203.85 463.09 204.10 464.22 204.36 465.34 C 213.15 465.10 222.31 465.30 230.55 461.76 C 232.63 461.62 234.74 460.77 235.89 458.95 C 239.48 453.70 238.94 447.02 238.55 441.01 C 237.98 434.48 238.76 427.95 239.22 421.44 C 239.46 419.16 239.68 416.87 239.83 414.58 C 241.54 396.99 243.10 379.38 244.71 361.78 C 245.95 356.86 246.68 351.82 247.52 346.82 C 253.09 317.73 251.41 287.20 243.03 258.79 C 241.63 253.97 240.10 249.14 237.94 244.59 C 237.57 241.97 236.59 239.45 234.75 237.52 C 234.05 235.91 232.72 234.71 231.50 233.51 C 226.01 228.32 219.67 224.17 213.39 220.03 C 213.38 218.26 211.94 215.12 210.07 217.58 C 204.04 214.39 198.29 210.68 192.15 207.69 C 191.13 207.14 190.11 206.58 189.09 206.03 C 188.73 198.04 188.77 190.04 188.73 182.04 C 186.31 185.07 182.27 187.62 182.36 191.92 M 44.63 230.65 C 33.74 237.73 23.20 246.37 17.05 258.02 C 12.85 270.83 12.21 284.47 11.74 297.85 C 11.73 301.91 11.61 305.97 11.64 310.03 C 11.78 317.50 10.35 324.87 9.66 332.29 C 9.23 338.20 8.34 344.11 8.50 350.06 C 8.61 354.65 10.55 358.89 11.50 363.32 C 12.89 369.77 14.31 376.31 14.22 382.95 C 13.82 391.33 15.00 399.69 14.52 408.08 C 15.44 413.59 18.61 418.42 20.26 423.73 C 25.18 437.76 23.96 453.30 29.97 467.03 C 31.60 471.07 34.65 474.25 37.54 477.41 C 40.20 480.28 42.03 483.77 43.99 487.14 C 44.15 488.06 44.56 488.87 45.20 489.56 C 47.19 494.86 49.30 500.13 51.84 505.19 C 53.94 509.58 58.34 512.05 61.58 515.47 C 65.34 519.35 69.02 523.72 70.43 529.05 C 71.46 534.46 70.73 539.99 70.86 545.45 C 82.50 540.77 94.60 535.64 107.41 536.31 C 106.26 527.64 105.06 518.97 103.37 510.39 C 102.35 505.27 100.58 500.27 100.45 495.01 C 100.16 490.69 100.66 486.28 99.61 482.04 C 98.25 478.55 95.10 475.82 94.76 471.93 C 94.07 465.92 95.47 459.96 96.04 454.00 C 97.18 442.97 98.55 430.83 92.71 420.81 C 90.31 417.12 87.36 413.85 84.72 410.35 C 83.01 408.20 82.08 405.04 83.47 402.51 C 85.40 399.36 88.25 396.88 89.92 393.57 C 92.29 390.28 93.60 386.06 93.05 382.02 C 91.67 375.93 86.93 370.69 87.68 364.15 C 88.62 362.68 89.79 361.38 90.73 359.92 C 94.73 357.40 98.71 354.30 100.74 349.91 C 102.14 345.99 102.08 341.75 102.60 337.67 L 102.82 337.64 C 103.67 326.50 107.68 315.27 105.22 304.10 C 103.32 295.60 103.77 286.71 104.61 278.10 C 104.83 273.76 108.17 268.95 104.97 265.03 C 98.68 256.12 89.87 249.44 81.50 242.61 C 73.82 236.83 66.15 230.90 57.62 226.42 C 52.94 224.48 48.57 228.58 44.63 230.65 M 243.01 248.79 C 243.85 253.37 244.92 258.01 247.04 262.18 C 249.95 274.77 252.36 287.51 253.21 300.44 C 253.92 313.15 253.45 325.90 251.92 338.54 C 250.50 348.15 248.33 357.63 246.87 367.22 C 246.79 368.02 246.64 369.61 246.57 370.41 C 246.20 373.14 245.97 375.88 245.81 378.63 C 245.44 381.92 245.05 385.21 244.87 388.52 C 244.29 395.71 243.14 402.88 243.22 410.11 C 243.05 410.30 242.72 410.68 242.55 410.88 C 242.50 418.30 241.13 425.64 240.95 433.06 C 240.71 440.57 242.42 448.08 241.18 455.57 C 240.34 457.58 238.93 459.64 239.44 461.92 C 240.81 470.53 243.27 479.17 242.34 487.96 C 242.02 492.09 242.80 496.20 243.83 500.19 C 244.63 502.77 245.22 505.42 245.50 508.12 C 245.98 513.96 248.56 519.31 250.46 524.78 C 257.48 518.57 267.35 520.04 275.80 521.50 C 274.01 513.33 271.17 505.38 270.24 497.04 C 269.74 489.68 270.08 482.30 270.23 474.94 C 270.34 472.53 269.27 470.31 268.83 467.99 C 268.80 465.81 269.88 463.83 270.55 461.82 C 269.31 460.59 267.60 459.67 266.91 458.00 C 266.88 455.37 269.21 453.21 268.80 450.48 C 267.96 438.35 267.44 426.19 267.73 414.03 C 267.77 402.01 269.34 390.03 268.84 378.00 C 268.37 363.03 265.39 348.28 262.02 333.73 C 259.36 322.63 256.37 311.59 254.64 300.30 C 252.96 288.03 252.35 275.36 248.00 263.67 C 247.50 258.41 245.58 253.38 243.01 248.79 Z" />
</g>
<g id="#f1190cff">
<path fill="#f1190c" opacity="1.00" d=" M 134.46 16.30 C 143.02 12.30 152.53 10.38 161.90 9.43 C 178.54 9.05 195.95 12.49 209.74 22.23 C 220.22 29.65 227.19 41.24 230.04 53.66 C 221.74 47.15 211.26 44.41 201.00 42.93 C 180.58 40.18 158.72 44.60 141.97 56.90 C 136.31 60.10 129.75 61.33 124.24 64.87 C 120.32 63.11 115.84 61.19 114.11 56.92 C 112.01 51.47 114.12 45.54 116.59 40.59 C 121.22 31.62 127.61 23.68 134.46 16.30 Z" />
<path fill="#f1190c" opacity="1.00" d=" M 148.49 54.92 C 166.19 44.32 188.15 41.83 208.14 46.26 C 215.39 47.97 222.70 50.54 228.47 55.40 C 236.96 62.86 239.01 77.30 231.46 86.09 C 231.26 78.22 226.50 71.39 220.55 66.61 C 207.65 55.94 190.50 51.66 174.00 51.98 C 165.40 51.81 156.92 53.42 148.49 54.92 Z" />
<path fill="#f1190c" opacity="1.00" d=" M 210.07 217.58 C 211.94 215.12 213.38 218.26 213.39 220.03 C 219.67 224.17 226.01 228.32 231.50 233.51 C 232.72 234.71 234.05 235.91 234.75 237.52 C 235.66 239.94 236.69 242.32 237.94 244.59 C 240.10 249.14 241.63 253.97 243.03 258.79 C 243.47 260.64 243.87 262.50 244.28 264.37 C 242.89 264.71 241.52 265.08 240.13 265.38 C 239.29 265.51 237.62 265.77 236.79 265.90 C 227.88 266.47 217.92 266.41 210.89 260.05 C 198.11 249.77 197.84 228.41 210.07 217.58 Z" />
<path fill="#f1190c" opacity="1.00" d=" M 93.13 228.02 C 100.30 221.33 110.39 218.62 120.04 219.17 C 120.94 220.60 121.59 222.33 123.08 223.26 C 126.21 224.08 129.38 222.88 132.53 222.72 C 141.77 227.01 149.19 236.48 148.81 247.00 C 148.78 256.47 142.48 264.97 134.41 269.46 C 127.50 273.44 119.35 274.39 111.51 273.83 L 111.81 273.39 C 114.29 270.04 117.44 267.25 119.99 263.96 C 121.91 261.75 120.42 258.73 119.63 256.37 C 117.89 252.58 116.15 248.14 112.18 246.20 C 107.79 248.50 105.47 253.12 102.82 257.08 C 97.27 251.39 91.18 246.28 85.05 241.24 C 86.78 236.34 89.16 231.51 93.13 228.02 Z" />
<path fill="#f1190c" opacity="1.00" d=" M 44.63 230.65 C 48.57 228.58 52.94 224.48 57.62 226.42 C 66.15 230.90 73.82 236.83 81.50 242.61 C 89.87 249.44 98.68 256.12 104.97 265.03 C 108.17 268.95 104.83 273.76 104.61 278.10 C 103.77 286.71 103.32 295.60 105.22 304.10 C 85.51 305.28 65.72 305.62 46.03 304.07 C 34.44 303.06 22.80 301.58 11.74 297.85 C 12.21 284.47 12.85 270.83 17.05 258.02 C 23.20 246.37 33.74 237.73 44.63 230.65 Z" />
<path fill="#f1190c" opacity="1.00" d=" M 247.04 262.18 L 248.00 263.67 C 252.35 275.36 252.96 288.03 254.64 300.30 C 254.28 300.33 253.57 300.40 253.21 300.44 C 252.36 287.51 249.95 274.77 247.04 262.18 Z" />
<path fill="#f1190c" opacity="1.00" d=" M 163.55 290.43 C 169.89 286.50 177.53 285.79 184.82 286.28 L 185.24 286.43 L 185.14 286.39 C 185.99 307.07 186.69 327.75 187.96 348.40 C 181.73 349.50 175.16 349.89 169.14 347.63 C 157.35 343.74 148.57 332.36 147.86 319.95 C 146.80 308.12 153.37 296.35 163.55 290.43 Z" />
<path fill="#f1190c" opacity="1.00" d=" M 189.58 287.64 C 195.02 290.02 200.26 293.19 203.92 297.98 C 211.84 307.57 213.17 321.98 207.05 332.82 C 203.93 338.98 198.50 343.52 192.44 346.64 C 191.01 331.47 189.95 316.24 190.18 300.99 C 190.19 296.53 189.79 292.09 189.58 287.64 Z" />
<path fill="#f1190c" opacity="1.00" d=" M 9.66 332.29 C 15.27 333.73 20.91 335.08 26.64 335.92 C 27.93 336.27 29.23 336.63 30.52 336.99 C 38.53 342.77 45.69 349.58 53.07 356.11 C 51.38 349.91 48.73 344.01 45.13 338.69 C 47.40 338.95 49.67 339.23 51.96 339.40 C 56.07 348.33 61.31 356.68 65.50 365.57 C 65.95 366.95 67.03 368.60 66.21 370.04 C 63.90 371.71 61.00 372.22 58.55 373.63 C 58.06 375.07 57.84 376.59 57.53 378.08 C 60.26 376.96 62.89 375.18 65.92 375.10 C 68.82 376.10 71.05 378.44 73.95 379.45 C 80.40 376.49 84.07 369.92 87.68 364.15 C 86.93 370.69 91.67 375.93 93.05 382.02 C 93.60 386.06 92.29 390.28 89.92 393.57 C 84.54 397.85 77.89 401.52 75.05 408.10 C 74.44 411.99 77.62 415.23 79.91 418.05 C 82.38 420.65 85.30 423.52 89.09 423.77 C 90.77 423.71 91.51 421.72 92.71 420.81 C 98.55 430.83 97.18 442.97 96.04 454.00 C 95.47 459.96 94.07 465.92 94.76 471.93 C 95.10 475.82 98.25 478.55 99.61 482.04 C 100.66 486.28 100.16 490.69 100.45 495.01 C 100.58 500.27 102.35 505.27 103.37 510.39 C 105.06 518.97 106.26 527.64 107.41 536.31 C 94.60 535.64 82.50 540.77 70.86 545.45 C 70.73 539.99 71.46 534.46 70.43 529.05 C 69.02 523.72 65.34 519.35 61.58 515.47 C 58.34 512.05 53.94 509.58 51.84 505.19 C 49.30 500.13 47.19 494.86 45.20 489.56 C 49.80 493.43 54.74 496.89 59.74 500.23 C 65.10 503.69 70.34 507.65 76.65 509.19 C 74.48 503.82 68.29 502.96 64.01 499.95 C 56.86 495.51 51.72 488.42 44.23 484.51 C 44.17 485.17 44.05 486.48 43.99 487.14 C 42.03 483.77 40.20 480.28 37.54 477.41 C 34.65 474.25 31.60 471.07 29.97 467.03 C 23.96 453.30 25.18 437.76 20.26 423.73 C 18.61 418.42 15.44 413.59 14.52 408.08 C 15.00 399.69 13.82 391.33 14.22 382.95 C 14.31 376.31 12.89 369.77 11.50 363.32 C 10.55 358.89 8.61 354.65 8.50 350.06 C 8.34 344.11 9.23 338.20 9.66 332.29 M 14.66 382.80 C 14.01 390.47 15.35 398.35 18.88 405.22 C 26.11 402.71 33.71 401.43 40.91 398.83 C 37.97 396.16 34.03 395.28 30.61 393.44 C 24.93 390.46 20.03 386.26 14.66 382.80 M 78.04 432.13 C 74.11 434.71 71.33 438.65 67.91 441.83 C 60.97 449.13 53.39 455.84 46.64 463.32 C 50.80 461.95 54.43 459.45 58.01 456.99 C 63.15 453.44 68.75 450.54 73.59 446.54 C 76.92 443.91 79.94 440.84 83.64 438.72 C 85.59 437.63 87.92 438.59 90.00 438.01 C 92.19 436.82 93.16 434.38 94.28 432.31 C 89.02 431.14 83.15 429.54 78.04 432.13 M 56.32 466.80 C 60.25 469.73 65.08 470.93 69.69 472.33 C 77.27 474.32 84.86 476.73 92.75 476.97 C 88.58 474.32 83.71 473.29 79.03 471.94 C 71.49 470.10 64.09 467.46 56.32 466.80 M 88.38 488.51 C 86.70 491.06 86.54 494.25 86.02 497.18 C 88.22 494.68 90.14 491.92 92.57 489.62 C 95.01 487.27 98.93 485.91 99.08 481.99 C 95.12 483.33 91.01 485.10 88.38 488.51 Z" />
<path fill="#f1190c" opacity="1.00" d=" M 251.92 338.54 C 255.32 337.02 258.68 335.40 262.02 333.73 C 265.39 348.28 268.37 363.03 268.84 378.00 C 269.34 390.03 267.77 402.01 267.73 414.03 C 267.44 426.19 267.96 438.35 268.80 450.48 C 269.21 453.21 266.88 455.37 266.91 458.00 C 267.60 459.67 269.31 460.59 270.55 461.82 C 269.88 463.83 268.80 465.81 268.83 467.99 C 269.27 470.31 270.34 472.53 270.23 474.94 C 270.08 482.30 269.74 489.68 270.24 497.04 C 271.17 505.38 274.01 513.33 275.80 521.50 C 267.35 520.04 257.48 518.57 250.46 524.78 C 248.56 519.31 245.98 513.96 245.50 508.12 C 245.22 505.42 244.63 502.77 243.83 500.19 C 246.63 500.10 249.63 500.43 252.24 499.17 C 255.42 497.60 258.04 495.15 260.71 492.87 C 257.54 493.25 254.37 493.86 251.17 493.72 C 248.56 490.56 247.70 485.38 249.86 481.79 C 253.85 476.98 259.74 474.31 264.13 469.91 C 257.79 472.92 252.56 477.81 246.06 480.51 C 244.69 476.42 243.79 472.07 244.78 467.79 C 246.20 461.17 245.82 454.38 245.10 447.70 C 243.79 450.32 242.47 452.94 241.18 455.57 C 242.42 448.08 240.71 440.57 240.95 433.06 C 241.13 425.64 242.50 418.30 242.55 410.88 C 245.93 409.13 249.13 406.77 252.97 406.14 C 257.26 405.33 261.88 405.66 265.77 403.36 C 262.19 402.02 258.07 400.50 254.40 402.42 C 250.35 404.45 246.64 407.15 243.22 410.11 C 243.14 402.88 244.29 395.71 244.87 388.52 C 250.76 384.85 256.71 381.28 262.54 377.51 C 264.46 376.45 265.15 374.29 265.91 372.39 C 259.51 375.36 253.04 378.53 245.81 378.63 C 245.97 375.88 246.20 373.14 246.57 370.41 C 251.22 366.45 255.43 362.01 259.89 357.83 C 261.84 356.01 263.39 353.82 264.74 351.54 C 257.61 355.31 253.09 362.28 246.87 367.22 C 248.33 357.63 250.50 348.15 251.92 338.54 Z" />
<path fill="#f1190c" opacity="1.00" d=" M 56.49 339.71 C 71.88 340.59 87.34 339.81 102.60 337.67 C 102.08 341.75 102.14 345.99 100.74 349.91 C 98.71 354.30 94.73 357.40 90.73 359.92 C 93.07 355.10 95.66 350.42 98.20 345.72 C 92.02 348.16 86.39 351.78 80.21 354.19 C 77.23 355.42 74.06 354.06 71.45 352.59 C 65.72 349.26 60.81 344.69 56.49 339.71 Z" />
<path fill="#f1190c" opacity="1.00" d=" M 222.95 366.94 C 228.65 362.98 235.73 361.37 242.61 361.92 C 243.01 365.21 243.74 368.60 242.94 371.89 C 242.07 374.74 240.25 377.16 238.64 379.63 C 231.43 390.16 224.50 400.87 217.18 411.32 C 213.39 406.69 210.70 401.06 210.13 395.06 C 208.77 384.29 213.83 372.91 222.95 366.94 Z" />
<path fill="#f1190c" opacity="1.00" d=" M 102.24 368.60 C 103.56 368.17 104.89 367.79 106.24 367.48 C 111.32 366.75 116.49 366.88 121.61 367.14 C 123.29 367.38 124.95 367.71 126.59 368.11 C 137.73 371.82 145.17 383.15 145.06 394.75 C 144.99 395.60 144.84 397.28 144.76 398.13 C 143.66 406.92 138.32 415.23 130.31 419.24 C 123.65 422.79 115.84 422.08 108.57 421.86 C 107.76 421.75 106.15 421.54 105.35 421.43 C 96.99 419.27 89.94 412.87 86.89 404.83 C 85.88 402.44 88.45 400.65 89.59 398.85 C 95.09 392.86 98.37 383.91 94.60 376.16 C 94.42 375.56 94.06 374.35 93.88 373.74 C 96.40 371.64 99.19 369.84 102.24 368.60 Z" />
<path fill="#f1190c" opacity="1.00" d=" M 218.40 412.66 C 223.99 402.71 231.61 393.95 240.22 386.50 C 238.67 398.09 235.51 409.36 232.56 420.65 C 227.30 419.10 222.35 416.51 218.40 412.66 Z" />
<path fill="#f1190c" opacity="1.00" d=" M 236.12 420.90 C 237.31 418.77 238.66 416.73 239.83 414.58 C 239.68 416.87 239.46 419.16 239.22 421.44 C 238.40 421.41 236.74 421.33 235.91 421.30 L 236.12 420.90 Z" />
</g>
<g id="#ee574eff">
<path fill="#ee574e" opacity="1.00" d=" M 107.78 38.96 C 113.78 28.69 123.46 20.71 134.46 16.30 C 127.61 23.68 121.22 31.62 116.59 40.59 C 114.12 45.54 112.01 51.47 114.11 56.92 C 115.84 61.19 120.32 63.11 124.24 64.87 C 113.39 71.52 102.28 80.16 98.67 92.97 C 96.90 74.67 98.02 55.07 107.78 38.96 Z" />
<path fill="#ee574e" opacity="1.00" d=" M 112.18 246.20 C 116.15 248.14 117.89 252.58 119.63 256.37 C 120.42 258.73 121.91 261.75 119.99 263.96 C 117.44 267.25 114.29 270.04 111.81 273.39 C 111.07 273.38 109.58 273.36 108.84 273.35 C 109.37 271.11 110.38 268.71 109.46 266.43 C 108.13 262.77 105.29 259.98 102.82 257.08 C 105.47 253.12 107.79 248.50 112.18 246.20 Z" />
<path fill="#ee574e" opacity="1.00" d=" M 185.24 286.43 C 185.75 286.59 186.76 286.91 187.26 287.08 C 187.15 291.72 187.73 296.34 187.68 300.98 C 187.42 316.72 188.78 332.43 190.03 348.11 C 189.51 348.18 188.48 348.33 187.96 348.40 C 186.69 327.75 185.99 307.07 185.14 286.39 L 185.24 286.43 Z" />
<path fill="#ee574e" opacity="1.00" d=" M 30.52 336.99 C 34.85 337.61 39.20 338.00 43.55 338.49 C 43.94 338.54 44.73 338.64 45.13 338.69 C 48.73 344.01 51.38 349.91 53.07 356.11 C 45.69 349.58 38.53 342.77 30.52 336.99 Z" />
<path fill="#ee574e" opacity="1.00" d=" M 51.96 339.40 C 53.46 339.52 54.98 339.61 56.49 339.71 C 60.81 344.69 65.72 349.26 71.45 352.59 C 74.06 354.06 77.23 355.42 80.21 354.19 C 86.39 351.78 92.02 348.16 98.20 345.72 C 95.66 350.42 93.07 355.10 90.73 359.92 C 89.79 361.38 88.62 362.68 87.68 364.15 C 84.07 369.92 80.40 376.49 73.95 379.45 C 71.05 378.44 68.82 376.10 65.92 375.10 C 62.89 375.18 60.26 376.96 57.53 378.08 C 57.84 376.59 58.06 375.07 58.55 373.63 C 61.00 372.22 63.90 371.71 66.21 370.04 C 67.03 368.60 65.95 366.95 65.50 365.57 C 61.31 356.68 56.07 348.33 51.96 339.40 Z" />
<path fill="#ee574e" opacity="1.00" d=" M 242.61 361.92 C 243.14 361.89 244.19 361.82 244.71 361.78 C 243.10 379.38 241.54 396.99 239.83 414.58 C 238.66 416.73 237.31 418.77 236.12 420.90 C 235.21 420.92 233.39 420.95 232.49 420.96 L 232.56 420.65 C 235.51 409.36 238.67 398.09 240.22 386.50 C 231.61 393.95 223.99 402.71 218.40 412.66 C 218.10 412.33 217.48 411.66 217.18 411.32 C 224.50 400.87 231.43 390.16 238.64 379.63 C 240.25 377.16 242.07 374.74 242.94 371.89 C 243.74 368.60 243.01 365.21 242.61 361.92 Z" />
<path fill="#ee574e" opacity="1.00" d=" M 245.81 378.63 C 253.04 378.53 259.51 375.36 265.91 372.39 C 265.15 374.29 264.46 376.45 262.54 377.51 C 256.71 381.28 250.76 384.85 244.87 388.52 C 245.05 385.21 245.44 381.92 245.81 378.63 Z" />
<path fill="#ee574e" opacity="1.00" d=" M 14.66 382.80 C 20.03 386.26 24.93 390.46 30.61 393.44 C 34.03 395.28 37.97 396.16 40.91 398.83 C 33.71 401.43 26.11 402.71 18.88 405.22 C 15.35 398.35 14.01 390.47 14.66 382.80 Z" />
<path fill="#ee574e" opacity="1.00" d=" M 75.05 408.10 C 77.89 401.52 84.54 397.85 89.92 393.57 C 88.25 396.88 85.40 399.36 83.47 402.51 C 82.08 405.04 83.01 408.20 84.72 410.35 C 87.36 413.85 90.31 417.12 92.71 420.81 C 91.51 421.72 90.77 423.71 89.09 423.77 C 85.30 423.52 82.38 420.65 79.91 418.05 C 77.62 415.23 74.44 411.99 75.05 408.10 Z" />
<path fill="#ee574e" opacity="1.00" d=" M 254.40 402.42 C 258.07 400.50 262.19 402.02 265.77 403.36 C 261.88 405.66 257.26 405.33 252.97 406.14 C 249.13 406.77 245.93 409.13 242.55 410.88 C 242.72 410.68 243.05 410.30 243.22 410.11 C 246.64 407.15 250.35 404.45 254.40 402.42 Z" />
<path fill="#ee574e" opacity="1.00" d=" M 78.04 432.13 C 83.15 429.54 89.02 431.14 94.28 432.31 C 93.16 434.38 92.19 436.82 90.00 438.01 C 87.92 438.59 85.59 437.63 83.64 438.72 C 79.94 440.84 76.92 443.91 73.59 446.54 C 68.75 450.54 63.15 453.44 58.01 456.99 C 54.43 459.45 50.80 461.95 46.64 463.32 C 53.39 455.84 60.97 449.13 67.91 441.83 C 71.33 438.65 74.11 434.71 78.04 432.13 Z" />
<path fill="#ee574e" opacity="1.00" d=" M 241.18 455.57 C 242.47 452.94 243.79 450.32 245.10 447.70 C 245.82 454.38 246.20 461.17 244.78 467.79 C 243.79 472.07 244.69 476.42 246.06 480.51 C 252.56 477.81 257.79 472.92 264.13 469.91 C 259.74 474.31 253.85 476.98 249.86 481.79 C 247.70 485.38 248.56 490.56 251.17 493.72 C 254.37 493.86 257.54 493.25 260.71 492.87 C 258.04 495.15 255.42 497.60 252.24 499.17 C 249.63 500.43 246.63 500.10 243.83 500.19 C 242.80 496.20 242.02 492.09 242.34 487.96 C 243.27 479.17 240.81 470.53 239.44 461.92 C 238.93 459.64 240.34 457.58 241.18 455.57 Z" />
<path fill="#ee574e" opacity="1.00" d=" M 56.32 466.80 C 64.09 467.46 71.49 470.10 79.03 471.94 C 83.71 473.29 88.58 474.32 92.75 476.97 C 84.86 476.73 77.27 474.32 69.69 472.33 C 65.08 470.93 60.25 469.73 56.32 466.80 Z" />
<path fill="#ee574e" opacity="1.00" d=" M 88.38 488.51 C 91.01 485.10 95.12 483.33 99.08 481.99 C 98.93 485.91 95.01 487.27 92.57 489.62 C 90.14 491.92 88.22 494.68 86.02 497.18 C 86.54 494.25 86.70 491.06 88.38 488.51 Z" />
<path fill="#ee574e" opacity="1.00" d=" M 44.23 484.51 C 51.72 488.42 56.86 495.51 64.01 499.95 C 68.29 502.96 74.48 503.82 76.65 509.19 C 70.34 507.65 65.10 503.69 59.74 500.23 C 54.74 496.89 49.80 493.43 45.20 489.56 C 44.56 488.87 44.15 488.06 43.99 487.14 C 44.05 486.48 44.17 485.17 44.23 484.51 Z" />
</g>
<g id="#00694eff">
<path fill="#00694e" opacity="1.00" d=" M 115.49 167.32 C 116.90 163.87 119.31 160.84 122.76 159.28 C 136.40 167.37 150.27 175.06 163.98 183.05 C 167.03 184.94 170.50 186.29 173.15 188.76 C 173.90 196.40 173.95 204.12 174.39 211.79 C 175.23 212.26 176.07 212.72 176.91 213.19 C 179.39 227.73 181.55 242.32 183.52 256.94 C 184.71 265.68 186.21 274.42 186.63 283.24 C 186.18 284.00 185.28 285.52 184.82 286.28 C 177.53 285.79 169.89 286.50 163.55 290.43 C 153.37 296.35 146.80 308.12 147.86 319.95 C 148.57 332.36 157.35 343.74 169.14 347.63 C 175.16 349.89 181.73 349.50 187.96 348.40 C 188.48 348.33 189.51 348.18 190.03 348.11 C 192.56 368.06 193.32 388.31 197.57 408.03 C 200.87 419.08 202.97 430.59 202.54 442.16 C 194.78 438.35 187.03 434.54 179.28 430.72 C 175.40 428.84 171.68 426.53 168.63 423.46 C 159.80 414.73 152.25 404.84 145.06 394.75 C 145.17 383.15 137.73 371.82 126.59 368.11 C 120.51 360.34 112.84 353.67 108.23 344.84 C 107.83 340.15 110.03 335.75 111.25 331.32 C 113.36 323.49 115.92 314.94 113.08 306.96 C 111.46 300.98 108.91 295.20 108.11 289.02 C 107.82 283.77 109.42 278.59 111.51 273.83 C 119.35 274.39 127.50 273.44 134.41 269.46 C 142.48 264.97 148.78 256.47 148.81 247.00 C 149.19 236.48 141.77 227.01 132.53 222.72 C 134.60 221.05 139.49 220.52 138.79 217.15 C 134.71 215.37 130.07 216.48 125.90 215.16 C 123.44 212.58 124.20 208.44 122.28 205.50 C 118.38 198.99 113.03 193.52 108.42 187.52 C 112.53 181.47 112.13 173.72 115.49 167.32 M 122.67 173.99 C 127.29 177.47 132.71 179.58 137.78 182.26 C 143.95 185.20 149.89 188.63 156.32 190.97 C 151.40 187.51 145.81 185.22 140.56 182.34 C 134.64 179.47 128.96 176.02 122.67 173.99 M 146.91 177.89 C 149.68 180.41 152.74 182.59 156.15 184.16 C 153.41 181.60 150.32 179.45 146.91 177.89 M 156.89 184.93 C 159.70 187.27 162.78 189.29 166.02 191.01 C 163.37 188.45 160.29 186.35 156.89 184.93 M 133.61 289.08 C 132.84 296.06 132.49 303.08 131.61 310.06 C 130.63 316.65 132.78 323.10 134.68 329.33 C 137.07 336.76 139.39 344.24 142.67 351.33 C 144.38 355.04 146.02 358.90 146.21 363.04 C 146.64 367.89 145.62 373.25 148.39 377.59 C 149.20 379.18 151.06 379.49 152.60 379.97 C 153.47 373.37 151.69 366.86 149.22 360.80 C 144.89 350.05 141.62 338.88 136.60 328.43 C 134.55 323.92 133.34 318.89 134.18 313.95 C 135.65 304.87 137.17 295.63 136.03 286.43 C 135.19 287.24 133.61 287.67 133.61 289.08 Z" />
<path fill="#00694e" opacity="1.00" d=" M 182.36 191.92 C 182.27 187.62 186.31 185.07 188.73 182.04 C 188.77 190.04 188.73 198.04 189.09 206.03 C 186.80 208.27 184.55 210.56 182.39 212.92 C 185.79 216.62 189.32 220.18 192.75 223.84 C 192.31 218.47 192.16 213.08 192.15 207.69 C 198.29 210.68 204.04 214.39 210.07 217.58 C 197.84 228.41 198.11 249.77 210.89 260.05 C 217.92 266.41 227.88 266.47 236.79 265.90 C 237.59 274.34 236.59 283.05 239.27 291.22 C 239.78 282.62 240.14 274.00 240.13 265.38 C 241.52 265.08 242.89 264.71 244.28 264.37 C 243.87 262.50 243.47 260.64 243.03 258.79 C 251.41 287.20 253.09 317.73 247.52 346.82 C 245.68 351.79 243.25 356.59 242.61 361.92 C 235.73 361.37 228.65 362.98 222.95 366.94 C 213.83 372.91 208.77 384.29 210.13 395.06 C 210.70 401.06 213.39 406.69 217.18 411.32 C 217.48 411.66 218.10 412.33 218.40 412.66 C 222.35 416.51 227.30 419.10 232.56 420.65 L 232.49 420.96 C 230.95 428.04 229.45 435.21 229.42 442.48 C 232.50 435.71 232.50 427.97 235.91 421.30 C 236.74 421.33 238.40 421.41 239.22 421.44 C 238.76 427.95 237.98 434.48 238.55 441.01 C 238.94 447.02 239.48 453.70 235.89 458.95 C 234.74 460.77 232.63 461.62 230.55 461.76 C 227.02 462.09 223.51 462.75 219.96 462.89 C 215.62 463.05 211.66 460.96 207.72 459.43 C 206.61 461.40 205.49 463.38 204.36 465.34 C 204.10 464.22 203.85 463.09 203.62 461.98 C 206.18 458.99 209.10 455.81 209.51 451.71 C 209.55 448.71 207.81 445.78 205.25 444.24 C 205.14 446.83 206.19 449.26 206.62 451.79 C 206.51 454.05 204.85 455.88 203.81 457.79 C 203.60 451.53 204.04 445.24 204.85 439.03 C 205.01 431.65 203.71 424.34 202.22 417.14 C 201.08 411.29 198.75 405.65 198.54 399.64 C 198.49 396.89 198.19 394.15 197.42 391.50 C 196.20 387.12 196.05 382.55 195.55 378.06 C 194.55 367.58 193.16 357.14 192.44 346.64 C 198.50 343.52 203.93 338.98 207.05 332.82 C 213.17 321.98 211.84 307.57 203.92 297.98 C 200.26 293.19 195.02 290.02 189.58 287.64 L 189.44 287.58 C 188.95 279.36 187.53 271.25 186.83 263.06 C 186.35 250.91 186.91 238.43 183.48 226.65 C 183.25 229.52 183.09 232.39 183.13 235.27 C 181.49 227.88 180.68 220.33 179.35 212.87 C 179.85 212.44 180.84 211.57 181.34 211.13 C 181.65 204.72 181.97 198.32 182.36 191.92 M 204.81 424.64 C 208.28 429.93 213.19 434.14 216.31 439.68 C 217.87 442.31 217.56 445.55 218.75 448.31 C 220.70 451.18 224.32 452.17 227.58 451.21 C 225.18 448.98 222.23 447.29 220.37 444.55 C 216.07 437.37 212.06 429.28 204.81 424.64 Z" />
<path fill="#00694e" opacity="1.00" d=" M 81.38 195.61 C 86.20 194.49 91.10 193.75 95.90 192.56 C 99.73 198.79 105.32 203.73 111.57 207.43 C 113.55 208.73 115.82 209.70 117.43 211.48 C 118.89 213.80 119.39 216.55 120.04 219.17 C 110.39 218.62 100.30 221.33 93.13 228.02 C 89.16 231.51 86.78 236.34 85.05 241.24 C 78.29 236.22 71.70 230.93 64.40 226.69 C 63.50 225.96 62.10 225.52 61.66 224.39 C 60.43 219.44 59.58 214.03 62.50 209.48 C 57.56 212.87 56.31 219.13 52.14 223.20 C 51.17 224.29 49.68 224.58 48.35 224.97 C 41.06 226.13 35.73 231.56 29.69 235.28 C 31.98 230.35 35.83 226.42 39.29 222.30 C 50.66 210.00 64.93 199.69 81.38 195.61 Z" />
<path fill="#00694e" opacity="1.00" d=" M 105.16 354.99 C 107.03 353.61 109.53 354.53 111.21 355.78 C 115.39 358.84 118.51 363.05 121.61 367.14 C 116.49 366.88 111.32 366.75 106.24 367.48 C 104.96 365.72 103.32 364.09 102.69 361.96 C 102.38 359.45 103.12 356.61 105.16 354.99 Z" />
<path fill="#00694e" opacity="1.00" d=" M 90.75 365.99 C 90.72 363.58 93.31 362.46 94.80 360.99 C 97.19 363.61 99.68 366.14 102.24 368.60 C 99.19 369.84 96.40 371.64 93.88 373.74 C 94.06 374.35 94.42 375.56 94.60 376.16 C 92.89 372.97 91.14 369.64 90.75 365.99 Z" />
<path fill="#00694e" opacity="1.00" d=" M 130.31 419.24 C 138.32 415.23 143.66 406.92 144.76 398.13 C 147.67 402.97 150.88 407.65 153.12 412.86 C 156.75 422.41 166.45 427.27 174.67 432.26 C 183.31 437.71 193.54 439.66 202.27 444.90 C 201.03 450.59 201.76 456.47 201.03 462.19 C 200.28 463.00 199.29 463.85 199.39 465.08 C 176.61 465.78 153.83 465.22 131.05 465.19 C 119.84 464.37 108.57 463.67 97.37 464.96 C 98.88 453.41 100.77 441.68 99.09 430.04 C 98.26 423.69 95.14 417.82 90.96 413.05 C 89.12 410.79 86.92 408.71 85.83 405.96 C 85.01 402.90 87.73 400.77 89.59 398.85 C 88.45 400.65 85.88 402.44 86.89 404.83 C 89.94 412.87 96.99 419.27 105.35 421.43 C 109.07 428.22 113.67 434.65 119.57 439.73 C 117.04 433.11 112.21 427.84 108.57 421.86 C 115.84 422.08 123.65 422.79 130.31 419.24 M 137.36 414.54 C 140.02 417.64 143.44 419.90 146.71 422.27 C 152.43 426.27 157.89 430.96 164.58 433.26 C 161.77 430.06 158.11 427.84 154.60 425.49 C 148.86 421.84 143.55 417.45 137.36 414.54 M 131.66 445.86 L 133.31 445.88 C 133.15 444.00 132.93 442.12 132.63 440.28 C 131.73 442.00 131.78 443.97 131.66 445.86 M 155.24 441.34 C 153.60 442.52 154.49 444.47 154.81 446.05 C 156.15 446.07 157.50 446.09 158.84 446.12 C 159.14 445.55 159.75 444.41 160.06 443.84 C 159.63 442.83 159.20 441.82 158.78 440.82 C 157.59 440.94 156.41 441.12 155.24 441.34 M 161.26 442.82 C 162.12 442.60 163.85 442.16 164.71 441.93 C 163.73 443.33 162.74 444.73 161.74 446.11 C 162.46 446.10 163.92 446.07 164.65 446.06 C 164.69 444.40 164.83 442.74 164.80 441.09 C 163.35 440.99 162.26 441.90 161.26 442.82 M 165.67 441.88 C 165.84 443.15 166.01 444.43 166.19 445.71 C 166.93 445.76 168.42 445.84 169.16 445.88 C 169.19 445.01 169.25 443.27 169.28 442.40 C 169.89 442.63 171.10 443.09 171.71 443.32 C 171.58 443.95 171.34 445.21 171.22 445.84 C 171.54 445.84 172.18 445.85 172.49 445.86 C 172.53 444.34 172.57 442.82 172.64 441.32 C 171.23 441.71 169.80 442.05 168.38 442.36 L 168.57 440.83 C 167.85 441.09 166.39 441.61 165.67 441.88 M 174.16 441.47 C 174.21 443.08 174.31 444.69 174.44 446.30 C 175.26 446.26 176.88 446.16 177.69 446.11 C 176.95 445.54 176.17 445.02 175.43 444.48 C 176.20 443.94 176.96 443.41 177.73 442.88 C 176.91 442.75 175.27 442.50 174.44 442.37 C 175.06 442.21 176.30 441.88 176.92 441.71 L 176.88 440.98 C 176.20 441.10 174.84 441.35 174.16 441.47 M 134.03 442.44 C 134.04 443.84 134.06 445.24 134.15 446.64 C 134.57 445.64 135.40 443.63 135.82 442.63 C 135.91 443.53 136.10 445.32 136.19 446.22 L 136.94 446.08 C 137.01 445.23 137.17 443.53 137.25 442.67 C 137.62 443.63 138.36 445.55 138.73 446.51 C 138.81 445.12 138.87 443.74 138.96 442.37 C 137.32 442.40 135.67 442.42 134.03 442.44 M 140.47 441.63 C 140.86 442.18 141.64 443.29 142.03 443.84 C 141.31 443.66 139.86 443.30 139.14 443.12 C 138.71 446.43 141.43 446.35 143.88 446.33 C 143.48 444.18 143.34 441.55 140.47 441.63 M 144.30 442.54 C 143.47 445.28 145.51 446.40 147.78 447.16 C 147.75 446.40 147.69 444.90 147.66 444.15 C 148.82 445.11 150.06 446.01 151.49 446.55 C 151.60 445.55 151.82 443.53 151.93 442.53 C 150.34 442.22 149.00 443.02 147.75 443.91 L 147.69 442.39 C 146.56 442.43 145.43 442.48 144.30 442.54 M 114.14 446.27 C 113.50 446.29 112.23 446.32 111.60 446.34 C 111.90 445.78 112.51 444.65 112.81 444.09 C 112.28 443.88 111.21 443.47 110.68 443.26 C 110.57 444.30 110.35 446.39 110.23 447.43 C 109.70 446.49 108.65 444.61 108.12 443.67 C 108.37 445.24 108.68 446.80 108.97 448.38 C 107.79 448.49 107.44 449.99 107.31 450.97 C 107.11 453.99 106.87 457.15 107.75 460.10 C 110.65 462.72 114.82 462.02 118.24 460.94 L 118.20 459.89 L 118.73 459.89 C 118.65 455.92 118.94 451.88 117.87 448.02 C 117.34 446.52 118.36 445.08 118.61 443.63 C 117.65 444.80 116.70 445.97 115.74 447.14 C 115.67 446.04 115.52 443.83 115.44 442.73 C 114.69 443.78 114.30 444.99 114.14 446.27 M 145.54 447.22 C 146.09 447.79 146.09 447.79 145.54 447.22 M 131.72 448.72 C 131.77 452.48 129.89 457.80 133.90 460.08 C 133.02 456.19 133.65 452.13 132.71 448.27 C 132.46 448.39 131.97 448.61 131.72 448.72 M 135.51 448.18 C 135.14 451.58 134.99 455.07 135.50 458.47 C 136.11 458.84 137.34 459.57 137.95 459.93 C 136.71 456.40 137.12 452.65 136.87 449.00 C 136.53 448.80 135.85 448.38 135.51 448.18 M 121.65 459.70 C 122.84 458.93 123.82 457.95 124.59 456.76 C 125.57 456.71 126.55 456.67 127.53 456.64 C 128.27 457.88 129.26 458.89 130.50 459.65 C 129.56 455.48 128.19 451.38 126.00 447.70 C 124.00 451.47 122.57 455.53 121.65 459.70 M 145.69 453.78 C 143.86 451.68 139.78 450.65 138.77 454.11 C 136.93 458.31 143.01 461.43 145.75 458.03 C 143.57 457.99 141.32 457.96 139.78 456.19 C 141.80 455.97 143.85 455.73 145.89 455.93 C 146.53 456.90 146.79 458.08 146.65 459.48 C 147.03 459.43 147.79 459.32 148.17 459.27 C 148.42 457.05 147.65 454.36 149.56 452.68 C 150.30 453.06 151.02 453.49 151.72 453.97 C 151.70 455.74 151.74 457.55 151.82 459.33 C 153.03 459.32 154.25 459.29 155.45 459.10 C 152.75 458.15 151.92 453.12 155.22 452.41 C 154.82 452.18 154.03 451.73 153.64 451.50 C 153.38 451.12 152.86 450.36 152.60 449.97 C 150.40 451.45 147.50 451.74 145.69 453.78 M 164.27 451.66 C 164.24 454.35 164.26 457.04 164.37 459.74 C 164.77 459.60 165.55 459.32 165.94 459.18 C 166.38 457.08 164.78 453.24 168.03 453.14 C 170.68 454.30 167.53 459.47 171.08 459.73 C 170.73 457.30 171.66 454.21 169.80 452.25 C 168.00 451.76 166.12 451.81 164.27 451.66 M 172.69 452.77 C 171.38 455.43 175.20 456.32 176.55 457.95 C 174.90 457.91 173.25 457.85 171.61 457.83 C 172.91 459.48 174.89 459.85 176.75 458.82 C 177.53 459.17 178.30 459.54 179.07 459.93 C 179.82 459.45 180.57 458.97 181.33 458.50 C 181.65 458.89 182.29 459.69 182.61 460.08 L 182.34 458.94 C 185.45 459.90 188.67 459.29 191.76 458.66 L 192.14 458.92 C 192.18 458.33 192.27 457.15 192.31 456.56 C 192.48 457.25 192.82 458.63 192.99 459.32 L 194.03 459.41 C 194.00 458.49 193.95 456.63 193.93 455.71 C 192.02 455.84 190.12 456.00 188.23 456.23 L 187.79 455.94 L 186.94 455.51 C 186.50 455.71 185.61 456.13 185.16 456.34 C 184.44 456.30 182.98 456.22 182.26 456.18 C 182.14 456.10 181.90 455.96 181.79 455.89 C 180.52 457.96 177.90 458.74 177.23 455.82 C 175.89 455.08 174.60 454.27 173.39 453.36 C 174.57 453.25 176.95 453.04 178.14 452.94 C 176.54 451.93 174.15 450.92 172.69 452.77 M 157.25 452.33 C 154.81 453.90 155.18 458.34 158.06 459.24 C 160.75 460.39 163.85 457.73 163.09 454.89 C 162.90 452.13 159.40 450.88 157.25 452.33 Z" />
<path fill="#00694e" opacity="1.00" d=" M 167.28 442.50 C 168.63 442.68 168.89 443.39 168.05 444.63 C 166.69 444.46 166.44 443.75 167.28 442.50 Z" />
<path fill="#00694e" opacity="1.00" d=" M 145.24 443.80 C 148.24 442.26 145.35 447.16 145.24 443.80 Z" />
<path fill="#00694e" opacity="1.00" d=" M 112.95 450.16 L 113.85 451.28 C 114.86 453.28 115.67 455.38 116.26 457.54 C 116.38 458.15 116.61 459.36 116.72 459.97 C 115.52 458.35 114.36 456.70 113.15 455.09 C 112.06 456.62 111.18 458.29 110.10 459.84 C 110.00 459.43 109.80 458.60 109.70 458.19 C 110.61 455.44 111.84 452.82 112.95 450.16 Z" />
<path fill="#00694e" opacity="1.00" d=" M 125.30 452.51 C 126.78 451.33 128.19 453.99 126.84 454.96 C 125.30 456.17 123.83 453.47 125.30 452.51 Z" />
<path fill="#00694e" opacity="1.00" d=" M 158.43 453.50 C 161.20 451.79 162.59 457.32 159.88 457.85 C 157.51 458.54 156.60 454.71 158.43 453.50 Z" />
<path fill="#00694e" opacity="1.00" d=" M 182.15 458.07 C 182.29 457.67 182.57 456.87 182.71 456.48 C 183.88 457.58 183.69 458.11 182.15 458.07 Z" />
</g>
<g id="#458f7dff">
<path fill="#458f7d" opacity="1.00" d=" M 122.67 173.99 C 128.96 176.02 134.64 179.47 140.56 182.34 C 145.81 185.22 151.40 187.51 156.32 190.97 C 149.89 188.63 143.95 185.20 137.78 182.26 C 132.71 179.58 127.29 177.47 122.67 173.99 Z" />
<path fill="#458f7d" opacity="1.00" d=" M 146.91 177.89 C 150.32 179.45 153.41 181.60 156.15 184.16 C 152.74 182.59 149.68 180.41 146.91 177.89 Z" />
<path fill="#458f7d" opacity="1.00" d=" M 156.89 184.93 C 160.29 186.35 163.37 188.45 166.02 191.01 C 162.78 189.29 159.70 187.27 156.89 184.93 Z" />
<path fill="#458f7d" opacity="1.00" d=" M 189.09 206.03 C 190.11 206.58 191.13 207.14 192.15 207.69 C 192.16 213.08 192.31 218.47 192.75 223.84 C 189.32 220.18 185.79 216.62 182.39 212.92 C 184.55 210.56 186.80 208.27 189.09 206.03 Z" />
<path fill="#458f7d" opacity="1.00" d=" M 52.14 223.20 C 56.31 219.13 57.56 212.87 62.50 209.48 C 59.58 214.03 60.43 219.44 61.66 224.39 C 58.62 223.23 55.38 222.51 52.14 223.20 Z" />
<path fill="#458f7d" opacity="1.00" d=" M 29.69 235.28 C 35.73 231.56 41.06 226.13 48.35 224.97 C 39.95 229.93 31.99 235.63 24.77 242.19 C 26.31 239.83 27.56 237.18 29.69 235.28 Z" />
<path fill="#458f7d" opacity="1.00" d=" M 183.48 226.65 C 186.91 238.43 186.35 250.91 186.83 263.06 C 185.58 253.80 184.12 244.56 183.13 235.27 C 183.09 232.39 183.25 229.52 183.48 226.65 Z" />
<path fill="#458f7d" opacity="1.00" d=" M 236.79 265.90 C 237.62 265.77 239.29 265.51 240.13 265.38 C 240.14 274.00 239.78 282.62 239.27 291.22 C 236.59 283.05 237.59 274.34 236.79 265.90 Z" />
<path fill="#458f7d" opacity="1.00" d=" M 108.84 273.35 C 109.58 273.36 111.07 273.38 111.81 273.39 L 111.51 273.83 C 109.42 278.59 107.82 283.77 108.11 289.02 C 108.91 295.20 111.46 300.98 113.08 306.96 C 115.92 314.94 113.36 323.49 111.25 331.32 C 110.03 335.75 107.83 340.15 108.23 344.84 C 112.84 353.67 120.51 360.34 126.59 368.11 C 124.95 367.71 123.29 367.38 121.61 367.14 C 118.51 363.05 115.39 358.84 111.21 355.78 C 109.53 354.53 107.03 353.61 105.16 354.99 C 103.12 356.61 102.38 359.45 102.69 361.96 C 103.32 364.09 104.96 365.72 106.24 367.48 C 104.89 367.79 103.56 368.17 102.24 368.60 C 99.68 366.14 97.19 363.61 94.80 360.99 C 99.32 357.50 104.34 353.19 104.89 347.11 C 105.88 335.00 109.08 323.14 109.29 310.96 C 109.42 305.38 107.33 300.05 107.20 294.49 C 107.02 287.42 107.42 280.29 108.84 273.35 Z" />
<path fill="#458f7d" opacity="1.00" d=" M 133.61 289.08 C 133.61 287.67 135.19 287.24 136.03 286.43 C 137.17 295.63 135.65 304.87 134.18 313.95 C 133.34 318.89 134.55 323.92 136.60 328.43 C 141.62 338.88 144.89 350.05 149.22 360.80 C 151.69 366.86 153.47 373.37 152.60 379.97 C 151.06 379.49 149.20 379.18 148.39 377.59 C 145.62 373.25 146.64 367.89 146.21 363.04 C 146.02 358.90 144.38 355.04 142.67 351.33 C 139.39 344.24 137.07 336.76 134.68 329.33 C 132.78 323.10 130.63 316.65 131.61 310.06 C 132.49 303.08 132.84 296.06 133.61 289.08 Z" />
<path fill="#458f7d" opacity="1.00" d=" M 242.61 361.92 C 243.25 356.59 245.68 351.79 247.52 346.82 C 246.68 351.82 245.95 356.86 244.71 361.78 C 244.19 361.82 243.14 361.89 242.61 361.92 Z" />
<path fill="#458f7d" opacity="1.00" d=" M 197.42 391.50 C 198.19 394.15 198.49 396.89 198.54 399.64 C 197.86 396.97 197.49 394.25 197.42 391.50 Z" />
<path fill="#458f7d" opacity="1.00" d=" M 145.06 394.75 C 152.25 404.84 159.80 414.73 168.63 423.46 C 171.68 426.53 175.40 428.84 179.28 430.72 C 187.03 434.54 194.78 438.35 202.54 442.16 C 202.47 442.85 202.34 444.21 202.27 444.90 C 193.54 439.66 183.31 437.71 174.67 432.26 C 166.45 427.27 156.75 422.41 153.12 412.86 C 150.88 407.65 147.67 402.97 144.76 398.13 C 144.84 397.28 144.99 395.60 145.06 394.75 Z" />
<path fill="#458f7d" opacity="1.00" d=" M 137.36 414.54 C 143.55 417.45 148.86 421.84 154.60 425.49 C 158.11 427.84 161.77 430.06 164.58 433.26 C 157.89 430.96 152.43 426.27 146.71 422.27 C 143.44 419.90 140.02 417.64 137.36 414.54 Z" />
<path fill="#458f7d" opacity="1.00" d=" M 229.42 442.48 C 229.45 435.21 230.95 428.04 232.49 420.96 C 233.39 420.95 235.21 420.92 236.12 420.90 L 235.91 421.30 C 232.50 427.97 232.50 435.71 229.42 442.48 Z" />
<path fill="#458f7d" opacity="1.00" d=" M 204.81 424.64 C 212.06 429.28 216.07 437.37 220.37 444.55 C 222.23 447.29 225.18 448.98 227.58 451.21 C 224.32 452.17 220.70 451.18 218.75 448.31 C 217.56 445.55 217.87 442.31 216.31 439.68 C 213.19 434.14 208.28 429.93 204.81 424.64 Z" />
<path fill="#458f7d" opacity="1.00" d=" M 204.36 465.34 C 205.49 463.38 206.61 461.40 207.72 459.43 C 211.66 460.96 215.62 463.05 219.96 462.89 C 223.51 462.75 227.02 462.09 230.55 461.76 C 222.31 465.30 213.15 465.10 204.36 465.34 Z" />
</g>
<g id="#c03117ff">
<path fill="#c03117" opacity="1.00" d=" M 234.75 237.52 C 236.59 239.45 237.57 241.97 237.94 244.59 C 236.69 242.32 235.66 239.94 234.75 237.52 Z" />
</g>
<g id="#445320ff">
<path fill="#445320" opacity="1.00" d=" M 243.01 248.79 C 245.58 253.38 247.50 258.41 248.00 263.67 L 247.04 262.18 C 244.92 258.01 243.85 253.37 243.01 248.79 Z" />
</g>
<g id="#ffcc00ff">
<path fill="#ffcc00" opacity="1.00" d=" M 11.74 297.85 C 22.80 301.58 34.44 303.06 46.03 304.07 C 65.72 305.62 85.51 305.28 105.22 304.10 C 107.68 315.27 103.67 326.50 102.82 337.64 L 102.60 337.67 C 87.34 339.81 71.88 340.59 56.49 339.71 C 54.98 339.61 53.46 339.52 51.96 339.40 C 49.67 339.23 47.40 338.95 45.13 338.69 C 44.73 338.64 43.94 338.54 43.55 338.49 C 39.59 334.67 34.47 332.52 29.41 330.59 C 25.23 329.17 21.03 326.66 16.48 327.38 C 15.95 329.07 16.95 330.75 18.35 331.67 C 20.91 333.44 23.81 334.64 26.64 335.92 C 20.91 335.08 15.27 333.73 9.66 332.29 C 10.35 324.87 11.78 317.50 11.64 310.03 C 11.61 305.97 11.73 301.91 11.74 297.85 Z" />
<path fill="#ffcc00" opacity="1.00" d=" M 253.21 300.44 C 253.57 300.40 254.28 300.33 254.64 300.30 C 256.37 311.59 259.36 322.63 262.02 333.73 C 258.68 335.40 255.32 337.02 251.92 338.54 C 253.45 325.90 253.92 313.15 253.21 300.44 Z" />
</g>
<g id="#f8d446ff">
<path fill="#f8d446" opacity="1.00" d=" M 16.48 327.38 C 21.03 326.66 25.23 329.17 29.41 330.59 C 34.47 332.52 39.59 334.67 43.55 338.49 C 39.20 338.00 34.85 337.61 30.52 336.99 C 29.23 336.63 27.93 336.27 26.64 335.92 C 23.81 334.64 20.91 333.44 18.35 331.67 C 16.95 330.75 15.95 329.07 16.48 327.38 Z" />
</g>
<g id="#ee4c42ff">
<path fill="#ee4c42" opacity="1.00" d=" M 246.87 367.22 C 253.09 362.28 257.61 355.31 264.74 351.54 C 263.39 353.82 261.84 356.01 259.89 357.83 C 255.43 362.01 251.22 366.45 246.57 370.41 C 246.64 369.61 246.79 368.02 246.87 367.22 Z" />
</g>
<g id="#3a8975ff">
<path fill="#3a8975" opacity="1.00" d=" M 105.35 421.43 C 106.15 421.54 107.76 421.75 108.57 421.86 C 112.21 427.84 117.04 433.11 119.57 439.73 C 113.67 434.65 109.07 428.22 105.35 421.43 Z" />
</g>
<g id="#e6e7e7ff">
<path fill="#e6e7e7" opacity="1.00" d=" M 131.66 445.86 C 131.78 443.97 131.73 442.00 132.63 440.28 C 132.93 442.12 133.15 444.00 133.31 445.88 L 131.66 445.86 Z" />
<path fill="#e6e7e7" opacity="1.00" d=" M 161.26 442.82 C 162.26 441.90 163.35 440.99 164.80 441.09 C 164.83 442.74 164.69 444.40 164.65 446.06 C 163.92 446.07 162.46 446.10 161.74 446.11 C 162.74 444.73 163.73 443.33 164.71 441.93 C 163.85 442.16 162.12 442.60 161.26 442.82 Z" />
<path fill="#e6e7e7" opacity="1.00" d=" M 165.67 441.88 C 166.39 441.61 167.85 441.09 168.57 440.83 L 168.38 442.36 C 169.80 442.05 171.23 441.71 172.64 441.32 C 172.57 442.82 172.53 444.34 172.49 445.86 C 172.18 445.85 171.54 445.84 171.22 445.84 C 171.34 445.21 171.58 443.95 171.71 443.32 C 171.10 443.09 169.89 442.63 169.28 442.40 C 169.25 443.27 169.19 445.01 169.16 445.88 C 168.42 445.84 166.93 445.76 166.19 445.71 C 166.01 444.43 165.84 443.15 165.67 441.88 M 167.28 442.50 C 166.44 443.75 166.69 444.46 168.05 444.63 C 168.89 443.39 168.63 442.68 167.28 442.50 Z" />
<path fill="#e6e7e7" opacity="1.00" d=" M 174.16 441.47 C 174.84 441.35 176.20 441.10 176.88 440.98 L 176.92 441.71 C 176.30 441.88 175.06 442.21 174.44 442.37 C 175.27 442.50 176.91 442.75 177.73 442.88 C 176.96 443.41 176.20 443.94 175.43 444.48 C 176.17 445.02 176.95 445.54 177.69 446.11 C 176.88 446.16 175.26 446.26 174.44 446.30 C 174.31 444.69 174.21 443.08 174.16 441.47 Z" />
<path fill="#e6e7e7" opacity="1.00" d=" M 134.03 442.44 C 135.67 442.42 137.32 442.40 138.96 442.37 C 138.87 443.74 138.81 445.12 138.73 446.51 C 138.36 445.55 137.62 443.63 137.25 442.67 C 137.17 443.53 137.01 445.23 136.94 446.08 L 136.19 446.22 C 136.10 445.32 135.91 443.53 135.82 442.63 C 135.40 443.63 134.57 445.64 134.15 446.64 C 134.06 445.24 134.04 443.84 134.03 442.44 Z" />
<path fill="#e6e7e7" opacity="1.00" d=" M 144.30 442.54 C 145.43 442.48 146.56 442.43 147.69 442.39 L 147.75 443.91 C 149.00 443.02 150.34 442.22 151.93 442.53 C 151.82 443.53 151.60 445.55 151.49 446.55 C 150.06 446.01 148.82 445.11 147.66 444.15 C 147.69 444.90 147.75 446.40 147.78 447.16 C 145.51 446.40 143.47 445.28 144.30 442.54 M 145.24 443.80 C 145.35 447.16 148.24 442.26 145.24 443.80 Z" />
<path fill="#e6e7e7" opacity="1.00" d=" M 114.14 446.27 C 114.30 444.99 114.69 443.78 115.44 442.73 C 115.52 443.83 115.67 446.04 115.74 447.14 C 116.70 445.97 117.65 444.80 118.61 443.63 C 118.36 445.08 117.34 446.52 117.87 448.02 C 118.94 451.88 118.65 455.92 118.73 459.89 L 118.20 459.89 C 118.13 457.43 118.03 454.97 117.90 452.52 C 117.32 454.18 116.75 455.85 116.26 457.54 C 115.67 455.38 114.86 453.28 113.85 451.28 L 113.54 450.62 C 114.53 450.16 117.14 450.25 116.85 448.43 C 114.23 448.17 111.59 448.22 108.97 448.38 C 108.68 446.80 108.37 445.24 108.12 443.67 C 108.65 444.61 109.70 446.49 110.23 447.43 C 110.35 446.39 110.57 444.30 110.68 443.26 C 111.21 443.47 112.28 443.88 112.81 444.09 C 112.51 444.65 111.90 445.78 111.60 446.34 C 112.23 446.32 113.50 446.29 114.14 446.27 Z" />
<path fill="#e6e7e7" opacity="1.00" d=" M 131.72 448.72 C 131.97 448.61 132.46 448.39 132.71 448.27 C 133.65 452.13 133.02 456.19 133.90 460.08 C 129.89 457.80 131.77 452.48 131.72 448.72 Z" />
<path fill="#e6e7e7" opacity="1.00" d=" M 135.51 448.18 C 135.85 448.38 136.53 448.80 136.87 449.00 C 137.12 452.65 136.71 456.40 137.95 459.93 C 137.34 459.57 136.11 458.84 135.50 458.47 C 134.99 455.07 135.14 451.58 135.51 448.18 Z" />
<path fill="#e6e7e7" opacity="1.00" d=" M 121.65 459.70 C 122.57 455.53 124.00 451.47 126.00 447.70 C 128.19 451.38 129.56 455.48 130.50 459.65 C 129.26 458.89 128.27 457.88 127.53 456.64 C 126.55 456.67 125.57 456.71 124.59 456.76 C 123.82 457.95 122.84 458.93 121.65 459.70 M 125.30 452.51 C 123.83 453.47 125.30 456.17 126.84 454.96 C 128.19 453.99 126.78 451.33 125.30 452.51 Z" />
<path fill="#e6e7e7" opacity="1.00" d=" M 108.93 449.76 C 109.77 449.68 111.46 449.51 112.31 449.43 C 112.47 449.61 112.79 449.98 112.95 450.16 C 111.84 452.82 110.61 455.44 109.70 458.19 C 109.05 455.43 109.01 452.58 108.93 449.76 Z" />
<path fill="#e6e7e7" opacity="1.00" d=" M 145.69 453.78 C 147.50 451.74 150.40 451.45 152.60 449.97 C 152.86 450.36 153.38 451.12 153.64 451.50 C 154.03 451.73 154.82 452.18 155.22 452.41 C 151.92 453.12 152.75 458.15 155.45 459.10 C 154.25 459.29 153.03 459.32 151.82 459.33 C 151.74 457.55 151.70 455.74 151.72 453.97 C 151.02 453.49 150.30 453.06 149.56 452.68 C 147.65 454.36 148.42 457.05 148.17 459.27 C 147.79 459.32 147.03 459.43 146.65 459.48 C 146.79 458.08 146.53 456.90 145.89 455.93 C 143.85 455.73 141.80 455.97 139.78 456.19 C 141.32 457.96 143.57 457.99 145.75 458.03 C 143.01 461.43 136.93 458.31 138.77 454.11 C 139.78 450.65 143.86 451.68 145.69 453.78 M 141.06 453.35 C 139.94 454.73 142.45 455.98 143.36 454.81 C 144.45 453.44 141.97 452.16 141.06 453.35 Z" />
<path fill="#e6e7e7" opacity="1.00" d=" M 164.27 451.66 C 166.12 451.81 168.00 451.76 169.80 452.25 C 171.66 454.21 170.73 457.30 171.08 459.73 C 167.53 459.47 170.68 454.30 168.03 453.14 C 164.78 453.24 166.38 457.08 165.94 459.18 C 165.55 459.32 164.77 459.60 164.37 459.74 C 164.26 457.04 164.24 454.35 164.27 451.66 Z" />
<path fill="#e6e7e7" opacity="1.00" d=" M 172.69 452.77 C 174.15 450.92 176.54 451.93 178.14 452.94 C 176.95 453.04 174.57 453.25 173.39 453.36 C 174.60 454.27 175.89 455.08 177.23 455.82 C 177.90 458.74 180.52 457.96 181.79 455.89 C 181.90 455.96 182.14 456.10 182.26 456.18 L 182.71 456.48 C 182.57 456.87 182.29 457.67 182.15 458.07 C 182.20 458.29 182.29 458.73 182.34 458.94 L 182.61 460.08 C 182.29 459.69 181.65 458.89 181.33 458.50 C 180.57 458.97 179.82 459.45 179.07 459.93 C 178.30 459.54 177.53 459.17 176.75 458.82 C 174.89 459.85 172.91 459.48 171.61 457.83 C 173.25 457.85 174.90 457.91 176.55 457.95 C 175.20 456.32 171.38 455.43 172.69 452.77 Z" />
<path fill="#e6e7e7" opacity="1.00" d=" M 157.25 452.33 C 159.40 450.88 162.90 452.13 163.09 454.89 C 163.85 457.73 160.75 460.39 158.06 459.24 C 155.18 458.34 154.81 453.90 157.25 452.33 M 158.43 453.50 C 156.60 454.71 157.51 458.54 159.88 457.85 C 162.59 457.32 161.20 451.79 158.43 453.50 Z" />
<path fill="#e6e7e7" opacity="1.00" d=" M 110.10 459.84 C 111.18 458.29 112.06 456.62 113.15 455.09 C 114.36 456.70 115.52 458.35 116.72 459.97 L 116.75 460.03 C 114.53 459.98 112.31 459.97 110.10 459.84 Z" />
</g>
<g id="#639f8fff">
<path fill="#639f8f" opacity="1.00" d=" M 155.24 441.34 C 156.41 441.12 157.59 440.94 158.78 440.82 C 159.20 441.82 159.63 442.83 160.06 443.84 C 159.75 444.41 159.14 445.55 158.84 446.12 C 157.50 446.09 156.15 446.07 154.81 446.05 C 154.49 444.47 153.60 442.52 155.24 441.34 M 157.41 443.11 C 157.64 446.43 160.36 441.51 157.41 443.11 Z" />
</g>
<g id="#a0c1b9ff">
<path fill="#a0c1b9" opacity="1.00" d=" M 140.47 441.63 C 143.34 441.55 143.48 444.18 143.88 446.33 C 141.43 446.35 138.71 446.43 139.14 443.12 C 139.86 443.30 141.31 443.66 142.03 443.84 C 141.64 443.29 140.86 442.18 140.47 441.63 Z" />
</g>
<g id="#096e54ff">
<path fill="#096e54" opacity="1.00" d=" M 157.41 443.11 C 160.36 441.51 157.64 446.43 157.41 443.11 Z" />
</g>
<g id="#3e8b78ff">
<path fill="#3e8b78" opacity="1.00" d=" M 205.25 444.24 C 207.81 445.78 209.55 448.71 209.51 451.71 C 209.10 455.81 206.18 458.99 203.62 461.98 C 203.68 460.57 203.74 459.18 203.81 457.79 C 204.85 455.88 206.51 454.05 206.62 451.79 C 206.19 449.26 205.14 446.83 205.25 444.24 Z" />
</g>
<g id="#a2c2baff">
<path fill="#a2c2ba" opacity="1.00" d=" M 145.54 447.22 C 146.09 447.79 146.09 447.79 145.54 447.22 Z" />
</g>
<g id="#71a799ff">
<path fill="#71a799" opacity="1.00" d=" M 108.97 448.38 C 111.59 448.22 114.23 448.17 116.85 448.43 C 117.14 450.25 114.53 450.16 113.54 450.62 L 113.85 451.28 L 112.95 450.16 C 112.79 449.98 112.47 449.61 112.31 449.43 C 111.46 449.51 109.77 449.68 108.93 449.76 C 109.01 452.58 109.05 455.43 109.70 458.19 C 109.80 458.60 110.00 459.43 110.10 459.84 C 112.31 459.97 114.53 459.98 116.75 460.03 L 116.72 459.97 C 116.61 459.36 116.38 458.15 116.26 457.54 C 116.75 455.85 117.32 454.18 117.90 452.52 C 118.03 454.97 118.13 457.43 118.20 459.89 L 118.24 460.94 C 114.82 462.02 110.65 462.72 107.75 460.10 C 106.87 457.15 107.11 453.99 107.31 450.97 C 107.44 449.99 107.79 448.49 108.97 448.38 Z" />
</g>
<g id="#5d9c8cff">
<path fill="#5d9c8c" opacity="1.00" d=" M 141.06 453.35 C 141.97 452.16 144.45 453.44 143.36 454.81 C 142.45 455.98 139.94 454.73 141.06 453.35 Z" />
</g>
<g id="#69a293ff">
<path fill="#69a293" opacity="1.00" d=" M 182.26 456.18 C 182.98 456.22 184.44 456.30 185.16 456.34 L 185.29 456.92 C 185.56 457.27 186.11 457.98 186.39 458.33 L 187.15 457.86 C 187.31 457.38 187.63 456.42 187.79 455.94 L 188.23 456.23 C 189.42 457.02 190.60 457.83 191.76 458.66 C 188.67 459.29 185.45 459.90 182.34 458.94 C 182.29 458.73 182.20 458.29 182.15 458.07 C 183.69 458.11 183.88 457.58 182.71 456.48 L 182.26 456.18 Z" />
</g>
<g id="#a2c2b9ff">
<path fill="#a2c2b9" opacity="1.00" d=" M 185.16 456.34 C 185.61 456.13 186.50 455.71 186.94 455.51 L 187.79 455.94 C 187.63 456.42 187.31 457.38 187.15 457.86 C 186.68 457.63 185.75 457.16 185.29 456.92 L 185.16 456.34 Z" />
</g>
<g id="#a9c6bfff">
<path fill="#a9c6bf" opacity="1.00" d=" M 188.23 456.23 C 190.12 456.00 192.02 455.84 193.93 455.71 C 193.95 456.63 194.00 458.49 194.03 459.41 L 192.99 459.32 C 192.82 458.63 192.48 457.25 192.31 456.56 C 192.27 457.15 192.18 458.33 192.14 458.92 L 191.76 458.66 C 190.60 457.83 189.42 457.02 188.23 456.23 Z" />
</g>
<g id="#31836eff">
<path fill="#31836e" opacity="1.00" d=" M 185.29 456.92 C 185.75 457.16 186.68 457.63 187.15 457.86 L 186.39 458.33 C 186.11 457.98 185.56 457.27 185.29 456.92 Z" />
</g>
<g id="#398874ff">
<path fill="#398874" opacity="1.00" d=" M 199.39 465.08 C 199.29 463.85 200.28 463.00 201.03 462.19 C 202.36 463.18 200.97 465.94 199.39 465.08 Z" />
</g>
</svg>
