<?xml version="1.0" encoding="UTF-8" ?>
<!DOCTYPE svg PUBLIC "-//W3C//DTD SVG 1.1//EN" "http://www.w3.org/Graphics/SVG/1.1/DTD/svg11.dtd">
<svg width="279pt" height="547pt" viewBox="0 0 279 547" version="1.1" xmlns="http://www.w3.org/2000/svg">
<g id="#ffffffff">
<path fill="#ffffff" opacity="1.00" d=" M 0.00 0.00 L 279.00 0.00 L 279.00 547.00 L 0.00 547.00 L 0.00 0.00 M 126.28 12.43 C 112.74 19.34 102.09 31.62 97.36 46.08 C 90.60 65.39 92.14 86.46 96.85 106.04 C 100.28 108.70 100.87 113.68 104.74 116.04 C 103.40 120.63 101.83 125.22 99.32 129.32 C 97.69 132.14 93.79 133.33 93.33 136.86 C 92.45 141.78 93.03 147.12 95.64 151.47 C 96.60 153.06 97.18 155.16 96.05 156.84 C 94.06 159.59 91.66 162.06 90.07 165.08 C 85.78 171.76 88.89 180.12 91.60 186.81 C 87.75 187.25 83.95 188.05 80.14 188.73 C 65.20 192.03 51.74 200.33 40.76 210.81 C 28.26 222.81 18.45 237.46 11.36 253.23 C 6.16 271.32 6.29 290.36 6.23 309.03 C 5.29 320.36 3.37 331.60 3.00 342.98 C 2.97 345.61 2.88 348.30 3.54 350.88 C 6.47 360.65 9.22 370.76 8.66 381.06 C 8.42 387.05 9.17 393.02 8.88 399.01 C 7.94 408.58 14.40 416.53 16.30 425.56 C 18.95 438.54 19.12 452.25 24.70 464.49 C 26.59 468.81 30.16 472.00 33.14 475.55 C 39.94 484.55 42.32 496.04 48.67 505.29 C 53.74 510.51 59.97 514.83 63.42 521.46 C 67.16 527.67 64.71 535.11 65.52 541.87 C 65.63 542.98 66.65 544.76 68.00 544.04 C 80.46 539.39 93.36 533.11 107.03 535.02 C 105.81 521.60 103.52 508.26 100.46 495.13 C 99.41 490.09 100.01 484.92 99.48 479.84 C 99.18 473.85 92.57 469.93 94.11 463.53 C 103.99 462.67 113.93 462.76 123.80 463.76 C 135.22 464.18 146.65 463.63 158.07 464.11 C 175.38 464.20 192.69 463.81 210.00 464.00 C 218.26 463.56 227.06 462.51 234.12 457.84 C 235.70 465.44 237.11 473.14 237.29 480.92 C 236.16 488.06 238.30 495.05 239.87 501.93 C 240.08 508.91 242.69 515.47 245.28 521.86 C 245.67 523.20 246.66 524.14 247.95 524.66 C 252.08 519.67 258.98 518.22 265.14 519.32 C 268.34 519.52 271.75 521.07 274.87 519.87 C 275.02 519.42 275.34 518.51 275.50 518.05 C 273.60 509.00 270.05 500.22 269.55 490.90 C 269.40 483.91 269.55 476.92 269.85 469.94 C 270.16 467.81 268.80 466.02 268.39 464.02 C 268.79 461.96 269.86 460.11 270.32 458.07 C 270.23 455.66 268.03 454.53 266.35 453.27 C 267.33 451.28 268.97 449.36 268.60 447.00 C 267.10 428.37 266.90 409.62 268.24 390.98 C 268.56 384.66 268.77 378.33 268.48 372.01 C 267.50 349.22 261.07 327.22 256.12 305.10 C 253.70 294.58 253.63 283.71 251.47 273.15 C 249.21 261.72 246.26 250.28 240.95 239.86 C 239.01 236.53 237.08 232.67 233.33 231.11 C 227.34 224.54 219.88 219.58 212.50 214.74 C 204.76 209.77 196.83 205.09 188.66 200.88 C 188.49 193.25 188.52 185.62 188.41 177.99 C 188.32 176.67 188.56 175.24 187.87 174.04 C 186.49 172.99 185.59 175.02 184.72 175.75 C 182.37 178.71 179.62 181.35 177.46 184.46 C 176.64 191.59 176.78 198.82 176.03 205.96 C 175.52 205.99 174.51 206.06 174.00 206.10 C 173.24 198.77 173.30 191.38 172.65 184.04 C 172.72 182.69 171.27 182.24 170.38 181.62 C 155.08 172.90 139.83 164.11 124.56 155.35 C 122.40 154.20 119.97 152.01 117.47 153.69 C 111.44 157.12 109.55 164.35 107.70 170.54 C 106.39 174.35 106.76 178.89 103.82 181.99 C 99.45 175.55 100.62 167.32 100.10 159.97 C 100.38 152.28 98.17 144.75 98.59 137.07 C 103.95 138.80 107.17 144.33 112.73 145.64 C 111.69 140.82 111.16 135.86 112.05 130.97 C 113.51 121.61 115.84 112.10 120.90 103.99 C 127.08 95.21 125.87 83.78 125.08 73.67 C 131.89 70.57 139.23 68.91 146.52 67.35 C 158.86 65.06 171.60 64.00 184.05 66.08 C 192.35 67.46 200.61 70.62 206.88 76.36 C 208.54 79.60 208.80 83.34 208.67 86.92 C 208.01 104.64 207.32 122.36 206.24 140.05 C 206.09 141.59 206.13 143.18 205.60 144.65 C 202.05 149.11 196.56 151.98 193.81 157.06 C 194.73 160.71 198.31 166.62 202.67 163.61 C 207.18 160.76 212.01 157.26 213.71 151.96 C 213.41 148.88 211.84 146.06 211.63 142.95 C 210.37 129.73 211.79 116.45 213.25 103.31 C 216.68 100.77 219.65 97.69 222.69 94.71 C 225.24 92.15 226.80 88.82 229.18 86.13 C 231.53 83.06 234.61 80.21 235.29 76.23 C 237.34 68.10 235.56 59.35 230.63 52.60 C 227.95 39.68 221.53 27.23 211.11 18.89 C 196.72 6.90 177.26 3.10 158.96 3.52 C 147.64 4.37 136.40 7.26 126.28 12.43 Z" />
<path fill="#ffffff" opacity="1.00" d=" M 102.13 84.17 C 105.22 82.66 108.70 81.16 112.20 82.11 C 115.96 83.17 117.56 88.20 115.48 91.40 C 111.55 99.16 108.08 107.18 104.45 115.03 C 102.21 108.84 99.71 102.63 99.15 96.01 C 99.27 91.91 100.42 87.88 102.13 84.17 Z" />
</g>
<g id="#000000ff">
<path fill="#000000" opacity="1.00" d=" M 126.28 12.43 C 136.40 7.26 147.64 4.37 158.96 3.52 C 177.26 3.10 196.72 6.90 211.11 18.89 C 221.53 27.23 227.95 39.68 230.63 52.60 C 235.56 59.35 237.34 68.10 235.29 76.23 C 234.61 80.21 231.53 83.06 229.18 86.13 C 226.80 88.82 225.24 92.15 222.69 94.71 C 219.65 97.69 216.68 100.77 213.25 103.31 C 211.79 116.45 210.37 129.73 211.63 142.95 C 211.84 146.06 213.41 148.88 213.71 151.96 C 212.01 157.26 207.18 160.76 202.67 163.61 C 198.31 166.62 194.73 160.71 193.81 157.06 C 196.56 151.98 202.05 149.11 205.60 144.65 C 206.13 143.18 206.09 141.59 206.24 140.05 C 207.32 122.36 208.01 104.64 208.67 86.92 C 208.80 83.34 208.54 79.60 206.88 76.36 C 200.61 70.62 192.35 67.46 184.05 66.08 C 171.60 64.00 158.86 65.06 146.52 67.35 C 139.23 68.91 131.89 70.57 125.08 73.67 C 125.87 83.78 127.08 95.21 120.90 103.99 C 115.84 112.10 113.51 121.61 112.05 130.97 C 111.16 135.86 111.69 140.82 112.73 145.64 C 107.17 144.33 103.95 138.80 98.59 137.07 C 98.17 144.75 100.38 152.28 100.10 159.97 C 100.62 167.32 99.45 175.55 103.82 181.99 C 106.76 178.89 106.39 174.35 107.70 170.54 C 109.55 164.35 111.44 157.12 117.47 153.69 C 119.97 152.01 122.40 154.20 124.56 155.35 C 139.83 164.11 155.08 172.90 170.38 181.62 C 171.27 182.24 172.72 182.69 172.65 184.04 C 173.30 191.38 173.24 198.77 174.00 206.10 C 174.51 206.06 175.52 205.99 176.03 205.96 C 176.78 198.82 176.64 191.59 177.46 184.46 C 179.62 181.35 182.37 178.71 184.72 175.75 C 185.59 175.02 186.49 172.99 187.87 174.04 C 188.56 175.24 188.32 176.67 188.41 177.99 C 188.52 185.62 188.49 193.25 188.66 200.88 C 196.83 205.09 204.76 209.77 212.50 214.74 C 219.88 219.58 227.34 224.54 233.33 231.11 C 237.08 232.67 239.01 236.53 240.95 239.86 C 246.26 250.28 249.21 261.72 251.47 273.15 C 253.63 283.71 253.70 294.58 256.12 305.10 C 261.07 327.22 267.50 349.22 268.48 372.01 C 268.77 378.33 268.56 384.66 268.24 390.98 C 266.90 409.62 267.10 428.37 268.60 447.00 C 268.97 449.36 267.33 451.28 266.35 453.27 C 268.03 454.53 270.23 455.66 270.32 458.07 C 269.86 460.11 268.79 461.96 268.39 464.02 C 268.80 466.02 270.16 467.81 269.85 469.94 C 269.55 476.92 269.40 483.91 269.55 490.90 C 270.05 500.22 273.60 509.00 275.50 518.05 C 275.34 518.51 275.02 519.42 274.87 519.87 C 271.75 521.07 268.34 519.52 265.14 519.32 C 258.98 518.22 252.08 519.67 247.95 524.66 C 246.66 524.14 245.67 523.20 245.28 521.86 C 242.69 515.47 240.08 508.91 239.87 501.93 C 238.30 495.05 236.16 488.06 237.29 480.92 C 237.11 473.14 235.70 465.44 234.12 457.84 C 227.06 462.51 218.26 463.56 210.00 464.00 C 192.69 463.81 175.38 464.20 158.07 464.11 C 146.65 463.63 135.22 464.18 123.80 463.76 C 113.93 462.76 103.99 462.67 94.11 463.53 C 92.57 469.93 99.18 473.85 99.48 479.84 C 100.01 484.92 99.41 490.09 100.46 495.13 C 103.52 508.26 105.81 521.60 107.03 535.02 C 93.36 533.11 80.46 539.39 68.00 544.04 C 66.65 544.76 65.63 542.98 65.52 541.87 C 64.71 535.11 67.16 527.67 63.42 521.46 C 59.97 514.83 53.74 510.51 48.67 505.29 C 42.32 496.04 39.94 484.55 33.14 475.55 C 30.16 472.00 26.59 468.81 24.70 464.49 C 19.12 452.25 18.95 438.54 16.30 425.56 C 14.40 416.53 7.94 408.58 8.88 399.01 C 9.17 393.02 8.42 387.05 8.66 381.06 C 9.22 370.76 6.47 360.65 3.54 350.88 C 2.88 348.30 2.97 345.61 3.00 342.98 C 3.37 331.60 5.29 320.36 6.23 309.03 C 6.29 290.36 6.16 271.32 11.36 253.23 C 18.45 237.46 28.26 222.81 40.76 210.81 C 51.74 200.33 65.20 192.03 80.14 188.73 C 83.95 188.05 87.75 187.25 91.60 186.81 C 88.89 180.12 85.78 171.76 90.07 165.08 C 91.66 162.06 94.06 159.59 96.05 156.84 C 97.18 155.16 96.60 153.06 95.64 151.47 C 93.03 147.12 92.45 141.78 93.33 136.86 C 93.79 133.33 97.69 132.14 99.32 129.32 C 101.83 125.22 103.40 120.63 104.74 116.04 C 100.87 113.68 100.28 108.70 96.85 106.04 C 92.14 86.46 90.60 65.39 97.36 46.08 C 102.09 31.62 112.74 19.34 126.28 12.43 M 134.70 10.81 C 133.02 11.33 131.45 12.13 130.04 13.18 C 129.41 13.28 128.78 13.42 128.16 13.58 C 117.86 18.89 108.70 26.91 103.45 37.36 C 94.79 53.02 94.12 71.57 95.62 88.99 C 99.32 76.18 110.38 67.47 121.32 60.84 C 125.34 58.44 129.70 56.72 134.12 55.22 C 139.54 53.43 143.60 49.18 148.71 46.79 C 164.82 38.95 183.43 36.23 201.08 39.42 C 210.25 41.03 219.63 43.69 226.95 49.70 C 224.31 37.48 217.46 25.86 207.12 18.66 C 195.96 10.09 181.67 6.76 167.90 5.58 C 156.60 4.52 145.32 7.17 134.70 10.81 M 145.69 50.92 C 166.87 46.39 190.41 46.03 209.70 57.18 C 218.78 62.46 228.24 70.69 228.37 82.06 C 236.95 72.47 233.32 55.80 222.62 49.25 C 211.79 42.40 198.63 40.33 186.02 40.15 C 172.03 40.37 157.62 43.38 145.69 50.92 M 102.13 84.17 C 100.42 87.88 99.27 91.91 99.15 96.01 C 99.71 102.63 102.21 108.84 104.45 115.03 C 108.08 107.18 111.55 99.16 115.48 91.40 C 117.56 88.20 115.96 83.17 112.20 82.11 C 108.70 81.16 105.22 82.66 102.13 84.17 M 115.04 158.96 C 111.01 164.90 109.74 172.12 108.03 178.96 C 107.63 180.77 105.98 182.05 105.65 183.84 C 110.49 190.16 116.30 195.86 120.04 202.96 C 121.53 205.64 120.24 209.85 123.45 211.40 C 127.46 212.40 131.86 211.31 135.68 213.14 C 136.90 215.18 134.36 216.11 132.96 216.94 C 128.98 218.73 124.45 220.22 120.07 219.25 C 115.25 215.94 117.50 207.67 111.63 205.29 C 104.31 201.27 97.60 195.94 93.00 188.89 C 84.63 190.19 76.01 191.72 68.13 195.15 C 52.27 202.11 38.83 214.00 28.80 228.01 C 26.18 231.16 24.01 234.66 21.90 238.16 C 29.12 231.68 36.95 225.95 45.25 220.92 L 45.46 220.87 C 49.17 219.20 53.37 217.86 57.18 220.10 C 72.68 229.27 87.03 240.44 99.83 253.10 C 102.73 256.62 106.74 260.11 106.86 265.01 C 103.70 277.40 103.06 290.59 106.15 303.06 C 106.83 315.12 103.74 326.96 102.30 338.85 C 101.90 341.78 102.20 344.97 100.60 347.61 C 98.60 351.49 95.22 354.36 91.84 357.00 C 90.26 358.43 87.68 359.53 87.71 362.00 C 88.39 368.01 93.12 372.83 93.15 378.99 C 93.37 382.31 92.07 385.42 91.02 388.50 C 88.98 392.16 86.15 395.25 83.60 398.54 C 81.12 401.95 85.10 405.21 87.19 407.59 L 87.20 407.99 C 91.94 413.22 95.45 419.80 96.19 426.89 C 97.69 438.28 95.83 449.72 94.34 461.01 C 102.91 460.06 111.56 460.00 120.15 460.68 C 131.40 461.74 142.71 461.03 153.99 461.28 C 168.11 461.78 182.24 461.33 196.36 461.03 C 197.78 461.87 199.31 459.51 198.30 458.39 C 198.31 452.56 198.21 446.72 199.27 440.97 C 199.34 440.27 199.47 438.88 199.54 438.18 C 199.89 428.71 198.56 419.23 196.22 410.07 C 191.63 394.90 191.08 378.93 188.77 363.35 C 187.44 346.90 185.62 330.48 184.96 313.99 C 184.31 304.99 185.05 295.97 184.29 286.98 C 183.51 277.30 182.50 267.64 181.12 258.03 C 179.23 241.57 176.45 225.24 173.93 208.88 C 173.33 208.72 172.13 208.41 171.53 208.26 C 171.05 200.38 170.58 192.50 170.34 184.61 C 154.27 174.96 137.85 165.88 121.65 156.44 C 119.22 154.39 116.47 157.00 115.04 158.96 M 185.63 178.01 C 183.53 181.23 179.15 183.58 179.37 187.85 C 179.07 194.30 178.58 200.75 178.35 207.20 C 177.83 207.58 176.79 208.33 176.26 208.70 C 177.72 216.16 178.51 223.75 180.07 231.18 C 181.16 240.81 182.67 250.41 184.00 260.01 C 185.23 272.31 187.08 284.59 187.18 296.98 C 186.87 314.07 188.38 331.12 189.87 348.13 C 191.55 364.75 193.17 381.38 195.67 397.90 C 196.29 402.69 197.98 407.24 198.98 411.95 C 200.96 420.96 202.40 430.21 201.69 439.46 C 201.64 440.19 201.53 441.63 201.48 442.35 C 200.72 446.06 200.49 449.86 200.69 453.64 C 200.68 455.00 200.68 456.36 200.69 457.74 C 200.86 458.95 200.51 460.43 201.51 461.38 C 210.21 461.17 219.27 461.42 227.44 457.92 L 228.05 458.00 C 229.84 457.30 231.88 456.69 232.92 454.93 C 236.00 450.25 236.10 444.35 235.65 438.96 C 234.74 429.53 236.13 420.10 236.87 410.71 C 238.07 396.67 239.58 382.65 240.66 368.59 L 240.64 368.40 C 241.18 360.95 242.69 353.64 243.79 346.27 C 244.91 342.63 245.22 338.76 245.93 335.01 C 249.89 305.15 247.35 274.14 237.03 245.76 C 236.87 244.59 236.33 243.53 235.76 242.52 C 234.93 238.95 233.68 235.36 231.38 232.46 C 226.44 226.70 220.09 222.44 213.88 218.18 C 205.91 212.90 197.65 208.06 189.17 203.65 C 188.17 203.13 187.18 202.62 186.18 202.11 C 185.54 194.10 185.98 186.04 185.63 178.01 M 46.64 223.72 C 40.20 227.37 34.05 231.58 28.48 236.47 L 28.44 236.84 C 23.96 239.81 20.87 244.34 17.44 248.39 C 14.21 252.24 12.76 257.09 11.93 261.96 C 9.11 274.85 8.81 288.12 8.65 301.26 C 9.16 314.05 6.44 326.64 5.66 339.37 C 5.47 343.56 5.18 347.86 6.46 351.92 C 8.72 359.04 10.11 366.41 11.05 373.82 C 11.35 377.01 11.26 380.22 11.16 383.43 L 11.53 383.45 C 11.37 386.22 11.45 389.03 12.23 391.72 C 11.93 396.14 11.16 400.62 11.63 405.05 C 13.20 410.57 16.00 415.65 17.72 421.12 C 21.16 430.90 20.98 441.45 23.50 451.45 C 24.88 459.23 27.91 466.89 33.47 472.65 L 33.37 472.08 C 36.48 475.22 38.75 479.03 40.77 482.92 C 41.28 484.18 41.71 485.60 42.72 486.57 C 44.38 491.53 46.44 496.36 48.79 501.04 C 50.70 505.03 54.35 507.74 57.80 510.34 C 61.48 514.72 65.77 519.01 67.37 524.67 C 68.56 530.08 67.55 535.66 67.97 541.14 C 70.88 540.28 73.71 539.20 76.48 537.95 C 85.46 534.84 94.76 531.59 104.41 532.36 C 103.35 523.91 102.05 515.50 100.57 507.11 L 100.24 507.13 C 99.88 502.99 98.38 499.07 97.81 494.96 C 96.82 489.18 97.92 483.18 96.41 477.48 C 95.15 474.82 93.39 472.45 91.82 469.98 C 91.15 466.72 91.54 463.38 91.82 460.11 C 93.01 449.63 94.87 439.07 93.62 428.51 L 93.18 428.47 C 93.24 424.33 92.13 420.12 89.45 416.90 C 87.11 412.05 82.66 408.65 80.28 403.86 C 78.02 398.25 84.17 394.90 86.35 390.55 C 87.65 389.88 87.56 388.13 88.15 386.97 L 88.76 386.94 C 89.71 383.51 90.96 379.80 89.63 376.29 C 87.84 370.92 83.75 365.87 84.76 359.91 C 85.59 358.49 86.76 357.32 87.91 356.16 L 88.04 355.81 C 91.61 353.39 95.23 350.64 97.31 346.77 C 98.67 345.66 98.28 343.52 98.66 341.94 C 99.82 329.68 102.83 317.63 103.17 305.28 C 102.71 301.14 101.22 297.18 101.08 293.00 C 100.85 284.58 100.70 276.05 102.81 267.83 C 103.31 265.77 103.73 263.42 102.36 261.58 C 98.94 256.51 94.60 252.12 89.95 248.17 C 83.46 242.84 77.35 236.79 69.92 232.78 L 69.97 232.23 C 65.02 228.71 60.02 225.21 54.63 222.40 C 52.00 220.83 49.06 222.53 46.64 223.72 M 241.12 247.89 C 241.67 252.03 243.44 255.87 244.29 259.94 C 249.13 278.77 251.26 298.29 250.29 317.72 C 249.95 326.90 248.82 336.06 247.14 345.09 C 246.09 351.15 244.84 357.17 243.76 363.23 L 243.84 363.90 C 243.01 366.57 243.13 369.40 242.99 372.16 C 242.98 372.73 242.97 373.86 242.96 374.43 C 242.76 377.57 242.57 380.71 242.46 383.85 L 242.04 384.08 C 241.34 389.29 240.74 394.52 240.36 399.77 C 239.74 409.60 238.45 419.38 237.91 429.22 C 237.73 436.90 239.54 444.59 238.08 452.24 C 236.68 454.59 236.23 457.25 236.80 459.93 C 237.82 465.29 238.76 470.67 239.42 476.08 C 239.99 480.29 239.01 484.50 239.28 488.72 L 239.64 488.68 C 239.52 491.26 240.15 493.78 241.03 496.19 C 242.64 501.58 242.41 507.37 244.48 512.64 C 245.39 515.30 246.35 517.96 247.64 520.47 C 250.39 518.70 253.34 517.26 256.49 516.34 C 261.96 515.93 267.40 516.56 272.78 517.51 C 270.12 506.80 266.42 496.09 266.98 484.89 C 266.54 478.25 268.32 471.38 266.07 464.95 C 265.41 462.17 267.31 459.52 267.05 456.70 L 266.36 456.82 C 265.24 455.77 263.58 454.75 263.77 452.97 C 264.46 450.96 266.19 449.21 265.82 446.94 C 265.44 440.05 264.89 433.16 264.75 426.26 C 264.58 416.76 264.62 407.26 265.14 397.77 C 265.72 388.75 266.27 379.69 265.68 370.65 C 265.07 361.71 264.02 352.76 262.02 344.02 C 260.53 335.52 258.53 327.12 256.22 318.81 C 254.23 309.23 251.77 299.71 250.84 289.94 C 249.96 279.95 248.24 270.03 245.53 260.38 C 244.30 256.14 243.38 251.73 241.12 247.89 Z" />
</g>
<g id="#fea620ff">
<path fill="#fea620" opacity="1.00" d=" M 134.70 10.81 C 145.32 7.17 156.60 4.52 167.90 5.58 C 181.67 6.76 195.96 10.09 207.12 18.66 C 201.02 17.91 194.92 17.20 188.80 16.62 C 190.30 23.02 192.56 29.23 193.60 35.74 C 184.48 28.82 174.45 23.07 163.64 19.26 C 162.56 18.85 161.47 18.84 160.38 19.23 C 147.46 23.55 135.55 30.29 123.34 36.21 C 128.20 27.28 134.82 19.11 143.20 13.25 C 138.81 13.30 134.43 13.21 130.04 13.18 C 131.45 12.13 133.02 11.33 134.70 10.81 Z" />
<path fill="#fea620" opacity="1.00" d=" M 46.64 223.72 C 49.06 222.53 52.00 220.83 54.63 222.40 C 60.02 225.21 65.02 228.71 69.97 232.23 L 69.92 232.78 C 69.08 243.46 68.43 254.16 67.61 264.84 C 53.60 264.01 39.60 263.04 25.59 262.22 C 24.68 275.24 23.67 288.25 22.68 301.27 C 36.77 301.93 50.84 303.41 64.93 303.56 C 66.10 308.62 65.23 313.83 65.23 318.96 C 64.73 327.34 65.14 335.81 64.08 344.14 C 63.37 344.07 61.96 343.95 61.26 343.89 C 57.18 339.86 53.41 335.49 48.96 331.85 C 48.69 335.98 50.83 339.60 52.44 343.23 L 51.12 343.12 C 49.73 343.00 48.34 342.90 46.94 342.82 C 45.21 339.49 43.45 335.98 40.33 333.73 C 34.87 329.69 28.43 327.34 22.14 324.95 C 22.35 317.10 22.41 309.25 22.77 301.41 C 18.07 301.15 13.36 301.25 8.65 301.26 C 8.81 288.12 9.11 274.85 11.93 261.96 C 16.47 262.03 21.01 262.13 25.56 262.16 C 26.66 253.73 27.45 245.27 28.44 236.84 L 28.48 236.47 C 34.05 231.58 40.20 227.37 46.64 223.72 Z" />
<path fill="#fea620" opacity="1.00" d=" M 67.65 264.87 C 79.37 265.85 91.07 267.05 102.81 267.83 C 100.70 276.05 100.85 284.58 101.08 293.00 C 101.22 297.18 102.71 301.14 103.17 305.28 C 91.22 305.11 79.27 304.03 67.32 304.30 C 66.66 303.84 66.00 303.37 65.36 302.89 C 66.39 290.24 66.80 277.54 67.65 264.87 Z" />
<path fill="#fea620" opacity="1.00" d=" M 250.29 317.72 C 252.26 318.09 254.24 318.45 256.22 318.81 C 258.53 327.12 260.53 335.52 262.02 344.02 C 257.06 344.38 252.10 344.73 247.14 345.09 C 248.82 336.06 249.95 326.90 250.29 317.72 Z" />
<path fill="#fea620" opacity="1.00" d=" M 22.00 330.70 C 28.28 333.16 33.93 337.25 38.40 342.29 C 32.86 341.75 27.31 341.43 21.76 341.04 C 21.82 337.59 21.89 334.14 22.00 330.70 Z" />
<path fill="#fea620" opacity="1.00" d=" M 5.66 339.37 C 11.01 339.92 16.36 340.49 21.72 340.94 C 21.56 355.27 21.55 369.61 21.14 383.94 C 20.44 383.91 19.03 383.84 18.33 383.81 C 16.28 382.06 14.04 380.53 12.15 378.61 C 11.50 377.08 11.32 375.43 11.05 373.82 C 10.11 366.41 8.72 359.04 6.46 351.92 C 5.18 347.86 5.47 343.56 5.66 339.37 Z" />
<path fill="#fea620" opacity="1.00" d=" M 65.02 345.12 C 65.48 344.92 66.39 344.51 66.85 344.30 C 75.68 344.76 84.52 345.18 93.36 345.22 C 88.00 344.76 83.26 347.24 78.68 349.65 C 73.81 352.31 68.07 349.21 64.59 345.65 L 65.02 345.12 Z" />
<path fill="#fea620" opacity="1.00" d=" M 93.36 345.22 C 94.73 345.58 96.20 345.82 97.31 346.77 C 95.23 350.64 91.61 353.39 88.04 355.81 C 89.27 352.02 91.41 348.65 93.36 345.22 Z" />
<path fill="#fea620" opacity="1.00" d=" M 71.91 375.12 C 77.60 371.49 81.54 365.73 84.76 359.91 C 83.75 365.87 87.84 370.92 89.63 376.29 C 90.96 379.80 89.71 383.51 88.76 386.94 L 88.15 386.97 C 80.25 387.52 72.30 387.34 64.44 388.36 C 64.15 387.86 63.57 386.87 63.27 386.38 C 63.34 381.13 63.58 375.88 63.64 370.63 C 66.17 372.34 68.47 375.90 71.91 375.12 Z" />
<path fill="#fea620" opacity="1.00" d=" M 258.29 370.75 C 258.79 370.36 259.31 369.98 259.84 369.61 C 261.60 370.71 263.69 370.62 265.68 370.65 C 266.27 379.69 265.72 388.75 265.14 397.77 C 263.68 397.85 262.22 397.94 260.77 398.03 C 257.04 398.23 253.33 398.52 249.61 398.85 C 247.87 398.93 246.13 399.00 244.39 399.06 C 244.44 399.94 244.53 401.70 244.58 402.58 C 244.59 402.89 244.61 403.50 244.62 403.81 C 245.16 411.99 245.56 420.18 246.07 428.37 C 243.35 428.66 240.63 428.94 237.91 429.22 C 238.45 419.38 239.74 409.60 240.36 399.77 C 241.70 399.56 243.03 399.35 244.37 399.15 C 244.09 393.87 243.72 388.59 243.54 383.31 C 247.43 381.41 250.86 378.75 254.60 376.60 C 257.35 375.02 260.08 373.34 262.36 371.11 C 261.00 370.97 259.64 370.86 258.29 370.75 Z" />
<path fill="#fea620" opacity="1.00" d=" M 242.99 372.16 C 247.47 371.78 251.95 371.58 256.43 371.25 C 252.26 373.40 247.64 374.41 242.96 374.43 C 242.97 373.86 242.98 372.73 242.99 372.16 Z" />
<path fill="#fea620" opacity="1.00" d=" M 21.13 384.29 C 34.07 385.19 46.98 386.57 59.93 387.49 C 61.49 387.24 62.60 388.42 63.72 389.25 C 63.08 403.41 63.59 417.60 63.45 431.77 C 49.53 430.70 35.58 429.84 21.68 428.49 C 21.66 418.94 21.38 409.40 21.28 399.85 L 21.27 399.26 C 26.32 398.07 31.56 397.33 36.36 395.29 C 38.57 393.97 35.72 393.09 34.59 392.48 C 29.87 390.64 25.26 388.47 21.12 385.52 L 21.13 384.29 Z" />
<path fill="#fea620" opacity="1.00" d=" M 246.41 428.03 C 252.53 427.54 258.65 426.97 264.75 426.26 C 264.89 433.16 265.44 440.05 265.82 446.94 C 266.19 449.21 264.46 450.96 263.77 452.97 C 263.58 454.75 265.24 455.77 266.36 456.82 C 262.26 457.55 258.10 457.78 253.96 458.19 C 252.40 458.21 250.66 458.83 249.30 457.78 C 248.08 447.91 247.25 437.95 246.41 428.03 Z" />
<path fill="#fea620" opacity="1.00" d=" M 90.04 428.21 C 90.83 428.27 92.40 428.41 93.18 428.47 L 93.62 428.51 C 94.87 439.07 93.01 449.63 91.82 460.11 C 91.54 463.38 91.15 466.72 91.82 469.98 L 92.05 471.39 C 90.57 471.61 89.09 471.88 87.60 472.05 C 80.05 468.19 71.50 466.87 63.35 464.73 C 63.42 459.08 63.42 453.42 63.43 447.77 C 69.15 444.19 73.94 439.39 79.38 435.44 C 81.37 433.64 84.08 434.45 86.48 434.23 C 88.74 433.22 90.44 431.07 90.81 428.62 L 90.04 428.21 Z" />
<path fill="#fea620" opacity="1.00" d=" M 63.53 432.17 C 65.96 431.17 68.69 431.27 71.25 430.82 C 68.94 433.88 66.26 436.63 63.38 439.16 C 63.38 436.82 63.31 434.48 63.53 432.17 Z" />
<path fill="#fea620" opacity="1.00" d=" M 242.66 459.18 C 244.68 459.12 246.93 457.94 248.79 459.20 C 250.65 463.32 249.01 468.37 250.81 472.42 C 252.31 472.42 253.21 470.77 254.63 470.37 C 253.23 471.52 251.78 472.60 250.37 473.72 C 250.79 478.20 251.12 482.69 251.44 487.18 C 249.84 487.32 248.24 487.46 246.65 487.61 C 245.81 484.32 244.76 480.20 247.25 477.37 C 248.17 476.00 249.76 474.97 249.99 473.25 C 247.67 474.12 245.58 475.54 243.17 476.23 C 240.82 470.89 240.88 464.96 242.63 459.45 L 242.66 459.18 Z" />
<path fill="#fea620" opacity="1.00" d=" M 63.36 467.78 C 68.80 468.96 74.37 469.91 79.49 472.22 C 74.12 472.46 68.76 472.73 63.39 472.77 C 63.38 471.10 63.37 469.44 63.36 467.78 Z" />
<path fill="#fea620" opacity="1.00" d=" M 33.23 471.33 C 43.27 472.02 53.33 472.51 63.38 473.03 C 65.83 482.06 67.75 491.22 70.29 500.23 C 61.30 497.91 54.66 491.02 47.88 485.12 C 45.93 483.60 44.24 480.95 41.47 481.17 C 41.29 481.60 40.95 482.48 40.77 482.92 C 38.75 479.03 36.48 475.22 33.37 472.08 L 33.23 471.33 Z" />
<path fill="#fea620" opacity="1.00" d=" M 251.48 487.00 C 256.65 486.39 261.82 485.65 266.98 484.89 C 266.42 496.09 270.12 506.80 272.78 517.51 C 267.40 516.56 261.96 515.93 256.49 516.34 C 255.16 508.61 253.71 500.90 252.61 493.14 C 254.37 491.90 255.98 490.46 257.52 488.96 C 255.59 488.98 253.67 489.04 251.75 489.10 C 251.68 488.57 251.54 487.52 251.48 487.00 Z" />
<path fill="#fea620" opacity="1.00" d=" M 42.72 486.57 C 52.24 492.61 60.88 500.28 71.39 504.61 C 71.75 506.22 72.12 507.82 72.52 509.43 C 81.74 508.52 90.99 507.82 100.24 507.13 L 100.57 507.11 C 102.05 515.50 103.35 523.91 104.41 532.36 C 94.76 531.59 85.46 534.84 76.48 537.95 C 75.20 528.48 73.66 519.05 72.38 509.58 C 67.52 509.88 62.66 510.03 57.80 510.34 C 54.35 507.74 50.70 505.03 48.79 501.04 C 46.44 496.36 44.38 491.53 42.72 486.57 Z" />
</g>
<g id="#f1190cff">
<path fill="#f1190c" opacity="1.00" d=" M 128.16 13.58 C 128.78 13.42 129.41 13.28 130.04 13.18 C 134.43 13.21 138.81 13.30 143.20 13.25 C 134.82 19.11 128.20 27.28 123.34 36.21 C 135.55 30.29 147.46 23.55 160.38 19.23 C 161.47 18.84 162.56 18.85 163.64 19.26 C 174.45 23.07 184.48 28.82 193.60 35.74 C 192.56 29.23 190.30 23.02 188.80 16.62 C 194.92 17.20 201.02 17.91 207.12 18.66 C 217.46 25.86 224.31 37.48 226.95 49.70 C 219.63 43.69 210.25 41.03 201.08 39.42 C 183.43 36.23 164.82 38.95 148.71 46.79 C 143.60 49.18 139.54 53.43 134.12 55.22 C 129.70 56.72 125.34 58.44 121.32 60.84 C 116.63 59.12 111.44 56.24 110.46 50.88 C 109.26 42.81 113.95 35.53 118.03 29.00 C 121.40 23.52 126.01 18.98 129.69 13.74 L 128.16 13.58 Z" />
<path fill="#f1190c" opacity="1.00" d=" M 145.69 50.92 C 157.62 43.38 172.03 40.37 186.02 40.15 C 198.63 40.33 211.79 42.40 222.62 49.25 C 233.32 55.80 236.95 72.47 228.37 82.06 C 228.24 70.69 218.78 62.46 209.70 57.18 C 190.41 46.03 166.87 46.39 145.69 50.92 Z" />
<path fill="#f1190c" opacity="1.00" d=" M 115.04 158.96 C 116.47 157.00 119.22 154.39 121.65 156.44 C 137.85 165.88 154.27 174.96 170.34 184.61 C 170.58 192.50 171.05 200.38 171.53 208.26 C 172.13 208.41 173.33 208.72 173.93 208.88 C 176.45 225.24 179.23 241.57 181.12 258.03 C 182.59 286.32 183.02 314.67 184.95 342.95 C 185.98 349.79 187.27 356.60 188.77 363.35 C 191.08 378.93 191.63 394.90 196.22 410.07 C 198.56 419.23 199.89 428.71 199.54 438.18 C 191.11 434.02 182.66 429.90 174.27 425.68 C 167.32 422.36 162.45 416.16 157.40 410.57 C 151.86 404.06 146.44 397.38 141.91 390.11 C 139.27 385.94 137.52 381.26 134.69 377.20 C 125.89 364.55 113.60 354.72 105.45 341.57 C 104.44 338.91 105.81 335.98 106.37 333.33 C 109.05 325.26 111.49 316.91 111.36 308.33 C 109.80 300.75 106.83 293.52 105.12 285.98 C 104.55 281.89 105.85 277.82 106.82 273.89 C 108.47 267.61 114.36 264.00 117.81 258.87 C 118.33 254.08 115.40 249.73 113.12 245.73 C 111.99 244.21 110.18 241.29 107.99 242.86 C 104.30 245.36 102.21 249.47 99.83 253.10 C 87.03 240.44 72.68 229.27 57.18 220.10 C 57.53 219.91 58.25 219.53 58.60 219.33 C 58.50 216.55 57.18 213.94 57.25 211.14 C 57.57 209.16 58.80 207.50 59.66 205.74 C 56.63 207.37 54.54 210.10 53.44 213.34 C 52.29 217.17 48.19 218.42 45.46 220.87 L 45.25 220.92 C 38.79 221.88 33.91 226.49 28.72 230.02 C 28.74 229.52 28.78 228.51 28.80 228.01 C 38.83 214.00 52.27 202.11 68.13 195.15 C 76.01 191.72 84.63 190.19 93.00 188.89 C 97.60 195.94 104.31 201.27 111.63 205.29 C 117.50 207.67 115.25 215.94 120.07 219.25 C 124.45 220.22 128.98 218.73 132.96 216.94 C 134.36 216.11 136.90 215.18 135.68 213.14 C 131.86 211.31 127.46 212.40 123.45 211.40 C 120.24 209.85 121.53 205.64 120.04 202.96 C 116.30 195.86 110.49 190.16 105.65 183.84 C 105.98 182.05 107.63 180.77 108.03 178.96 C 109.74 172.12 111.01 164.90 115.04 158.96 M 119.80 170.03 C 122.50 172.61 126.18 173.73 129.37 175.55 C 137.32 179.37 145.04 183.75 153.26 186.97 C 150.38 184.52 146.75 183.27 143.50 181.43 C 135.64 177.57 128.06 172.97 119.80 170.03 M 144.10 174.06 C 146.83 176.38 149.62 178.76 153.00 180.08 C 150.32 177.70 147.53 175.28 144.10 174.06 M 153.96 180.96 C 156.63 183.42 159.83 185.22 162.97 187.02 C 160.45 184.37 157.37 182.27 153.96 180.96 M 130.31 287.94 C 129.84 294.83 129.01 301.69 128.42 308.57 C 127.98 312.50 129.16 316.32 130.12 320.09 C 133.21 331.09 137.08 341.87 141.75 352.29 C 144.88 359.05 141.49 367.07 145.38 373.55 C 146.11 375.06 148.59 376.95 149.62 374.69 C 150.65 367.18 147.42 359.96 144.82 353.09 C 141.03 343.53 138.11 333.60 133.56 324.36 C 131.53 319.87 130.34 314.82 131.19 309.90 C 132.68 300.93 134.14 291.77 133.04 282.66 C 130.36 282.96 130.57 285.93 130.31 287.94 Z" />
<path fill="#f1190c" opacity="1.00" d=" M 185.63 178.01 C 185.98 186.04 185.54 194.10 186.18 202.11 C 184.17 204.48 179.94 206.24 180.25 209.74 C 183.10 213.39 186.84 216.27 189.67 219.98 C 189.56 214.53 189.08 209.10 189.17 203.65 C 197.65 208.06 205.91 212.90 213.88 218.18 C 220.09 222.44 226.44 226.70 231.38 232.46 C 233.68 235.36 234.93 238.95 235.76 242.52 C 234.07 239.70 232.83 236.60 230.58 234.16 C 231.30 239.47 233.55 244.53 233.39 249.97 C 233.27 257.71 233.99 265.43 234.39 273.15 C 234.67 277.84 234.20 282.81 236.42 287.12 C 236.78 273.34 237.78 259.55 237.03 245.76 C 247.35 274.14 249.89 305.15 245.93 335.01 C 245.22 338.76 244.91 342.63 243.79 346.27 C 241.96 349.25 240.17 352.41 239.90 355.98 C 239.64 360.13 240.30 364.27 240.64 368.40 L 240.66 368.59 C 237.39 372.17 235.18 376.52 232.39 380.46 C 226.82 388.53 221.55 396.82 215.87 404.82 C 214.64 406.58 213.58 408.45 212.63 410.37 C 216.89 407.63 218.59 402.61 221.77 398.89 C 226.52 393.14 231.22 387.19 237.17 382.62 C 235.44 398.26 229.39 413.00 227.34 428.58 C 226.85 431.81 225.91 435.10 226.63 438.38 C 229.23 432.77 229.20 426.39 231.52 420.67 C 232.64 417.02 234.98 413.96 236.87 410.71 C 236.13 420.10 234.74 429.53 235.65 438.96 C 236.10 444.35 236.00 450.25 232.92 454.93 C 231.88 456.69 229.84 457.30 228.05 458.00 L 227.44 457.92 C 224.28 457.25 221.26 458.87 218.12 458.98 C 213.39 459.36 209.03 457.17 204.80 455.37 C 203.64 457.34 202.56 459.35 201.51 461.38 C 200.51 460.43 200.86 458.95 200.69 457.74 C 203.48 455.03 206.01 451.73 206.55 447.77 C 206.67 444.31 204.21 441.52 201.69 439.46 C 202.40 430.21 200.96 420.96 198.98 411.95 C 197.98 407.24 196.29 402.69 195.67 397.90 C 193.17 381.38 191.55 364.75 189.87 348.13 C 188.38 331.12 186.87 314.07 187.18 296.98 C 187.08 284.59 185.23 272.31 184.00 260.01 C 183.81 250.01 183.26 240.01 182.26 230.05 C 182.05 227.51 181.39 225.04 180.38 222.71 C 180.23 225.53 180.11 228.36 180.07 231.18 C 178.51 223.75 177.72 216.16 176.26 208.70 C 176.79 208.33 177.83 207.58 178.35 207.20 C 178.58 200.75 179.07 194.30 179.37 187.85 C 179.15 183.58 183.53 181.23 185.63 178.01 M 201.87 420.79 C 205.76 426.58 211.38 431.20 214.29 437.66 C 215.12 440.19 214.32 443.48 216.66 445.34 C 218.57 447.19 222.22 449.05 224.24 446.36 C 221.38 444.46 218.16 442.66 216.65 439.41 C 214.26 434.65 211.26 430.23 207.88 426.13 C 206.14 424.09 204.54 421.66 201.87 420.79 Z" />
<path fill="#f1190c" opacity="1.00" d=" M 102.21 361.78 C 97.69 359.19 99.31 350.16 104.85 350.32 C 108.24 350.88 110.56 353.78 112.86 356.09 C 122.40 366.75 130.86 378.33 138.95 390.11 C 143.25 396.90 148.14 403.42 151.14 410.94 C 153.53 416.81 159.23 420.22 164.17 423.73 C 171.37 428.22 178.77 432.59 186.88 435.21 C 191.23 436.62 195.34 438.66 199.27 440.97 C 198.21 446.72 198.31 452.56 198.30 458.39 C 197.18 458.75 196.31 459.81 196.36 461.03 C 182.24 461.33 168.11 461.78 153.99 461.28 C 142.71 461.03 131.40 461.74 120.15 460.68 C 111.56 460.00 102.91 460.06 94.34 461.01 C 95.83 449.72 97.69 438.28 96.19 426.89 C 95.45 419.80 91.94 413.22 87.20 407.99 L 87.19 407.59 C 87.19 404.47 86.82 401.32 87.37 398.23 C 88.90 395.07 92.86 392.44 91.02 388.50 C 92.07 385.42 93.37 382.31 93.15 378.99 C 93.12 372.83 88.39 368.01 87.71 362.00 C 87.68 359.53 90.26 358.43 91.84 357.00 C 98.22 364.38 106.03 370.33 113.61 376.40 C 117.36 379.20 121.01 382.30 125.47 383.93 C 124.82 381.99 123.92 380.09 122.42 378.66 C 116.32 372.32 109.36 366.88 102.21 361.78 M 98.90 383.63 C 102.51 388.57 108.11 391.65 113.00 395.18 C 108.90 390.70 103.85 387.11 98.90 383.63 M 96.08 405.85 C 96.63 408.38 97.63 410.80 99.01 413.00 C 103.24 419.93 108.00 426.52 113.17 432.78 C 114.02 433.90 115.18 434.70 116.39 435.40 C 115.22 431.14 112.10 427.84 109.82 424.16 C 105.36 417.98 101.08 411.61 96.08 405.85 M 127.97 405.92 C 132.70 410.64 138.50 414.11 143.69 418.29 C 149.38 422.20 154.78 426.93 161.38 429.20 C 159.23 426.09 155.71 424.45 152.74 422.27 C 144.51 416.78 136.40 411.06 127.97 405.92 M 129.82 442.43 C 130.14 440.53 130.16 438.61 129.96 436.70 C 127.97 437.64 128.19 441.20 129.82 442.43 M 150.81 438.99 C 151.26 440.00 151.72 441.01 152.17 442.03 C 153.44 442.07 154.72 442.12 156.00 442.17 C 157.15 440.48 156.79 438.67 155.93 436.96 C 153.93 436.81 151.84 437.02 150.81 438.99 M 158.67 438.92 C 159.38 438.68 160.80 438.18 161.52 437.94 C 160.73 439.39 159.78 440.75 158.78 442.07 C 159.50 442.05 160.94 442.00 161.66 441.98 C 161.60 440.30 161.74 438.63 161.83 436.97 C 160.53 437.22 159.12 437.44 158.67 438.92 M 162.50 438.45 C 162.71 439.27 163.12 440.93 163.33 441.76 C 164.00 441.79 165.36 441.85 166.03 441.88 C 166.13 441.17 166.33 439.74 166.42 439.02 C 166.97 439.03 168.07 439.03 168.62 439.03 C 168.53 439.74 168.35 441.14 168.26 441.85 C 168.58 441.84 169.22 441.82 169.54 441.81 C 169.53 440.23 169.55 438.65 169.61 437.08 C 168.10 438.13 166.07 438.30 164.63 437.02 C 163.91 437.48 163.20 437.96 162.50 438.45 M 171.94 442.09 C 173.09 443.24 174.26 440.89 174.96 440.36 C 174.21 440.64 172.72 441.18 171.97 441.46 L 171.94 440.09 C 172.62 440.14 173.98 440.26 174.66 440.32 C 173.69 439.56 172.72 438.83 171.73 438.11 C 172.29 438.15 173.42 438.22 173.99 438.26 L 173.81 436.96 C 170.87 436.53 170.07 440.49 171.94 442.09 M 131.11 438.41 C 131.17 439.75 130.27 441.51 131.66 442.47 C 131.72 441.68 131.83 440.09 131.89 439.30 L 133.00 439.25 C 133.02 439.98 133.05 441.44 133.06 442.18 L 133.96 442.09 C 133.97 441.41 133.99 440.06 134.00 439.38 L 135.05 439.35 C 135.15 440.12 135.35 441.66 135.44 442.43 C 135.82 441.10 135.91 439.73 136.01 438.37 C 134.37 438.39 132.74 438.40 131.11 438.41 M 137.60 437.90 C 137.93 438.36 138.58 439.28 138.90 439.74 C 138.28 439.62 137.02 439.38 136.40 439.26 C 136.46 439.97 136.59 441.40 136.65 442.11 C 137.65 442.14 139.64 442.20 140.64 442.23 C 140.66 440.15 140.49 437.32 137.60 437.90 M 141.07 440.18 C 140.97 442.29 143.43 442.35 144.88 442.97 C 144.83 442.25 144.73 440.80 144.69 440.07 C 145.79 441.12 146.89 442.70 148.64 442.15 C 148.71 441.34 148.86 439.71 148.94 438.89 C 147.39 437.80 146.13 438.62 145.10 439.95 C 145.12 437.54 140.91 437.92 141.07 440.18 M 111.38 442.27 C 110.71 442.29 109.38 442.33 108.72 442.35 C 108.98 441.77 109.51 440.62 109.77 440.04 C 109.24 439.86 108.17 439.50 107.64 439.32 C 107.52 440.33 107.29 442.34 107.17 443.35 C 106.54 442.17 105.88 441.02 105.18 439.89 C 105.39 441.40 105.69 442.89 106.00 444.38 C 103.46 445.46 104.41 448.83 104.18 451.00 C 104.50 452.98 103.49 456.30 106.10 457.00 C 109.03 458.66 112.26 457.87 115.24 456.84 L 115.22 456.26 C 116.29 452.86 115.22 449.22 115.86 445.74 C 115.35 444.96 114.84 444.18 114.33 443.41 C 114.80 442.17 115.27 440.93 115.73 439.69 C 114.72 440.80 113.80 441.99 112.59 442.92 C 112.59 441.94 112.60 439.98 112.60 439.00 C 111.26 439.65 111.07 440.88 111.38 442.27 M 142.54 443.22 C 143.08 443.79 143.08 443.79 142.54 443.22 M 128.95 443.91 C 128.29 447.05 128.39 450.30 128.58 453.49 C 128.51 454.84 130.09 455.22 130.96 455.89 C 129.39 452.02 131.61 447.24 128.95 443.91 M 132.46 444.52 C 132.09 447.86 132.10 451.26 132.45 454.60 C 133.13 454.84 134.48 455.31 135.16 455.55 C 133.52 452.95 134.09 449.87 134.00 446.98 C 133.97 446.02 134.04 443.62 132.46 444.52 M 118.62 455.38 C 120.14 455.11 121.05 454.21 121.36 452.68 C 122.50 452.66 123.64 452.65 124.79 452.65 C 125.11 454.25 126.02 455.14 127.50 455.31 C 126.31 451.43 125.42 447.29 123.02 443.93 C 120.75 447.38 119.83 451.49 118.62 455.38 M 148.54 447.71 C 146.92 447.94 145.28 448.16 143.65 447.85 C 143.58 448.69 143.45 450.37 143.38 451.21 C 142.06 449.94 141.29 447.51 139.08 447.73 C 134.94 447.47 134.22 454.26 138.06 455.23 C 139.52 455.61 142.18 455.80 142.38 453.71 C 140.39 453.99 138.03 454.32 137.06 452.06 C 139.26 451.94 141.46 451.79 143.60 451.21 C 143.56 452.68 143.53 454.16 143.53 455.64 C 146.37 455.42 144.89 451.88 145.37 450.01 C 146.19 449.46 147.82 448.36 148.64 447.81 C 148.58 450.22 148.60 452.66 148.90 455.07 C 150.15 455.24 151.86 456.29 152.28 454.40 C 149.46 454.34 149.03 448.65 152.20 448.69 C 151.03 447.58 148.49 443.97 148.54 447.71 M 161.34 447.68 C 161.25 450.30 161.07 452.94 161.46 455.55 C 165.01 455.72 160.82 448.71 165.07 449.21 C 167.12 450.16 165.79 453.23 166.45 455.07 C 166.27 456.46 168.61 455.11 167.99 454.15 C 167.99 452.20 168.39 449.74 166.79 448.28 C 165.08 447.58 163.15 447.87 161.34 447.68 M 169.31 450.03 C 169.68 452.12 172.69 451.96 173.28 454.05 C 171.81 453.94 170.34 453.81 168.87 453.66 C 169.57 455.74 172.14 455.98 173.79 454.77 C 174.37 455.08 174.95 455.41 175.53 455.75 C 176.08 455.35 177.18 454.55 177.73 454.16 C 178.23 454.59 179.23 455.46 179.73 455.90 L 179.42 455.00 C 182.47 455.78 185.65 455.46 188.66 454.64 L 189.12 455.14 C 189.15 454.55 189.21 453.36 189.25 452.77 C 189.63 453.85 190.18 454.86 190.89 455.78 C 190.91 454.80 190.96 452.85 190.98 451.87 C 189.12 451.73 187.23 451.69 185.44 452.31 L 184.84 452.08 C 184.16 452.13 182.81 452.23 182.13 452.28 C 181.44 452.25 180.07 452.20 179.38 452.17 C 177.84 451.55 177.58 453.66 176.75 454.45 C 176.18 454.32 175.05 454.05 174.48 453.92 C 175.51 451.11 171.25 451.41 170.76 449.06 C 172.12 449.12 173.49 449.23 174.85 449.30 C 173.76 446.94 169.53 447.21 169.31 450.03 M 154.25 448.33 C 151.82 449.88 152.18 454.34 155.05 455.24 C 157.71 456.39 160.81 453.78 160.10 450.96 C 159.97 448.17 156.42 446.85 154.25 448.33 Z" />
<path fill="#f1190c" opacity="1.00" d=" M 164.35 438.34 C 165.60 438.66 165.82 439.47 164.99 440.76 C 163.73 440.43 163.52 439.63 164.35 438.34 Z" />
<path fill="#f1190c" opacity="1.00" d=" M 142.23 439.86 C 145.11 438.15 142.52 443.24 142.23 439.86 Z" />
<path fill="#f1190c" opacity="1.00" d=" M 109.92 446.22 L 110.40 446.70 C 111.61 448.81 112.62 451.03 113.26 453.39 C 113.38 453.96 113.61 455.12 113.73 455.69 C 111.86 454.43 110.99 452.36 110.20 450.35 C 109.34 452.19 108.45 454.01 107.50 455.81 C 107.30 455.41 106.88 454.61 106.68 454.21 C 107.57 451.47 108.81 448.87 109.92 446.22 Z" />
<path fill="#f1190c" opacity="1.00" d=" M 122.36 448.43 C 123.80 447.25 125.08 450.01 123.87 450.95 C 122.25 452.26 120.95 449.41 122.36 448.43 Z" />
<path fill="#f1190c" opacity="1.00" d=" M 155.35 449.62 C 158.06 447.67 159.67 453.14 156.94 453.86 C 154.55 454.57 153.60 450.85 155.35 449.62 Z" />
<path fill="#f1190c" opacity="1.00" d=" M 179.06 453.91 C 179.28 453.58 179.73 452.91 179.96 452.57 C 180.99 453.74 180.69 454.19 179.06 453.91 Z" />
</g>
<g id="#ee574eff">
<path fill="#ee574e" opacity="1.00" d=" M 103.45 37.36 C 108.70 26.91 117.86 18.89 128.16 13.58 L 129.69 13.74 C 126.01 18.98 121.40 23.52 118.03 29.00 C 113.95 35.53 109.26 42.81 110.46 50.88 C 111.44 56.24 116.63 59.12 121.32 60.84 C 110.38 67.47 99.32 76.18 95.62 88.99 C 94.12 71.57 94.79 53.02 103.45 37.36 Z" />
<path fill="#ee574e" opacity="1.00" d=" M 119.80 170.03 C 128.06 172.97 135.64 177.57 143.50 181.43 C 146.75 183.27 150.38 184.52 153.26 186.97 C 145.04 183.75 137.32 179.37 129.37 175.55 C 126.18 173.73 122.50 172.61 119.80 170.03 Z" />
<path fill="#ee574e" opacity="1.00" d=" M 144.10 174.06 C 147.53 175.28 150.32 177.70 153.00 180.08 C 149.62 178.76 146.83 176.38 144.10 174.06 Z" />
<path fill="#ee574e" opacity="1.00" d=" M 153.96 180.96 C 157.37 182.27 160.45 184.37 162.97 187.02 C 159.83 185.22 156.63 183.42 153.96 180.96 Z" />
<path fill="#ee574e" opacity="1.00" d=" M 186.18 202.11 C 187.18 202.62 188.17 203.13 189.17 203.65 C 189.08 209.10 189.56 214.53 189.67 219.98 C 186.84 216.27 183.10 213.39 180.25 209.74 C 179.94 206.24 184.17 204.48 186.18 202.11 Z" />
<path fill="#ee574e" opacity="1.00" d=" M 53.44 213.34 C 54.54 210.10 56.63 207.37 59.66 205.74 C 58.80 207.50 57.57 209.16 57.25 211.14 C 57.18 213.94 58.50 216.55 58.60 219.33 C 58.25 219.53 57.53 219.91 57.18 220.10 C 53.37 217.86 49.17 219.20 45.46 220.87 C 48.19 218.42 52.29 217.17 53.44 213.34 Z" />
<path fill="#ee574e" opacity="1.00" d=" M 28.72 230.02 C 33.91 226.49 38.79 221.88 45.25 220.92 C 36.95 225.95 29.12 231.68 21.90 238.16 C 24.01 234.66 26.18 231.16 28.80 228.01 C 28.78 228.51 28.74 229.52 28.72 230.02 Z" />
<path fill="#ee574e" opacity="1.00" d=" M 180.38 222.71 C 181.39 225.04 182.05 227.51 182.26 230.05 C 183.26 240.01 183.81 250.01 184.00 260.01 C 182.67 250.41 181.16 240.81 180.07 231.18 C 180.11 228.36 180.23 225.53 180.38 222.71 Z" />
<path fill="#ee574e" opacity="1.00" d=" M 230.58 234.16 C 232.83 236.60 234.07 239.70 235.76 242.52 C 236.33 243.53 236.87 244.59 237.03 245.76 C 237.78 259.55 236.78 273.34 236.42 287.12 C 234.20 282.81 234.67 277.84 234.39 273.15 C 233.99 265.43 233.27 257.71 233.39 249.97 C 233.55 244.53 231.30 239.47 230.58 234.16 Z" />
<path fill="#ee574e" opacity="1.00" d=" M 107.99 242.86 C 110.18 241.29 111.99 244.21 113.12 245.73 C 115.40 249.73 118.33 254.08 117.81 258.87 C 114.36 264.00 108.47 267.61 106.82 273.89 C 105.85 277.82 104.55 281.89 105.12 285.98 C 106.83 293.52 109.80 300.75 111.36 308.33 C 111.49 316.91 109.05 325.26 106.37 333.33 C 105.81 335.98 104.44 338.91 105.45 341.57 C 113.60 354.72 125.89 364.55 134.69 377.20 C 137.52 381.26 139.27 385.94 141.91 390.11 C 146.44 397.38 151.86 404.06 157.40 410.57 C 162.45 416.16 167.32 422.36 174.27 425.68 C 182.66 429.90 191.11 434.02 199.54 438.18 C 199.47 438.88 199.34 440.27 199.27 440.97 C 195.34 438.66 191.23 436.62 186.88 435.21 C 178.77 432.59 171.37 428.22 164.17 423.73 C 159.23 420.22 153.53 416.81 151.14 410.94 C 148.14 403.42 143.25 396.90 138.95 390.11 C 130.86 378.33 122.40 366.75 112.86 356.09 C 110.56 353.78 108.24 350.88 104.85 350.32 C 99.31 350.16 97.69 359.19 102.21 361.78 C 109.36 366.88 116.32 372.32 122.42 378.66 C 123.92 380.09 124.82 381.99 125.47 383.93 C 121.01 382.30 117.36 379.20 113.61 376.40 C 106.03 370.33 98.22 364.38 91.84 357.00 C 95.22 354.36 98.60 351.49 100.60 347.61 C 102.20 344.97 101.90 341.78 102.30 338.85 C 103.74 326.96 106.83 315.12 106.15 303.06 C 103.06 290.59 103.70 277.40 106.86 265.01 C 106.74 260.11 102.73 256.62 99.83 253.10 C 102.21 249.47 104.30 245.36 107.99 242.86 Z" />
<path fill="#ee574e" opacity="1.00" d=" M 181.12 258.03 C 182.50 267.64 183.51 277.30 184.29 286.98 C 185.05 295.97 184.31 304.99 184.96 313.99 C 185.62 330.48 187.44 346.90 188.77 363.35 C 187.27 356.60 185.98 349.79 184.95 342.95 C 183.02 314.67 182.59 286.32 181.12 258.03 Z" />
<path fill="#ee574e" opacity="1.00" d=" M 130.31 287.94 C 130.57 285.93 130.36 282.96 133.04 282.66 C 134.14 291.77 132.68 300.93 131.19 309.90 C 130.34 314.82 131.53 319.87 133.56 324.36 C 138.11 333.60 141.03 343.53 144.82 353.09 C 147.42 359.96 150.65 367.18 149.62 374.69 C 148.59 376.95 146.11 375.06 145.38 373.55 C 141.49 367.07 144.88 359.05 141.75 352.29 C 137.08 341.87 133.21 331.09 130.12 320.09 C 129.16 316.32 127.98 312.50 128.42 308.57 C 129.01 301.69 129.84 294.83 130.31 287.94 Z" />
<path fill="#ee574e" opacity="1.00" d=" M 239.90 355.98 C 240.17 352.41 241.96 349.25 243.79 346.27 C 242.69 353.64 241.18 360.95 240.64 368.40 C 240.30 364.27 239.64 360.13 239.90 355.98 Z" />
<path fill="#ee574e" opacity="1.00" d=" M 232.39 380.46 C 235.18 376.52 237.39 372.17 240.66 368.59 C 239.58 382.65 238.07 396.67 236.87 410.71 C 234.98 413.96 232.64 417.02 231.52 420.67 C 229.20 426.39 229.23 432.77 226.63 438.38 C 225.91 435.10 226.85 431.81 227.34 428.58 C 229.39 413.00 235.44 398.26 237.17 382.62 C 231.22 387.19 226.52 393.14 221.77 398.89 C 218.59 402.61 216.89 407.63 212.63 410.37 C 213.58 408.45 214.64 406.58 215.87 404.82 C 221.55 396.82 226.82 388.53 232.39 380.46 Z" />
<path fill="#ee574e" opacity="1.00" d=" M 98.90 383.63 C 103.85 387.11 108.90 390.70 113.00 395.18 C 108.11 391.65 102.51 388.57 98.90 383.63 Z" />
<path fill="#ee574e" opacity="1.00" d=" M 83.60 398.54 C 86.15 395.25 88.98 392.16 91.02 388.50 C 92.86 392.44 88.90 395.07 87.37 398.23 C 86.82 401.32 87.19 404.47 87.19 407.59 C 85.10 405.21 81.12 401.95 83.60 398.54 Z" />
<path fill="#ee574e" opacity="1.00" d=" M 127.97 405.92 C 136.40 411.06 144.51 416.78 152.74 422.27 C 155.71 424.45 159.23 426.09 161.38 429.20 C 154.78 426.93 149.38 422.20 143.69 418.29 C 138.50 414.11 132.70 410.64 127.97 405.92 Z" />
<path fill="#ee574e" opacity="1.00" d=" M 201.87 420.79 C 204.54 421.66 206.14 424.09 207.88 426.13 C 211.26 430.23 214.26 434.65 216.65 439.41 C 218.16 442.66 221.38 444.46 224.24 446.36 C 222.22 449.05 218.57 447.19 216.66 445.34 C 214.32 443.48 215.12 440.19 214.29 437.66 C 211.38 431.20 205.76 426.58 201.87 420.79 Z" />
<path fill="#ee574e" opacity="1.00" d=" M 201.51 461.38 C 202.56 459.35 203.64 457.34 204.80 455.37 C 209.03 457.17 213.39 459.36 218.12 458.98 C 221.26 458.87 224.28 457.25 227.44 457.92 C 219.27 461.42 210.21 461.17 201.51 461.38 Z" />
</g>
<g id="#1b232aff">
<path fill="#1b232a" opacity="1.00" d=" M 69.92 232.78 C 77.35 236.79 83.46 242.84 89.95 248.17 C 94.60 252.12 98.94 256.51 102.36 261.58 C 103.73 263.42 103.31 265.77 102.81 267.83 C 91.07 267.05 79.37 265.85 67.65 264.87 C 66.80 277.54 66.39 290.24 65.36 302.89 C 66.00 303.37 66.66 303.84 67.32 304.30 C 79.27 304.03 91.22 305.11 103.17 305.28 C 102.83 317.63 99.82 329.68 98.66 341.94 C 98.28 343.52 98.67 345.66 97.31 346.77 C 96.20 345.82 94.73 345.58 93.36 345.22 C 84.52 345.18 75.68 344.76 66.85 344.30 C 66.39 344.51 65.48 344.92 65.02 345.12 L 64.59 345.65 L 64.40 345.88 C 64.32 345.45 64.16 344.57 64.08 344.14 C 65.14 335.81 64.73 327.34 65.23 318.96 C 65.23 313.83 66.10 308.62 64.93 303.56 C 50.84 303.41 36.77 301.93 22.68 301.27 C 23.67 288.25 24.68 275.24 25.59 262.22 C 39.60 263.04 53.60 264.01 67.61 264.84 C 68.43 254.16 69.08 243.46 69.92 232.78 Z" />
<path fill="#1b232a" opacity="1.00" d=" M 17.44 248.39 C 20.87 244.34 23.96 239.81 28.44 236.84 C 27.45 245.27 26.66 253.73 25.56 262.16 C 21.01 262.13 16.47 262.03 11.93 261.96 C 12.76 257.09 14.21 252.24 17.44 248.39 Z" />
<path fill="#1b232a" opacity="1.00" d=" M 241.12 247.89 C 243.38 251.73 244.30 256.14 245.53 260.38 C 248.24 270.03 249.96 279.95 250.84 289.94 C 251.77 299.71 254.23 309.23 256.22 318.81 C 254.24 318.45 252.26 318.09 250.29 317.72 C 251.26 298.29 249.13 278.77 244.29 259.94 C 243.44 255.87 241.67 252.03 241.12 247.89 Z" />
<path fill="#1b232a" opacity="1.00" d=" M 8.65 301.26 C 13.36 301.25 18.07 301.15 22.77 301.41 C 22.41 309.25 22.35 317.10 22.14 324.95 C 19.34 323.99 16.49 323.22 13.60 322.61 C 12.46 327.88 18.15 329.48 22.00 330.70 C 21.89 334.14 21.82 337.59 21.76 341.04 C 27.31 341.43 32.86 341.75 38.40 342.29 C 38.77 342.32 39.51 342.39 39.89 342.42 C 42.91 345.96 46.43 349.03 49.97 352.03 C 49.12 348.91 48.08 345.85 46.94 342.82 C 48.34 342.90 49.73 343.00 51.12 343.12 C 54.10 343.96 54.92 347.26 56.34 349.63 C 58.65 354.42 61.69 358.91 63.34 364.00 C 64.07 367.79 58.93 367.63 56.60 368.91 C 54.20 369.46 55.13 372.37 54.96 374.13 C 57.69 372.61 60.55 371.27 63.64 370.63 C 63.58 375.88 63.34 381.13 63.27 386.38 C 63.57 386.87 64.15 387.86 64.44 388.36 C 72.30 387.34 80.25 387.52 88.15 386.97 C 87.56 388.13 87.65 389.88 86.35 390.55 C 80.96 393.43 76.12 397.54 72.66 402.59 C 70.72 405.25 72.64 408.48 74.26 410.77 C 77.14 414.49 80.46 418.53 85.22 419.75 C 87.34 420.44 88.38 418.23 89.45 416.90 C 92.13 420.12 93.24 424.33 93.18 428.47 C 92.40 428.41 90.83 428.27 90.04 428.21 C 84.44 426.64 76.44 424.94 72.62 430.65 C 72.28 430.69 71.59 430.78 71.25 430.82 C 68.69 431.27 65.96 431.17 63.53 432.17 C 63.31 434.48 63.38 436.82 63.38 439.16 L 63.38 439.70 C 58.42 443.93 54.17 448.91 49.38 453.33 C 47.34 455.18 45.35 457.10 43.64 459.27 C 50.98 456.86 56.59 451.20 63.43 447.77 C 63.42 453.42 63.42 459.08 63.35 464.73 C 63.35 465.74 63.35 466.76 63.36 467.78 C 63.37 469.44 63.38 471.10 63.39 472.77 C 68.76 472.73 74.12 472.46 79.49 472.22 C 82.19 472.19 84.90 472.28 87.60 472.05 C 89.09 471.88 90.57 471.61 92.05 471.39 L 91.82 469.98 C 93.39 472.45 95.15 474.82 96.41 477.48 C 97.92 483.18 96.82 489.18 97.81 494.96 C 98.38 499.07 99.88 502.99 100.24 507.13 C 90.99 507.82 81.74 508.52 72.52 509.43 C 72.12 507.82 71.75 506.22 71.39 504.61 C 71.06 503.13 70.70 501.67 70.29 500.23 C 67.75 491.22 65.83 482.06 63.38 473.03 C 53.33 472.51 43.27 472.02 33.23 471.33 L 33.37 472.08 L 33.47 472.65 C 27.91 466.89 24.88 459.23 23.50 451.45 C 20.98 441.45 21.16 430.90 17.72 421.12 C 16.00 415.65 13.20 410.57 11.63 405.05 C 11.16 400.62 11.93 396.14 12.23 391.72 C 13.10 394.99 14.36 398.14 15.94 401.13 C 17.72 400.69 19.50 400.27 21.28 399.85 C 21.38 409.40 21.66 418.94 21.68 428.49 C 35.58 429.84 49.53 430.70 63.45 431.77 C 63.59 417.60 63.08 403.41 63.72 389.25 C 62.60 388.42 61.49 387.24 59.93 387.49 C 46.98 386.57 34.07 385.19 21.13 384.29 L 21.14 383.94 C 21.55 369.61 21.56 355.27 21.72 340.94 C 16.36 340.49 11.01 339.92 5.66 339.37 C 6.44 326.64 9.16 314.05 8.65 301.26 M 85.87 483.85 C 83.77 486.41 83.51 489.91 83.11 493.08 C 86.43 489.39 89.12 484.97 93.60 482.51 C 95.45 481.75 95.92 479.92 95.77 478.10 C 92.09 479.20 88.57 481.09 85.87 483.85 Z" />
<path fill="#1b232a" opacity="1.00" d=" M 247.14 345.09 C 252.10 344.73 257.06 344.38 262.02 344.02 C 264.02 352.76 265.07 361.71 265.68 370.65 C 263.69 370.62 261.60 370.71 259.84 369.61 C 259.31 369.98 258.79 370.36 258.29 370.75 C 257.82 370.88 256.89 371.12 256.43 371.25 C 251.95 371.58 247.47 371.78 242.99 372.16 C 243.13 369.40 243.01 366.57 243.84 363.90 C 243.90 364.43 244.04 365.49 244.10 366.02 C 248.42 362.36 252.19 358.11 256.33 354.27 C 258.35 352.35 260.64 350.51 261.50 347.75 C 254.39 351.34 250.10 358.56 243.76 363.23 C 244.84 357.17 246.09 351.15 247.14 345.09 Z" />
<path fill="#1b232a" opacity="1.00" d=" M 242.04 384.08 L 242.46 383.85 L 243.54 383.31 C 243.72 388.59 244.09 393.87 244.37 399.15 C 243.03 399.35 241.70 399.56 240.36 399.77 C 240.74 394.52 241.34 389.29 242.04 384.08 Z" />
<path fill="#1b232a" opacity="1.00" d=" M 260.77 398.03 C 262.22 397.94 263.68 397.85 265.14 397.77 C 264.62 407.26 264.58 416.76 264.75 426.26 C 258.65 426.97 252.53 427.54 246.41 428.03 C 247.25 437.95 248.08 447.91 249.30 457.78 C 250.66 458.83 252.40 458.21 253.96 458.19 C 258.10 457.78 262.26 457.55 266.36 456.82 L 267.05 456.70 C 267.31 459.52 265.41 462.17 266.07 464.95 C 268.32 471.38 266.54 478.25 266.98 484.89 C 261.82 485.65 256.65 486.39 251.48 487.00 C 251.54 487.52 251.68 488.57 251.75 489.10 L 251.88 490.10 C 250.63 489.97 249.38 489.84 248.14 489.72 C 247.81 489.25 247.14 488.32 246.81 487.86 L 246.65 487.61 C 248.24 487.46 249.84 487.32 251.44 487.18 C 251.12 482.69 250.79 478.20 250.37 473.72 C 251.78 472.60 253.23 471.52 254.63 470.37 C 253.21 470.77 252.31 472.42 250.81 472.42 C 249.01 468.37 250.65 463.32 248.79 459.20 C 246.93 457.94 244.68 459.12 242.66 459.18 C 242.57 454.07 243.22 448.79 241.78 443.82 C 240.55 446.63 239.40 449.47 238.08 452.24 C 239.54 444.59 237.73 436.90 237.91 429.22 C 240.63 428.94 243.35 428.66 246.07 428.37 C 245.56 420.18 245.16 411.99 244.62 403.81 C 250.11 401.20 256.33 401.93 262.05 400.27 C 261.73 399.71 261.09 398.59 260.77 398.03 Z" />
<path fill="#1b232a" opacity="1.00" d=" M 252.31 493.34 L 252.61 493.14 C 253.71 500.90 255.16 508.61 256.49 516.34 C 253.34 517.26 250.39 518.70 247.64 520.47 C 246.35 517.96 245.39 515.30 244.48 512.64 C 242.41 507.37 242.64 501.58 241.03 496.19 C 245.04 496.64 249.12 495.95 252.31 493.34 Z" />
<path fill="#1b232a" opacity="1.00" d=" M 57.80 510.34 C 62.66 510.03 67.52 509.88 72.38 509.58 C 73.66 519.05 75.20 528.48 76.48 537.95 C 73.71 539.20 70.88 540.28 67.97 541.14 C 67.55 535.66 68.56 530.08 67.37 524.67 C 65.77 519.01 61.48 514.72 57.80 510.34 Z" />
</g>
<g id="#585e63ff">
<path fill="#585e63" opacity="1.00" d=" M 13.60 322.61 C 16.49 323.22 19.34 323.99 22.14 324.95 C 22.10 326.86 22.05 328.78 22.00 330.70 C 18.15 329.48 12.46 327.88 13.60 322.61 Z" />
<path fill="#585e63" opacity="1.00" d=" M 39.89 342.42 C 42.24 342.60 44.59 342.69 46.94 342.82 C 48.08 345.85 49.12 348.91 49.97 352.03 C 46.43 349.03 42.91 345.96 39.89 342.42 Z" />
<path fill="#585e63" opacity="1.00" d=" M 51.12 343.12 L 52.44 343.23 C 55.38 343.50 58.32 343.71 61.26 343.89 C 61.96 343.95 63.37 344.07 64.08 344.14 C 64.16 344.57 64.32 345.45 64.40 345.88 C 64.13 354.13 63.99 362.38 63.64 370.63 C 60.55 371.27 57.69 372.61 54.96 374.13 C 55.13 372.37 54.20 369.46 56.60 368.91 C 58.93 367.63 64.07 367.79 63.34 364.00 C 61.69 358.91 58.65 354.42 56.34 349.63 C 54.92 347.26 54.10 343.96 51.12 343.12 Z" />
<path fill="#585e63" opacity="1.00" d=" M 11.53 383.45 C 13.80 383.57 16.06 383.70 18.33 383.81 C 19.03 383.84 20.44 383.91 21.14 383.94 L 21.13 384.29 L 21.12 385.52 C 21.04 390.10 21.19 394.68 21.27 399.26 L 21.28 399.85 C 19.50 400.27 17.72 400.69 15.94 401.13 C 14.36 398.14 13.10 394.99 12.23 391.72 C 11.45 389.03 11.37 386.22 11.53 383.45 Z" />
<path fill="#585e63" opacity="1.00" d=" M 72.66 402.59 C 76.12 397.54 80.96 393.43 86.35 390.55 C 84.17 394.90 78.02 398.25 80.28 403.86 C 82.66 408.65 87.11 412.05 89.45 416.90 C 88.38 418.23 87.34 420.44 85.22 419.75 C 80.46 418.53 77.14 414.49 74.26 410.77 C 72.64 408.48 70.72 405.25 72.66 402.59 Z" />
<path fill="#585e63" opacity="1.00" d=" M 249.61 398.85 C 253.33 398.52 257.04 398.23 260.77 398.03 C 261.09 398.59 261.73 399.71 262.05 400.27 C 256.33 401.93 250.11 401.20 244.62 403.81 C 244.61 403.50 244.59 402.89 244.58 402.58 C 246.31 401.41 248.04 400.23 249.61 398.85 Z" />
<path fill="#585e63" opacity="1.00" d=" M 72.62 430.65 C 76.44 424.94 84.44 426.64 90.04 428.21 L 90.81 428.62 C 84.75 429.31 78.69 430.04 72.62 430.65 Z" />
<path fill="#585e63" opacity="1.00" d=" M 49.38 453.33 C 54.17 448.91 58.42 443.93 63.38 439.70 C 63.41 442.38 63.42 445.08 63.43 447.77 C 56.59 451.20 50.98 456.86 43.64 459.27 C 45.35 457.10 47.34 455.18 49.38 453.33 Z" />
<path fill="#585e63" opacity="1.00" d=" M 241.78 443.82 C 243.22 448.79 242.57 454.07 242.66 459.18 L 242.63 459.45 C 240.68 459.61 238.74 459.77 236.80 459.93 C 236.23 457.25 236.68 454.59 238.08 452.24 C 239.40 449.47 240.55 446.63 241.78 443.82 Z" />
<path fill="#585e63" opacity="1.00" d=" M 85.87 483.85 C 88.57 481.09 92.09 479.20 95.77 478.10 C 95.92 479.92 95.45 481.75 93.60 482.51 C 89.12 484.97 86.43 489.39 83.11 493.08 C 83.51 489.91 83.77 486.41 85.87 483.85 Z" />
<path fill="#585e63" opacity="1.00" d=" M 239.64 488.68 C 242.03 488.38 244.42 488.10 246.81 487.86 C 247.14 488.32 247.81 489.25 248.14 489.72 C 249.38 489.84 250.63 489.97 251.88 490.10 C 251.99 490.91 252.20 492.53 252.31 493.34 C 249.12 495.95 245.04 496.64 241.03 496.19 C 240.15 493.78 239.52 491.26 239.64 488.68 Z" />
</g>
<g id="#f7ba5cff">
<path fill="#f7ba5c" opacity="1.00" d=" M 22.14 324.95 C 28.43 327.34 34.87 329.69 40.33 333.73 C 43.45 335.98 45.21 339.49 46.94 342.82 C 44.59 342.69 42.24 342.60 39.89 342.42 C 39.51 342.39 38.77 342.32 38.40 342.29 C 33.93 337.25 28.28 333.16 22.00 330.70 C 22.05 328.78 22.10 326.86 22.14 324.95 Z" />
<path fill="#f7ba5c" opacity="1.00" d=" M 48.96 331.85 C 53.41 335.49 57.18 339.86 61.26 343.89 C 58.32 343.71 55.38 343.50 52.44 343.23 C 50.83 339.60 48.69 335.98 48.96 331.85 Z" />
<path fill="#f7ba5c" opacity="1.00" d=" M 64.40 345.88 L 64.59 345.65 C 68.07 349.21 73.81 352.31 78.68 349.65 C 83.26 347.24 88.00 344.76 93.36 345.22 C 91.41 348.65 89.27 352.02 88.04 355.81 L 87.91 356.16 C 86.76 357.32 85.59 358.49 84.76 359.91 C 81.54 365.73 77.60 371.49 71.91 375.12 C 68.47 375.90 66.17 372.34 63.64 370.63 C 63.99 362.38 64.13 354.13 64.40 345.88 Z" />
<path fill="#f7ba5c" opacity="1.00" d=" M 256.43 371.25 C 256.89 371.12 257.82 370.88 258.29 370.75 C 259.64 370.86 261.00 370.97 262.36 371.11 C 260.08 373.34 257.35 375.02 254.60 376.60 C 250.86 378.75 247.43 381.41 243.54 383.31 L 242.46 383.85 C 242.57 380.71 242.76 377.57 242.96 374.43 C 247.64 374.41 252.26 373.40 256.43 371.25 Z" />
<path fill="#f7ba5c" opacity="1.00" d=" M 11.05 373.82 C 11.32 375.43 11.50 377.08 12.15 378.61 C 14.04 380.53 16.28 382.06 18.33 383.81 C 16.06 383.70 13.80 383.57 11.53 383.45 L 11.16 383.43 C 11.26 380.22 11.35 377.01 11.05 373.82 Z" />
<path fill="#f7ba5c" opacity="1.00" d=" M 21.12 385.52 C 25.26 388.47 29.87 390.64 34.59 392.48 C 35.72 393.09 38.57 393.97 36.36 395.29 C 31.56 397.33 26.32 398.07 21.27 399.26 C 21.19 394.68 21.04 390.10 21.12 385.52 Z" />
<path fill="#f7ba5c" opacity="1.00" d=" M 72.62 430.65 C 78.69 430.04 84.75 429.31 90.81 428.62 C 90.44 431.07 88.74 433.22 86.48 434.23 C 84.08 434.45 81.37 433.64 79.38 435.44 C 73.94 439.39 69.15 444.19 63.43 447.77 C 63.42 445.08 63.41 442.38 63.38 439.70 L 63.38 439.16 C 66.26 436.63 68.94 433.88 71.25 430.82 C 71.59 430.78 72.28 430.69 72.62 430.65 Z" />
<path fill="#f7ba5c" opacity="1.00" d=" M 236.80 459.93 C 238.74 459.77 240.68 459.61 242.63 459.45 C 240.88 464.96 240.82 470.89 243.17 476.23 C 245.58 475.54 247.67 474.12 249.99 473.25 C 249.76 474.97 248.17 476.00 247.25 477.37 C 244.76 480.20 245.81 484.32 246.65 487.61 L 246.81 487.86 C 244.42 488.10 242.03 488.38 239.64 488.68 L 239.28 488.72 C 239.01 484.50 239.99 480.29 239.42 476.08 C 238.76 470.67 237.82 465.29 236.80 459.93 Z" />
<path fill="#f7ba5c" opacity="1.00" d=" M 63.35 464.73 C 71.50 466.87 80.05 468.19 87.60 472.05 C 84.90 472.28 82.19 472.19 79.49 472.22 C 74.37 469.91 68.80 468.96 63.36 467.78 C 63.35 466.76 63.35 465.74 63.35 464.73 Z" />
<path fill="#f7ba5c" opacity="1.00" d=" M 41.47 481.17 C 44.24 480.95 45.93 483.60 47.88 485.12 C 54.66 491.02 61.30 497.91 70.29 500.23 C 70.70 501.67 71.06 503.13 71.39 504.61 C 60.88 500.28 52.24 492.61 42.72 486.57 C 41.71 485.60 41.28 484.18 40.77 482.92 C 40.95 482.48 41.29 481.60 41.47 481.17 Z" />
</g>
<g id="#4d5359ff">
<path fill="#4d5359" opacity="1.00" d=" M 243.76 363.23 C 250.10 358.56 254.39 351.34 261.50 347.75 C 260.64 350.51 258.35 352.35 256.33 354.27 C 252.19 358.11 248.42 362.36 244.10 366.02 C 244.04 365.49 243.90 364.43 243.84 363.90 L 243.76 363.23 Z" />
</g>
<g id="#22282dff">
<path fill="#22282d" opacity="1.00" d=" M 244.39 399.06 C 246.13 399.00 247.87 398.93 249.61 398.85 C 248.04 400.23 246.31 401.41 244.58 402.58 C 244.53 401.70 244.44 399.94 244.39 399.06 Z" />
</g>
<g id="#ee4c42ff">
<path fill="#ee4c42" opacity="1.00" d=" M 96.08 405.85 C 101.08 411.61 105.36 417.98 109.82 424.16 C 112.10 427.84 115.22 431.14 116.39 435.40 C 115.18 434.70 114.02 433.90 113.17 432.78 C 108.00 426.52 103.24 419.93 99.01 413.00 C 97.63 410.80 96.63 408.38 96.08 405.85 Z" />
</g>
<g id="#e6e7e7ff">
<path fill="#e6e7e7" opacity="1.00" d=" M 129.82 442.43 C 128.19 441.20 127.97 437.64 129.96 436.70 C 130.16 438.61 130.14 440.53 129.82 442.43 Z" />
<path fill="#e6e7e7" opacity="1.00" d=" M 158.67 438.92 C 159.12 437.44 160.53 437.22 161.83 436.97 C 161.74 438.63 161.60 440.30 161.66 441.98 C 160.94 442.00 159.50 442.05 158.78 442.07 C 159.78 440.75 160.73 439.39 161.52 437.94 C 160.80 438.18 159.38 438.68 158.67 438.92 Z" />
<path fill="#e6e7e7" opacity="1.00" d=" M 162.50 438.45 C 163.20 437.96 163.91 437.48 164.63 437.02 C 166.07 438.30 168.10 438.13 169.61 437.08 C 169.55 438.65 169.53 440.23 169.54 441.81 C 169.22 441.82 168.58 441.84 168.26 441.85 C 168.35 441.14 168.53 439.74 168.62 439.03 C 168.07 439.03 166.97 439.03 166.42 439.02 C 166.33 439.74 166.13 441.17 166.03 441.88 C 165.36 441.85 164.00 441.79 163.33 441.76 C 163.12 440.93 162.71 439.27 162.50 438.45 M 164.35 438.34 C 163.52 439.63 163.73 440.43 164.99 440.76 C 165.82 439.47 165.60 438.66 164.35 438.34 Z" />
<path fill="#e6e7e7" opacity="1.00" d=" M 171.94 442.09 C 170.07 440.49 170.87 436.53 173.81 436.96 L 173.99 438.26 C 173.42 438.22 172.29 438.15 171.73 438.11 C 172.72 438.83 173.69 439.56 174.66 440.32 C 173.98 440.26 172.62 440.14 171.94 440.09 L 171.97 441.46 C 172.72 441.18 174.21 440.64 174.96 440.36 C 174.26 440.89 173.09 443.24 171.94 442.09 Z" />
<path fill="#e6e7e7" opacity="1.00" d=" M 131.11 438.41 C 132.74 438.40 134.37 438.39 136.01 438.37 C 135.91 439.73 135.82 441.10 135.44 442.43 C 135.35 441.66 135.15 440.12 135.05 439.35 L 134.00 439.38 C 133.99 440.06 133.97 441.41 133.96 442.09 L 133.06 442.18 C 133.05 441.44 133.02 439.98 133.00 439.25 L 131.89 439.30 C 131.83 440.09 131.72 441.68 131.66 442.47 C 130.27 441.51 131.17 439.75 131.11 438.41 Z" />
<path fill="#e6e7e7" opacity="1.00" d=" M 141.07 440.18 C 140.91 437.92 145.12 437.54 145.10 439.95 C 146.13 438.62 147.39 437.80 148.94 438.89 C 148.86 439.71 148.71 441.34 148.64 442.15 C 146.89 442.70 145.79 441.12 144.69 440.07 C 144.73 440.80 144.83 442.25 144.88 442.97 C 143.43 442.35 140.97 442.29 141.07 440.18 M 142.23 439.86 C 142.52 443.24 145.11 438.15 142.23 439.86 Z" />
<path fill="#e6e7e7" opacity="1.00" d=" M 111.38 442.27 C 111.07 440.88 111.26 439.65 112.60 439.00 C 112.60 439.98 112.59 441.94 112.59 442.92 C 113.80 441.99 114.72 440.80 115.73 439.69 C 115.27 440.93 114.80 442.17 114.33 443.41 C 114.84 444.18 115.35 444.96 115.86 445.74 C 115.22 449.22 116.29 452.86 115.22 456.26 C 115.15 453.79 115.05 451.32 114.86 448.86 C 114.28 450.35 113.72 451.85 113.26 453.39 C 112.62 451.03 111.61 448.81 110.40 446.70 L 111.42 445.92 C 112.04 446.02 113.29 446.21 113.91 446.31 C 114.00 445.82 114.19 444.84 114.28 444.35 C 111.52 444.26 108.76 444.19 106.00 444.38 C 105.69 442.89 105.39 441.40 105.18 439.89 C 105.88 441.02 106.54 442.17 107.17 443.35 C 107.29 442.34 107.52 440.33 107.64 439.32 C 108.17 439.50 109.24 439.86 109.77 440.04 C 109.51 440.62 108.98 441.77 108.72 442.35 C 109.38 442.33 110.71 442.29 111.38 442.27 Z" />
<path fill="#e6e7e7" opacity="1.00" d=" M 128.95 443.91 C 131.61 447.24 129.39 452.02 130.96 455.89 C 130.09 455.22 128.51 454.84 128.58 453.49 C 128.39 450.30 128.29 447.05 128.95 443.91 Z" />
<path fill="#e6e7e7" opacity="1.00" d=" M 132.46 444.52 C 134.04 443.62 133.97 446.02 134.00 446.98 C 134.09 449.87 133.52 452.95 135.16 455.55 C 134.48 455.31 133.13 454.84 132.45 454.60 C 132.10 451.26 132.09 447.86 132.46 444.52 Z" />
<path fill="#e6e7e7" opacity="1.00" d=" M 118.62 455.38 C 119.83 451.49 120.75 447.38 123.02 443.93 C 125.42 447.29 126.31 451.43 127.50 455.31 C 126.02 455.14 125.11 454.25 124.79 452.65 C 123.64 452.65 122.50 452.66 121.36 452.68 C 121.05 454.21 120.14 455.11 118.62 455.38 M 122.36 448.43 C 120.95 449.41 122.25 452.26 123.87 450.95 C 125.08 450.01 123.80 447.25 122.36 448.43 Z" />
<path fill="#e6e7e7" opacity="1.00" d=" M 106.01 445.87 C 106.79 445.77 108.34 445.56 109.11 445.46 C 109.31 445.65 109.72 446.03 109.92 446.22 C 108.81 448.87 107.57 451.47 106.68 454.21 C 105.70 451.53 106.06 448.65 106.01 445.87 Z" />
<path fill="#e6e7e7" opacity="1.00" d=" M 148.54 447.71 C 148.49 443.97 151.03 447.58 152.20 448.69 C 149.03 448.65 149.46 454.34 152.28 454.40 C 151.86 456.29 150.15 455.24 148.90 455.07 C 148.60 452.66 148.58 450.22 148.64 447.81 C 147.82 448.36 146.19 449.46 145.37 450.01 C 144.89 451.88 146.37 455.42 143.53 455.64 C 143.53 454.16 143.56 452.68 143.60 451.21 C 141.46 451.79 139.26 451.94 137.06 452.06 C 138.03 454.32 140.39 453.99 142.38 453.71 C 142.18 455.80 139.52 455.61 138.06 455.23 C 134.22 454.26 134.94 447.47 139.08 447.73 C 141.29 447.51 142.06 449.94 143.38 451.21 C 143.45 450.37 143.58 448.69 143.65 447.85 C 145.28 448.16 146.92 447.94 148.54 447.71 M 138.05 449.35 C 136.81 450.77 139.53 451.83 140.45 450.79 C 141.49 449.43 138.95 448.26 138.05 449.35 Z" />
<path fill="#e6e7e7" opacity="1.00" d=" M 161.34 447.68 C 163.15 447.87 165.08 447.58 166.79 448.28 C 168.39 449.74 167.99 452.20 167.99 454.15 C 168.61 455.11 166.27 456.46 166.45 455.07 C 165.79 453.23 167.12 450.16 165.07 449.21 C 160.82 448.71 165.01 455.72 161.46 455.55 C 161.07 452.94 161.25 450.30 161.34 447.68 Z" />
<path fill="#e6e7e7" opacity="1.00" d=" M 169.31 450.03 C 169.53 447.21 173.76 446.94 174.85 449.30 C 173.49 449.23 172.12 449.12 170.76 449.06 C 171.25 451.41 175.51 451.11 174.48 453.92 C 175.05 454.05 176.18 454.32 176.75 454.45 C 177.58 453.66 177.84 451.55 179.38 452.17 L 179.96 452.57 C 179.73 452.91 179.28 453.58 179.06 453.91 C 179.15 454.18 179.33 454.72 179.42 455.00 L 179.73 455.90 C 179.23 455.46 178.23 454.59 177.73 454.16 C 177.18 454.55 176.08 455.35 175.53 455.75 C 174.95 455.41 174.37 455.08 173.79 454.77 C 172.14 455.98 169.57 455.74 168.87 453.66 C 170.34 453.81 171.81 453.94 173.28 454.05 C 172.69 451.96 169.68 452.12 169.31 450.03 Z" />
<path fill="#e6e7e7" opacity="1.00" d=" M 154.25 448.33 C 156.42 446.85 159.97 448.17 160.10 450.96 C 160.81 453.78 157.71 456.39 155.05 455.24 C 152.18 454.34 151.82 449.88 154.25 448.33 M 155.35 449.62 C 153.60 450.85 154.55 454.57 156.94 453.86 C 159.67 453.14 158.06 447.67 155.35 449.62 Z" />
<path fill="#e6e7e7" opacity="1.00" d=" M 107.50 455.81 C 108.45 454.01 109.34 452.19 110.20 450.35 C 110.99 452.36 111.86 454.43 113.73 455.69 L 113.86 455.82 C 111.74 455.96 109.61 456.09 107.50 455.81 Z" />
</g>
<g id="#ec716aff">
<path fill="#ec716a" opacity="1.00" d=" M 150.81 438.99 C 151.84 437.02 153.93 436.81 155.93 436.96 C 156.79 438.67 157.15 440.48 156.00 442.17 C 154.72 442.12 153.44 442.07 152.17 442.03 C 151.72 441.01 151.26 440.00 150.81 438.99 M 154.38 439.10 C 154.49 442.38 157.45 437.67 154.38 439.10 Z" />
</g>
<g id="#e9a8a5ff">
<path fill="#e9a8a5" opacity="1.00" d=" M 137.60 437.90 C 140.49 437.32 140.66 440.15 140.64 442.23 C 139.64 442.20 137.65 442.14 136.65 442.11 C 136.59 441.40 136.46 439.97 136.40 439.26 C 137.02 439.38 138.28 439.62 138.90 439.74 C 138.58 439.28 137.93 438.36 137.60 437.90 Z" />
</g>
<g id="#f12115ff">
<path fill="#f12115" opacity="1.00" d=" M 154.38 439.10 C 157.45 437.67 154.49 442.38 154.38 439.10 Z" />
</g>
<g id="#ee5047ff">
<path fill="#ee5047" opacity="1.00" d=" M 201.69 439.46 C 204.21 441.52 206.67 444.31 206.55 447.77 C 206.01 451.73 203.48 455.03 200.69 457.74 C 200.68 456.36 200.68 455.00 200.69 453.64 C 202.13 451.97 203.75 450.18 203.78 447.84 C 204.18 445.68 202.39 444.08 201.48 442.35 C 201.53 441.63 201.64 440.19 201.69 439.46 Z" />
</g>
<g id="#e9aaa6ff">
<path fill="#e9aaa6" opacity="1.00" d=" M 142.54 443.22 C 143.08 443.79 143.08 443.79 142.54 443.22 Z" />
<path fill="#e9aaa6" opacity="1.00" d=" M 182.13 452.28 C 182.81 452.23 184.16 452.13 184.84 452.08 C 184.65 452.55 184.29 453.49 184.10 453.96 C 183.64 453.68 182.71 453.12 182.24 452.84 L 182.13 452.28 Z" />
</g>
<g id="#ed1f13ff">
<path fill="#ed1f13" opacity="1.00" d=" M 200.69 453.64 C 200.49 449.86 200.72 446.06 201.48 442.35 C 202.39 444.08 204.18 445.68 203.78 447.84 C 203.75 450.18 202.13 451.97 200.69 453.64 Z" />
</g>
<g id="#ec7e77ff">
<path fill="#ec7e77" opacity="1.00" d=" M 106.00 444.38 C 108.76 444.19 111.52 444.26 114.28 444.35 C 114.19 444.84 114.00 445.82 113.91 446.31 C 113.29 446.21 112.04 446.02 111.42 445.92 L 110.40 446.70 L 109.92 446.22 C 109.72 446.03 109.31 445.65 109.11 445.46 C 108.34 445.56 106.79 445.77 106.01 445.87 C 106.06 448.65 105.70 451.53 106.68 454.21 C 106.88 454.61 107.30 455.41 107.50 455.81 C 109.61 456.09 111.74 455.96 113.86 455.82 L 113.73 455.69 C 113.61 455.12 113.38 453.96 113.26 453.39 C 113.72 451.85 114.28 450.35 114.86 448.86 C 115.05 451.32 115.15 453.79 115.22 456.26 L 115.24 456.84 C 112.26 457.87 109.03 458.66 106.10 457.00 C 103.49 456.30 104.50 452.98 104.18 451.00 C 104.41 448.83 103.46 445.46 106.00 444.38 Z" />
</g>
<g id="#ed6d65ff">
<path fill="#ed6d65" opacity="1.00" d=" M 138.05 449.35 C 138.95 448.26 141.49 449.43 140.45 450.79 C 139.53 451.83 136.81 450.77 138.05 449.35 Z" />
</g>
<g id="#ec7770ff">
<path fill="#ec7770" opacity="1.00" d=" M 179.38 452.17 C 180.07 452.20 181.44 452.25 182.13 452.28 L 182.24 452.84 C 182.51 453.21 183.03 453.95 183.30 454.32 L 184.10 453.96 C 184.29 453.49 184.65 452.55 184.84 452.08 L 185.44 452.31 C 186.75 452.71 187.80 453.58 188.66 454.64 C 185.65 455.46 182.47 455.78 179.42 455.00 C 179.33 454.72 179.15 454.18 179.06 453.91 C 180.69 454.19 180.99 453.74 179.96 452.57 L 179.38 452.17 Z" />
</g>
<g id="#e9b1aeff">
<path fill="#e9b1ae" opacity="1.00" d=" M 185.44 452.31 C 187.23 451.69 189.12 451.73 190.98 451.87 C 190.96 452.85 190.91 454.80 190.89 455.78 C 190.18 454.86 189.63 453.85 189.25 452.77 C 189.21 453.36 189.15 454.55 189.12 455.14 L 188.66 454.64 C 187.80 453.58 186.75 452.71 185.44 452.31 Z" />
</g>
<g id="#ef453aff">
<path fill="#ef453a" opacity="1.00" d=" M 182.24 452.84 C 182.71 453.12 183.64 453.68 184.10 453.96 L 183.30 454.32 C 183.03 453.95 182.51 453.21 182.24 452.84 Z" />
</g>
<g id="#ef4c42ff">
<path fill="#ef4c42" opacity="1.00" d=" M 196.36 461.03 C 196.31 459.81 197.18 458.75 198.30 458.39 C 199.31 459.51 197.78 461.87 196.36 461.03 Z" />
</g>
<g id="#efb255ff">
<path fill="#efb255" opacity="1.00" d=" M 251.75 489.10 C 253.67 489.04 255.59 488.98 257.52 488.96 C 255.98 490.46 254.37 491.90 252.61 493.14 L 252.31 493.34 C 252.20 492.53 251.99 490.91 251.88 490.10 L 251.75 489.10 Z" />
</g>
</svg>
