<?xml version="1.0" encoding="UTF-8" ?>
<!DOCTYPE svg PUBLIC "-//W3C//DTD SVG 1.1//EN" "http://www.w3.org/Graphics/SVG/1.1/DTD/svg11.dtd">
<svg width="279pt" height="547pt" viewBox="0 0 279 547" version="1.1" xmlns="http://www.w3.org/2000/svg">
<g id="#ffffffff">
<path fill="#ffffff" opacity="1.00" d=" M 0.00 0.00 L 279.00 0.00 L 279.00 547.00 L 0.00 547.00 L 0.00 0.00 M 121.95 14.94 C 110.03 22.01 101.19 33.72 97.09 46.91 C 90.69 65.98 92.10 86.75 96.93 105.99 C 100.23 108.76 100.84 113.69 104.74 115.97 C 103.44 120.60 101.83 125.20 99.32 129.32 C 97.89 131.96 94.44 132.96 93.58 135.95 C 92.49 140.14 92.83 144.72 94.30 148.79 C 95.39 151.31 97.85 154.13 96.01 156.93 C 93.98 159.63 91.61 162.12 90.04 165.14 C 85.80 171.81 88.90 180.14 91.60 186.82 C 83.24 187.91 74.85 189.48 67.12 192.98 C 41.45 204.33 23.19 227.72 11.57 252.63 C 6.02 271.16 6.36 290.75 6.19 309.91 C 5.22 319.93 3.73 329.90 3.12 339.96 C 2.91 344.48 2.63 349.18 4.31 353.49 C 6.91 362.41 9.17 371.65 8.66 381.02 C 8.41 387.02 9.17 393.01 8.88 399.01 C 7.94 408.60 14.43 416.57 16.33 425.64 C 18.94 438.63 19.15 452.35 24.75 464.59 C 26.71 469.05 30.49 472.26 33.48 476.00 C 39.85 484.79 42.39 495.68 48.25 504.75 C 53.15 510.19 59.58 514.34 63.13 520.95 C 67.26 527.26 64.69 535.00 65.54 541.97 C 65.68 543.08 66.68 544.69 68.01 544.07 C 80.44 539.34 93.35 533.16 107.00 535.00 C 105.84 521.57 103.50 508.22 100.45 495.10 C 98.93 488.65 100.87 481.71 98.32 475.49 C 96.03 471.89 93.08 468.05 94.20 463.48 C 102.13 463.00 110.09 462.63 118.04 463.30 C 128.98 464.42 139.98 463.71 150.95 463.92 C 164.29 464.35 177.64 464.06 190.99 463.90 C 201.99 463.80 213.23 464.98 224.00 462.07 C 227.57 461.14 231.32 460.19 234.10 457.59 C 235.63 465.28 237.10 473.04 237.31 480.88 C 236.12 488.01 238.29 495.00 239.87 501.87 C 240.05 508.89 242.71 515.48 245.30 521.91 C 245.67 523.27 246.63 524.18 247.98 524.63 C 250.75 521.49 254.69 519.36 258.91 519.14 C 263.96 518.45 268.88 520.47 273.90 520.29 C 276.00 520.00 275.58 517.50 275.14 516.10 C 273.08 508.44 270.67 500.84 269.65 492.96 C 269.27 484.95 269.60 476.92 269.86 468.91 C 269.94 467.14 268.52 465.76 268.41 464.03 C 268.63 461.90 270.07 460.12 270.29 458.01 C 270.23 455.59 267.97 454.52 266.32 453.25 C 267.34 451.29 268.98 449.36 268.60 447.01 C 267.28 431.03 267.04 414.97 267.74 398.95 C 268.52 387.31 269.18 375.58 267.88 363.95 C 266.02 343.60 260.24 323.93 255.89 304.03 C 253.67 293.85 253.57 283.36 251.47 273.15 C 249.15 261.46 246.14 249.71 240.54 239.11 C 238.67 236.10 236.87 232.43 233.32 231.16 C 228.35 225.52 222.14 221.23 215.98 217.01 C 208.08 211.79 199.96 206.86 191.58 202.43 C 190.59 201.77 189.23 201.48 188.62 200.39 C 188.50 192.29 188.51 184.19 188.37 176.09 C 188.56 174.92 187.63 172.86 186.24 174.10 C 183.28 177.48 180.22 180.81 177.48 184.38 C 176.65 191.51 176.76 198.74 176.04 205.89 C 175.51 205.97 174.43 206.14 173.89 206.22 C 173.43 198.83 173.19 191.43 172.66 184.05 C 172.73 182.68 171.28 182.24 170.36 181.62 C 154.07 172.35 137.86 162.93 121.56 153.67 C 119.49 152.16 117.00 153.78 115.34 155.13 C 110.62 159.47 109.03 165.93 107.35 171.87 C 106.31 175.26 106.57 179.30 103.81 181.93 C 99.43 175.54 100.64 167.31 100.10 159.99 C 100.38 152.34 98.21 144.85 98.56 137.22 C 103.93 138.63 107.15 144.30 112.63 145.70 C 110.02 134.03 113.18 122.05 117.25 111.10 C 119.03 105.73 123.41 101.61 124.58 96.01 C 126.29 88.62 125.65 80.98 125.20 73.48 C 140.39 67.60 156.77 64.71 173.05 65.02 C 185.05 65.34 197.75 68.09 206.90 76.35 C 208.68 79.95 208.84 84.06 208.63 88.00 C 207.82 106.70 207.40 125.44 205.83 144.10 C 202.59 149.01 196.61 151.75 193.81 157.01 C 194.67 160.16 196.65 163.72 200.01 164.60 C 205.16 162.92 209.54 159.00 212.61 154.58 C 215.17 151.28 212.05 147.58 211.79 144.09 C 210.22 130.51 211.79 116.83 213.24 103.31 C 218.35 99.15 223.49 94.73 226.94 89.04 C 229.88 84.60 234.67 81.04 235.46 75.47 C 237.23 67.54 235.42 59.13 230.61 52.60 C 228.54 42.92 224.62 33.45 218.14 25.87 C 208.43 14.11 193.81 7.30 178.94 4.94 C 159.58 1.19 138.84 4.70 121.95 14.94 Z" />
<path fill="#ffffff" opacity="1.00" d=" M 102.18 84.15 C 105.23 82.64 108.64 81.21 112.10 82.07 C 115.64 83.01 117.49 87.62 115.75 90.79 C 112.12 98.63 107.94 106.24 105.09 114.42 L 104.32 114.87 C 102.17 108.38 99.32 101.92 99.15 94.99 C 99.58 91.25 100.47 87.52 102.18 84.15 Z" />
<path fill="#ffffff" opacity="1.00" d=" M 128.64 437.42 C 128.92 437.36 129.47 437.23 129.75 437.16 L 129.80 437.54 C 129.82 439.06 129.81 440.59 129.77 442.12 L 128.86 442.15 C 128.80 440.57 128.73 438.98 128.64 437.42 Z" />
<path fill="#ffffff" opacity="1.00" d=" M 160.11 438.14 C 160.20 437.87 160.38 437.33 160.47 437.06 C 160.98 437.28 162.02 437.70 162.53 437.91 C 161.68 439.15 161.36 440.49 161.57 441.93 C 160.88 441.90 159.51 441.84 158.82 441.82 C 159.67 440.83 160.53 439.85 161.36 438.85 C 161.05 438.67 160.42 438.32 160.11 438.14 Z" />
<path fill="#ffffff" opacity="1.00" d=" M 163.22 437.71 C 163.60 437.60 164.35 437.38 164.73 437.27 C 166.24 438.12 168.05 438.10 169.54 437.20 C 170.04 437.59 170.54 438.00 171.04 438.41 C 171.94 437.31 173.01 436.98 174.26 437.44 C 173.60 437.68 172.28 438.16 171.62 438.40 C 172.16 438.44 173.23 438.53 173.77 438.58 L 173.89 439.82 C 173.43 439.80 172.49 439.78 172.03 439.76 L 171.84 441.08 C 172.61 440.87 174.16 440.44 174.93 440.23 C 174.30 442.83 169.34 442.08 171.35 438.94 C 170.86 438.85 169.87 438.68 169.38 438.59 C 169.41 439.41 169.49 441.04 169.52 441.86 C 169.22 441.85 168.62 441.82 168.32 441.81 C 168.42 441.13 168.62 439.77 168.72 439.08 C 168.11 438.94 166.88 438.64 166.27 438.49 C 166.21 439.33 166.10 440.99 166.04 441.82 C 165.32 441.78 163.88 441.68 163.16 441.63 C 163.18 440.32 163.20 439.01 163.22 437.71 M 164.40 438.30 C 164.31 438.75 164.12 439.66 164.03 440.11 C 165.06 442.75 166.51 437.77 164.40 438.30 Z" />
<path fill="#ffffff" opacity="1.00" d=" M 105.19 439.89 C 105.84 441.10 106.49 442.33 107.13 443.56 C 106.87 441.39 107.55 439.98 109.16 439.31 C 109.11 440.08 109.03 441.62 108.98 442.39 C 109.62 442.40 110.91 442.42 111.55 442.43 C 110.88 440.79 111.28 439.75 112.75 439.31 C 112.67 440.10 112.49 441.69 112.41 442.49 C 112.84 442.82 113.70 443.49 114.13 443.82 C 112.46 443.90 110.80 444.02 109.13 444.11 C 108.32 444.14 106.68 444.19 105.87 444.21 C 105.66 442.76 105.42 441.32 105.19 439.89 Z" />
<path fill="#ffffff" opacity="1.00" d=" M 128.66 444.68 C 128.87 444.62 129.30 444.49 129.51 444.42 C 131.15 447.90 129.47 452.13 130.93 455.80 C 130.10 455.36 129.36 454.82 128.69 454.19 C 128.42 451.03 128.49 447.84 128.66 444.68 Z" />
<path fill="#ffffff" opacity="1.00" d=" M 132.48 444.27 C 132.81 444.45 133.47 444.79 133.80 444.96 C 134.36 448.43 132.88 452.37 135.18 455.41 C 134.47 455.20 133.06 454.78 132.35 454.58 C 132.34 451.14 132.23 447.70 132.48 444.27 Z" />
<path fill="#ffffff" opacity="1.00" d=" M 169.39 450.01 C 169.56 447.32 173.79 446.93 174.73 449.33 C 173.46 449.18 172.19 449.00 170.92 448.86 C 170.85 450.80 172.70 451.17 174.08 451.87 C 174.53 454.49 177.27 454.29 178.42 452.30 C 180.79 452.58 183.19 452.39 185.57 452.58 C 185.77 452.67 186.16 452.84 186.35 452.93 C 186.47 453.33 186.70 454.14 186.82 454.55 C 185.40 454.07 184.18 454.73 183.02 455.49 C 181.75 453.75 180.19 454.56 178.85 455.71 L 179.33 455.12 C 178.34 454.90 176.35 454.46 175.35 454.24 L 175.30 456.28 C 174.92 455.64 174.53 455.01 174.13 454.39 C 172.72 455.95 169.44 455.95 168.94 453.58 C 170.33 454.02 171.77 454.21 173.24 454.12 C 173.10 451.66 169.57 452.27 169.39 450.01 M 178.96 453.38 L 178.92 454.04 C 181.29 455.33 181.27 451.64 178.96 453.38 M 182.32 453.37 C 182.69 456.66 185.30 451.76 182.32 453.37 Z" />
<path fill="#ffffff" opacity="1.00" d=" M 161.26 448.15 C 163.09 448.16 164.94 448.05 166.77 448.28 C 168.44 450.20 168.08 453.29 167.50 455.60 C 165.11 455.36 166.90 451.17 166.24 449.48 C 162.20 447.88 162.74 452.63 162.89 455.17 C 162.54 455.28 161.83 455.52 161.48 455.64 C 161.35 453.14 161.31 450.64 161.26 448.15 Z" />
<path fill="#ffffff" opacity="1.00" d=" M 109.93 450.37 C 111.03 452.08 111.33 454.92 113.77 455.21 C 112.61 455.53 111.46 455.88 110.33 456.25 C 109.45 456.00 108.58 455.74 107.72 455.48 C 108.71 453.89 109.54 452.20 109.93 450.37 Z" />
</g>
<g id="#000000ff">
<path fill="#000000" opacity="1.00" d=" M 121.95 14.94 C 138.84 4.70 159.58 1.19 178.94 4.94 C 193.81 7.30 208.43 14.11 218.14 25.87 C 224.62 33.45 228.54 42.92 230.61 52.60 C 235.42 59.13 237.23 67.54 235.46 75.47 C 234.67 81.04 229.88 84.60 226.94 89.04 C 223.49 94.73 218.35 99.15 213.24 103.31 C 211.79 116.83 210.22 130.51 211.79 144.09 C 212.05 147.58 215.17 151.28 212.61 154.58 C 209.54 159.00 205.16 162.92 200.01 164.60 C 196.65 163.72 194.67 160.16 193.81 157.01 C 196.61 151.75 202.59 149.01 205.83 144.10 C 207.40 125.44 207.82 106.70 208.63 88.00 C 208.84 84.06 208.68 79.95 206.90 76.35 C 197.75 68.09 185.05 65.34 173.05 65.02 C 156.77 64.71 140.39 67.60 125.20 73.48 C 125.65 80.98 126.29 88.62 124.58 96.01 C 123.41 101.61 119.03 105.73 117.25 111.10 C 113.18 122.05 110.02 134.03 112.63 145.70 C 107.15 144.30 103.93 138.63 98.56 137.22 C 98.21 144.85 100.38 152.34 100.10 159.99 C 100.64 167.31 99.43 175.54 103.81 181.93 C 106.57 179.30 106.31 175.26 107.35 171.87 C 109.03 165.93 110.62 159.47 115.34 155.13 C 117.00 153.78 119.49 152.16 121.56 153.67 C 137.86 162.93 154.07 172.35 170.36 181.62 C 171.28 182.24 172.73 182.68 172.66 184.05 C 173.19 191.43 173.43 198.83 173.89 206.22 C 174.43 206.14 175.51 205.97 176.04 205.89 C 176.76 198.74 176.65 191.51 177.48 184.38 C 180.22 180.81 183.28 177.48 186.24 174.10 C 187.63 172.86 188.56 174.92 188.37 176.09 C 188.51 184.19 188.50 192.29 188.62 200.39 C 189.23 201.48 190.59 201.77 191.58 202.43 C 199.96 206.86 208.08 211.79 215.98 217.01 C 222.14 221.23 228.35 225.52 233.32 231.16 C 236.87 232.43 238.67 236.10 240.54 239.11 C 246.14 249.71 249.15 261.46 251.47 273.15 C 253.57 283.36 253.67 293.85 255.89 304.03 C 260.24 323.93 266.02 343.60 267.88 363.95 C 269.18 375.58 268.52 387.31 267.74 398.95 C 267.04 414.97 267.28 431.03 268.60 447.01 C 268.98 449.36 267.34 451.29 266.32 453.25 C 267.97 454.52 270.23 455.59 270.29 458.01 C 270.07 460.12 268.63 461.90 268.41 464.03 C 268.52 465.76 269.94 467.14 269.86 468.91 C 269.60 476.92 269.27 484.95 269.65 492.96 C 270.67 500.84 273.08 508.44 275.14 516.10 C 275.58 517.50 276.00 520.00 273.90 520.29 C 268.88 520.47 263.96 518.45 258.91 519.14 C 254.69 519.36 250.75 521.49 247.98 524.63 C 246.63 524.18 245.67 523.27 245.30 521.91 C 242.71 515.48 240.05 508.89 239.87 501.87 C 238.29 495.00 236.12 488.01 237.31 480.88 C 237.10 473.04 235.63 465.28 234.10 457.59 C 231.32 460.19 227.57 461.14 224.00 462.07 C 213.23 464.98 201.99 463.80 190.99 463.90 C 177.64 464.06 164.29 464.35 150.95 463.92 C 139.98 463.71 128.98 464.42 118.04 463.30 C 110.09 462.63 102.13 463.00 94.20 463.48 C 93.08 468.05 96.03 471.89 98.32 475.49 C 100.87 481.71 98.93 488.65 100.45 495.10 C 103.50 508.22 105.84 521.57 107.00 535.00 C 93.35 533.16 80.44 539.34 68.01 544.07 C 66.68 544.69 65.68 543.08 65.54 541.97 C 64.69 535.00 67.26 527.26 63.13 520.95 C 59.58 514.34 53.15 510.19 48.25 504.75 C 42.39 495.68 39.85 484.79 33.48 476.00 C 30.49 472.26 26.71 469.05 24.75 464.59 C 19.15 452.35 18.94 438.63 16.33 425.64 C 14.43 416.57 7.94 408.60 8.88 399.01 C 9.17 393.01 8.41 387.02 8.66 381.02 C 9.17 371.65 6.91 362.41 4.31 353.49 C 2.63 349.18 2.91 344.48 3.12 339.96 C 3.73 329.90 5.22 319.93 6.19 309.91 C 6.36 290.75 6.02 271.16 11.57 252.63 C 23.19 227.72 41.45 204.33 67.12 192.98 C 74.85 189.48 83.24 187.91 91.60 186.82 C 88.90 180.14 85.80 171.81 90.04 165.14 C 91.61 162.12 93.98 159.63 96.01 156.93 C 97.85 154.13 95.39 151.31 94.30 148.79 C 92.83 144.72 92.49 140.14 93.58 135.95 C 94.44 132.96 97.89 131.96 99.32 129.32 C 101.83 125.20 103.44 120.60 104.74 115.97 C 100.84 113.69 100.23 108.76 96.93 105.99 C 92.10 86.75 90.69 65.98 97.09 46.91 C 101.19 33.72 110.03 22.01 121.95 14.94 M 157.30 5.41 L 157.25 5.67 C 150.95 6.25 144.70 7.54 138.69 9.52 C 136.23 10.41 133.54 10.87 131.35 12.37 C 127.26 13.95 123.23 16.00 119.90 18.88 C 112.33 23.79 106.14 31.08 102.65 39.41 C 102.40 39.77 101.91 40.49 101.66 40.85 C 98.11 48.53 96.22 56.85 95.39 65.25 C 94.69 73.13 94.97 81.05 95.72 88.91 C 97.57 82.38 101.39 76.60 106.37 72.03 C 110.75 67.74 115.80 64.20 121.00 60.98 C 126.01 57.95 131.59 56.20 137.00 54.06 C 143.11 50.27 148.94 45.90 155.88 43.69 C 161.87 41.48 168.07 39.89 174.37 38.91 C 180.48 38.15 186.65 37.91 192.80 38.28 C 199.19 38.98 205.55 40.06 211.72 41.87 C 217.11 43.68 222.54 45.90 226.84 49.73 C 226.45 45.97 224.78 42.55 223.55 39.03 C 220.39 31.62 215.14 25.48 209.40 19.94 C 208.85 19.67 207.74 19.13 207.18 18.86 C 203.09 15.23 198.01 12.89 192.96 10.91 C 187.37 8.69 181.46 7.41 175.55 6.35 C 169.50 5.58 163.40 5.17 157.30 5.41 M 145.74 50.92 C 166.92 46.36 190.48 46.04 209.76 57.21 C 218.86 62.49 228.15 70.73 228.44 82.05 C 236.88 72.39 233.34 55.83 222.65 49.27 C 211.80 42.39 198.61 40.32 185.97 40.15 C 172.02 40.39 157.60 43.35 145.74 50.92 M 102.18 84.15 C 100.47 87.52 99.58 91.25 99.15 94.99 C 99.32 101.92 102.17 108.38 104.32 114.87 L 105.09 114.42 C 107.94 106.24 112.12 98.63 115.75 90.79 C 117.49 87.62 115.64 83.01 112.10 82.07 C 108.64 81.21 105.23 82.64 102.18 84.15 M 110.72 168.42 C 108.73 173.30 109.34 179.35 105.39 183.29 C 110.10 189.97 116.27 195.66 120.06 202.99 C 121.57 205.65 120.20 209.82 123.41 211.40 C 127.03 212.15 130.78 211.87 134.44 212.36 C 135.63 213.01 136.01 214.07 135.61 215.42 C 131.08 218.58 125.63 219.52 120.24 219.43 L 119.91 219.34 C 115.38 215.71 117.43 207.71 111.62 205.30 C 104.29 201.28 97.62 195.91 92.96 188.90 L 91.60 188.64 C 87.58 190.28 83.18 190.45 79.00 191.48 C 71.30 193.54 63.84 196.64 57.16 201.01 C 49.27 205.72 42.52 212.01 36.23 218.64 L 36.54 218.24 C 33.46 222.22 29.69 225.79 27.46 230.35 C 27.23 230.45 26.77 230.64 26.54 230.74 C 26.50 231.02 26.43 231.57 26.39 231.85 C 24.44 233.54 23.27 235.90 22.14 238.17 C 23.52 237.02 25.17 235.97 26.06 234.38 C 32.01 229.71 38.10 225.22 44.62 221.36 C 46.32 220.99 47.86 220.14 49.45 219.48 L 48.64 219.12 C 51.91 218.39 55.25 218.63 58.39 219.79 C 60.10 222.75 63.78 223.69 66.34 225.77 C 78.84 234.47 91.09 243.78 101.50 254.95 C 102.41 256.19 103.41 257.36 104.37 258.56 L 104.74 258.57 C 105.67 260.97 107.49 263.43 106.67 266.14 C 105.82 269.41 104.95 272.70 104.77 276.09 C 104.08 284.46 103.27 293.34 106.17 301.34 C 105.99 304.56 106.38 307.85 106.19 311.11 C 105.62 317.11 104.65 323.06 103.86 329.03 C 102.07 335.22 102.90 341.91 100.62 347.95 C 98.22 351.43 95.28 354.49 91.86 357.00 C 90.27 358.41 87.69 359.51 87.72 361.98 C 88.37 367.99 93.12 372.82 93.15 378.98 C 93.38 382.32 92.08 385.46 90.98 388.54 C 89.04 391.77 86.87 394.88 84.17 397.54 C 80.82 401.11 84.63 405.06 87.21 407.63 L 87.21 408.01 C 90.46 411.47 92.88 415.63 94.62 420.02 C 96.58 425.66 96.72 431.73 96.75 437.63 C 96.60 445.48 95.28 453.23 94.39 461.00 C 99.92 460.34 105.49 460.33 111.04 459.98 L 110.58 459.59 L 110.88 459.77 C 126.32 462.07 142.17 460.89 157.79 461.37 C 170.65 461.70 183.52 461.33 196.38 461.01 C 197.83 461.86 199.30 459.42 198.27 458.32 C 198.39 452.25 198.14 446.13 199.45 440.16 C 199.45 439.67 199.45 438.70 199.45 438.22 C 200.47 424.91 196.58 412.00 193.54 399.21 L 193.37 399.20 C 191.67 387.21 190.15 375.19 188.93 363.13 C 186.90 343.78 185.17 324.37 184.63 304.91 C 184.64 298.61 184.83 292.30 184.19 286.02 C 183.52 276.68 182.35 267.38 181.21 258.09 C 179.69 246.33 177.99 234.60 176.14 222.89 C 175.31 218.25 174.71 213.58 173.89 208.94 C 173.35 208.77 172.29 208.45 171.75 208.29 C 171.63 207.82 171.39 206.88 171.27 206.41 C 171.15 199.44 170.59 192.49 170.31 185.53 C 170.44 184.12 168.90 183.68 167.98 183.05 C 151.95 173.86 135.91 164.69 119.93 155.41 C 114.27 157.14 112.54 163.49 110.72 168.42 M 179.58 185.42 C 179.07 192.69 178.68 199.98 178.34 207.26 C 177.82 207.62 176.77 208.33 176.25 208.69 C 177.13 213.40 177.87 218.15 178.57 222.89 L 179.07 223.05 L 179.41 224.12 C 178.38 225.83 178.29 229.69 180.14 230.62 C 180.95 240.45 182.70 250.22 184.02 260.00 C 184.06 260.69 184.14 262.07 184.18 262.76 L 184.40 262.81 C 185.68 276.54 187.70 290.27 187.13 304.10 C 187.38 320.06 188.81 335.97 190.21 351.86 L 190.45 351.90 C 191.71 367.73 193.45 383.60 195.99 399.28 C 198.94 412.82 203.29 426.58 201.46 440.60 C 201.46 441.07 201.46 442.01 201.46 442.49 C 200.71 446.10 200.50 449.81 200.67 453.50 C 200.67 454.89 200.68 456.28 200.71 457.68 C 200.98 458.86 200.16 460.74 201.61 461.33 C 208.32 461.13 215.18 461.56 221.70 459.62 C 223.43 459.45 225.10 458.97 226.82 458.72 L 226.40 458.61 C 228.69 457.74 231.48 457.19 232.88 454.97 C 235.65 450.95 235.91 445.87 235.89 441.16 L 235.64 441.16 C 234.88 430.98 235.87 420.81 236.91 410.69 C 237.15 409.08 237.13 407.45 237.19 405.84 C 238.61 391.44 240.12 377.04 241.14 362.61 L 241.31 362.64 C 241.63 357.11 243.21 351.76 243.80 346.28 C 245.94 337.76 246.68 328.89 247.40 320.13 C 248.26 305.86 247.42 291.42 245.25 277.36 C 243.23 266.69 241.09 255.92 237.04 245.81 C 236.47 243.52 235.50 241.36 234.73 239.13 C 233.75 235.87 232.08 232.80 229.53 230.49 C 224.95 225.64 219.33 221.96 213.88 218.18 C 205.51 212.71 196.94 207.50 187.95 203.11 C 187.51 202.84 186.62 202.31 186.17 202.04 C 185.59 194.04 185.85 186.00 185.75 177.99 C 183.68 180.45 181.29 182.69 179.58 185.42 M 45.98 224.09 C 39.84 227.73 33.77 231.64 28.54 236.53 C 20.88 243.22 13.15 251.43 11.91 261.98 C 9.13 274.86 8.81 288.11 8.64 301.24 C 9.12 314.04 6.43 326.63 5.67 339.37 C 5.42 343.74 5.20 348.24 6.61 352.47 C 8.96 359.78 10.22 367.38 11.22 374.98 C 11.40 377.77 11.33 380.58 11.08 383.37 C 11.02 389.56 12.12 395.74 11.47 401.93 C 11.01 405.19 12.66 408.16 13.79 411.10 C 16.41 417.18 18.95 423.40 19.93 430.00 C 21.98 441.60 22.54 453.79 27.69 464.58 C 29.12 467.07 30.69 469.84 33.16 471.37 C 36.05 475.10 38.77 478.95 41.00 483.13 C 41.37 484.23 41.92 485.27 42.44 486.32 L 42.93 486.62 C 44.18 491.68 46.57 496.39 48.82 501.07 C 50.64 505.03 54.32 507.54 57.53 510.30 C 61.45 514.50 65.60 518.87 67.31 524.50 C 68.59 530.06 67.62 535.79 67.90 541.43 C 70.77 540.26 73.65 539.12 76.52 537.96 C 85.44 534.79 94.73 531.65 104.34 532.34 C 103.35 523.88 102.17 515.42 100.44 507.09 C 99.95 503.33 98.62 499.76 97.99 496.03 C 96.97 490.75 97.63 485.35 97.03 480.04 C 96.86 476.60 94.16 474.20 92.68 471.30 L 92.09 471.39 C 90.99 467.32 91.55 463.09 91.94 458.97 C 93.19 448.93 94.68 438.81 93.73 428.67 L 92.79 428.54 L 93.43 428.51 C 93.17 424.21 91.85 419.96 89.32 416.45 C 86.85 411.86 82.59 408.52 80.25 403.87 C 77.92 397.81 84.89 394.56 86.86 389.71 C 87.43 388.81 87.94 387.90 88.40 386.95 L 88.77 386.93 C 89.80 383.32 91.04 379.35 89.42 375.71 C 87.58 370.60 83.79 365.68 84.75 359.98 C 85.40 358.95 86.11 357.98 86.75 356.96 C 91.04 353.89 95.37 350.55 97.95 345.84 C 99.46 337.91 99.95 329.83 101.52 321.90 C 102.20 316.38 103.14 310.86 103.13 305.28 C 102.78 301.12 101.17 297.18 101.08 292.99 C 100.90 284.61 100.62 276.10 102.84 267.93 C 103.69 265.85 103.79 263.50 102.37 261.64 C 96.97 253.50 89.14 247.44 81.77 241.18 C 77.88 238.19 74.12 234.96 69.90 232.42 L 69.92 232.14 C 64.96 228.70 60.01 225.20 54.64 222.41 C 51.73 220.73 48.58 222.78 45.98 224.09 M 242.33 252.94 C 248.55 273.88 251.42 295.87 250.30 317.70 C 250.26 318.98 250.23 320.26 250.21 321.55 C 249.94 325.21 249.31 328.85 249.26 332.54 C 248.47 336.70 247.91 340.92 247.15 345.09 C 246.08 351.10 244.71 357.05 243.89 363.09 C 243.82 363.91 243.68 365.54 243.61 366.35 C 243.30 368.28 243.08 370.22 242.91 372.17 C 242.92 372.74 242.94 373.87 242.95 374.44 L 242.99 375.01 C 242.27 378.05 242.00 381.18 241.94 384.30 C 241.26 389.40 240.96 394.54 240.48 399.66 C 239.60 409.51 238.51 419.35 237.92 429.22 C 237.76 436.66 239.38 444.07 238.24 451.49 C 236.81 454.10 235.55 457.03 236.87 459.97 C 237.93 465.31 238.69 470.72 239.42 476.12 C 240.03 480.32 238.94 484.52 239.30 488.73 L 239.46 488.71 C 239.68 491.14 240.14 493.56 240.74 495.93 C 241.45 498.26 242.21 500.60 242.41 503.04 C 242.66 509.30 245.37 515.09 247.62 520.83 C 250.18 518.61 253.23 517.08 256.55 516.40 C 261.96 515.85 267.34 516.63 272.67 517.45 C 270.21 506.73 266.37 496.09 266.98 484.91 C 266.96 479.58 267.14 474.26 267.29 468.94 C 266.83 467.29 266.10 465.72 265.68 464.07 C 265.85 461.60 267.24 459.42 267.48 456.97 L 266.24 457.08 C 265.30 455.81 263.65 454.73 263.77 452.97 C 264.44 450.96 266.21 449.24 265.82 446.98 C 265.44 440.09 264.88 433.20 264.77 426.30 C 264.60 416.79 264.58 407.26 265.17 397.77 C 265.67 388.72 266.31 379.65 265.66 370.60 C 265.16 361.66 263.95 352.76 262.05 344.01 C 260.57 335.55 258.45 327.22 256.34 318.89 C 254.05 309.34 251.88 299.74 250.80 289.96 C 249.48 274.62 246.17 259.35 240.28 245.10 C 240.40 247.84 241.54 250.36 242.33 252.94 Z" />
</g>
<g id="#f1190cff">
<path fill="#f1190c" opacity="1.00" d=" M 157.30 5.41 C 163.40 5.17 169.50 5.58 175.55 6.35 C 175.13 9.15 174.79 11.97 174.74 14.80 C 174.04 15.41 173.34 16.01 172.64 16.60 C 166.92 16.77 161.23 17.43 155.54 18.00 C 155.47 23.85 155.50 29.70 155.51 35.55 C 161.75 34.34 168.06 33.67 174.37 32.94 C 174.37 34.93 174.37 36.92 174.37 38.91 C 168.07 39.89 161.87 41.48 155.88 43.69 C 155.79 41.00 155.64 38.32 155.48 35.64 C 149.14 36.99 142.90 38.71 136.80 40.88 C 136.51 41.16 135.94 41.70 135.66 41.97 C 134.97 46.03 136.38 50.07 137.00 54.06 C 131.59 56.20 126.01 57.95 121.00 60.98 C 120.78 60.81 120.32 60.46 120.10 60.29 C 119.74 56.93 118.40 53.54 118.99 50.16 C 123.68 46.38 129.55 44.49 134.85 41.73 C 135.87 35.58 134.93 29.15 135.36 22.89 C 129.31 24.96 123.02 27.05 117.85 30.89 C 116.54 37.18 118.67 43.63 118.02 49.83 C 116.12 51.43 113.88 52.53 111.76 53.78 C 107.44 46.44 113.18 38.78 115.46 31.83 C 116.19 31.45 116.91 31.07 117.63 30.68 C 117.76 30.11 118.02 28.97 118.14 28.41 C 122.38 22.92 126.66 17.47 131.35 12.37 C 133.54 10.87 136.23 10.41 138.69 9.52 C 136.44 13.60 135.64 18.23 135.01 22.78 C 141.54 20.41 148.40 19.29 155.23 18.24 C 155.76 14.03 156.36 9.82 157.25 5.67 L 157.30 5.41 Z" />
<path fill="#f1190c" opacity="1.00" d=" M 192.96 10.91 C 198.01 12.89 203.09 15.23 207.18 18.86 C 202.43 18.04 197.63 17.64 192.85 17.00 C 192.88 14.97 192.92 12.94 192.96 10.91 Z" />
<path fill="#f1190c" opacity="1.00" d=" M 174.48 18.28 C 175.04 17.65 175.61 17.02 176.19 16.41 C 181.71 16.85 187.26 16.72 192.79 17.08 C 192.73 22.37 192.85 27.65 192.74 32.94 C 198.99 33.30 205.21 34.05 211.42 34.88 C 211.42 29.85 211.41 24.66 209.40 19.94 C 215.14 25.48 220.39 31.62 223.55 39.03 C 219.58 37.61 215.62 36.20 211.65 34.78 C 211.66 37.15 211.68 39.51 211.72 41.87 C 205.55 40.06 199.19 38.98 192.80 38.28 C 192.70 36.34 192.60 34.40 192.48 32.47 C 186.53 32.57 180.59 32.80 174.64 32.91 C 174.58 28.03 174.75 23.15 174.48 18.28 Z" />
<path fill="#f1190c" opacity="1.00" d=" M 145.74 50.92 C 157.60 43.35 172.02 40.39 185.97 40.15 C 198.61 40.32 211.80 42.39 222.65 49.27 C 233.34 55.83 236.88 72.39 228.44 82.05 C 228.15 70.73 218.86 62.49 209.76 57.21 C 190.48 46.04 166.92 46.36 145.74 50.92 Z" />
<path fill="#f1190c" opacity="1.00" d=" M 110.72 168.42 C 112.54 163.49 114.27 157.14 119.93 155.41 C 135.91 164.69 151.95 173.86 167.98 183.05 C 168.90 183.68 170.44 184.12 170.31 185.53 C 170.59 192.49 171.15 199.44 171.27 206.41 C 157.72 203.47 144.09 200.91 130.78 196.98 C 131.88 202.13 133.02 207.28 134.44 212.36 C 130.78 211.87 127.03 212.15 123.41 211.40 C 120.20 209.82 121.57 205.65 120.06 202.99 C 116.27 195.66 110.10 189.97 105.39 183.29 C 109.34 179.35 108.73 173.30 110.72 168.42 M 119.87 170.02 C 122.30 172.56 125.84 173.52 128.81 175.27 C 136.91 179.17 144.78 183.59 153.10 186.99 C 150.68 184.49 147.20 183.52 144.26 181.81 C 136.16 177.84 128.36 173.10 119.87 170.02 M 144.01 174.09 C 146.92 176.22 149.59 178.90 153.09 180.04 C 150.28 177.78 147.53 175.15 144.01 174.09 M 154.02 181.02 C 156.69 183.40 159.82 185.26 162.94 187.00 C 160.45 184.40 157.41 182.25 154.02 181.02 Z" />
<path fill="#f1190c" opacity="1.00" d=" M 179.58 185.42 C 181.29 182.69 183.68 180.45 185.75 177.99 C 185.85 186.00 185.59 194.04 186.17 202.04 C 184.07 204.32 181.07 205.99 179.92 208.99 C 182.35 213.03 186.28 216.03 189.75 219.19 C 189.29 214.29 189.02 209.36 189.41 204.45 C 195.08 210.18 200.47 216.26 205.02 222.93 C 206.58 225.10 207.42 227.77 209.39 229.62 C 216.28 232.46 223.63 234.15 230.44 237.26 C 230.62 237.34 230.97 237.49 231.15 237.57 C 232.29 241.62 233.50 245.73 233.40 249.98 C 233.25 258.16 234.17 266.30 234.28 274.47 C 228.83 272.99 223.45 271.25 217.97 269.88 C 216.61 256.37 215.20 242.30 208.82 230.09 C 199.83 227.29 190.38 226.06 181.25 223.70 C 180.70 223.54 179.61 223.21 179.07 223.05 L 178.57 222.89 C 177.87 218.15 177.13 213.40 176.25 208.69 C 176.77 208.33 177.82 207.62 178.34 207.26 C 178.68 199.98 179.07 192.69 179.58 185.42 Z" />
<path fill="#f1190c" opacity="1.00" d=" M 91.60 188.64 L 92.96 188.90 C 97.62 195.91 104.29 201.28 111.62 205.30 C 117.43 207.71 115.38 215.71 119.91 219.34 C 111.87 218.33 103.72 218.55 95.63 217.97 C 97.30 229.08 99.22 240.15 100.78 251.28 C 100.97 252.51 101.19 253.74 101.50 254.95 C 91.09 243.78 78.84 234.47 66.34 225.77 C 63.78 223.69 60.10 222.75 58.39 219.79 C 57.77 216.43 57.00 212.98 57.67 209.57 C 58.09 212.04 58.34 214.53 58.32 217.04 C 58.98 217.46 59.67 217.82 60.40 218.10 C 72.13 217.89 83.86 218.05 95.59 218.00 C 94.35 208.20 92.81 198.44 91.60 188.64 Z" />
<path fill="#f1190c" opacity="1.00" d=" M 36.23 218.64 C 42.52 212.01 49.27 205.72 57.16 201.01 C 57.31 203.09 57.45 205.17 57.58 207.26 C 55.15 208.84 54.24 211.65 53.08 214.14 C 52.21 216.26 50.27 217.62 48.64 219.12 C 44.18 219.08 39.77 220.06 35.31 219.81 L 36.23 218.64 Z" />
<path fill="#f1190c" opacity="1.00" d=" M 120.24 219.43 C 125.63 219.52 131.08 218.58 135.61 215.42 C 135.57 216.18 135.51 217.70 135.47 218.47 C 136.19 219.05 136.89 219.64 137.60 220.24 C 150.45 221.11 163.27 222.29 176.14 222.89 C 177.99 234.60 179.69 246.33 181.21 258.09 C 181.36 259.54 181.49 261.00 181.61 262.46 C 180.69 262.37 178.85 262.20 177.92 262.11 C 165.65 260.91 153.34 259.87 141.01 259.74 C 142.10 273.72 143.00 287.75 142.57 301.78 C 156.17 301.79 169.99 301.46 183.38 304.09 C 182.86 315.72 184.30 327.35 184.66 338.98 C 184.78 343.32 185.69 347.58 186.21 351.88 C 173.05 350.88 159.87 350.07 146.70 349.13 C 147.12 352.87 147.47 356.61 147.82 360.36 C 145.99 356.72 144.72 352.85 143.19 349.08 C 144.00 349.10 145.62 349.13 146.43 349.15 C 145.08 333.34 143.90 317.53 142.43 301.73 C 139.19 301.77 135.96 301.73 132.73 301.70 C 133.00 295.35 133.98 288.99 133.05 282.65 C 132.49 282.95 131.37 283.56 130.81 283.86 C 129.86 289.69 129.98 295.66 129.03 301.51 C 122.47 301.79 115.91 301.54 109.35 301.52 C 108.30 295.58 105.59 290.02 104.91 284.02 C 105.31 279.58 106.17 275.09 107.91 270.97 C 110.65 266.38 114.65 262.72 118.23 258.80 C 125.90 258.97 133.56 259.09 141.23 259.26 C 139.78 246.60 138.11 233.97 136.36 221.36 C 135.92 220.68 135.43 220.04 134.88 219.45 C 130.01 219.23 125.06 220.02 120.24 219.43 Z" />
<path fill="#f1190c" opacity="1.00" d=" M 69.90 232.42 C 74.12 234.96 77.88 238.19 81.77 241.18 C 89.14 247.44 96.97 253.50 102.37 261.64 C 103.79 263.50 103.69 265.85 102.84 267.93 C 91.11 266.94 79.38 265.90 67.66 264.88 C 66.77 277.61 66.42 290.38 65.31 303.10 C 65.98 303.49 66.68 303.81 67.41 304.08 C 79.32 304.35 91.22 304.95 103.13 305.28 C 103.14 310.86 102.20 316.38 101.52 321.90 C 99.95 329.83 99.46 337.91 97.95 345.84 C 87.66 344.74 77.27 345.14 66.95 344.27 C 66.43 344.42 65.39 344.72 64.87 344.88 L 64.54 345.61 L 64.39 345.91 C 64.32 345.47 64.17 344.59 64.10 344.15 C 65.34 331.18 64.90 318.00 65.78 304.97 C 64.82 304.48 63.94 303.67 62.81 303.70 C 49.43 302.97 36.06 302.07 22.68 301.26 C 23.66 288.25 24.69 275.25 25.58 262.24 C 39.60 263.00 53.60 264.05 67.62 264.83 C 68.39 254.03 69.17 243.23 69.90 232.42 Z" />
<path fill="#f1190c" opacity="1.00" d=" M 11.91 261.98 C 13.15 251.43 20.88 243.22 28.54 236.53 C 27.41 245.05 26.70 253.62 25.59 262.14 C 21.03 262.16 16.47 262.01 11.91 261.98 Z" />
<path fill="#f1190c" opacity="1.00" d=" M 242.33 252.94 C 241.54 250.36 240.40 247.84 240.28 245.10 C 246.17 259.35 249.48 274.62 250.80 289.96 C 251.88 299.74 254.05 309.34 256.34 318.89 C 254.32 318.50 252.31 318.10 250.30 317.70 C 251.42 295.87 248.55 273.88 242.33 252.94 Z" />
<path fill="#f1190c" opacity="1.00" d=" M 237.04 245.81 C 241.09 255.92 243.23 266.69 245.25 277.36 L 244.96 277.97 C 242.31 278.03 240.01 276.28 237.49 275.64 C 237.31 275.57 236.95 275.44 236.77 275.38 C 237.34 265.53 237.45 255.66 237.04 245.81 Z" />
<path fill="#f1190c" opacity="1.00" d=" M 184.40 262.81 C 195.64 265.12 206.78 267.86 218.06 269.98 C 219.30 283.41 220.65 296.84 221.30 310.32 C 209.90 308.29 198.52 306.20 187.13 304.10 C 187.70 290.27 185.68 276.54 184.40 262.81 Z" />
<path fill="#f1190c" opacity="1.00" d=" M 8.64 301.24 C 13.29 301.25 17.94 301.28 22.59 301.20 C 22.61 309.13 22.26 317.06 22.14 324.99 C 19.39 323.93 16.54 323.15 13.64 322.67 C 12.40 327.94 18.19 329.48 22.00 330.72 C 21.90 334.12 21.82 337.53 21.76 340.93 C 16.39 340.51 11.03 339.91 5.67 339.37 C 6.43 326.63 9.12 314.04 8.64 301.24 Z" />
<path fill="#f1190c" opacity="1.00" d=" M 220.92 310.32 C 230.14 312.46 238.75 316.40 247.40 320.13 C 246.68 328.89 245.94 337.76 243.80 346.28 C 240.34 350.87 239.10 356.80 240.12 362.44 C 234.10 359.56 227.71 357.62 221.30 355.79 C 221.66 368.77 222.06 381.75 222.61 394.72 C 221.18 397.04 219.65 399.29 218.01 401.47 C 216.63 401.35 215.25 401.24 213.88 401.13 C 207.90 400.61 201.93 400.10 195.99 399.28 C 193.45 383.60 191.71 367.73 190.45 351.90 C 200.65 353.32 210.87 354.60 221.09 355.93 C 221.64 348.30 222.71 340.69 222.51 333.03 C 222.50 325.43 220.85 317.93 220.92 310.32 Z" />
<path fill="#f1190c" opacity="1.00" d=" M 21.76 341.04 C 27.31 341.42 32.87 341.76 38.41 342.29 C 38.78 342.32 39.51 342.38 39.88 342.41 C 42.91 345.95 46.40 349.04 50.00 351.97 C 49.16 348.86 48.07 345.82 46.87 342.83 C 48.28 342.92 49.69 343.02 51.10 343.15 C 54.14 343.87 54.92 347.24 56.34 349.59 C 58.75 354.74 62.20 359.50 63.57 365.07 C 62.30 368.36 57.96 367.75 55.35 369.42 C 54.65 370.90 55.02 372.56 55.04 374.14 C 57.76 372.65 60.52 371.10 63.66 370.75 C 63.96 376.61 62.32 382.72 64.18 388.40 C 72.20 387.32 80.33 387.54 88.40 386.95 C 87.94 387.90 87.43 388.81 86.86 389.71 C 81.61 393.33 76.22 397.20 72.66 402.59 C 70.65 405.53 72.83 408.92 74.67 411.31 C 77.91 415.35 81.89 420.18 87.64 419.77 C 88.19 418.65 88.76 417.55 89.32 416.45 C 91.85 419.96 93.17 424.21 93.43 428.51 C 87.58 427.85 81.50 425.38 75.72 427.76 C 74.25 428.16 73.53 429.56 72.64 430.66 C 72.31 430.70 71.64 430.79 71.31 430.84 C 68.69 431.19 66.07 431.52 63.44 431.87 C 63.43 434.29 63.41 436.71 63.39 439.14 L 63.39 439.76 C 59.41 442.97 56.05 446.85 52.37 450.39 C 49.54 453.36 46.26 455.90 43.68 459.12 C 51.07 456.99 56.60 451.11 63.43 447.75 C 63.27 456.07 63.68 464.51 62.99 472.76 L 62.46 473.04 C 52.70 472.42 42.92 471.99 33.16 471.37 C 30.69 469.84 29.12 467.07 27.69 464.58 C 22.54 453.79 21.98 441.60 19.93 430.00 C 18.95 423.40 16.41 417.18 13.79 411.10 C 12.66 408.16 11.01 405.19 11.47 401.93 C 12.12 395.74 11.02 389.56 11.08 383.37 L 11.64 383.41 C 11.71 389.50 12.80 395.80 15.97 401.10 C 17.74 400.67 19.51 400.25 21.28 399.84 C 21.37 409.39 21.66 418.93 21.69 428.48 C 35.57 429.86 49.51 430.67 63.43 431.78 C 63.57 417.54 63.17 403.29 63.64 389.06 C 62.53 388.31 61.47 387.20 59.96 387.52 C 47.02 386.54 34.10 385.20 21.14 384.30 L 21.15 384.04 C 21.56 369.71 21.50 355.38 21.76 341.04 Z" />
<path fill="#f1190c" opacity="1.00" d=" M 247.15 345.09 C 252.11 344.73 257.08 344.39 262.05 344.01 C 263.95 352.76 265.16 361.66 265.66 370.60 C 264.88 370.62 263.33 370.65 262.55 370.66 C 260.77 370.69 259.00 370.84 257.24 371.11 C 252.47 371.57 247.68 371.77 242.91 372.17 C 243.08 370.22 243.30 368.28 243.61 366.35 C 248.33 362.52 252.37 357.95 256.82 353.83 C 258.61 352.05 260.87 350.43 261.32 347.77 C 254.34 351.39 250.17 358.52 243.89 363.09 C 244.71 357.05 246.08 351.10 247.15 345.09 Z" />
<path fill="#f1190c" opacity="1.00" d=" M 110.92 348.29 C 120.67 348.55 130.43 348.74 140.19 348.98 L 140.77 349.00 C 142.08 353.21 143.58 357.49 143.35 361.97 C 143.26 366.31 143.15 371.28 146.27 374.71 C 146.96 375.83 148.23 375.54 149.32 375.38 L 149.66 375.29 C 149.94 382.70 151.23 390.04 151.75 397.43 C 150.13 397.37 148.51 397.32 146.88 397.27 L 146.36 397.25 C 143.22 391.84 139.57 386.74 137.03 381.00 C 130.84 370.56 121.96 362.08 113.89 353.13 C 112.65 351.68 111.79 349.96 110.92 348.29 Z" />
<path fill="#f1190c" opacity="1.00" d=" M 103.39 350.14 C 105.59 350.33 107.76 351.04 109.35 352.64 C 114.93 357.80 119.52 363.90 124.28 369.79 C 130.90 378.71 137.74 387.53 143.28 397.17 C 131.07 396.75 118.85 396.42 106.64 395.98 C 106.99 404.55 107.75 413.10 107.83 421.68 C 107.83 423.64 108.05 425.59 108.28 427.54 C 108.59 430.84 108.67 434.15 108.77 437.46 C 115.39 437.72 122.03 437.78 128.64 437.42 C 128.73 438.98 128.80 440.57 128.86 442.15 L 129.77 442.12 C 129.81 440.59 129.82 439.06 129.80 437.54 C 131.46 437.63 133.13 437.68 134.80 437.73 C 134.40 439.16 134.66 440.87 135.76 441.94 C 136.21 440.47 136.08 439.07 135.35 437.73 C 135.92 437.72 137.07 437.71 137.65 437.70 C 137.96 438.15 138.60 439.06 138.92 439.51 C 138.29 439.48 137.03 439.44 136.40 439.41 C 136.46 440.09 136.59 441.43 136.65 442.10 C 137.63 442.14 139.59 442.20 140.57 442.23 C 140.37 440.70 140.14 439.18 139.90 437.67 C 141.93 437.63 143.97 437.62 146.00 437.63 C 145.75 439.44 145.46 441.36 146.90 442.76 C 147.48 442.53 148.62 442.07 149.19 441.83 C 149.07 440.35 148.92 438.84 147.99 437.63 C 148.76 437.60 150.31 437.55 151.09 437.52 C 150.09 440.92 154.62 444.37 156.53 440.60 L 156.68 441.35 C 156.81 443.39 156.93 445.44 157.06 447.49 C 154.22 447.46 151.73 450.03 152.83 452.91 C 153.22 455.17 155.71 455.44 157.56 455.62 C 157.62 457.53 157.70 459.45 157.79 461.37 C 142.17 460.89 126.32 462.07 110.88 459.77 C 110.80 459.53 110.64 459.04 110.56 458.80 C 112.30 457.71 114.14 456.80 116.01 455.98 C 115.89 452.19 116.53 448.28 115.29 444.63 C 114.48 442.94 115.47 441.23 115.85 439.59 C 114.69 440.54 113.54 441.50 112.41 442.49 C 112.49 441.69 112.67 440.10 112.75 439.31 C 111.28 439.75 110.88 440.79 111.55 442.43 C 110.91 442.42 109.62 442.40 108.98 442.39 C 109.03 441.62 109.11 440.08 109.16 439.31 C 109.05 438.90 108.84 438.08 108.74 437.68 C 104.74 437.54 100.75 437.65 96.75 437.63 C 96.72 431.73 96.58 425.66 94.62 420.02 C 92.88 415.63 90.46 411.47 87.21 408.01 L 87.21 407.63 C 87.19 404.18 87.12 400.74 87.08 397.29 C 87.31 397.28 87.77 397.24 88.00 397.22 C 94.11 396.84 100.23 396.60 106.35 396.24 C 106.26 394.26 106.18 392.30 106.08 390.33 C 105.94 387.83 105.69 385.35 105.49 382.86 C 105.22 378.46 104.91 374.07 104.57 369.68 C 111.70 374.10 117.52 380.50 125.24 384.00 C 125.28 381.28 123.14 379.42 121.42 377.61 C 116.11 372.32 110.25 367.60 104.21 363.19 C 103.89 358.84 103.55 354.50 103.39 350.14 M 131.64 441.79 C 131.65 441.05 131.66 439.56 131.67 438.81 C 130.36 438.57 130.34 442.01 131.64 441.79 M 133.01 438.74 C 133.09 439.51 133.24 441.04 133.32 441.81 C 134.61 441.93 134.31 438.49 133.01 438.74 M 141.09 439.03 C 139.50 441.72 143.07 442.57 144.89 443.23 C 145.08 441.44 146.42 437.79 143.14 438.00 C 143.27 438.72 143.52 440.14 143.64 440.86 C 143.28 440.90 142.55 441.00 142.18 441.04 C 142.40 440.24 142.83 438.65 143.05 437.85 L 141.09 439.03 M 142.51 443.19 C 143.09 443.82 143.09 443.82 142.51 443.19 M 128.66 444.68 C 128.49 447.84 128.42 451.03 128.69 454.19 C 129.36 454.82 130.10 455.36 130.93 455.80 C 129.47 452.13 131.15 447.90 129.51 444.42 C 129.30 444.49 128.87 444.62 128.66 444.68 M 132.48 444.27 C 132.23 447.70 132.34 451.14 132.35 454.58 C 133.06 454.78 134.47 455.20 135.18 455.41 C 132.88 452.37 134.36 448.43 133.80 444.96 C 133.47 444.79 132.81 444.45 132.48 444.27 M 118.63 455.18 L 120.14 455.10 C 120.89 453.00 122.60 452.22 124.74 452.71 C 125.04 454.41 125.95 455.25 127.48 455.25 C 126.35 451.42 125.58 447.20 123.04 444.03 C 120.59 447.22 119.85 451.40 118.63 455.18 M 148.59 447.72 C 146.96 447.98 145.29 448.36 143.70 447.69 C 143.62 448.56 143.46 450.32 143.38 451.20 C 142.88 450.54 141.89 449.23 141.39 448.57 C 138.60 445.97 134.22 449.56 135.73 452.89 C 136.20 455.71 141.95 456.76 142.23 453.65 C 140.32 454.01 137.82 454.41 137.15 451.97 C 139.32 451.94 141.51 451.90 143.58 451.17 C 143.88 452.55 142.81 454.64 144.14 455.72 C 146.15 454.57 144.95 451.83 145.35 449.98 C 146.18 449.46 147.84 448.41 148.68 447.88 C 148.58 450.25 148.52 452.66 148.94 455.02 C 150.22 455.29 151.99 456.39 152.22 454.26 C 149.44 454.63 149.04 448.35 152.28 448.75 C 151.84 448.42 150.96 447.77 150.52 447.44 C 150.39 447.08 150.13 446.36 150.00 446.00 L 148.84 445.91 C 148.78 446.36 148.65 447.27 148.59 447.72 Z" />
<path fill="#f1190c" opacity="1.00" d=" M 241.94 384.30 C 242.34 384.21 243.15 384.04 243.55 383.96 C 243.78 389.06 244.07 394.16 244.41 399.25 C 246.33 399.09 248.23 398.83 250.13 398.51 C 250.30 398.49 250.63 398.45 250.79 398.44 C 248.98 399.96 246.51 400.85 245.17 402.85 C 250.14 402.39 255.05 401.16 260.08 400.96 C 261.87 401.09 261.39 399.04 261.21 398.00 C 262.53 397.92 263.85 397.84 265.17 397.77 C 264.58 407.26 264.60 416.79 264.77 426.30 C 258.65 426.93 252.53 427.55 246.40 428.04 C 247.29 437.98 248.05 447.97 249.32 457.85 C 249.67 457.99 250.38 458.28 250.73 458.42 C 255.91 458.07 261.07 457.48 266.24 457.08 L 267.48 456.97 C 267.24 459.42 265.85 461.60 265.68 464.07 C 266.10 465.72 266.83 467.29 267.29 468.94 C 267.14 474.26 266.96 479.58 266.98 484.91 C 261.80 485.63 256.64 486.40 251.44 486.99 C 251.53 487.56 251.69 488.68 251.77 489.24 L 251.93 490.20 C 249.99 489.87 247.69 489.93 246.74 487.86 L 246.67 487.66 C 248.26 487.48 249.84 487.31 251.43 487.15 C 251.13 482.72 250.74 478.31 250.46 473.88 L 250.40 472.71 C 249.71 468.20 250.20 463.44 248.85 459.08 C 246.92 457.99 244.71 459.12 242.68 459.20 C 242.46 454.14 243.40 448.84 241.76 443.96 C 240.67 446.51 239.54 449.04 238.24 451.49 C 239.38 444.07 237.76 436.66 237.92 429.22 C 240.62 428.95 243.33 428.66 246.04 428.37 C 245.63 418.67 244.77 408.98 244.39 399.29 C 243.09 399.40 241.78 399.53 240.48 399.66 C 240.96 394.54 241.26 389.40 241.94 384.30 Z" />
<path fill="#f1190c" opacity="1.00" d=" M 151.78 397.46 C 165.65 398.02 179.51 398.46 193.37 399.20 L 193.54 399.21 C 196.58 412.00 200.47 424.91 199.45 438.22 C 190.27 433.40 180.78 429.20 171.67 424.24 C 164.08 419.51 159.12 411.80 152.82 405.63 L 152.72 404.96 C 152.40 402.46 152.12 399.96 151.78 397.46 Z" />
<path fill="#f1190c" opacity="1.00" d=" M 220.13 401.60 C 221.09 400.45 221.93 399.22 222.71 397.95 C 222.70 398.79 222.69 400.46 222.68 401.29 C 225.90 402.41 229.17 403.36 232.45 404.31 C 230.11 415.53 226.64 426.61 226.28 438.16 C 227.45 436.76 228.28 435.12 228.42 433.28 C 229.57 425.23 232.01 417.28 236.91 410.69 C 235.87 420.81 234.88 430.98 235.64 441.16 C 231.63 441.30 227.54 440.89 223.66 442.09 C 223.74 443.14 223.90 445.22 223.99 446.26 C 221.76 444.80 219.56 443.26 217.80 441.23 C 219.59 441.32 221.37 441.48 223.15 441.71 C 223.52 441.03 223.84 440.32 224.11 439.60 C 223.39 426.96 223.10 414.30 222.49 401.66 C 221.90 401.65 220.72 401.61 220.13 401.60 Z" />
<path fill="#f1190c" opacity="1.00" d=" M 153.88 415.85 C 162.18 423.07 171.66 428.85 181.70 433.31 C 186.95 435.25 192.29 436.98 197.18 439.76 C 189.37 439.34 181.57 438.98 173.77 438.58 C 173.23 438.53 172.16 438.44 171.62 438.40 C 172.28 438.16 173.60 437.68 174.26 437.44 C 173.01 436.98 171.94 437.31 171.04 438.41 C 170.54 438.00 170.04 437.59 169.54 437.20 C 168.05 438.10 166.24 438.12 164.73 437.27 C 164.35 437.38 163.60 437.60 163.22 437.71 L 162.53 437.91 C 162.02 437.70 160.98 437.28 160.47 437.06 C 160.38 437.33 160.20 437.87 160.11 438.14 C 158.97 438.78 157.73 438.04 156.60 437.83 C 156.57 437.67 156.53 437.34 156.50 437.17 C 155.93 433.51 155.58 429.83 155.25 426.14 C 155.12 425.10 154.98 424.06 154.85 423.03 C 154.52 420.63 154.26 418.23 153.88 415.85 Z" />
<path fill="#f1190c" opacity="1.00" d=" M 204.00 441.20 C 207.57 441.47 211.15 441.38 214.73 441.35 C 215.23 445.66 219.91 448.72 224.04 447.31 C 224.02 451.11 223.97 454.91 223.98 458.71 C 224.42 458.09 224.86 457.47 225.29 456.84 L 225.47 458.35 L 226.40 458.61 L 226.82 458.72 C 225.10 458.97 223.43 459.45 221.70 459.62 C 215.87 459.09 210.05 458.18 204.81 455.40 C 203.58 457.28 202.52 459.27 201.61 461.33 C 200.16 460.74 200.98 458.86 200.71 457.68 C 203.39 455.14 205.67 452.00 206.50 448.34 C 206.90 445.71 205.24 443.36 204.00 441.20 Z" />
<path fill="#f1190c" opacity="1.00" d=" M 109.66 446.83 L 110.47 446.23 C 111.46 448.66 112.50 451.07 113.51 453.50 C 113.57 453.93 113.70 454.78 113.77 455.21 C 111.33 454.92 111.03 452.08 109.93 450.37 C 109.81 449.18 109.72 448.00 109.66 446.83 Z" />
<path fill="#f1190c" opacity="1.00" d=" M 122.16 450.93 C 121.16 449.98 122.30 447.37 123.70 448.36 C 125.22 449.35 123.82 452.34 122.16 450.93 Z" />
<path fill="#f1190c" opacity="1.00" d=" M 157.19 453.73 C 153.71 454.66 153.76 449.14 156.88 448.89 L 156.95 449.92 C 156.96 451.19 157.04 452.46 157.19 453.73 Z" />
<path fill="#f1190c" opacity="1.00" d=" M 88.52 471.89 C 89.71 471.73 90.90 471.57 92.09 471.39 L 92.68 471.30 C 94.16 474.20 96.86 476.60 97.03 480.04 C 97.63 485.35 96.97 490.75 97.99 496.03 C 98.62 499.76 99.95 503.33 100.44 507.09 C 91.12 507.82 81.79 508.54 72.47 509.41 C 72.07 507.77 71.68 506.14 71.31 504.51 C 70.97 503.07 70.64 501.65 70.26 500.24 C 67.95 491.78 66.07 483.21 63.81 474.74 C 63.86 474.34 63.97 473.54 64.03 473.14 C 69.93 472.20 76.06 472.58 82.05 472.19 C 84.21 472.24 86.38 472.18 88.52 471.89 M 86.91 482.86 C 83.90 485.29 83.51 489.47 83.16 493.06 C 86.57 489.18 89.46 484.65 94.16 482.16 C 95.93 481.52 95.65 479.57 95.72 478.08 C 92.47 478.97 89.50 480.71 86.91 482.86 Z" />
<path fill="#f1190c" opacity="1.00" d=" M 252.45 493.00 L 252.51 493.32 C 253.91 501.00 255.05 508.74 256.55 516.40 C 253.23 517.08 250.18 518.61 247.62 520.83 C 245.37 515.09 242.66 509.30 242.41 503.04 C 242.21 500.60 241.45 498.26 240.74 495.93 C 244.93 496.91 249.28 495.95 252.45 493.00 Z" />
<path fill="#f1190c" opacity="1.00" d=" M 57.53 510.30 C 62.48 510.07 67.42 509.88 72.37 509.60 C 73.71 519.06 75.16 528.51 76.52 537.96 C 73.65 539.12 70.77 540.26 67.90 541.43 C 67.62 535.79 68.59 530.06 67.31 524.50 C 65.60 518.87 61.45 514.50 57.53 510.30 Z" />
</g>
<g id="#00ae42ff">
<path fill="#00ae42" opacity="1.00" d=" M 138.69 9.52 C 144.70 7.54 150.95 6.25 157.25 5.67 C 156.36 9.82 155.76 14.03 155.23 18.24 C 148.40 19.29 141.54 20.41 135.01 22.78 C 135.64 18.23 136.44 13.60 138.69 9.52 Z" />
<path fill="#00ae42" opacity="1.00" d=" M 175.55 6.35 C 181.46 7.41 187.37 8.69 192.96 10.91 C 192.92 12.94 192.88 14.97 192.85 17.00 C 197.63 17.64 202.43 18.04 207.18 18.86 C 207.74 19.13 208.85 19.67 209.40 19.94 C 211.41 24.66 211.42 29.85 211.42 34.88 C 205.21 34.05 198.99 33.30 192.74 32.94 C 192.85 27.65 192.73 22.37 192.79 17.08 C 187.26 16.72 181.71 16.85 176.19 16.41 C 175.61 17.02 175.04 17.65 174.48 18.28 C 174.75 23.15 174.58 28.03 174.64 32.91 C 180.59 32.80 186.53 32.57 192.48 32.47 C 192.60 34.40 192.70 36.34 192.80 38.28 C 186.65 37.91 180.48 38.15 174.37 38.91 C 174.37 36.92 174.37 34.93 174.37 32.94 C 168.06 33.67 161.75 34.34 155.51 35.55 C 155.50 29.70 155.47 23.85 155.54 18.00 C 161.23 17.43 166.92 16.77 172.64 16.60 C 173.34 16.01 174.04 15.41 174.74 14.80 C 174.79 11.97 175.13 9.15 175.55 6.35 Z" />
<path fill="#00ae42" opacity="1.00" d=" M 117.85 30.89 C 123.02 27.05 129.31 24.96 135.36 22.89 C 134.93 29.15 135.87 35.58 134.85 41.73 C 129.55 44.49 123.68 46.38 118.99 50.16 C 118.40 53.54 119.74 56.93 120.10 60.29 C 116.63 59.08 113.63 56.92 111.39 54.00 L 111.76 53.78 C 113.88 52.53 116.12 51.43 118.02 49.83 C 118.67 43.63 116.54 37.18 117.85 30.89 Z" />
<path fill="#00ae42" opacity="1.00" d=" M 211.65 34.78 C 215.62 36.20 219.58 37.61 223.55 39.03 C 224.78 42.55 226.45 45.97 226.84 49.73 C 222.54 45.90 217.11 43.68 211.72 41.87 C 211.68 39.51 211.66 37.15 211.65 34.78 Z" />
<path fill="#00ae42" opacity="1.00" d=" M 136.80 40.88 C 142.90 38.71 149.14 36.99 155.48 35.64 C 155.64 38.32 155.79 41.00 155.88 43.69 C 148.94 45.90 143.11 50.27 137.00 54.06 C 136.38 50.07 134.97 46.03 135.66 41.97 C 135.94 41.70 136.51 41.16 136.80 40.88 Z" />
<path fill="#00ae42" opacity="1.00" d=" M 79.00 191.48 C 83.18 190.45 87.58 190.28 91.60 188.64 C 92.81 198.44 94.35 208.20 95.59 218.00 C 83.86 218.05 72.13 217.89 60.40 218.10 C 59.67 217.82 58.98 217.46 58.32 217.04 C 58.34 214.53 58.09 212.04 57.67 209.57 C 57.56 207.44 59.32 206.21 60.74 204.99 C 59.69 205.75 58.63 206.49 57.58 207.26 C 57.45 205.17 57.31 203.09 57.16 201.01 C 63.84 196.64 71.30 193.54 79.00 191.48 Z" />
<path fill="#00ae42" opacity="1.00" d=" M 130.78 196.98 C 144.09 200.91 157.72 203.47 171.27 206.41 C 171.39 206.88 171.63 207.82 171.75 208.29 C 172.29 208.45 173.35 208.77 173.89 208.94 C 174.71 213.58 175.31 218.25 176.14 222.89 C 163.27 222.29 150.45 221.11 137.60 220.24 C 136.89 219.64 136.19 219.05 135.47 218.47 C 135.51 217.70 135.57 216.18 135.61 215.42 C 136.01 214.07 135.63 213.01 134.44 212.36 C 133.02 207.28 131.88 202.13 130.78 196.98 Z" />
<path fill="#00ae42" opacity="1.00" d=" M 187.95 203.11 C 196.94 207.50 205.51 212.71 213.88 218.18 C 219.33 221.96 224.95 225.64 229.53 230.49 C 229.23 232.80 229.99 235.03 230.44 237.26 C 223.63 234.15 216.28 232.46 209.39 229.62 C 207.42 227.77 206.58 225.10 205.02 222.93 C 200.47 216.26 195.08 210.18 189.41 204.45 C 189.04 204.11 188.31 203.45 187.95 203.11 Z" />
<path fill="#00ae42" opacity="1.00" d=" M 36.54 218.24 L 36.23 218.64 L 35.31 219.81 C 39.77 220.06 44.18 219.08 48.64 219.12 L 49.45 219.48 C 47.86 220.14 46.32 220.99 44.62 221.36 C 37.77 221.69 33.45 227.91 27.46 230.35 C 29.69 225.79 33.46 222.22 36.54 218.24 Z" />
<path fill="#00ae42" opacity="1.00" d=" M 95.63 217.97 C 103.72 218.55 111.87 218.33 119.91 219.34 L 120.24 219.43 C 125.06 220.02 130.01 219.23 134.88 219.45 C 135.43 220.04 135.92 220.68 136.36 221.36 C 138.11 233.97 139.78 246.60 141.23 259.26 C 133.56 259.09 125.90 258.97 118.23 258.80 C 117.14 252.54 114.65 245.77 109.23 242.01 C 105.54 244.21 103.20 247.86 100.78 251.28 C 99.22 240.15 97.30 229.08 95.63 217.97 Z" />
<path fill="#00ae42" opacity="1.00" d=" M 45.98 224.09 C 48.58 222.78 51.73 220.73 54.64 222.41 C 60.01 225.20 64.96 228.70 69.92 232.14 L 69.90 232.42 C 69.17 243.23 68.39 254.03 67.62 264.83 C 53.60 264.05 39.60 263.00 25.58 262.24 C 24.69 275.25 23.66 288.25 22.68 301.26 C 36.06 302.07 49.43 302.97 62.81 303.70 C 63.94 303.67 64.82 304.48 65.78 304.97 C 64.90 318.00 65.34 331.18 64.10 344.15 C 63.40 344.09 62.00 343.96 61.30 343.90 C 57.32 339.82 53.36 335.70 49.15 331.85 C 48.32 336.04 51.18 339.53 52.51 343.27 L 51.10 343.15 C 49.69 343.02 48.28 342.92 46.87 342.83 C 45.19 339.74 43.72 336.34 40.83 334.16 C 35.36 329.76 28.62 327.46 22.14 324.99 C 22.26 317.06 22.61 309.13 22.59 301.20 C 17.94 301.28 13.29 301.25 8.64 301.24 C 8.81 288.11 9.13 274.86 11.91 261.98 C 16.47 262.01 21.03 262.16 25.59 262.14 C 26.70 253.62 27.41 245.05 28.54 236.53 C 33.77 231.64 39.84 227.73 45.98 224.09 Z" />
<path fill="#00ae42" opacity="1.00" d=" M 181.25 223.70 C 190.38 226.06 199.83 227.29 208.82 230.09 C 215.20 242.30 216.61 256.37 217.97 269.88 C 223.45 271.25 228.83 272.99 234.28 274.47 C 234.90 278.23 233.40 283.19 236.47 286.04 C 236.72 282.57 236.19 278.95 237.49 275.64 C 240.01 276.28 242.31 278.03 244.96 277.97 L 245.25 277.36 C 247.42 291.42 248.26 305.86 247.40 320.13 C 238.75 316.40 230.14 312.46 220.92 310.32 C 220.85 317.93 222.50 325.43 222.51 333.03 C 222.71 340.69 221.64 348.30 221.09 355.93 C 210.87 354.60 200.65 353.32 190.45 351.90 L 190.21 351.86 C 188.81 335.97 187.38 320.06 187.13 304.10 C 198.52 306.20 209.90 308.29 221.30 310.32 C 220.65 296.84 219.30 283.41 218.06 269.98 C 206.78 267.86 195.64 265.12 184.40 262.81 L 184.18 262.76 C 184.14 262.07 184.06 260.69 184.02 260.00 C 183.67 247.88 183.29 235.68 181.25 223.70 Z" />
<path fill="#00ae42" opacity="1.00" d=" M 22.14 238.17 C 23.27 235.90 24.44 233.54 26.39 231.85 C 26.31 232.48 26.14 233.75 26.06 234.38 C 25.17 235.97 23.52 237.02 22.14 238.17 Z" />
<path fill="#00ae42" opacity="1.00" d=" M 141.01 259.74 C 153.34 259.87 165.65 260.91 177.92 262.11 C 179.00 262.34 180.08 262.58 181.16 262.85 C 181.73 270.61 182.03 278.39 182.44 286.16 C 182.79 292.13 182.30 298.17 183.38 304.09 C 169.99 301.46 156.17 301.79 142.57 301.78 C 143.00 287.75 142.10 273.72 141.01 259.74 Z" />
<path fill="#00ae42" opacity="1.00" d=" M 67.66 264.88 C 79.38 265.90 91.11 266.94 102.84 267.93 C 100.62 276.10 100.90 284.61 101.08 292.99 C 101.17 297.18 102.78 301.12 103.13 305.28 C 91.22 304.95 79.32 304.35 67.41 304.08 C 66.68 303.81 65.98 303.49 65.31 303.10 C 66.42 290.38 66.77 277.61 67.66 264.88 Z" />
<path fill="#00ae42" opacity="1.00" d=" M 106.17 301.34 C 106.97 301.38 108.56 301.47 109.35 301.52 C 115.91 301.54 122.47 301.79 129.03 301.51 L 129.00 301.78 C 128.42 306.81 127.81 312.00 129.32 316.95 C 132.20 327.86 135.83 338.58 140.19 348.98 C 130.43 348.74 120.67 348.55 110.92 348.29 C 110.71 348.28 110.31 348.27 110.10 348.26 C 108.36 345.56 105.73 343.22 104.95 340.03 C 105.80 332.55 109.51 325.76 110.45 318.29 C 111.31 312.83 112.67 306.17 108.93 301.56 C 108.43 301.66 107.45 301.87 106.95 301.97 C 105.98 304.89 106.67 308.08 106.19 311.11 C 106.38 307.85 105.99 304.56 106.17 301.34 Z" />
<path fill="#00ae42" opacity="1.00" d=" M 132.30 301.70 L 132.73 301.70 C 135.96 301.73 139.19 301.77 142.43 301.73 C 143.90 317.53 145.08 333.34 146.43 349.15 C 145.62 349.13 144.00 349.10 143.19 349.08 C 141.29 343.34 139.11 337.69 136.97 332.03 C 135.07 327.01 132.06 322.36 131.23 316.98 C 130.18 311.86 132.07 306.80 132.30 301.70 Z" />
<path fill="#00ae42" opacity="1.00" d=" M 250.30 317.70 C 252.31 318.10 254.32 318.50 256.34 318.89 C 258.45 327.22 260.57 335.55 262.05 344.01 C 257.08 344.39 252.11 344.73 247.15 345.09 C 247.91 340.92 248.47 336.70 249.26 332.54 C 250.64 329.64 251.37 326.51 251.69 323.33 C 251.32 322.89 250.58 321.99 250.21 321.55 C 250.23 320.26 250.26 318.98 250.30 317.70 Z" />
<path fill="#00ae42" opacity="1.00" d=" M 22.00 330.72 C 28.29 333.14 33.93 337.27 38.41 342.29 C 32.87 341.76 27.31 341.42 21.76 341.04 C 21.50 355.38 21.56 369.71 21.15 384.04 C 20.45 383.99 19.05 383.89 18.35 383.83 C 16.32 381.98 14.13 380.30 11.87 378.75 C 11.64 377.49 11.42 376.24 11.22 374.98 C 10.22 367.38 8.96 359.78 6.61 352.47 C 5.20 348.24 5.42 343.74 5.67 339.37 C 11.03 339.91 16.39 340.51 21.76 340.93 C 21.82 337.53 21.90 334.12 22.00 330.72 Z" />
<path fill="#00ae42" opacity="1.00" d=" M 64.87 344.88 C 65.39 344.72 66.43 344.42 66.95 344.27 C 77.27 345.14 87.66 344.74 97.95 345.84 C 95.37 350.55 91.04 353.89 86.75 356.96 C 88.79 353.35 90.79 349.71 92.93 346.16 C 91.25 345.96 89.58 345.76 87.91 345.51 C 83.68 346.76 80.03 349.41 75.82 350.67 C 71.58 350.93 67.44 348.55 64.54 345.61 L 64.87 344.88 Z" />
<path fill="#00ae42" opacity="1.00" d=" M 146.70 349.13 C 159.87 350.07 173.05 350.88 186.21 351.88 C 186.59 352.01 187.35 352.28 187.73 352.41 C 187.82 356.01 188.42 359.57 188.93 363.13 C 190.15 375.19 191.67 387.21 193.37 399.20 C 179.51 398.46 165.65 398.02 151.78 397.46 C 152.12 399.96 152.40 402.46 152.72 404.96 C 150.74 402.42 148.66 399.96 146.88 397.27 C 148.51 397.32 150.13 397.37 151.75 397.43 C 151.23 390.04 149.94 382.70 149.66 375.29 C 149.97 371.06 149.42 366.85 148.26 362.79 C 148.15 362.18 147.93 360.96 147.82 360.36 C 147.47 356.61 147.12 352.87 146.70 349.13 Z" />
<path fill="#00ae42" opacity="1.00" d=" M 102.82 350.10 L 103.39 350.14 C 103.55 354.50 103.89 358.84 104.21 363.19 C 102.34 361.87 99.86 360.60 99.71 358.00 C 99.09 354.93 100.90 352.27 102.82 350.10 Z" />
<path fill="#00ae42" opacity="1.00" d=" M 221.30 355.79 C 227.71 357.62 234.10 359.56 240.12 362.44 C 240.33 365.00 240.55 367.75 239.13 370.03 C 234.00 378.67 227.79 386.63 222.64 395.25 L 222.61 394.72 C 222.06 381.75 221.66 368.77 221.30 355.79 Z" />
<path fill="#00ae42" opacity="1.00" d=" M 87.72 361.98 C 87.69 359.51 90.27 358.41 91.86 357.00 C 95.53 361.31 99.62 365.38 104.47 368.37 C 104.49 368.69 104.54 369.35 104.57 369.68 C 104.91 374.07 105.22 378.46 105.49 382.86 C 105.43 384.44 105.34 386.02 105.23 387.60 C 103.03 386.21 100.86 384.77 98.55 383.55 C 100.48 386.40 103.37 388.31 106.08 390.33 C 106.18 392.30 106.26 394.26 106.35 396.24 C 100.23 396.60 94.11 396.84 88.00 397.22 C 89.82 394.67 92.69 391.92 90.98 388.54 C 92.08 385.46 93.38 382.32 93.15 378.98 C 93.12 372.82 88.37 367.99 87.72 361.98 Z" />
<path fill="#00ae42" opacity="1.00" d=" M 72.66 374.78 C 77.84 370.92 81.62 365.56 84.75 359.98 C 83.79 365.68 87.58 370.60 89.42 375.71 C 91.04 379.35 89.80 383.32 88.77 386.93 L 88.40 386.95 C 80.33 387.54 72.20 387.32 64.18 388.40 C 62.32 382.72 63.96 376.61 63.66 370.75 C 66.39 372.40 69.08 376.65 72.66 374.78 Z" />
<path fill="#00ae42" opacity="1.00" d=" M 242.91 372.17 C 247.68 371.77 252.47 371.57 257.24 371.11 C 252.77 373.22 247.90 374.40 242.95 374.44 C 242.94 373.87 242.92 372.74 242.91 372.17 Z" />
<path fill="#00ae42" opacity="1.00" d=" M 262.55 370.66 C 263.33 370.65 264.88 370.62 265.66 370.60 C 266.31 379.65 265.67 388.72 265.17 397.77 C 263.85 397.84 262.53 397.92 261.21 398.00 C 257.74 398.26 254.27 398.37 250.79 398.44 C 250.63 398.45 250.30 398.49 250.13 398.51 C 248.23 398.83 246.33 399.09 244.41 399.25 C 244.07 394.16 243.78 389.06 243.55 383.96 L 243.51 383.25 C 248.43 380.74 252.92 377.51 257.67 374.73 C 259.55 373.70 261.19 372.31 262.55 370.66 Z" />
<path fill="#00ae42" opacity="1.00" d=" M 222.72 397.29 C 227.56 392.47 231.56 386.76 237.10 382.68 C 236.30 390.03 234.43 397.22 232.93 404.45 L 232.45 404.31 C 229.17 403.36 225.90 402.41 222.68 401.29 C 222.69 400.46 222.70 398.79 222.71 397.95 L 222.72 397.29 Z" />
<path fill="#00ae42" opacity="1.00" d=" M 21.14 384.30 C 34.10 385.20 47.02 386.54 59.96 387.52 C 61.47 387.20 62.53 388.31 63.64 389.06 C 63.17 403.29 63.57 417.54 63.43 431.78 C 49.51 430.67 35.57 429.86 21.69 428.48 C 21.66 418.93 21.37 409.39 21.28 399.84 L 21.27 399.28 C 26.38 398.15 31.55 397.13 36.47 395.34 C 38.18 393.85 35.80 393.13 34.65 392.55 C 29.86 390.79 25.36 388.37 21.12 385.55 L 21.14 384.30 Z" />
<path fill="#00ae42" opacity="1.00" d=" M 106.64 395.98 C 118.85 396.42 131.07 396.75 143.28 397.17 L 143.80 397.19 C 146.06 401.31 148.79 405.19 150.46 409.62 C 151.13 411.45 152.23 413.06 153.62 414.43 C 153.68 414.78 153.81 415.49 153.88 415.85 C 154.26 418.23 154.52 420.63 154.85 423.03 C 145.40 418.21 137.22 411.19 128.01 405.93 C 130.78 408.96 134.28 411.16 137.50 413.65 C 143.33 417.93 148.97 422.52 155.25 426.14 C 155.58 429.83 155.93 433.51 156.50 437.17 C 154.70 437.29 152.89 437.42 151.09 437.52 C 150.31 437.55 148.76 437.60 147.99 437.63 C 147.49 437.63 146.50 437.63 146.00 437.63 C 143.97 437.62 141.93 437.63 139.90 437.67 C 139.33 437.68 138.21 437.69 137.65 437.70 C 137.07 437.71 135.92 437.72 135.35 437.73 L 134.80 437.73 C 133.13 437.68 131.46 437.63 129.80 437.54 L 129.75 437.16 C 129.47 437.23 128.92 437.36 128.64 437.42 C 122.03 437.78 115.39 437.72 108.77 437.46 C 108.67 434.15 108.59 430.84 108.28 427.54 C 111.34 429.82 113.08 433.44 116.40 435.41 C 114.64 430.24 111.06 425.98 107.83 421.68 C 107.75 413.10 106.99 404.55 106.64 395.98 Z" />
<path fill="#00ae42" opacity="1.00" d=" M 195.99 399.28 C 201.93 400.10 207.90 400.61 213.88 401.13 C 215.03 401.37 216.17 401.63 217.32 401.92 C 215.78 404.82 213.76 407.45 212.48 410.49 C 216.15 408.81 217.76 404.91 219.58 401.58 L 220.13 401.60 C 220.72 401.61 221.90 401.65 222.49 401.66 C 223.10 414.30 223.39 426.96 224.11 439.60 C 223.84 440.32 223.52 441.03 223.15 441.71 C 221.37 441.48 219.59 441.32 217.80 441.23 L 217.40 441.23 C 215.45 435.75 211.92 431.04 208.37 426.51 C 206.48 424.27 204.70 421.65 201.75 420.75 C 205.86 427.69 214.11 432.72 214.73 441.35 C 211.15 441.38 207.57 441.47 204.00 441.20 C 203.36 441.05 202.10 440.75 201.46 440.60 C 203.29 426.58 198.94 412.82 195.99 399.28 Z" />
<path fill="#00ae42" opacity="1.00" d=" M 240.48 399.66 C 241.78 399.53 243.09 399.40 244.39 399.29 C 244.77 408.98 245.63 418.67 246.04 428.37 C 243.33 428.66 240.62 428.95 237.92 429.22 C 238.51 419.35 239.60 409.51 240.48 399.66 Z" />
<path fill="#00ae42" opacity="1.00" d=" M 246.40 428.04 C 252.53 427.55 258.65 426.93 264.77 426.30 C 264.88 433.20 265.44 440.09 265.82 446.98 C 266.21 449.24 264.44 450.96 263.77 452.97 C 263.65 454.73 265.30 455.81 266.24 457.08 C 261.07 457.48 255.91 458.07 250.73 458.42 C 250.38 458.28 249.67 457.99 249.32 457.85 C 248.05 447.97 247.29 437.98 246.40 428.04 Z" />
<path fill="#00ae42" opacity="1.00" d=" M 91.29 428.59 C 91.66 428.57 92.41 428.55 92.79 428.54 L 93.73 428.67 C 94.68 438.81 93.19 448.93 91.94 458.97 C 91.55 463.09 90.99 467.32 92.09 471.39 C 90.90 471.57 89.71 471.73 88.52 471.89 C 80.61 468.81 72.27 467.15 64.20 464.63 C 64.09 465.62 63.99 466.61 63.90 467.61 C 69.91 469.28 75.96 470.84 82.05 472.19 C 76.06 472.58 69.93 472.20 64.03 473.14 C 63.97 473.54 63.86 474.34 63.81 474.74 C 66.07 483.21 67.95 491.78 70.26 500.24 C 59.66 497.38 52.40 488.56 44.15 481.94 C 43.22 481.45 42.25 481.06 41.24 480.77 C 41.18 481.36 41.06 482.54 41.00 483.13 C 38.77 478.95 36.05 475.10 33.16 471.37 C 42.92 471.99 52.70 472.42 62.46 473.04 L 62.99 472.76 C 63.68 464.51 63.27 456.07 63.43 447.75 C 69.38 444.05 74.26 438.96 80.03 435.04 C 81.86 433.44 84.23 434.38 86.37 434.33 C 88.84 433.33 89.99 430.72 91.29 428.59 Z" />
<path fill="#00ae42" opacity="1.00" d=" M 63.44 431.87 C 66.07 431.52 68.69 431.19 71.31 430.84 C 69.04 433.93 66.24 436.57 63.39 439.14 C 63.41 436.71 63.43 434.29 63.44 431.87 Z" />
<path fill="#00ae42" opacity="1.00" d=" M 96.75 437.63 C 100.75 437.65 104.74 437.54 108.74 437.68 C 108.84 438.08 109.05 438.90 109.16 439.31 C 107.55 439.98 106.87 441.39 107.13 443.56 C 106.49 442.33 105.84 441.10 105.19 439.89 C 105.42 441.32 105.66 442.76 105.87 444.21 C 102.97 447.39 104.16 452.31 104.67 456.19 C 106.70 457.21 108.92 457.95 110.58 459.59 L 111.04 459.98 C 105.49 460.33 99.92 460.34 94.39 461.00 C 95.28 453.23 96.60 445.48 96.75 437.63 Z" />
<path fill="#00ae42" opacity="1.00" d=" M 156.60 437.83 C 157.73 438.04 158.97 438.78 160.11 438.14 C 160.42 438.32 161.05 438.67 161.36 438.85 C 160.53 439.85 159.67 440.83 158.82 441.82 C 159.51 441.84 160.88 441.90 161.57 441.93 C 161.36 440.49 161.68 439.15 162.53 437.91 L 163.22 437.71 C 163.20 439.01 163.18 440.32 163.16 441.63 C 163.88 441.68 165.32 441.78 166.04 441.82 C 166.10 440.99 166.21 439.33 166.27 438.49 C 166.88 438.64 168.11 438.94 168.72 439.08 C 168.62 439.77 168.42 441.13 168.32 441.81 C 168.62 441.82 169.22 441.85 169.52 441.86 C 169.49 441.04 169.41 439.41 169.38 438.59 C 169.87 438.68 170.86 438.85 171.35 438.94 C 169.34 442.08 174.30 442.83 174.93 440.23 C 174.16 440.44 172.61 440.87 171.84 441.08 L 172.03 439.76 C 172.49 439.78 173.43 439.80 173.89 439.82 L 173.77 438.58 C 181.57 438.98 189.37 439.34 197.18 439.76 C 197.75 439.86 198.88 440.06 199.45 440.16 C 198.14 446.13 198.39 452.25 198.27 458.32 C 197.17 458.74 196.32 459.79 196.38 461.01 C 183.52 461.33 170.65 461.70 157.79 461.37 C 157.70 459.45 157.62 457.53 157.56 455.62 C 161.21 454.09 160.90 448.51 157.06 447.49 C 156.93 445.44 156.81 443.39 156.68 441.35 C 156.66 440.47 156.62 438.71 156.60 437.83 M 169.39 450.01 C 169.57 452.27 173.10 451.66 173.24 454.12 C 171.77 454.21 170.33 454.02 168.94 453.58 C 169.44 455.95 172.72 455.95 174.13 454.39 C 174.53 455.01 174.92 455.64 175.30 456.28 L 175.35 454.24 C 176.35 454.46 178.34 454.90 179.33 455.12 L 178.85 455.71 C 180.19 454.56 181.75 453.75 183.02 455.49 C 184.18 454.73 185.40 454.07 186.82 454.55 C 186.70 454.14 186.47 453.33 186.35 452.93 C 187.61 452.71 188.51 456.74 189.02 453.91 L 189.34 452.77 C 189.39 454.10 189.93 455.05 190.98 455.62 C 190.97 454.70 190.96 452.85 190.95 451.93 C 189.17 451.98 187.00 451.06 185.57 452.58 C 183.19 452.39 180.79 452.58 178.42 452.30 C 177.27 454.29 174.53 454.49 174.08 451.87 C 172.70 451.17 170.85 450.80 170.92 448.86 C 172.19 449.00 173.46 449.18 174.73 449.33 C 173.79 446.93 169.56 447.32 169.39 450.01 M 161.26 448.15 C 161.31 450.64 161.35 453.14 161.48 455.64 C 161.83 455.52 162.54 455.28 162.89 455.17 C 162.74 452.63 162.20 447.88 166.24 449.48 C 166.90 451.17 165.11 455.36 167.50 455.60 C 168.08 453.29 168.44 450.20 166.77 448.28 C 164.94 448.05 163.09 448.16 161.26 448.15 Z" />
<path fill="#00ae42" opacity="1.00" d=" M 164.40 438.30 C 166.51 437.77 165.06 442.75 164.03 440.11 C 164.12 439.66 164.31 438.75 164.40 438.30 Z" />
<path fill="#00ae42" opacity="1.00" d=" M 223.66 442.09 C 227.54 440.89 231.63 441.30 235.64 441.16 L 235.89 441.16 C 235.91 445.87 235.65 450.95 232.88 454.97 C 231.48 457.19 228.69 457.74 226.40 458.61 L 225.47 458.35 L 225.29 456.84 C 224.86 457.47 224.42 458.09 223.98 458.71 C 223.97 454.91 224.02 451.11 224.04 447.31 L 223.99 446.26 C 223.90 445.22 223.74 443.14 223.66 442.09 Z" />
<path fill="#00ae42" opacity="1.00" d=" M 106.64 454.24 C 107.51 451.71 108.66 449.30 109.66 446.83 C 109.72 448.00 109.81 449.18 109.93 450.37 C 109.54 452.20 108.71 453.89 107.72 455.48 C 107.45 455.17 106.91 454.55 106.64 454.24 Z" />
<path fill="#00ae42" opacity="1.00" d=" M 156.95 449.92 C 159.20 449.18 159.04 453.62 157.19 453.73 C 157.04 452.46 156.96 451.19 156.95 449.92 Z" />
<path fill="#00ae42" opacity="1.00" d=" M 178.96 453.38 C 181.27 451.64 181.29 455.33 178.92 454.04 L 178.96 453.38 Z" />
<path fill="#00ae42" opacity="1.00" d=" M 182.32 453.37 C 185.30 451.76 182.69 456.66 182.32 453.37 Z" />
<path fill="#00ae42" opacity="1.00" d=" M 242.68 459.20 C 244.71 459.12 246.92 457.99 248.85 459.08 C 250.20 463.44 249.71 468.20 250.40 472.71 C 248.11 474.09 245.84 475.64 243.15 476.09 C 240.51 470.85 241.09 464.87 242.65 459.41 L 242.68 459.20 Z" />
<path fill="#00ae42" opacity="1.00" d=" M 250.46 473.88 C 250.74 478.31 251.13 482.72 251.43 487.15 C 249.84 487.31 248.26 487.48 246.67 487.66 C 246.04 484.86 245.20 481.88 246.06 479.04 C 247.08 477.00 249.00 475.60 250.46 473.88 Z" />
<path fill="#00ae42" opacity="1.00" d=" M 251.44 486.99 C 256.64 486.40 261.80 485.63 266.98 484.91 C 266.37 496.09 270.21 506.73 272.67 517.45 C 267.34 516.63 261.96 515.85 256.55 516.40 C 255.05 508.74 253.91 501.00 252.51 493.32 C 254.28 491.95 255.98 490.49 257.58 488.94 C 255.64 489.02 253.70 489.13 251.77 489.24 C 251.69 488.68 251.53 487.56 251.44 486.99 Z" />
<path fill="#00ae42" opacity="1.00" d=" M 42.93 486.62 C 52.27 492.71 60.88 500.26 71.31 504.51 C 71.68 506.14 72.07 507.77 72.47 509.41 C 81.79 508.54 91.12 507.82 100.44 507.09 C 102.17 515.42 103.35 523.88 104.34 532.34 C 94.73 531.65 85.44 534.79 76.52 537.96 C 75.16 528.51 73.71 519.06 72.37 509.60 C 67.42 509.88 62.48 510.07 57.53 510.30 C 54.32 507.54 50.64 505.03 48.82 501.07 C 46.57 496.39 44.18 491.68 42.93 486.62 Z" />
</g>
<g id="#ee574eff">
<path fill="#ee574e" opacity="1.00" d=" M 119.90 18.88 C 123.23 16.00 127.26 13.95 131.35 12.37 C 126.66 17.47 122.38 22.92 118.14 28.41 C 118.45 25.18 118.97 21.98 119.90 18.88 Z" />
<path fill="#ee574e" opacity="1.00" d=" M 102.65 39.41 C 106.81 36.71 110.90 33.84 115.46 31.83 C 113.18 38.78 107.44 46.44 111.76 53.78 L 111.39 54.00 C 108.64 55.56 105.89 57.12 103.20 58.80 C 103.89 63.29 104.79 67.76 106.37 72.03 C 101.39 76.60 97.57 82.38 95.72 88.91 C 94.97 81.05 94.69 73.13 95.39 65.25 C 97.70 62.50 101.12 60.80 103.30 58.06 C 102.53 52.35 101.49 46.64 101.66 40.85 C 101.91 40.49 102.40 39.77 102.65 39.41 Z" />
<path fill="#ee574e" opacity="1.00" d=" M 119.87 170.02 C 128.36 173.10 136.16 177.84 144.26 181.81 C 147.20 183.52 150.68 184.49 153.10 186.99 C 144.78 183.59 136.91 179.17 128.81 175.27 C 125.84 173.52 122.30 172.56 119.87 170.02 Z" />
<path fill="#ee574e" opacity="1.00" d=" M 144.01 174.09 C 147.53 175.15 150.28 177.78 153.09 180.04 C 149.59 178.90 146.92 176.22 144.01 174.09 Z" />
<path fill="#ee574e" opacity="1.00" d=" M 154.02 181.02 C 157.41 182.25 160.45 184.40 162.94 187.00 C 159.82 185.26 156.69 183.40 154.02 181.02 Z" />
<path fill="#ee574e" opacity="1.00" d=" M 186.17 202.04 C 186.62 202.31 187.51 202.84 187.95 203.11 C 188.31 203.45 189.04 204.11 189.41 204.45 C 189.02 209.36 189.29 214.29 189.75 219.19 C 186.28 216.03 182.35 213.03 179.92 208.99 C 181.07 205.99 184.07 204.32 186.17 202.04 Z" />
<path fill="#ee574e" opacity="1.00" d=" M 57.58 207.26 C 58.63 206.49 59.69 205.75 60.74 204.99 C 59.32 206.21 57.56 207.44 57.67 209.57 C 57.00 212.98 57.77 216.43 58.39 219.79 C 55.25 218.63 51.91 218.39 48.64 219.12 C 50.27 217.62 52.21 216.26 53.08 214.14 C 54.24 211.65 55.15 208.84 57.58 207.26 Z" />
<path fill="#ee574e" opacity="1.00" d=" M 231.15 237.57 C 232.34 238.08 233.53 238.61 234.73 239.13 C 235.50 241.36 236.47 243.52 237.04 245.81 C 237.45 255.66 237.34 265.53 236.77 275.38 C 235.94 275.07 235.11 274.77 234.28 274.47 C 234.17 266.30 233.25 258.16 233.40 249.98 C 233.50 245.73 232.29 241.62 231.15 237.57 Z" />
<path fill="#ee574e" opacity="1.00" d=" M 104.74 258.57 C 109.23 258.63 113.73 258.73 118.23 258.80 C 114.65 262.72 110.65 266.38 107.91 270.97 C 106.17 275.09 105.31 279.58 104.91 284.02 C 105.59 290.02 108.30 295.58 109.35 301.52 C 108.56 301.47 106.97 301.38 106.17 301.34 C 103.27 293.34 104.08 284.46 104.77 276.09 C 104.95 272.70 105.82 269.41 106.67 266.14 C 107.49 263.43 105.67 260.97 104.74 258.57 Z" />
<path fill="#ee574e" opacity="1.00" d=" M 130.81 283.86 C 131.37 283.56 132.49 282.95 133.05 282.65 C 133.98 288.99 133.00 295.35 132.73 301.70 L 132.30 301.70 C 131.47 301.72 129.82 301.76 129.00 301.78 L 129.03 301.51 C 129.98 295.66 129.86 289.69 130.81 283.86 Z" />
<path fill="#ee574e" opacity="1.00" d=" M 184.19 286.02 C 184.83 292.30 184.64 298.61 184.63 304.91 C 185.17 324.37 186.90 343.78 188.93 363.13 C 188.42 359.57 187.82 356.01 187.73 352.41 C 187.35 352.28 186.59 352.01 186.21 351.88 C 185.69 347.58 184.78 343.32 184.66 338.98 C 184.30 327.35 182.86 315.72 183.38 304.09 C 185.48 298.40 184.00 291.99 184.19 286.02 Z" />
<path fill="#ee574e" opacity="1.00" d=" M 13.64 322.67 C 16.54 323.15 19.39 323.93 22.14 324.99 C 22.09 326.89 22.05 328.80 22.00 330.72 C 18.19 329.48 12.40 327.94 13.64 322.67 Z" />
<path fill="#ee574e" opacity="1.00" d=" M 100.62 347.95 C 102.90 341.91 102.07 335.22 103.86 329.03 C 103.29 335.30 103.27 341.60 102.97 347.89 C 102.38 347.91 101.21 347.93 100.62 347.95 Z" />
<path fill="#ee574e" opacity="1.00" d=" M 39.88 342.41 C 42.21 342.57 44.54 342.69 46.87 342.83 C 48.07 345.82 49.16 348.86 50.00 351.97 C 46.40 349.04 42.91 345.95 39.88 342.41 Z" />
<path fill="#ee574e" opacity="1.00" d=" M 51.10 343.15 L 52.51 343.27 C 55.44 343.52 58.37 343.72 61.30 343.90 C 62.00 343.96 63.40 344.09 64.10 344.15 C 64.17 344.59 64.32 345.47 64.39 345.91 C 64.16 354.19 63.92 362.47 63.66 370.75 C 60.52 371.10 57.76 372.65 55.04 374.14 C 55.02 372.56 54.65 370.90 55.35 369.42 C 57.96 367.75 62.30 368.36 63.57 365.07 C 62.20 359.50 58.75 354.74 56.34 349.59 C 54.92 347.24 54.14 343.87 51.10 343.15 Z" />
<path fill="#ee574e" opacity="1.00" d=" M 240.12 362.44 C 239.10 356.80 240.34 350.87 243.80 346.28 C 243.21 351.76 241.63 357.11 241.31 362.64 L 241.14 362.61 C 240.88 362.57 240.38 362.48 240.12 362.44 Z" />
<path fill="#ee574e" opacity="1.00" d=" M 103.54 348.25 C 105.73 348.14 107.92 348.19 110.10 348.26 C 110.31 348.27 110.71 348.28 110.92 348.29 C 111.79 349.96 112.65 351.68 113.89 353.13 C 121.96 362.08 130.84 370.56 137.03 381.00 C 139.57 386.74 143.22 391.84 146.36 397.25 C 145.72 397.24 144.44 397.20 143.80 397.19 L 143.28 397.17 C 137.74 387.53 130.90 378.71 124.28 369.79 C 119.52 363.90 114.93 357.80 109.35 352.64 C 107.76 351.04 105.59 350.33 103.39 350.14 L 102.82 350.10 C 103.00 349.64 103.36 348.72 103.54 348.25 Z" />
<path fill="#ee574e" opacity="1.00" d=" M 140.77 349.00 C 141.37 349.02 142.59 349.06 143.19 349.08 C 144.72 352.85 145.99 356.72 147.82 360.36 C 147.93 360.96 148.15 362.18 148.26 362.79 C 148.34 367.01 148.88 371.19 149.32 375.38 C 148.23 375.54 146.96 375.83 146.27 374.71 C 143.15 371.28 143.26 366.31 143.35 361.97 C 143.58 357.49 142.08 353.21 140.77 349.00 Z" />
<path fill="#ee574e" opacity="1.00" d=" M 104.21 363.19 C 110.25 367.60 116.11 372.32 121.42 377.61 C 123.14 379.42 125.28 381.28 125.24 384.00 C 117.52 380.50 111.70 374.10 104.57 369.68 C 104.54 369.35 104.49 368.69 104.47 368.37 C 104.37 366.64 104.29 364.91 104.21 363.19 Z" />
<path fill="#ee574e" opacity="1.00" d=" M 241.94 384.30 C 242.00 381.18 242.27 378.05 242.99 375.01 C 243.19 377.76 243.36 380.50 243.51 383.25 L 243.55 383.96 C 243.15 384.04 242.34 384.21 241.94 384.30 Z" />
<path fill="#ee574e" opacity="1.00" d=" M 11.64 383.41 C 13.88 383.54 16.12 383.68 18.35 383.83 C 19.05 383.89 20.45 383.99 21.15 384.04 L 21.14 384.30 L 21.12 385.55 C 21.01 390.12 21.21 394.70 21.27 399.28 L 21.28 399.84 C 19.51 400.25 17.74 400.67 15.97 401.10 C 12.80 395.80 11.71 389.50 11.64 383.41 Z" />
<path fill="#ee574e" opacity="1.00" d=" M 72.66 402.59 C 76.22 397.20 81.61 393.33 86.86 389.71 C 84.89 394.56 77.92 397.81 80.25 403.87 C 82.59 408.52 86.85 411.86 89.32 416.45 C 88.76 417.55 88.19 418.65 87.64 419.77 C 81.89 420.18 77.91 415.35 74.67 411.31 C 72.83 408.92 70.65 405.53 72.66 402.59 Z" />
<path fill="#ee574e" opacity="1.00" d=" M 84.17 397.54 C 84.90 397.48 86.35 397.36 87.08 397.29 C 87.12 400.74 87.19 404.18 87.21 407.63 C 84.63 405.06 80.82 401.11 84.17 397.54 Z" />
<path fill="#ee574e" opacity="1.00" d=" M 250.79 398.44 C 254.27 398.37 257.74 398.26 261.21 398.00 C 261.39 399.04 261.87 401.09 260.08 400.96 C 255.05 401.16 250.14 402.39 245.17 402.85 C 246.51 400.85 248.98 399.96 250.79 398.44 Z" />
<path fill="#ee574e" opacity="1.00" d=" M 232.45 404.31 L 232.93 404.45 C 234.35 404.90 235.77 405.37 237.19 405.84 C 237.13 407.45 237.15 409.08 236.91 410.69 C 232.01 417.28 229.57 425.23 228.42 433.28 C 228.28 435.12 227.45 436.76 226.28 438.16 C 226.64 426.61 230.11 415.53 232.45 404.31 Z" />
<path fill="#ee574e" opacity="1.00" d=" M 152.82 405.63 C 159.12 411.80 164.08 419.51 171.67 424.24 C 180.78 429.20 190.27 433.40 199.45 438.22 C 199.45 438.70 199.45 439.67 199.45 440.16 C 198.88 440.06 197.75 439.86 197.18 439.76 C 192.29 436.98 186.95 435.25 181.70 433.31 C 171.66 428.85 162.18 423.07 153.88 415.85 C 153.81 415.49 153.68 414.78 153.62 414.43 C 153.40 411.49 153.20 408.55 152.82 405.63 Z" />
<path fill="#ee574e" opacity="1.00" d=" M 75.72 427.76 C 81.50 425.38 87.58 427.85 93.43 428.51 L 92.79 428.54 C 92.41 428.55 91.66 428.57 91.29 428.59 C 85.06 429.21 78.87 430.07 72.64 430.66 C 73.53 429.56 74.25 428.16 75.72 427.76 Z" />
<path fill="#ee574e" opacity="1.00" d=" M 52.37 450.39 C 56.05 446.85 59.41 442.97 63.39 439.76 C 63.40 442.42 63.43 445.08 63.43 447.75 C 56.60 451.11 51.07 456.99 43.68 459.12 C 46.26 455.90 49.54 453.36 52.37 450.39 Z" />
<path fill="#ee574e" opacity="1.00" d=" M 214.73 441.35 C 215.40 441.32 216.73 441.26 217.40 441.23 L 217.80 441.23 C 219.56 443.26 221.76 444.80 223.99 446.26 L 224.04 447.31 C 219.91 448.72 215.23 445.66 214.73 441.35 Z" />
<path fill="#ee574e" opacity="1.00" d=" M 241.76 443.96 C 243.40 448.84 242.46 454.14 242.68 459.20 L 242.65 459.41 C 240.72 459.59 238.79 459.77 236.87 459.97 C 235.55 457.03 236.81 454.10 238.24 451.49 C 239.54 449.04 240.67 446.51 241.76 443.96 Z" />
<path fill="#ee574e" opacity="1.00" d=" M 201.61 461.33 C 202.52 459.27 203.58 457.28 204.81 455.40 C 210.05 458.18 215.87 459.09 221.70 459.62 C 215.18 461.56 208.32 461.13 201.61 461.33 Z" />
<path fill="#ee574e" opacity="1.00" d=" M 86.91 482.86 C 89.50 480.71 92.47 478.97 95.72 478.08 C 95.65 479.57 95.93 481.52 94.16 482.16 C 89.46 484.65 86.57 489.18 83.16 493.06 C 83.51 489.47 83.90 485.29 86.91 482.86 Z" />
<path fill="#ee574e" opacity="1.00" d=" M 239.46 488.71 C 241.88 488.38 244.30 488.08 246.74 487.86 C 247.69 489.93 249.99 489.87 251.93 490.20 C 252.06 490.90 252.32 492.30 252.45 493.00 C 249.28 495.95 244.93 496.91 240.74 495.93 C 240.14 493.56 239.68 491.14 239.46 488.71 Z" />
</g>
<g id="#45bf74ff">
<path fill="#45bf74" opacity="1.00" d=" M 102.65 39.41 C 106.14 31.08 112.33 23.79 119.90 18.88 C 118.97 21.98 118.45 25.18 118.14 28.41 C 118.02 28.97 117.76 30.11 117.63 30.68 C 116.91 31.07 116.19 31.45 115.46 31.83 C 110.90 33.84 106.81 36.71 102.65 39.41 Z" />
<path fill="#45bf74" opacity="1.00" d=" M 95.39 65.25 C 96.22 56.85 98.11 48.53 101.66 40.85 C 101.49 46.64 102.53 52.35 103.30 58.06 C 101.12 60.80 97.70 62.50 95.39 65.25 Z" />
<path fill="#45bf74" opacity="1.00" d=" M 103.20 58.80 C 105.89 57.12 108.64 55.56 111.39 54.00 C 113.63 56.92 116.63 59.08 120.10 60.29 C 120.32 60.46 120.78 60.81 121.00 60.98 C 115.80 64.20 110.75 67.74 106.37 72.03 C 104.79 67.76 103.89 63.29 103.20 58.80 Z" />
<path fill="#45bf74" opacity="1.00" d=" M 27.46 230.35 C 33.45 227.91 37.77 221.69 44.62 221.36 C 38.10 225.22 32.01 229.71 26.06 234.38 C 26.14 233.75 26.31 232.48 26.39 231.85 C 26.43 231.57 26.50 231.02 26.54 230.74 C 26.77 230.64 27.23 230.45 27.46 230.35 Z" />
<path fill="#45bf74" opacity="1.00" d=" M 179.07 223.05 C 179.61 223.21 180.70 223.54 181.25 223.70 C 183.29 235.68 183.67 247.88 184.02 260.00 C 182.70 250.22 180.95 240.45 180.14 230.62 C 180.43 228.42 180.25 226.18 179.41 224.12 L 179.07 223.05 Z" />
<path fill="#45bf74" opacity="1.00" d=" M 109.23 242.01 C 114.65 245.77 117.14 252.54 118.23 258.80 C 113.73 258.73 109.23 258.63 104.74 258.57 L 104.37 258.56 C 103.41 257.36 102.41 256.19 101.50 254.95 C 101.19 253.74 100.97 252.51 100.78 251.28 C 103.20 247.86 105.54 244.21 109.23 242.01 Z" />
<path fill="#45bf74" opacity="1.00" d=" M 181.21 258.09 C 182.35 267.38 183.52 276.68 184.19 286.02 C 184.00 291.99 185.48 298.40 183.38 304.09 C 182.30 298.17 182.79 292.13 182.44 286.16 C 182.03 278.39 181.73 270.61 181.16 262.85 C 180.08 262.58 179.00 262.34 177.92 262.11 C 178.85 262.20 180.69 262.37 181.61 262.46 C 181.49 261.00 181.36 259.54 181.21 258.09 Z" />
<path fill="#45bf74" opacity="1.00" d=" M 234.28 274.47 C 235.11 274.77 235.94 275.07 236.77 275.38 C 236.95 275.44 237.31 275.57 237.49 275.64 C 236.19 278.95 236.72 282.57 236.47 286.04 C 233.40 283.19 234.90 278.23 234.28 274.47 Z" />
<path fill="#45bf74" opacity="1.00" d=" M 106.95 301.97 C 107.45 301.87 108.43 301.66 108.93 301.56 C 112.67 306.17 111.31 312.83 110.45 318.29 C 109.51 325.76 105.80 332.55 104.95 340.03 C 105.73 343.22 108.36 345.56 110.10 348.26 C 107.92 348.19 105.73 348.14 103.54 348.25 C 103.36 348.72 103.00 349.64 102.82 350.10 C 100.90 352.27 99.09 354.93 99.71 358.00 C 99.86 360.60 102.34 361.87 104.21 363.19 C 104.29 364.91 104.37 366.64 104.47 368.37 C 99.62 365.38 95.53 361.31 91.86 357.00 C 95.28 354.49 98.22 351.43 100.62 347.95 C 101.21 347.93 102.38 347.91 102.97 347.89 C 103.27 341.60 103.29 335.30 103.86 329.03 C 104.65 323.06 105.62 317.11 106.19 311.11 C 106.67 308.08 105.98 304.89 106.95 301.97 Z" />
<path fill="#45bf74" opacity="1.00" d=" M 129.00 301.78 C 129.82 301.76 131.47 301.72 132.30 301.70 C 132.07 306.80 130.18 311.86 131.23 316.98 C 132.06 322.36 135.07 327.01 136.97 332.03 C 139.11 337.69 141.29 343.34 143.19 349.08 C 142.59 349.06 141.37 349.02 140.77 349.00 L 140.19 348.98 C 135.83 338.58 132.20 327.86 129.32 316.95 C 127.81 312.00 128.42 306.81 129.00 301.78 Z" />
<path fill="#45bf74" opacity="1.00" d=" M 250.21 321.55 C 250.58 321.99 251.32 322.89 251.69 323.33 C 251.37 326.51 250.64 329.64 249.26 332.54 C 249.31 328.85 249.94 325.21 250.21 321.55 Z" />
<path fill="#45bf74" opacity="1.00" d=" M 22.14 324.99 C 28.62 327.46 35.36 329.76 40.83 334.16 C 43.72 336.34 45.19 339.74 46.87 342.83 C 44.54 342.69 42.21 342.57 39.88 342.41 C 39.51 342.38 38.78 342.32 38.41 342.29 C 33.93 337.27 28.29 333.14 22.00 330.72 C 22.05 328.80 22.09 326.89 22.14 324.99 Z" />
<path fill="#45bf74" opacity="1.00" d=" M 49.15 331.85 C 53.36 335.70 57.32 339.82 61.30 343.90 C 58.37 343.72 55.44 343.52 52.51 343.27 C 51.18 339.53 48.32 336.04 49.15 331.85 Z" />
<path fill="#45bf74" opacity="1.00" d=" M 64.39 345.91 L 64.54 345.61 C 67.44 348.55 71.58 350.93 75.82 350.67 C 80.03 349.41 83.68 346.76 87.91 345.51 C 89.58 345.76 91.25 345.96 92.93 346.16 C 90.79 349.71 88.79 353.35 86.75 356.96 C 86.11 357.98 85.40 358.95 84.75 359.98 C 81.62 365.56 77.84 370.92 72.66 374.78 C 69.08 376.65 66.39 372.40 63.66 370.75 C 63.92 362.47 64.16 354.19 64.39 345.91 Z" />
<path fill="#45bf74" opacity="1.00" d=" M 240.12 362.44 C 240.38 362.48 240.88 362.57 241.14 362.61 C 240.12 377.04 238.61 391.44 237.19 405.84 C 235.77 405.37 234.35 404.90 232.93 404.45 C 234.43 397.22 236.30 390.03 237.10 382.68 C 231.56 386.76 227.56 392.47 222.72 397.29 C 222.70 396.78 222.66 395.76 222.64 395.25 C 227.79 386.63 234.00 378.67 239.13 370.03 C 240.55 367.75 240.33 365.00 240.12 362.44 Z" />
<path fill="#45bf74" opacity="1.00" d=" M 257.24 371.11 C 259.00 370.84 260.77 370.69 262.55 370.66 C 261.19 372.31 259.55 373.70 257.67 374.73 C 252.92 377.51 248.43 380.74 243.51 383.25 C 243.36 380.50 243.19 377.76 242.99 375.01 L 242.95 374.44 C 247.90 374.40 252.77 373.22 257.24 371.11 Z" />
<path fill="#45bf74" opacity="1.00" d=" M 11.22 374.98 C 11.42 376.24 11.64 377.49 11.87 378.75 C 14.13 380.30 16.32 381.98 18.35 383.83 C 16.12 383.68 13.88 383.54 11.64 383.41 L 11.08 383.37 C 11.33 380.58 11.40 377.77 11.22 374.98 Z" />
<path fill="#45bf74" opacity="1.00" d=" M 21.12 385.55 C 25.36 388.37 29.86 390.79 34.65 392.55 C 35.80 393.13 38.18 393.85 36.47 395.34 C 31.55 397.13 26.38 398.15 21.27 399.28 C 21.21 394.70 21.01 390.12 21.12 385.55 Z" />
<path fill="#45bf74" opacity="1.00" d=" M 84.17 397.54 C 86.87 394.88 89.04 391.77 90.98 388.54 C 92.69 391.92 89.82 394.67 88.00 397.22 C 87.77 397.24 87.31 397.28 87.08 397.29 C 86.35 397.36 84.90 397.48 84.17 397.54 Z" />
<path fill="#45bf74" opacity="1.00" d=" M 143.80 397.19 C 144.44 397.20 145.72 397.24 146.36 397.25 L 146.88 397.27 C 148.66 399.96 150.74 402.42 152.72 404.96 L 152.82 405.63 C 153.20 408.55 153.40 411.49 153.62 414.43 C 152.23 413.06 151.13 411.45 150.46 409.62 C 148.79 405.19 146.06 401.31 143.80 397.19 Z" />
<path fill="#45bf74" opacity="1.00" d=" M 128.01 405.93 C 137.22 411.19 145.40 418.21 154.85 423.03 C 154.98 424.06 155.12 425.10 155.25 426.14 C 148.97 422.52 143.33 417.93 137.50 413.65 C 134.28 411.16 130.78 408.96 128.01 405.93 Z" />
<path fill="#45bf74" opacity="1.00" d=" M 72.64 430.66 C 78.87 430.07 85.06 429.21 91.29 428.59 C 89.99 430.72 88.84 433.33 86.37 434.33 C 84.23 434.38 81.86 433.44 80.03 435.04 C 74.26 438.96 69.38 444.05 63.43 447.75 C 63.43 445.08 63.40 442.42 63.39 439.76 L 63.39 439.14 C 66.24 436.57 69.04 433.93 71.31 430.84 C 71.64 430.79 72.31 430.70 72.64 430.66 Z" />
<path fill="#45bf74" opacity="1.00" d=" M 236.87 459.97 C 238.79 459.77 240.72 459.59 242.65 459.41 C 241.09 464.87 240.51 470.85 243.15 476.09 C 245.84 475.64 248.11 474.09 250.40 472.71 L 250.46 473.88 C 249.00 475.60 247.08 477.00 246.06 479.04 C 245.20 481.88 246.04 484.86 246.67 487.66 L 246.74 487.86 C 244.30 488.08 241.88 488.38 239.46 488.71 L 239.30 488.73 C 238.94 484.52 240.03 480.32 239.42 476.12 C 238.69 470.72 237.93 465.31 236.87 459.97 Z" />
<path fill="#45bf74" opacity="1.00" d=" M 63.90 467.61 C 63.99 466.61 64.09 465.62 64.20 464.63 C 72.27 467.15 80.61 468.81 88.52 471.89 C 86.38 472.18 84.21 472.24 82.05 472.19 C 75.96 470.84 69.91 469.28 63.90 467.61 Z" />
<path fill="#45bf74" opacity="1.00" d=" M 41.24 480.77 C 42.25 481.06 43.22 481.45 44.15 481.94 C 52.40 488.56 59.66 497.38 70.26 500.24 C 70.64 501.65 70.97 503.07 71.31 504.51 C 60.88 500.26 52.27 492.71 42.93 486.62 L 42.44 486.32 C 41.92 485.27 41.37 484.23 41.00 483.13 C 41.06 482.54 41.18 481.36 41.24 480.77 Z" />
</g>
<g id="#00732cff">
<path fill="#00732c" opacity="1.00" d=" M 179.41 224.12 C 180.25 226.18 180.43 228.42 180.14 230.62 C 178.29 229.69 178.38 225.83 179.41 224.12 Z" />
</g>
<g id="#2fa252ff">
<path fill="#2fa252" opacity="1.00" d=" M 230.44 237.26 C 229.99 235.03 229.23 232.80 229.53 230.49 C 232.08 232.80 233.75 235.87 234.73 239.13 C 233.53 238.61 232.34 238.08 231.15 237.57 C 230.97 237.49 230.62 237.34 230.44 237.26 Z" />
</g>
<g id="#ee4c42ff">
<path fill="#ee4c42" opacity="1.00" d=" M 243.89 363.09 C 250.17 358.52 254.34 351.39 261.32 347.77 C 260.87 350.43 258.61 352.05 256.82 353.83 C 252.37 357.95 248.33 362.52 243.61 366.35 C 243.68 365.54 243.82 363.91 243.89 363.09 Z" />
</g>
<g id="#6e9a5eff">
<path fill="#6e9a5e" opacity="1.00" d=" M 148.26 362.79 C 149.42 366.85 149.97 371.06 149.66 375.29 L 149.32 375.38 C 148.88 371.19 148.34 367.01 148.26 362.79 Z" />
</g>
<g id="#3ca554ff">
<path fill="#3ca554" opacity="1.00" d=" M 105.49 382.86 C 105.69 385.35 105.94 387.83 106.08 390.33 C 103.37 388.31 100.48 386.40 98.55 383.55 C 100.86 384.77 103.03 386.21 105.23 387.60 C 105.34 386.02 105.43 384.44 105.49 382.86 Z" />
</g>
<g id="#d35540ff">
<path fill="#d35540" opacity="1.00" d=" M 222.61 394.72 L 222.64 395.25 C 222.66 395.76 222.70 396.78 222.72 397.29 L 222.71 397.95 C 221.93 399.22 221.09 400.45 220.13 401.60 L 219.58 401.58 C 219.19 401.55 218.40 401.50 218.01 401.47 C 219.65 399.29 221.18 397.04 222.61 394.72 Z" />
</g>
<g id="#39b05eff">
<path fill="#39b05e" opacity="1.00" d=" M 213.88 401.13 C 215.25 401.24 216.63 401.35 218.01 401.47 C 218.40 401.50 219.19 401.55 219.58 401.58 C 217.76 404.91 216.15 408.81 212.48 410.49 C 213.76 407.45 215.78 404.82 217.32 401.92 C 216.17 401.63 215.03 401.37 213.88 401.13 Z" />
</g>
<g id="#36bb69ff">
<path fill="#36bb69" opacity="1.00" d=" M 201.75 420.75 C 204.70 421.65 206.48 424.27 208.37 426.51 C 211.92 431.04 215.45 435.75 217.40 441.23 C 216.73 441.26 215.40 441.32 214.73 441.35 C 214.11 432.72 205.86 427.69 201.75 420.75 Z" />
</g>
<g id="#3eba6bff">
<path fill="#3eba6b" opacity="1.00" d=" M 107.83 421.68 C 111.06 425.98 114.64 430.24 116.40 435.41 C 113.08 433.44 111.34 429.82 108.28 427.54 C 108.05 425.59 107.83 423.64 107.83 421.68 Z" />
</g>
<g id="#d48271ff">
<path fill="#d48271" opacity="1.00" d=" M 151.09 437.52 C 152.89 437.42 154.70 437.29 156.50 437.17 C 156.53 437.34 156.57 437.67 156.60 437.83 C 156.62 438.71 156.66 440.47 156.68 441.35 L 156.53 440.60 C 156.71 439.21 154.54 437.91 153.99 439.63 C 154.63 439.87 155.90 440.36 156.53 440.60 C 154.62 444.37 150.09 440.92 151.09 437.52 Z" />
</g>
<g id="#e9aba7ff">
<path fill="#e9aba7" opacity="1.00" d=" M 134.80 437.73 L 135.35 437.73 C 136.08 439.07 136.21 440.47 135.76 441.94 C 134.66 440.87 134.40 439.16 134.80 437.73 Z" />
</g>
<g id="#e9a8a5ff">
<path fill="#e9a8a5" opacity="1.00" d=" M 137.65 437.70 C 138.21 437.69 139.33 437.68 139.90 437.67 C 140.14 439.18 140.37 440.70 140.57 442.23 C 139.59 442.20 137.63 442.14 136.65 442.10 C 136.59 441.43 136.46 440.09 136.40 439.41 C 137.03 439.44 138.29 439.48 138.92 439.51 C 138.60 439.06 137.96 438.15 137.65 437.70 Z" />
</g>
<g id="#ea9893ff">
<path fill="#ea9893" opacity="1.00" d=" M 146.00 437.63 C 146.50 437.63 147.49 437.63 147.99 437.63 C 148.92 438.84 149.07 440.35 149.19 441.83 C 148.62 442.07 147.48 442.53 146.90 442.76 C 145.46 441.36 145.75 439.44 146.00 437.63 Z" />
</g>
<g id="#e8c7c5ff">
<path fill="#e8c7c5" opacity="1.00" d=" M 131.64 441.79 C 130.34 442.01 130.36 438.57 131.67 438.81 C 131.66 439.56 131.65 441.05 131.64 441.79 Z" />
</g>
<g id="#e7dedeff">
<path fill="#e7dede" opacity="1.00" d=" M 133.01 438.74 C 134.31 438.49 134.61 441.93 133.32 441.81 C 133.24 441.04 133.09 439.51 133.01 438.74 Z" />
</g>
<g id="#e9b2aeff">
<path fill="#e9b2ae" opacity="1.00" d=" M 141.09 439.03 L 143.05 437.85 C 142.83 438.65 142.40 440.24 142.18 441.04 C 142.55 441.00 143.28 440.90 143.64 440.86 C 143.52 440.14 143.27 438.72 143.14 438.00 C 146.42 437.79 145.08 441.44 144.89 443.23 C 143.07 442.57 139.50 441.72 141.09 439.03 Z" />
</g>
<g id="#f03125ff">
<path fill="#f03125" opacity="1.00" d=" M 153.99 439.63 C 154.54 437.91 156.71 439.21 156.53 440.60 C 155.90 440.36 154.63 439.87 153.99 439.63 Z" />
</g>
<g id="#ea8a83ff">
<path fill="#ea8a83" opacity="1.00" d=" M 112.41 442.49 C 113.54 441.50 114.69 440.54 115.85 439.59 C 115.47 441.23 114.48 442.94 115.29 444.63 C 116.53 448.28 115.89 452.19 116.01 455.98 C 114.14 456.80 112.30 457.71 110.56 458.80 C 110.50 458.16 110.38 456.89 110.33 456.25 C 111.46 455.88 112.61 455.53 113.77 455.21 C 113.70 454.78 113.57 453.93 113.51 453.50 C 113.94 450.86 114.13 448.19 114.03 445.52 C 112.80 445.58 111.62 445.82 110.47 446.23 L 109.66 446.83 C 109.60 446.43 109.49 445.64 109.44 445.24 C 109.36 444.96 109.21 444.40 109.13 444.11 C 110.80 444.02 112.46 443.90 114.13 443.82 C 113.70 443.49 112.84 442.82 112.41 442.49 Z" />
</g>
<g id="#ed5147ff">
<path fill="#ed5147" opacity="1.00" d=" M 201.46 440.60 C 202.10 440.75 203.36 441.05 204.00 441.20 C 205.24 443.36 206.90 445.71 206.50 448.34 C 205.67 452.00 203.39 455.14 200.71 457.68 C 200.68 456.28 200.67 454.89 200.67 453.50 C 204.12 450.81 204.94 445.51 201.46 442.49 C 201.46 442.01 201.46 441.07 201.46 440.60 Z" />
</g>
<g id="#e9aaa6ff">
<path fill="#e9aaa6" opacity="1.00" d=" M 142.51 443.19 C 143.09 443.82 143.09 443.82 142.51 443.19 Z" />
</g>
<g id="#ed1f13ff">
<path fill="#ed1f13" opacity="1.00" d=" M 200.67 453.50 C 200.50 449.81 200.71 446.10 201.46 442.49 C 204.94 445.51 204.12 450.81 200.67 453.50 Z" />
</g>
<g id="#6fc088ff">
<path fill="#6fc088" opacity="1.00" d=" M 105.87 444.21 C 106.68 444.19 108.32 444.14 109.13 444.11 C 109.21 444.40 109.36 444.96 109.44 445.24 C 108.58 445.41 106.87 445.75 106.01 445.92 C 106.14 448.68 105.52 451.61 106.64 454.24 C 106.91 454.55 107.45 455.17 107.72 455.48 C 108.58 455.74 109.45 456.00 110.33 456.25 C 110.38 456.89 110.50 458.16 110.56 458.80 C 110.64 459.04 110.80 459.53 110.88 459.77 L 110.58 459.59 C 108.92 457.95 106.70 457.21 104.67 456.19 C 104.16 452.31 102.97 447.39 105.87 444.21 Z" />
</g>
<g id="#e7cfcdff">
<path fill="#e7cfcd" opacity="1.00" d=" M 118.63 455.18 C 119.85 451.40 120.59 447.22 123.04 444.03 C 125.58 447.20 126.35 451.42 127.48 455.25 C 125.95 455.25 125.04 454.41 124.74 452.71 C 122.60 452.22 120.89 453.00 120.14 455.10 L 118.63 455.18 M 122.16 450.93 C 123.82 452.34 125.22 449.35 123.70 448.36 C 122.30 447.37 121.16 449.98 122.16 450.93 Z" />
</g>
<g id="#dfe4e1ff">
<path fill="#dfe4e1" opacity="1.00" d=" M 106.01 445.92 C 106.87 445.75 108.58 445.41 109.44 445.24 C 109.49 445.64 109.60 446.43 109.66 446.83 C 108.66 449.30 107.51 451.71 106.64 454.24 C 105.52 451.61 106.14 448.68 106.01 445.92 Z" />
</g>
<g id="#e7dfdeff">
<path fill="#e7dfde" opacity="1.00" d=" M 110.47 446.23 C 111.62 445.82 112.80 445.58 114.03 445.52 C 114.13 448.19 113.94 450.86 113.51 453.50 C 112.50 451.07 111.46 448.66 110.47 446.23 Z" />
</g>
<g id="#e6e7e7ff">
<path fill="#e6e7e7" opacity="1.00" d=" M 148.59 447.72 C 148.65 447.27 148.78 446.36 148.84 445.91 L 150.00 446.00 C 150.13 446.36 150.39 447.08 150.52 447.44 C 150.96 447.77 151.84 448.42 152.28 448.75 C 149.04 448.35 149.44 454.63 152.22 454.26 C 151.99 456.39 150.22 455.29 148.94 455.02 C 148.52 452.66 148.58 450.25 148.68 447.88 C 147.84 448.41 146.18 449.46 145.35 449.98 C 144.95 451.83 146.15 454.57 144.14 455.72 C 142.81 454.64 143.88 452.55 143.58 451.17 C 141.51 451.90 139.32 451.94 137.15 451.97 C 137.82 454.41 140.32 454.01 142.23 453.65 C 141.95 456.76 136.20 455.71 135.73 452.89 C 134.22 449.56 138.60 445.97 141.39 448.57 C 141.89 449.23 142.88 450.54 143.38 451.20 C 143.46 450.32 143.62 448.56 143.70 447.69 C 145.29 448.36 146.96 447.98 148.59 447.72 M 138.02 449.35 C 136.73 450.84 139.59 451.75 140.51 450.76 C 141.35 449.40 138.92 448.26 138.02 449.35 Z" />
</g>
<g id="#d7ddd6ff">
<path fill="#d7ddd6" opacity="1.00" d=" M 152.83 452.91 C 151.73 450.03 154.22 447.46 157.06 447.49 C 160.90 448.51 161.21 454.09 157.56 455.62 C 155.71 455.44 153.22 455.17 152.83 452.91 M 157.19 453.73 C 159.04 453.62 159.20 449.18 156.95 449.92 L 156.88 448.89 C 153.76 449.14 153.71 454.66 157.19 453.73 Z" />
</g>
<g id="#ed6d65ff">
<path fill="#ed6d65" opacity="1.00" d=" M 138.02 449.35 C 138.92 448.26 141.35 449.40 140.51 450.76 C 139.59 451.75 136.73 450.84 138.02 449.35 Z" />
</g>
<g id="#a9d8bcff">
<path fill="#a9d8bc" opacity="1.00" d=" M 185.57 452.58 C 187.00 451.06 189.17 451.98 190.95 451.93 C 190.96 452.85 190.97 454.70 190.98 455.62 C 189.93 455.05 189.39 454.10 189.34 452.77 L 189.02 453.91 C 188.51 456.74 187.61 452.71 186.35 452.93 C 186.16 452.84 185.77 452.67 185.57 452.58 Z" />
</g>
<g id="#39bc6bff">
<path fill="#39bc6b" opacity="1.00" d=" M 196.38 461.01 C 196.32 459.79 197.17 458.74 198.27 458.32 C 199.30 459.42 197.83 461.86 196.38 461.01 Z" />
</g>
<g id="#46b76cff">
<path fill="#46b76c" opacity="1.00" d=" M 251.77 489.24 C 253.70 489.13 255.64 489.02 257.58 488.94 C 255.98 490.49 254.28 491.95 252.51 493.32 L 252.45 493.00 C 252.32 492.30 252.06 490.90 251.93 490.20 L 251.77 489.24 Z" />
</g>
</svg>
