<?xml version="1.0" encoding="UTF-8" ?>
<!DOCTYPE svg PUBLIC "-//W3C//DTD SVG 1.1//EN" "http://www.w3.org/Graphics/SVG/1.1/DTD/svg11.dtd">
<svg width="279pt" height="547pt" viewBox="0 0 279 547" version="1.1" xmlns="http://www.w3.org/2000/svg">
<g id="#ffffffff">
<path fill="#ffffff" opacity="1.00" d=" M 0.00 0.00 L 279.00 0.00 L 279.00 547.00 L 0.00 547.00 L 0.00 0.00 M 123.88 13.79 C 110.84 21.05 101.00 33.62 96.77 47.91 C 90.68 66.72 92.28 87.05 96.86 106.01 C 100.18 108.80 100.99 113.60 104.73 116.09 C 103.37 120.65 101.84 125.25 99.31 129.32 C 97.68 132.11 93.87 133.33 93.35 136.78 C 92.50 141.51 92.93 146.66 95.35 150.90 C 96.32 152.67 97.39 154.94 96.04 156.83 C 94.11 159.60 91.69 162.02 90.09 165.02 C 85.78 171.72 88.88 180.09 91.60 186.80 C 78.55 188.21 65.71 192.24 54.79 199.64 C 35.32 212.54 20.95 232.07 11.40 253.17 C 6.14 271.25 6.31 290.30 6.23 308.96 C 5.25 321.32 2.95 333.59 2.99 346.02 C 2.84 350.13 4.58 353.90 5.56 357.80 C 7.12 364.09 8.60 370.47 8.72 376.98 C 8.46 385.99 9.04 395.00 8.95 404.02 C 10.41 411.97 15.10 418.95 16.62 426.92 C 18.89 439.54 19.36 452.76 24.75 464.60 C 27.23 470.22 32.59 473.78 35.55 479.09 C 39.22 485.41 41.80 492.28 44.95 498.86 C 46.44 502.28 48.41 505.57 51.32 507.98 C 56.50 512.29 61.54 517.15 64.37 523.37 C 66.73 529.33 64.75 535.80 65.54 541.97 C 65.73 543.00 66.67 544.88 67.99 544.02 C 80.46 539.46 93.35 533.01 107.01 535.09 C 105.86 521.66 103.51 508.33 100.48 495.21 C 98.91 488.74 100.90 481.74 98.30 475.49 C 96.01 471.88 93.25 468.12 94.07 463.55 C 102.04 462.91 110.05 462.67 118.03 463.30 C 129.64 464.48 141.32 463.67 152.97 463.96 C 168.95 464.49 184.94 463.69 200.92 464.04 C 212.14 464.09 224.34 464.12 234.12 457.85 C 235.36 463.84 236.52 469.86 237.00 475.97 C 237.81 480.30 236.58 484.66 237.22 489.01 C 237.53 494.49 239.99 499.56 240.19 505.06 C 240.50 509.58 242.30 513.81 243.75 518.06 C 244.80 520.43 245.26 523.42 247.81 524.72 C 250.71 521.63 254.60 519.31 258.92 519.14 C 263.99 518.46 268.91 520.49 273.95 520.27 C 276.06 519.97 275.51 517.46 275.13 516.07 C 273.04 508.11 270.37 500.22 269.60 491.99 C 269.34 484.66 269.56 477.34 269.85 470.02 C 270.09 467.91 268.91 466.06 268.41 464.10 C 268.79 462.02 269.79 460.13 270.32 458.10 C 270.24 455.68 268.00 454.55 266.38 453.22 C 267.34 451.26 268.95 449.34 268.60 447.02 C 267.31 431.36 267.06 415.62 267.69 399.93 C 268.27 390.64 268.91 381.34 268.48 372.04 C 267.50 349.21 261.05 327.18 256.10 305.01 C 253.69 294.53 253.63 283.71 251.48 273.18 C 249.27 261.98 246.37 250.78 241.29 240.50 C 239.29 236.91 237.24 232.87 233.34 231.05 C 230.44 228.15 227.52 225.27 224.21 222.86 C 213.02 214.53 201.00 207.35 188.66 200.87 C 188.47 192.59 188.55 184.30 188.36 176.03 C 188.56 174.87 187.35 172.55 186.19 174.25 C 183.16 177.50 180.17 180.84 177.50 184.40 C 176.58 191.47 176.83 198.66 176.02 205.74 C 175.49 205.90 174.44 206.23 173.91 206.39 C 173.41 198.93 173.22 191.44 172.64 183.99 C 172.66 182.67 171.22 182.23 170.34 181.60 C 154.09 172.35 137.90 162.97 121.65 153.72 C 119.55 152.15 117.01 153.74 115.32 155.15 C 110.83 159.26 109.21 165.38 107.57 171.02 C 106.44 174.74 106.55 179.00 103.84 182.08 C 99.36 175.29 100.61 166.72 100.08 159.02 C 100.30 151.60 98.07 144.34 98.64 136.94 C 103.83 139.08 107.29 144.03 112.67 145.82 C 109.98 134.13 113.18 122.11 117.23 111.13 C 119.05 105.76 123.39 101.59 124.60 95.98 C 126.26 88.60 125.69 80.98 125.18 73.51 C 140.96 67.38 158.06 64.45 174.99 65.10 C 186.30 65.65 198.19 68.47 206.77 76.27 C 208.45 79.17 208.71 82.66 208.69 85.94 C 208.07 103.67 207.34 121.40 206.31 139.11 C 206.16 140.94 206.16 142.82 205.63 144.60 C 202.07 149.09 196.62 151.96 193.79 157.02 C 194.70 160.17 196.64 163.74 200.04 164.61 C 205.16 162.90 209.51 159.03 212.58 154.64 C 215.19 151.27 211.97 147.45 211.77 143.87 C 210.22 130.37 211.80 116.77 213.24 103.33 C 218.35 99.15 223.46 94.72 226.95 89.05 C 229.73 84.77 234.28 81.39 235.31 76.17 C 237.23 68.23 235.72 59.63 230.86 53.03 C 228.42 43.06 224.63 33.09 217.69 25.32 C 207.97 13.89 193.60 7.28 178.97 4.95 C 160.33 1.31 140.43 4.46 123.88 13.79 Z" />
<path fill="#ffffff" opacity="1.00" d=" M 102.09 84.17 C 105.21 82.69 108.67 81.16 112.19 82.10 C 115.70 83.07 117.48 87.68 115.73 90.82 C 111.86 98.87 107.93 106.90 104.57 115.18 C 102.18 108.96 99.73 102.64 99.15 95.96 C 99.26 91.87 100.47 87.89 102.09 84.17 Z" />
<path fill="#ffffff" opacity="1.00" d=" M 129.62 442.55 C 128.34 440.78 128.40 438.24 129.57 436.44 C 129.77 438.46 129.79 440.51 129.62 442.55 Z" />
<path fill="#ffffff" opacity="1.00" d=" M 158.45 438.74 C 159.36 437.83 160.54 437.33 161.71 436.85 C 161.70 438.54 161.61 440.23 161.58 441.93 C 160.90 441.91 159.54 441.88 158.85 441.87 C 159.85 440.64 160.78 439.35 161.55 437.97 C 160.77 438.16 159.22 438.54 158.45 438.74 Z" />
<path fill="#ffffff" opacity="1.00" d=" M 163.05 441.65 C 163.32 440.00 162.72 437.77 164.59 436.91 C 165.79 438.86 167.98 437.98 169.58 437.27 C 169.51 438.78 169.47 440.31 169.44 441.83 C 169.21 441.86 168.76 441.92 168.54 441.94 C 168.47 440.99 168.33 439.07 168.27 438.12 C 167.21 439.20 166.37 440.47 165.56 441.75 C 164.93 441.73 163.68 441.68 163.05 441.65 M 164.38 438.39 C 163.54 439.66 163.76 440.43 165.05 440.70 C 165.91 439.44 165.68 438.67 164.38 438.39 Z" />
<path fill="#ffffff" opacity="1.00" d=" M 171.34 437.25 C 172.37 437.31 173.41 437.40 174.44 437.52 C 173.76 437.67 172.41 437.98 171.73 438.13 C 173.41 438.75 175.23 440.78 172.01 440.36 L 171.98 441.41 C 172.65 441.32 173.98 441.14 174.65 441.05 C 173.77 441.62 172.90 442.17 172.01 442.73 C 171.27 440.98 171.07 439.12 171.34 437.25 Z" />
<path fill="#ffffff" opacity="1.00" d=" M 111.06 442.82 C 111.39 441.42 111.74 440.02 112.09 438.64 C 112.30 439.88 112.51 441.12 112.71 442.37 C 113.04 442.74 113.68 443.50 114.00 443.88 C 111.82 443.84 109.64 443.82 107.46 443.81 C 107.48 444.13 107.53 444.77 107.55 445.09 C 107.15 445.25 106.36 445.57 105.96 445.73 L 105.04 446.13 C 105.38 445.68 106.06 444.77 106.41 444.31 C 105.90 442.80 105.39 441.30 104.95 439.77 C 105.54 440.72 106.74 442.63 107.33 443.58 L 107.62 440.23 C 108.37 440.86 109.14 441.48 109.93 442.09 L 111.06 442.82 Z" />
<path fill="#ffffff" opacity="1.00" d=" M 146.21 439.36 C 147.79 438.87 148.09 441.43 147.54 442.42 C 146.13 442.81 145.00 440.23 146.21 439.36 Z" />
<path fill="#ffffff" opacity="1.00" d=" M 128.59 452.94 C 128.51 449.91 128.07 446.67 129.45 443.85 C 130.59 447.81 130.09 451.98 130.74 456.02 C 129.91 455.07 128.46 454.38 128.59 452.94 Z" />
<path fill="#ffffff" opacity="1.00" d=" M 148.79 445.56 C 149.26 446.05 150.21 447.02 150.68 447.50 C 151.06 447.72 151.83 448.14 152.21 448.36 C 149.24 448.81 149.36 453.81 151.98 454.48 C 151.86 454.84 151.62 455.54 151.49 455.90 C 146.91 454.63 149.10 449.02 148.79 445.56 Z" />
<path fill="#ffffff" opacity="1.00" d=" M 143.92 447.78 C 145.30 447.98 146.68 448.16 148.07 448.38 C 147.17 448.91 146.27 449.45 145.36 449.99 C 145.18 452.04 144.96 454.10 144.74 456.16 C 144.08 454.78 143.65 453.25 142.78 452.00 C 142.39 451.88 141.62 451.64 141.23 451.52 C 139.60 451.87 137.99 452.30 136.40 452.77 C 138.19 453.30 140.01 453.76 141.81 454.27 L 142.20 455.36 C 139.98 455.20 136.61 455.75 135.83 452.95 C 134.71 450.68 136.95 448.86 138.05 447.16 C 139.62 448.02 141.17 448.90 142.75 449.76 C 143.04 449.26 143.62 448.27 143.92 447.78 M 138.12 449.27 C 137.59 450.82 138.19 451.33 139.90 450.80 C 140.42 449.24 139.83 448.73 138.12 449.27 Z" />
<path fill="#ffffff" opacity="1.00" d=" M 161.38 447.68 C 163.17 447.87 164.97 447.94 166.73 448.36 C 168.17 449.33 167.79 451.49 167.92 453.01 C 167.72 453.98 168.23 456.19 166.52 455.50 C 166.27 453.45 166.29 451.38 166.20 449.33 C 165.37 449.38 163.73 449.50 162.91 449.56 C 162.38 451.25 164.07 455.61 161.52 455.56 C 161.20 452.94 161.34 450.30 161.38 447.68 Z" />
<path fill="#ffffff" opacity="1.00" d=" M 153.50 448.52 C 155.83 447.47 159.88 447.55 159.91 450.92 C 160.89 454.14 156.84 456.81 154.26 454.72 C 152.03 453.36 152.81 450.53 153.50 448.52 M 154.61 449.46 C 154.57 450.84 154.55 452.23 154.54 453.62 C 156.25 454.01 158.50 454.01 158.46 451.68 C 158.67 449.32 156.37 449.06 154.61 449.46 Z" />
</g>
<g id="#000000ff">
<path fill="#000000" opacity="1.00" d=" M 123.88 13.79 C 140.43 4.46 160.33 1.31 178.97 4.95 C 193.60 7.28 207.97 13.89 217.69 25.32 C 224.63 33.09 228.42 43.06 230.86 53.03 C 235.72 59.63 237.23 68.23 235.31 76.17 C 234.28 81.39 229.73 84.77 226.95 89.05 C 223.46 94.72 218.35 99.15 213.24 103.33 C 211.80 116.77 210.22 130.37 211.77 143.87 C 211.97 147.45 215.19 151.27 212.58 154.64 C 209.51 159.03 205.16 162.90 200.04 164.61 C 196.64 163.74 194.70 160.17 193.79 157.02 C 196.62 151.96 202.07 149.09 205.63 144.60 C 206.16 142.82 206.16 140.94 206.31 139.11 C 207.34 121.40 208.07 103.67 208.69 85.94 C 208.71 82.66 208.45 79.17 206.77 76.27 C 198.19 68.47 186.30 65.65 174.99 65.10 C 158.06 64.45 140.96 67.38 125.18 73.51 C 125.69 80.98 126.26 88.60 124.60 95.98 C 123.39 101.59 119.05 105.76 117.23 111.13 C 113.18 122.11 109.98 134.13 112.67 145.82 C 107.29 144.03 103.83 139.08 98.64 136.94 C 98.07 144.34 100.30 151.60 100.08 159.02 C 100.61 166.72 99.36 175.29 103.84 182.08 C 106.55 179.00 106.44 174.74 107.57 171.02 C 109.21 165.38 110.83 159.26 115.32 155.15 C 117.01 153.74 119.55 152.15 121.65 153.72 C 137.90 162.97 154.09 172.35 170.34 181.60 C 171.22 182.23 172.66 182.67 172.64 183.99 C 173.22 191.44 173.41 198.93 173.91 206.39 C 174.44 206.23 175.49 205.90 176.02 205.74 C 176.83 198.66 176.58 191.47 177.50 184.40 C 180.17 180.84 183.16 177.50 186.19 174.25 C 187.35 172.55 188.56 174.87 188.36 176.03 C 188.55 184.30 188.47 192.59 188.66 200.87 C 201.00 207.35 213.02 214.53 224.21 222.86 C 227.52 225.27 230.44 228.15 233.34 231.05 C 237.24 232.87 239.29 236.91 241.29 240.50 C 246.37 250.78 249.27 261.98 251.48 273.18 C 253.63 283.71 253.69 294.53 256.10 305.01 C 261.05 327.18 267.50 349.21 268.48 372.04 C 268.91 381.34 268.27 390.64 267.69 399.93 C 267.06 415.62 267.31 431.36 268.60 447.02 C 268.95 449.34 267.34 451.26 266.38 453.22 C 268.00 454.55 270.24 455.68 270.32 458.10 C 269.79 460.13 268.79 462.02 268.41 464.10 C 268.91 466.06 270.09 467.91 269.85 470.02 C 269.56 477.34 269.34 484.66 269.60 491.99 C 270.37 500.22 273.04 508.11 275.13 516.07 C 275.51 517.46 276.06 519.97 273.95 520.27 C 268.91 520.49 263.99 518.46 258.92 519.14 C 254.60 519.31 250.71 521.63 247.81 524.72 C 245.26 523.42 244.80 520.43 243.75 518.06 C 242.30 513.81 240.50 509.58 240.19 505.06 C 239.99 499.56 237.53 494.49 237.22 489.01 C 236.58 484.66 237.81 480.30 237.00 475.97 C 236.52 469.86 235.36 463.84 234.12 457.85 C 224.34 464.12 212.14 464.09 200.92 464.04 C 184.94 463.69 168.95 464.49 152.97 463.96 C 141.32 463.67 129.64 464.48 118.03 463.30 C 110.05 462.67 102.04 462.91 94.07 463.55 C 93.25 468.12 96.01 471.88 98.30 475.49 C 100.90 481.74 98.91 488.74 100.48 495.21 C 103.51 508.33 105.86 521.66 107.01 535.09 C 93.35 533.01 80.46 539.46 67.99 544.02 C 66.67 544.88 65.73 543.00 65.54 541.97 C 64.75 535.80 66.73 529.33 64.37 523.37 C 61.54 517.15 56.50 512.29 51.32 507.98 C 48.41 505.57 46.44 502.28 44.95 498.86 C 41.80 492.28 39.22 485.41 35.55 479.09 C 32.59 473.78 27.23 470.22 24.75 464.60 C 19.36 452.76 18.89 439.54 16.62 426.92 C 15.10 418.95 10.41 411.97 8.95 404.02 C 9.04 395.00 8.46 385.99 8.72 376.98 C 8.60 370.47 7.12 364.09 5.56 357.80 C 4.58 353.90 2.84 350.13 2.99 346.02 C 2.95 333.59 5.25 321.32 6.23 308.96 C 6.31 290.30 6.14 271.25 11.40 253.17 C 20.95 232.07 35.32 212.54 54.79 199.64 C 65.71 192.24 78.55 188.21 91.60 186.80 C 88.88 180.09 85.78 171.72 90.09 165.02 C 91.69 162.02 94.11 159.60 96.04 156.83 C 97.39 154.94 96.32 152.67 95.35 150.90 C 92.93 146.66 92.50 141.51 93.35 136.78 C 93.87 133.33 97.68 132.11 99.31 129.32 C 101.84 125.25 103.37 120.65 104.73 116.09 C 100.99 113.60 100.18 108.80 96.86 106.01 C 92.28 87.05 90.68 66.72 96.77 47.91 C 101.00 33.62 110.84 21.05 123.88 13.79 M 130.56 12.42 L 130.27 12.86 C 119.36 17.45 109.92 25.67 104.16 36.04 C 94.93 51.92 94.03 70.97 95.60 88.84 C 99.44 76.12 110.42 67.51 121.26 60.80 C 126.81 57.40 133.31 56.08 138.96 52.91 C 159.66 37.77 187.78 34.51 212.04 42.01 C 217.25 43.40 221.79 46.35 226.59 48.70 C 224.11 36.80 217.09 25.89 207.30 18.71 C 196.00 10.23 181.78 6.72 167.92 5.52 C 155.13 4.49 142.38 7.76 130.56 12.42 M 160.07 44.29 C 155.67 45.80 151.15 47.30 147.44 50.20 C 154.29 49.71 161.01 47.93 167.91 48.03 C 184.94 47.28 202.81 50.99 216.43 61.71 C 222.89 66.49 228.09 73.61 228.46 81.88 C 236.25 73.05 233.76 58.19 224.93 50.96 C 218.19 45.61 209.72 43.06 201.39 41.52 C 187.66 39.05 173.33 39.91 160.07 44.29 M 102.09 84.17 C 100.47 87.89 99.26 91.87 99.15 95.96 C 99.73 102.64 102.18 108.96 104.57 115.18 C 107.93 106.90 111.86 98.87 115.73 90.82 C 117.48 87.68 115.70 83.07 112.19 82.10 C 108.67 81.16 105.21 82.69 102.09 84.17 M 113.41 161.36 C 109.04 168.16 109.61 176.79 105.36 183.62 C 109.99 188.88 114.33 194.39 118.47 200.04 C 120.04 202.49 120.94 205.26 121.27 208.14 C 121.41 209.26 122.03 211.10 123.25 211.13 C 127.51 212.21 131.99 211.77 136.20 213.10 C 135.00 218.05 128.78 218.13 124.85 219.68 C 122.81 219.34 120.16 220.05 118.74 218.15 C 116.34 214.78 116.53 210.19 114.01 206.93 C 110.51 204.37 106.53 202.51 103.15 199.76 C 98.88 196.67 95.62 192.49 92.44 188.36 L 92.43 188.27 C 85.38 190.76 77.76 190.97 70.81 193.81 C 53.93 200.28 39.75 212.54 29.01 226.90 C 28.04 228.18 27.41 229.68 26.84 231.18 C 24.58 232.95 23.40 235.68 21.83 238.01 C 29.04 231.57 36.98 226.00 45.24 220.99 C 46.80 220.63 48.33 220.16 49.87 219.69 L 49.43 218.88 C 52.52 218.85 55.61 219.15 58.54 220.21 L 58.62 220.81 C 73.47 230.00 87.34 240.80 99.82 253.02 C 102.49 256.35 105.99 259.47 106.80 263.86 C 106.85 266.97 105.48 269.88 105.14 272.95 C 104.36 278.96 103.92 285.04 104.24 291.11 C 104.44 296.12 106.07 300.93 106.39 305.93 C 106.20 309.85 105.95 313.77 105.51 317.67 C 104.39 326.16 102.56 334.56 101.89 343.10 C 101.36 349.18 96.31 353.47 91.82 356.99 C 90.27 358.42 87.77 359.58 87.76 361.99 C 88.45 368.00 93.05 372.85 93.16 378.99 C 93.42 382.29 91.72 385.29 91.39 388.51 C 88.73 392.13 85.78 395.54 83.21 399.22 C 81.64 402.64 85.42 405.37 87.27 407.79 L 87.28 408.10 C 91.81 413.14 95.15 419.30 96.11 426.08 L 96.27 426.07 C 96.47 428.16 96.17 430.42 96.96 432.39 C 96.73 441.90 96.00 451.40 94.17 460.75 C 96.79 460.60 99.40 460.41 102.01 460.22 C 102.23 459.69 102.67 458.63 102.89 458.10 C 102.67 458.65 102.24 459.76 102.02 460.32 C 107.03 459.92 112.15 460.80 117.09 459.97 C 121.77 461.22 126.66 461.30 131.46 461.02 C 135.70 461.53 140.00 461.13 144.26 461.26 C 161.61 461.38 178.96 461.65 196.29 460.97 C 197.88 461.91 199.27 459.09 197.88 458.13 C 198.87 452.50 198.12 446.60 199.22 440.91 C 199.27 440.21 199.38 438.80 199.43 438.09 C 199.83 427.57 198.34 417.02 195.34 406.94 C 193.81 401.87 193.30 396.57 192.01 391.45 L 192.36 391.16 C 190.25 378.12 189.23 364.93 187.66 351.82 C 186.71 339.25 185.33 326.69 184.96 314.08 C 184.09 302.01 185.65 289.67 183.05 277.80 L 182.45 277.78 L 182.89 277.00 L 183.26 276.07 C 181.78 261.37 179.75 246.73 177.56 232.12 C 177.24 229.61 176.66 227.15 175.80 224.78 L 176.10 223.90 C 175.63 218.94 174.77 214.03 173.83 209.14 C 173.01 208.68 172.18 208.23 171.36 207.78 C 171.18 201.50 170.71 195.23 170.60 188.96 C 170.42 187.01 170.76 184.34 168.56 183.42 C 152.91 174.45 137.28 165.44 121.63 156.47 C 117.98 154.17 114.95 158.55 113.41 161.36 M 179.61 185.44 C 178.86 192.22 178.85 199.07 178.48 205.88 C 178.39 207.29 177.11 208.20 176.37 209.29 C 177.48 215.37 178.21 221.51 179.68 227.52 C 179.60 228.64 179.56 229.80 179.86 230.89 C 181.35 240.60 182.54 250.34 184.03 260.04 C 184.38 265.01 185.14 269.95 185.68 274.90 C 188.08 291.87 186.46 309.06 188.10 326.08 C 188.47 329.57 187.99 333.23 189.24 336.58 C 189.23 343.72 190.17 350.81 190.83 357.91 C 192.14 369.18 193.06 380.52 194.88 391.72 C 195.29 399.99 198.28 407.81 199.83 415.88 C 201.33 423.61 202.36 431.53 201.53 439.40 C 201.13 444.12 200.26 448.88 201.10 453.61 C 200.70 454.95 200.56 456.35 200.68 457.81 C 200.82 458.99 200.97 460.18 201.12 461.38 L 201.47 460.82 C 208.20 461.71 215.00 460.81 221.64 459.68 L 222.04 459.73 C 225.42 458.69 229.17 458.18 232.04 455.99 C 236.04 451.37 236.10 444.75 235.66 438.99 C 234.43 426.89 237.16 414.89 237.31 402.82 C 238.91 389.23 240.04 375.59 241.33 361.96 C 241.84 356.18 243.39 350.56 244.11 344.81 C 245.39 341.50 245.32 337.85 245.97 334.40 C 247.18 325.63 247.69 316.80 247.77 307.96 C 247.58 302.31 247.84 296.63 247.04 291.02 C 245.22 276.06 242.87 260.92 237.24 246.87 C 237.12 246.43 236.88 245.54 236.76 245.10 C 235.07 239.86 233.71 233.99 229.24 230.34 C 224.23 224.99 217.99 220.90 211.83 217.00 C 204.69 212.01 197.00 207.74 189.23 203.79 C 188.19 203.21 187.16 202.64 186.12 202.07 C 185.65 194.09 185.84 186.08 185.67 178.08 C 183.57 180.47 181.15 182.64 179.61 185.44 M 45.40 224.39 C 33.20 231.65 21.47 240.80 14.36 253.33 C 10.31 264.40 9.74 276.36 8.93 288.02 C 8.24 298.66 9.46 309.40 7.61 319.96 C 6.59 329.91 4.82 340.00 6.00 350.00 C 8.70 359.35 10.98 368.89 11.38 378.66 L 11.51 378.75 C 11.21 382.99 11.10 387.33 12.07 391.50 C 11.69 397.54 10.56 404.00 13.20 409.71 C 15.98 416.26 18.87 422.89 19.96 429.98 C 21.54 439.59 22.45 449.38 25.34 458.72 C 26.74 463.17 28.86 467.47 32.20 470.79 C 35.36 473.96 37.86 477.69 40.24 481.47 C 41.11 483.17 41.73 485.10 43.08 486.50 C 44.14 491.65 46.59 496.35 48.82 501.07 C 51.12 506.25 56.55 508.75 60.07 512.93 C 63.30 516.77 66.77 520.89 67.63 525.99 C 68.33 531.03 67.75 536.14 67.93 541.21 C 79.66 536.94 91.51 531.73 104.27 532.19 C 102.89 520.42 101.23 508.63 98.20 497.17 C 96.55 490.90 98.07 484.32 96.59 478.03 C 95.08 474.27 91.60 471.27 91.67 466.93 C 91.33 456.23 94.48 445.72 94.03 434.99 C 93.66 428.80 93.43 422.06 89.54 416.91 C 87.04 412.15 82.74 408.65 80.30 403.89 C 78.06 398.34 84.04 394.86 86.37 390.62 L 86.76 390.42 C 89.26 386.03 91.41 380.68 89.38 375.69 C 87.40 371.06 85.31 366.47 83.92 361.62 C 85.06 359.68 86.30 357.79 87.48 355.87 C 92.77 352.98 98.06 348.38 98.68 341.99 C 99.81 330.62 102.30 319.43 103.07 308.02 C 103.55 302.54 101.00 297.41 101.05 291.96 C 101.00 285.32 100.63 278.59 102.00 272.06 C 102.49 268.41 104.65 264.24 101.95 260.97 C 96.41 252.97 88.62 246.96 81.22 240.78 C 72.93 234.25 64.48 227.84 55.25 222.70 C 52.01 220.55 48.32 222.76 45.40 224.39 M 241.12 247.83 C 241.89 252.38 243.50 256.72 244.58 261.20 C 248.93 278.41 250.99 296.22 250.37 313.98 C 250.37 316.36 249.98 318.82 250.68 321.15 C 249.61 325.45 249.26 329.88 249.18 334.30 C 247.96 338.50 247.59 342.88 246.77 347.16 C 245.89 352.51 244.43 357.76 244.09 363.19 C 243.94 363.85 243.64 365.18 243.49 365.84 L 243.39 365.90 C 243.18 368.77 243.03 371.64 242.92 374.52 C 242.42 377.81 242.06 381.13 241.89 384.46 C 241.41 391.57 239.74 398.64 240.41 405.79 C 240.22 406.10 239.84 406.73 239.64 407.04 C 239.42 414.71 238.04 422.31 237.94 429.99 C 237.84 437.41 239.36 444.85 238.06 452.24 C 237.49 453.78 236.36 455.27 236.53 456.99 C 237.61 464.66 239.41 472.29 239.55 480.06 C 239.06 485.47 239.15 491.00 240.94 496.20 C 242.21 500.32 242.45 504.66 243.36 508.86 C 244.41 512.87 245.88 516.77 247.59 520.55 C 250.16 518.97 252.74 517.21 255.75 516.63 C 261.42 515.51 267.13 516.94 272.81 517.13 C 271.49 511.28 269.51 505.60 268.38 499.71 C 266.22 490.26 267.12 480.50 267.25 470.91 C 267.22 468.52 266.29 466.28 265.91 463.95 C 265.89 461.85 266.76 459.88 267.31 457.89 C 266.15 456.62 264.65 455.57 263.96 453.97 C 263.90 451.53 265.99 449.53 265.78 447.02 C 265.80 440.33 264.83 433.68 264.75 426.99 C 264.55 415.68 264.60 404.35 265.50 393.07 C 266.53 377.41 265.74 361.63 262.54 346.25 C 259.10 327.04 252.65 308.41 250.71 288.92 C 249.78 278.80 247.99 268.74 245.08 259.00 C 243.93 255.22 243.07 251.31 241.12 247.83 Z" />
</g>
<g id="#162b48ff">
<path fill="#162b48" opacity="1.00" d=" M 130.56 12.42 C 142.38 7.76 155.13 4.49 167.92 5.52 C 181.78 6.72 196.00 10.23 207.30 18.71 C 217.09 25.89 224.11 36.80 226.59 48.70 C 221.79 46.35 217.25 43.40 212.04 42.01 C 187.78 34.51 159.66 37.77 138.96 52.91 C 133.31 56.08 126.81 57.40 121.26 60.80 C 117.05 59.13 112.36 56.90 110.81 52.26 C 109.04 46.40 111.64 40.45 114.27 35.29 C 118.39 26.99 124.99 20.37 130.27 12.86 L 130.56 12.42 Z" />
<path fill="#162b48" opacity="1.00" d=" M 160.07 44.29 C 173.33 39.91 187.66 39.05 201.39 41.52 C 209.72 43.06 218.19 45.61 224.93 50.96 C 233.76 58.19 236.25 73.05 228.46 81.88 C 228.09 73.61 222.89 66.49 216.43 61.71 C 202.81 50.99 184.94 47.28 167.91 48.03 C 161.01 47.93 154.29 49.71 147.44 50.20 C 151.15 47.30 155.67 45.80 160.07 44.29 Z" />
<path fill="#162b48" opacity="1.00" d=" M 113.41 161.36 C 114.95 158.55 117.98 154.17 121.63 156.47 C 137.28 165.44 152.91 174.45 168.56 183.42 C 170.76 184.34 170.42 187.01 170.60 188.96 C 170.71 195.23 171.18 201.50 171.36 207.78 C 172.18 208.23 173.01 208.68 173.83 209.14 C 174.77 214.03 175.63 218.94 176.10 223.90 L 175.80 224.78 C 173.71 231.93 174.94 239.56 174.42 246.91 C 168.28 248.00 162.08 248.73 155.91 249.64 C 163.68 252.19 170.64 256.61 176.66 262.10 C 175.04 272.31 171.88 282.19 169.09 292.12 C 173.03 287.17 177.40 282.60 181.99 278.26 C 182.86 297.50 183.40 316.76 184.52 335.99 C 184.72 342.26 185.30 348.59 187.37 354.56 C 186.85 358.11 186.01 361.60 185.15 365.08 C 176.31 366.24 167.46 367.29 158.63 368.50 C 166.24 372.76 174.06 376.60 181.73 380.75 C 176.36 391.12 170.73 401.36 165.84 411.97 C 174.55 405.12 183.37 398.39 192.01 391.45 C 193.30 396.57 193.81 401.87 195.34 406.94 C 198.34 417.02 199.83 427.57 199.43 438.09 C 191.02 434.04 182.69 429.84 174.32 425.71 C 168.65 423.03 164.37 418.34 160.22 413.79 C 151.73 404.04 143.24 394.00 137.67 382.24 C 130.61 368.72 117.85 359.50 109.46 346.96 C 115.71 342.14 121.29 336.33 127.91 332.08 C 130.90 334.66 133.46 337.71 136.20 340.56 C 136.75 341.32 137.30 342.07 137.86 342.84 C 140.02 348.40 143.11 353.85 143.25 359.97 C 143.54 364.12 142.90 368.51 144.70 372.41 C 145.51 374.29 147.43 375.26 148.98 376.44 C 151.81 366.49 145.80 357.13 142.96 347.91 C 144.63 349.79 146.38 351.61 148.17 353.38 C 145.88 342.79 142.75 332.38 140.47 321.79 L 140.77 321.20 C 146.77 316.54 153.39 312.72 159.48 308.16 C 151.47 307.69 143.41 307.90 135.42 307.26 C 134.24 305.42 133.58 303.31 132.84 301.28 C 132.76 300.85 132.61 299.99 132.53 299.56 C 133.35 293.86 133.83 288.07 132.94 282.35 C 129.40 284.39 130.30 288.96 129.74 292.37 C 128.31 288.07 126.75 283.81 125.18 279.55 C 121.71 287.98 119.08 296.71 116.09 305.31 C 114.48 305.39 112.87 305.46 111.26 305.54 C 109.85 305.59 108.45 305.69 107.06 305.83 C 108.20 305.56 109.34 305.25 110.45 304.85 C 109.13 297.77 105.67 291.17 104.96 283.97 C 105.44 277.72 106.74 270.98 111.29 266.31 C 113.47 263.53 116.68 261.40 118.02 258.05 C 117.29 252.52 114.71 247.06 110.80 243.08 C 109.67 241.47 107.87 242.89 106.78 243.76 C 103.87 246.36 101.96 249.81 99.82 253.02 C 87.34 240.80 73.47 230.00 58.62 220.81 L 58.54 220.21 C 58.27 217.76 57.78 215.33 57.46 212.89 C 56.83 210.25 58.59 207.97 59.58 205.68 C 54.41 208.57 53.59 214.96 49.38 218.79 L 49.43 218.88 L 49.87 219.69 C 48.33 220.16 46.80 220.63 45.24 220.99 C 38.01 222.02 32.84 227.58 26.84 231.18 C 27.41 229.68 28.04 228.18 29.01 226.90 C 39.75 212.54 53.93 200.28 70.81 193.81 C 77.76 190.97 85.38 190.76 92.43 188.27 L 92.44 188.36 C 92.56 192.38 92.97 196.38 93.38 200.38 C 86.97 200.95 80.54 201.40 74.13 202.11 C 80.77 205.88 87.71 209.07 94.42 212.70 C 93.84 221.11 93.36 229.52 92.94 237.94 C 98.06 232.45 102.36 226.16 107.85 221.04 C 118.43 226.83 128.43 233.65 139.08 239.32 C 134.44 232.70 129.61 226.21 124.85 219.68 C 128.78 218.13 135.00 218.05 136.20 213.10 C 131.99 211.77 127.51 212.21 123.25 211.13 C 128.41 208.48 133.79 206.31 139.36 204.71 C 132.57 202.48 125.56 200.97 118.47 200.04 C 114.33 194.39 109.99 188.88 105.36 183.62 C 109.61 176.79 109.04 168.16 113.41 161.36 M 119.78 170.09 C 123.08 172.72 127.01 174.32 130.74 176.24 C 138.26 179.82 145.51 184.05 153.31 187.00 C 148.44 183.51 142.83 181.26 137.61 178.36 C 131.67 175.60 126.09 171.96 119.78 170.09 M 144.17 174.06 C 146.92 176.26 149.79 178.33 152.88 180.03 C 150.17 177.77 147.31 175.68 144.17 174.06 M 153.93 180.98 C 156.68 183.34 159.74 185.29 162.94 186.96 C 160.36 184.40 157.38 182.22 153.93 180.98 Z" />
<path fill="#162b48" opacity="1.00" d=" M 179.61 185.44 C 181.15 182.64 183.57 180.47 185.67 178.08 C 185.84 186.08 185.65 194.09 186.12 202.07 C 183.86 204.21 181.29 206.19 179.83 209.01 C 182.59 213.11 186.64 216.11 189.85 219.84 C 189.24 214.51 189.12 209.15 189.23 203.79 C 197.00 207.74 204.69 212.01 211.83 217.00 C 212.75 217.97 213.64 218.96 214.54 219.96 C 209.29 220.20 204.04 220.28 198.80 220.52 C 206.41 224.11 214.16 227.42 221.92 230.68 C 220.75 238.37 218.69 245.91 215.96 253.19 C 220.99 247.75 225.86 242.16 230.88 236.71 L 231.01 237.11 C 232.40 241.60 233.44 246.25 233.39 250.99 C 233.31 259.99 234.38 268.94 234.55 277.94 C 234.56 280.33 235.05 282.69 235.86 284.95 C 237.65 272.35 237.20 259.56 237.24 246.87 C 242.87 260.92 245.22 276.06 247.04 291.02 C 247.84 296.63 247.58 302.31 247.77 307.96 C 247.23 307.81 246.14 307.51 245.59 307.36 C 242.75 297.97 237.82 289.32 231.21 282.09 C 231.56 290.07 231.44 298.27 229.00 305.95 C 222.04 307.44 214.89 307.81 207.91 309.17 C 215.78 311.52 223.70 314.55 229.96 320.04 C 224.79 328.50 222.11 338.36 222.49 348.29 C 228.45 341.14 234.28 333.89 240.52 326.99 C 242.34 329.46 244.12 331.95 245.97 334.40 C 245.32 337.85 245.39 341.50 244.11 344.81 C 242.04 348.90 239.61 353.14 239.87 357.90 C 240.06 362.68 241.29 368.02 237.96 372.09 C 229.46 384.38 221.73 397.23 212.59 409.06 C 210.13 399.61 207.41 390.24 204.28 380.99 C 209.91 375.94 215.82 371.19 221.14 365.81 C 214.50 365.28 207.86 364.77 201.21 364.38 C 197.12 355.16 193.42 345.76 189.24 336.58 C 187.99 333.23 188.47 329.57 188.10 326.08 C 186.46 309.06 188.08 291.87 185.68 274.90 C 185.98 274.55 186.58 273.83 186.87 273.47 C 194.02 279.45 199.23 287.26 205.05 294.44 C 204.66 283.96 201.54 273.82 197.75 264.12 C 201.80 260.26 205.87 256.42 209.99 252.64 C 203.75 250.89 197.35 249.70 191.17 247.75 C 188.35 243.38 186.36 238.43 182.78 234.53 C 182.65 233.99 182.54 233.46 182.43 232.93 C 182.07 229.46 181.80 225.93 180.44 222.68 C 180.15 224.28 179.87 225.90 179.68 227.52 C 178.21 221.51 177.48 215.37 176.37 209.29 C 177.11 208.20 178.39 207.29 178.48 205.88 C 178.85 199.07 178.86 192.22 179.61 185.44 Z" />
<path fill="#162b48" opacity="1.00" d=" M 45.40 224.39 C 48.32 222.76 52.01 220.55 55.25 222.70 C 64.48 227.84 72.93 234.25 81.22 240.78 C 88.62 246.96 96.41 252.97 101.95 260.97 C 104.65 264.24 102.49 268.41 102.00 272.06 C 100.63 278.59 101.00 285.32 101.05 291.96 C 101.00 297.41 103.55 302.54 103.07 308.02 C 102.30 319.43 99.81 330.62 98.68 341.99 C 98.06 348.38 92.77 352.98 87.48 355.87 C 90.05 351.17 92.72 346.53 95.12 341.74 C 89.20 344.10 83.75 347.47 77.90 349.95 C 75.77 350.91 73.28 350.98 71.16 349.97 C 62.18 346.01 56.11 338.02 48.88 331.75 C 48.82 337.50 52.38 342.17 54.92 347.02 C 57.50 351.87 60.14 356.68 62.51 361.62 C 63.12 363.12 64.42 365.36 62.56 366.55 C 60.31 367.82 57.72 368.30 55.42 369.48 C 55.07 371.01 54.96 372.58 54.77 374.15 C 57.15 373.03 59.42 371.50 62.05 371.08 C 65.86 370.89 68.13 376.03 71.92 375.07 C 77.15 371.94 80.75 366.71 83.92 361.62 C 85.31 366.47 87.40 371.06 89.38 375.69 C 91.41 380.68 89.26 386.03 86.76 390.42 L 86.37 390.62 C 80.93 393.35 76.11 397.49 72.72 402.54 C 70.63 405.50 72.93 408.91 74.70 411.38 C 77.45 414.87 80.66 418.58 85.14 419.71 C 87.27 420.48 88.36 418.15 89.54 416.91 C 93.43 422.06 93.66 428.80 94.03 434.99 C 94.48 445.72 91.33 456.23 91.67 466.93 C 91.60 471.27 95.08 474.27 96.59 478.03 C 98.07 484.32 96.55 490.90 98.20 497.17 C 101.23 508.63 102.89 520.42 104.27 532.19 C 91.51 531.73 79.66 536.94 67.93 541.21 C 67.75 536.14 68.33 531.03 67.63 525.99 C 66.77 520.89 63.30 516.77 60.07 512.93 C 56.55 508.75 51.12 506.25 48.82 501.07 C 46.59 496.35 44.14 491.65 43.08 486.50 C 50.23 491.91 57.65 496.99 65.27 501.71 C 67.76 503.30 70.54 504.35 73.38 505.11 C 71.87 499.70 65.58 499.21 61.62 496.35 C 55.44 492.33 50.24 487.05 44.64 482.31 C 43.47 481.07 41.75 481.40 40.24 481.47 C 37.86 477.69 35.36 473.96 32.20 470.79 C 28.86 467.47 26.74 463.17 25.34 458.72 C 22.45 449.38 21.54 439.59 19.96 429.98 C 18.87 422.89 15.98 416.26 13.20 409.71 C 10.56 404.00 11.69 397.54 12.07 391.50 C 13.25 394.66 13.82 398.40 16.21 400.88 C 19.36 400.47 22.31 399.24 25.36 398.43 C 29.27 397.26 33.44 396.81 37.11 394.92 C 36.98 392.85 34.50 392.70 33.05 391.87 C 25.00 389.06 18.59 383.28 11.51 378.75 L 11.38 378.66 C 10.98 368.89 8.70 359.35 6.00 350.00 C 4.82 340.00 6.59 329.91 7.61 319.96 C 9.46 309.40 8.24 298.66 8.93 288.02 C 9.74 276.36 10.31 264.40 14.36 253.33 C 21.47 240.80 33.20 231.65 45.40 224.39 M 13.63 322.63 C 13.90 324.16 13.26 326.22 14.72 327.32 C 18.34 330.13 23.20 330.53 27.02 333.03 C 35.48 338.32 42.46 345.56 50.00 352.01 C 48.62 346.84 46.68 341.76 43.76 337.26 C 40.72 333.11 35.95 330.75 31.41 328.63 C 25.64 326.21 19.80 323.81 13.63 322.63 M 75.08 428.10 C 71.34 430.55 68.65 434.25 65.42 437.30 C 58.32 444.75 50.66 451.68 43.65 459.19 C 48.12 458.06 51.72 455.07 55.53 452.64 C 60.53 449.25 65.87 446.36 70.57 442.56 C 74.50 439.44 78.05 435.68 82.76 433.69 C 86.82 436.23 90.03 431.76 91.17 428.33 C 85.97 427.05 80.16 425.61 75.08 428.10 M 53.35 462.75 C 56.93 465.73 61.61 466.66 65.93 468.09 C 73.65 470.20 81.43 472.63 89.48 472.99 C 85.83 470.22 81.20 469.51 76.93 468.16 C 69.12 466.20 61.39 463.62 53.35 462.75 M 85.87 483.87 C 83.74 486.43 83.56 489.93 83.08 493.09 C 85.31 490.62 87.25 487.91 89.61 485.56 C 91.92 483.12 96.21 482.10 96.01 478.07 C 92.23 479.13 88.58 480.98 85.87 483.87 Z" />
<path fill="#162b48" opacity="1.00" d=" M 241.12 247.83 C 243.07 251.31 243.93 255.22 245.08 259.00 C 247.99 268.74 249.78 278.80 250.71 288.92 C 252.65 308.41 259.10 327.04 262.54 346.25 C 265.74 361.63 266.53 377.41 265.50 393.07 C 264.60 404.35 264.55 415.68 264.75 426.99 C 264.83 433.68 265.80 440.33 265.78 447.02 C 265.99 449.53 263.90 451.53 263.96 453.97 C 264.65 455.57 266.15 456.62 267.31 457.89 C 266.76 459.88 265.89 461.85 265.91 463.95 C 266.29 466.28 267.22 468.52 267.25 470.91 C 267.12 480.50 266.22 490.26 268.38 499.71 C 269.51 505.60 271.49 511.28 272.81 517.13 C 267.13 516.94 261.42 515.51 255.75 516.63 C 252.74 517.21 250.16 518.97 247.59 520.55 C 245.88 516.77 244.41 512.87 243.36 508.86 C 242.45 504.66 242.21 500.32 240.94 496.20 C 243.72 496.13 246.70 496.55 249.25 495.18 C 252.40 493.57 255.05 491.17 257.70 488.87 C 254.53 489.23 251.38 489.84 248.18 489.75 C 245.05 485.93 244.34 478.99 248.70 475.75 C 252.60 472.20 257.35 469.73 261.07 465.97 C 254.74 468.85 249.65 473.88 243.13 476.40 C 241.87 472.82 240.67 469.00 241.56 465.18 C 243.06 458.15 243.21 450.84 241.91 443.77 C 240.60 446.58 239.35 449.42 238.06 452.24 C 239.36 444.85 237.84 437.41 237.94 429.99 C 238.04 422.31 239.42 414.71 239.64 407.04 C 242.66 405.26 245.56 403.10 249.03 402.31 C 253.52 401.30 258.25 401.61 262.59 399.94 C 259.21 397.33 254.44 396.59 250.64 398.75 C 247.06 400.82 243.70 403.28 240.41 405.79 C 239.74 398.64 241.41 391.57 241.89 384.46 C 248.01 380.74 254.13 377.02 260.12 373.09 C 261.86 372.16 262.21 370.17 262.66 368.44 C 256.38 371.37 250.07 374.65 242.92 374.52 C 243.03 371.64 243.18 368.77 243.39 365.90 L 243.49 365.84 C 248.08 363.14 251.39 358.87 255.30 355.34 C 257.75 353.11 260.17 350.73 261.54 347.65 C 258.54 349.11 256.01 351.31 253.76 353.74 C 250.69 357.05 247.25 359.98 244.09 363.19 C 244.43 357.76 245.89 352.51 246.77 347.16 C 247.59 342.88 247.96 338.50 249.18 334.30 C 250.35 330.05 252.58 325.53 250.68 321.15 C 249.98 318.82 250.37 316.36 250.37 313.98 C 250.99 296.22 248.93 278.41 244.58 261.20 C 243.50 256.72 241.89 252.38 241.12 247.83 Z" />
<path fill="#162b48" opacity="1.00" d=" M 110.17 320.75 C 110.50 321.05 111.17 321.65 111.50 321.95 C 109.63 328.60 107.59 335.21 105.50 341.80 C 104.53 334.42 108.59 327.75 110.17 320.75 Z" />
<path fill="#162b48" opacity="1.00" d=" M 103.02 352.28 C 103.82 351.62 104.62 350.97 105.41 350.32 C 109.38 352.21 112.44 355.40 115.23 358.72 C 126.81 372.42 137.34 387.02 146.78 402.28 C 149.96 407.15 151.12 413.36 155.69 417.28 C 164.42 424.77 174.63 430.57 185.36 434.69 C 190.19 436.26 194.85 438.32 199.22 440.91 C 198.12 446.60 198.87 452.50 197.88 458.13 C 197.16 458.93 196.18 459.76 196.29 460.97 C 178.96 461.65 161.61 461.38 144.26 461.26 C 143.59 459.28 142.90 457.32 142.20 455.36 L 141.81 454.27 C 141.67 453.59 141.37 452.21 141.23 451.52 C 141.62 451.64 142.39 451.88 142.78 452.00 C 143.65 453.25 144.08 454.78 144.74 456.16 C 144.96 454.10 145.18 452.04 145.36 449.99 C 146.27 449.45 147.17 448.91 148.07 448.38 C 146.68 448.16 145.30 447.98 143.92 447.78 C 143.62 448.27 143.04 449.26 142.75 449.76 C 141.17 448.90 139.62 448.02 138.05 447.16 C 137.22 444.82 139.70 443.70 141.13 442.41 L 141.53 442.11 C 141.86 442.09 142.51 442.06 142.83 442.04 C 142.53 442.67 141.92 443.93 141.62 444.56 C 144.57 443.89 145.43 441.50 145.40 438.75 L 145.54 437.96 C 150.50 434.19 155.07 429.67 161.09 427.58 C 160.72 427.51 159.98 427.37 159.61 427.30 C 149.45 419.64 138.69 412.79 127.98 405.94 C 136.83 413.67 146.46 420.52 156.28 426.96 C 147.82 426.43 139.37 425.78 130.92 425.19 C 127.79 413.92 124.64 402.66 121.47 391.41 C 117.72 402.65 115.09 414.23 111.40 425.49 C 105.54 419.51 101.80 411.84 95.95 405.85 C 98.09 413.04 102.99 418.87 106.98 425.07 C 105.30 425.36 103.62 425.69 101.93 425.93 C 100.04 426.02 98.15 426.04 96.27 426.07 L 96.11 426.08 C 95.15 419.30 91.81 413.14 87.28 408.10 L 87.27 407.79 C 87.25 404.62 86.79 401.40 87.43 398.27 C 89.10 395.13 92.10 392.41 91.39 388.51 C 91.72 385.29 93.42 382.29 93.16 378.99 C 93.05 372.85 88.45 368.00 87.76 361.99 C 87.77 359.58 90.27 358.42 91.82 356.99 C 95.50 361.37 99.84 365.11 104.22 368.77 C 110.95 374.11 117.29 380.28 125.20 383.87 C 125.02 382.04 124.18 380.40 122.88 379.12 C 116.70 372.55 109.50 367.05 102.23 361.76 C 98.83 359.78 98.73 354.50 101.80 352.18 C 102.11 352.21 102.72 352.26 103.02 352.28 M 98.66 383.65 C 102.74 388.26 107.93 391.77 113.02 395.16 C 108.77 390.74 103.91 386.80 98.66 383.65 M 151.02 439.07 C 151.31 440.07 151.64 441.06 152.00 442.05 C 153.36 442.09 154.73 442.15 156.09 442.21 C 156.26 440.99 157.45 439.61 156.60 438.44 C 155.78 435.97 151.44 436.49 151.02 439.07 M 158.45 438.74 C 159.22 438.54 160.77 438.16 161.55 437.97 C 160.78 439.35 159.85 440.64 158.85 441.87 C 159.54 441.88 160.90 441.91 161.58 441.93 C 161.61 440.23 161.70 438.54 161.71 436.85 C 160.54 437.33 159.36 437.83 158.45 438.74 M 163.05 441.65 C 163.68 441.68 164.93 441.73 165.56 441.75 C 166.37 440.47 167.21 439.20 168.27 438.12 C 168.33 439.07 168.47 440.99 168.54 441.94 C 168.76 441.92 169.21 441.86 169.44 441.83 C 169.47 440.31 169.51 438.78 169.58 437.27 C 167.98 437.98 165.79 438.86 164.59 436.91 C 162.72 437.77 163.32 440.00 163.05 441.65 M 171.34 437.25 C 171.07 439.12 171.27 440.98 172.01 442.73 C 172.90 442.17 173.77 441.62 174.65 441.05 C 173.98 441.14 172.65 441.32 171.98 441.41 L 172.01 440.36 C 175.23 440.78 173.41 438.75 171.73 438.13 C 172.41 437.98 173.76 437.67 174.44 437.52 C 173.41 437.40 172.37 437.31 171.34 437.25 M 146.21 439.36 C 145.00 440.23 146.13 442.81 147.54 442.42 C 148.09 441.43 147.79 438.87 146.21 439.36 M 148.22 439.45 C 148.83 440.05 148.83 440.05 148.22 439.45 M 148.79 445.56 C 149.10 449.02 146.91 454.63 151.49 455.90 C 151.62 455.54 151.86 454.84 151.98 454.48 C 149.36 453.81 149.24 448.81 152.21 448.36 C 151.83 448.14 151.06 447.72 150.68 447.50 C 150.21 447.02 149.26 446.05 148.79 445.56 M 161.38 447.68 C 161.34 450.30 161.20 452.94 161.52 455.56 C 164.07 455.61 162.38 451.25 162.91 449.56 C 163.73 449.50 165.37 449.38 166.20 449.33 C 166.29 451.38 166.27 453.45 166.52 455.50 C 168.23 456.19 167.72 453.98 167.92 453.01 C 167.79 451.49 168.17 449.33 166.73 448.36 C 164.97 447.94 163.17 447.87 161.38 447.68 M 169.10 450.74 C 170.39 451.93 171.87 452.92 173.26 454.00 C 171.72 453.81 170.20 453.62 168.67 453.44 C 169.35 456.98 173.24 455.22 175.67 455.28 C 180.17 455.37 184.68 455.39 189.19 455.28 C 189.19 454.72 189.18 453.59 189.18 453.03 C 189.75 453.97 190.32 454.92 190.90 455.86 C 190.95 454.85 191.04 452.81 191.09 451.80 C 186.81 451.61 182.53 451.80 178.26 451.92 C 177.31 452.91 176.36 453.91 175.42 454.92 C 175.51 451.94 172.74 450.75 170.80 449.16 C 172.22 449.29 173.64 449.44 175.06 449.56 C 174.17 446.21 168.19 447.21 169.10 450.74 M 153.50 448.52 C 152.81 450.53 152.03 453.36 154.26 454.72 C 156.84 456.81 160.89 454.14 159.91 450.92 C 159.88 447.55 155.83 447.47 153.50 448.52 Z" />
<path fill="#162b48" opacity="1.00" d=" M 223.61 396.60 C 227.81 391.64 232.05 386.63 237.16 382.56 C 235.14 399.37 228.83 415.27 226.66 432.05 C 227.48 431.98 228.31 431.92 229.14 431.86 C 229.74 426.17 230.49 419.69 234.85 415.54 C 233.28 421.34 232.36 427.45 229.56 432.82 C 228.63 432.86 226.76 432.95 225.83 432.99 C 220.78 433.30 215.74 433.83 210.69 434.08 C 211.99 435.21 213.29 436.36 214.65 437.45 C 214.91 440.32 214.32 444.01 217.16 445.83 C 219.15 447.81 222.01 447.65 224.56 447.24 C 221.63 444.71 218.19 442.51 216.54 438.86 C 220.31 441.47 223.97 444.25 227.68 446.96 C 225.65 451.15 223.67 455.37 222.04 459.73 L 221.64 459.68 C 215.87 459.03 210.07 458.10 204.82 455.46 C 203.71 457.25 202.60 459.03 201.47 460.82 L 201.12 461.38 C 200.97 460.18 200.82 458.99 200.68 457.81 C 203.45 454.87 206.34 451.46 206.53 447.23 C 206.41 443.93 204.02 441.42 201.59 439.48 C 201.93 442.37 203.27 445.01 203.71 447.86 C 203.35 449.96 202.02 451.72 201.10 453.61 C 200.26 448.88 201.13 444.12 201.53 439.40 C 202.36 431.53 201.33 423.61 199.83 415.88 C 198.28 407.81 195.29 399.99 194.88 391.72 C 200.98 398.49 206.98 405.35 212.84 412.33 C 212.82 411.94 212.78 411.15 212.75 410.75 C 217.11 406.62 219.73 401.12 223.61 396.60 Z" />
<path fill="#162b48" opacity="1.00" d=" M 96.96 432.39 C 100.91 434.76 104.27 439.07 109.05 439.38 C 109.37 440.30 109.63 441.11 109.93 442.09 C 109.14 441.48 108.37 440.86 107.62 440.23 L 107.33 443.58 C 106.74 442.63 105.54 440.72 104.95 439.77 C 105.39 441.30 105.90 442.80 106.41 444.31 C 106.06 444.77 105.38 445.68 105.04 446.13 L 104.67 446.63 C 104.49 449.51 104.54 452.43 103.95 455.28 C 103.61 456.22 103.26 457.16 102.89 458.10 C 102.67 458.63 102.23 459.69 102.01 460.22 C 99.40 460.41 96.79 460.60 94.17 460.75 C 96.00 451.40 96.73 441.90 96.96 432.39 Z" />
<path fill="#162b48" opacity="1.00" d=" M 164.38 438.39 C 165.68 438.67 165.91 439.44 165.05 440.70 C 163.76 440.43 163.54 439.66 164.38 438.39 Z" />
<path fill="#162b48" opacity="1.00" d=" M 154.61 449.46 C 156.37 449.06 158.67 449.32 158.46 451.68 C 158.50 454.01 156.25 454.01 154.54 453.62 C 154.55 452.23 154.57 450.84 154.61 449.46 Z" />
<path fill="#162b48" opacity="1.00" d=" M 179.24 453.15 C 182.17 451.46 179.57 456.43 179.24 453.15 Z" />
<path fill="#162b48" opacity="1.00" d=" M 117.09 459.97 C 119.47 458.43 121.76 456.75 124.08 455.12 C 126.55 457.07 128.95 459.12 131.46 461.02 C 126.66 461.30 121.77 461.22 117.09 459.97 Z" />
</g>
<g id="#546379ff">
<path fill="#546379" opacity="1.00" d=" M 104.16 36.04 C 109.92 25.67 119.36 17.45 130.27 12.86 C 124.99 20.37 118.39 26.99 114.27 35.29 C 111.64 40.45 109.04 46.40 110.81 52.26 C 112.36 56.90 117.05 59.13 121.26 60.80 C 110.42 67.51 99.44 76.12 95.60 88.84 C 94.03 70.97 94.93 51.92 104.16 36.04 Z" />
<path fill="#546379" opacity="1.00" d=" M 119.78 170.09 C 126.09 171.96 131.67 175.60 137.61 178.36 C 142.83 181.26 148.44 183.51 153.31 187.00 C 145.51 184.05 138.26 179.82 130.74 176.24 C 127.01 174.32 123.08 172.72 119.78 170.09 Z" />
<path fill="#546379" opacity="1.00" d=" M 153.93 180.98 C 157.38 182.22 160.36 184.40 162.94 186.96 C 159.74 185.29 156.68 183.34 153.93 180.98 Z" />
<path fill="#546379" opacity="1.00" d=" M 186.12 202.07 C 187.16 202.64 188.19 203.21 189.23 203.79 C 189.12 209.15 189.24 214.51 189.85 219.84 C 186.64 216.11 182.59 213.11 179.83 209.01 C 181.29 206.19 183.86 204.21 186.12 202.07 Z" />
<path fill="#546379" opacity="1.00" d=" M 49.38 218.79 C 53.59 214.96 54.41 208.57 59.58 205.68 C 58.59 207.97 56.83 210.25 57.46 212.89 C 57.78 215.33 58.27 217.76 58.54 220.21 C 55.61 219.15 52.52 218.85 49.43 218.88 L 49.38 218.79 Z" />
<path fill="#546379" opacity="1.00" d=" M 26.84 231.18 C 32.84 227.58 38.01 222.02 45.24 220.99 C 36.98 226.00 29.04 231.57 21.83 238.01 C 23.40 235.68 24.58 232.95 26.84 231.18 Z" />
<path fill="#546379" opacity="1.00" d=" M 180.44 222.68 C 181.80 225.93 182.07 229.46 182.43 232.93 C 181.79 232.42 180.50 231.40 179.86 230.89 C 179.56 229.80 179.60 228.64 179.68 227.52 C 179.87 225.90 180.15 224.28 180.44 222.68 Z" />
<path fill="#546379" opacity="1.00" d=" M 231.01 237.11 C 232.97 239.74 235.08 242.27 236.76 245.10 C 236.88 245.54 237.12 246.43 237.24 246.87 C 237.20 259.56 237.65 272.35 235.86 284.95 C 235.05 282.69 234.56 280.33 234.55 277.94 C 234.38 268.94 233.31 259.99 233.39 250.99 C 233.44 246.25 232.40 241.60 231.01 237.11 Z" />
<path fill="#546379" opacity="1.00" d=" M 106.78 243.76 C 107.87 242.89 109.67 241.47 110.80 243.08 C 114.71 247.06 117.29 252.52 118.02 258.05 C 116.68 261.40 113.47 263.53 111.29 266.31 C 106.74 270.98 105.44 277.72 104.96 283.97 C 105.67 291.17 109.13 297.77 110.45 304.85 C 109.34 305.25 108.20 305.56 107.06 305.83 L 106.39 305.93 C 106.07 300.93 104.44 296.12 104.24 291.11 C 103.92 285.04 104.36 278.96 105.14 272.95 C 105.48 269.88 106.85 266.97 106.80 263.86 C 105.99 259.47 102.49 256.35 99.82 253.02 C 101.96 249.81 103.87 246.36 106.78 243.76 Z" />
<path fill="#546379" opacity="1.00" d=" M 182.45 277.78 L 183.05 277.80 C 185.65 289.67 184.09 302.01 184.96 314.08 C 185.33 326.69 186.71 339.25 187.66 351.82 C 187.59 352.50 187.44 353.88 187.37 354.56 C 185.30 348.59 184.72 342.26 184.52 335.99 C 183.40 316.76 182.86 297.50 181.99 278.26 L 182.45 277.78 Z" />
<path fill="#546379" opacity="1.00" d=" M 129.74 292.37 C 130.30 288.96 129.40 284.39 132.94 282.35 C 133.83 288.07 133.35 293.86 132.53 299.56 C 131.84 297.81 131.07 296.10 130.39 294.35 C 130.23 293.85 129.90 292.87 129.74 292.37 Z" />
<path fill="#546379" opacity="1.00" d=" M 101.89 343.10 C 102.56 334.56 104.39 326.16 105.51 317.67 C 107.02 318.63 108.53 319.59 110.00 320.62 L 110.17 320.75 C 108.59 327.75 104.53 334.42 105.50 341.80 L 105.48 341.89 C 104.54 345.40 103.91 349.14 101.80 352.18 C 98.73 354.50 98.83 359.78 102.23 361.76 C 109.50 367.05 116.70 372.55 122.88 379.12 C 124.18 380.40 125.02 382.04 125.20 383.87 C 117.29 380.28 110.95 374.11 104.22 368.77 C 99.84 365.11 95.50 361.37 91.82 356.99 C 96.31 353.47 101.36 349.18 101.89 343.10 Z" />
<path fill="#546379" opacity="1.00" d=" M 250.68 321.15 C 252.58 325.53 250.35 330.05 249.18 334.30 C 249.26 329.88 249.61 325.45 250.68 321.15 Z" />
<path fill="#546379" opacity="1.00" d=" M 13.63 322.63 C 19.80 323.81 25.64 326.21 31.41 328.63 C 35.95 330.75 40.72 333.11 43.76 337.26 C 46.68 341.76 48.62 346.84 50.00 352.01 C 42.46 345.56 35.48 338.32 27.02 333.03 C 23.20 330.53 18.34 330.13 14.72 327.32 C 13.26 326.22 13.90 324.16 13.63 322.63 Z" />
<path fill="#546379" opacity="1.00" d=" M 48.88 331.75 C 56.11 338.02 62.18 346.01 71.16 349.97 C 73.28 350.98 75.77 350.91 77.90 349.95 C 83.75 347.47 89.20 344.10 95.12 341.74 C 92.72 346.53 90.05 351.17 87.48 355.87 C 86.30 357.79 85.06 359.68 83.92 361.62 C 80.75 366.71 77.15 371.94 71.92 375.07 C 68.13 376.03 65.86 370.89 62.05 371.08 C 59.42 371.50 57.15 373.03 54.77 374.15 C 54.96 372.58 55.07 371.01 55.42 369.48 C 57.72 368.30 60.31 367.82 62.56 366.55 C 64.42 365.36 63.12 363.12 62.51 361.62 C 60.14 356.68 57.50 351.87 54.92 347.02 C 52.38 342.17 48.82 337.50 48.88 331.75 Z" />
<path fill="#546379" opacity="1.00" d=" M 137.86 342.84 C 139.17 344.13 140.54 345.36 141.85 346.67 C 142.12 346.98 142.68 347.60 142.96 347.91 C 145.80 357.13 151.81 366.49 148.98 376.44 C 147.43 375.26 145.51 374.29 144.70 372.41 C 142.90 368.51 143.54 364.12 143.25 359.97 C 143.11 353.85 140.02 348.40 137.86 342.84 Z" />
<path fill="#546379" opacity="1.00" d=" M 239.87 357.90 C 239.61 353.14 242.04 348.90 244.11 344.81 C 243.39 350.56 241.84 356.18 241.33 361.96 C 240.04 375.59 238.91 389.23 237.31 402.82 C 236.60 407.08 235.97 411.36 234.85 415.54 C 230.49 419.69 229.74 426.17 229.14 431.86 C 228.31 431.92 227.48 431.98 226.66 432.05 C 228.83 415.27 235.14 399.37 237.16 382.56 C 232.05 386.63 227.81 391.64 223.61 396.60 C 219.73 401.12 217.11 406.62 212.75 410.75 C 212.71 410.33 212.63 409.48 212.59 409.06 C 221.73 397.23 229.46 384.38 237.96 372.09 C 241.29 368.02 240.06 362.68 239.87 357.90 Z" />
<path fill="#546379" opacity="1.00" d=" M 109.19 347.18 L 109.46 346.96 C 117.85 359.50 130.61 368.72 137.67 382.24 C 143.24 394.00 151.73 404.04 160.22 413.79 C 164.37 418.34 168.65 423.03 174.32 425.71 C 182.69 429.84 191.02 434.04 199.43 438.09 C 199.38 438.80 199.27 440.21 199.22 440.91 C 194.85 438.32 190.19 436.26 185.36 434.69 C 174.63 430.57 164.42 424.77 155.69 417.28 C 151.12 413.36 149.96 407.15 146.78 402.28 C 137.34 387.02 126.81 372.42 115.23 358.72 C 112.44 355.40 109.38 352.21 105.41 350.32 C 106.67 349.27 107.92 348.22 109.19 347.18 Z" />
<path fill="#546379" opacity="1.00" d=" M 242.92 374.52 C 250.07 374.65 256.38 371.37 262.66 368.44 C 262.21 370.17 261.86 372.16 260.12 373.09 C 254.13 377.02 248.01 380.74 241.89 384.46 C 242.06 381.13 242.42 377.81 242.92 374.52 Z" />
<path fill="#546379" opacity="1.00" d=" M 11.51 378.75 C 18.59 383.28 25.00 389.06 33.05 391.87 C 34.50 392.70 36.98 392.85 37.11 394.92 C 33.44 396.81 29.27 397.26 25.36 398.43 C 22.31 399.24 19.36 400.47 16.21 400.88 C 13.82 398.40 13.25 394.66 12.07 391.50 C 11.10 387.33 11.21 382.99 11.51 378.75 Z" />
<path fill="#546379" opacity="1.00" d=" M 98.66 383.65 C 103.91 386.80 108.77 390.74 113.02 395.16 C 107.93 391.77 102.74 388.26 98.66 383.65 Z" />
<path fill="#546379" opacity="1.00" d=" M 83.21 399.22 C 85.78 395.54 88.73 392.13 91.39 388.51 C 92.10 392.41 89.10 395.13 87.43 398.27 C 86.79 401.40 87.25 404.62 87.27 407.79 C 85.42 405.37 81.64 402.64 83.21 399.22 Z" />
<path fill="#546379" opacity="1.00" d=" M 72.72 402.54 C 76.11 397.49 80.93 393.35 86.37 390.62 C 84.04 394.86 78.06 398.34 80.30 403.89 C 82.74 408.65 87.04 412.15 89.54 416.91 C 88.36 418.15 87.27 420.48 85.14 419.71 C 80.66 418.58 77.45 414.87 74.70 411.38 C 72.93 408.91 70.63 405.50 72.72 402.54 Z" />
<path fill="#546379" opacity="1.00" d=" M 250.64 398.75 C 254.44 396.59 259.21 397.33 262.59 399.94 C 258.25 401.61 253.52 401.30 249.03 402.31 C 245.56 403.10 242.66 405.26 239.64 407.04 C 239.84 406.73 240.22 406.10 240.41 405.79 C 243.70 403.28 247.06 400.82 250.64 398.75 Z" />
<path fill="#546379" opacity="1.00" d=" M 127.98 405.94 C 138.69 412.79 149.45 419.64 159.61 427.30 C 158.78 427.21 157.11 427.05 156.28 426.96 C 146.46 420.52 136.83 413.67 127.98 405.94 Z" />
<path fill="#546379" opacity="1.00" d=" M 75.08 428.10 C 80.16 425.61 85.97 427.05 91.17 428.33 C 90.03 431.76 86.82 436.23 82.76 433.69 C 78.05 435.68 74.50 439.44 70.57 442.56 C 65.87 446.36 60.53 449.25 55.53 452.64 C 51.72 455.07 48.12 458.06 43.65 459.19 C 50.66 451.68 58.32 444.75 65.42 437.30 C 68.65 434.25 71.34 430.55 75.08 428.10 Z" />
<path fill="#546379" opacity="1.00" d=" M 214.65 437.45 C 215.12 437.80 216.06 438.51 216.54 438.86 C 218.19 442.51 221.63 444.71 224.56 447.24 C 222.01 447.65 219.15 447.81 217.16 445.83 C 214.32 444.01 214.91 440.32 214.65 437.45 Z" />
<path fill="#546379" opacity="1.00" d=" M 241.91 443.77 C 243.21 450.84 243.06 458.15 241.56 465.18 C 240.67 469.00 241.87 472.82 243.13 476.40 C 249.65 473.88 254.74 468.85 261.07 465.97 C 257.35 469.73 252.60 472.20 248.70 475.75 C 244.34 478.99 245.05 485.93 248.18 489.75 C 251.38 489.84 254.53 489.23 257.70 488.87 C 255.05 491.17 252.40 493.57 249.25 495.18 C 246.70 496.55 243.72 496.13 240.94 496.20 C 239.15 491.00 239.06 485.47 239.55 480.06 C 239.41 472.29 237.61 464.66 236.53 456.99 C 236.36 455.27 237.49 453.78 238.06 452.24 C 239.35 449.42 240.60 446.58 241.91 443.77 Z" />
<path fill="#546379" opacity="1.00" d=" M 201.47 460.82 C 202.60 459.03 203.71 457.25 204.82 455.46 C 210.07 458.10 215.87 459.03 221.64 459.68 C 215.00 460.81 208.20 461.71 201.47 460.82 Z" />
<path fill="#546379" opacity="1.00" d=" M 53.35 462.75 C 61.39 463.62 69.12 466.20 76.93 468.16 C 81.20 469.51 85.83 470.22 89.48 472.99 C 81.43 472.63 73.65 470.20 65.93 468.09 C 61.61 466.66 56.93 465.73 53.35 462.75 Z" />
<path fill="#546379" opacity="1.00" d=" M 85.87 483.87 C 88.58 480.98 92.23 479.13 96.01 478.07 C 96.21 482.10 91.92 483.12 89.61 485.56 C 87.25 487.91 85.31 490.62 83.08 493.09 C 83.56 489.93 83.74 486.43 85.87 483.87 Z" />
<path fill="#546379" opacity="1.00" d=" M 40.24 481.47 C 41.75 481.40 43.47 481.07 44.64 482.31 C 50.24 487.05 55.44 492.33 61.62 496.35 C 65.58 499.21 71.87 499.70 73.38 505.11 C 70.54 504.35 67.76 503.30 65.27 501.71 C 57.65 496.99 50.23 491.91 43.08 486.50 C 41.73 485.10 41.11 483.17 40.24 481.47 Z" />
</g>
<g id="#818c9aff">
<path fill="#818c9a" opacity="1.00" d=" M 144.17 174.06 C 147.31 175.68 150.17 177.77 152.88 180.03 C 149.79 178.33 146.92 176.26 144.17 174.06 Z" />
<path fill="#818c9a" opacity="1.00" d=" M 169.10 450.74 C 168.19 447.21 174.17 446.21 175.06 449.56 C 173.64 449.44 172.22 449.29 170.80 449.16 C 172.74 450.75 175.51 451.94 175.42 454.92 C 176.36 453.91 177.31 452.91 178.26 451.92 C 182.53 451.80 186.81 451.61 191.09 451.80 C 191.04 452.81 190.95 454.85 190.90 455.86 C 190.32 454.92 189.75 453.97 189.18 453.03 C 189.18 453.59 189.19 454.72 189.19 455.28 C 184.68 455.39 180.17 455.37 175.67 455.28 C 173.24 455.22 169.35 456.98 168.67 453.44 C 170.20 453.62 171.72 453.81 173.26 454.00 C 171.87 452.92 170.39 451.93 169.10 450.74 M 179.24 453.15 C 179.57 456.43 182.17 451.46 179.24 453.15 M 182.35 453.11 C 182.48 456.42 185.35 451.59 182.35 453.11 Z" />
</g>
<g id="#ffcc00ff">
<path fill="#ffcc00" opacity="1.00" d=" M 93.38 200.38 C 92.97 196.38 92.56 192.38 92.44 188.36 C 95.62 192.49 98.88 196.67 103.15 199.76 C 106.53 202.51 110.51 204.37 114.01 206.93 C 116.53 210.19 116.34 214.78 118.74 218.15 C 120.16 220.05 122.81 219.34 124.85 219.68 C 129.61 226.21 134.44 232.70 139.08 239.32 C 128.43 233.65 118.43 226.83 107.85 221.04 C 102.36 226.16 98.06 232.45 92.94 237.94 C 93.36 229.52 93.84 221.11 94.42 212.70 C 87.71 209.07 80.77 205.88 74.13 202.11 C 80.54 201.40 86.97 200.95 93.38 200.38 Z" />
<path fill="#ffcc00" opacity="1.00" d=" M 118.47 200.04 C 125.56 200.97 132.57 202.48 139.36 204.71 C 133.79 206.31 128.41 208.48 123.25 211.13 C 122.03 211.10 121.41 209.26 121.27 208.14 C 120.94 205.26 120.04 202.49 118.47 200.04 Z" />
<path fill="#ffcc00" opacity="1.00" d=" M 211.83 217.00 C 217.99 220.90 224.23 224.99 229.24 230.34 C 229.78 232.47 230.26 234.61 230.88 236.71 C 225.86 242.16 220.99 247.75 215.96 253.19 C 218.69 245.91 220.75 238.37 221.92 230.68 C 214.16 227.42 206.41 224.11 198.80 220.52 C 204.04 220.28 209.29 220.20 214.54 219.96 C 213.64 218.96 212.75 217.97 211.83 217.00 Z" />
<path fill="#ffcc00" opacity="1.00" d=" M 174.42 246.91 C 174.94 239.56 173.71 231.93 175.80 224.78 C 176.66 227.15 177.24 229.61 177.56 232.12 C 179.75 246.73 181.78 261.37 183.26 276.07 L 182.89 277.00 L 182.45 277.78 L 181.99 278.26 C 177.40 282.60 173.03 287.17 169.09 292.12 C 171.88 282.19 175.04 272.31 176.66 262.10 C 170.64 256.61 163.68 252.19 155.91 249.64 C 162.08 248.73 168.28 248.00 174.42 246.91 Z" />
<path fill="#ffcc00" opacity="1.00" d=" M 182.78 234.53 C 186.36 238.43 188.35 243.38 191.17 247.75 C 197.35 249.70 203.75 250.89 209.99 252.64 C 205.87 256.42 201.80 260.26 197.75 264.12 C 201.54 273.82 204.66 283.96 205.05 294.44 C 199.23 287.26 194.02 279.45 186.87 273.47 C 186.58 273.83 185.98 274.55 185.68 274.90 C 185.14 269.95 184.38 265.01 184.03 260.04 C 183.89 251.52 183.39 243.02 182.78 234.53 Z" />
<path fill="#ffcc00" opacity="1.00" d=" M 116.09 305.31 C 119.08 296.71 121.71 287.98 125.18 279.55 C 126.75 283.81 128.31 288.07 129.74 292.37 C 129.90 292.87 130.23 293.85 130.39 294.35 C 128.97 300.08 128.21 306.01 128.47 311.92 C 129.57 321.83 134.16 330.87 136.20 340.56 C 133.46 337.71 130.90 334.66 127.91 332.08 C 121.29 336.33 115.71 342.14 109.46 346.96 L 109.19 347.18 C 107.96 345.41 106.73 343.64 105.48 341.89 L 105.50 341.80 C 107.59 335.21 109.63 328.60 111.50 321.95 C 111.17 321.65 110.50 321.05 110.17 320.75 L 110.00 320.62 C 111.08 315.67 111.50 310.60 111.26 305.54 C 112.87 305.46 114.48 305.39 116.09 305.31 Z" />
<path fill="#ffcc00" opacity="1.00" d=" M 231.21 282.09 C 237.82 289.32 242.75 297.97 245.59 307.36 C 246.14 307.51 247.23 307.81 247.77 307.96 C 247.69 316.80 247.18 325.63 245.97 334.40 C 244.12 331.95 242.34 329.46 240.52 326.99 C 234.28 333.89 228.45 341.14 222.49 348.29 C 222.11 338.36 224.79 328.50 229.96 320.04 C 223.70 314.55 215.78 311.52 207.91 309.17 C 214.89 307.81 222.04 307.44 229.00 305.95 C 231.44 298.27 231.56 290.07 231.21 282.09 Z" />
<path fill="#ffcc00" opacity="1.00" d=" M 131.03 315.07 C 130.58 310.38 131.93 305.82 132.84 301.28 C 133.58 303.31 134.24 305.42 135.42 307.26 C 143.41 307.90 151.47 307.69 159.48 308.16 C 153.39 312.72 146.77 316.54 140.77 321.20 L 140.47 321.79 C 142.75 332.38 145.88 342.79 148.17 353.38 C 146.38 351.61 144.63 349.79 142.96 347.91 C 142.68 347.60 142.12 346.98 141.85 346.67 C 140.85 341.34 138.63 336.36 136.69 331.34 C 134.59 326.00 131.39 320.93 131.03 315.07 Z" />
<path fill="#ffcc00" opacity="1.00" d=" M 189.24 336.58 C 193.42 345.76 197.12 355.16 201.21 364.38 C 207.86 364.77 214.50 365.28 221.14 365.81 C 215.82 371.19 209.91 375.94 204.28 380.99 C 207.41 390.24 210.13 399.61 212.59 409.06 C 212.63 409.48 212.71 410.33 212.75 410.75 C 212.78 411.15 212.82 411.94 212.84 412.33 C 206.98 405.35 200.98 398.49 194.88 391.72 C 193.06 380.52 192.14 369.18 190.83 357.91 C 190.17 350.81 189.23 343.72 189.24 336.58 Z" />
<path fill="#ffcc00" opacity="1.00" d=" M 187.37 354.56 C 187.44 353.88 187.59 352.50 187.66 351.82 C 189.23 364.93 190.25 378.12 192.36 391.16 L 192.01 391.45 C 183.37 398.39 174.55 405.12 165.84 411.97 C 170.73 401.36 176.36 391.12 181.73 380.75 C 174.06 376.60 166.24 372.76 158.63 368.50 C 167.46 367.29 176.31 366.24 185.15 365.08 C 186.01 361.60 186.85 358.11 187.37 354.56 Z" />
<path fill="#ffcc00" opacity="1.00" d=" M 111.40 425.49 C 115.09 414.23 117.72 402.65 121.47 391.41 C 124.64 402.66 127.79 413.92 130.92 425.19 C 139.37 425.78 147.82 426.43 156.28 426.96 C 157.11 427.05 158.78 427.21 159.61 427.30 C 159.98 427.37 160.72 427.51 161.09 427.58 C 155.07 429.67 150.50 434.19 145.54 437.96 C 143.98 438.25 142.42 438.50 140.85 438.76 C 139.77 438.44 138.69 438.13 137.60 437.83 C 137.82 438.16 138.24 438.82 138.46 439.16 C 137.35 439.76 136.70 440.68 136.52 441.92 C 138.05 442.12 139.59 442.28 141.13 442.41 C 139.70 443.70 137.22 444.82 138.05 447.16 C 136.95 448.86 134.71 450.68 135.83 452.95 C 136.61 455.75 139.98 455.20 142.20 455.36 C 142.90 457.32 143.59 459.28 144.26 461.26 C 140.00 461.13 135.70 461.53 131.46 461.02 C 128.95 459.12 126.55 457.07 124.08 455.12 C 121.76 456.75 119.47 458.43 117.09 459.97 C 112.15 460.80 107.03 459.92 102.02 460.32 C 102.24 459.76 102.67 458.65 102.89 458.10 C 103.26 457.16 103.61 456.22 103.95 455.28 C 105.83 456.42 107.70 457.94 110.02 457.93 C 112.14 457.81 114.09 456.84 116.05 456.13 C 116.66 450.60 114.71 445.16 115.52 439.67 C 114.59 440.57 113.65 441.46 112.71 442.37 C 112.51 441.12 112.30 439.88 112.09 438.64 C 111.74 440.02 111.39 441.42 111.06 442.82 L 109.93 442.09 C 109.63 441.11 109.37 440.30 109.05 439.38 C 104.27 439.07 100.91 434.76 96.96 432.39 C 96.17 430.42 96.47 428.16 96.27 426.07 C 98.15 426.04 100.04 426.02 101.93 425.93 C 103.90 425.86 105.86 425.83 107.83 425.74 C 110.27 429.35 112.82 432.98 116.46 435.50 C 115.11 431.91 113.06 428.66 110.85 425.55 C 110.99 425.53 111.26 425.50 111.40 425.49 M 129.62 442.55 C 129.79 440.51 129.77 438.46 129.57 436.44 C 128.40 438.24 128.34 440.78 129.62 442.55 M 135.09 438.42 C 134.26 439.21 134.55 441.52 135.87 441.55 C 136.75 440.74 136.48 438.39 135.09 438.42 M 131.11 441.53 C 132.38 441.20 132.58 440.42 131.72 439.19 C 130.43 439.50 130.23 440.29 131.11 441.53 M 133.19 441.55 C 134.44 441.25 134.65 440.46 133.82 439.17 C 132.57 439.45 132.36 440.25 133.19 441.55 M 128.59 452.94 C 128.46 454.38 129.91 455.07 130.74 456.02 C 130.09 451.98 130.59 447.81 129.45 443.85 C 128.07 446.67 128.51 449.91 128.59 452.94 M 132.32 444.19 C 132.13 447.65 131.76 451.18 132.39 454.62 C 133.06 454.91 134.40 455.49 135.07 455.78 C 133.67 452.28 134.01 448.49 134.03 444.82 C 133.60 444.66 132.74 444.34 132.32 444.19 M 118.67 455.59 C 119.98 455.04 120.94 454.13 121.56 452.85 C 122.55 452.84 123.54 452.85 124.53 452.86 C 125.26 454.04 126.24 454.95 127.48 455.58 C 126.63 451.43 125.34 447.32 123.03 443.74 C 120.82 447.36 119.52 451.45 118.67 455.59 Z" />
<path fill="#ffcc00" opacity="1.00" d=" M 234.85 415.54 C 235.97 411.36 236.60 407.08 237.31 402.82 C 237.16 414.89 234.43 426.89 235.66 438.99 C 236.10 444.75 236.04 451.37 232.04 455.99 C 229.17 458.18 225.42 458.69 222.04 459.73 C 223.67 455.37 225.65 451.15 227.68 446.96 C 223.97 444.25 220.31 441.47 216.54 438.86 C 216.06 438.51 215.12 437.80 214.65 437.45 C 213.29 436.36 211.99 435.21 210.69 434.08 C 215.74 433.83 220.78 433.30 225.83 432.99 C 226.00 434.77 226.15 436.55 226.32 438.34 C 227.44 436.53 228.53 434.69 229.56 432.82 C 232.36 427.45 233.28 421.34 234.85 415.54 Z" />
<path fill="#ffcc00" opacity="1.00" d=" M 122.31 448.36 C 123.82 447.19 125.11 449.93 123.80 450.88 C 122.23 452.10 120.91 449.30 122.31 448.36 Z" />
<path fill="#ffcc00" opacity="1.00" d=" M 136.40 452.77 C 137.99 452.30 139.60 451.87 141.23 451.52 C 141.37 452.21 141.67 453.59 141.81 454.27 C 140.01 453.76 138.19 453.30 136.40 452.77 Z" />
</g>
<g id="#f8d446ff">
<path fill="#f8d446" opacity="1.00" d=" M 179.86 230.89 C 180.50 231.40 181.79 232.42 182.43 232.93 C 182.54 233.46 182.65 233.99 182.78 234.53 C 183.39 243.02 183.89 251.52 184.03 260.04 C 182.54 250.34 181.35 240.60 179.86 230.89 Z" />
<path fill="#f8d446" opacity="1.00" d=" M 229.24 230.34 C 233.71 233.99 235.07 239.86 236.76 245.10 C 235.08 242.27 232.97 239.74 231.01 237.11 L 230.88 236.71 C 230.26 234.61 229.78 232.47 229.24 230.34 Z" />
<path fill="#f8d446" opacity="1.00" d=" M 130.39 294.35 C 131.07 296.10 131.84 297.81 132.53 299.56 C 132.61 299.99 132.76 300.85 132.84 301.28 C 131.93 305.82 130.58 310.38 131.03 315.07 C 131.39 320.93 134.59 326.00 136.69 331.34 C 138.63 336.36 140.85 341.34 141.85 346.67 C 140.54 345.36 139.17 344.13 137.86 342.84 C 137.30 342.07 136.75 341.32 136.20 340.56 C 134.16 330.87 129.57 321.83 128.47 311.92 C 128.21 306.01 128.97 300.08 130.39 294.35 Z" />
<path fill="#f8d446" opacity="1.00" d=" M 106.39 305.93 L 107.06 305.83 C 108.45 305.69 109.85 305.59 111.26 305.54 C 111.50 310.60 111.08 315.67 110.00 320.62 C 108.53 319.59 107.02 318.63 105.51 317.67 C 105.95 313.77 106.20 309.85 106.39 305.93 Z" />
<path fill="#f8d446" opacity="1.00" d=" M 101.80 352.18 C 103.91 349.14 104.54 345.40 105.48 341.89 C 106.73 343.64 107.96 345.41 109.19 347.18 C 107.92 348.22 106.67 349.27 105.41 350.32 C 104.62 350.97 103.82 351.62 103.02 352.28 C 102.72 352.26 102.11 352.21 101.80 352.18 Z" />
<path fill="#f8d446" opacity="1.00" d=" M 138.12 449.27 C 139.83 448.73 140.42 449.24 139.90 450.80 C 138.19 451.33 137.59 450.82 138.12 449.27 Z" />
</g>
<g id="#495970ff">
<path fill="#495970" opacity="1.00" d=" M 253.76 353.74 C 256.01 351.31 258.54 349.11 261.54 347.65 C 260.17 350.73 257.75 353.11 255.30 355.34 C 251.39 358.87 248.08 363.14 243.49 365.84 C 243.64 365.18 243.94 363.85 244.09 363.19 C 247.25 359.98 250.69 357.05 253.76 353.74 Z" />
</g>
<g id="#4f5c68ff">
<path fill="#4f5c68" opacity="1.00" d=" M 95.95 405.85 C 101.80 411.84 105.54 419.51 111.40 425.49 C 111.26 425.50 110.99 425.53 110.85 425.55 C 110.10 425.60 108.59 425.69 107.83 425.74 C 105.86 425.83 103.90 425.86 101.93 425.93 C 103.62 425.69 105.30 425.36 106.98 425.07 C 102.99 418.87 98.09 413.04 95.95 405.85 Z" />
</g>
<g id="#f9d33aff">
<path fill="#f9d33a" opacity="1.00" d=" M 107.83 425.74 C 108.59 425.69 110.10 425.60 110.85 425.55 C 113.06 428.66 115.11 431.91 116.46 435.50 C 112.82 432.98 110.27 429.35 107.83 425.74 Z" />
</g>
<g id="#fad12dff">
<path fill="#fad12d" opacity="1.00" d=" M 225.83 432.99 C 226.76 432.95 228.63 432.86 229.56 432.82 C 228.53 434.69 227.44 436.53 226.32 438.34 C 226.15 436.55 226.00 434.77 225.83 432.99 Z" />
</g>
<g id="#637183ff">
<path fill="#637183" opacity="1.00" d=" M 151.02 439.07 C 151.44 436.49 155.78 435.97 156.60 438.44 C 157.45 439.61 156.26 440.99 156.09 442.21 C 154.73 442.15 153.36 442.09 152.00 442.05 C 151.64 441.06 151.31 440.07 151.02 439.07 M 154.94 440.50 L 155.70 440.01 L 155.68 438.98 L 154.90 438.52 L 154.67 437.99 C 151.66 436.84 153.16 443.15 154.94 440.50 Z" />
</g>
<g id="#eddfa3ff">
<path fill="#eddfa3" opacity="1.00" d=" M 135.09 438.42 C 136.48 438.39 136.75 440.74 135.87 441.55 C 134.55 441.52 134.26 439.21 135.09 438.42 Z" />
</g>
<g id="#ebd889ff">
<path fill="#ebd889" opacity="1.00" d=" M 137.60 437.83 C 138.69 438.13 139.77 438.44 140.85 438.76 C 142.42 438.50 143.98 438.25 145.54 437.96 L 145.40 438.75 C 144.97 439.14 144.12 439.93 143.69 440.33 L 143.45 440.46 L 143.30 440.68 C 142.86 441.04 141.97 441.75 141.53 442.11 L 141.13 442.41 C 139.59 442.28 138.05 442.12 136.52 441.92 C 136.70 440.68 137.35 439.76 138.46 439.16 C 138.24 438.82 137.82 438.16 137.60 437.83 Z" />
</g>
<g id="#9ca4aeff">
<path fill="#9ca4ae" opacity="1.00" d=" M 154.94 440.50 C 153.16 443.15 151.66 436.84 154.67 437.99 L 154.90 438.52 C 154.91 439.01 154.93 440.00 154.94 440.50 Z" />
</g>
<g id="#eae3c3ff">
<path fill="#eae3c3" opacity="1.00" d=" M 131.11 441.53 C 130.23 440.29 130.43 439.50 131.72 439.19 C 132.58 440.42 132.38 441.20 131.11 441.53 Z" />
</g>
<g id="#e7e6deff">
<path fill="#e7e6de" opacity="1.00" d=" M 133.19 441.55 C 132.36 440.25 132.57 439.45 133.82 439.17 C 134.65 440.46 134.44 441.25 133.19 441.55 Z" />
</g>
<g id="#aab0b7ff">
<path fill="#aab0b7" opacity="1.00" d=" M 143.69 440.33 C 144.12 439.93 144.97 439.14 145.40 438.75 C 145.43 441.50 144.57 443.89 141.62 444.56 C 141.92 443.93 142.53 442.67 142.83 442.04 C 142.51 442.06 141.86 442.09 141.53 442.11 C 141.97 441.75 142.86 441.04 143.30 440.68 L 143.54 440.54 L 143.69 440.33 Z" />
</g>
<g id="#d6d8dbff">
<path fill="#d6d8db" opacity="1.00" d=" M 148.22 439.45 C 148.83 440.05 148.83 440.05 148.22 439.45 Z" />
</g>
<g id="#1e334eff">
<path fill="#1e334e" opacity="1.00" d=" M 154.94 440.50 C 154.93 440.00 154.91 439.01 154.90 438.52 L 155.68 438.98 L 155.70 440.01 L 154.94 440.50 Z" />
</g>
<g id="#d8c77cff">
<path fill="#d8c77c" opacity="1.00" d=" M 112.71 442.37 C 113.65 441.46 114.59 440.57 115.52 439.67 C 114.71 445.16 116.66 450.60 116.05 456.13 C 114.09 456.84 112.14 457.81 110.02 457.93 C 107.70 457.94 105.83 456.42 103.95 455.28 C 104.54 452.43 104.49 449.51 104.67 446.63 L 105.04 446.13 L 105.96 445.73 C 106.00 448.57 105.91 451.45 106.58 454.24 C 106.74 454.67 107.05 455.53 107.21 455.96 C 109.44 456.10 111.68 456.14 113.91 456.13 L 113.90 455.86 C 113.84 455.27 113.71 454.10 113.65 453.51 C 113.96 450.76 114.11 447.99 114.18 445.23 C 112.92 445.64 111.67 446.08 110.43 446.55 L 109.95 446.28 C 109.35 445.98 108.15 445.39 107.55 445.09 C 107.53 444.77 107.48 444.13 107.46 443.81 C 109.64 443.82 111.82 443.84 114.00 443.88 C 113.68 443.50 113.04 442.74 112.71 442.37 Z" />
</g>
<g id="#5e6a74ff">
<path fill="#5e6a74" opacity="1.00" d=" M 143.45 440.46 L 143.69 440.33 L 143.54 440.54 L 143.30 440.68 L 143.45 440.46 Z" />
</g>
<g id="#4e5d73ff">
<path fill="#4e5d73" opacity="1.00" d=" M 201.59 439.48 C 204.02 441.42 206.41 443.93 206.53 447.23 C 206.34 451.46 203.45 454.87 200.68 457.81 C 200.56 456.35 200.70 454.95 201.10 453.61 C 202.02 451.72 203.35 449.96 203.71 447.86 C 203.27 445.01 201.93 442.37 201.59 439.48 Z" />
</g>
<g id="#eae2c0ff">
<path fill="#eae2c0" opacity="1.00" d=" M 132.32 444.19 C 132.74 444.34 133.60 444.66 134.03 444.82 C 134.01 448.49 133.67 452.28 135.07 455.78 C 134.40 455.49 133.06 454.91 132.39 454.62 C 131.76 451.18 132.13 447.65 132.32 444.19 Z" />
</g>
<g id="#e9e3c7ff">
<path fill="#e9e3c7" opacity="1.00" d=" M 118.67 455.59 C 119.52 451.45 120.82 447.36 123.03 443.74 C 125.34 447.32 126.63 451.43 127.48 455.58 C 126.24 454.95 125.26 454.04 124.53 452.86 C 123.54 452.85 122.55 452.84 121.56 452.85 C 120.94 454.13 119.98 455.04 118.67 455.59 M 122.31 448.36 C 120.91 449.30 122.23 452.10 123.80 450.88 C 125.11 449.93 123.82 447.19 122.31 448.36 Z" />
</g>
<g id="#e8e5d6ff">
<path fill="#e8e5d6" opacity="1.00" d=" M 105.96 445.73 C 106.36 445.57 107.15 445.25 107.55 445.09 C 108.15 445.39 109.35 445.98 109.95 446.28 C 108.74 448.89 107.53 451.51 106.58 454.24 C 105.91 451.45 106.00 448.57 105.96 445.73 Z" />
</g>
<g id="#e8e5d8ff">
<path fill="#e8e5d8" opacity="1.00" d=" M 110.43 446.55 C 111.67 446.08 112.92 445.64 114.18 445.23 C 114.11 447.99 113.96 450.76 113.65 453.51 C 112.68 451.14 111.59 448.83 110.43 446.55 Z" />
</g>
<g id="#fccf19ff">
<path fill="#fccf19" opacity="1.00" d=" M 106.58 454.24 C 107.53 451.51 108.74 448.89 109.95 446.28 L 110.43 446.55 C 111.59 448.83 112.68 451.14 113.65 453.51 C 113.71 454.10 113.84 455.27 113.90 455.86 C 112.27 454.52 111.17 452.73 110.25 450.87 C 109.27 452.58 108.25 454.28 107.21 455.96 C 107.05 455.53 106.74 454.67 106.58 454.24 Z" />
</g>
<g id="#e9e4ccff">
<path fill="#e9e4cc" opacity="1.00" d=" M 107.21 455.96 C 108.25 454.28 109.27 452.58 110.25 450.87 C 111.17 452.73 112.27 454.52 113.90 455.86 L 113.91 456.13 C 111.68 456.14 109.44 456.10 107.21 455.96 Z" />
</g>
<g id="#42536aff">
<path fill="#42536a" opacity="1.00" d=" M 182.35 453.11 C 185.35 451.59 182.48 456.42 182.35 453.11 Z" />
</g>
<g id="#4a5970ff">
<path fill="#4a5970" opacity="1.00" d=" M 196.29 460.97 C 196.18 459.76 197.16 458.93 197.88 458.13 C 199.27 459.09 197.88 461.91 196.29 460.97 Z" />
</g>
</svg>
