<?xml version="1.0" encoding="UTF-8" ?>
<!DOCTYPE svg PUBLIC "-//W3C//DTD SVG 1.1//EN" "http://www.w3.org/Graphics/SVG/1.1/DTD/svg11.dtd">
<svg width="279pt" height="547pt" viewBox="0 0 279 547" version="1.1" xmlns="http://www.w3.org/2000/svg">
<g id="#ffffffff">
<path fill="#ffffff" opacity="1.00" d=" M 0.00 0.00 L 279.00 0.00 L 279.00 547.00 L 0.00 547.00 L 0.00 0.00 M 123.79 13.84 C 110.83 21.08 101.05 33.57 96.82 47.77 C 90.68 66.62 92.26 86.99 96.86 105.99 C 100.13 108.85 101.06 113.56 104.73 116.14 C 103.34 120.68 101.84 125.27 99.31 129.32 C 97.67 132.12 93.84 133.36 93.34 136.83 C 92.51 141.53 92.94 146.64 95.32 150.85 C 96.31 152.66 97.44 155.01 95.98 156.91 C 92.96 160.98 89.27 164.87 88.03 169.93 C 87.64 175.75 89.18 181.50 91.63 186.73 C 85.51 187.80 79.27 188.50 73.39 190.61 C 62.91 193.99 53.38 199.87 45.01 206.96 C 30.46 219.58 19.18 235.75 11.36 253.30 C 6.15 271.35 6.30 290.35 6.23 308.98 C 5.30 320.33 3.36 331.60 3.00 343.01 C 2.96 345.65 2.90 348.33 3.55 350.92 C 6.46 360.68 9.22 370.75 8.66 381.04 C 8.46 387.36 9.17 393.67 8.87 400.00 C 8.23 407.22 12.42 413.47 14.60 420.06 C 17.57 427.74 17.76 436.06 19.19 444.08 C 20.47 451.41 21.82 458.87 25.23 465.56 C 27.74 470.50 32.44 473.81 35.23 478.56 C 39.78 486.17 42.61 494.64 46.76 502.46 C 48.52 505.75 51.46 508.13 54.25 510.51 C 59.07 515.04 64.23 520.26 65.33 527.06 C 66.51 532.78 63.69 539.18 66.76 544.47 C 79.68 539.83 92.91 532.98 107.04 535.07 C 105.81 521.64 103.52 508.28 100.46 495.15 C 99.41 490.12 100.01 484.96 99.48 479.88 C 99.15 473.89 92.71 469.97 94.02 463.58 C 107.99 461.78 121.96 464.25 135.95 463.87 C 151.99 463.76 168.02 464.45 184.06 463.98 C 195.31 463.52 206.63 464.75 217.84 463.32 C 223.45 462.19 229.54 461.37 234.11 457.61 C 235.63 465.28 237.13 473.02 237.29 480.86 C 236.20 488.00 238.28 494.97 239.85 501.85 C 240.11 508.85 242.65 515.46 245.29 521.86 C 245.65 523.15 246.75 523.93 247.74 524.75 C 250.69 521.70 254.55 519.31 258.89 519.14 C 263.99 518.45 268.95 520.50 274.02 520.27 C 274.39 519.94 275.12 519.29 275.49 518.96 C 274.10 509.55 269.94 500.59 269.55 490.96 C 269.39 483.99 269.56 477.00 269.85 470.04 C 270.09 467.89 268.87 466.02 268.41 464.01 C 268.84 461.95 269.81 460.07 270.32 458.05 C 270.22 455.66 268.00 454.56 266.39 453.26 C 267.34 451.26 268.95 449.32 268.59 446.97 C 267.31 431.35 267.06 415.66 267.68 400.00 C 268.26 390.67 268.92 381.33 268.48 371.98 C 267.49 349.19 261.05 327.19 256.11 305.05 C 253.69 294.56 253.63 283.71 251.48 273.17 C 249.27 261.97 246.37 250.78 241.29 240.51 C 239.32 236.91 237.24 232.91 233.36 231.05 C 230.44 228.16 227.51 225.26 224.18 222.84 C 212.99 214.52 200.99 207.34 188.66 200.88 C 188.46 192.63 188.56 184.37 188.36 176.12 C 188.56 175.01 187.48 172.54 186.26 174.19 C 183.19 177.46 180.17 180.83 177.49 184.43 C 176.59 191.58 176.82 198.84 176.01 206.00 C 175.50 206.03 174.48 206.09 173.97 206.12 C 173.27 198.79 173.29 191.40 172.65 184.05 C 172.72 182.73 171.25 182.25 170.38 181.62 C 154.60 172.61 138.83 163.57 123.08 154.49 C 121.53 153.65 119.81 152.38 118.02 153.44 C 111.78 156.47 109.71 163.80 107.87 169.93 C 106.50 173.99 106.72 178.67 103.85 182.11 C 102.50 179.94 101.37 177.60 101.05 175.03 C 99.76 167.13 100.48 159.07 99.64 151.12 C 99.19 146.36 98.07 141.61 98.70 136.81 C 103.73 139.25 107.35 143.90 112.66 145.85 C 110.00 134.15 113.16 122.12 117.23 111.14 C 119.05 105.78 123.37 101.60 124.59 96.01 C 126.26 88.62 125.70 80.99 125.17 73.51 C 140.96 67.37 158.08 64.45 175.02 65.10 C 186.35 65.67 198.30 68.49 206.87 76.38 C 208.57 79.60 208.79 83.36 208.67 86.93 C 208.01 104.67 207.31 122.40 206.24 140.12 C 206.11 141.62 206.08 143.16 205.61 144.61 C 202.06 149.09 196.64 151.97 193.79 157.01 C 194.72 160.65 198.25 166.59 202.62 163.64 C 207.02 160.91 211.56 157.53 213.54 152.57 C 213.93 149.45 211.86 146.58 211.70 143.46 C 210.29 130.09 211.80 116.65 213.23 103.36 C 218.33 99.15 223.47 94.72 226.96 89.04 C 229.38 85.48 232.67 82.52 234.58 78.64 C 236.74 72.01 236.74 64.44 233.77 58.06 C 232.69 55.67 230.73 53.70 230.20 51.08 C 228.53 43.24 225.33 35.71 220.71 29.15 C 211.33 15.86 195.94 7.82 180.12 5.17 C 161.10 1.21 140.70 4.26 123.79 13.84 Z" />
<path fill="#ffffff" opacity="1.00" d=" M 100.62 87.89 C 101.32 83.00 107.02 81.62 111.19 81.89 C 115.21 82.23 117.64 87.26 115.77 90.72 C 111.96 98.86 107.77 106.84 104.66 115.29 C 101.38 106.68 97.07 97.12 100.62 87.89 Z" />
</g>
<g id="#000000ff">
<path fill="#000000" opacity="1.00" d=" M 123.79 13.84 C 140.70 4.26 161.10 1.21 180.12 5.17 C 195.94 7.82 211.33 15.86 220.71 29.15 C 225.33 35.71 228.53 43.24 230.20 51.08 C 230.73 53.70 232.69 55.67 233.77 58.06 C 236.74 64.44 236.74 72.01 234.58 78.64 C 232.67 82.52 229.38 85.48 226.96 89.04 C 223.47 94.72 218.33 99.15 213.23 103.36 C 211.80 116.65 210.29 130.09 211.70 143.46 C 211.86 146.58 213.93 149.45 213.54 152.57 C 211.56 157.53 207.02 160.91 202.62 163.64 C 198.25 166.59 194.72 160.65 193.79 157.01 C 196.64 151.97 202.06 149.09 205.61 144.61 C 206.08 143.16 206.11 141.62 206.24 140.12 C 207.31 122.40 208.01 104.67 208.67 86.93 C 208.79 83.36 208.57 79.60 206.87 76.38 C 198.30 68.49 186.35 65.67 175.02 65.10 C 158.08 64.45 140.96 67.37 125.17 73.51 C 125.70 80.99 126.26 88.62 124.59 96.01 C 123.37 101.60 119.05 105.78 117.23 111.14 C 113.16 122.12 110.00 134.15 112.66 145.85 C 107.35 143.90 103.73 139.25 98.70 136.81 C 98.07 141.61 99.19 146.36 99.64 151.12 C 100.48 159.07 99.76 167.13 101.05 175.03 C 101.37 177.60 102.50 179.94 103.85 182.11 C 106.72 178.67 106.50 173.99 107.87 169.93 C 109.71 163.80 111.78 156.47 118.02 153.44 C 119.81 152.38 121.53 153.65 123.08 154.49 C 138.83 163.57 154.60 172.61 170.38 181.62 C 171.25 182.25 172.72 182.73 172.65 184.05 C 173.29 191.40 173.27 198.79 173.97 206.12 C 174.48 206.09 175.50 206.03 176.01 206.00 C 176.82 198.84 176.59 191.58 177.49 184.43 C 180.17 180.83 183.19 177.46 186.26 174.19 C 187.48 172.54 188.56 175.01 188.36 176.12 C 188.56 184.37 188.46 192.63 188.66 200.88 C 200.99 207.34 212.99 214.52 224.18 222.84 C 227.51 225.26 230.44 228.16 233.36 231.05 C 237.24 232.91 239.32 236.91 241.29 240.51 C 246.37 250.78 249.27 261.97 251.48 273.17 C 253.63 283.71 253.69 294.56 256.11 305.05 C 261.05 327.19 267.49 349.19 268.48 371.98 C 268.92 381.33 268.26 390.67 267.68 400.00 C 267.06 415.66 267.31 431.35 268.59 446.97 C 268.95 449.32 267.34 451.26 266.39 453.26 C 268.00 454.56 270.22 455.66 270.32 458.05 C 269.81 460.07 268.84 461.95 268.41 464.01 C 268.87 466.02 270.09 467.89 269.85 470.04 C 269.56 477.00 269.39 483.99 269.55 490.96 C 269.94 500.59 274.10 509.55 275.49 518.96 C 275.12 519.29 274.39 519.94 274.02 520.27 C 268.95 520.50 263.99 518.45 258.89 519.14 C 254.55 519.31 250.69 521.70 247.74 524.75 C 246.75 523.93 245.65 523.15 245.29 521.86 C 242.65 515.46 240.11 508.85 239.85 501.85 C 238.28 494.97 236.20 488.00 237.29 480.86 C 237.13 473.02 235.63 465.28 234.11 457.61 C 229.54 461.37 223.45 462.19 217.84 463.32 C 206.63 464.75 195.31 463.52 184.06 463.98 C 168.02 464.45 151.99 463.76 135.95 463.87 C 121.96 464.25 107.99 461.78 94.02 463.58 C 92.71 469.97 99.15 473.89 99.48 479.88 C 100.01 484.96 99.41 490.12 100.46 495.15 C 103.52 508.28 105.81 521.64 107.04 535.07 C 92.91 532.98 79.68 539.83 66.76 544.47 C 63.69 539.18 66.51 532.78 65.33 527.06 C 64.23 520.26 59.07 515.04 54.25 510.51 C 51.46 508.13 48.52 505.75 46.76 502.46 C 42.61 494.64 39.78 486.17 35.23 478.56 C 32.44 473.81 27.74 470.50 25.23 465.56 C 21.82 458.87 20.47 451.41 19.19 444.08 C 17.76 436.06 17.57 427.74 14.60 420.06 C 12.42 413.47 8.23 407.22 8.87 400.00 C 9.17 393.67 8.46 387.36 8.66 381.04 C 9.22 370.75 6.46 360.68 3.55 350.92 C 2.90 348.33 2.96 345.65 3.00 343.01 C 3.36 331.60 5.30 320.33 6.23 308.98 C 6.30 290.35 6.15 271.35 11.36 253.30 C 19.18 235.75 30.46 219.58 45.01 206.96 C 53.38 199.87 62.91 193.99 73.39 190.61 C 79.27 188.50 85.51 187.80 91.63 186.73 C 89.18 181.50 87.64 175.75 88.03 169.93 C 89.27 164.87 92.96 160.98 95.98 156.91 C 97.44 155.01 96.31 152.66 95.32 150.85 C 92.94 146.64 92.51 141.53 93.34 136.83 C 93.84 133.36 97.67 132.12 99.31 129.32 C 101.84 125.27 103.34 120.68 104.73 116.14 C 101.06 113.56 100.13 108.85 96.86 105.99 C 92.26 86.99 90.68 66.62 96.82 47.77 C 101.05 33.57 110.83 21.08 123.79 13.84 M 129.46 13.13 L 129.40 13.23 C 118.62 17.96 109.34 26.29 103.80 36.71 C 94.90 52.52 93.92 71.39 95.75 89.06 C 99.16 76.13 110.46 67.44 121.38 60.85 L 120.86 60.65 C 122.39 60.63 123.60 59.44 124.98 58.90 C 129.39 56.48 134.48 55.62 138.80 53.02 C 156.95 39.65 181.01 35.48 202.93 39.75 C 211.51 41.38 220.10 44.19 227.04 49.67 C 224.24 37.47 217.47 26.07 207.29 18.64 C 193.47 8.58 175.85 5.10 159.04 5.40 C 148.88 6.41 138.69 8.68 129.46 13.13 M 145.04 50.90 C 150.32 50.20 155.54 49.02 160.85 48.50 C 178.89 46.66 198.24 49.06 213.47 59.56 C 221.12 64.67 228.33 72.39 228.42 82.15 C 236.15 73.22 233.90 58.39 225.04 51.02 C 220.30 47.21 214.58 44.85 208.78 43.19 C 187.61 37.32 164.16 40.02 145.04 50.90 M 100.62 87.89 C 97.07 97.12 101.38 106.68 104.66 115.29 C 107.77 106.84 111.96 98.86 115.77 90.72 C 117.64 87.26 115.21 82.23 111.19 81.89 C 107.02 81.62 101.32 83.00 100.62 87.89 M 114.65 159.50 C 111.23 165.09 109.75 171.57 108.35 177.90 C 107.93 180.10 106.59 181.93 105.39 183.77 C 109.11 188.00 112.72 192.33 116.13 196.82 C 118.08 199.60 120.40 202.40 120.86 205.89 C 121.31 207.66 121.07 210.02 122.90 211.08 C 127.06 213.24 133.67 209.99 136.45 214.72 C 131.80 218.05 125.84 220.31 120.09 219.25 C 115.40 216.16 117.45 208.42 112.33 205.72 C 104.78 201.47 97.43 196.19 92.96 188.59 C 84.67 190.60 76.07 191.52 68.24 195.12 C 48.05 203.85 32.48 220.61 21.21 239.13 C 28.79 231.88 37.13 225.30 46.54 220.59 C 49.29 219.21 52.67 217.92 55.62 219.51 C 61.10 222.06 66.08 225.56 71.02 229.00 C 81.48 236.71 91.87 244.66 100.77 254.17 C 103.44 257.29 106.79 260.61 106.87 264.99 C 103.72 277.40 103.07 290.61 106.18 303.10 C 106.92 316.93 102.77 330.37 101.81 344.07 C 100.43 351.59 93.12 355.38 88.10 360.27 C 86.95 364.83 90.42 368.93 91.83 373.09 C 95.28 380.77 91.45 389.44 86.22 395.28 C 84.78 397.22 82.14 399.18 82.93 401.92 C 85.24 406.46 89.42 409.74 91.82 414.25 C 93.98 417.87 95.58 421.85 96.07 426.06 C 97.72 437.69 96.01 449.45 94.23 460.96 C 104.48 459.89 114.81 460.09 125.05 461.06 C 135.37 461.53 145.71 461.04 156.04 461.33 C 170.16 461.84 184.29 461.13 198.42 461.12 C 198.46 455.36 197.96 449.57 198.88 443.86 C 201.09 429.70 197.85 415.44 194.05 401.85 C 190.47 382.19 188.88 362.23 186.83 342.38 C 185.95 328.90 184.64 315.43 184.64 301.92 C 184.84 291.99 184.17 282.05 182.71 272.24 C 181.91 261.68 180.37 251.11 178.65 240.65 C 177.53 230.05 175.49 219.53 173.90 208.97 C 173.33 208.76 172.20 208.35 171.64 208.14 C 170.83 200.27 170.74 192.32 170.26 184.43 C 153.47 174.67 136.58 165.07 119.76 155.35 C 117.74 156.27 115.80 157.55 114.65 159.50 M 179.51 185.25 C 179.19 192.12 178.76 198.98 178.37 205.85 C 178.64 207.56 176.07 208.10 176.52 209.76 C 177.74 216.98 178.64 224.30 180.09 231.46 C 182.66 252.62 186.37 273.70 187.16 295.03 C 186.90 310.49 187.91 325.94 189.29 341.33 C 191.13 361.32 193.03 381.33 196.26 401.15 C 199.81 414.76 203.32 428.90 201.25 443.05 C 200.33 449.05 200.63 455.13 200.79 461.18 C 211.18 461.62 222.07 461.10 231.56 456.43 C 238.30 449.35 234.94 438.81 235.35 430.11 C 236.87 408.02 239.30 386.02 241.13 363.96 C 241.62 357.15 243.29 350.51 244.42 343.80 C 250.40 312.49 248.18 279.72 238.47 249.39 C 236.36 244.14 235.14 238.49 232.23 233.60 C 227.47 227.38 220.83 223.00 214.47 218.58 C 205.44 212.36 195.69 207.28 186.20 201.85 C 185.52 193.93 185.88 185.89 185.75 177.92 C 183.66 180.35 181.56 182.78 179.51 185.25 M 46.69 223.68 C 38.52 228.17 30.94 233.79 24.31 240.34 C 20.12 244.87 15.78 249.57 13.49 255.39 C 9.02 271.51 8.70 288.38 8.64 305.00 C 8.89 314.07 6.94 323.00 6.34 332.03 C 5.89 338.35 4.67 344.84 6.23 351.10 C 8.92 360.07 11.01 369.32 11.30 378.72 C 11.11 382.93 10.91 387.19 11.55 391.38 C 11.79 395.59 11.53 399.81 11.47 404.03 C 12.15 408.29 14.38 412.10 15.89 416.11 C 22.69 431.68 20.25 449.73 27.92 465.02 C 31.36 470.96 37.13 475.17 40.10 481.46 C 41.01 483.47 41.95 485.48 42.88 487.50 L 43.11 487.62 C 46.00 494.69 48.01 502.91 54.45 507.70 C 59.80 512.31 65.08 517.67 67.31 524.54 C 68.56 530.10 67.68 535.83 67.86 541.47 C 79.50 536.77 91.61 531.60 104.43 532.34 C 103.23 523.48 102.02 514.61 100.26 505.84 C 99.24 500.93 97.56 496.11 97.45 491.05 C 97.18 486.86 97.60 482.60 96.75 478.47 C 95.56 474.76 92.10 472.05 91.75 468.00 C 90.99 460.91 92.92 453.93 93.34 446.89 C 94.35 436.97 95.05 426.06 89.85 417.12 C 87.13 412.32 82.74 408.69 80.24 403.78 C 78.16 398.24 84.05 394.78 86.45 390.60 L 86.61 390.50 C 89.18 386.12 91.50 380.72 89.40 375.69 C 87.43 371.02 85.06 366.48 84.14 361.44 C 85.21 359.40 86.61 357.57 88.03 355.77 C 92.86 352.59 98.15 348.35 98.68 342.14 C 99.76 330.69 102.34 319.43 103.07 307.95 C 103.52 302.52 100.99 297.44 101.04 292.03 C 100.99 285.01 100.62 277.90 102.17 271.00 C 102.63 267.90 104.65 264.47 102.35 261.62 C 96.82 253.29 88.77 247.12 81.21 240.74 C 72.71 234.16 64.14 227.52 54.65 222.42 C 52.02 220.84 49.10 222.52 46.69 223.68 M 239.09 243.35 C 237.55 246.33 242.43 243.49 239.09 243.35 M 240.13 245.59 C 248.89 272.33 252.62 300.87 249.45 328.91 C 248.19 344.36 243.34 359.31 242.80 374.84 C 242.44 378.02 242.01 381.19 241.89 384.39 C 240.52 398.22 239.35 412.07 238.07 425.92 C 237.27 434.45 239.58 442.98 238.15 451.47 C 237.45 453.20 236.44 454.90 236.24 456.79 C 237.54 465.77 240.36 474.74 239.33 483.90 C 239.00 488.05 239.81 492.19 240.82 496.21 C 241.63 498.78 242.29 501.42 242.51 504.12 C 242.92 509.99 245.62 515.33 247.47 520.82 C 254.44 514.51 264.37 516.07 272.83 517.50 C 270.92 509.01 267.94 500.73 267.15 492.02 C 266.85 485.01 267.01 477.99 267.25 470.99 C 267.55 468.52 266.23 466.34 265.74 464.00 C 265.85 461.78 266.87 459.76 267.62 457.71 C 266.18 456.37 263.62 455.36 263.84 453.02 C 264.62 450.74 266.31 448.62 265.78 446.07 C 264.27 426.76 264.36 407.36 265.69 388.05 C 267.00 368.48 263.55 349.02 259.11 330.04 C 255.72 316.13 251.94 302.23 250.60 287.93 C 249.48 275.16 246.57 262.60 242.45 250.48 C 241.83 248.78 241.06 247.14 240.13 245.59 Z" />
</g>
<g id="#fafcfeff">
<path fill="#fafcfe" opacity="1.00" d=" M 129.46 13.13 C 138.69 8.68 148.88 6.41 159.04 5.40 C 175.85 5.10 193.47 8.58 207.29 18.64 C 217.47 26.07 224.24 37.47 227.04 49.67 C 220.10 44.19 211.51 41.38 202.93 39.75 C 181.01 35.48 156.95 39.65 138.80 53.02 C 134.48 55.62 129.39 56.48 124.98 58.90 C 123.60 59.44 122.39 60.63 120.86 60.65 C 115.73 58.91 110.35 54.83 110.16 48.97 C 110.31 41.11 114.48 34.08 118.76 27.76 C 122.02 22.70 126.47 18.51 129.40 13.23 L 129.46 13.13 Z" />
<path fill="#fafcfe" opacity="1.00" d=" M 145.04 50.90 C 164.16 40.02 187.61 37.32 208.78 43.19 C 214.58 44.85 220.30 47.21 225.04 51.02 C 233.90 58.39 236.15 73.22 228.42 82.15 C 228.33 72.39 221.12 64.67 213.47 59.56 C 198.24 49.06 178.89 46.66 160.85 48.50 C 155.54 49.02 150.32 50.20 145.04 50.90 Z" />
<path fill="#fafcfe" opacity="1.00" d=" M 114.65 159.50 C 115.80 157.55 117.74 156.27 119.76 155.35 C 136.58 165.07 153.47 174.67 170.26 184.43 C 170.74 192.32 170.83 200.27 171.64 208.14 C 172.20 208.35 173.33 208.76 173.90 208.97 C 175.49 219.53 177.53 230.05 178.65 240.65 C 175.86 254.60 173.53 268.63 170.89 282.61 C 156.95 283.15 143.03 284.02 129.09 284.48 C 140.38 294.49 151.83 304.32 163.31 314.11 C 156.71 337.15 149.62 360.05 142.98 383.08 C 156.42 369.17 169.85 355.09 185.42 343.53 C 185.77 343.24 186.47 342.67 186.83 342.38 C 188.88 362.23 190.47 382.19 194.05 401.85 C 197.85 415.44 201.09 429.70 198.88 443.86 C 197.96 449.57 198.46 455.36 198.42 461.12 C 184.29 461.13 170.16 461.84 156.04 461.33 C 145.71 461.04 135.37 461.53 125.05 461.06 C 114.81 460.09 104.48 459.89 94.23 460.96 C 96.01 449.45 97.72 437.69 96.07 426.06 C 95.58 421.85 93.98 417.87 91.82 414.25 C 89.42 409.74 85.24 406.46 82.93 401.92 C 82.14 399.18 84.78 397.22 86.22 395.28 C 91.45 389.44 95.28 380.77 91.83 373.09 C 90.42 368.93 86.95 364.83 88.10 360.27 C 93.12 355.38 100.43 351.59 101.81 344.07 C 102.77 330.37 106.92 316.93 106.18 303.10 C 103.07 290.61 103.72 277.40 106.87 264.99 C 106.79 260.61 103.44 257.29 100.77 254.17 C 91.87 244.66 81.48 236.71 71.02 229.00 C 66.08 225.56 61.10 222.06 55.62 219.51 C 52.67 217.92 49.29 219.21 46.54 220.59 C 37.13 225.30 28.79 231.88 21.21 239.13 C 32.48 220.61 48.05 203.85 68.24 195.12 C 76.07 191.52 84.67 190.60 92.96 188.59 C 97.43 196.19 104.78 201.47 112.33 205.72 C 117.45 208.42 115.40 216.16 120.09 219.25 C 125.84 220.31 131.80 218.05 136.45 214.72 C 133.67 209.99 127.06 213.24 122.90 211.08 C 121.07 210.02 121.31 207.66 120.86 205.89 C 120.40 202.40 118.08 199.60 116.13 196.82 C 112.72 192.33 109.11 188.00 105.39 183.77 C 106.59 181.93 107.93 180.10 108.35 177.90 C 109.75 171.57 111.23 165.09 114.65 159.50 M 129.58 442.81 C 130.10 440.68 130.26 438.48 129.78 436.34 C 128.26 438.20 128.56 440.79 129.58 442.81 M 150.65 438.82 C 151.16 439.88 151.68 440.95 152.19 442.02 C 153.40 442.06 154.62 442.09 155.84 442.13 C 156.14 441.56 156.75 440.41 157.05 439.83 C 156.62 438.84 156.20 437.84 155.78 436.85 C 153.84 436.84 152.05 437.45 150.65 438.82 M 158.37 438.84 C 159.20 438.61 160.85 438.15 161.68 437.93 C 160.74 439.33 159.75 440.71 158.75 442.07 C 159.49 442.10 160.96 442.16 161.70 442.20 C 161.68 440.46 161.83 438.72 161.73 437.00 C 160.32 436.98 159.26 437.84 158.37 438.84 M 162.55 438.18 C 162.73 439.07 163.09 440.84 163.26 441.73 C 163.99 441.77 165.45 441.83 166.17 441.87 C 166.21 440.99 166.29 439.22 166.32 438.34 C 166.91 438.60 168.09 439.12 168.68 439.38 C 168.57 440.00 168.36 441.25 168.25 441.88 C 168.58 441.87 169.23 441.86 169.56 441.85 C 169.52 440.23 169.49 438.61 169.48 437.00 L 168.15 437.00 L 168.85 438.12 C 167.64 438.13 166.44 438.15 165.24 438.19 L 165.89 436.64 C 164.77 437.13 163.65 437.65 162.55 438.18 M 171.57 437.37 C 170.08 439.70 171.43 443.76 174.79 442.13 C 173.91 441.50 173.00 440.94 172.08 440.39 C 173.02 439.96 173.94 439.49 174.83 438.99 C 173.99 438.82 172.29 438.49 171.44 438.33 C 172.25 438.12 173.88 437.71 174.69 437.51 C 173.65 437.25 172.61 437.20 171.57 437.37 M 130.88 438.44 C 130.90 439.85 130.99 441.27 131.13 442.69 C 131.48 441.69 132.18 439.70 132.53 438.70 C 132.83 439.72 133.44 441.76 133.74 442.77 C 133.91 441.75 134.25 439.71 134.42 438.69 C 134.81 439.65 135.58 441.58 135.96 442.54 C 136.09 441.16 136.28 439.79 136.35 438.41 C 134.52 438.42 132.70 438.42 130.88 438.44 M 138.28 437.48 C 138.40 438.10 138.65 439.34 138.78 439.96 C 137.89 440.47 137.02 441.00 136.15 441.55 C 137.16 441.62 139.19 441.78 140.20 441.85 C 139.81 440.28 139.92 438.35 138.28 437.48 M 142.15 438.00 C 140.68 439.08 139.89 440.52 140.52 442.37 C 141.33 442.25 142.94 442.01 143.74 441.89 C 143.89 442.33 144.19 443.21 144.33 443.66 C 144.53 442.99 144.93 441.66 145.13 440.99 C 146.26 441.97 147.50 442.86 149.03 441.98 C 148.93 440.72 149.66 438.73 147.93 438.33 C 146.00 438.44 144.05 438.40 142.15 438.00 M 111.34 442.57 C 107.95 443.26 110.41 439.36 107.47 438.91 C 107.59 439.90 107.82 441.87 107.94 442.85 C 106.90 441.74 105.96 440.55 104.90 439.47 C 105.01 441.56 105.08 443.66 105.10 445.76 L 104.00 445.64 C 103.91 449.51 103.72 453.46 104.89 457.21 L 105.22 456.78 C 108.80 458.42 112.71 458.17 116.05 456.07 C 115.96 452.26 116.39 448.37 115.32 444.66 C 114.64 442.91 115.49 441.15 115.87 439.46 C 114.73 440.47 113.62 441.51 112.50 442.54 C 112.53 441.63 112.61 439.80 112.65 438.89 C 111.36 439.74 111.04 441.05 111.34 442.57 M 142.51 443.25 C 142.76 443.52 142.76 443.52 142.51 443.25 M 128.56 444.48 C 128.49 447.96 128.39 451.45 128.77 454.91 C 129.37 455.10 130.57 455.49 131.17 455.68 C 129.80 452.19 130.31 448.39 130.26 444.73 C 129.83 444.67 128.98 444.55 128.56 444.48 M 132.43 444.79 C 132.12 448.00 132.09 451.28 132.44 454.50 C 133.09 454.84 134.40 455.52 135.05 455.86 C 133.48 452.21 134.08 448.21 134.00 444.37 C 133.61 444.47 132.82 444.68 132.43 444.79 M 118.63 455.64 C 119.97 454.99 120.96 454.00 121.60 452.66 C 122.61 452.64 123.62 452.63 124.64 452.64 C 125.15 454.10 126.13 455.04 127.57 455.44 C 126.41 451.41 125.23 447.32 123.00 443.73 C 120.96 447.45 119.62 451.52 118.63 455.64 M 145.54 448.44 C 145.02 448.11 144.50 447.80 143.98 447.50 C 143.39 448.62 142.78 449.75 142.15 450.86 C 142.62 446.90 136.38 446.77 135.75 450.16 C 133.88 454.24 140.27 457.67 142.63 453.87 C 140.46 454.02 138.26 454.09 136.85 452.15 C 139.13 451.95 141.42 451.86 143.70 451.66 C 143.64 452.62 143.52 454.54 143.46 455.51 C 143.89 455.45 144.76 455.34 145.20 455.28 C 145.30 452.93 144.79 450.32 146.74 448.51 C 147.38 448.98 148.01 449.46 148.64 449.95 C 148.65 451.69 148.73 453.46 148.84 455.21 C 150.05 455.34 151.32 455.56 152.44 454.91 C 149.71 454.13 150.31 451.41 150.11 449.28 C 150.58 449.22 151.53 449.12 152.00 449.07 L 152.00 447.75 C 151.57 447.76 150.71 447.78 150.28 447.79 C 150.29 447.31 150.30 446.35 150.31 445.87 L 149.17 446.19 C 147.94 446.90 146.77 447.71 145.54 448.44 M 155.57 447.81 C 152.39 448.25 151.62 453.00 154.13 454.75 C 156.33 456.49 160.15 454.94 160.14 452.01 C 160.59 449.43 158.07 447.18 155.57 447.81 M 161.28 447.71 C 161.25 450.39 161.13 453.09 161.48 455.77 C 164.94 455.02 160.94 449.31 164.97 449.05 C 167.10 450.36 165.92 453.52 166.43 455.66 C 166.84 455.54 167.67 455.28 168.08 455.16 C 167.74 452.88 168.64 449.89 166.68 448.19 C 164.93 447.68 163.08 447.84 161.28 447.71 M 169.62 448.84 C 168.44 451.51 172.26 452.26 173.54 453.96 C 171.90 453.94 170.28 453.85 168.65 453.80 C 169.86 455.66 172.19 455.80 174.12 455.05 C 176.32 452.13 172.01 450.98 170.50 449.17 C 172.02 449.15 173.54 449.16 175.06 449.16 C 173.61 447.72 171.09 446.96 169.62 448.84 M 184.93 451.59 L 184.89 452.42 C 182.71 452.40 180.54 452.39 178.37 452.26 C 177.52 453.12 176.65 453.96 175.76 454.78 C 176.32 454.63 177.43 454.33 177.99 454.17 C 178.21 454.55 178.64 455.31 178.85 455.69 C 180.05 454.10 181.84 454.50 183.24 455.43 C 183.64 455.22 184.44 454.81 184.83 454.60 C 185.31 456.18 187.57 455.27 188.76 455.78 C 189.05 454.57 189.34 453.37 189.62 452.16 C 189.93 453.14 190.54 455.09 190.85 456.07 C 190.83 454.98 190.79 452.81 190.76 451.73 C 189.86 451.83 188.96 451.92 188.07 452.07 L 187.84 451.19 C 187.11 451.29 185.66 451.49 184.93 451.59 Z" />
<path fill="#fafcfe" opacity="1.00" d=" M 179.51 185.25 C 181.56 182.78 183.66 180.35 185.75 177.92 C 185.88 185.89 185.52 193.93 186.20 201.85 C 195.69 207.28 205.44 212.36 214.47 218.58 C 220.83 223.00 227.47 227.38 232.23 233.60 C 235.14 238.49 236.36 244.14 238.47 249.39 C 248.18 279.72 250.40 312.49 244.42 343.80 C 243.29 350.51 241.62 357.15 241.13 363.96 C 239.30 386.02 236.87 408.02 235.35 430.11 C 234.94 438.81 238.30 449.35 231.56 456.43 C 222.07 461.10 211.18 461.62 200.79 461.18 C 200.63 455.13 200.33 449.05 201.25 443.05 C 203.32 428.90 199.81 414.76 196.26 401.15 C 193.03 381.33 191.13 361.32 189.29 341.33 C 202.32 351.67 213.88 363.88 223.43 377.49 C 224.65 379.18 225.94 380.82 227.25 382.45 C 225.02 367.40 221.45 352.58 218.11 337.74 C 216.80 331.98 215.29 326.26 213.40 320.66 C 212.96 318.63 211.38 316.08 213.42 314.44 C 221.99 305.66 230.92 297.22 239.28 288.23 C 228.21 286.77 217.07 285.80 206.02 284.25 C 203.50 284.34 203.14 281.51 202.24 279.76 C 199.02 271.16 195.37 262.72 191.61 254.34 C 188.06 246.57 184.64 238.71 180.09 231.46 C 178.64 224.30 177.74 216.98 176.52 209.76 C 176.07 208.10 178.64 207.56 178.37 205.85 C 178.76 198.98 179.19 192.12 179.51 185.25 Z" />
<path fill="#fafcfe" opacity="1.00" d=" M 164.31 438.43 C 165.62 438.71 165.85 439.47 165.01 440.70 C 163.69 440.44 163.46 439.68 164.31 438.43 Z" />
<path fill="#fafcfe" opacity="1.00" d=" M 108.83 447.88 C 109.65 447.80 110.47 447.73 111.29 447.67 C 112.01 449.68 112.78 451.68 113.48 453.71 C 113.55 454.26 113.68 455.37 113.74 455.92 C 112.06 454.38 111.03 452.35 110.14 450.30 C 109.38 452.09 108.56 453.86 107.72 455.63 L 106.60 454.93 L 106.55 454.60 C 107.31 452.35 108.14 450.14 108.83 447.88 Z" />
<path fill="#fafcfe" opacity="1.00" d=" M 122.29 448.54 C 123.75 447.32 125.15 449.99 123.86 450.97 C 122.33 452.22 120.85 449.53 122.29 448.54 Z" />
<path fill="#fafcfe" opacity="1.00" d=" M 154.99 449.86 C 156.93 447.67 159.46 451.19 157.93 452.94 C 156.54 455.96 152.86 451.84 154.99 449.86 Z" />
<path fill="#fafcfe" opacity="1.00" d=" M 179.16 453.18 C 182.29 451.61 179.20 456.47 179.16 453.18 Z" />
</g>
<g id="#f4f6f8ff">
<path fill="#f4f6f8" opacity="1.00" d=" M 103.80 36.71 C 109.34 26.29 118.62 17.96 129.40 13.23 C 126.47 18.51 122.02 22.70 118.76 27.76 C 114.48 34.08 110.31 41.11 110.16 48.97 C 110.35 54.83 115.73 58.91 120.86 60.65 L 121.38 60.85 C 110.46 67.44 99.16 76.13 95.75 89.06 C 93.92 71.39 94.90 52.52 103.80 36.71 Z" />
<path fill="#f4f6f8" opacity="1.00" d=" M 182.40 453.30 C 185.48 451.89 182.44 456.66 182.40 453.30 Z" />
</g>
<g id="#97c5ebff">
<path fill="#97c5eb" opacity="1.00" d=" M 46.69 223.68 C 49.10 222.52 52.02 220.84 54.65 222.42 C 64.14 227.52 72.71 234.16 81.21 240.74 C 88.77 247.12 96.82 253.29 102.35 261.62 C 104.65 264.47 102.63 267.90 102.17 271.00 C 100.62 277.90 100.99 285.01 101.04 292.03 C 100.99 297.44 103.52 302.52 103.07 307.95 C 102.34 319.43 99.76 330.69 98.68 342.14 C 98.15 348.35 92.86 352.59 88.03 355.77 C 90.13 351.01 92.69 346.46 95.02 341.81 C 89.13 344.06 83.75 347.40 78.01 349.99 C 73.83 352.10 69.42 349.34 65.97 347.05 C 59.53 342.83 54.72 336.72 48.86 331.82 C 48.88 338.62 53.61 343.82 56.34 349.67 C 58.54 354.39 61.84 358.60 63.34 363.62 C 64.25 367.02 59.66 367.47 57.60 368.81 C 55.10 369.37 55.06 372.03 54.68 374.08 C 56.84 373.10 58.94 371.97 61.22 371.27 C 65.56 369.72 68.23 377.07 72.55 374.60 C 77.36 371.20 80.99 366.35 84.14 361.44 C 85.06 366.48 87.43 371.02 89.40 375.69 C 91.50 380.72 89.18 386.12 86.61 390.50 L 86.45 390.60 C 81.19 393.32 76.40 397.16 72.98 402.03 C 71.11 404.56 72.08 407.92 73.86 410.21 C 76.63 413.99 79.84 417.96 84.42 419.55 C 86.65 420.51 88.23 418.20 89.85 417.12 C 95.05 426.06 94.35 436.97 93.34 446.89 C 92.92 453.93 90.99 460.91 91.75 468.00 C 92.10 472.05 95.56 474.76 96.75 478.47 C 97.60 482.60 97.18 486.86 97.45 491.05 C 97.56 496.11 99.24 500.93 100.26 505.84 C 102.02 514.61 103.23 523.48 104.43 532.34 C 91.61 531.60 79.50 536.77 67.86 541.47 C 67.68 535.83 68.56 530.10 67.31 524.54 C 65.08 517.67 59.80 512.31 54.45 507.70 C 48.01 502.91 46.00 494.69 43.11 487.62 C 53.71 492.58 61.97 501.97 73.45 505.11 C 72.15 501.97 69.41 499.95 66.33 498.74 C 57.85 495.10 51.62 488.07 44.62 482.34 C 43.39 481.18 41.61 481.63 40.10 481.46 C 37.13 475.17 31.36 470.96 27.92 465.02 C 20.25 449.73 22.69 431.68 15.89 416.11 C 14.38 412.10 12.15 408.29 11.47 404.03 C 11.53 399.81 11.79 395.59 11.55 391.38 C 12.91 394.66 14.48 397.86 16.00 401.08 C 23.22 398.57 31.09 397.91 37.85 394.18 C 32.79 391.57 27.35 389.65 22.61 386.42 C 18.84 383.85 15.17 381.13 11.30 378.72 C 11.01 369.32 8.92 360.07 6.23 351.10 C 4.67 344.84 5.89 338.35 6.34 332.03 C 6.94 323.00 8.89 314.07 8.64 305.00 C 8.70 288.38 9.02 271.51 13.49 255.39 C 15.78 249.57 20.12 244.87 24.31 240.34 C 30.94 233.79 38.52 228.17 46.69 223.68 M 13.77 322.79 C 14.01 324.66 13.65 327.27 15.78 328.19 C 19.65 330.08 23.96 331.00 27.59 333.40 C 35.83 338.59 42.59 345.71 49.96 351.98 C 48.68 347.07 46.65 342.34 44.07 337.97 C 41.07 333.11 35.67 330.65 30.67 328.37 C 25.19 326.10 19.65 323.81 13.77 322.79 M 71.70 430.79 C 62.56 440.38 52.74 449.33 43.82 459.12 C 48.72 457.78 52.63 454.43 56.83 451.76 C 61.42 448.71 66.32 446.11 70.57 442.58 C 73.71 440.08 76.53 437.16 79.97 435.05 C 82.06 433.67 84.68 434.66 86.98 434.06 C 88.88 432.70 90.04 430.60 91.41 428.77 C 85.16 426.35 76.64 425.23 71.70 430.79 Z" />
<path fill="#97c5eb" opacity="1.00" d=" M 180.09 231.46 C 184.64 238.71 188.06 246.57 191.61 254.34 C 195.37 262.72 199.02 271.16 202.24 279.76 C 203.14 281.51 203.50 284.34 206.02 284.25 C 217.07 285.80 228.21 286.77 239.28 288.23 C 230.92 297.22 221.99 305.66 213.42 314.44 C 211.38 316.08 212.96 318.63 213.40 320.66 C 215.29 326.26 216.80 331.98 218.11 337.74 C 221.45 352.58 225.02 367.40 227.25 382.45 C 225.94 380.82 224.65 379.18 223.43 377.49 C 213.88 363.88 202.32 351.67 189.29 341.33 C 187.91 325.94 186.90 310.49 187.16 295.03 C 186.37 273.70 182.66 252.62 180.09 231.46 Z" />
<path fill="#97c5eb" opacity="1.00" d=" M 178.65 240.65 C 180.37 251.11 181.91 261.68 182.71 272.24 C 181.00 283.12 183.14 294.08 183.00 305.00 C 182.89 312.35 184.00 319.65 184.01 327.01 C 184.00 332.54 184.50 338.07 185.42 343.53 C 169.85 355.09 156.42 369.17 142.98 383.08 C 149.62 360.05 156.71 337.15 163.31 314.11 C 151.83 304.32 140.38 294.49 129.09 284.48 C 143.03 284.02 156.95 283.15 170.89 282.61 C 173.53 268.63 175.86 254.60 178.65 240.65 Z" />
<path fill="#97c5eb" opacity="1.00" d=" M 240.13 245.59 C 241.06 247.14 241.83 248.78 242.45 250.48 C 246.57 262.60 249.48 275.16 250.60 287.93 C 251.94 302.23 255.72 316.13 259.11 330.04 C 263.55 349.02 267.00 368.48 265.69 388.05 C 264.36 407.36 264.27 426.76 265.78 446.07 C 266.31 448.62 264.62 450.74 263.84 453.02 C 263.62 455.36 266.18 456.37 267.62 457.71 C 266.87 459.76 265.85 461.78 265.74 464.00 C 266.23 466.34 267.55 468.52 267.25 470.99 C 267.01 477.99 266.85 485.01 267.15 492.02 C 267.94 500.73 270.92 509.01 272.83 517.50 C 264.37 516.07 254.44 514.51 247.47 520.82 C 245.62 515.33 242.92 509.99 242.51 504.12 C 242.29 501.42 241.63 498.78 240.82 496.21 C 243.83 496.06 247.08 496.40 249.82 494.87 C 252.65 493.36 255.00 491.14 257.40 489.04 C 254.37 489.34 251.33 489.88 248.27 489.67 C 246.06 487.82 245.86 484.66 245.79 482.00 C 245.61 476.11 252.10 473.79 255.31 469.80 C 251.63 471.44 248.51 474.08 244.82 475.68 C 243.00 476.54 242.53 474.11 242.04 472.93 C 240.47 468.64 241.69 464.11 242.47 459.81 C 243.45 454.57 242.77 449.22 241.77 444.04 C 240.55 446.51 239.33 448.98 238.15 451.47 C 239.58 442.98 237.27 434.45 238.07 425.92 C 239.35 412.07 240.52 398.22 241.89 384.39 C 246.82 381.57 251.57 378.44 256.45 375.54 C 258.80 374.10 261.39 372.65 262.56 370.01 C 260.85 368.01 258.76 370.25 256.95 370.89 C 252.62 373.37 247.64 374.05 242.80 374.84 C 243.34 359.31 248.19 344.36 249.45 328.91 C 252.62 300.87 248.89 272.33 240.13 245.59 Z" />
</g>
<g id="#242f38ff">
<path fill="#242f38" opacity="1.00" d=" M 239.09 243.35 C 242.43 243.49 237.55 246.33 239.09 243.35 Z" />
</g>
<g id="#afcfebff">
<path fill="#afcfeb" opacity="1.00" d=" M 183.00 305.00 C 183.14 294.08 181.00 283.12 182.71 272.24 C 184.17 282.05 184.84 291.99 184.64 301.92 C 184.64 315.43 185.95 328.90 186.83 342.38 C 186.47 342.67 185.77 343.24 185.42 343.53 C 184.50 338.07 184.00 332.54 184.01 327.01 C 184.00 319.65 182.89 312.35 183.00 305.00 Z" />
<path fill="#afcfeb" opacity="1.00" d=" M 13.77 322.79 C 19.65 323.81 25.19 326.10 30.67 328.37 C 35.67 330.65 41.07 333.11 44.07 337.97 C 46.65 342.34 48.68 347.07 49.96 351.98 C 42.59 345.71 35.83 338.59 27.59 333.40 C 23.96 331.00 19.65 330.08 15.78 328.19 C 13.65 327.27 14.01 324.66 13.77 322.79 Z" />
<path fill="#afcfeb" opacity="1.00" d=" M 48.86 331.82 C 54.72 336.72 59.53 342.83 65.97 347.05 C 69.42 349.34 73.83 352.10 78.01 349.99 C 83.75 347.40 89.13 344.06 95.02 341.81 C 92.69 346.46 90.13 351.01 88.03 355.77 C 86.61 357.57 85.21 359.40 84.14 361.44 C 80.99 366.35 77.36 371.20 72.55 374.60 C 68.23 377.07 65.56 369.72 61.22 371.27 C 58.94 371.97 56.84 373.10 54.68 374.08 C 55.06 372.03 55.10 369.37 57.60 368.81 C 59.66 367.47 64.25 367.02 63.34 363.62 C 61.84 358.60 58.54 354.39 56.34 349.67 C 53.61 343.82 48.88 338.62 48.86 331.82 Z" />
<path fill="#afcfeb" opacity="1.00" d=" M 256.95 370.89 C 258.76 370.25 260.85 368.01 262.56 370.01 C 261.39 372.65 258.80 374.10 256.45 375.54 C 251.57 378.44 246.82 381.57 241.89 384.39 C 242.01 381.19 242.44 378.02 242.80 374.84 C 247.64 374.05 252.62 373.37 256.95 370.89 Z" />
<path fill="#afcfeb" opacity="1.00" d=" M 11.30 378.72 C 15.17 381.13 18.84 383.85 22.61 386.42 C 27.35 389.65 32.79 391.57 37.85 394.18 C 31.09 397.91 23.22 398.57 16.00 401.08 C 14.48 397.86 12.91 394.66 11.55 391.38 C 10.91 387.19 11.11 382.93 11.30 378.72 Z" />
<path fill="#afcfeb" opacity="1.00" d=" M 72.98 402.03 C 76.40 397.16 81.19 393.32 86.45 390.60 C 84.05 394.78 78.16 398.24 80.24 403.78 C 82.74 408.69 87.13 412.32 89.85 417.12 C 88.23 418.20 86.65 420.51 84.42 419.55 C 79.84 417.96 76.63 413.99 73.86 410.21 C 72.08 407.92 71.11 404.56 72.98 402.03 Z" />
<path fill="#afcfeb" opacity="1.00" d=" M 71.70 430.79 C 76.64 425.23 85.16 426.35 91.41 428.77 C 90.04 430.60 88.88 432.70 86.98 434.06 C 84.68 434.66 82.06 433.67 79.97 435.05 C 76.53 437.16 73.71 440.08 70.57 442.58 C 66.32 446.11 61.42 448.71 56.83 451.76 C 52.63 454.43 48.72 457.78 43.82 459.12 C 52.74 449.33 62.56 440.38 71.70 430.79 Z" />
<path fill="#afcfeb" opacity="1.00" d=" M 241.77 444.04 C 242.77 449.22 243.45 454.57 242.47 459.81 C 241.69 464.11 240.47 468.64 242.04 472.93 C 242.53 474.11 243.00 476.54 244.82 475.68 C 248.51 474.08 251.63 471.44 255.31 469.80 C 252.10 473.79 245.61 476.11 245.79 482.00 C 245.86 484.66 246.06 487.82 248.27 489.67 C 251.33 489.88 254.37 489.34 257.40 489.04 C 255.00 491.14 252.65 493.36 249.82 494.87 C 247.08 496.40 243.83 496.06 240.82 496.21 C 239.81 492.19 239.00 488.05 239.33 483.90 C 240.36 474.74 237.54 465.77 236.24 456.79 C 236.44 454.90 237.45 453.20 238.15 451.47 C 239.33 448.98 240.55 446.51 241.77 444.04 Z" />
<path fill="#afcfeb" opacity="1.00" d=" M 40.10 481.46 C 41.61 481.63 43.39 481.18 44.62 482.34 C 51.62 488.07 57.85 495.10 66.33 498.74 C 69.41 499.95 72.15 501.97 73.45 505.11 C 61.97 501.97 53.71 492.58 43.11 487.62 L 42.88 487.50 C 41.95 485.48 41.01 483.47 40.10 481.46 Z" />
</g>
<g id="#231f20ff">
<path fill="#231f20" opacity="1.00" d=" M 129.58 442.81 C 128.56 440.79 128.26 438.20 129.78 436.34 C 130.26 438.48 130.10 440.68 129.58 442.81 Z" />
<path fill="#231f20" opacity="1.00" d=" M 158.37 438.84 C 159.26 437.84 160.32 436.98 161.73 437.00 C 161.83 438.72 161.68 440.46 161.70 442.20 C 160.96 442.16 159.49 442.10 158.75 442.07 C 159.75 440.71 160.74 439.33 161.68 437.93 C 160.85 438.15 159.20 438.61 158.37 438.84 Z" />
<path fill="#231f20" opacity="1.00" d=" M 162.55 438.18 C 163.65 437.65 164.77 437.13 165.89 436.64 L 165.24 438.19 C 166.44 438.15 167.64 438.13 168.85 438.12 L 168.15 437.00 L 169.48 437.00 C 169.49 438.61 169.52 440.23 169.56 441.85 C 169.23 441.86 168.58 441.87 168.25 441.88 C 168.36 441.25 168.57 440.00 168.68 439.38 C 168.09 439.12 166.91 438.60 166.32 438.34 C 166.29 439.22 166.21 440.99 166.17 441.87 C 165.45 441.83 163.99 441.77 163.26 441.73 C 163.09 440.84 162.73 439.07 162.55 438.18 M 164.31 438.43 C 163.46 439.68 163.69 440.44 165.01 440.70 C 165.85 439.47 165.62 438.71 164.31 438.43 Z" />
<path fill="#231f20" opacity="1.00" d=" M 171.57 437.37 C 172.61 437.20 173.65 437.25 174.69 437.51 C 173.88 437.71 172.25 438.12 171.44 438.33 C 172.29 438.49 173.99 438.82 174.83 438.99 C 173.94 439.49 173.02 439.96 172.08 440.39 C 173.00 440.94 173.91 441.50 174.79 442.13 C 171.43 443.76 170.08 439.70 171.57 437.37 Z" />
<path fill="#231f20" opacity="1.00" d=" M 130.88 438.44 C 132.70 438.42 134.52 438.42 136.35 438.41 C 136.28 439.79 136.09 441.16 135.96 442.54 C 135.58 441.58 134.81 439.65 134.42 438.69 C 134.25 439.71 133.91 441.75 133.74 442.77 C 133.44 441.76 132.83 439.72 132.53 438.70 C 132.18 439.70 131.48 441.69 131.13 442.69 C 130.99 441.27 130.90 439.85 130.88 438.44 Z" />
<path fill="#231f20" opacity="1.00" d=" M 138.28 437.48 C 139.92 438.35 139.81 440.28 140.20 441.85 C 139.19 441.78 137.16 441.62 136.15 441.55 C 137.02 441.00 137.89 440.47 138.78 439.96 C 138.65 439.34 138.40 438.10 138.28 437.48 Z" />
<path fill="#231f20" opacity="1.00" d=" M 111.34 442.57 C 111.04 441.05 111.36 439.74 112.65 438.89 C 112.61 439.80 112.53 441.63 112.50 442.54 C 113.00 442.91 114.00 443.66 114.50 444.03 C 112.09 444.15 109.69 444.28 107.28 444.45 C 106.66 443.91 106.05 443.37 105.44 442.83 C 106.06 442.84 107.31 442.85 107.94 442.85 C 107.82 441.87 107.59 439.90 107.47 438.91 C 110.41 439.36 107.95 443.26 111.34 442.57 Z" />
<path fill="#231f20" opacity="1.00" d=" M 128.56 444.48 C 128.98 444.55 129.83 444.67 130.26 444.73 C 130.31 448.39 129.80 452.19 131.17 455.68 C 130.57 455.49 129.37 455.10 128.77 454.91 C 128.39 451.45 128.49 447.96 128.56 444.48 Z" />
<path fill="#231f20" opacity="1.00" d=" M 132.43 444.79 C 132.82 444.68 133.61 444.47 134.00 444.37 C 134.08 448.21 133.48 452.21 135.05 455.86 C 134.40 455.52 133.09 454.84 132.44 454.50 C 132.09 451.28 132.12 448.00 132.43 444.79 Z" />
<path fill="#231f20" opacity="1.00" d=" M 118.63 455.64 C 119.62 451.52 120.96 447.45 123.00 443.73 C 125.23 447.32 126.41 451.41 127.57 455.44 C 126.13 455.04 125.15 454.10 124.64 452.64 C 123.62 452.63 122.61 452.64 121.60 452.66 C 120.96 454.00 119.97 454.99 118.63 455.64 M 122.29 448.54 C 120.85 449.53 122.33 452.22 123.86 450.97 C 125.15 449.99 123.75 447.32 122.29 448.54 Z" />
<path fill="#231f20" opacity="1.00" d=" M 105.95 445.86 C 107.18 446.00 108.41 446.24 109.61 446.57 C 111.10 446.10 112.59 445.63 114.08 445.19 C 113.97 448.03 113.75 450.87 113.48 453.71 C 112.78 451.68 112.01 449.68 111.29 447.67 C 110.47 447.73 109.65 447.80 108.83 447.88 C 108.14 450.14 107.31 452.35 106.55 454.60 C 106.04 451.71 105.99 448.78 105.95 445.86 Z" />
<path fill="#231f20" opacity="1.00" d=" M 145.54 448.44 C 146.77 447.71 147.94 446.90 149.17 446.19 L 150.31 445.87 C 150.30 446.35 150.29 447.31 150.28 447.79 C 150.71 447.78 151.57 447.76 152.00 447.75 L 152.00 449.07 C 151.53 449.12 150.58 449.22 150.11 449.28 C 150.31 451.41 149.71 454.13 152.44 454.91 C 151.32 455.56 150.05 455.34 148.84 455.21 C 148.73 453.46 148.65 451.69 148.64 449.95 C 148.01 449.46 147.38 448.98 146.74 448.51 C 144.79 450.32 145.30 452.93 145.20 455.28 C 144.76 455.34 143.89 455.45 143.46 455.51 C 143.52 454.54 143.64 452.62 143.70 451.66 C 141.42 451.86 139.13 451.95 136.85 452.15 C 138.26 454.09 140.46 454.02 142.63 453.87 C 140.27 457.67 133.88 454.24 135.75 450.16 C 136.38 446.77 142.62 446.90 142.15 450.86 C 142.78 449.75 143.39 448.62 143.98 447.50 C 144.50 447.80 145.02 448.11 145.54 448.44 M 138.40 449.00 C 136.57 449.43 137.77 451.91 139.32 451.17 C 141.24 450.80 139.96 448.18 138.40 449.00 Z" />
<path fill="#231f20" opacity="1.00" d=" M 155.57 447.81 C 158.07 447.18 160.59 449.43 160.14 452.01 C 160.15 454.94 156.33 456.49 154.13 454.75 C 151.62 453.00 152.39 448.25 155.57 447.81 M 154.99 449.86 C 152.86 451.84 156.54 455.96 157.93 452.94 C 159.46 451.19 156.93 447.67 154.99 449.86 Z" />
<path fill="#231f20" opacity="1.00" d=" M 161.28 447.71 C 163.08 447.84 164.93 447.68 166.68 448.19 C 168.64 449.89 167.74 452.88 168.08 455.16 C 167.67 455.28 166.84 455.54 166.43 455.66 C 165.92 453.52 167.10 450.36 164.97 449.05 C 160.94 449.31 164.94 455.02 161.48 455.77 C 161.13 453.09 161.25 450.39 161.28 447.71 Z" />
<path fill="#231f20" opacity="1.00" d=" M 169.62 448.84 C 171.09 446.96 173.61 447.72 175.06 449.16 C 173.54 449.16 172.02 449.15 170.50 449.17 C 172.01 450.98 176.32 452.13 174.12 455.05 C 172.19 455.80 169.86 455.66 168.65 453.80 C 170.28 453.85 171.90 453.94 173.54 453.96 C 172.26 452.26 168.44 451.51 169.62 448.84 Z" />
<path fill="#231f20" opacity="1.00" d=" M 107.72 455.63 C 108.56 453.86 109.38 452.09 110.14 450.30 C 111.03 452.35 112.06 454.38 113.74 455.92 L 113.89 456.11 C 111.83 455.98 109.77 455.85 107.72 455.63 Z" />
<path fill="#231f20" opacity="1.00" d=" M 188.07 452.07 C 188.96 451.92 189.86 451.83 190.76 451.73 C 190.79 452.81 190.83 454.98 190.85 456.07 C 190.54 455.09 189.93 453.14 189.62 452.16 C 189.34 453.37 189.05 454.57 188.76 455.78 C 188.67 455.06 188.49 453.62 188.40 452.90 C 187.59 452.82 185.97 452.65 185.16 452.57 C 185.89 452.44 187.34 452.20 188.07 452.07 Z" />
<path fill="#231f20" opacity="1.00" d=" M 178.37 452.26 C 180.54 452.39 182.71 452.40 184.89 452.42 C 184.88 452.96 184.85 454.06 184.83 454.60 C 184.44 454.81 183.64 455.22 183.24 455.43 C 181.84 454.50 180.05 454.10 178.85 455.69 C 178.64 455.31 178.21 454.55 177.99 454.17 C 177.43 454.33 176.32 454.63 175.76 454.78 C 176.65 453.96 177.52 453.12 178.37 452.26 M 179.16 453.18 C 179.20 456.47 182.29 451.61 179.16 453.18 M 182.40 453.30 C 182.44 456.66 185.48 451.89 182.40 453.30 Z" />
</g>
<g id="#9e9d9fff">
<path fill="#9e9d9f" opacity="1.00" d=" M 150.65 438.82 C 152.05 437.45 153.84 436.84 155.78 436.85 C 156.20 437.84 156.62 438.84 157.05 439.83 C 156.75 440.41 156.14 441.56 155.84 442.13 C 154.62 442.09 153.40 442.06 152.19 442.02 C 151.68 440.95 151.16 439.88 150.65 438.82 M 154.43 439.11 C 154.50 442.44 157.46 437.67 154.43 439.11 Z" />
</g>
<g id="#747274ff">
<path fill="#747274" opacity="1.00" d=" M 142.15 438.00 C 144.05 438.40 146.00 438.44 147.93 438.33 C 149.66 438.73 148.93 440.72 149.03 441.98 C 147.50 442.86 146.26 441.97 145.13 440.99 C 144.93 441.66 144.53 442.99 144.33 443.66 C 144.19 443.21 143.89 442.33 143.74 441.89 C 142.94 442.01 141.33 442.25 140.52 442.37 C 139.89 440.52 140.68 439.08 142.15 438.00 M 142.15 439.97 C 142.38 443.28 145.11 438.36 142.15 439.97 Z" />
</g>
<g id="#f2f4f6ff">
<path fill="#f2f4f6" opacity="1.00" d=" M 154.43 439.11 C 157.46 437.67 154.50 442.44 154.43 439.11 Z" />
</g>
<g id="#868486ff">
<path fill="#868486" opacity="1.00" d=" M 104.90 439.47 C 105.96 440.55 106.90 441.74 107.94 442.85 C 107.31 442.85 106.06 442.84 105.44 442.83 C 106.05 443.37 106.66 443.91 107.28 444.45 C 109.69 444.28 112.09 444.15 114.50 444.03 C 114.00 443.66 113.00 442.91 112.50 442.54 C 113.62 441.51 114.73 440.47 115.87 439.46 C 115.49 441.15 114.64 442.91 115.32 444.66 C 116.39 448.37 115.96 452.26 116.05 456.07 C 112.71 458.17 108.80 458.42 105.22 456.78 C 105.56 456.32 106.26 455.39 106.60 454.93 L 107.72 455.63 C 109.77 455.85 111.83 455.98 113.89 456.11 L 113.74 455.92 C 113.68 455.37 113.55 454.26 113.48 453.71 C 113.75 450.87 113.97 448.03 114.08 445.19 C 112.59 445.63 111.10 446.10 109.61 446.57 C 108.41 446.24 107.18 446.00 105.95 445.86 L 105.10 445.76 C 105.08 443.66 105.01 441.56 104.90 439.47 Z" />
</g>
<g id="#c6c7c8ff">
<path fill="#c6c7c8" opacity="1.00" d=" M 142.15 439.97 C 145.11 438.36 142.38 443.28 142.15 439.97 Z" />
</g>
<g id="#636162ff">
<path fill="#636162" opacity="1.00" d=" M 142.51 443.25 C 142.76 443.52 142.76 443.52 142.51 443.25 Z" />
</g>
<g id="#adadafff">
<path fill="#adadaf" opacity="1.00" d=" M 104.00 445.64 L 105.10 445.76 L 105.95 445.86 C 105.99 448.78 106.04 451.71 106.55 454.60 L 106.60 454.93 C 106.26 455.39 105.56 456.32 105.22 456.78 L 104.89 457.21 C 103.72 453.46 103.91 449.51 104.00 445.64 Z" />
</g>
<g id="#a1a0a2ff">
<path fill="#a1a0a2" opacity="1.00" d=" M 138.40 449.00 C 139.96 448.18 141.24 450.80 139.32 451.17 C 137.77 451.91 136.57 449.43 138.40 449.00 Z" />
</g>
<g id="#bcbdbfff">
<path fill="#bcbdbf" opacity="1.00" d=" M 184.93 451.59 C 185.66 451.49 187.11 451.29 187.84 451.19 L 188.07 452.07 C 187.34 452.20 185.89 452.44 185.16 452.57 C 185.97 452.65 187.59 452.82 188.40 452.90 C 188.49 453.62 188.67 455.06 188.76 455.78 C 187.57 455.27 185.31 456.18 184.83 454.60 C 184.85 454.06 184.88 452.96 184.89 452.42 L 184.93 451.59 Z" />
</g>
</svg>
