<?xml version="1.0" encoding="utf-8"?>
<!-- Generator: Adobe Illustrator 27.5.0, SVG Export Plug-In . SVG Version: 6.00 Build 0)  -->
<svg version="1.1" id="Calque_1" xmlns="http://www.w3.org/2000/svg" xmlns:xlink="http://www.w3.org/1999/xlink" x="0px" y="0px"
	 viewBox="0 0 279 547" style="enable-background:new 0 0 279 547;" xml:space="preserve">
<style type="text/css">
	.st0{fill:#FFFFFF;}
	.st1{fill:#721919;}
	.st2{fill:#992828;}
	.st3{fill:#872121;}
	.st4{fill:#E6E7E7;}
	.st5{fill:#EDC8AD;}
	.st6{fill:#F1B68B;}
	.st7{fill:#EDC7AB;}
	.st8{fill:#EFC19F;}
	.st9{fill:#EAD6C7;}
	.st10{fill:#E7E2DE;}
	.st11{fill:#F2B182;}
	.st12{fill:#E8DFD8;}
	.st13{fill:#E8E0D9;}
	.st14{fill:#FC8630;}
	.st15{fill:#F79F61;}
	.st16{fill:#E9DACF;}
</style>
<g id="_x23_ffffffff">
	<path class="st0" d="M0,0h279v547H0V0 M123.2,12.2c-12.7,7.3-22.2,19.6-26.4,33.6c-6.1,18.9-4.5,39.3,0.1,58.3
		c3.4,2.6,4,7.6,7.9,9.9c-1.3,4.6-2.9,9.2-5.4,13.3c-1.6,2.8-5.5,4-6,7.5c-0.9,4.9-0.3,10.3,2.3,14.6c1,1.6,1.6,3.8,0.3,5.5
		c-2,2.7-4.4,5.2-6,8.2c-4.2,6.7-1.2,15,1.6,21.6c-6.6,1-13.4,1.9-19.7,4.3C55,195,40.8,206.9,29.8,220.8
		c-7.5,9.3-13.6,19.6-18.5,30.5c-5.2,18.1-5,37.1-5.1,55.7c-0.9,11.3-2.9,22.6-3.2,33.9c-0.1,3.1-0.1,6.2,0.9,9.2
		c1.9,6,3.4,12.2,4.3,18.5c1.1,6.7,0,13.6,0.6,20.3c0.4,5.3-0.7,10.8,0.7,16.1c2.4,7,5.9,13.7,7.3,21c2,12.3,2.7,25.1,7.9,36.7
		c2.5,5.6,7.8,9.1,10.8,14.4c4.4,7.5,7.2,15.8,11.2,23.4c1.9,3.6,5.2,6,8.2,8.6c3.8,3.6,7.3,7.5,9.4,12.3c1.7,4.3,1.1,9,1,13.5
		c0,2.6-0.4,5.5,1.5,7.5c12.8-4.7,26-11.5,40.1-9.4c-1.1-13.8-3.7-27.4-6.7-40.9c-1.3-6.3,0.6-13.2-2.2-19.2
		c-2.3-3.4-4.7-7.1-4-11.5c9.7-0.9,19.5-0.8,29.2,0.1c10.3,0.5,20.5,0,30.8,0.3c15.3,0.5,30.7-0.4,46,0.1c6.7-0.3,13.4,0.4,20-1.1
		c4.9-1.1,10.2-1.9,14.1-5.4c1.7,9,3.8,18.2,2.9,27.5c-0.2,5.8,1.7,11.3,2.8,16.8c0.2,7,2.8,13.5,5.4,19.9c0.4,1.4,1.4,2.3,2.7,2.9
		c2.5-2.8,5.9-4.9,9.6-5.4c4.9-0.9,9.8,0.5,14.6,1c1.5,0.3,3.7-0.3,3.4-2.2c-1.2-6.5-3.7-12.7-4.8-19.2c-1.8-7.5-1.1-15.2-1.1-22.8
		c-0.1-3.4,1-7-0.6-10.1c-2-3.3,2.7-6.5,0.8-9.7c-0.8-1.3-2.3-2-3.4-2.9c1-2,2.6-3.9,2.3-6.2c-1.3-16-1.6-32-0.9-48.1
		c0.8-11.9,1.5-23.9,0.1-35.8c-1.9-20.3-7.8-39.9-12-59.7c-2.1-9.7-2.2-19.7-4.1-29.5c-2.3-11.7-5.3-23.5-10.7-34.2
		c-1.9-3.3-3.8-7.1-7.5-8.7c-2.9-3-5.9-5.9-9.2-8.3c-11.1-8.3-23.1-15.4-35.3-21.9l-0.3-0.5c-0.1-8.3,0-16.7-0.3-25
		c0.2-1.8-1.8-2.2-2.6-0.8c-2.7,3.3-5.7,6.3-8.2,9.7c-0.9,7.1-0.7,14.3-1.5,21.5c-0.5,0.1-1.6,0.3-2.1,0.4
		c-0.8-7.8-0.2-15.8-1.7-23.5c-16.8-9.9-33.8-19.4-50.6-29.2c-1.9-1.4-4.2-0.1-5.8,1.1c-4.9,4.1-6.6,10.5-8.2,16.3
		c-1.2,3.7-0.9,7.9-3.7,10.9c-1.7-2.3-2.6-5.1-3-7.9c-1.1-8.3-0.4-16.7-1.5-25c-0.5-3.9-1.1-7.9-0.9-11.9c5.4,1.5,8.6,7.2,14.2,8.5
		c-2.8-11.3,0.4-22.9,4.1-33.6c1.8-6,6.8-10.6,7.9-16.9c1.6-7.1,0.6-14.5,0.6-21.6c12.5-5.2,26.1-7.5,39.5-8.4
		c13.8-0.6,28.8,0.9,40.1,9.7c3.4,2.1,3.4,6.6,3.6,10.2c-0.5,17.4-1.3,34.7-2.3,52.1c-0.2,2.5-0.1,5.1-0.8,7.5
		c-3.5,4.5-9,7.4-11.8,12.4c0.9,3.7,4.5,9.6,8.8,6.6c4.4-2.7,8.9-6.1,10.9-11.1c0.4-3.1-1.7-6-1.8-9.2c-1.4-13.4,0.1-26.8,1.5-40.1
		c4.4-3.6,8.7-7.4,12.1-11.9c2.6-4.4,6.5-7.9,9-12.4c3.1-8.6,2-18.6-3.6-26c-1.4-4.5-2.2-9.2-4.3-13.4C219.6,20.3,203,8.2,185.1,4.2
		C164.5-1.2,141.7,1.4,123.2,12.2z"/>
	<path class="st0" d="M102.1,82.2c3.1-1.5,6.5-3,10-2.1c3.5,0.9,5.4,5.5,3.7,8.6c-3.9,8.1-7.9,16.1-11.2,24.5
		c-2.9-8-7.1-16.5-4.6-25.1C100.5,86,101.3,84.1,102.1,82.2z"/>
</g>
<g id="_x23_000000ff">
	<path d="M123.2,12.2c18.5-10.8,41.2-13.3,61.9-7.9c17.9,4,34.4,16.1,41.4,33.4c2.1,4.2,2.9,9,4.3,13.4c5.5,7.3,6.7,17.4,3.6,26
		c-2.5,4.5-6.4,7.9-9,12.4c-3.4,4.6-7.7,8.4-12.1,11.9c-1.4,13.3-2.9,26.7-1.5,40.1c0.1,3.1,2.3,6,1.8,9.2c-2,4.9-6.5,8.3-10.9,11.1
		c-4.4,2.9-7.9-3-8.8-6.6c2.8-5.1,8.3-7.9,11.8-12.4c0.6-2.4,0.6-5,0.8-7.5c1-17.4,1.7-34.7,2.3-52.1c-0.2-3.6-0.2-8.1-3.6-10.2
		c-11.3-8.8-26.3-10.3-40.1-9.7c-13.5,0.9-27,3.2-39.5,8.4c-0.1,7.1,1,14.5-0.6,21.6c-1.1,6.3-6.1,10.9-7.9,16.9
		c-3.7,10.7-6.9,22.3-4.1,33.6c-5.6-1.3-8.8-7-14.2-8.5c-0.2,4,0.4,7.9,0.9,11.9c1.1,8.3,0.4,16.7,1.5,25c0.3,2.8,1.2,5.6,3,7.9
		c2.8-3,2.5-7.3,3.7-10.9c1.7-5.8,3.4-12.3,8.2-16.3c1.6-1.2,3.9-2.5,5.8-1.1c16.9,9.7,33.9,19.2,50.6,29.2
		c1.5,7.6,0.9,15.7,1.7,23.5c0.5-0.1,1.6-0.3,2.1-0.4c0.8-7.1,0.6-14.4,1.5-21.5c2.5-3.4,5.5-6.5,8.2-9.7c0.8-1.4,2.9-1,2.6,0.8
		c0.3,8.3,0.2,16.7,0.3,25l0.3,0.5c12.2,6.5,24.2,13.6,35.3,21.9c3.3,2.5,6.4,5.3,9.2,8.3c3.7,1.5,5.6,5.4,7.5,8.7
		c5.4,10.7,8.4,22.4,10.7,34.2c1.9,9.7,2.1,19.7,4.1,29.5c4.3,19.8,10.1,39.4,12,59.7c1.4,11.9,0.8,23.9-0.1,35.8
		c-0.7,16-0.5,32.1,0.9,48.1c0.4,2.3-1.2,4.3-2.3,6.2c1.1,0.9,2.6,1.6,3.4,2.9c2,3.3-2.8,6.4-0.8,9.7c1.6,3.2,0.5,6.8,0.6,10.1
		c0,7.6-0.8,15.4,1.1,22.8c1.1,6.5,3.6,12.7,4.8,19.2c0.4,1.9-1.9,2.6-3.4,2.2c-4.9-0.5-9.7-1.9-14.6-1c-3.8,0.5-7.1,2.6-9.6,5.4
		c-1.3-0.6-2.3-1.5-2.7-2.9c-2.6-6.4-5.2-12.9-5.4-19.9c-1.2-5.6-3-11-2.8-16.8c0.9-9.2-1.2-18.4-2.9-27.5
		c-3.9,3.5-9.2,4.3-14.1,5.4c-6.6,1.5-13.3,0.8-20,1.1c-15.3-0.4-30.7,0.5-46-0.1c-10.3-0.3-20.6,0.2-30.8-0.3
		c-9.7-1-19.5-1-29.2-0.1c-0.7,4.4,1.7,8.1,4,11.5c2.9,6,0.9,12.9,2.2,19.2c3,13.5,5.6,27.1,6.7,40.9c-14-2.1-27.2,4.7-40.1,9.4
		c-1.9-2-1.6-4.9-1.5-7.5c0.1-4.5,0.7-9.2-1-13.5c-2.1-4.8-5.7-8.8-9.4-12.3c-3-2.6-6.3-5.1-8.2-8.6c-4-7.7-6.9-15.9-11.2-23.4
		c-2.9-5.3-8.3-8.8-10.8-14.4c-5.2-11.5-5.9-24.4-7.9-36.7c-1.4-7.3-4.9-14-7.3-21c-1.4-5.2-0.2-10.7-0.7-16.1
		c-0.7-6.8,0.4-13.6-0.6-20.3c-0.9-6.3-2.4-12.5-4.3-18.5c-1-3-0.9-6.1-0.9-9.2c0.4-11.4,2.3-22.6,3.2-33.9
		c0.1-18.6-0.1-37.6,5.1-55.7c4.9-10.9,11-21.2,18.5-30.5c11-13.9,25.2-25.8,42.1-31.7c6.3-2.4,13-3.3,19.7-4.3
		c-2.8-6.6-5.8-15-1.6-21.6c1.6-3,4-5.5,6-8.2c1.2-1.7,0.6-3.8-0.3-5.5c-2.6-4.4-3.2-9.7-2.3-14.6c0.5-3.5,4.3-4.7,6-7.5
		c2.5-4.1,4.1-8.7,5.4-13.3c-3.8-2.4-4.4-7.3-7.9-9.9c-4.6-19-6.2-39.5-0.1-58.3C101,31.8,110.5,19.5,123.2,12.2 M156,3.8l-0.3-0.2
		c-8.8,1.7-17.9,3.2-25.8,7.5c-0.6,0.2-1.9,0.8-2.5,1c-9.6,4.9-18,12.6-23.2,22.1c-9.2,15.9-10.2,35-8.4,52.9
		c1.5-5.5,4.3-10.4,8.1-14.6c5.2-5.3,11.1-10,17.5-13.7c6.5-4.2,14.5-5.1,20.7-9.9c6-4.4,13.1-7.2,20.2-9.3
		c16.8-5.1,35.1-4.4,51.7,1c4.7,1.7,9.2,4,13.1,7.1c-3.8-18.5-18.2-34.3-36.5-39.4C179.6,4.2,167.6,2.6,156,3.8 M145.4,49
		c8.4-1.6,16.9-3.2,25.5-3c16.7-0.4,34.1,4,47,15c5.7,4.7,10.4,11.5,10.4,19.2c8.3-9.5,5.1-25.6-5.1-32.4
		c-9.2-6.2-20.4-8.5-31.2-9.4C176,37.4,159.3,40.5,145.4,49 M102.1,82.2c-0.8,1.9-1.7,3.9-2.1,5.9c-2.4,8.6,1.7,17.2,4.6,25.1
		c3.3-8.4,7.3-16.4,11.2-24.5c1.7-3.2-0.2-7.7-3.7-8.6C108.6,79.2,105.2,80.7,102.1,82.2 M110.7,166.5c-1.9,4.9-1.5,10.9-5.3,14.9
		c4.9,6.6,10.9,12.3,14.7,19.6c1.5,2.6,0.2,6.8,3.3,8.4c4,1.1,8.5-0.1,12.4,1.9c1,2.1-1.4,2.9-2.8,3.7c-4,1.8-8.5,3.3-12.9,2.3
		c-4.7-3.1-2.6-10.8-7.7-13.5c-7.5-4.3-15-9.5-19.3-17.1c-7.4,1.8-15,2.5-22,5.4c-21.5,8.2-38.1,25.7-49.8,45
		c8.2-7.9,17.5-14.7,27.7-19.7c2.9-0.8,5.8-0.4,8.4,0.9c15.4,9.1,29.7,20.3,42.5,32.9c2.9,3.5,6.8,7,7.1,11.9
		c-1.4,5.7-2.6,11.5-2.4,17.4c-0.9,6.9,0.3,13.9,1.7,20.7c0.7,12.3-2.5,24.4-4,36.6c0.7,7.5-4.7,13.4-10.4,17.4
		c-1.6,1.4-4.2,2.6-4.1,5c0.7,6,5.4,10.8,5.4,17c0.2,3.3-1,6.3-2.1,9.3c-2.1,4-5.3,7.2-7.8,10.8c-1.6,3.5,2.3,6.2,4.1,8.8
		c4,5,7.6,10.6,8.5,17c2,12,0.1,24.2-1.6,36.1c10.9-1.2,21.9-0.7,32.8,0.2c23.2,0,46.3,0.6,69.4-0.1c1.5,0.9,2.9-1.6,1.9-2.7
		c-0.1-5.8-0.1-11.7,0.9-17.4c0.1-0.7,0.2-2,0.3-2.7c0.5-12.1-2-24.1-5.3-35.7c-3.6-19.2-5.2-38.8-7.1-58.3
		c-1.2-12.4-2-24.8-2.4-37.2c-0.2-7,0.5-14.1-0.7-21l-0.3,0.5c-0.4-0.2-1.2-0.6-1.7-0.8c0.5,0,1.6,0,2.2,0
		c-2.2-25.8-6.3-51.5-10.4-77.1c-0.6-0.1-1.7-0.3-2.3-0.4c-0.6-7.9-0.9-15.9-1.3-23.9c-16.7-9.9-33.7-19.3-50.5-29.2
		C114.3,155.3,112.5,161.5,110.7,166.5 M179.6,183.4c-0.7,7.2-0.7,14.5-1.4,21.7c-0.5,0.4-1.4,1.2-1.9,1.6
		c1.3,7.5,2.3,15.1,3.7,22.6c1.2,9.6,2.7,19.2,3.9,28.8c0.9,8.8,2.1,17.5,2.7,26.4c0.5,5.5,0.5,11,0.4,16.5
		c0.1,13.7,1.2,27.4,2.4,41.1c1.2,13.3,2.6,26.5,4.2,39.8c1.1,7.8,1.7,15.8,4.1,23.4c2.7,10.4,4.6,21.3,3.9,32.1
		c-0.1,0.8-0.3,2.3-0.4,3c-0.5,3.8-0.9,7.6-0.7,11.4c0,1.3,0,2.7,0.1,4.1c0,1.2,0.1,2.4,0.1,3.7l0.7-0.5c6.8,0.6,13.7,0.4,20.3-1.3
		c4.5-1,10.3-1.8,12.2-6.7c3.3-7.3,1-15.3,1.3-23c0.3-6.5,0.9-13,1.5-19.4c1.2-14.1,2.7-28.1,3.8-42.2l0.1-0.1
		c0.5-9.3,2.7-18.4,4.2-27.6l0.3-1.2c2.8-18,3.3-36.4,1-54.5c-1.7-13.4-4.4-26.7-9.2-39.3c-0.5-2-1.2-4-2.1-5.9
		c-1.3-6.3-6.4-10.7-11.2-14.6c-10.8-8.2-22.5-15.3-34.6-21.6c-1-0.5-2-1.1-3-1.6c-0.5-8-0.3-16.1-0.4-24.1
		C183.7,178.4,181.3,180.6,179.6,183.4 M41.5,224.7c-11,7.2-21.9,16-27.8,28.1c-5.3,18.2-4.9,37.3-5.1,56.1
		c-1,11.4-2.8,22.7-3.1,34.2c-0.2,5,2,9.6,3,14.4c1.5,7.1,3.1,14.3,2.7,21.6c-0.4,6.7,0.9,13.3,0.3,20c-0.7,5.2,2.3,9.7,4,14.3
		c6.8,15.1,4.8,32.5,11.4,47.7c1.6,4.1,4.7,7.3,7.6,10.5c2.7,2.8,4.4,6.3,6.4,9.6c0.3,1.2,0.8,2.3,1.6,3.2c2.4,6.3,4.5,13,8.6,18.5
		c6.1,5.6,13,11.1,15.9,19.2c1.6,5.7,0.5,11.7,0.8,17.5c11.6-4.7,23.7-9.9,36.5-9.1c-1.2-8.9-2.4-17.8-4.2-26.5
		c-1-4.9-2.7-9.7-2.8-14.8c-0.3-4.4,0.2-8.8-0.8-13.1c-1.4-3.5-4.6-6.1-4.9-10c-0.8-7.2,1.2-14.2,1.6-21.4c1-10,1.7-21.1-3.9-29.9
		c-2.3-3.7-5.2-6.9-7.8-10.3c-1.7-2.2-2.6-5.4-1.2-7.9c1.8-2.9,4.3-5.1,6-8l0.2-0.1c2.2-3.7,4.1-7.9,3.3-12.3
		c-1.3-6.1-6.4-11.4-5.3-17.9c0.6-1,1.3-1.9,1.9-2.9c5-3.9,11.4-8,12-15c1.1-11.4,3.6-22.7,4.4-34.2c0.5-5.5-2.1-10.6-2-16
		c-0.1-7.5-0.4-15,1.4-22.4c0.4-2.4,1.8-5,0.3-7.3c-2.9-5-7.1-8.9-11.2-12.8c-9-8.1-18.7-15.6-28.8-22.3c-3.2-1.9-6.2-4.2-9.7-5.4
		C48.8,219.7,45.2,222.7,41.5,224.7 M244.6,259.2c4.5,17.9,6.9,36.6,5.6,55l0.3,0.2c-0.2,0-0.5,0.1-0.7,0.1
		c1.6,5.2-0.7,10.9-0.5,16.3c-1.6,10.2-3.7,20.3-5.4,30.4c-0.1,0.8-0.2,2.4-0.3,3.2c-0.4,2.7-0.6,5.4-0.7,8.2
		c-0.4,3.3-0.8,6.6-0.9,9.9c-0.6,7.1-1.6,14.2-1.7,21.4c-0.1,0.3-0.4,0.9-0.5,1.2c-0.4,6.6-1.2,13.2-1.7,19.8
		c-0.6,8.2,1.5,16.5,0.2,24.7c-0.7,1.5-1.5,3-1.9,4.6c1.1,9.2,4.1,18.3,3,27.7c-0.3,4.1,0.5,8.1,1.5,12.1c0.8,2.6,1.5,5.3,1.7,8
		c0.4,5.9,3.1,11.3,5,16.8c6.9-6.4,16.9-4.7,25.3-3.3c-1.9-8.5-4.9-16.7-5.7-25.4c-0.3-7-0.2-14.1,0.1-21.1c0.3-2.5-1-4.6-1.5-7
		c0.1-2.2,1.2-4.3,1.9-6.3c-1.5-1.3-4-2.4-3.9-4.7c0.9-2.2,2.6-4.3,2-6.9c-1.3-17.3-1.6-34.8-0.4-52.1c0.4-7.3,0.8-14.7,0.4-22
		c-0.5-13.1-3.2-26-5.9-38.8c-3.4-14.3-7.4-28.5-9-43.2c-1.4-15.4-4.6-30.8-10.6-45.1C241.1,248.5,243.5,253.7,244.6,259.2z"/>
</g>
<g id="_x23_ff7a1aff">
	<path class="st1" d="M156,3.8c11.6-1.3,23.6,0.4,34.6,4.4c12.2,6.6,19.9,19.2,23.4,32.3c-16.6-5.4-34.9-6.1-51.7-1
		c0.8-9.8,1.3-19.9-1.6-29.4C159.9,7.6,158.1,5.5,156,3.8z"/>
	<path class="st1" d="M110.7,166.5c1.8-5,3.6-11.2,9.2-13.1c16.8,9.8,33.7,19.3,50.5,29.2c0.3,8,0.7,15.9,1.3,23.9
		c0.6,0.1,1.7,0.3,2.3,0.4c4.1,25.6,8.1,51.2,10.4,77.1c-0.5,0-1.6,0-2.2,0c-5.7,0.7-11.4,0-17.2,0c-20.1-0.6-40.2-2-60.3-2.7
		c1.1-3.8,1.6-7.8,3.1-11.5c2.2-4.8,6.6-8,9.8-12.1c1.1-1.4,0.3-3.3,0-4.8c-1.7-4.8-4-9.7-8.2-12.8c-4.1,2.8-6.9,7-9.4,11.2
		c-12.7-12.6-27-23.8-42.5-32.9c0.3-0.2,0.9-0.7,1.2-1c-0.2-2.8-1.3-5.4-1.3-8.2c0.4-2,1.5-3.7,2.4-5.5c-5.5,3-6,9.9-10.7,13.8
		c-10.2,5-19.5,11.8-27.7,19.7C33,217.6,49.6,200.2,71,192c7.1-2.9,14.7-3.6,22-5.4c4.3,7.7,11.8,12.8,19.3,17.1
		c5.1,2.7,3,10.4,7.7,13.5c4.4,1,8.9-0.5,12.9-2.3c1.4-0.8,3.9-1.7,2.8-3.7c-3.8-2-8.3-0.8-12.4-1.9c-3.1-1.6-1.8-5.7-3.3-8.4
		c-3.8-7.3-9.8-13-14.7-19.6C109.2,177.4,108.8,171.4,110.7,166.5 M119.8,168.1c3,2.2,6.4,3.7,9.7,5.4c7.9,3.8,15.6,8.1,23.7,11.5
		c-3.6-2.6-7.7-4.3-11.6-6.4C134.3,175,127.4,170.8,119.8,168.1z"/>
	<path class="st1" d="M179.6,183.4c1.7-2.7,4.1-5,6.1-7.5c0.1,8-0.1,16.1,0.4,24.1c-2.4,2.1-4.6,4.4-6.6,6.9c2.9,3.7,6.3,7,10,10
		c-0.1-5.1-0.3-10.2-0.3-15.3c12,6.3,23.8,13.3,34.6,21.6c4.8,3.9,9.9,8.3,11.2,14.6c-1.4-2.1-2.9-4-4.5-5.9
		c0.8,4.4,2.4,8.6,2.8,13.1c0.5,12.6,0.5,25.4,2.1,37.9c0.9-1.5,1.3-3.3,1.3-5c0.5-11.4,0.9-22.9,0.4-34.3c4.8,12.6,7.6,26,9.2,39.3
		c-19.7,2.7-39.7,1.6-59.5,1.5c-0.6-8.8-1.8-17.6-2.7-26.4c-0.1-9.5-0.7-19-1.5-28.4c-0.2-3.1-0.9-6.2-2-9.1
		c-0.2,2.9-0.4,5.8-0.4,8.7c-1.4-7.5-2.4-15.1-3.7-22.6c0.5-0.4,1.4-1.2,1.9-1.6C178.9,197.9,178.9,190.6,179.6,183.4z"/>
	<path class="st1" d="M104.7,337.8c10.9,0.7,21.7,1.6,32.6,2.2c2.7,6.1,6.2,12.1,6,18.9c0.1,5.4-0.4,12.9,5.6,15.4
		c0.7-2.1,1.2-4.2,0.9-6.4c-1.1-9.7-6.3-18.3-8.7-27.7c14.6,1,29.3,1.4,43.9,1.8c0.5,0,1.6,0.1,2.1,0.2c1.8,19.5,3.5,39,7.1,58.3
		c3.3,11.6,5.9,23.6,5.3,35.7c-8.6-4.4-17.3-8.5-25.9-12.9c-6.2-3.1-10.7-8.6-15.3-13.7c-7.8-9.1-15.5-18.5-20.7-29.4
		C129.1,364.3,113.2,353.8,104.7,337.8z"/>
	<path class="st1" d="M189.5,342.1c18.6-0.2,37.7,0.6,55.8-4.6l-0.3,1.2c-1,3.8-2.6,7.5-4,11.2c-2.2,5.3-0.6,11-0.2,16.4l-0.1,0.1
		c-6.6,8.9-12.4,18.4-18.7,27.5c-3.1,4.9-6.9,9.3-9.4,14.6c4.3-3.2,6.3-8.3,9.7-12.3c4.6-5.6,9.3-11.2,14.9-15.8
		c-2.2,18.9-10.2,36.7-10.9,55.8c2.8-4.1,2.4-9.3,4-13.9c1.1-5,3.8-9.4,6.6-13.7c-0.6,6.4-1.2,12.9-1.5,19.4c-0.4,7.6,2,15.7-1.3,23
		c-1.9,4.9-7.7,5.6-12.2,6.7c-5.9-0.4-11.8-1.6-17.1-4.3c-1,1.9-2,3.8-3.2,5.6l-0.7,0.5c-0.1-1.2-0.1-2.4-0.1-3.7
		c2.6-2.9,5.4-6.1,5.8-10.1c0.2-3.5-2.5-6.1-4.8-8.4c0.7-10.8-1.2-21.6-3.9-32.1c-2.3-7.6-3-15.5-4.1-23.4
		C192.2,368.6,190.7,355.4,189.5,342.1 M201.8,418.7c3.6,5.5,8.8,9.8,11.8,15.6c1.4,2.2,0.9,5,1.7,7.4c1.8,3,5.7,5,9.1,3.4
		c-2.5-2.6-6.2-4.2-7.7-7.6c-2.2-4.4-4.9-8.4-7.9-12.2C206.7,422.7,204.8,420,201.8,418.7z"/>
	<path class="st1" d="M99.7,356c-0.5-3.2,1.2-8,5.1-7.7c3.4,0.6,5.7,3.5,8.1,5.8c9.6,10.8,18.2,22.5,26.4,34.5
		c4.2,6.6,8.9,13,11.8,20.2c2.3,5.7,7.7,9.1,12.5,12.5c7.3,4.7,14.9,9.1,23.2,11.9c4.4,1.4,8.5,3.5,12.4,5.7c-1,5.8-1,11.6-0.9,17.4
		c-1.1,0.4-2,1.5-1.9,2.7c-23.1,0.7-46.3,0.1-69.4,0.1c-10.9-0.9-21.9-1.4-32.8-0.2c1.8-11.9,3.6-24.1,1.6-36.1
		c-1-6.4-4.6-12-8.5-17c-0.2-3.2-0.6-6.5,0-9.6c1.5-3.2,5.4-5.9,3.7-9.9c1.1-3,2.3-6.1,2.1-9.3c0-6.2-4.7-11-5.4-17
		c0-2.5,2.5-3.6,4.1-5c5.3,6.1,11.7,11.2,17.9,16.3c5,3.9,9.9,8.1,15.8,10.7c-0.6-2-1.5-4-3.1-5.5c-5.8-5.9-12.2-11.1-19-15.9
		C101.8,359.5,99.8,358.2,99.7,356 M98.8,381.8c4.1,4.5,9.2,8,14.2,11.3C108.6,389,103.9,385,98.8,381.8 M96,403.8
		c0.6,2.3,1.5,4.5,2.7,6.5c4.3,7.2,9.2,14,14.5,20.4c0.9,1.2,2.2,2,3.4,2.7c-1.2-3.7-3.7-6.9-5.9-10.1
		C105.9,416.8,101.4,409.9,96,403.8 M127.7,403.8c1.7,1.8,3.6,3.5,5.7,5c7.5,5.5,14.8,11.3,22.7,16.2c1.7,1.1,3.6,1.8,5.6,2.4
		c-2.3-3.5-6.2-5.2-9.4-7.6C144.1,414.5,136.2,408.5,127.7,403.8 M129.7,440.6c0.1-2,0.2-4.1,0.1-6.1
		C128.1,436,128.3,439,129.7,440.6 M158.6,437.2c0.7-0.3,2-0.9,2.7-1.2c-0.8,1.5-1.7,2.9-2.6,4.2c0.9,0,2.7,0,3.6,0
		c-1.3-1.6,0.8-3.5-0.4-5.1C160.1,434.3,159.2,435.7,158.6,437.2 M163.3,435.3c-0.1,1.5-0.2,2.9-0.3,4.4c0.8,0.1,2.4,0.1,3.2,0.2
		c0.3-1.6,0.2-3.3-0.4-4.8C165.2,435.1,163.9,435.2,163.3,435.3 M167.2,435.9c0.3,1.4,0.7,2.8,1,4.2c0.4,0,1.2,0,1.6,0
		c0-1.8,0-3.6,0-5.4C169,435.1,168.1,435.5,167.2,435.9 M171.3,435.4c-0.1,1.4-0.2,2.8-0.2,4.2c0.8,0.1,2.4,0.3,3.2,0.4
		c0-1.6-0.1-3.3-0.4-4.9C173.2,435.2,171.9,435.3,171.3,435.4 M134.9,436.2c-0.6,1-0.4,3.3,0.9,3.6
		C136.4,438.7,136.3,436.4,134.9,436.2 M137.4,435.9c0.4,0.5,1.2,1.5,1.7,2c-0.7-0.2-2.1-0.6-2.7-0.8c0.1,0.8,0.2,2.3,0.3,3.1
		c1.3,0.1,2.7,0.2,4,0.2C140.8,438,140.4,435.2,137.4,435.9 M141.7,436.6c-0.8,1.1-0.4,2.4-0.2,3.6c1.1,0.2,2.3,0.4,3.4,0.6
		c-0.1-0.7-0.2-2.1-0.3-2.8c0.9,0.9,1.7,1.8,2.7,2.6c1.7-0.1,1.2-2.5,1.7-3.6c-0.5-0.2-1.5-0.7-2-0.9c-0.5,0.5-1.4,1.4-1.9,1.9
		C145.2,435.7,143,436.5,141.7,436.6 M111.5,440.3c-0.7,0-2.2,0-2.9,0.1c0.3-0.6,1-1.9,1.3-2.5c-0.7-0.1-2.1-0.1-2.8-0.2
		c0.3,0.8,0.6,1.7,0.9,2.5c-0.4,0.1-1.2,0.4-1.6,0.6l-0.5,1.6c-3.1,2.9-1.5,8.5-0.9,12.3c3.7,1.6,7.8,1.7,11.1-0.8
		c-0.3-3.8,0.5-7.7-0.7-11.3c-0.9-1.7,0.2-3.5,0.7-5.1c-1.3,0.8-2.4,1.9-3.5,3c0-0.9,0-2.6,0.1-3.5
		C111.2,437.6,111.1,438.9,111.5,440.3 M131.7,439.6c0-0.7,0-2.1,0-2.8C130.3,436.6,130.3,440,131.7,439.6 M132.9,436.7
		c-0.5,1.5-0.2,2.5,1,2.9C134.4,438.1,134.1,437.2,132.9,436.7 M154.3,438.8c2.3,1.6,3.1-3.4,0.3-2.2
		C154.6,437.1,154.4,438.2,154.3,438.8 M128.6,442.3c0,3.1-0.2,6.2,0,9.3c0,1.4,1.6,1.6,2.5,2.2c-1-2.9-0.9-5.9-0.9-8.9
		C130.6,443.6,129.8,442.5,128.6,442.3 M132.4,442.4c-0.1,3.4-0.4,6.7,0,10.1c0.7,0.3,2.1,0.8,2.8,1.1c-2-3.3-1-7.2-1.2-10.9
		C133.6,442.6,132.8,442.5,132.4,442.4 M118.6,453.3c1.5-0.1,2.5-0.9,2.8-2.6c1.1,0,2.3,0,3.4,0c0.3,1.6,1.2,2.5,2.7,2.7
		c-1.2-3.9-2-8.2-4.6-11.4C120.9,445.5,119.8,449.4,118.6,453.3 M145.6,446.4c-0.5-0.3-1.4-0.8-1.8-1c0,0.8-0.1,2.3-0.1,3.1
		c-0.6-0.2-1.7-0.5-2.2-0.7l0.6-1.1c-2.7-1.9-7.1-0.4-6.4,3.4c-0.2,3.5,6.1,5.2,6.8,1.6c-0.8,0.1-2.5,0.4-3.4,0.5
		c-0.7-0.6-1.3-1.2-2-1.8c1.6-0.3,3.2-0.5,4.8-0.8c1.4,0.9,2,2.4,2,4.1c0.4-0.1,1.1-0.2,1.5-0.3c0-2.4-0.3-5,1.5-6.9
		c2.3,1.5,1.9,4.3,2.2,6.6c0.9,0.2,1.9,0.5,2.8,0.8c0.1-0.4,0.3-1.1,0.4-1.4c-2.7-0.1-1.5-3.1-1.9-4.7c0.5-0.4,1.6-1.1,2.2-1.5
		c-1.4-0.1-2.2-0.9-2.3-2.3C148.5,444.6,146.9,445.4,145.6,446.4 M154.3,446.3c-2.8,1.8-1.8,7,1.7,7.1c2.5,0.5,4.7-2.1,4.1-4.5
		C159.9,446.1,156.4,444.9,154.3,446.3 M161.2,445.8c0,2.6,0,5.2,0.2,7.9c0.4-0.1,1.2-0.3,1.6-0.4c0-1.8,0-3.6-0.1-5.5
		c0.9-0.3,1.8-0.5,2.7-0.6c0.7,2.2,0.7,4.6,1.1,6.8c2.1-1.3,1.3-4.1,1.1-6C167.2,444.9,163.4,446,161.2,445.8 M169.3,448
		c0.4,2,3.1,2,4,3.9c-1.6,0.1-3.1,0.2-4.7,0.3c1.6,1.5,5.4,2.1,6.1-0.5c0.2-2.5-3.3-2.5-4.1-4.5c1.3,0,2.7,0.1,4,0.1
		c-0.2-0.4-0.5-1.1-0.6-1.5C172.3,445.7,169.4,445.5,169.3,448 M178.1,449.8c-0.9,1.2-1.9,2.3-2.8,3.5c4.6,0.3,9.2,0,13.8,0.1
		c0.1-0.6,0.3-1.7,0.4-2.3c0.3,0.8,1,2.2,1.4,3c0-1.1,0.1-3.3,0.2-4.4C186.7,449.5,182.4,449.8,178.1,449.8z"/>
	<path class="st1" d="M164.4,436.4c1.2,0.3,1.5,1.1,0.6,2.4C163.8,438.4,163.6,437.6,164.4,436.4z"/>
	<path class="st1" d="M142.7,438.1C143.2,438.4,143.2,438.4,142.7,438.1z"/>
	<path class="st1" d="M172.5,438.2C173,438.7,173,438.7,172.5,438.2z"/>
	<path class="st1" d="M122.2,449c-1.2-1,0.1-3.7,1.6-2.6C125.2,447.4,123.8,450.2,122.2,449z"/>
	<path class="st1" d="M155.4,447.5c3.3-1.8,4.1,4.9,0.7,4.5C154.2,451.3,153.9,448.7,155.4,447.5z"/>
	<path class="st1" d="M179.3,451.1C182.4,449.7,179.2,454.3,179.3,451.1z"/>
</g>
<g id="_x23_0046adff">
	<path class="st1" d="M129.9,11.1c7.9-4.3,17.1-5.8,25.8-7.5l0.3,0.2c2.1,1.6,4,3.8,4.7,6.4c2.9,9.5,2.4,19.6,1.6,29.4
		c-7.1,2.1-14.2,4.9-20.2,9.3c-6.1,4.8-14.2,5.7-20.7,9.9c-4-1.6-8.6-3.5-10.2-7.9c-2.2-6,0.4-12.4,3.1-17.7
		C118.3,25.1,124.8,18.6,129.9,11.1z"/>
	<path class="st1" d="M190.6,8.2c18.2,5.1,32.7,20.9,36.5,39.4c-3.9-3.1-8.4-5.3-13.1-7.1C210.5,27.5,202.8,14.8,190.6,8.2z"/>
	<path class="st1" d="M145.4,49c13.8-8.5,30.5-11.6,46.6-10.6c10.9,0.9,22.1,3.2,31.2,9.4c10.2,6.8,13.4,23,5.1,32.4
		c0-7.7-4.7-14.4-10.4-19.2C205,50,187.6,45.6,171,46C162.4,45.8,153.8,47.4,145.4,49z"/>
	<path class="st1" d="M41.5,224.7c3.6-2,7.2-5,11.5-4.9c3.5,1.2,6.5,3.5,9.7,5.4c10.1,6.7,19.8,14.2,28.8,22.3
		c4.1,3.9,8.4,7.9,11.2,12.8c1.5,2.3,0.1,4.9-0.3,7.3c-1.8,7.3-1.5,14.9-1.4,22.4c-0.1,5.4,2.5,10.5,2,16
		c-0.8,11.5-3.3,22.7-4.4,34.2c-0.6,7-7,11-12,15c2.9-5.1,5.9-10.2,8.6-15.4c-6.2,2.5-11.9,6.1-18.2,8.6c-2.7,1.2-5.6-0.1-8.1-1.4
		c-7.8-4.2-13.6-11-19.8-17.2c-0.3,2.1-0.3,4.3,0.8,6.2c4,8,8.6,15.6,12.4,23.7c0.5,1.4,1.5,2.9,0.8,4.5c-2.3,1.8-5.4,2.4-8.1,3.3
		c-0.1,1.6-0.2,3.2-0.3,4.8c2.3-1.2,4.5-2.6,7.1-3.2c4-0.4,6,5.1,10,4.1c5.7-3.6,9.6-9.4,12.9-15.1c-1.1,6.6,4,11.8,5.3,17.9
		c0.7,4.4-1.2,8.6-3.3,12.3l-0.2,0.1C80.8,391.7,75.1,396,72,402c-0.7,3.9,2.7,7.2,4.9,10c2.6,2.8,5.8,5.9,10,5.8
		c1.2-0.8,1.7-2.1,2.6-3.1c5.6,8.8,4.8,20,3.9,29.9c-0.4,7.1-2.4,14.2-1.6,21.4c0.3,3.9,3.5,6.5,4.9,10c1.1,4.3,0.6,8.7,0.8,13.1
		c0.1,5.1,1.8,9.9,2.8,14.8c1.7,8.8,3,17.7,4.2,26.5c-12.8-0.8-24.9,4.4-36.5,9.1c-0.3-5.8,0.8-11.8-0.8-17.5
		c-2.9-8.1-9.8-13.6-15.9-19.2c-4.1-5.5-6.2-12.2-8.6-18.5c8.2,5.9,16.4,12,25.2,16.9c1.7,0.9,3.6,1.5,5.5,2.1
		c-0.7-4.6-5.8-5.5-9.2-7.4c-6.9-3.8-12.5-9.4-18.4-14.6c-1.3-1.2-2.9-1.9-4.5-2.6c-0.1,0.6-0.2,1.9-0.3,2.5c-2-3.3-3.7-6.8-6.4-9.6
		c-2.9-3.2-6-6.4-7.6-10.5c-6.6-15.2-4.5-32.6-11.4-47.7c-1.7-4.6-4.8-9.2-4-14.3c0.5-6.7-0.8-13.3-0.3-20
		c0.4-7.3-1.2-14.5-2.7-21.6c-1-4.8-3.2-9.4-3-14.4c0.2-11.5,2.1-22.8,3.1-34.2c0.2-18.8-0.2-37.9,5.1-56.1
		C19.7,240.7,30.5,231.9,41.5,224.7 M13.7,320.6c0.1,1.6-0.5,3.6,1,4.7c3.2,2.6,7.5,3,11,5c9.1,5.3,16.4,13,24.4,19.9
		c-1.9-6-3.9-12.3-8.1-17.1C33.9,326.5,23.6,323.2,13.7,320.6 M11.8,376.8c-0.9,7.6,0.5,15.7,4.3,22.4c7.1-2.6,14.6-3.8,21.7-6.3
		c-1.2-1.9-3.5-2.5-5.5-3.3C24.7,386.8,18.5,381.2,11.8,376.8 M72.8,427.8c-7.6,7.7-15.1,15.5-22.9,23c-2.2,2.1-4.6,3.9-6.3,6.5
		c7.2-2.5,12.9-7.8,19.4-11.5c6.4-3.6,11.4-9.3,17.6-13.2c1.7-1.3,3.8-0.3,5.7-0.3c2.4-1.1,3.9-3.6,4.8-6.1
		C85.2,424.8,77.8,423.1,72.8,427.8 M53,460.6c3.6,3.2,8.5,4,12.9,5.5c7.8,2.1,15.7,4.6,23.8,4.9c-3.4-2.4-7.6-3.2-11.5-4.4
		C69.9,464.4,61.6,461.8,53,460.6 M85.9,481.9c-2.2,2.6-2.3,6.2-2.9,9.4c2.4-2.7,4.4-5.8,7.1-8.2c2.3-2.1,6.4-3.1,5.7-7
		C92.1,477.2,88.6,479.1,85.9,481.9z"/>
	<path class="st1" d="M244.6,259.2c-1.1-5.5-3.5-10.7-4.4-16.3c6,14.3,9.3,29.7,10.6,45.1c1.6,14.7,5.7,28.9,9,43.2
		c2.7,12.8,5.4,25.7,5.9,38.8c0.4,7.3,0,14.7-0.4,22c-1.2,17.3-0.9,34.8,0.4,52.1c0.5,2.6-1.1,4.7-2,6.9c-0.1,2.4,2.3,3.4,3.9,4.7
		c-0.8,2.1-1.8,4.1-1.9,6.3c0.5,2.3,1.9,4.5,1.5,7c-0.3,7-0.4,14.1-0.1,21.1c0.8,8.7,3.8,16.9,5.7,25.4c-8.4-1.4-18.4-3-25.3,3.3
		c-1.9-5.5-4.6-10.9-5-16.8c-0.2-2.7-0.9-5.4-1.7-8c6.8,1.6,12.5-3,17.1-7.4c-3.3,0.5-6.6,1-10,1.4c-1.8-3.7-3.5-8.5-1.1-12.3
		c4-4.8,10-7.5,14.4-11.9c-6.5,2.8-11.4,8.2-18.1,10.5c-1.3-3.8-2.5-7.9-1.5-11.9c1.7-6.8,1.3-13.8,0.3-20.7
		c-1.2,2.7-2.5,5.3-3.8,7.9c1.3-8.2-0.8-16.4-0.2-24.7c0.5-6.6,1.3-13.2,1.7-19.8c2.7-1.8,5.4-3.8,8.6-4.6c4.2-1,8.5-1.2,12.8-1.6
		c0.2-0.5,0.6-1.4,0.9-1.9c-3.5-1.5-7.8-2.4-11.3-0.3c-3.7,2.1-7.1,4.7-10.5,7.2c0.1-7.2,1.1-14.2,1.7-21.4
		c6.2-4,12.7-7.7,18.8-11.9c1.6-0.9,1.7-2.7,1.7-4.3c-6.1,3.3-12.5,6.2-19.6,6.3c0.1-2.7,0.3-5.5,0.7-8.2c3.9-3.4,7.5-7.1,11.2-10.7
		c2.5-2.5,5.6-4.7,6.8-8.2c-7,3.8-11.5,10.8-17.7,15.6c1.6-10.2,3.8-20.3,5.4-30.4c0.8-2.2,1.7-4.4,2.1-6.8c0.2-2.5-0.8-5-0.4-7.5
		c0.5-1,0.3-1.7-0.6-2.1l-0.3-0.2C251.4,295.8,249,277.1,244.6,259.2z"/>
	<path class="st1" d="M104.6,281.1c20.1,0.6,40.2,2.1,60.3,2.7c5.7,0.1,11.4,0.7,17.2,0c0.4,0.2,1.2,0.6,1.7,0.8
		c-1.1,1.6-1.5,3.5-1.3,5.4c0.8,17.4,1.2,34.8,2.6,52.1c-14.7-0.4-29.3-0.8-43.9-1.8l-0.4,0c-1.6-4.9-3.4-9.8-5.6-14.5
		c-1.7-3.7-3.5-7.6-4-11.7c-0.5-4.1,0.4-8.1,1.1-12c1.1-6.3,1.1-12.6,1.7-18.9c-1.2-0.1-2.4-0.1-3.5-0.1c0.3,9.3-2.2,18.4-1.8,27.7
		c1.8,10.1,5.6,19.7,8.8,29.4c-10.9-0.6-21.7-1.5-32.6-2.2c2.6-10.4,7.1-20.6,6.7-31.6C109.6,297.8,106.1,289.7,104.6,281.1z"/>
	<path class="st1" d="M186.7,284.5c19.8,0.1,39.8,1.2,59.5-1.5c2.4,18.1,1.8,36.5-1,54.5c-18.1,5.2-37.1,4.4-55.8,4.6
		c-1.2-13.7-2.3-27.4-2.4-41.1C187.2,295.5,187.2,290,186.7,284.5z"/>
</g>
<g id="_x23_f89b58ff">
	<path class="st2" d="M104.1,34.2c5.2-9.5,13.6-17.1,23.2-22.1c-10.9,7.3-18,19.3-21.2,31.9c-2.4,9.3-2.9,18.9-2.3,28.5
		c-3.8,4.2-6.7,9.1-8.1,14.6C93.9,69.2,94.9,50.1,104.1,34.2z"/>
	<path class="st2" d="M186.1,200.1c1,0.5,2,1,3,1.6c0,5.1,0.2,10.2,0.3,15.3c-3.6-3-7-6.3-10-10
		C181.5,204.4,183.8,202.2,186.1,200.1z"/>
	<path class="st2" d="M49,217.3c4.7-3.8,5.1-10.8,10.7-13.8c-0.9,1.8-2,3.6-2.4,5.5c0,2.8,1.1,5.4,1.3,8.2c-0.3,0.2-0.9,0.7-1.2,1
		C54.7,216.9,51.8,216.5,49,217.3z"/>
	<path class="st2" d="M180.4,220.6c1.1,2.9,1.8,6,2,9.1c0.8,9.4,1.4,18.9,1.5,28.4c-1.3-9.6-2.8-19.2-3.9-28.8
		C180.1,226.4,180.2,223.5,180.4,220.6z"/>
	<path class="st2" d="M230.4,232c1.6,1.9,3.2,3.8,4.5,5.9c0.9,1.9,1.6,3.8,2.1,5.9c0.5,11.4,0.1,22.9-0.4,34.3c0,1.8-0.4,3.5-1.3,5
		c-1.6-12.6-1.6-25.3-2.1-37.9C232.8,240.6,231.2,236.4,230.4,232z"/>
	<path class="st2" d="M109.2,239.9c4.2,3.1,6.5,8,8.2,12.8c0.3,1.5,1.1,3.4,0,4.8c-3.2,4.1-7.5,7.4-9.8,12.1
		c-1.5,3.7-1.9,7.7-3.1,11.5l-0.2-0.8c-0.1-5.9,1.1-11.7,2.4-17.4c-0.2-4.9-4.1-8.4-7.1-11.9C102.3,246.9,105.1,242.7,109.2,239.9z"
		/>
	<path class="st2" d="M102.2,337.6c0.6,0.1,1.8,0.2,2.5,0.3c8.6,16,24.5,26.5,33,42.5c5.1,10.9,12.9,20.3,20.7,29.4
		c4.6,5.1,9.1,10.6,15.3,13.7c8.6,4.4,17.3,8.5,25.9,12.9c-0.1,0.7-0.2,2-0.3,2.7c-4-2.3-8.1-4.3-12.4-5.7
		c-8.3-2.7-15.9-7.1-23.2-11.9c-4.8-3.4-10.2-6.8-12.5-12.5c-3-7.3-7.6-13.7-11.8-20.2c-8.1-12-16.7-23.7-26.4-34.5
		c-2.3-2.3-4.7-5.2-8.1-5.8c-3.9-0.3-5.7,4.4-5.1,7.7c0.2,2.2,2.1,3.5,3.7,4.7c6.8,4.7,13.2,10,19,15.9c1.6,1.5,2.5,3.4,3.1,5.5
		c-5.9-2.6-10.7-6.8-15.8-10.7c-6.2-5.1-12.6-10.2-17.9-16.3C97.4,351,102.9,345.1,102.2,337.6z"/>
	<path class="st2" d="M240.9,349.9c1.5-3.7,3-7.4,4-11.2c-1.5,9.2-3.7,18.3-4.2,27.6C240.3,360.9,238.8,355.2,240.9,349.9z"/>
	<path class="st2" d="M137.3,340c1.1,0.1,2.3,0.1,3.4,0.2l0.4,0c2.4,9.4,7.6,18,8.7,27.7c0.4,2.2-0.2,4.3-0.9,6.4
		c-6.1-2.5-5.5-9.9-5.6-15.4C143.5,352.1,139.9,346.1,137.3,340z"/>
	<path class="st2" d="M222,394c6.3-9.1,12.1-18.6,18.7-27.5c-1.1,14.1-2.6,28.1-3.8,42.2c-2.7,4.3-5.4,8.7-6.6,13.7
		c-1.6,4.6-1.2,9.8-4,13.9c0.7-19.1,8.7-36.9,10.9-55.8c-5.7,4.5-10.3,10.2-14.9,15.8c-3.4,4-5.4,9.1-9.7,12.3
		C215,403.3,218.9,398.8,222,394z"/>
	<path class="st2" d="M83.2,397.2c2.5-3.7,5.8-6.8,7.8-10.8c1.7,4-2.1,6.7-3.7,9.9c-0.6,3.2-0.2,6.4,0,9.6
		C85.5,403.4,81.6,400.7,83.2,397.2z"/>
	<path class="st2" d="M201.8,418.7c3,1.4,4.9,4,6.9,6.5c3,3.8,5.7,7.9,7.9,12.2c1.5,3.5,5.2,5,7.7,7.6c-3.4,1.6-7.2-0.4-9.1-3.4
		c-0.8-2.4-0.3-5.2-1.7-7.4C210.6,428.5,205.4,424.2,201.8,418.7z"/>
	<path class="st2" d="M201.5,459c1.2-1.8,2.2-3.7,3.2-5.6c5.3,2.7,11.2,3.8,17.1,4.3C215.2,459.3,208.3,459.6,201.5,459z"/>
</g>
<g id="_x23_4576bfff">
	<path class="st3" d="M127.4,12.1c0.6-0.2,1.9-0.8,2.5-1c-5,7.5-11.5,14-15.6,22.2c-2.8,5.3-5.4,11.7-3.1,17.7
		c1.7,4.3,6.2,6.3,10.2,7.9c-6.4,3.7-12.3,8.4-17.5,13.7c-0.6-9.5-0.1-19.2,2.3-28.5C109.3,31.4,116.4,19.4,127.4,12.1z"/>
	<path class="st3" d="M104.4,280.3l0.2,0.8c1.5,8.6,5,16.6,6.8,25.1c0.4,11-4.1,21.2-6.7,31.6c-0.6-0.1-1.9-0.2-2.5-0.3
		c1.5-12.1,4.7-24.2,4-36.6C104.7,294.2,103.5,287.3,104.4,280.3z"/>
	<path class="st3" d="M130.3,282.9c1.2,0,2.4,0.1,3.5,0.1c-0.5,6.3-0.6,12.7-1.7,18.9c-0.6,4-1.6,8-1.1,12c0.5,4.1,2.3,8,4,11.7
		c2.2,4.7,4,9.6,5.6,14.5c-1.1-0.1-2.3-0.1-3.4-0.2c-3.2-9.7-7-19.3-8.8-29.4C128,301.4,130.6,292.2,130.3,282.9z"/>
	<path class="st3" d="M250.4,314.4c0.8,0.4,1,1.1,0.6,2.1c-0.4,2.5,0.6,5,0.4,7.5c-0.4,2.3-1.3,4.5-2.1,6.8
		c-0.2-5.4,2.1-11,0.5-16.3C249.9,314.5,250.2,314.4,250.4,314.4z"/>
	<path class="st3" d="M13.7,320.6c10,2.6,20.2,5.9,28.3,12.5c4.2,4.8,6.3,11.1,8.1,17.1c-7.9-6.8-15.2-14.6-24.4-19.9
		c-3.5-2-7.9-2.4-11-5C13.2,324.2,13.7,322.2,13.7,320.6z"/>
	<path class="st3" d="M50.1,335.9c-1.1-1.9-1.1-4.1-0.8-6.2c6.2,6.2,12,12.9,19.8,17.2c2.4,1.2,5.3,2.5,8.1,1.4
		c6.2-2.5,11.9-6,18.2-8.6c-2.7,5.3-5.7,10.3-8.6,15.4c-0.6,1-1.3,1.9-1.9,2.9c-3.3,5.7-7.1,11.6-12.9,15.1c-3.9,1-6-4.5-10-4.1
		c-2.5,0.5-4.8,2-7.1,3.2c0.1-1.6,0.2-3.2,0.3-4.8c2.8-1,5.8-1.5,8.1-3.3c0.7-1.5-0.3-3.1-0.8-4.5C58.7,351.5,54.1,343.9,50.1,335.9
		z"/>
	<path class="st3" d="M242.8,372.6c7.1-0.1,13.5-3,19.6-6.3c0,1.6-0.1,3.5-1.7,4.3c-6.1,4.2-12.6,7.9-18.8,11.9
		C242,379.2,242.4,375.9,242.8,372.6z"/>
	<path class="st3" d="M11.8,376.8c6.7,4.5,12.9,10,20.6,12.8c2,0.8,4.2,1.4,5.5,3.3c-7.1,2.5-14.6,3.7-21.7,6.3
		C12.3,392.5,10.9,384.4,11.8,376.8z"/>
	<path class="st3" d="M72,402c3.1-6,8.8-10.3,14.5-13.6c-1.6,2.9-4.2,5.2-6,8c-1.4,2.5-0.6,5.7,1.2,7.9c2.6,3.5,5.6,6.6,7.8,10.3
		c-0.8,1-1.4,2.4-2.6,3.1c-4.1,0.2-7.3-3-10-5.8C74.7,409.2,71.3,405.9,72,402z"/>
	<path class="st3" d="M250.7,396.7c3.5-2.1,7.7-1.2,11.3,0.3c-0.2,0.5-0.6,1.4-0.9,1.9c-4.3,0.5-8.6,0.6-12.8,1.6
		c-3.2,0.8-5.9,2.9-8.6,4.6c0.1-0.3,0.4-0.9,0.5-1.2C243.6,401.4,247,398.9,250.7,396.7z"/>
	<path class="st3" d="M72.8,427.8c5-4.7,12.4-3,18.3-1.5c-0.8,2.5-2.4,4.9-4.8,6.1c-1.9-0.1-4-1-5.7,0.3
		c-6.2,3.9-11.2,9.5-17.6,13.2c-6.5,3.7-12.2,9-19.4,11.5c1.7-2.5,4.1-4.4,6.3-6.5C57.7,443.3,65.2,435.5,72.8,427.8z"/>
	<path class="st3" d="M242,441.7c0.9,6.8,1.3,13.9-0.3,20.7c-1,4,0.2,8.1,1.5,11.9c6.7-2.3,11.6-7.7,18.1-10.5
		c-4.4,4.4-10.4,7.1-14.4,11.9c-2.4,3.8-0.7,8.6,1.1,12.3c3.3-0.4,6.6-0.9,10-1.4c-4.6,4.3-10.3,9-17.1,7.4c-1-4-1.8-8-1.5-12.1
		c1.1-9.4-1.9-18.5-3-27.7c0.4-1.6,1.1-3.1,1.9-4.6C239.5,447,240.7,444.4,242,441.7z"/>
	<path class="st3" d="M53,460.6c8.6,1.2,16.9,3.8,25.2,6c3.9,1.2,8.1,2,11.5,4.4c-8.1-0.2-16-2.8-23.8-4.9
		C61.5,464.6,56.7,463.7,53,460.6z"/>
	<path class="st3" d="M85.9,481.9c2.7-2.8,6.3-4.6,9.9-5.9c0.7,3.9-3.5,4.9-5.7,7c-2.7,2.5-4.7,5.5-7.1,8.2
		C83.6,488,83.7,484.5,85.9,481.9z"/>
	<path class="st3" d="M41.3,478.6c1.5,0.7,3.1,1.5,4.5,2.6c5.9,5.1,11.5,10.8,18.4,14.6c3.4,1.9,8.5,2.8,9.2,7.4
		c-1.9-0.6-3.7-1.2-5.5-2.1c-8.9-4.9-17-11-25.2-16.9c-0.8-0.9-1.3-2-1.6-3.2C41,480.4,41.2,479.2,41.3,478.6z"/>
</g>
<g id="_x23_f8a367ff">
	<path class="st1" d="M119.8,168.1c7.6,2.7,14.6,7,21.8,10.5c3.9,2.1,8,3.8,11.6,6.4c-8.1-3.3-15.8-7.7-23.7-11.5
		C126.2,171.8,122.8,170.3,119.8,168.1z"/>
	<path class="st1" d="M98.8,381.8c5.1,3.3,9.7,7.3,14.2,11.3C108,389.8,102.9,386.2,98.8,381.8z"/>
	<path class="st1" d="M178.1,449.8c4.3,0,8.6-0.3,13-0.1c0,1.1-0.1,3.3-0.2,4.4c-0.3-0.8-1-2.2-1.4-3c-0.1,0.6-0.3,1.7-0.4,2.3
		c-4.6-0.1-9.2,0.2-13.8-0.1C176.2,452.1,177.1,451,178.1,449.8 M179.3,451.1C179.2,454.3,182.4,449.7,179.3,451.1z"/>
</g>
<g id="_x23_3d70bbff">
	<path class="st1" d="M182.4,290c-0.2-1.9,0.2-3.8,1.3-5.4l0.3-0.5c1.2,6.9,0.5,14,0.7,21c0.4,12.4,1.2,24.8,2.4,37.2
		c-0.5,0-1.6-0.1-2.1-0.2C183.7,324.7,183.2,307.3,182.4,290z"/>
</g>
<g id="_x23_396ebcff">
	<path class="st1" d="M243.9,361.2c6.2-4.9,10.7-11.8,17.7-15.6c-1.2,3.5-4.3,5.7-6.8,8.2c-3.7,3.6-7.3,7.3-11.2,10.7
		C243.6,363.6,243.8,362,243.9,361.2z"/>
</g>
<g id="_x23_f9954dff">
	<path class="st1" d="M96,403.8c5.5,6.1,9.9,13,14.7,19.6c2.2,3.2,4.6,6.3,5.9,10.1c-1.2-0.8-2.5-1.6-3.4-2.7
		c-5.3-6.4-10.2-13.3-14.5-20.4C97.4,408.3,96.6,406.1,96,403.8z"/>
	<path class="st1" d="M196.4,459.1c-0.1-1.2,0.8-2.3,1.9-2.7C199.3,457.5,197.9,460,196.4,459.1z"/>
</g>
<g id="_x23_f9934aff">
	<path class="st1" d="M127.7,403.8c8.5,4.8,16.4,10.7,24.6,16c3.2,2.4,7.2,4.1,9.4,7.6c-2-0.6-3.9-1.3-5.6-2.4
		c-7.9-4.9-15.3-10.7-22.7-16.2C131.3,407.3,129.4,405.6,127.7,403.8z"/>
</g>
<g id="_x23_e6e7e7ff">
	<path class="st4" d="M129.7,440.6c-1.4-1.6-1.6-4.6,0.1-6.1C129.9,436.6,129.9,438.6,129.7,440.6z"/>
	<path class="st4" d="M163.3,435.3c0.6-0.1,1.8-0.2,2.4-0.2c0.5,1.5,0.6,3.2,0.4,4.8c-0.8-0.1-2.4-0.1-3.2-0.2
		C163.1,438.2,163.2,436.8,163.3,435.3 M164.4,436.4c-0.8,1.3-0.6,2.1,0.6,2.4C165.8,437.5,165.6,436.7,164.4,436.4z"/>
	<path class="st4" d="M171.3,435.4c0.6-0.1,1.9-0.2,2.6-0.3c0.3,1.6,0.4,3.2,0.4,4.9c-0.8-0.1-2.4-0.3-3.2-0.4
		C171.1,438.2,171.2,436.8,171.3,435.4 M172.5,438.2C173,438.7,173,438.7,172.5,438.2z"/>
	<path class="st4" d="M141.7,436.6c1.3-0.1,3.5-0.9,3.4,1.4c0.5-0.5,1.4-1.4,1.9-1.9c0.5,0.2,1.5,0.7,2,0.9
		c-0.5,1.1-0.1,3.5-1.7,3.6c-0.9-0.9-1.8-1.7-2.7-2.6c0.1,0.7,0.2,2.1,0.3,2.8c-1.1-0.2-2.3-0.4-3.4-0.6
		C141.3,439,140.9,437.7,141.7,436.6 M142.7,438.1C143.2,438.4,143.2,438.4,142.7,438.1z"/>
	<path class="st4" d="M111.5,440.3c-0.4-1.4-0.3-2.6,1.1-3.3c0,0.9,0,2.6-0.1,3.5c0.5,0.4,1.4,1.2,1.9,1.6c-2.9,0.1-5.8,0.1-8.6,0.3
		l0.5-1.6c0.4-0.1,1.2-0.4,1.6-0.6c-0.3-0.8-0.6-1.7-0.9-2.5c0.7,0.1,2.1,0.1,2.8,0.2c-0.3,0.6-1,1.8-1.3,2.5
		C109.3,440.3,110.8,440.3,111.5,440.3z"/>
	<path class="st4" d="M154.3,438.8c0.1-0.6,0.2-1.7,0.3-2.2C157.4,435.4,156.7,440.3,154.3,438.8z"/>
	<path class="st4" d="M128.6,442.3c1.3,0.1,2,1.3,1.7,2.6c0,3-0.1,6,0.9,8.9c-0.9-0.6-2.5-0.8-2.5-2.2
		C128.3,448.5,128.5,445.4,128.6,442.3z"/>
	<path class="st4" d="M132.4,442.4c0.4,0.1,1.2,0.2,1.6,0.3c0.2,3.6-0.8,7.6,1.2,10.9c-0.7-0.3-2.1-0.8-2.8-1.1
		C132,449.1,132.3,445.8,132.4,442.4z"/>
	<path class="st4" d="M118.6,453.3c1.3-3.8,2.3-7.8,4.3-11.3c2.6,3.2,3.4,7.5,4.6,11.4c-1.5-0.2-2.4-1.1-2.7-2.7c-1.1,0-2.3,0-3.4,0
		C121.1,452.3,120.1,453.2,118.6,453.3 M122.2,449c1.6,1.2,3-1.6,1.6-2.6C122.3,445.3,121,448,122.2,449z"/>
	<path class="st4" d="M145.6,446.4c1.4-1,2.9-1.8,4.5-2.5c0.1,1.4,0.9,2.2,2.3,2.3c-0.6,0.4-1.6,1.1-2.2,1.5
		c0.5,1.6-0.8,4.6,1.9,4.7c-0.1,0.4-0.3,1.1-0.4,1.4c-0.9-0.2-1.9-0.5-2.8-0.8c-0.3-2.4,0.1-5.2-2.2-6.6c-1.8,1.9-1.5,4.5-1.5,6.9
		c-0.4,0.1-1.1,0.2-1.5,0.3c0-1.6-0.6-3.1-2-4.1c-1.6,0.3-3.2,0.6-4.8,0.8c0.7,0.6,1.3,1.2,2,1.8c0.8-0.1,2.5-0.4,3.4-0.5
		c-0.6,3.5-7,1.8-6.8-1.6c-0.6-3.7,3.7-5.2,6.4-3.4l-0.6,1.1c0.6,0.2,1.7,0.5,2.2,0.7c0-0.8,0.1-2.3,0.1-3.1
		C144.2,445.6,145.1,446.1,145.6,446.4 M138.2,447.3c-0.6,1.5,0,2,1.8,1.5C140.5,447.2,139.9,446.8,138.2,447.3z"/>
	<path class="st4" d="M154.3,446.3c2.2-1.5,5.7-0.2,5.8,2.6c0.6,2.4-1.6,5-4.1,4.5C152.5,453.4,151.4,448.1,154.3,446.3
		 M155.4,447.5c-1.5,1.2-1.2,3.8,0.7,4.5C159.5,452.4,158.7,445.7,155.4,447.5z"/>
	<path class="st4" d="M161.2,445.8c2.2,0.2,6-0.8,6.6,2.2c0.2,2,1,4.8-1.1,6c-0.4-2.3-0.4-4.6-1.1-6.8c-0.9,0.1-1.8,0.3-2.7,0.6
		c0,1.8,0,3.6,0.1,5.5c-0.4,0.1-1.2,0.3-1.6,0.4C161.2,451,161.2,448.4,161.2,445.8z"/>
	<path class="st4" d="M169.3,448c0.1-2.5,2.9-2.4,4.7-2.2c0.1,0.4,0.4,1.1,0.6,1.5c-1.3,0-2.7-0.1-4-0.1c0.8,2.1,4.3,2,4.1,4.5
		c-0.7,2.7-4.5,2.1-6.1,0.5c1.6-0.1,3.1-0.2,4.7-0.3C172.5,450.1,169.7,450,169.3,448z"/>
</g>
<g id="_x23_edc8adff">
	<path class="st5" d="M158.6,437.2c0.6-1.4,1.5-2.9,3.3-2.1c1.2,1.6-0.9,3.4,0.4,5.1c-0.9,0-2.7,0-3.6,0c1-1.3,1.9-2.7,2.6-4.2
		C160.6,436.2,159.3,436.9,158.6,437.2z"/>
</g>
<g id="_x23_f1b68bff">
	<path class="st6" d="M167.2,435.9c0.9-0.4,1.8-0.8,2.6-1.2c0,1.8,0,3.6,0,5.4c-0.4,0-1.2,0-1.6,0
		C167.9,438.7,167.6,437.3,167.2,435.9z"/>
</g>
<g id="_x23_edc7abff">
	<path class="st7" d="M134.9,436.2c1.4,0.2,1.5,2.6,0.9,3.6C134.5,439.4,134.2,437.1,134.9,436.2z"/>
</g>
<g id="_x23_efc19fff">
	<path class="st8" d="M137.4,435.9c3-0.7,3.4,2.2,3.2,4.4c-1.3,0-2.7,0-4-0.2c-0.1-0.8-0.2-2.3-0.3-3.1c0.7,0.2,2,0.6,2.7,0.8
		C138.6,437.3,137.8,436.4,137.4,435.9z"/>
</g>
<g id="_x23_ead6c7ff">
	<path class="st9" d="M131.7,439.6c-1.4,0.3-1.4-3.1,0-2.8C131.7,437.6,131.7,439,131.7,439.6z"/>
</g>
<g id="_x23_e7e2deff">
	<path class="st10" d="M132.9,436.7c1.2,0.5,1.5,1.5,1,2.9C132.7,439.1,132.4,438.2,132.9,436.7z"/>
</g>
<g id="_x23_f2b182ff">
	<path class="st11" d="M112.5,440.5c1-1.1,2.2-2.1,3.5-3c-0.4,1.7-1.6,3.4-0.7,5.1c1.3,3.6,0.5,7.5,0.7,11.3
		c-3.3,2.5-7.4,2.4-11.1,0.8c-0.6-3.8-2.2-9.4,0.9-12.3c2.9-0.2,5.8-0.2,8.6-0.3C114,441.7,113,440.9,112.5,440.5 M106,443.9
		c0.1,2.8-0.4,5.8,0.7,8.4l-0.1,1l1.5-0.6l-0.6,1.2c2.3,0.1,4.5-0.1,6.8-0.4c-0.2-0.5-0.5-1.6-0.7-2.2c0.7-2.6,0.6-5.3,0.5-7.9
		c-0.9-0.1-2.8-0.1-3.7-0.2l0.5,1.7l-0.9-0.9l0.3-0.8C108.8,443.5,107.4,443.7,106,443.9z"/>
</g>
<g id="_x23_f99751ff">
	<path class="st1" d="M201.7,437.4c2.3,2.3,5,4.9,4.8,8.4c-0.4,4-3.2,7.2-5.8,10.1c0-1.4-0.1-2.7-0.1-4.1c1.2-1.8,2.9-3.6,3.1-6
		c0.5-2.2-1.4-3.7-2.4-5.4C201.4,439.6,201.6,438.1,201.7,437.4z"/>
</g>
<g id="_x23_fb7b1fff">
	<path class="st1" d="M200.7,451.8c-0.2-3.8,0.1-7.6,0.7-11.4c1,1.7,2.9,3.2,2.4,5.4C203.5,448.1,201.9,449.9,200.7,451.8z"/>
</g>
<g id="_x23_e8dfd8ff">
	<path class="st12" d="M106,443.9c1.4-0.2,2.8-0.4,4.3-0.5l-0.3,0.8c-1.2,2.7-2.4,5.4-3.3,8.2C105.6,449.6,106.1,446.7,106,443.9z"
		/>
</g>
<g id="_x23_e8e0d9ff">
	<path class="st13" d="M110.3,443.4c0.9,0.1,2.8,0.2,3.7,0.2c0.1,2.6,0.2,5.3-0.5,7.9c-0.9-2.2-1.8-4.3-2.7-6.4L110.3,443.4z"/>
</g>
<g id="_x23_fc8630ff">
	<path class="st14" d="M106.7,452.3c0.8-2.8,2.1-5.5,3.3-8.2l0.9,0.9c0.9,2.1,1.8,4.3,2.7,6.4c0.2,0.5,0.5,1.6,0.7,2.2
		c-2.5-0.7-3.1-3.3-4-5.3c-0.7,1.5-1.4,3-2.1,4.4l-1.5,0.6L106.7,452.3z"/>
</g>
<g id="_x23_f79f61ff">
	<path class="st15" d="M138.2,447.3c1.7-0.5,2.3,0,1.8,1.5C138.2,449.3,137.6,448.8,138.2,447.3z"/>
</g>
<g id="_x23_e9dacfff">
	<path class="st16" d="M110.2,448.4c0.9,2.1,1.5,4.6,4,5.3c-2.3,0.3-4.5,0.5-6.8,0.4l0.6-1.2C108.8,451.3,109.5,449.8,110.2,448.4z"
		/>
</g>
</svg>
