<?xml version="1.0" encoding="UTF-8" ?>
<!DOCTYPE svg PUBLIC "-//W3C//DTD SVG 1.1//EN" "http://www.w3.org/Graphics/SVG/1.1/DTD/svg11.dtd">
<svg width="266pt" height="506pt" viewBox="0 0 266 506" version="1.1" xmlns="http://www.w3.org/2000/svg">
<g id="#ffffffff">
<path fill="#ffffff" opacity="1.00" d=" M 123.90 408.80 C 122.17 408.63 122.69 405.09 123.68 404.36 C 124.32 405.66 124.75 407.49 123.90 408.80 Z" />
<path fill="#ffffff" opacity="1.00" d=" M 140.49 405.72 C 140.95 406.45 141.41 407.18 141.87 407.92 C 140.56 408.29 139.19 408.43 137.84 408.60 C 137.27 409.78 136.27 410.60 135.21 411.32 C 135.37 410.66 135.68 409.35 135.84 408.69 C 133.64 408.45 131.44 408.72 129.32 409.34 C 129.28 408.10 128.78 407.17 127.82 406.53 C 127.78 407.43 127.70 409.24 127.66 410.14 C 127.32 408.98 127.00 407.83 126.68 406.68 C 126.16 407.55 125.64 408.43 125.14 409.33 C 125.16 408.54 125.19 406.95 125.20 406.16 C 126.69 406.20 128.19 406.25 129.68 406.30 L 129.84 408.67 C 130.53 407.89 131.21 407.09 131.89 406.30 C 134.75 406.32 137.84 407.17 140.49 405.72 M 135.21 407.30 C 135.63 410.59 138.16 405.78 135.21 407.30 Z" />
<path fill="#ffffff" opacity="1.00" d=" M 145.20 406.34 C 147.89 405.89 145.22 409.34 144.66 406.95 L 145.20 406.34 Z" />
<path fill="#ffffff" opacity="1.00" d=" M 100.89 407.22 C 101.53 407.88 102.18 408.53 102.84 409.19 C 103.32 408.60 104.28 407.43 104.76 406.85 C 104.71 407.49 104.62 408.78 104.57 409.42 C 105.10 409.50 106.15 409.68 106.68 409.76 C 106.74 409.00 106.85 407.47 106.91 406.71 C 108.10 408.28 109.16 409.94 110.21 411.62 C 107.53 411.57 104.86 411.55 102.19 411.60 C 101.77 410.12 101.36 408.66 100.89 407.22 Z" />
<path fill="#ffffff" opacity="1.00" d=" M 122.80 411.77 C 123.04 411.70 123.51 411.55 123.75 411.48 C 125.11 414.42 123.23 418.15 124.98 421.11 L 123.76 421.84 L 123.18 419.63 C 122.29 420.25 121.39 420.93 120.27 421.07 C 120.02 420.49 119.53 419.33 119.28 418.74 C 118.45 418.77 116.79 418.83 115.96 418.86 C 115.81 420.14 115.15 421.00 113.98 421.44 C 114.37 418.24 115.72 415.29 116.68 412.25 C 117.15 412.21 118.11 412.12 118.58 412.07 C 119.31 414.28 120.34 416.43 120.58 418.78 C 121.13 418.99 122.22 419.43 122.76 419.65 C 122.78 417.02 122.60 414.39 122.80 411.77 M 116.97 415.31 C 115.65 416.30 117.18 418.62 118.55 417.65 C 119.49 416.70 118.31 414.35 116.97 415.31 Z" />
<path fill="#ffffff" opacity="1.00" d=" M 126.34 411.20 C 126.62 411.31 127.17 411.52 127.45 411.63 C 127.92 415.00 126.96 418.58 128.56 421.74 C 127.71 421.32 126.42 421.17 126.27 420.02 C 126.00 417.08 126.19 414.13 126.34 411.20 Z" />
<path fill="#ffffff" opacity="1.00" d=" M 105.97 412.19 C 107.53 412.26 109.10 412.38 110.66 412.50 C 110.46 415.18 110.32 417.88 110.80 420.55 L 109.59 420.66 C 108.74 418.89 107.90 417.12 107.02 415.38 C 106.75 414.58 106.23 412.99 105.97 412.19 Z" />
<path fill="#ffffff" opacity="1.00" d=" M 101.55 412.31 C 102.59 412.26 104.68 412.16 105.72 412.11 L 105.41 413.36 C 104.40 415.96 103.18 418.47 101.90 420.96 C 101.70 419.03 101.54 417.10 101.40 415.18 C 101.43 414.46 101.51 413.03 101.55 412.31 Z" />
<path fill="#ffffff" opacity="1.00" d=" M 141.19 412.76 C 142.43 413.29 144.82 414.84 142.98 416.29 C 141.34 418.16 143.69 420.01 143.79 421.91 C 139.53 421.02 141.60 415.81 141.19 412.76 Z" />
<path fill="#ffffff" opacity="1.00" d=" M 129.29 417.06 C 129.83 413.29 135.86 413.79 135.48 417.83 C 133.94 417.85 132.41 417.87 130.88 417.90 C 130.86 420.42 133.55 420.39 135.38 420.29 C 133.21 423.10 128.02 420.57 129.29 417.06 M 131.24 416.15 C 131.55 417.39 132.35 417.57 133.64 416.70 C 133.32 415.45 132.52 415.27 131.24 416.15 Z" />
<path fill="#ffffff" opacity="1.00" d=" M 136.62 414.60 C 137.75 414.64 138.91 414.72 139.99 414.28 C 139.82 414.74 139.47 415.66 139.30 416.12 L 138.44 416.28 C 138.29 416.70 138.01 417.53 137.87 417.95 C 137.69 418.91 137.33 420.83 137.15 421.79 C 136.04 419.54 136.61 417.00 136.62 414.60 Z" />
<path fill="#ffffff" opacity="1.00" d=" M 146.96 414.32 C 150.31 413.82 152.45 416.90 151.42 420.01 C 149.72 421.53 146.43 422.27 145.30 419.71 C 144.09 417.69 145.31 415.58 146.96 414.32 M 147.19 419.85 C 148.74 421.28 150.23 419.31 150.16 417.79 L 150.32 416.95 C 149.91 416.80 149.09 416.49 148.68 416.33 C 146.96 413.97 145.28 418.92 147.19 419.85 Z" />
<path fill="#ffffff" opacity="1.00" d=" M 153.09 414.54 C 155.03 414.59 158.62 413.97 158.67 416.86 C 158.63 418.40 159.56 421.09 157.60 421.78 C 157.01 419.51 158.55 414.99 154.81 415.63 C 153.76 417.13 154.46 419.20 154.24 420.93 L 152.80 420.86 C 152.71 418.75 152.73 416.63 153.09 414.54 Z" />
<path fill="#ffffff" opacity="1.00" d=" M 160.70 414.65 C 162.23 414.61 164.15 414.10 165.12 415.69 C 164.19 415.65 162.32 415.58 161.38 415.54 C 161.25 417.59 163.54 417.50 164.78 418.23 C 166.18 421.50 160.96 422.80 159.75 420.22 C 160.74 420.23 162.74 420.25 163.73 420.26 C 163.52 418.44 161.53 418.30 160.29 417.53 C 160.42 416.57 160.56 415.61 160.70 414.65 Z" />
<path fill="#ffffff" opacity="1.00" d=" M 105.66 417.14 C 106.44 418.91 107.61 420.45 108.80 421.96 C 107.37 423.14 104.90 422.04 103.15 422.42 C 104.13 420.73 104.97 418.97 105.66 417.14 Z" />
<path fill="#ffffff" opacity="1.00" d=" M 170.70 419.28 C 171.69 416.57 175.37 418.49 173.66 420.78 C 173.44 420.44 172.98 419.75 172.75 419.41 L 172.57 419.49 C 172.55 421.22 169.79 421.20 170.70 419.28 Z" />
<path fill="#ffffff" opacity="1.00" d=" M 175.01 418.22 C 176.56 418.27 178.11 418.31 179.67 418.36 C 179.69 419.58 179.71 420.80 179.72 422.03 C 179.41 420.95 179.10 419.88 178.81 418.82 C 178.04 419.69 177.59 420.75 177.48 422.00 C 177.37 420.86 177.26 419.73 177.15 418.60 C 175.86 419.21 175.29 420.36 175.46 422.05 C 174.98 420.81 174.65 419.53 175.01 418.22 Z" />
</g>
<g id="#000000ff">
<path fill="#000000" opacity="1.00" d=" M 108.68 23.71 C 120.18 13.25 135.73 8.34 151.00 7.17 C 168.12 6.94 186.35 10.67 199.52 22.28 C 208.61 29.93 213.85 41.13 216.30 52.55 C 220.64 58.06 222.04 65.28 220.88 72.14 C 220.48 77.92 215.47 81.57 212.52 86.10 C 209.42 91.21 204.69 95.05 200.31 98.94 C 198.96 111.25 197.64 123.73 199.00 136.10 C 199.08 139.17 201.87 142.23 200.01 145.19 C 197.46 149.42 193.37 152.76 188.88 154.76 C 185.73 154.90 183.78 151.44 182.77 148.87 C 181.94 147.41 183.58 146.27 184.37 145.27 C 187.36 142.32 190.53 139.54 193.52 136.59 C 194.91 120.09 195.22 103.53 196.03 87.00 C 196.19 83.46 196.43 79.84 195.43 76.39 C 194.99 73.44 192.02 72.09 189.88 70.45 C 177.34 62.98 162.00 62.70 147.90 64.36 C 138.23 65.76 128.39 67.49 119.46 71.62 C 120.43 81.18 121.19 92.00 115.16 100.17 C 110.35 108.61 107.96 118.31 107.19 127.94 C 106.80 131.16 107.67 134.31 108.19 137.47 C 103.12 136.21 100.03 131.43 95.30 129.46 C 94.73 136.35 96.80 143.11 96.63 150.00 C 97.00 156.62 96.16 163.81 99.32 169.86 C 101.35 170.78 101.54 168.31 102.00 166.97 C 103.71 160.25 104.88 152.94 109.36 147.40 C 110.71 145.57 112.90 144.84 114.96 144.13 C 131.06 153.28 147.18 162.41 163.11 171.84 C 163.46 178.89 163.92 185.93 164.23 192.98 C 164.77 192.93 165.84 192.82 166.38 192.77 C 166.60 186.17 167.09 179.59 167.46 173.00 C 170.36 169.72 173.03 166.24 176.05 163.08 C 177.96 163.45 177.49 165.61 177.59 166.99 C 177.62 174.00 177.71 181.01 177.76 188.02 C 191.03 195.48 204.69 202.76 215.99 213.11 C 217.89 215.57 221.04 216.58 222.77 219.18 C 227.54 225.59 229.90 233.35 232.25 240.88 C 234.73 250.10 236.58 259.50 237.41 269.02 C 238.98 285.39 244.33 301.04 247.21 317.17 C 250.40 331.83 251.81 346.92 250.78 361.91 C 249.54 378.91 249.72 396.00 250.99 413.00 C 251.42 415.44 249.89 417.55 249.07 419.73 C 249.96 420.26 250.86 420.78 251.76 421.29 C 253.59 424.22 251.14 426.94 250.83 429.90 C 251.36 431.20 252.40 432.42 252.22 433.91 C 251.98 440.61 251.88 447.32 251.94 454.03 C 252.44 462.60 255.72 470.67 257.41 479.01 C 257.31 479.47 257.09 480.39 256.99 480.85 C 249.98 481.17 242.34 477.84 235.81 481.80 C 233.94 482.48 232.42 486.11 230.37 483.85 C 227.60 477.51 225.02 470.92 224.69 463.93 C 223.55 458.66 221.85 453.43 222.12 447.96 C 222.95 439.65 220.75 431.45 219.59 423.28 C 218.05 424.82 216.11 425.83 214.04 426.43 C 201.83 430.80 188.68 428.94 176.01 429.30 C 158.00 429.86 140.01 429.14 122.00 429.29 C 111.76 428.51 101.46 427.84 91.21 428.98 C 90.00 433.60 93.65 437.14 95.43 440.96 C 97.06 446.87 95.63 453.16 97.17 459.10 C 99.98 470.71 101.79 482.57 103.04 494.44 C 90.38 492.85 78.40 498.36 66.90 502.87 C 64.85 502.67 64.85 500.53 64.75 498.96 C 64.53 494.26 65.54 489.44 64.25 484.83 C 61.54 477.46 55.03 472.65 49.64 467.34 C 43.65 459.14 41.72 448.67 35.67 440.49 C 33.04 437.07 29.54 434.27 27.74 430.25 C 22.23 418.59 22.31 405.38 19.50 393.01 C 17.81 385.17 12.03 378.27 13.05 369.95 C 13.31 364.31 12.52 358.69 12.81 353.06 C 13.25 346.91 11.90 340.84 10.72 334.84 C 9.74 329.88 7.27 325.19 7.56 320.02 C 7.84 309.25 9.58 298.60 10.53 287.88 C 10.54 273.56 10.64 259.14 13.11 245.00 C 14.20 241.13 14.54 236.99 16.47 233.41 C 25.99 213.84 39.99 195.73 58.97 184.59 C 68.00 179.28 78.24 176.56 88.56 175.24 C 87.05 170.34 85.04 165.30 85.54 159.99 C 86.67 154.91 90.57 151.24 93.31 147.03 C 94.02 143.71 91.05 141.13 90.54 137.99 C 89.81 133.54 89.22 127.61 93.74 124.92 C 99.00 119.63 100.31 111.76 102.65 104.95 C 105.40 98.49 108.57 92.21 111.69 85.92 C 111.59 83.49 110.98 80.65 108.49 79.59 C 105.14 78.33 101.18 79.39 98.42 81.52 C 93.75 89.86 96.42 99.92 100.34 107.98 C 99.93 108.49 99.51 109.00 99.09 109.51 C 97.26 106.79 96.30 103.22 93.60 101.26 C 90.62 87.78 88.67 73.83 90.78 60.06 C 92.62 46.47 98.33 32.99 108.68 23.71 M 131.44 12.86 C 130.13 13.32 128.80 13.76 127.48 14.19 L 127.39 14.43 C 120.18 16.96 113.68 21.29 108.16 26.55 C 100.56 33.93 95.87 43.94 93.73 54.23 C 91.47 64.64 91.75 75.34 92.53 85.90 C 94.36 78.74 99.00 72.74 104.54 68.01 C 106.02 66.91 107.51 65.83 109.02 64.78 L 109.19 64.22 C 115.43 59.89 122.11 56.17 129.43 54.00 C 134.66 51.30 139.11 47.27 144.70 45.21 C 148.13 43.86 151.63 42.69 155.15 41.61 C 161.90 39.80 168.87 39.06 175.83 38.88 C 181.21 38.99 186.56 39.57 191.84 40.58 C 195.30 41.31 198.63 42.64 202.16 43.06 L 201.99 43.50 C 205.96 44.69 209.28 47.19 212.88 49.12 C 211.56 43.71 209.43 38.51 206.56 33.74 C 201.82 26.07 194.70 20.05 186.63 16.11 C 179.05 12.47 170.77 10.37 162.42 9.53 L 162.32 9.42 C 161.76 9.38 160.65 9.30 160.09 9.26 C 150.40 8.16 140.68 10.02 131.44 12.86 M 138.00 50.76 C 143.67 49.97 149.25 48.52 154.98 48.17 C 170.86 47.03 187.78 49.50 201.00 58.94 C 207.73 63.62 214.00 70.43 214.31 79.07 C 220.39 72.19 219.58 60.96 214.14 53.92 C 209.84 48.37 203.00 45.63 196.46 43.70 C 177.10 38.26 155.41 40.49 138.00 50.76 M 110.89 148.95 C 106.51 154.43 105.40 161.56 103.72 168.17 C 103.42 169.70 102.29 170.83 101.43 172.06 C 105.86 178.09 111.34 183.40 114.93 190.03 C 116.12 192.40 115.32 195.61 117.43 197.49 C 120.87 198.56 124.60 198.44 128.18 198.48 C 131.46 200.93 126.95 202.37 125.47 203.99 C 121.81 204.28 117.88 206.48 114.38 204.60 C 110.74 201.39 112.30 194.73 107.57 192.44 C 102.87 189.94 98.66 186.66 94.67 183.17 C 93.14 181.10 91.53 179.01 89.86 177.05 C 84.80 178.06 79.67 178.85 74.71 180.30 C 67.17 182.23 60.18 185.89 53.84 190.35 C 50.51 192.89 47.21 195.47 44.12 198.30 C 38.32 203.14 33.71 209.21 29.24 215.25 C 27.61 217.40 26.18 219.70 25.15 222.20 C 31.62 216.60 38.44 211.38 45.80 207.02 C 46.87 206.60 47.94 206.18 49.00 205.75 L 48.77 205.37 C 51.32 204.94 54.07 204.25 56.49 205.56 C 64.13 209.33 70.87 214.64 77.69 219.69 C 86.02 226.49 94.86 233.09 101.11 241.97 C 103.29 244.73 102.99 248.25 101.89 251.39 C 100.47 254.67 100.92 258.38 100.35 261.86 C 99.27 269.46 101.20 277.02 102.35 284.45 C 102.11 296.07 99.21 307.41 98.20 318.96 C 97.71 323.56 94.18 327.09 90.72 329.82 C 88.74 331.91 84.57 333.38 85.38 336.90 C 86.50 342.10 90.45 346.48 90.29 352.00 C 90.06 358.55 85.80 363.99 81.72 368.76 C 80.16 370.24 80.35 373.12 82.07 374.41 L 81.98 374.61 C 87.51 380.55 92.31 387.59 93.24 395.86 C 94.13 406.09 92.73 416.29 91.41 426.42 C 93.35 426.37 95.29 426.28 97.23 426.16 C 103.34 425.77 109.49 425.81 115.60 426.37 C 122.03 426.95 128.48 426.80 134.93 426.77 C 142.21 426.73 149.49 427.00 156.77 427.04 C 164.28 427.14 171.79 426.81 179.30 426.76 C 181.78 426.74 184.27 426.74 186.75 426.75 C 186.77 424.16 186.73 421.58 186.64 419.01 C 186.38 413.83 187.84 408.76 187.67 403.59 C 187.77 402.59 187.84 401.58 187.87 400.59 C 187.43 394.38 186.69 388.16 185.13 382.13 C 180.33 364.83 179.25 346.80 177.25 329.03 C 175.81 313.74 174.48 298.41 174.14 283.05 C 174.26 276.68 174.12 270.30 173.68 263.94 C 171.34 242.77 168.75 221.57 164.91 200.62 C 164.88 198.98 164.57 197.37 164.34 195.76 C 163.79 195.51 162.69 195.00 162.14 194.75 C 161.48 187.54 161.45 180.30 160.86 173.08 C 145.95 164.34 130.90 155.84 115.95 147.16 C 114.15 145.90 111.99 147.48 110.89 148.95 M 169.50 173.97 C 169.03 180.61 168.45 187.26 168.39 193.92 C 165.99 195.74 167.15 198.69 167.42 201.16 C 170.62 220.76 173.34 240.43 175.55 260.16 C 175.57 262.39 175.76 264.61 176.13 266.81 C 176.55 273.20 176.35 279.61 176.42 286.01 C 177.03 301.71 178.09 317.42 180.00 333.01 C 180.01 333.49 180.04 334.44 180.06 334.92 C 181.57 347.92 182.64 361.02 185.25 373.86 C 187.61 382.38 189.45 391.07 189.87 399.92 C 189.94 399.99 190.09 400.14 190.16 400.21 C 189.66 409.06 188.06 417.87 188.96 426.77 C 196.35 427.10 203.85 426.91 210.99 424.77 C 213.75 423.99 216.98 423.21 218.59 420.59 C 221.64 415.99 221.07 410.14 220.77 404.91 C 220.23 399.47 221.04 394.05 221.14 388.63 L 221.25 388.78 C 222.86 372.32 224.14 355.83 225.83 339.38 C 226.87 327.08 230.66 315.10 230.90 302.72 C 231.96 297.81 231.98 292.63 231.68 287.65 C 232.28 282.27 231.53 276.86 231.36 271.47 C 229.87 259.31 228.43 246.82 223.82 235.40 L 224.10 234.81 C 222.37 229.64 220.72 224.41 218.55 219.41 C 214.13 212.74 207.17 208.37 200.70 203.93 C 192.60 198.27 183.69 193.96 175.36 188.69 C 175.04 181.66 175.41 174.61 174.88 167.60 C 173.09 169.70 170.74 171.49 169.50 173.97 M 25.24 226.36 C 21.51 230.64 17.60 235.26 16.51 241.00 C 12.64 256.37 12.94 272.34 12.75 288.07 C 11.82 299.04 9.99 309.96 9.88 321.00 C 9.77 325.17 11.73 328.97 12.55 332.99 C 14.04 339.87 15.54 346.87 15.06 353.95 C 14.73 358.64 15.49 363.30 15.57 367.99 C 15.63 370.99 14.75 374.15 16.01 377.02 C 18.10 382.64 20.74 388.07 22.26 393.89 C 24.85 405.36 24.87 417.50 29.57 428.42 C 31.21 432.49 34.39 435.55 37.26 438.74 C 43.01 446.07 45.43 455.24 49.65 463.41 C 51.81 467.71 56.19 470.11 59.30 473.61 C 63.05 477.58 66.74 482.30 67.06 487.98 C 67.34 492.10 66.95 496.24 67.06 500.37 C 77.73 496.11 88.82 491.22 100.57 492.04 C 99.25 482.13 98.03 472.16 95.46 462.48 C 94.47 458.38 93.96 454.18 94.07 449.97 C 93.98 446.55 94.34 442.75 92.20 439.85 C 90.32 437.25 88.62 434.32 88.83 430.99 C 88.90 420.62 91.71 410.39 90.94 399.98 C 90.65 393.16 88.31 386.50 83.75 381.35 C 81.31 378.00 76.93 374.60 78.25 369.96 C 81.12 365.31 85.58 361.53 86.91 356.00 C 89.13 350.55 85.25 345.53 83.47 340.61 C 82.68 338.22 81.26 335.23 83.20 333.01 C 86.87 328.53 92.89 325.84 94.81 320.05 C 95.89 313.56 96.51 307.01 97.65 300.53 C 98.66 292.78 100.39 284.73 98.10 277.05 C 96.41 267.04 97.16 256.56 100.00 246.84 C 98.38 242.28 94.93 238.76 91.62 235.37 C 83.22 227.36 74.02 220.25 64.47 213.68 C 60.70 211.22 56.98 208.62 52.77 206.96 C 42.20 211.04 33.00 218.20 25.24 226.36 M 233.03 264.02 C 235.50 283.25 234.90 302.90 231.10 321.92 C 230.20 327.11 229.03 332.25 228.27 337.46 C 226.54 356.96 224.61 376.46 222.99 395.98 C 222.47 404.68 225.79 414.14 221.20 422.20 C 222.79 431.04 225.25 439.98 224.15 449.01 C 223.96 455.24 226.91 460.94 227.27 467.09 C 227.84 471.86 229.81 476.32 231.44 480.81 C 233.12 480.93 234.28 479.40 235.75 478.83 C 241.68 475.98 248.48 477.40 254.68 478.39 C 253.35 470.21 250.03 462.37 249.67 454.02 C 249.56 447.67 249.60 441.31 249.86 434.96 C 250.10 432.86 248.51 431.12 248.45 429.08 C 248.70 427.07 249.55 425.23 250.19 423.34 C 248.47 422.35 246.63 421.23 246.51 419.01 C 247.32 417.42 248.82 415.90 248.56 413.99 C 247.23 396.68 247.03 379.28 248.32 361.97 C 249.34 347.04 247.87 332.03 244.66 317.44 C 241.95 302.19 236.83 287.45 235.01 272.02 C 233.66 256.65 230.77 241.17 224.28 227.08 C 228.04 239.15 231.56 251.40 233.03 264.02 Z" />
</g>
<g id="#ffcc04ff">
<path fill="#ffcc04" opacity="1.00" d=" M 131.44 12.86 C 140.68 10.02 150.40 8.16 160.09 9.26 C 156.40 17.63 152.64 25.97 148.98 34.35 C 142.85 27.43 136.98 20.27 131.44 12.86 Z" />
<path fill="#ffcc04" opacity="1.00" d=" M 162.42 9.53 C 170.77 10.37 179.05 12.47 186.63 16.11 C 184.55 20.43 182.36 24.70 180.28 29.01 C 184.24 32.76 187.64 37.08 191.84 40.58 C 186.56 39.57 181.21 38.99 175.83 38.88 C 177.30 35.72 178.76 32.55 180.14 29.35 C 174.04 22.91 168.14 16.30 162.42 9.53 Z" />
<path fill="#ffcc04" opacity="1.00" d=" M 108.16 26.55 C 113.68 21.29 120.18 16.96 127.39 14.43 C 124.07 22.58 121.11 30.88 117.64 38.96 C 114.66 34.69 111.38 30.64 108.16 26.55 Z" />
<path fill="#ffcc04" opacity="1.00" d=" M 206.56 33.74 C 209.43 38.51 211.56 43.71 212.88 49.12 C 209.28 47.19 205.96 44.69 201.99 43.50 L 202.16 43.06 C 203.39 39.84 205.07 36.84 206.56 33.74 Z" />
<path fill="#ffcc04" opacity="1.00" d=" M 144.70 45.21 C 146.13 41.82 147.05 38.20 148.91 35.01 C 151.50 36.46 152.98 39.54 155.15 41.61 C 151.63 42.69 148.13 43.86 144.70 45.21 Z" />
<path fill="#ffcc04" opacity="1.00" d=" M 117.55 40.29 C 117.76 40.30 118.17 40.32 118.38 40.33 C 122.11 44.84 125.68 49.50 129.43 54.00 C 122.11 56.17 115.43 59.89 109.19 64.22 C 111.73 56.16 114.67 48.23 117.55 40.29 Z" />
<path fill="#ffcc04" opacity="1.00" d=" M 138.00 50.76 C 155.41 40.49 177.10 38.26 196.46 43.70 C 203.00 45.63 209.84 48.37 214.14 53.92 C 219.58 60.96 220.39 72.19 214.31 79.07 C 214.00 70.43 207.73 63.62 201.00 58.94 C 187.78 49.50 170.86 47.03 154.98 48.17 C 149.25 48.52 143.67 49.97 138.00 50.76 Z" />
<path fill="#ffcc04" opacity="1.00" d=" M 93.73 54.23 C 97.56 58.65 100.84 63.50 104.54 68.01 C 99.00 72.74 94.36 78.74 92.53 85.90 C 91.75 75.34 91.47 64.64 93.73 54.23 Z" />
<path fill="#ffcc04" opacity="1.00" d=" M 74.71 180.30 C 79.67 178.85 84.80 178.06 89.86 177.05 C 91.53 179.01 93.14 181.10 94.67 183.17 C 92.35 188.51 89.75 193.73 87.35 199.05 C 94.51 209.77 101.62 220.53 109.02 231.09 C 109.67 231.96 110.07 232.93 110.23 234.01 C 108.26 240.11 104.43 245.49 101.89 251.39 C 102.99 248.25 103.29 244.73 101.11 241.97 C 94.86 233.09 86.02 226.49 77.69 219.69 C 80.88 212.83 84.01 205.94 87.39 199.18 C 83.09 192.93 78.98 186.56 74.71 180.30 Z" />
<path fill="#ffcc04" opacity="1.00" d=" M 44.12 198.30 C 47.21 195.47 50.51 192.89 53.84 190.35 C 51.36 194.33 49.53 198.71 47.69 203.00 C 47.96 203.59 48.50 204.78 48.77 205.37 L 49.00 205.75 C 47.94 206.18 46.87 206.60 45.80 207.02 C 46.38 205.73 47.15 204.47 47.30 203.05 C 46.50 201.31 45.15 199.91 44.12 198.30 Z" />
<path fill="#ffcc04" opacity="1.00" d=" M 167.42 201.16 C 167.15 198.69 165.99 195.74 168.39 193.92 C 175.52 205.13 183.53 215.77 190.59 227.02 C 186.02 238.24 180.16 248.94 175.55 260.16 C 173.34 240.43 170.62 220.76 167.42 201.16 Z" />
<path fill="#ffcc04" opacity="1.00" d=" M 128.43 197.19 C 136.05 207.91 143.11 219.04 150.50 229.92 C 150.73 229.84 151.19 229.68 151.42 229.60 C 156.03 220.00 160.34 210.24 164.91 200.62 C 168.75 221.57 171.34 242.77 173.68 263.94 C 174.12 270.30 174.26 276.68 174.14 283.05 C 174.48 298.41 175.81 313.74 177.25 329.03 C 179.25 346.80 180.33 364.83 185.13 382.13 C 186.69 388.16 187.43 394.38 187.87 400.59 C 179.41 390.82 170.99 381.02 162.66 371.14 C 167.62 359.44 172.39 347.66 177.21 335.91 C 178.33 333.62 177.28 331.14 175.93 329.23 C 169.61 319.82 163.47 310.30 157.07 300.94 C 162.04 289.99 167.22 279.13 172.28 268.23 C 172.74 267.20 173.06 266.13 173.24 265.01 C 173.06 263.14 171.81 261.67 170.82 260.16 C 164.12 250.40 157.80 240.38 150.93 230.74 C 145.12 243.12 139.18 255.43 133.43 267.84 C 141.39 278.79 149.19 289.86 157.08 300.87 C 150.37 313.23 143.99 325.78 137.24 338.12 C 130.02 326.78 122.41 315.66 115.47 304.15 C 121.46 291.90 127.82 279.80 133.37 267.33 C 125.68 256.35 118.26 245.14 110.91 233.96 C 115.23 223.76 120.64 213.98 125.47 203.99 C 126.95 202.37 131.46 200.93 128.18 198.48 C 128.24 198.16 128.37 197.51 128.43 197.19 Z" />
<path fill="#ffcc04" opacity="1.00" d=" M 200.70 203.93 C 207.17 208.37 214.13 212.74 218.55 219.41 C 220.72 224.41 222.37 229.64 224.10 234.81 L 223.82 235.40 C 220.18 243.53 216.44 251.61 212.83 259.75 C 219.22 268.98 225.35 278.38 231.68 287.65 C 231.98 292.63 231.96 297.81 230.90 302.72 C 226.79 311.88 222.40 320.92 218.31 330.09 C 220.76 333.23 223.27 336.32 225.83 339.38 C 224.14 355.83 222.86 372.32 221.25 388.78 L 221.14 388.63 C 215.21 380.72 209.55 372.61 203.52 364.77 C 208.05 353.04 213.44 341.65 218.28 330.04 C 211.53 319.99 204.97 309.81 198.16 299.80 C 197.56 298.73 196.32 297.54 197.19 296.25 C 202.41 284.13 207.52 271.96 212.84 259.88 C 205.72 248.77 198.15 237.95 190.76 227.02 C 194.15 219.35 197.33 211.60 200.70 203.93 Z" />
<path fill="#ffcc04" opacity="1.00" d=" M 25.24 226.36 C 33.00 218.20 42.20 211.04 52.77 206.96 C 56.98 208.62 60.70 211.22 64.47 213.68 C 74.02 220.25 83.22 227.36 91.62 235.37 C 94.93 238.76 98.38 242.28 100.00 246.84 C 97.16 256.56 96.41 267.04 98.10 277.05 C 100.39 284.73 98.66 292.78 97.65 300.53 C 96.51 307.01 95.89 313.56 94.81 320.05 C 92.89 325.84 86.87 328.53 83.20 333.01 C 81.26 335.23 82.68 338.22 83.47 340.61 C 85.25 345.53 89.13 350.55 86.91 356.00 C 85.58 361.53 81.12 365.31 78.25 369.96 C 76.93 374.60 81.31 378.00 83.75 381.35 C 88.31 386.50 90.65 393.16 90.94 399.98 C 91.71 410.39 88.90 420.62 88.83 430.99 C 88.62 434.32 90.32 437.25 92.20 439.85 C 94.34 442.75 93.98 446.55 94.07 449.97 C 93.96 454.18 94.47 458.38 95.46 462.48 C 98.03 472.16 99.25 482.13 100.57 492.04 C 88.82 491.22 77.73 496.11 67.06 500.37 C 66.95 496.24 67.34 492.10 67.06 487.98 C 66.74 482.30 63.05 477.58 59.30 473.61 C 56.19 470.11 51.81 467.71 49.65 463.41 C 45.43 455.24 43.01 446.07 37.26 438.74 C 34.39 435.55 31.21 432.49 29.57 428.42 C 24.87 417.50 24.85 405.36 22.26 393.89 C 20.74 388.07 18.10 382.64 16.01 377.02 C 14.75 374.15 15.63 370.99 15.57 367.99 C 15.49 363.30 14.73 358.64 15.06 353.95 C 15.54 346.87 14.04 339.87 12.55 332.99 C 11.73 328.97 9.77 325.17 9.88 321.00 C 9.99 309.96 11.82 299.04 12.75 288.07 C 12.94 272.34 12.64 256.37 16.51 241.00 C 17.60 235.26 21.51 230.64 25.24 226.36 Z" />
<path fill="#ffcc04" opacity="1.00" d=" M 233.03 264.02 C 231.56 251.40 228.04 239.15 224.28 227.08 C 230.77 241.17 233.66 256.65 235.01 272.02 C 236.83 287.45 241.95 302.19 244.66 317.44 C 247.87 332.03 249.34 347.04 248.32 361.97 C 247.03 379.28 247.23 396.68 248.56 413.99 C 248.82 415.90 247.32 417.42 246.51 419.01 C 246.63 421.23 248.47 422.35 250.19 423.34 C 249.55 425.23 248.70 427.07 248.45 429.08 C 248.51 431.12 250.10 432.86 249.86 434.96 C 249.60 441.31 249.56 447.67 249.67 454.02 C 250.03 462.37 253.35 470.21 254.68 478.39 C 248.48 477.40 241.68 475.98 235.75 478.83 C 234.28 479.40 233.12 480.93 231.44 480.81 C 229.81 476.32 227.84 471.86 227.27 467.09 C 226.91 460.94 223.96 455.24 224.15 449.01 C 225.25 439.98 222.79 431.04 221.20 422.20 C 225.79 414.14 222.47 404.68 222.99 395.98 C 224.61 376.46 226.54 356.96 228.27 337.46 C 229.03 332.25 230.20 327.11 231.10 321.92 C 234.90 302.90 235.50 283.25 233.03 264.02 Z" />
<path fill="#ffcc04" opacity="1.00" d=" M 176.13 266.81 C 182.57 277.09 189.86 286.84 196.32 297.11 L 196.37 297.92 C 191.11 309.70 185.36 321.27 180.00 333.01 C 178.09 317.42 177.03 301.71 176.42 286.01 C 176.35 279.61 176.55 273.20 176.13 266.81 Z" />
<path fill="#ffcc04" opacity="1.00" d=" M 102.35 284.45 C 106.72 290.97 111.11 297.48 115.39 304.06 C 109.74 316.36 103.99 328.60 98.38 340.92 C 105.58 352.13 112.55 363.48 119.89 374.59 C 125.87 362.49 131.31 350.13 137.01 337.90 C 145.64 348.90 153.99 360.13 162.64 371.13 C 156.21 383.29 149.38 395.25 142.84 407.36 L 141.87 407.92 C 141.41 407.18 140.95 406.45 140.49 405.72 C 133.60 395.50 126.88 385.15 119.92 374.98 C 114.72 385.53 110.02 396.33 104.76 406.85 C 104.28 407.43 103.32 408.60 102.84 409.19 C 102.18 408.53 101.53 407.88 100.89 407.22 C 98.24 403.49 95.56 399.78 93.24 395.86 C 92.31 387.59 87.51 380.55 81.98 374.61 L 82.07 374.41 C 87.17 363.08 93.06 352.13 98.32 340.87 C 95.74 337.22 93.25 333.50 90.72 329.82 C 94.18 327.09 97.71 323.56 98.20 318.96 C 99.21 307.41 102.11 296.07 102.35 284.45 Z" />
<path fill="#ffcc04" opacity="1.00" d=" M 180.06 334.92 C 187.76 344.73 195.39 354.60 203.34 364.20 C 199.97 374.66 195.76 384.83 192.22 395.22 C 191.66 396.89 190.94 398.51 189.87 399.92 C 189.45 391.07 187.61 382.38 185.25 373.86 C 182.64 361.02 181.57 347.92 180.06 334.92 Z" />
<path fill="#ffcc04" opacity="1.00" d=" M 190.16 400.21 C 196.62 408.25 202.91 416.45 209.09 424.71 C 209.57 424.72 210.52 424.75 210.99 424.77 C 203.85 426.91 196.35 427.10 188.96 426.77 C 188.06 417.87 189.66 409.06 190.16 400.21 Z" />
<path fill="#ffcc04" opacity="1.00" d=" M 179.30 426.76 C 182.14 419.05 185.13 411.40 187.67 403.59 C 187.84 408.76 186.38 413.83 186.64 419.01 C 186.73 421.58 186.77 424.16 186.75 426.75 C 184.27 426.74 181.78 426.74 179.30 426.76 Z" />
<path fill="#ffcc04" opacity="1.00" d=" M 142.07 408.31 C 143.84 410.19 145.49 412.19 146.96 414.32 C 145.31 415.58 144.09 417.69 145.30 419.71 C 146.43 422.27 149.72 421.53 151.42 420.01 C 153.24 422.32 155.04 424.66 156.77 427.04 C 149.49 427.00 142.21 426.73 134.93 426.77 C 135.67 425.11 136.44 423.46 137.15 421.79 C 137.33 420.83 137.69 418.91 137.87 417.95 C 138.23 417.49 138.94 416.58 139.30 416.12 C 139.47 415.66 139.82 414.74 139.99 414.28 C 140.71 412.30 141.38 410.30 142.07 408.31 M 141.19 412.76 C 141.60 415.81 139.53 421.02 143.79 421.91 C 143.69 420.01 141.34 418.16 142.98 416.29 C 144.82 414.84 142.43 413.29 141.19 412.76 Z" />
<path fill="#ffcc04" opacity="1.00" d=" M 105.41 413.36 C 105.81 413.86 106.62 414.87 107.02 415.38 C 107.90 417.12 108.74 418.89 109.59 420.66 L 110.80 420.55 C 112.49 422.42 114.05 424.39 115.60 426.37 C 109.49 425.81 103.34 425.77 97.23 426.16 C 98.52 422.46 99.94 418.82 101.40 415.18 C 101.54 417.10 101.70 419.03 101.90 420.96 C 103.18 418.47 104.40 415.96 105.41 413.36 M 105.66 417.14 C 104.97 418.97 104.13 420.73 103.15 422.42 C 104.90 422.04 107.37 423.14 108.80 421.96 C 107.61 420.45 106.44 418.91 105.66 417.14 Z" />
<path fill="#ffcc04" opacity="1.00" d=" M 147.19 419.85 C 145.28 418.92 146.96 413.97 148.68 416.33 C 149.05 416.69 149.79 417.42 150.16 417.79 C 150.23 419.31 148.74 421.28 147.19 419.85 Z" />
</g>
<g id="#50127bff">
<path fill="#50127b" opacity="1.00" d=" M 160.09 9.26 C 160.65 9.30 161.76 9.38 162.32 9.42 L 162.42 9.53 C 168.14 16.30 174.04 22.91 180.14 29.35 C 178.76 32.55 177.30 35.72 175.83 38.88 C 168.87 39.06 161.90 39.80 155.15 41.61 C 152.98 39.54 151.50 36.46 148.91 35.01 C 147.05 38.20 146.13 41.82 144.70 45.21 C 139.11 47.27 134.66 51.30 129.43 54.00 C 125.68 49.50 122.11 44.84 118.38 40.33 C 118.17 40.32 117.76 40.30 117.55 40.29 C 114.67 48.23 111.73 56.16 109.19 64.22 L 109.02 64.78 C 107.51 65.83 106.02 66.91 104.54 68.01 C 100.84 63.50 97.56 58.65 93.73 54.23 C 95.87 43.94 100.56 33.93 108.16 26.55 C 111.38 30.64 114.66 34.69 117.64 38.96 C 121.11 30.88 124.07 22.58 127.39 14.43 L 127.48 14.19 C 128.80 13.76 130.13 13.32 131.44 12.86 C 136.98 20.27 142.85 27.43 148.98 34.35 C 152.64 25.97 156.40 17.63 160.09 9.26 Z" />
<path fill="#50127b" opacity="1.00" d=" M 186.63 16.11 C 194.70 20.05 201.82 26.07 206.56 33.74 C 205.07 36.84 203.39 39.84 202.16 43.06 C 198.63 42.64 195.30 41.31 191.84 40.58 C 187.64 37.08 184.24 32.76 180.28 29.01 C 182.36 24.70 184.55 20.43 186.63 16.11 Z" />
<path fill="#50127b" opacity="1.00" d=" M 110.89 148.95 C 111.99 147.48 114.15 145.90 115.95 147.16 C 130.90 155.84 145.95 164.34 160.86 173.08 C 161.45 180.30 161.48 187.54 162.14 194.75 C 162.69 195.00 163.79 195.51 164.34 195.76 C 164.57 197.37 164.88 198.98 164.91 200.62 C 160.34 210.24 156.03 220.00 151.42 229.60 C 151.19 229.68 150.73 229.84 150.50 229.92 C 143.11 219.04 136.05 207.91 128.43 197.19 C 128.37 197.51 128.24 198.16 128.18 198.48 C 124.60 198.44 120.87 198.56 117.43 197.49 C 115.32 195.61 116.12 192.40 114.93 190.03 C 111.34 183.40 105.86 178.09 101.43 172.06 C 102.29 170.83 103.42 169.70 103.72 168.17 C 105.40 161.56 106.51 154.43 110.89 148.95 Z" />
<path fill="#50127b" opacity="1.00" d=" M 169.50 173.97 C 170.74 171.49 173.09 169.70 174.88 167.60 C 175.41 174.61 175.04 181.66 175.36 188.69 C 183.69 193.96 192.60 198.27 200.70 203.93 C 197.33 211.60 194.15 219.35 190.76 227.02 C 198.15 237.95 205.72 248.77 212.84 259.88 C 207.52 271.96 202.41 284.13 197.19 296.25 C 196.32 297.54 197.56 298.73 198.16 299.80 C 204.97 309.81 211.53 319.99 218.28 330.04 C 213.44 341.65 208.05 353.04 203.52 364.77 C 209.55 372.61 215.21 380.72 221.14 388.63 C 221.04 394.05 220.23 399.47 220.77 404.91 C 221.07 410.14 221.64 415.99 218.59 420.59 C 216.98 423.21 213.75 423.99 210.99 424.77 C 210.52 424.75 209.57 424.72 209.09 424.71 C 202.91 416.45 196.62 408.25 190.16 400.21 C 190.09 400.14 189.94 399.99 189.87 399.92 C 190.94 398.51 191.66 396.89 192.22 395.22 C 195.76 384.83 199.97 374.66 203.34 364.20 C 195.39 354.60 187.76 344.73 180.06 334.92 C 180.04 334.44 180.01 333.49 180.00 333.01 C 185.36 321.27 191.11 309.70 196.37 297.92 L 196.32 297.11 C 189.86 286.84 182.57 277.09 176.13 266.81 C 175.76 264.61 175.57 262.39 175.55 260.16 C 180.16 248.94 186.02 238.24 190.59 227.02 C 183.53 215.77 175.52 205.13 168.39 193.92 C 168.45 187.26 169.03 180.61 169.50 173.97 Z" />
<path fill="#50127b" opacity="1.00" d=" M 53.84 190.35 C 60.18 185.89 67.17 182.23 74.71 180.30 C 78.98 186.56 83.09 192.93 87.39 199.18 C 84.01 205.94 80.88 212.83 77.69 219.69 C 70.87 214.64 64.13 209.33 56.49 205.56 C 54.07 204.25 51.32 204.94 48.77 205.37 C 48.50 204.78 47.96 203.59 47.69 203.00 C 49.53 198.71 51.36 194.33 53.84 190.35 Z" />
<path fill="#50127b" opacity="1.00" d=" M 87.35 199.05 C 89.75 193.73 92.35 188.51 94.67 183.17 C 98.66 186.66 102.87 189.94 107.57 192.44 C 112.30 194.73 110.74 201.39 114.38 204.60 C 117.88 206.48 121.81 204.28 125.47 203.99 C 120.64 213.98 115.23 223.76 110.91 233.96 C 118.26 245.14 125.68 256.35 133.37 267.33 C 127.82 279.80 121.46 291.90 115.47 304.15 C 122.41 315.66 130.02 326.78 137.24 338.12 C 143.99 325.78 150.37 313.23 157.08 300.87 C 149.19 289.86 141.39 278.79 133.43 267.84 C 139.18 255.43 145.12 243.12 150.93 230.74 C 157.80 240.38 164.12 250.40 170.82 260.16 C 171.81 261.67 173.06 263.14 173.24 265.01 C 173.06 266.13 172.74 267.20 172.28 268.23 C 167.22 279.13 162.04 289.99 157.07 300.94 C 163.47 310.30 169.61 319.82 175.93 329.23 C 177.28 331.14 178.33 333.62 177.21 335.91 C 172.39 347.66 167.62 359.44 162.66 371.14 C 170.99 381.02 179.41 390.82 187.87 400.59 C 187.84 401.58 187.77 402.59 187.67 403.59 C 185.13 411.40 182.14 419.05 179.30 426.76 C 171.79 426.81 164.28 427.14 156.77 427.04 C 155.04 424.66 153.24 422.32 151.42 420.01 C 152.45 416.90 150.31 413.82 146.96 414.32 C 145.49 412.19 143.84 410.19 142.07 408.31 C 141.38 410.30 140.71 412.30 139.99 414.28 C 138.91 414.72 137.75 414.64 136.62 414.60 C 136.61 417.00 136.04 419.54 137.15 421.79 C 136.44 423.46 135.67 425.11 134.93 426.77 C 128.48 426.80 122.03 426.95 115.60 426.37 C 114.05 424.39 112.49 422.42 110.80 420.55 C 110.32 417.88 110.46 415.18 110.66 412.50 C 109.10 412.38 107.53 412.26 105.97 412.19 C 106.23 412.99 106.75 414.58 107.02 415.38 C 106.62 414.87 105.81 413.86 105.41 413.36 L 105.72 412.11 C 104.68 412.16 102.59 412.26 101.55 412.31 C 101.51 413.03 101.43 414.46 101.40 415.18 C 99.94 418.82 98.52 422.46 97.23 426.16 C 95.29 426.28 93.35 426.37 91.41 426.42 C 92.73 416.29 94.13 406.09 93.24 395.86 C 95.56 399.78 98.24 403.49 100.89 407.22 C 101.36 408.66 101.77 410.12 102.19 411.60 C 104.86 411.55 107.53 411.57 110.21 411.62 C 109.16 409.94 108.10 408.28 106.91 406.71 C 106.85 407.47 106.74 409.00 106.68 409.76 C 106.15 409.68 105.10 409.50 104.57 409.42 C 104.62 408.78 104.71 407.49 104.76 406.85 C 110.02 396.33 114.72 385.53 119.92 374.98 C 126.88 385.15 133.60 395.50 140.49 405.72 C 137.84 407.17 134.75 406.32 131.89 406.30 C 131.21 407.09 130.53 407.89 129.84 408.67 L 129.68 406.30 C 128.19 406.25 126.69 406.20 125.20 406.16 C 125.19 406.95 125.16 408.54 125.14 409.33 C 125.64 408.43 126.16 407.55 126.68 406.68 C 127.00 407.83 127.32 408.98 127.66 410.14 C 127.70 409.24 127.78 407.43 127.82 406.53 C 128.78 407.17 129.28 408.10 129.32 409.34 C 131.44 408.72 133.64 408.45 135.84 408.69 C 135.68 409.35 135.37 410.66 135.21 411.32 C 136.27 410.60 137.27 409.78 137.84 408.60 C 139.19 408.43 140.56 408.29 141.87 407.92 L 142.84 407.36 C 149.38 395.25 156.21 383.29 162.64 371.13 C 153.99 360.13 145.64 348.90 137.01 337.90 C 131.31 350.13 125.87 362.49 119.89 374.59 C 112.55 363.48 105.58 352.13 98.38 340.92 C 103.99 328.60 109.74 316.36 115.39 304.06 C 111.11 297.48 106.72 290.97 102.35 284.45 C 101.20 277.02 99.27 269.46 100.35 261.86 C 100.92 258.38 100.47 254.67 101.89 251.39 C 104.43 245.49 108.26 240.11 110.23 234.01 C 110.07 232.93 109.67 231.96 109.02 231.09 C 101.62 220.53 94.51 209.77 87.35 199.05 M 123.90 408.80 C 124.75 407.49 124.32 405.66 123.68 404.36 C 122.69 405.09 122.17 408.63 123.90 408.80 M 145.20 406.34 L 144.66 406.95 C 145.22 409.34 147.89 405.89 145.20 406.34 M 122.80 411.77 C 122.60 414.39 122.78 417.02 122.76 419.65 C 122.22 419.43 121.13 418.99 120.58 418.78 C 120.34 416.43 119.31 414.28 118.58 412.07 C 118.11 412.12 117.15 412.21 116.68 412.25 C 115.72 415.29 114.37 418.24 113.98 421.44 C 115.15 421.00 115.81 420.14 115.96 418.86 C 116.79 418.83 118.45 418.77 119.28 418.74 C 119.53 419.33 120.02 420.49 120.27 421.07 C 121.39 420.93 122.29 420.25 123.18 419.63 L 123.76 421.84 L 124.98 421.11 C 123.23 418.15 125.11 414.42 123.75 411.48 C 123.51 411.55 123.04 411.70 122.80 411.77 M 126.34 411.20 C 126.19 414.13 126.00 417.08 126.27 420.02 C 126.42 421.17 127.71 421.32 128.56 421.74 C 126.96 418.58 127.92 415.00 127.45 411.63 C 127.17 411.52 126.62 411.31 126.34 411.20 M 129.29 417.06 C 128.02 420.57 133.21 423.10 135.38 420.29 C 133.55 420.39 130.86 420.42 130.88 417.90 C 132.41 417.87 133.94 417.85 135.48 417.83 C 135.86 413.79 129.83 413.29 129.29 417.06 M 153.09 414.54 C 152.73 416.63 152.71 418.75 152.80 420.86 L 154.24 420.93 C 154.46 419.20 153.76 417.13 154.81 415.63 C 158.55 414.99 157.01 419.51 157.60 421.78 C 159.56 421.09 158.63 418.40 158.67 416.86 C 158.62 413.97 155.03 414.59 153.09 414.54 M 160.70 414.65 C 160.56 415.61 160.42 416.57 160.29 417.53 C 161.53 418.30 163.52 418.44 163.73 420.26 C 162.74 420.25 160.74 420.23 159.75 420.22 C 160.96 422.80 166.18 421.50 164.78 418.23 C 163.54 417.50 161.25 417.59 161.38 415.54 C 162.32 415.58 164.19 415.65 165.12 415.69 C 164.15 414.10 162.23 414.61 160.70 414.65 M 170.70 419.28 C 169.79 421.20 172.55 421.22 172.57 419.49 L 172.75 419.41 C 172.98 419.75 173.44 420.44 173.66 420.78 C 175.37 418.49 171.69 416.57 170.70 419.28 M 175.01 418.22 C 174.65 419.53 174.98 420.81 175.46 422.05 C 175.29 420.36 175.86 419.21 177.15 418.60 C 177.26 419.73 177.37 420.86 177.48 422.00 C 177.59 420.75 178.04 419.69 178.81 418.82 C 179.10 419.88 179.41 420.95 179.72 422.03 C 179.71 420.80 179.69 419.58 179.67 418.36 C 178.11 418.31 176.56 418.27 175.01 418.22 Z" />
<path fill="#50127b" opacity="1.00" d=" M 29.24 215.25 C 33.71 209.21 38.32 203.14 44.12 198.30 C 45.15 199.91 46.50 201.31 47.30 203.05 C 47.15 204.47 46.38 205.73 45.80 207.02 C 38.44 211.38 31.62 216.60 25.15 222.20 C 26.18 219.70 27.61 217.40 29.24 215.25 Z" />
<path fill="#50127b" opacity="1.00" d=" M 212.83 259.75 C 216.44 251.61 220.18 243.53 223.82 235.40 C 228.43 246.82 229.87 259.31 231.36 271.47 C 231.53 276.86 232.28 282.27 231.68 287.65 C 225.35 278.38 219.22 268.98 212.83 259.75 Z" />
<path fill="#50127b" opacity="1.00" d=" M 218.31 330.09 C 222.40 320.92 226.79 311.88 230.90 302.72 C 230.66 315.10 226.87 327.08 225.83 339.38 C 223.27 336.32 220.76 333.23 218.31 330.09 Z" />
<path fill="#50127b" opacity="1.00" d=" M 85.38 336.90 C 84.57 333.38 88.74 331.91 90.72 329.82 C 93.25 333.50 95.74 337.22 98.32 340.87 C 93.06 352.13 87.17 363.08 82.07 374.41 C 80.35 373.12 80.16 370.24 81.72 368.76 C 85.80 363.99 90.06 358.55 90.29 352.00 C 90.45 346.48 86.50 342.10 85.38 336.90 Z" />
<path fill="#50127b" opacity="1.00" d=" M 135.21 407.30 C 138.16 405.78 135.63 410.59 135.21 407.30 Z" />
<path fill="#50127b" opacity="1.00" d=" M 116.97 415.31 C 118.31 414.35 119.49 416.70 118.55 417.65 C 117.18 418.62 115.65 416.30 116.97 415.31 Z" />
<path fill="#50127b" opacity="1.00" d=" M 131.24 416.15 C 132.52 415.27 133.32 415.45 133.64 416.70 C 132.35 417.57 131.55 417.39 131.24 416.15 Z" />
<path fill="#50127b" opacity="1.00" d=" M 138.44 416.28 L 139.30 416.12 C 138.94 416.58 138.23 417.49 137.87 417.95 C 138.01 417.53 138.29 416.70 138.44 416.28 Z" />
<path fill="#50127b" opacity="1.00" d=" M 148.68 416.33 C 149.09 416.49 149.91 416.80 150.32 416.95 L 150.16 417.79 C 149.79 417.42 149.05 416.69 148.68 416.33 Z" />
</g>
</svg>
