<?xml version="1.0" encoding="UTF-8" ?>
<!DOCTYPE svg PUBLIC "-//W3C//DTD SVG 1.1//EN" "http://www.w3.org/Graphics/SVG/1.1/DTD/svg11.dtd">
<svg width="279pt" height="547pt" viewBox="0 0 279 547" version="1.1" xmlns="http://www.w3.org/2000/svg">
<g id="#ffffffff">
<path fill="#ffffff" opacity="1.00" d=" M 102.10 84.15 C 105.21 82.69 108.67 81.16 112.18 82.10 C 115.66 83.06 117.45 87.59 115.77 90.73 C 111.94 98.85 107.81 106.85 104.64 115.27 C 102.18 109.06 99.76 102.70 99.15 95.99 C 99.25 91.89 100.47 87.89 102.10 84.15 Z" />
<path fill="#ffffff" opacity="1.00" d=" M 158.40 438.66 C 159.47 437.97 160.56 437.33 161.66 436.72 C 161.67 438.45 161.60 440.19 161.58 441.93 C 160.91 441.92 159.57 441.89 158.90 441.87 C 159.83 440.61 160.74 439.33 161.60 438.02 C 160.80 438.18 159.20 438.50 158.40 438.66 Z" />
<path fill="#ffffff" opacity="1.00" d=" M 163.05 441.89 C 163.27 439.87 162.69 437.07 165.46 436.64 L 165.49 438.64 C 166.83 438.11 168.13 437.52 169.43 436.90 C 169.44 438.55 169.46 440.20 169.49 441.85 C 169.27 441.81 168.82 441.72 168.60 441.67 C 168.23 441.09 168.05 438.34 166.96 439.61 C 166.17 441.21 164.78 441.90 163.05 441.89 M 164.33 438.44 C 163.50 439.70 163.74 440.45 165.05 440.69 C 165.90 439.46 165.65 438.71 164.33 438.44 Z" />
<path fill="#ffffff" opacity="1.00" d=" M 171.30 437.40 C 172.06 437.34 173.57 437.20 174.33 437.13 C 173.72 437.46 172.51 438.11 171.90 438.44 C 172.96 439.17 174.01 439.92 175.04 440.69 C 174.28 440.48 172.76 440.06 172.00 439.85 L 172.01 441.52 C 172.65 441.33 173.94 440.95 174.58 440.76 C 174.06 441.26 173.03 442.27 172.52 442.77 C 171.12 441.30 171.13 439.30 171.30 437.40 Z" />
<path fill="#ffffff" opacity="1.00" d=" M 130.94 438.50 C 132.57 438.48 134.21 438.46 135.84 438.43 C 135.89 439.73 135.93 441.03 135.95 442.35 C 135.45 441.15 134.94 439.96 134.45 438.78 C 134.20 439.75 133.70 441.70 133.44 442.68 C 133.28 441.67 132.95 439.64 132.78 438.63 C 132.34 439.60 131.46 441.54 131.02 442.50 C 130.98 441.17 130.95 439.83 130.94 438.50 Z" />
<path fill="#ffffff" opacity="1.00" d=" M 138.47 437.44 C 139.32 438.80 140.02 440.22 140.76 441.66 C 139.49 441.43 137.73 442.22 136.83 441.01 C 137.33 440.80 138.33 440.38 138.83 440.17 C 138.74 439.48 138.56 438.12 138.47 437.44 Z" />
<path fill="#ffffff" opacity="1.00" d=" M 142.44 438.50 C 142.99 438.49 144.10 438.48 144.65 438.47 L 144.78 440.25 C 145.35 439.75 146.48 438.73 147.05 438.23 C 147.48 438.41 148.35 438.77 148.78 438.95 C 148.71 439.80 148.58 441.49 148.51 442.34 C 147.46 441.99 145.55 442.31 146.09 440.31 L 144.44 440.45 C 144.55 441.10 144.77 442.40 144.88 443.05 C 143.19 442.29 141.55 441.40 140.23 440.09 C 140.78 439.69 141.88 438.90 142.44 438.50 M 142.25 439.85 C 142.42 443.23 145.22 438.25 142.25 439.85 Z" />
<path fill="#ffffff" opacity="1.00" d=" M 111.42 442.45 C 111.32 441.12 111.53 439.87 112.43 438.88 C 112.49 439.97 112.60 442.16 112.65 443.25 C 113.66 442.07 114.65 440.90 115.64 439.72 C 114.88 441.70 114.35 443.76 113.96 445.86 L 115.57 445.43 C 115.48 449.06 115.72 452.70 115.53 456.33 C 115.05 453.91 114.98 451.42 114.63 448.99 C 114.44 450.91 114.32 452.84 114.27 454.78 C 113.10 451.93 111.28 449.23 110.99 446.10 L 111.23 445.39 C 111.89 445.38 113.19 445.34 113.85 445.33 C 113.87 445.13 113.90 444.72 113.91 444.52 C 111.26 444.54 108.60 444.54 105.95 444.56 C 105.69 442.94 105.39 441.33 105.11 439.72 C 105.81 441.02 106.52 442.32 107.22 443.63 C 107.32 442.72 107.52 440.92 107.62 440.02 C 108.19 440.07 109.33 440.19 109.90 440.25 C 109.48 440.77 108.63 441.82 108.21 442.35 C 109.01 442.37 110.62 442.42 111.42 442.45 Z" />
<path fill="#ffffff" opacity="1.00" d=" M 142.62 443.28 C 143.26 443.78 143.26 443.78 142.62 443.28 Z" />
<path fill="#ffffff" opacity="1.00" d=" M 128.60 452.85 C 128.61 449.85 127.97 446.57 129.48 443.82 C 130.50 447.81 130.09 451.96 130.75 456.01 C 129.89 455.06 128.43 454.33 128.60 452.85 Z" />
<path fill="#ffffff" opacity="1.00" d=" M 132.44 444.35 C 132.80 444.47 133.53 444.71 133.90 444.83 C 133.86 448.50 133.50 452.30 134.98 455.77 C 134.36 455.43 133.12 454.75 132.50 454.41 C 132.12 451.07 132.38 447.70 132.44 444.35 Z" />
<path fill="#ffffff" opacity="1.00" d=" M 118.93 455.63 C 119.56 451.48 121.09 447.52 123.01 443.80 C 124.98 447.32 126.37 451.13 127.35 455.04 C 125.96 454.93 125.12 454.11 124.82 452.56 C 123.67 452.57 122.51 452.60 121.36 452.64 C 120.80 453.84 119.99 454.84 118.93 455.63 M 122.32 448.50 C 120.85 449.44 122.29 452.19 123.84 450.97 C 125.18 450.02 123.82 447.34 122.32 448.50 Z" />
<path fill="#ffffff" opacity="1.00" d=" M 105.49 445.13 C 107.02 445.14 108.45 445.49 109.78 446.17 C 109.02 449.19 107.26 451.91 105.90 454.71 C 105.70 451.51 105.75 448.32 105.49 445.13 Z" />
<path fill="#ffffff" opacity="1.00" d=" M 145.64 448.29 C 147.31 447.73 150.37 444.28 150.59 447.81 C 151.02 447.81 151.90 447.82 152.33 447.83 C 149.52 449.08 149.11 453.95 152.37 454.95 C 151.12 455.95 148.65 455.33 148.85 453.48 C 148.79 451.45 148.50 449.38 146.59 448.26 C 144.52 450.43 146.07 453.85 144.02 455.95 C 143.78 454.63 143.39 453.35 142.86 452.14 C 140.99 451.15 138.81 451.96 136.83 451.90 C 137.85 454.28 140.47 453.87 142.56 454.02 C 139.95 457.43 133.97 454.07 135.86 450.10 C 136.88 446.72 141.20 448.05 142.89 450.14 C 143.10 449.63 143.53 448.62 143.74 448.12 C 144.22 448.16 145.17 448.25 145.64 448.29 M 137.67 450.05 C 138.60 451.36 139.52 451.35 140.43 450.02 C 139.50 448.66 138.58 448.67 137.67 450.05 Z" />
<path fill="#ffffff" opacity="1.00" d=" M 171.05 447.92 C 172.54 447.24 173.89 448.46 175.05 449.25 C 173.56 449.16 172.07 449.00 170.58 448.92 C 171.31 450.30 172.60 451.15 173.85 452.02 C 174.60 452.74 175.28 454.50 176.64 453.75 C 178.93 451.86 181.97 452.58 184.70 452.35 C 184.70 452.91 184.71 454.03 184.72 454.60 C 184.31 454.83 183.48 455.30 183.07 455.54 C 182.64 455.23 181.77 454.60 181.34 454.29 C 180.25 455.30 179.18 455.40 178.12 454.59 C 177.44 455.03 176.75 455.47 176.07 455.92 C 175.32 455.52 174.56 455.13 173.81 454.75 C 172.04 455.65 169.82 455.70 168.78 453.74 C 170.36 453.89 171.93 454.05 173.51 454.18 C 172.69 452.45 170.90 451.76 169.33 450.93 C 169.61 449.78 169.66 448.30 171.05 447.92 M 178.99 453.29 C 179.25 456.54 182.07 451.59 178.99 453.29 M 182.39 453.33 C 182.45 456.69 185.44 451.88 182.39 453.33 Z" />
<path fill="#ffffff" opacity="1.00" d=" M 158.44 450.00 C 156.93 449.41 155.41 448.82 154.01 448.00 C 156.75 447.02 160.70 448.59 159.92 451.98 C 160.26 455.95 153.87 456.61 152.91 452.95 C 152.94 451.97 152.98 450.01 153.01 449.02 C 153.95 450.44 154.49 452.05 154.95 453.68 C 157.70 454.66 158.64 452.40 158.44 450.00 Z" />
<path fill="#ffffff" opacity="1.00" d=" M 161.26 448.17 C 163.25 448.35 165.63 447.35 167.31 448.81 C 168.04 451.12 168.63 454.23 166.65 456.10 C 166.38 453.84 166.29 451.57 166.19 449.32 C 165.35 449.38 163.67 449.50 162.84 449.57 C 162.86 451.43 162.88 453.31 162.91 455.18 C 162.54 455.29 161.80 455.51 161.43 455.62 C 161.36 453.14 161.33 450.65 161.26 448.17 Z" />
<path fill="#ffffff" opacity="1.00" d=" M 106.96 456.39 C 108.22 454.54 109.31 452.59 110.40 450.64 C 110.95 452.10 111.50 453.56 112.06 455.03 C 112.91 455.36 114.60 456.02 115.45 456.35 C 112.62 456.43 109.79 456.46 106.96 456.39 Z" />
<path fill="#ffffff" opacity="1.00" d=" M 185.59 452.29 C 187.37 452.29 189.16 452.30 190.95 452.30 C 190.72 453.36 190.48 454.43 190.24 455.50 C 190.09 454.88 189.78 453.64 189.62 453.02 L 188.86 453.01 C 188.78 453.60 188.63 454.78 188.55 455.37 C 188.42 454.80 188.17 453.65 188.05 453.07 C 187.39 453.23 186.08 453.54 185.42 453.70 L 185.59 452.29 Z" />
</g>
<g id="#000000ff">
<path fill="#000000" opacity="1.00" d=" M 125.64 12.81 C 135.92 7.33 147.47 4.38 159.05 3.52 C 176.65 3.13 195.20 6.64 209.46 17.55 C 219.78 25.31 226.88 36.93 229.80 49.44 C 230.50 54.27 234.57 57.69 235.36 62.52 C 236.60 69.31 236.71 77.42 231.80 82.88 C 230.20 84.95 228.45 86.90 226.95 89.05 C 223.46 94.74 218.32 99.15 213.23 103.36 C 211.80 116.68 210.28 130.15 211.71 143.53 C 211.88 146.62 213.94 149.48 213.54 152.58 C 211.42 157.74 206.63 161.32 201.91 163.99 C 199.46 165.66 197.02 163.22 195.75 161.26 C 194.78 159.60 192.85 157.29 194.62 155.54 C 197.73 151.69 201.86 148.82 205.18 145.17 C 206.13 144.17 205.92 142.66 206.15 141.40 C 207.31 122.93 208.03 104.43 208.69 85.94 C 208.62 81.88 208.56 76.70 204.57 74.41 C 193.02 65.74 177.85 64.44 163.89 65.13 C 150.67 66.12 137.38 68.50 125.10 73.63 C 125.79 81.05 126.21 88.64 124.60 95.98 C 123.39 101.58 119.06 105.75 117.23 111.11 C 113.18 122.10 109.97 134.12 112.68 145.82 C 107.34 143.94 103.73 139.25 98.70 136.79 C 98.06 141.59 99.19 146.33 99.64 151.08 C 100.48 159.04 99.76 167.11 101.05 175.02 C 101.37 177.58 102.48 179.93 103.84 182.10 C 106.75 178.65 106.49 173.92 107.90 169.84 C 109.68 163.89 111.65 157.01 117.42 153.72 C 119.92 151.98 122.40 154.21 124.58 155.35 C 139.84 164.14 155.12 172.91 170.42 181.65 C 171.27 182.26 172.68 182.71 172.64 184.00 C 173.22 191.46 173.41 198.95 173.91 206.42 C 174.43 206.24 175.49 205.90 176.01 205.72 C 176.84 198.66 176.58 191.48 177.50 184.42 C 180.18 180.82 183.22 177.44 186.28 174.15 C 187.80 172.85 188.44 174.80 188.34 176.05 C 188.56 184.31 188.48 192.58 188.64 200.85 C 196.13 204.73 203.42 209.01 210.57 213.48 C 218.62 218.68 226.73 224.01 233.34 231.04 C 237.23 232.89 239.31 236.91 241.30 240.52 C 246.37 250.78 249.27 261.96 251.47 273.15 C 253.63 283.69 253.69 294.54 256.11 305.04 C 261.05 327.18 267.49 349.18 268.48 371.98 C 268.77 378.30 268.56 384.63 268.24 390.94 C 266.90 409.62 267.11 428.39 268.60 447.05 C 268.93 449.37 267.33 451.27 266.39 453.24 C 268.02 454.57 270.28 455.71 270.32 458.14 C 269.78 460.14 268.81 462.00 268.41 464.04 C 268.88 466.03 270.09 467.91 269.85 470.04 C 269.56 477.00 269.39 483.97 269.55 490.94 C 270.03 500.26 273.64 509.01 275.48 518.07 C 275.91 519.99 273.58 520.65 272.13 520.31 C 267.39 519.87 262.67 518.45 257.88 519.25 C 253.91 519.63 250.49 521.96 247.76 524.74 C 246.74 523.94 245.64 523.14 245.28 521.83 C 242.85 515.77 240.26 509.57 239.99 502.96 C 239.08 496.97 236.73 491.18 237.03 485.02 C 237.88 475.83 235.81 466.69 234.13 457.70 C 228.98 461.64 222.31 462.56 216.09 463.58 C 205.08 464.55 194.02 463.65 182.98 464.00 C 165.64 464.43 148.31 463.73 130.97 463.92 C 123.64 464.12 116.37 462.84 109.05 462.96 C 104.02 462.66 99.02 463.34 94.01 463.58 C 93.41 467.90 95.69 471.62 98.03 475.00 C 101.07 481.28 98.84 488.54 100.47 495.16 C 103.51 508.29 105.85 521.64 107.01 535.08 C 92.90 532.97 79.68 539.84 66.77 544.47 C 63.57 538.86 66.72 532.08 65.18 526.03 C 62.94 517.02 54.82 511.55 48.68 505.29 C 42.42 496.21 40.04 484.96 33.49 476.02 C 30.75 472.53 27.28 469.58 25.24 465.58 C 21.82 458.88 20.47 451.40 19.18 444.06 C 17.76 436.06 17.57 427.78 14.61 420.12 C 12.45 413.50 8.23 407.25 8.87 400.02 C 9.18 393.02 8.34 386.05 8.71 379.06 C 9.00 368.80 5.71 358.96 3.20 349.16 C 2.07 332.68 6.98 316.47 6.25 299.99 C 6.48 284.11 6.90 267.91 11.61 252.62 C 21.85 230.46 37.31 209.90 58.55 197.30 C 68.59 191.25 80.04 188.13 91.61 186.79 C 88.85 180.09 85.79 171.70 90.10 165.02 C 91.69 162.03 94.10 159.61 96.02 156.86 C 97.40 154.97 96.32 152.68 95.35 150.89 C 92.94 146.67 92.51 141.54 93.34 136.82 C 93.85 133.35 97.68 132.11 99.32 129.31 C 101.83 125.25 103.35 120.67 104.73 116.13 C 101.15 113.31 99.64 108.88 96.80 105.45 C 91.86 85.65 90.70 64.21 97.81 44.77 C 102.66 31.13 112.77 19.48 125.64 12.81 M 156.11 5.64 C 145.20 7.32 134.04 9.83 124.62 15.80 C 114.97 20.62 107.44 29.13 102.65 38.70 C 94.68 54.11 94.00 72.06 95.64 88.99 C 97.46 83.85 99.91 78.89 103.68 74.88 L 103.67 74.67 C 110.44 67.88 118.23 62.00 126.94 57.93 C 131.83 55.86 137.15 54.61 141.42 51.30 C 147.62 46.64 154.92 43.79 162.28 41.54 C 179.09 36.54 197.32 37.16 213.96 42.56 C 218.61 44.34 223.10 46.58 227.02 49.66 C 225.86 44.95 224.27 40.32 222.03 36.01 C 215.70 23.54 203.87 14.19 190.56 10.18 C 179.62 6.17 167.70 4.82 156.11 5.64 M 145.33 50.94 C 153.80 49.45 162.32 47.80 170.97 47.98 C 187.68 47.64 205.09 52.05 218.04 63.02 C 223.74 67.75 228.32 74.44 228.42 82.09 C 236.03 73.36 233.95 58.90 225.51 51.44 C 219.97 46.75 212.97 44.20 206.01 42.47 C 185.72 37.71 163.39 40.26 145.33 50.94 M 102.10 84.15 C 100.47 87.89 99.25 91.89 99.15 95.99 C 99.76 102.70 102.18 109.06 104.64 115.27 C 107.81 106.85 111.94 98.85 115.77 90.73 C 117.45 87.59 115.66 83.06 112.18 82.10 C 108.67 81.16 105.21 82.69 102.10 84.15 M 110.65 168.44 C 108.87 173.44 108.94 179.19 105.43 183.45 C 108.68 187.84 112.43 191.85 115.69 196.24 C 117.87 199.20 120.30 202.24 120.86 206.00 C 121.37 207.87 121.24 210.52 123.41 211.36 C 127.44 212.37 131.86 211.38 135.72 213.15 C 136.87 215.23 134.31 216.10 132.92 216.96 C 128.96 218.75 124.45 220.20 120.09 219.25 C 115.46 216.13 117.42 208.51 112.37 205.76 C 104.79 201.47 97.46 196.18 92.91 188.58 C 85.07 190.54 76.92 191.32 69.45 194.56 C 49.07 203.01 32.85 219.52 21.79 238.32 C 30.28 231.13 38.95 223.75 49.34 219.47 C 54.18 217.58 58.64 221.03 62.61 223.35 C 74.81 231.22 86.32 240.21 96.89 250.16 C 100.55 254.06 104.74 257.89 106.56 263.06 C 107.25 266.41 105.30 269.61 105.07 272.94 C 104.34 279.23 103.63 285.58 104.18 291.92 C 104.58 296.98 106.35 301.87 106.16 306.99 C 106.05 319.51 102.61 331.69 101.71 344.14 C 100.29 351.56 93.01 355.27 88.18 360.26 C 86.87 364.81 90.49 368.97 91.85 373.16 C 95.20 380.54 91.65 388.90 86.65 394.60 C 85.06 396.78 82.15 398.87 82.86 401.93 C 84.48 405.46 87.50 408.06 89.78 411.15 C 92.97 415.51 95.37 420.58 96.06 425.99 C 97.80 437.66 95.86 449.43 94.35 461.01 C 102.89 460.06 111.51 459.99 120.08 460.68 C 131.03 461.71 142.04 461.05 153.02 461.26 C 168.17 461.85 183.33 461.17 198.48 461.11 C 198.47 457.40 198.26 453.69 198.35 449.98 C 198.47 444.94 199.74 440.00 199.62 434.95 C 199.51 425.50 198.02 416.08 195.37 407.02 C 193.21 399.56 192.37 391.81 191.32 384.14 C 187.93 354.20 184.52 324.16 184.75 293.98 C 184.00 276.53 181.35 259.25 179.02 241.96 C 177.38 231.04 175.82 220.11 173.86 209.25 C 173.10 208.51 171.40 208.31 171.45 207.01 C 170.95 199.54 170.61 192.06 170.33 184.58 C 153.64 174.57 136.55 165.24 119.82 155.31 C 114.37 157.44 112.40 163.39 110.65 168.44 M 179.36 187.96 C 179.02 194.38 178.63 200.80 178.33 207.23 C 177.82 207.60 176.79 208.33 176.27 208.70 C 180.22 232.39 183.63 256.19 186.17 280.07 C 187.68 292.33 186.81 304.68 187.53 316.98 C 188.29 330.67 189.44 344.34 190.84 357.98 C 192.55 372.58 193.59 387.29 196.39 401.73 C 199.88 414.97 203.23 428.72 201.27 442.49 C 200.46 448.69 200.47 454.96 200.80 461.19 C 211.15 461.58 222.07 461.23 231.48 456.44 C 235.92 452.32 236.02 445.55 235.72 439.92 C 234.62 429.23 236.29 418.55 237.17 407.91 C 238.59 392.90 239.99 377.89 241.31 362.87 C 242.00 355.86 243.70 349.00 244.77 342.04 C 250.93 307.68 247.39 271.68 234.83 239.11 C 232.26 230.87 224.63 225.88 218.02 221.04 C 207.98 213.69 196.84 208.07 186.21 201.71 C 185.47 193.85 185.91 185.89 185.75 178.00 C 183.41 181.12 179.21 183.63 179.36 187.96 M 40.45 227.40 C 32.77 232.51 25.44 238.33 19.66 245.58 C 16.68 249.26 13.67 253.24 12.80 258.01 C 8.46 275.29 8.78 293.23 8.56 310.91 C 7.57 322.26 5.71 333.56 5.48 344.97 C 5.31 350.15 7.64 354.92 8.64 359.91 C 10.09 366.81 11.60 373.82 11.15 380.92 C 10.83 386.31 11.60 391.68 11.67 397.06 C 11.72 400.53 10.87 404.18 12.34 407.48 C 14.86 413.95 18.00 420.24 19.38 427.10 C 21.89 439.38 22.10 452.34 27.37 463.91 C 29.79 469.40 34.99 472.89 38.00 478.00 C 42.55 485.26 44.97 493.58 48.84 501.18 C 50.92 505.60 55.37 508.03 58.59 511.48 C 62.37 515.37 66.06 519.76 67.45 525.11 C 68.46 530.50 67.72 536.01 67.86 541.46 C 79.50 536.77 91.61 531.61 104.42 532.33 C 102.85 520.87 101.38 509.36 98.43 498.15 C 96.97 492.53 97.56 486.69 97.13 480.97 C 97.17 475.61 91.51 472.36 91.65 466.95 C 91.47 453.67 95.74 440.42 93.33 427.12 C 92.54 419.11 87.03 412.85 82.15 406.89 C 79.86 404.36 78.83 400.15 81.25 397.37 C 84.98 392.79 89.09 388.04 90.04 381.99 C 91.42 374.24 83.65 368.22 84.69 360.54 C 87.62 354.23 95.86 352.08 98.03 345.14 C 99.44 338.79 99.61 332.22 100.86 325.83 C 101.90 317.56 104.17 309.09 102.38 300.78 C 100.48 294.00 101.01 286.91 101.05 279.97 C 101.14 275.21 102.25 270.57 103.30 265.96 C 104.00 263.67 102.36 261.63 101.16 259.85 C 95.59 252.45 88.27 246.64 81.21 240.75 C 73.31 234.55 65.24 228.50 56.56 223.41 C 54.87 222.54 53.01 221.26 51.01 221.93 C 47.16 223.02 43.81 225.32 40.45 227.40 M 249.18 286.12 C 251.81 307.22 250.53 328.70 246.32 349.51 C 242.50 367.05 242.10 385.08 240.14 402.88 C 239.41 414.60 237.16 426.29 238.26 438.06 C 238.64 442.72 239.22 447.55 237.69 452.09 C 237.24 454.07 235.85 455.96 236.36 458.05 C 237.54 464.01 238.66 469.98 239.37 476.02 C 240.00 480.38 238.77 484.76 239.40 489.12 C 239.85 494.22 242.10 498.96 242.50 504.08 C 242.93 509.95 245.60 515.31 247.48 520.81 C 254.45 514.51 264.37 516.07 272.82 517.50 C 270.99 509.34 268.18 501.39 267.23 493.05 C 266.77 485.69 267.04 478.32 267.25 470.96 C 267.48 468.52 266.24 466.33 265.76 464.02 C 265.81 461.80 266.88 459.78 267.60 457.74 C 266.17 456.38 263.69 455.37 263.83 453.05 C 264.63 450.78 266.26 448.66 265.78 446.12 C 264.40 427.80 264.25 409.39 265.54 391.07 C 266.65 375.32 265.37 359.45 262.07 344.03 C 258.94 326.58 253.18 309.68 251.05 292.05 C 249.55 276.23 246.80 260.23 240.28 245.65 C 244.07 258.93 247.83 272.32 249.18 286.12 Z" />
</g>
<g id="#02ae43ff">
<path fill="#02ae43" opacity="1.00" d=" M 156.11 5.64 C 167.70 4.82 179.62 6.17 190.56 10.18 C 202.76 16.82 210.44 29.44 213.96 42.56 C 197.32 37.16 179.09 36.54 162.28 41.54 C 163.02 32.05 163.54 22.29 160.93 13.03 C 160.25 10.06 158.15 7.78 156.11 5.64 Z" />
<path fill="#02ae43" opacity="1.00" d=" M 102.65 38.70 C 107.44 29.13 114.97 20.62 124.62 15.80 C 120.43 19.25 116.69 23.25 113.77 27.83 C 104.82 41.59 102.70 58.59 103.67 74.67 L 103.68 74.88 C 99.91 78.89 97.46 83.85 95.64 88.99 C 94.00 72.06 94.68 54.11 102.65 38.70 Z" />
<path fill="#02ae43" opacity="1.00" d=" M 110.65 168.44 C 112.40 163.39 114.37 157.44 119.82 155.31 C 136.55 165.24 153.64 174.57 170.33 184.58 C 170.61 192.06 170.95 199.54 171.45 207.01 C 171.40 208.31 173.10 208.51 173.86 209.25 C 175.82 220.11 177.38 231.04 179.02 241.96 C 181.35 259.25 184.00 276.53 184.75 293.98 C 184.52 324.16 187.93 354.20 191.32 384.14 C 192.37 391.81 193.21 399.56 195.37 407.02 C 198.02 416.08 199.51 425.50 199.62 434.95 C 199.74 440.00 198.47 444.94 198.35 449.98 C 198.26 453.69 198.47 457.40 198.48 461.11 C 183.33 461.17 168.17 461.85 153.02 461.26 C 142.04 461.05 131.03 461.71 120.08 460.68 C 111.51 459.99 102.89 460.06 94.35 461.01 C 95.86 449.43 97.80 437.66 96.06 425.99 C 95.37 420.58 92.97 415.51 89.78 411.15 C 87.50 408.06 84.48 405.46 82.86 401.93 C 82.15 398.87 85.06 396.78 86.65 394.60 C 91.65 388.90 95.20 380.54 91.85 373.16 C 90.49 368.97 86.87 364.81 88.18 360.26 C 93.01 355.27 100.29 351.56 101.71 344.14 C 102.61 331.69 106.05 319.51 106.16 306.99 C 106.35 301.87 104.58 296.98 104.18 291.92 C 103.63 285.58 104.34 279.23 105.07 272.94 C 105.30 269.61 107.25 266.41 106.56 263.06 C 104.74 257.89 100.55 254.06 96.89 250.16 C 86.32 240.21 74.81 231.22 62.61 223.35 C 58.64 221.03 54.18 217.58 49.34 219.47 C 38.95 223.75 30.28 231.13 21.79 238.32 C 32.85 219.52 49.07 203.01 69.45 194.56 C 76.92 191.32 85.07 190.54 92.91 188.58 C 97.46 196.18 104.79 201.47 112.37 205.76 C 117.42 208.51 115.46 216.13 120.09 219.25 C 124.45 220.20 128.96 218.75 132.92 216.96 C 134.31 216.10 136.87 215.23 135.72 213.15 C 131.86 211.38 127.44 212.37 123.41 211.36 C 121.24 210.52 121.37 207.87 120.86 206.00 C 120.30 202.24 117.87 199.20 115.69 196.24 C 112.43 191.85 108.68 187.84 105.43 183.45 C 108.94 179.19 108.87 173.44 110.65 168.44 M 158.40 438.66 C 159.20 438.50 160.80 438.18 161.60 438.02 C 160.74 439.33 159.83 440.61 158.90 441.87 C 159.57 441.89 160.91 441.92 161.58 441.93 C 161.60 440.19 161.67 438.45 161.66 436.72 C 160.56 437.33 159.47 437.97 158.40 438.66 M 163.05 441.89 C 164.78 441.90 166.17 441.21 166.96 439.61 C 168.05 438.34 168.23 441.09 168.60 441.67 C 168.82 441.72 169.27 441.81 169.49 441.85 C 169.46 440.20 169.44 438.55 169.43 436.90 C 168.13 437.52 166.83 438.11 165.49 438.64 L 165.46 436.64 C 162.69 437.07 163.27 439.87 163.05 441.89 M 171.30 437.40 C 171.13 439.30 171.12 441.30 172.52 442.77 C 173.03 442.27 174.06 441.26 174.58 440.76 C 173.94 440.95 172.65 441.33 172.01 441.52 L 172.00 439.85 C 172.76 440.06 174.28 440.48 175.04 440.69 C 174.01 439.92 172.96 439.17 171.90 438.44 C 172.51 438.11 173.72 437.46 174.33 437.13 C 173.57 437.20 172.06 437.34 171.30 437.40 M 130.94 438.50 C 130.95 439.83 130.98 441.17 131.02 442.50 C 131.46 441.54 132.34 439.60 132.78 438.63 C 132.95 439.64 133.28 441.67 133.44 442.68 C 133.70 441.70 134.20 439.75 134.45 438.78 C 134.94 439.96 135.45 441.15 135.95 442.35 C 135.93 441.03 135.89 439.73 135.84 438.43 C 134.21 438.46 132.57 438.48 130.94 438.50 M 138.47 437.44 C 138.56 438.12 138.74 439.48 138.83 440.17 C 138.33 440.38 137.33 440.80 136.83 441.01 C 137.73 442.22 139.49 441.43 140.76 441.66 C 140.02 440.22 139.32 438.80 138.47 437.44 M 142.44 438.50 C 141.88 438.90 140.78 439.69 140.23 440.09 C 141.55 441.40 143.19 442.29 144.88 443.05 C 144.77 442.40 144.55 441.10 144.44 440.45 L 146.09 440.31 C 145.55 442.31 147.46 441.99 148.51 442.34 C 148.58 441.49 148.71 439.80 148.78 438.95 C 148.35 438.77 147.48 438.41 147.05 438.23 C 146.48 438.73 145.35 439.75 144.78 440.25 L 144.65 438.47 C 144.10 438.48 142.99 438.49 142.44 438.50 M 111.42 442.45 C 110.62 442.42 109.01 442.37 108.21 442.35 C 108.63 441.82 109.48 440.77 109.90 440.25 C 109.33 440.19 108.19 440.07 107.62 440.02 C 107.52 440.92 107.32 442.72 107.22 443.63 C 106.52 442.32 105.81 441.02 105.11 439.72 C 105.39 441.33 105.69 442.94 105.95 444.56 C 108.60 444.54 111.26 444.54 113.91 444.52 C 113.90 444.72 113.87 445.13 113.85 445.33 C 113.19 445.34 111.89 445.38 111.23 445.39 L 110.99 446.10 C 111.28 449.23 113.10 451.93 114.27 454.78 C 114.32 452.84 114.44 450.91 114.63 448.99 C 114.98 451.42 115.05 453.91 115.53 456.33 C 115.72 452.70 115.48 449.06 115.57 445.43 L 113.96 445.86 C 114.35 443.76 114.88 441.70 115.64 439.72 C 114.65 440.90 113.66 442.07 112.65 443.25 C 112.60 442.16 112.49 439.97 112.43 438.88 C 111.53 439.87 111.32 441.12 111.42 442.45 M 142.62 443.28 C 143.26 443.78 143.26 443.78 142.62 443.28 M 128.60 452.85 C 128.43 454.33 129.89 455.06 130.75 456.01 C 130.09 451.96 130.50 447.81 129.48 443.82 C 127.97 446.57 128.61 449.85 128.60 452.85 M 132.44 444.35 C 132.38 447.70 132.12 451.07 132.50 454.41 C 133.12 454.75 134.36 455.43 134.98 455.77 C 133.50 452.30 133.86 448.50 133.90 444.83 C 133.53 444.71 132.80 444.47 132.44 444.35 M 118.93 455.63 C 119.99 454.84 120.80 453.84 121.36 452.64 C 122.51 452.60 123.67 452.57 124.82 452.56 C 125.12 454.11 125.96 454.93 127.35 455.04 C 126.37 451.13 124.98 447.32 123.01 443.80 C 121.09 447.52 119.56 451.48 118.93 455.63 M 105.49 445.13 C 105.75 448.32 105.70 451.51 105.90 454.71 C 107.26 451.91 109.02 449.19 109.78 446.17 C 108.45 445.49 107.02 445.14 105.49 445.13 M 145.64 448.29 C 145.17 448.25 144.22 448.16 143.74 448.12 C 143.53 448.62 143.10 449.63 142.89 450.14 C 141.20 448.05 136.88 446.72 135.86 450.10 C 133.97 454.07 139.95 457.43 142.56 454.02 C 140.47 453.87 137.85 454.28 136.83 451.90 C 138.81 451.96 140.99 451.15 142.86 452.14 C 143.39 453.35 143.78 454.63 144.02 455.95 C 146.07 453.85 144.52 450.43 146.59 448.26 C 148.50 449.38 148.79 451.45 148.85 453.48 C 148.65 455.33 151.12 455.95 152.37 454.95 C 149.11 453.95 149.52 449.08 152.33 447.83 C 151.90 447.82 151.02 447.81 150.59 447.81 C 150.37 444.28 147.31 447.73 145.64 448.29 M 171.05 447.92 C 169.66 448.30 169.61 449.78 169.33 450.93 C 170.90 451.76 172.69 452.45 173.51 454.18 C 171.93 454.05 170.36 453.89 168.78 453.74 C 169.82 455.70 172.04 455.65 173.81 454.75 C 174.56 455.13 175.32 455.52 176.07 455.92 C 176.75 455.47 177.44 455.03 178.12 454.59 C 179.18 455.40 180.25 455.30 181.34 454.29 C 181.77 454.60 182.64 455.23 183.07 455.54 C 183.48 455.30 184.31 454.83 184.72 454.60 C 184.71 454.03 184.70 452.91 184.70 452.35 C 181.97 452.58 178.93 451.86 176.64 453.75 C 175.28 454.50 174.60 452.74 173.85 452.02 C 172.60 451.15 171.31 450.30 170.58 448.92 C 172.07 449.00 173.56 449.16 175.05 449.25 C 173.89 448.46 172.54 447.24 171.05 447.92 M 158.44 450.00 C 158.64 452.40 157.70 454.66 154.95 453.68 C 154.49 452.05 153.95 450.44 153.01 449.02 C 152.98 450.01 152.94 451.97 152.91 452.95 C 153.87 456.61 160.26 455.95 159.92 451.98 C 160.70 448.59 156.75 447.02 154.01 448.00 C 155.41 448.82 156.93 449.41 158.44 450.00 M 161.26 448.17 C 161.33 450.65 161.36 453.14 161.43 455.62 C 161.80 455.51 162.54 455.29 162.91 455.18 C 162.88 453.31 162.86 451.43 162.84 449.57 C 163.67 449.50 165.35 449.38 166.19 449.32 C 166.29 451.57 166.38 453.84 166.65 456.10 C 168.63 454.23 168.04 451.12 167.31 448.81 C 165.63 447.35 163.25 448.35 161.26 448.17 M 106.96 456.39 C 109.79 456.46 112.62 456.43 115.45 456.35 C 114.60 456.02 112.91 455.36 112.06 455.03 C 111.50 453.56 110.95 452.10 110.40 450.64 C 109.31 452.59 108.22 454.54 106.96 456.39 M 185.59 452.29 L 185.42 453.70 C 186.08 453.54 187.39 453.23 188.05 453.07 C 188.17 453.65 188.42 454.80 188.55 455.37 C 188.63 454.78 188.78 453.60 188.86 453.01 L 189.62 453.02 C 189.78 453.64 190.09 454.88 190.24 455.50 C 190.48 454.43 190.72 453.36 190.95 452.30 C 189.16 452.30 187.37 452.29 185.59 452.29 Z" />
<path fill="#02ae43" opacity="1.00" d=" M 179.36 187.96 C 179.21 183.63 183.41 181.12 185.75 178.00 C 185.91 185.89 185.47 193.85 186.21 201.71 C 196.84 208.07 207.98 213.69 218.02 221.04 C 224.63 225.88 232.26 230.87 234.83 239.11 C 247.39 271.68 250.93 307.68 244.77 342.04 C 243.70 349.00 242.00 355.86 241.31 362.87 C 239.99 377.89 238.59 392.90 237.17 407.91 C 236.29 418.55 234.62 429.23 235.72 439.92 C 236.02 445.55 235.92 452.32 231.48 456.44 C 222.07 461.23 211.15 461.58 200.80 461.19 C 200.47 454.96 200.46 448.69 201.27 442.49 C 203.23 428.72 199.88 414.97 196.39 401.73 C 193.59 387.29 192.55 372.58 190.84 357.98 C 189.44 344.34 188.29 330.67 187.53 316.98 C 186.81 304.68 187.68 292.33 186.17 280.07 C 183.63 256.19 180.22 232.39 176.27 208.70 C 176.79 208.33 177.82 207.60 178.33 207.23 C 178.63 200.80 179.02 194.38 179.36 187.96 Z" />
<path fill="#02ae43" opacity="1.00" d=" M 164.33 438.44 C 165.65 438.71 165.90 439.46 165.05 440.69 C 163.74 440.45 163.50 439.70 164.33 438.44 Z" />
<path fill="#02ae43" opacity="1.00" d=" M 142.25 439.85 C 145.22 438.25 142.42 443.23 142.25 439.85 Z" />
<path fill="#02ae43" opacity="1.00" d=" M 122.32 448.50 C 123.82 447.34 125.18 450.02 123.84 450.97 C 122.29 452.19 120.85 449.44 122.32 448.50 Z" />
<path fill="#02ae43" opacity="1.00" d=" M 137.67 450.05 C 138.58 448.67 139.50 448.66 140.43 450.02 C 139.52 451.35 138.60 451.36 137.67 450.05 Z" />
<path fill="#02ae43" opacity="1.00" d=" M 178.99 453.29 C 182.07 451.59 179.25 456.54 178.99 453.29 Z" />
<path fill="#02ae43" opacity="1.00" d=" M 182.39 453.33 C 185.44 451.88 182.45 456.69 182.39 453.33 Z" />
</g>
<g id="#f25280ff">
<path fill="#f25280" opacity="1.00" d=" M 124.62 15.80 C 134.04 9.83 145.20 7.32 156.11 5.64 C 158.15 7.78 160.25 10.06 160.93 13.03 C 163.54 22.29 163.02 32.05 162.28 41.54 C 154.92 43.79 147.62 46.64 141.42 51.30 C 137.15 54.61 131.83 55.86 126.94 57.93 C 118.23 62.00 110.44 67.88 103.67 74.67 C 102.70 58.59 104.82 41.59 113.77 27.83 C 116.69 23.25 120.43 19.25 124.62 15.80 Z" />
<path fill="#f25280" opacity="1.00" d=" M 190.56 10.18 C 203.87 14.19 215.70 23.54 222.03 36.01 C 224.27 40.32 225.86 44.95 227.02 49.66 C 223.10 46.58 218.61 44.34 213.96 42.56 C 210.44 29.44 202.76 16.82 190.56 10.18 Z" />
<path fill="#f25280" opacity="1.00" d=" M 145.33 50.94 C 163.39 40.26 185.72 37.71 206.01 42.47 C 212.97 44.20 219.97 46.75 225.51 51.44 C 233.95 58.90 236.03 73.36 228.42 82.09 C 228.32 74.44 223.74 67.75 218.04 63.02 C 205.09 52.05 187.68 47.64 170.97 47.98 C 162.32 47.80 153.80 49.45 145.33 50.94 Z" />
<path fill="#f25280" opacity="1.00" d=" M 40.45 227.40 C 43.81 225.32 47.16 223.02 51.01 221.93 C 53.01 221.26 54.87 222.54 56.56 223.41 C 65.24 228.50 73.31 234.55 81.21 240.75 C 88.27 246.64 95.59 252.45 101.16 259.85 C 102.36 261.63 104.00 263.67 103.30 265.96 C 102.25 270.57 101.14 275.21 101.05 279.97 C 101.01 286.91 100.48 294.00 102.38 300.78 C 104.17 309.09 101.90 317.56 100.86 325.83 C 99.61 332.22 99.44 338.79 98.03 345.14 C 95.86 352.08 87.62 354.23 84.69 360.54 C 83.65 368.22 91.42 374.24 90.04 381.99 C 89.09 388.04 84.98 392.79 81.25 397.37 C 78.83 400.15 79.86 404.36 82.15 406.89 C 87.03 412.85 92.54 419.11 93.33 427.12 C 95.74 440.42 91.47 453.67 91.65 466.95 C 91.51 472.36 97.17 475.61 97.13 480.97 C 97.56 486.69 96.97 492.53 98.43 498.15 C 101.38 509.36 102.85 520.87 104.42 532.33 C 91.61 531.61 79.50 536.77 67.86 541.46 C 67.72 536.01 68.46 530.50 67.45 525.11 C 66.06 519.76 62.37 515.37 58.59 511.48 C 55.37 508.03 50.92 505.60 48.84 501.18 C 44.97 493.58 42.55 485.26 38.00 478.00 C 34.99 472.89 29.79 469.40 27.37 463.91 C 22.10 452.34 21.89 439.38 19.38 427.10 C 18.00 420.24 14.86 413.95 12.34 407.48 C 10.87 404.18 11.72 400.53 11.67 397.06 C 11.60 391.68 10.83 386.31 11.15 380.92 C 11.60 373.82 10.09 366.81 8.64 359.91 C 7.64 354.92 5.31 350.15 5.48 344.97 C 5.71 333.56 7.57 322.26 8.56 310.91 C 8.78 293.23 8.46 275.29 12.80 258.01 C 13.67 253.24 16.68 249.26 19.66 245.58 C 25.44 238.33 32.77 232.51 40.45 227.40 Z" />
<path fill="#f25280" opacity="1.00" d=" M 249.18 286.12 C 247.83 272.32 244.07 258.93 240.28 245.65 C 246.80 260.23 249.55 276.23 251.05 292.05 C 253.18 309.68 258.94 326.58 262.07 344.03 C 265.37 359.45 266.65 375.32 265.54 391.07 C 264.25 409.39 264.40 427.80 265.78 446.12 C 266.26 448.66 264.63 450.78 263.83 453.05 C 263.69 455.37 266.17 456.38 267.60 457.74 C 266.88 459.78 265.81 461.80 265.76 464.02 C 266.24 466.33 267.48 468.52 267.25 470.96 C 267.04 478.32 266.77 485.69 267.23 493.05 C 268.18 501.39 270.99 509.34 272.82 517.50 C 264.37 516.07 254.45 514.51 247.48 520.81 C 245.60 515.31 242.93 509.95 242.50 504.08 C 242.10 498.96 239.85 494.22 239.40 489.12 C 238.77 484.76 240.00 480.38 239.37 476.02 C 238.66 469.98 237.54 464.01 236.36 458.05 C 235.85 455.96 237.24 454.07 237.69 452.09 C 239.22 447.55 238.64 442.72 238.26 438.06 C 237.16 426.29 239.41 414.60 240.14 402.88 C 242.10 385.08 242.50 367.05 246.32 349.51 C 250.53 328.70 251.81 307.22 249.18 286.12 Z" />
</g>
</svg>
