<?xml version="1.0" encoding="UTF-8" ?>
<!DOCTYPE svg PUBLIC "-//W3C//DTD SVG 1.1//EN" "http://www.w3.org/Graphics/SVG/1.1/DTD/svg11.dtd">
<svg width="279pt" height="547pt" viewBox="0 0 279 547" version="1.1" xmlns="http://www.w3.org/2000/svg">
<g id="#ffffffff">
<path fill="#ffffff" opacity="1.00" d=" M 0.00 0.00 L 279.00 0.00 L 279.00 547.00 L 0.00 547.00 L 0.00 0.00 M 123.95 13.75 C 110.90 21.01 101.03 33.56 96.79 47.86 C 90.66 66.72 92.30 87.09 96.87 106.10 C 100.30 108.71 100.87 113.71 104.74 116.03 C 103.41 120.63 101.82 125.22 99.32 129.33 C 97.68 132.13 93.81 133.33 93.34 136.83 C 92.44 141.78 93.04 147.13 95.65 151.49 C 96.62 153.10 97.19 155.23 96.02 156.90 C 94.03 159.65 91.61 162.10 90.04 165.14 C 85.78 171.84 88.94 180.16 91.59 186.87 C 79.53 188.09 67.61 191.59 57.30 198.07 C 42.97 206.73 31.45 219.37 22.26 233.23 C 16.98 241.93 11.16 250.73 9.42 260.94 C 6.31 276.72 6.21 292.90 6.23 308.93 C 5.26 321.29 2.95 333.55 2.99 345.97 C 2.83 349.80 4.34 353.36 5.35 356.97 C 7.23 364.51 9.07 372.20 8.69 380.03 C 8.35 385.71 9.09 391.38 8.90 397.06 C 8.93 400.53 8.52 404.12 9.69 407.47 C 12.28 414.82 16.00 421.85 17.13 429.64 C 18.45 439.09 19.53 448.62 22.17 457.82 C 23.71 463.04 26.08 468.12 29.99 472.00 C 36.24 478.06 39.23 486.41 42.79 494.14 C 45.10 499.05 46.98 504.49 51.36 508.02 C 56.54 512.30 61.54 517.19 64.38 523.39 C 66.72 529.33 64.76 535.77 65.53 541.93 C 65.66 543.01 66.55 544.55 67.88 544.09 C 80.39 539.39 93.35 533.12 107.08 535.00 C 106.31 525.92 104.72 516.92 103.20 507.93 C 102.17 501.26 99.69 494.81 99.78 487.99 C 99.62 482.96 100.23 477.31 96.85 473.12 C 94.76 470.39 93.58 466.98 94.12 463.52 C 99.09 463.39 104.04 462.63 109.03 462.96 C 116.39 462.83 123.68 464.14 131.04 463.93 C 149.02 463.75 167.01 464.43 184.99 463.98 C 195.98 463.61 207.02 464.74 217.96 463.32 C 223.53 462.19 229.62 461.41 234.12 457.61 C 235.62 465.28 237.12 473.01 237.30 480.84 C 236.31 487.67 237.97 494.46 239.73 501.02 C 240.01 508.30 242.50 515.20 245.28 521.86 C 245.64 523.20 246.70 524.08 247.91 524.69 C 250.72 521.52 254.66 519.35 258.92 519.13 C 263.98 518.46 268.89 520.47 273.92 520.28 C 276.08 519.96 275.51 517.40 275.11 515.97 C 273.54 509.94 271.56 504.01 270.48 497.86 C 268.85 490.69 269.65 483.29 269.62 476.01 C 269.48 472.65 270.58 469.06 268.99 465.91 C 266.97 462.64 271.65 459.50 269.77 456.24 C 269.01 454.89 267.48 454.22 266.34 453.26 C 267.33 451.29 268.96 449.36 268.60 447.01 C 267.66 435.36 267.22 423.67 267.39 411.98 C 267.36 396.31 269.72 380.65 267.99 365.01 C 266.20 344.28 260.31 324.25 255.89 304.00 C 253.67 293.84 253.57 283.37 251.48 273.18 C 249.22 261.74 246.26 250.28 240.94 239.84 C 239.00 236.52 237.07 232.65 233.32 231.11 C 230.32 227.90 227.08 224.92 223.53 222.35 C 212.51 214.24 200.74 207.22 188.64 200.85 C 188.49 192.59 188.53 184.33 188.36 176.07 C 188.56 174.90 187.50 172.68 186.20 174.20 C 183.20 177.52 180.14 180.86 177.47 184.46 C 176.64 191.55 176.79 198.75 176.03 205.85 C 175.49 205.96 174.43 206.18 173.89 206.28 C 173.43 198.88 173.20 191.46 172.65 184.06 C 172.71 182.69 171.28 182.24 170.36 181.61 C 154.09 172.35 137.90 162.97 121.64 153.70 C 119.58 152.22 117.05 153.67 115.40 155.09 C 110.82 159.18 109.23 165.38 107.56 171.06 C 106.39 174.72 106.62 179.00 103.86 181.99 C 101.65 179.15 100.98 175.53 100.63 172.04 C 100.04 165.68 100.27 159.27 99.80 152.90 C 99.44 147.63 98.16 142.42 98.56 137.11 C 103.94 138.78 107.18 144.26 112.69 145.70 C 109.94 134.03 113.23 122.00 117.27 111.04 C 119.06 105.71 123.41 101.59 124.58 96.02 C 126.18 88.71 125.86 81.11 125.06 73.72 C 130.38 71.19 136.13 69.73 141.84 68.37 C 154.37 65.52 167.36 64.12 180.17 65.53 C 189.78 66.60 199.60 69.69 206.84 76.34 C 208.58 79.54 208.78 83.33 208.67 86.91 C 208.00 104.92 207.30 122.94 206.18 140.93 C 206.04 142.17 206.08 143.48 205.59 144.65 C 202.04 149.11 196.61 151.98 193.81 157.01 C 194.69 160.70 198.33 166.65 202.70 163.59 C 207.06 160.86 211.57 157.51 213.54 152.58 C 213.98 149.45 211.84 146.60 211.70 143.48 C 210.30 130.10 211.80 116.65 213.23 103.34 C 218.33 99.16 223.47 94.74 226.94 89.06 C 229.85 84.63 234.60 81.10 235.45 75.59 C 237.25 67.60 235.41 59.17 230.62 52.58 C 227.91 39.42 221.26 26.76 210.53 18.41 C 196.19 6.80 177.05 3.11 159.00 3.52 C 146.80 4.45 134.62 7.66 123.95 13.75 Z" />
<path fill="#ffffff" opacity="1.00" d=" M 102.11 84.19 C 105.20 82.65 108.70 81.16 112.21 82.11 C 115.98 83.18 117.56 88.22 115.47 91.42 C 111.56 99.19 108.04 107.17 104.48 115.06 C 102.20 108.85 99.71 102.60 99.14 95.95 C 99.29 91.88 100.43 87.89 102.11 84.19 Z" />
<path fill="#ffffff" opacity="1.00" d=" M 157.73 449.59 C 156.44 449.19 155.18 448.72 154.03 448.02 C 158.49 445.63 162.12 451.82 158.70 454.64 C 155.31 457.40 150.93 452.66 153.02 449.06 C 154.40 450.49 154.00 453.33 156.12 453.96 C 158.57 454.22 158.93 451.09 157.73 449.59 Z" />
<path fill="#ffffff" opacity="1.00" d=" M 138.51 449.05 C 139.53 447.60 141.42 449.65 140.44 450.83 C 139.41 452.33 137.52 450.23 138.51 449.05 Z" />
</g>
<g id="#000000ff">
<path fill="#000000" opacity="1.00" d=" M 123.95 13.75 C 134.62 7.66 146.80 4.45 159.00 3.52 C 177.05 3.11 196.19 6.80 210.53 18.41 C 221.26 26.76 227.91 39.42 230.62 52.58 C 235.41 59.17 237.25 67.60 235.45 75.59 C 234.60 81.10 229.85 84.63 226.94 89.06 C 223.47 94.74 218.33 99.16 213.23 103.34 C 211.80 116.65 210.30 130.10 211.70 143.48 C 211.84 146.60 213.98 149.45 213.54 152.58 C 211.57 157.51 207.06 160.86 202.70 163.59 C 198.33 166.65 194.69 160.70 193.81 157.01 C 196.61 151.98 202.04 149.11 205.59 144.65 C 206.08 143.48 206.04 142.17 206.18 140.93 C 207.30 122.94 208.00 104.92 208.67 86.91 C 208.78 83.33 208.58 79.54 206.84 76.34 C 199.60 69.69 189.78 66.60 180.17 65.53 C 167.36 64.12 154.37 65.52 141.84 68.37 C 136.13 69.73 130.38 71.19 125.06 73.72 C 125.86 81.11 126.18 88.71 124.58 96.02 C 123.41 101.59 119.06 105.71 117.27 111.04 C 113.23 122.00 109.94 134.03 112.69 145.70 C 107.18 144.26 103.94 138.78 98.56 137.11 C 98.16 142.42 99.44 147.63 99.80 152.90 C 100.27 159.27 100.04 165.68 100.63 172.04 C 100.98 175.53 101.65 179.15 103.86 181.99 C 106.62 179.00 106.39 174.72 107.56 171.06 C 109.23 165.38 110.82 159.18 115.40 155.09 C 117.05 153.67 119.58 152.22 121.64 153.70 C 137.90 162.97 154.09 172.35 170.36 181.61 C 171.28 182.24 172.71 182.69 172.65 184.06 C 173.20 191.46 173.43 198.88 173.89 206.28 C 174.43 206.18 175.49 205.96 176.03 205.85 C 176.79 198.75 176.64 191.55 177.47 184.46 C 180.14 180.86 183.20 177.52 186.20 174.20 C 187.50 172.68 188.56 174.90 188.36 176.07 C 188.53 184.33 188.49 192.59 188.64 200.85 C 200.74 207.22 212.51 214.24 223.53 222.35 C 227.08 224.92 230.32 227.90 233.32 231.11 C 237.07 232.65 239.00 236.52 240.94 239.84 C 246.26 250.28 249.22 261.74 251.48 273.18 C 253.57 283.37 253.67 293.84 255.89 304.00 C 260.31 324.25 266.20 344.28 267.99 365.01 C 269.72 380.65 267.36 396.31 267.39 411.98 C 267.22 423.67 267.66 435.36 268.60 447.01 C 268.96 449.36 267.33 451.29 266.34 453.26 C 267.48 454.22 269.01 454.89 269.77 456.24 C 271.65 459.50 266.97 462.64 268.99 465.91 C 270.58 469.06 269.48 472.65 269.62 476.01 C 269.65 483.29 268.85 490.69 270.48 497.86 C 271.56 504.01 273.54 509.94 275.11 515.97 C 275.51 517.40 276.08 519.96 273.92 520.28 C 268.89 520.47 263.98 518.46 258.92 519.13 C 254.66 519.35 250.72 521.52 247.91 524.69 C 246.70 524.08 245.64 523.20 245.28 521.86 C 242.50 515.20 240.01 508.30 239.73 501.02 C 237.97 494.46 236.31 487.67 237.30 480.84 C 237.12 473.01 235.62 465.28 234.12 457.61 C 229.62 461.41 223.53 462.19 217.96 463.32 C 207.02 464.74 195.98 463.61 184.99 463.98 C 167.01 464.43 149.02 463.75 131.04 463.93 C 123.68 464.14 116.39 462.83 109.03 462.96 C 104.04 462.63 99.09 463.39 94.12 463.52 C 93.58 466.98 94.76 470.39 96.85 473.12 C 100.23 477.31 99.62 482.96 99.78 487.99 C 99.69 494.81 102.17 501.26 103.20 507.93 C 104.72 516.92 106.31 525.92 107.08 535.00 C 93.35 533.12 80.39 539.39 67.88 544.09 C 66.55 544.55 65.66 543.01 65.53 541.93 C 64.76 535.77 66.72 529.33 64.38 523.39 C 61.54 517.19 56.54 512.30 51.36 508.02 C 46.98 504.49 45.10 499.05 42.79 494.14 C 39.23 486.41 36.24 478.06 29.99 472.00 C 26.08 468.12 23.71 463.04 22.17 457.82 C 19.53 448.62 18.45 439.09 17.13 429.64 C 16.00 421.85 12.28 414.82 9.69 407.47 C 8.52 404.12 8.93 400.53 8.90 397.06 C 9.09 391.38 8.35 385.71 8.69 380.03 C 9.07 372.20 7.23 364.51 5.35 356.97 C 4.34 353.36 2.83 349.80 2.99 345.97 C 2.95 333.55 5.26 321.29 6.23 308.93 C 6.21 292.90 6.31 276.72 9.42 260.94 C 11.16 250.73 16.98 241.93 22.26 233.23 C 31.45 219.37 42.97 206.73 57.30 198.07 C 67.61 191.59 79.53 188.09 91.59 186.87 C 88.94 180.16 85.78 171.84 90.04 165.14 C 91.61 162.10 94.03 159.65 96.02 156.90 C 97.19 155.23 96.62 153.10 95.65 151.49 C 93.04 147.13 92.44 141.78 93.34 136.83 C 93.81 133.33 97.68 132.13 99.32 129.33 C 101.82 125.22 103.41 120.63 104.74 116.03 C 100.87 113.71 100.30 108.71 96.87 106.10 C 92.30 87.09 90.66 66.72 96.79 47.86 C 101.03 33.56 110.90 21.01 123.95 13.75 M 130.55 12.42 L 130.26 12.89 C 110.37 20.79 97.49 41.41 95.98 62.33 L 95.63 62.61 C 95.25 66.74 95.01 70.88 94.93 75.02 C 94.98 79.66 95.40 84.28 95.62 88.90 C 97.13 84.56 99.05 80.36 101.93 76.74 C 103.68 74.87 105.53 73.04 106.79 70.77 C 109.30 68.93 111.83 67.12 114.41 65.39 C 116.63 63.73 118.95 62.21 121.34 60.82 C 125.38 58.48 129.70 56.73 134.10 55.23 C 139.28 53.52 143.21 49.59 148.00 47.14 C 153.00 44.54 158.34 42.63 163.81 41.26 C 165.62 40.79 167.41 40.25 169.21 39.77 C 170.41 39.78 171.61 39.77 172.82 39.76 L 172.17 39.19 C 172.85 39.13 174.23 39.00 174.92 38.93 C 183.60 37.91 192.46 37.68 201.07 39.47 C 202.21 39.58 203.35 39.76 204.50 39.68 C 212.25 42.22 220.55 44.17 226.87 49.69 C 225.78 43.05 222.69 36.94 219.33 31.19 C 216.55 27.30 213.12 23.95 209.84 20.49 C 200.87 13.36 190.02 8.99 178.79 6.94 C 171.47 5.69 163.97 4.92 156.54 5.62 C 147.63 6.71 138.87 9.03 130.55 12.42 M 150.19 48.23 C 149.19 48.76 148.29 49.44 147.49 50.27 C 152.12 49.93 156.66 48.90 161.28 48.44 C 179.18 46.72 198.33 49.12 213.44 59.54 C 221.04 64.60 228.20 72.23 228.40 81.90 C 234.49 75.48 234.24 65.05 230.30 57.56 C 226.32 49.94 218.07 46.09 210.24 43.63 C 190.57 37.76 168.72 39.32 150.19 48.23 M 102.11 84.19 C 100.43 87.89 99.29 91.88 99.14 95.95 C 99.71 102.60 102.20 108.85 104.48 115.06 C 108.04 107.17 111.56 99.19 115.47 91.42 C 117.56 88.22 115.98 83.18 112.21 82.11 C 108.70 81.16 105.20 82.65 102.11 84.19 M 116.89 156.94 C 113.50 159.88 111.94 164.25 110.49 168.37 C 108.67 173.36 108.79 179.12 105.31 183.42 C 109.66 189.01 114.67 194.13 118.31 200.25 L 118.68 200.28 C 121.31 203.55 120.27 208.16 122.82 211.40 C 127.09 212.20 131.67 211.39 135.72 213.16 C 135.78 213.59 135.90 214.45 135.96 214.89 C 132.90 217.72 128.67 218.53 124.80 219.61 C 123.23 219.55 121.65 219.60 120.11 219.26 C 115.37 216.20 117.49 208.41 112.34 205.73 C 106.97 202.63 101.65 199.23 97.48 194.58 C 95.40 192.58 94.13 189.86 91.79 188.12 L 91.92 188.68 C 84.65 190.59 77.06 191.25 70.06 194.16 C 52.84 201.12 38.34 213.84 27.69 228.92 C 27.49 229.48 27.08 230.60 26.88 231.17 C 24.55 232.90 23.48 235.80 21.83 238.12 C 28.82 231.75 36.56 226.21 44.68 221.37 C 46.11 221.21 47.35 220.44 48.62 219.85 L 49.10 219.28 C 52.28 218.33 55.47 219.19 58.46 220.34 L 58.46 220.85 C 73.44 229.88 87.33 240.77 99.81 253.02 C 102.75 256.78 107.38 260.56 106.72 265.83 C 104.51 273.68 104.04 281.93 104.19 290.05 C 104.21 295.39 106.05 300.47 106.37 305.78 C 106.21 309.79 105.97 313.81 105.49 317.80 C 104.58 324.21 103.49 330.60 102.51 337.00 C 101.86 340.76 102.47 344.94 100.23 348.26 C 98.22 351.83 94.99 354.46 91.86 357.01 C 90.22 358.38 87.58 359.54 87.73 362.06 C 88.52 368.36 93.60 373.48 93.16 380.05 C 93.25 383.03 91.57 385.68 91.24 388.57 C 88.81 391.99 86.19 395.27 83.58 398.56 C 81.10 402.11 85.34 405.37 87.37 407.90 C 91.51 413.20 95.30 419.18 96.06 426.06 L 96.23 426.06 C 96.34 428.19 96.51 430.33 96.76 432.46 C 97.07 442.01 95.53 451.44 94.48 460.90 C 96.86 460.67 99.26 460.60 101.65 460.59 C 102.00 459.74 102.35 458.90 102.72 458.07 C 102.78 458.68 102.89 459.90 102.95 460.51 C 107.29 459.92 111.66 460.41 116.02 460.36 C 121.16 460.71 126.31 461.45 131.47 461.08 C 135.70 461.49 139.97 461.14 144.22 461.26 C 161.57 461.41 178.93 461.69 196.28 460.98 C 197.79 461.96 199.36 459.31 198.11 458.22 C 198.66 452.51 198.06 446.65 199.26 440.95 C 199.32 440.24 199.43 438.82 199.49 438.11 C 199.72 433.03 199.43 427.93 198.74 422.89 C 197.54 412.23 193.43 402.19 192.22 391.53 C 190.54 379.28 189.57 366.89 187.81 354.69 C 187.87 349.41 186.95 344.19 186.55 338.93 C 185.59 326.29 184.63 313.62 184.65 300.93 C 184.83 293.01 184.29 285.09 183.34 277.23 C 181.74 260.43 179.46 243.67 176.64 227.04 C 175.99 221.03 174.93 215.07 173.83 209.13 C 173.01 208.69 172.20 208.24 171.39 207.80 C 171.15 200.55 170.61 193.31 170.42 186.06 C 170.67 184.46 169.08 183.73 167.95 183.03 C 152.23 174.11 136.62 164.97 120.89 156.06 C 119.60 155.06 117.97 156.13 116.89 156.94 M 179.59 185.39 C 178.99 192.21 178.78 199.07 178.41 205.91 C 178.45 207.26 177.16 208.02 176.47 209.01 C 177.29 214.78 178.12 220.57 179.16 226.31 L 180.55 226.71 C 180.54 229.19 180.02 231.67 180.30 234.15 C 182.20 247.47 184.20 260.79 185.50 274.19 C 188.09 291.37 186.46 308.79 188.12 326.04 C 188.51 329.53 188.09 333.17 189.18 336.56 C 189.66 350.79 191.71 364.91 193.15 379.06 C 193.80 383.70 194.00 388.42 195.23 392.96 C 195.01 396.73 196.12 400.37 196.95 404.00 C 199.63 413.81 201.69 423.86 201.87 434.06 C 201.93 440.55 200.04 446.99 200.92 453.49 C 200.67 454.90 200.57 456.32 200.62 457.77 C 200.75 458.99 200.79 460.26 201.42 461.37 C 208.18 461.11 215.00 461.20 221.64 459.67 L 221.93 459.72 C 226.07 458.43 231.59 458.12 233.68 453.68 C 236.16 448.85 236.05 443.23 235.59 437.96 C 234.60 427.43 236.80 416.95 237.07 406.45 C 238.22 398.32 238.42 390.03 239.54 381.87 C 240.51 371.02 241.17 360.12 243.28 349.41 L 243.45 349.98 C 244.56 344.84 245.14 339.60 246.01 334.41 C 247.12 325.60 247.73 316.75 247.76 307.87 C 247.31 307.73 246.40 307.43 245.94 307.29 L 247.46 307.29 C 248.08 297.52 246.56 287.77 245.39 278.08 C 243.36 267.51 241.42 256.76 237.27 246.79 C 237.15 246.35 236.93 245.47 236.82 245.03 C 235.13 240.14 233.91 234.72 230.07 230.99 C 224.73 225.47 218.31 221.16 211.93 216.93 C 204.66 212.08 196.99 207.73 189.20 203.73 C 188.18 203.19 187.18 202.63 186.16 202.09 C 185.62 194.10 185.83 186.08 185.71 178.08 C 183.62 180.46 181.15 182.60 179.59 185.39 M 44.08 225.15 C 32.01 232.58 20.21 241.87 13.70 254.76 C 8.97 271.04 8.73 288.18 8.64 305.01 C 8.91 313.76 7.03 322.38 6.42 331.08 C 5.98 337.73 4.61 344.55 6.24 351.14 C 8.95 360.08 10.99 369.33 11.31 378.69 C 11.13 382.95 10.89 387.27 11.59 391.49 C 11.88 395.96 11.33 400.45 11.57 404.91 C 13.68 412.05 17.51 418.59 19.14 425.91 C 21.70 437.94 21.95 450.56 26.57 462.10 C 29.29 469.75 36.92 474.10 39.99 481.57 L 40.31 481.55 C 41.13 483.63 42.03 485.69 42.94 487.74 L 43.27 487.87 C 46.05 495.09 48.27 503.38 54.92 508.09 C 60.08 512.62 65.14 517.86 67.32 524.54 C 68.57 530.09 67.65 535.82 67.87 541.46 C 79.50 536.78 91.62 531.57 104.43 532.36 C 102.84 520.89 101.40 509.34 98.42 498.12 C 96.88 492.19 97.67 486.03 97.03 480.01 C 96.76 475.75 92.64 473.10 91.93 468.98 C 90.75 461.97 92.79 454.99 93.24 448.01 C 94.28 437.70 95.28 426.29 89.75 417.02 C 87.12 412.24 82.73 408.69 80.26 403.84 C 78.05 398.27 84.07 394.93 86.32 390.67 L 86.54 390.56 C 89.21 386.20 91.48 380.73 89.41 375.67 C 87.43 371.03 85.07 366.52 84.15 361.52 C 85.10 359.29 86.62 357.44 88.21 355.64 C 92.97 352.52 98.14 348.29 98.67 342.19 C 99.76 330.74 102.32 319.48 103.07 308.00 C 103.54 303.23 101.51 298.77 101.16 294.08 C 100.67 284.31 100.79 274.40 103.54 264.93 C 102.00 258.91 96.70 254.77 92.53 250.46 C 81.01 240.09 68.69 230.47 55.25 222.70 C 51.49 220.29 47.41 223.39 44.08 225.15 M 239.06 243.37 C 237.60 246.41 242.36 243.46 239.06 243.37 M 240.11 245.88 C 250.43 276.32 253.26 309.30 247.85 341.01 C 245.98 352.06 243.26 363.01 242.85 374.26 C 242.50 377.65 241.99 381.02 241.90 384.43 C 240.49 398.26 239.39 412.11 238.06 425.94 C 237.30 434.44 239.53 442.92 238.22 451.39 C 237.44 453.12 236.50 454.85 236.22 456.75 C 237.47 464.45 239.42 472.12 239.62 479.97 C 238.90 485.35 239.32 490.81 240.77 496.05 C 241.50 498.36 242.20 500.69 242.41 503.13 C 242.67 509.37 245.44 515.10 247.58 520.86 C 254.40 514.40 264.42 516.12 272.81 517.51 C 270.70 507.72 266.88 498.14 267.03 487.99 C 266.96 482.31 266.99 476.63 267.27 470.96 C 267.63 468.50 266.22 466.34 265.70 464.03 C 265.82 461.80 266.85 459.77 267.69 457.76 C 266.11 456.47 263.75 455.37 263.75 453.00 C 264.65 450.77 266.39 448.70 265.79 446.13 C 264.26 426.78 264.37 407.34 265.69 387.98 C 266.99 368.45 263.54 349.03 259.12 330.08 C 255.73 316.17 251.95 302.28 250.60 287.98 C 249.47 274.95 246.48 262.14 242.20 249.80 C 241.72 248.38 241.11 247.00 240.11 245.88 Z" />
</g>
<g id="#61361dff">
<path fill="#61361d" opacity="1.00" d=" M 130.55 12.42 C 138.87 9.03 147.63 6.71 156.54 5.62 C 159.42 7.14 162.11 8.97 164.84 10.73 C 164.07 14.28 163.34 17.84 162.77 21.43 C 165.55 19.13 168.25 16.73 170.93 14.32 C 174.11 16.08 177.30 17.82 180.54 19.46 C 179.32 16.15 177.95 12.90 176.41 9.73 C 177.20 8.80 178.00 7.87 178.79 6.94 C 190.02 8.99 200.87 13.36 209.84 20.49 C 208.97 22.09 208.11 23.70 207.24 25.30 C 203.58 25.00 199.92 24.69 196.26 24.36 C 198.91 26.94 201.52 29.54 204.22 32.06 C 203.24 34.56 202.18 37.03 201.07 39.47 C 192.46 37.68 183.60 37.91 174.92 38.93 C 175.66 38.84 177.15 38.66 177.89 38.57 C 177.19 35.60 176.40 32.65 175.50 29.74 C 174.09 32.68 172.73 35.66 171.64 38.74 L 172.17 39.19 L 172.82 39.76 C 171.61 39.77 170.41 39.78 169.21 39.77 C 166.08 39.73 162.94 39.58 159.81 39.71 C 161.08 40.37 162.38 40.99 163.81 41.26 C 158.34 42.63 153.00 44.54 148.00 47.14 C 143.21 49.59 139.28 53.52 134.10 55.23 C 129.70 56.73 125.38 58.48 121.34 60.82 C 116.84 59.19 111.87 56.61 110.62 51.56 C 108.93 44.06 113.46 37.30 116.48 30.82 C 118.12 32.33 119.84 33.75 121.56 35.17 C 120.23 38.61 118.77 42.01 117.41 45.44 C 120.64 43.90 123.82 42.25 126.99 40.58 C 129.73 42.96 132.45 45.36 135.24 47.69 C 134.69 44.08 134.04 40.48 133.37 36.89 C 136.56 35.08 139.77 33.29 142.98 31.51 C 139.30 30.97 135.61 30.48 131.92 30.04 C 131.14 26.44 130.40 22.84 129.61 19.25 C 127.75 22.37 126.12 25.61 124.70 28.95 C 123.48 28.88 122.25 28.79 121.03 28.69 C 120.52 28.50 119.48 28.13 118.97 27.95 C 122.00 22.38 126.90 18.21 130.26 12.89 L 130.55 12.42 Z" />
<path fill="#61361d" opacity="1.00" d=" M 219.33 31.19 C 222.69 36.94 225.78 43.05 226.87 49.69 C 220.55 44.17 212.25 42.22 204.50 39.68 C 206.28 38.80 208.01 37.82 209.75 36.86 C 212.32 39.33 214.97 41.71 217.71 43.97 C 217.12 40.37 216.50 36.78 215.94 33.18 C 217.07 32.51 218.20 31.85 219.33 31.19 Z" />
<path fill="#61361d" opacity="1.00" d=" M 150.19 48.23 C 168.72 39.32 190.57 37.76 210.24 43.63 C 218.07 46.09 226.32 49.94 230.30 57.56 C 234.24 65.05 234.49 75.48 228.40 81.90 C 228.20 72.23 221.04 64.60 213.44 59.54 C 198.33 49.12 179.18 46.72 161.28 48.44 C 156.66 48.90 152.12 49.93 147.49 50.27 C 148.29 49.44 149.19 48.76 150.19 48.23 Z" />
<path fill="#61361d" opacity="1.00" d=" M 116.89 156.94 C 117.97 156.13 119.60 155.06 120.89 156.06 C 136.62 164.97 152.23 174.11 167.95 183.03 C 169.08 183.73 170.67 184.46 170.42 186.06 C 170.61 193.31 171.15 200.55 171.39 207.80 C 172.20 208.24 173.01 208.69 173.83 209.13 C 174.93 215.07 175.99 221.03 176.64 227.04 C 176.23 226.53 175.40 225.52 174.99 225.01 C 174.66 232.26 174.44 239.53 174.51 246.80 C 168.39 248.13 162.14 248.63 155.98 249.65 C 163.69 252.21 170.60 256.59 176.60 262.03 C 175.14 272.32 171.81 282.22 169.06 292.22 C 172.95 287.31 177.16 282.63 181.88 278.51 C 183.14 299.99 183.43 321.54 184.96 343.02 C 185.29 346.58 185.93 350.15 187.26 353.50 C 187.10 357.44 186.12 361.27 185.13 365.07 C 176.32 366.25 167.48 367.29 158.67 368.48 C 166.22 372.81 174.09 376.56 181.72 380.76 C 176.43 391.12 170.64 401.25 165.98 411.91 C 174.71 405.09 183.33 398.13 192.22 391.53 C 193.43 402.19 197.54 412.23 198.74 422.89 C 199.43 427.93 199.72 433.03 199.49 438.11 C 190.02 433.38 180.38 428.99 171.10 423.90 C 163.71 418.74 158.19 411.40 152.42 404.59 C 146.78 397.68 141.52 390.37 137.68 382.30 C 130.65 368.74 117.85 359.52 109.47 346.95 C 115.62 341.91 121.61 336.66 127.85 331.74 C 130.54 334.69 133.36 337.52 136.11 340.42 C 136.71 341.25 137.32 342.09 137.93 342.94 C 140.42 349.05 143.69 355.17 143.34 361.98 C 143.38 366.72 143.06 373.19 147.93 375.79 C 150.65 375.61 149.70 371.78 149.79 369.90 C 149.55 362.66 144.85 356.50 144.34 349.39 C 145.59 350.73 146.86 352.06 148.14 353.38 C 145.86 342.54 142.59 331.94 140.35 321.10 C 146.84 317.01 153.17 312.65 159.40 308.18 C 151.28 307.74 143.15 307.78 135.03 307.28 C 134.27 305.04 133.44 302.83 132.70 300.59 C 132.66 300.30 132.58 299.70 132.54 299.40 C 133.40 293.84 133.85 288.18 133.02 282.58 C 129.29 283.67 130.94 288.25 129.20 290.93 C 127.89 287.09 126.67 283.22 125.01 279.51 C 121.90 288.07 118.96 296.70 116.09 305.34 C 114.35 305.30 112.60 305.28 110.85 305.26 C 108.84 299.64 107.38 293.85 105.62 288.16 C 104.03 283.44 105.67 278.51 106.83 273.89 C 108.50 267.66 114.24 263.97 117.78 258.94 C 118.32 256.68 117.36 254.42 116.59 252.34 C 114.92 248.38 112.85 244.36 109.20 241.88 C 105.05 244.64 102.41 248.89 99.81 253.02 C 87.33 240.77 73.44 229.88 58.46 220.85 L 58.46 220.34 C 58.60 217.18 57.30 214.21 57.23 211.08 C 57.57 209.10 58.82 207.45 59.68 205.69 C 54.11 208.47 53.60 215.40 49.10 219.28 L 48.62 219.85 C 47.35 220.44 46.11 221.21 44.68 221.37 C 37.58 221.88 32.82 227.98 26.88 231.17 C 27.08 230.60 27.49 229.48 27.69 228.92 C 38.34 213.84 52.84 201.12 70.06 194.16 C 77.06 191.25 84.65 190.59 91.92 188.68 C 92.88 192.50 93.00 196.46 93.37 200.37 C 86.93 200.97 80.47 201.40 74.04 202.11 C 80.73 205.85 87.71 209.04 94.43 212.73 C 93.84 221.11 93.35 229.50 92.96 237.90 C 98.00 232.28 102.66 226.33 107.79 220.79 C 118.18 227.02 128.46 233.46 139.06 239.34 C 134.45 232.66 129.57 226.17 124.80 219.61 C 128.67 218.53 132.90 217.72 135.96 214.89 C 135.90 214.45 135.78 213.59 135.72 213.16 C 131.67 211.39 127.09 212.20 122.82 211.40 C 128.04 208.51 133.64 206.40 139.36 204.71 C 132.62 202.61 125.74 200.76 118.68 200.28 L 118.31 200.25 C 114.67 194.13 109.66 189.01 105.31 183.42 C 108.79 179.12 108.67 173.36 110.49 168.37 C 111.94 164.25 113.50 159.88 116.89 156.94 M 119.78 170.02 C 123.18 172.95 127.52 174.44 131.40 176.59 C 138.66 180.01 145.63 184.11 153.17 186.91 C 148.85 183.61 143.65 181.76 138.97 179.05 C 132.57 176.05 126.54 172.17 119.78 170.02 M 144.03 174.00 C 146.83 176.33 149.66 178.78 153.11 180.10 C 150.34 177.72 147.49 175.28 144.03 174.00 M 153.96 181.01 C 156.70 183.35 159.79 185.26 162.94 187.02 C 160.43 184.40 157.37 182.26 153.96 181.01 Z" />
<path fill="#61361d" opacity="1.00" d=" M 179.59 185.39 C 181.15 182.60 183.62 180.46 185.71 178.08 C 185.83 186.08 185.62 194.10 186.16 202.09 C 184.09 204.30 180.90 206.00 180.04 209.02 C 182.42 213.27 186.82 216.06 189.84 219.90 C 189.26 214.53 189.11 209.13 189.20 203.73 C 196.99 207.73 204.66 212.08 211.93 216.93 C 212.81 217.93 213.66 218.96 214.50 219.99 C 209.26 220.20 204.00 220.23 198.77 220.60 C 206.35 224.30 214.49 226.97 221.83 231.07 C 220.80 238.63 218.57 245.99 215.98 253.15 C 221.04 247.79 225.75 242.12 230.89 236.83 C 231.15 237.29 231.67 238.20 231.93 238.65 C 232.59 242.40 233.28 246.15 233.39 249.96 C 233.41 260.62 234.31 271.25 234.88 281.89 C 235.00 283.30 234.84 284.67 234.40 286.02 C 233.36 284.70 232.29 283.42 231.28 282.08 C 231.66 290.14 231.14 298.25 229.17 306.10 C 222.09 307.18 214.96 307.90 207.91 309.19 C 215.78 311.50 223.69 314.55 229.96 320.02 C 224.84 328.46 222.08 338.28 222.51 348.18 C 228.63 341.15 234.22 333.65 240.73 326.96 C 242.36 329.53 244.11 332.03 246.01 334.41 C 245.14 339.60 244.56 344.84 243.45 349.98 L 243.28 349.41 C 243.17 349.00 242.94 348.18 242.82 347.77 C 241.14 350.89 239.56 354.26 239.83 357.90 C 239.93 362.41 241.37 367.49 238.34 371.41 C 230.96 382.65 223.42 393.78 215.92 404.93 C 214.96 406.38 213.69 407.59 212.44 408.79 C 210.13 399.41 207.36 390.15 204.28 380.99 C 209.86 375.89 215.91 371.26 221.10 365.75 C 214.49 365.36 207.90 364.69 201.28 364.44 C 197.05 355.23 193.51 345.72 189.18 336.56 C 188.09 333.17 188.51 329.53 188.12 326.04 C 186.46 308.79 188.09 291.37 185.50 274.19 C 186.05 274.15 187.16 274.08 187.72 274.05 C 194.30 280.07 199.36 287.46 205.03 294.29 C 204.65 283.86 201.52 273.78 197.74 264.13 C 201.79 260.30 205.78 256.42 209.98 252.76 C 203.78 250.80 197.34 249.67 191.13 247.79 C 189.44 245.70 188.68 243.03 187.24 240.78 C 185.52 237.74 183.03 235.15 181.65 231.91 C 181.24 228.90 181.28 225.84 180.69 222.85 C 180.64 224.13 180.59 225.42 180.55 226.71 L 179.16 226.31 C 178.12 220.57 177.29 214.78 176.47 209.01 C 177.16 208.02 178.45 207.26 178.41 205.91 C 178.78 199.07 178.99 192.21 179.59 185.39 Z" />
<path fill="#61361d" opacity="1.00" d=" M 237.27 246.79 C 241.42 256.76 243.36 267.51 245.39 278.08 C 246.56 287.77 248.08 297.52 247.46 307.29 L 245.94 307.29 C 245.10 306.33 244.77 305.07 244.31 303.93 C 242.40 298.05 239.44 292.53 235.68 287.63 C 237.02 282.86 236.63 277.87 236.91 272.98 C 237.34 264.26 237.27 255.52 237.27 246.79 Z" />
<path fill="#61361d" opacity="1.00" d=" M 102.90 352.39 C 103.48 351.89 104.65 350.90 105.24 350.41 C 109.34 351.65 111.97 355.19 114.75 358.20 C 123.79 368.67 132.00 379.83 139.73 391.30 C 143.68 397.47 148.07 403.45 150.80 410.30 C 153.18 416.46 159.02 420.14 164.21 423.76 C 171.57 428.44 179.26 432.81 187.61 435.48 C 191.70 436.82 195.54 438.80 199.26 440.95 C 198.06 446.65 198.66 452.51 198.11 458.22 C 197.29 458.96 196.26 459.75 196.28 460.98 C 178.93 461.69 161.57 461.41 144.22 461.26 C 143.58 459.25 142.91 457.26 142.26 455.26 C 141.96 454.35 141.66 453.44 141.35 452.54 C 144.04 450.52 141.20 447.45 138.67 447.33 C 138.34 446.96 137.68 446.23 137.35 445.87 C 138.57 444.68 139.76 443.46 141.01 442.31 C 142.33 442.40 143.66 442.54 144.99 442.69 C 145.09 441.23 145.20 439.78 145.31 438.33 C 150.24 434.47 154.76 429.31 161.17 428.06 C 160.54 427.70 159.92 427.31 159.33 426.91 C 149.07 419.65 138.62 412.63 127.99 405.94 C 136.16 413.47 145.69 419.34 154.48 426.11 C 153.06 426.17 151.64 426.23 150.23 426.29 C 143.77 426.39 137.36 425.54 130.92 425.19 C 127.81 413.91 124.60 402.65 121.50 391.37 C 117.77 402.57 115.00 414.06 111.55 425.34 C 106.45 425.65 101.35 426.10 96.23 426.06 L 96.06 426.06 C 95.30 419.18 91.51 413.20 87.37 407.90 C 87.21 404.69 86.78 401.40 87.39 398.22 C 89.01 395.09 92.51 392.50 91.24 388.57 C 91.57 385.68 93.25 383.03 93.16 380.05 C 93.60 373.48 88.52 368.36 87.73 362.06 C 87.58 359.54 90.22 358.38 91.86 357.01 C 96.73 362.85 102.80 367.47 108.54 372.40 C 113.90 376.60 119.16 381.08 125.35 384.02 C 124.95 382.44 124.52 380.82 123.32 379.65 C 116.91 372.62 109.26 366.88 101.61 361.29 C 98.53 359.16 99.73 355.07 100.82 352.17 C 101.51 352.25 102.20 352.32 102.90 352.39 M 98.80 383.68 C 102.75 388.30 107.91 391.88 113.04 395.09 C 108.73 390.81 103.94 386.90 98.80 383.68 M 96.03 405.84 C 97.33 411.50 101.07 416.10 104.13 420.91 C 105.62 423.10 107.09 426.26 110.35 425.39 C 106.06 418.55 101.29 411.95 96.03 405.84 M 150.79 438.97 C 151.25 439.99 151.71 441.01 152.18 442.04 C 153.40 442.06 154.63 442.09 155.85 442.12 C 156.15 441.55 156.76 440.41 157.06 439.84 C 156.66 438.90 156.26 437.97 155.87 437.05 C 153.86 436.76 151.87 437.08 150.79 438.97 M 158.59 438.88 C 159.33 438.66 160.80 438.22 161.54 437.99 C 160.76 439.40 159.80 440.70 158.76 441.92 C 159.50 441.95 161.00 442.00 161.75 442.02 C 161.45 440.33 161.74 438.62 161.83 436.94 C 160.49 437.11 159.22 437.59 158.59 438.88 M 162.46 438.38 C 162.67 439.21 163.09 440.89 163.29 441.72 C 164.00 441.77 165.41 441.86 166.11 441.90 C 166.15 441.02 166.22 439.25 166.26 438.37 C 166.87 438.61 168.10 439.09 168.72 439.33 C 168.60 439.96 168.35 441.24 168.23 441.87 C 168.57 441.85 169.26 441.81 169.60 441.79 C 169.36 440.08 170.10 437.94 168.68 436.62 L 168.70 437.96 C 167.57 437.96 166.45 437.95 165.32 437.94 L 165.50 436.69 C 164.47 437.22 163.46 437.78 162.46 438.38 M 171.33 437.38 C 170.52 439.88 171.26 443.65 174.84 442.17 C 173.95 441.58 173.11 440.90 172.17 440.40 C 173.10 439.92 174.01 439.42 174.91 438.89 C 174.10 438.78 172.49 438.57 171.69 438.46 C 172.36 438.13 173.70 437.45 174.37 437.12 C 173.61 437.18 172.09 437.31 171.33 437.38 M 146.96 437.91 C 145.47 438.81 145.63 440.71 145.77 442.21 C 146.58 442.18 148.21 442.13 149.02 442.10 C 149.05 441.30 149.10 439.69 149.13 438.89 C 148.59 438.64 147.50 438.15 146.96 437.91 M 143.53 447.64 C 143.51 450.19 143.49 452.76 143.50 455.33 L 145.19 455.43 C 145.61 453.39 144.28 449.90 146.68 448.92 C 149.54 449.41 148.47 453.07 148.89 455.16 C 150.61 455.84 151.70 455.56 152.19 454.31 C 149.36 454.49 149.13 448.27 152.35 448.70 C 151.89 448.38 150.99 447.75 150.53 447.43 C 150.40 447.04 150.13 446.26 149.99 445.87 C 147.81 446.62 145.96 449.20 143.53 447.64 M 161.34 447.69 C 161.20 450.34 161.21 453.00 161.38 455.66 C 161.79 455.54 162.61 455.30 163.02 455.19 C 163.35 453.15 161.74 449.04 165.10 449.20 C 167.08 450.23 165.81 453.20 166.42 455.05 C 166.20 456.32 168.80 455.13 168.01 454.12 C 167.96 452.18 168.41 449.69 166.76 448.27 C 165.05 447.58 163.14 447.87 161.34 447.69 M 169.34 449.98 C 169.58 452.15 172.74 451.96 173.32 454.08 C 171.87 453.95 170.44 453.78 169.00 453.59 C 169.33 455.91 172.37 455.87 173.86 454.75 C 174.36 455.07 174.86 455.40 175.35 455.74 C 175.94 455.32 177.10 454.47 177.69 454.05 C 178.19 454.54 179.19 455.53 179.69 456.03 L 179.28 454.91 C 182.31 455.80 185.57 455.55 188.57 454.64 L 188.90 455.04 C 189.09 454.45 189.46 453.27 189.65 452.68 C 189.68 453.34 189.73 454.65 189.75 455.31 L 191.02 455.44 C 191.00 454.55 190.96 452.78 190.94 451.90 C 189.04 451.66 187.13 451.71 185.28 452.28 L 184.80 452.09 C 184.12 452.13 182.75 452.23 182.07 452.27 C 181.69 452.20 180.93 452.05 180.55 451.97 C 177.89 451.61 177.04 454.80 174.36 454.50 C 176.25 451.22 171.23 451.62 170.81 449.01 C 172.14 449.08 173.48 449.24 174.81 449.33 C 173.84 446.93 169.51 447.21 169.34 449.98 M 157.73 449.59 C 158.93 451.09 158.57 454.22 156.12 453.96 C 154.00 453.33 154.40 450.49 153.02 449.06 C 150.93 452.66 155.31 457.40 158.70 454.64 C 162.12 451.82 158.49 445.63 154.03 448.02 C 155.18 448.72 156.44 449.19 157.73 449.59 Z" />
<path fill="#61361d" opacity="1.00" d=" M 222.26 398.28 C 226.88 392.75 231.42 387.00 237.19 382.62 C 235.78 393.61 232.77 404.29 229.97 414.99 C 228.34 420.89 227.74 426.99 226.41 432.95 C 221.89 433.20 217.38 433.71 212.86 433.98 C 210.04 429.08 206.40 424.61 202.19 420.84 C 205.60 424.87 209.14 428.81 212.19 433.13 C 211.93 433.54 211.39 434.35 211.12 434.76 C 212.32 435.71 213.54 436.66 214.78 437.57 C 214.94 440.20 214.26 443.49 216.65 445.35 C 218.67 447.53 221.72 448.11 224.49 447.11 C 222.16 444.48 217.90 443.14 217.31 439.32 C 220.82 441.81 224.20 444.48 227.70 446.97 C 225.65 451.16 223.67 455.39 221.93 459.72 L 221.64 459.67 C 215.82 458.98 209.95 458.24 204.73 455.37 C 203.61 457.36 202.53 459.37 201.42 461.37 C 200.79 460.26 200.75 458.99 200.62 457.77 C 203.41 455.05 206.05 451.75 206.54 447.75 C 206.61 444.36 204.37 441.45 201.68 439.61 C 201.48 442.28 202.98 444.55 203.75 447.01 C 203.87 449.49 202.02 451.43 200.92 453.49 C 200.04 446.99 201.93 440.55 201.87 434.06 C 201.69 423.86 199.63 413.81 196.95 404.00 C 196.12 400.37 195.01 396.73 195.23 392.96 C 198.44 394.98 200.56 398.16 203.04 400.94 C 206.36 404.65 209.56 408.47 212.78 412.26 C 212.80 411.87 212.82 411.09 212.84 410.69 C 216.68 407.10 218.99 402.33 222.26 398.28 Z" />
<path fill="#61361d" opacity="1.00" d=" M 231.03 422.13 C 232.01 420.17 231.86 416.40 234.76 416.42 C 233.23 421.94 231.96 427.56 229.82 432.88 C 227.72 429.48 230.37 425.62 231.03 422.13 Z" />
<path fill="#61361d" opacity="1.00" d=" M 96.76 432.46 C 100.54 435.13 104.89 437.23 107.77 440.97 C 107.61 441.57 107.31 442.75 107.16 443.35 C 106.48 442.07 105.80 440.80 105.13 439.53 C 105.66 441.93 106.13 444.48 104.71 446.69 C 104.59 449.08 104.54 451.47 104.54 453.88 C 103.94 455.28 103.36 456.68 102.72 458.07 C 102.35 458.90 102.00 459.74 101.65 460.59 C 99.26 460.60 96.86 460.67 94.48 460.90 C 95.53 451.44 97.07 442.01 96.76 432.46 Z" />
<path fill="#61361d" opacity="1.00" d=" M 164.34 438.36 C 165.59 438.61 165.82 439.40 165.04 440.74 C 163.78 440.48 163.54 439.69 164.34 438.36 Z" />
<path fill="#61361d" opacity="1.00" d=" M 178.64 453.17 L 179.37 452.70 C 179.68 452.96 180.28 453.47 180.58 453.73 C 180.17 453.79 179.34 453.91 178.93 453.97 L 178.64 453.17 Z" />
<path fill="#61361d" opacity="1.00" d=" M 116.02 460.36 C 118.88 458.91 121.46 456.99 124.05 455.13 C 126.57 457.05 128.98 459.11 131.47 461.08 C 126.31 461.45 121.16 460.71 116.02 460.36 Z" />
</g>
<g id="#bc9dd6ff">
<path fill="#bc9dd6" opacity="1.00" d=" M 156.54 5.62 C 163.97 4.92 171.47 5.69 178.79 6.94 C 178.00 7.87 177.20 8.80 176.41 9.73 C 177.95 12.90 179.32 16.15 180.54 19.46 C 177.30 17.82 174.11 16.08 170.93 14.32 C 168.25 16.73 165.55 19.13 162.77 21.43 C 163.34 17.84 164.07 14.28 164.84 10.73 C 162.11 8.97 159.42 7.14 156.54 5.62 Z" />
<path fill="#bc9dd6" opacity="1.00" d=" M 124.70 28.95 C 126.12 25.61 127.75 22.37 129.61 19.25 C 130.40 22.84 131.14 26.44 131.92 30.04 C 135.61 30.48 139.30 30.97 142.98 31.51 C 139.77 33.29 136.56 35.08 133.37 36.89 C 134.04 40.48 134.69 44.08 135.24 47.69 C 132.45 45.36 129.73 42.96 126.99 40.58 C 123.82 42.25 120.64 43.90 117.41 45.44 C 118.77 42.01 120.23 38.61 121.56 35.17 C 119.84 33.75 118.12 32.33 116.48 30.82 C 115.51 29.91 114.56 28.99 113.61 28.06 C 116.08 28.30 118.55 28.54 121.03 28.69 C 122.25 28.79 123.48 28.88 124.70 28.95 Z" />
<path fill="#bc9dd6" opacity="1.00" d=" M 207.24 25.30 C 208.11 23.70 208.97 22.09 209.84 20.49 C 213.12 23.95 216.55 27.30 219.33 31.19 C 218.20 31.85 217.07 32.51 215.94 33.18 C 216.50 36.78 217.12 40.37 217.71 43.97 C 214.97 41.71 212.32 39.33 209.75 36.86 C 208.01 37.82 206.28 38.80 204.50 39.68 C 203.35 39.76 202.21 39.58 201.07 39.47 C 202.18 37.03 203.24 34.56 204.22 32.06 C 201.52 29.54 198.91 26.94 196.26 24.36 C 199.92 24.69 203.58 25.00 207.24 25.30 Z" />
<path fill="#bc9dd6" opacity="1.00" d=" M 171.64 38.74 C 172.73 35.66 174.09 32.68 175.50 29.74 C 176.40 32.65 177.19 35.60 177.89 38.57 C 177.15 38.66 175.66 38.84 174.92 38.93 C 174.23 39.00 172.85 39.13 172.17 39.19 L 171.64 38.74 Z" />
<path fill="#bc9dd6" opacity="1.00" d=" M 159.81 39.71 C 162.94 39.58 166.08 39.73 169.21 39.77 C 167.41 40.25 165.62 40.79 163.81 41.26 C 162.38 40.99 161.08 40.37 159.81 39.71 Z" />
<path fill="#bc9dd6" opacity="1.00" d=" M 91.79 188.12 C 94.13 189.86 95.40 192.58 97.48 194.58 C 101.65 199.23 106.97 202.63 112.34 205.73 C 117.49 208.41 115.37 216.20 120.11 219.26 C 121.65 219.60 123.23 219.55 124.80 219.61 C 129.57 226.17 134.45 232.66 139.06 239.34 C 128.46 233.46 118.18 227.02 107.79 220.79 C 102.66 226.33 98.00 232.28 92.96 237.90 C 93.35 229.50 93.84 221.11 94.43 212.73 C 87.71 209.04 80.73 205.85 74.04 202.11 C 80.47 201.40 86.93 200.97 93.37 200.37 C 93.00 196.46 92.88 192.50 91.92 188.68 L 91.79 188.12 Z" />
<path fill="#bc9dd6" opacity="1.00" d=" M 118.68 200.28 C 125.74 200.76 132.62 202.61 139.36 204.71 C 133.64 206.40 128.04 208.51 122.82 211.40 C 120.27 208.16 121.31 203.55 118.68 200.28 Z" />
<path fill="#bc9dd6" opacity="1.00" d=" M 211.93 216.93 C 218.31 221.16 224.73 225.47 230.07 230.99 C 233.91 234.72 235.13 240.14 236.82 245.03 C 235.38 242.76 233.60 240.74 231.93 238.65 C 231.67 238.20 231.15 237.29 230.89 236.83 C 225.75 242.12 221.04 247.79 215.98 253.15 C 218.57 245.99 220.80 238.63 221.83 231.07 C 214.49 226.97 206.35 224.30 198.77 220.60 C 204.00 220.23 209.26 220.20 214.50 219.99 C 213.66 218.96 212.81 217.93 211.93 216.93 Z" />
<path fill="#bc9dd6" opacity="1.00" d=" M 44.08 225.15 C 47.41 223.39 51.49 220.29 55.25 222.70 C 68.69 230.47 81.01 240.09 92.53 250.46 C 96.70 254.77 102.00 258.91 103.54 264.93 C 100.79 274.40 100.67 284.31 101.16 294.08 C 101.51 298.77 103.54 303.23 103.07 308.00 C 102.32 319.48 99.76 330.74 98.67 342.19 C 98.14 348.29 92.97 352.52 88.21 355.64 C 89.76 350.73 93.05 346.65 94.91 341.88 C 88.69 344.07 83.24 347.93 77.07 350.22 C 72.62 351.87 68.35 348.63 64.85 346.24 C 58.90 342.22 54.55 336.41 49.00 331.92 C 48.99 334.48 49.22 337.11 50.63 339.32 C 54.86 346.59 58.64 354.09 62.45 361.59 C 63.15 363.12 64.39 365.25 62.61 366.58 C 60.37 367.87 57.69 368.09 55.47 369.38 C 54.58 370.75 55.25 372.55 55.09 374.10 C 57.33 372.97 59.46 371.49 61.95 370.98 C 65.78 370.98 67.97 376.11 71.97 374.98 C 77.04 371.60 80.80 366.54 84.15 361.52 C 85.07 366.52 87.43 371.03 89.41 375.67 C 91.48 380.73 89.21 386.20 86.54 390.56 L 86.32 390.67 C 81.42 392.99 77.37 396.78 73.84 400.84 C 71.81 403.01 71.19 406.49 73.01 408.99 C 75.96 413.52 79.75 418.11 85.08 419.80 C 87.26 420.56 88.38 418.18 89.75 417.02 C 95.28 426.29 94.28 437.70 93.24 448.01 C 92.79 454.99 90.75 461.97 91.93 468.98 C 92.64 473.10 96.76 475.75 97.03 480.01 C 97.67 486.03 96.88 492.19 98.42 498.12 C 101.40 509.34 102.84 520.89 104.43 532.36 C 91.62 531.57 79.50 536.78 67.87 541.46 C 67.65 535.82 68.57 530.09 67.32 524.54 C 65.14 517.86 60.08 512.62 54.92 508.09 C 48.27 503.38 46.05 495.09 43.27 487.87 C 48.42 489.49 52.19 493.59 56.80 496.23 C 62.06 499.49 66.99 503.69 73.17 505.05 C 71.97 499.90 66.06 499.17 62.22 496.74 C 55.56 492.59 50.14 486.79 44.10 481.83 C 43.04 480.90 41.54 481.65 40.31 481.55 L 39.99 481.57 C 36.92 474.10 29.29 469.75 26.57 462.10 C 21.95 450.56 21.70 437.94 19.14 425.91 C 17.51 418.59 13.68 412.05 11.57 404.91 C 11.33 400.45 11.88 395.96 11.59 391.49 C 12.98 394.76 14.50 397.96 16.11 401.13 C 20.77 399.79 25.37 398.22 30.13 397.23 C 32.80 396.68 35.49 395.90 37.61 394.10 C 33.77 391.88 29.48 390.57 25.66 388.31 C 20.62 385.49 16.30 381.59 11.31 378.69 C 10.99 369.33 8.95 360.08 6.24 351.14 C 4.61 344.55 5.98 337.73 6.42 331.08 C 7.03 322.38 8.91 313.76 8.64 305.01 C 8.73 288.18 8.97 271.04 13.70 254.76 C 20.21 241.87 32.01 232.58 44.08 225.15 M 15.24 327.81 C 19.09 330.25 23.83 330.81 27.63 333.37 C 35.76 338.65 42.56 345.65 49.91 351.90 C 48.89 347.37 47.20 343.00 44.91 338.97 C 42.27 334.65 37.97 331.66 33.43 329.61 C 27.81 327.01 22.07 324.47 16.01 323.11 C 12.82 322.03 13.35 326.74 15.24 327.81 M 71.79 430.72 C 63.33 439.29 54.87 447.85 46.22 456.22 C 45.36 457.09 44.65 458.10 43.95 459.11 C 50.40 457.20 55.26 452.22 61.08 449.06 C 68.09 445.34 73.55 439.48 80.01 435.00 C 81.81 433.38 84.19 434.46 86.32 434.35 C 88.82 433.46 89.99 430.87 91.30 428.76 C 85.21 426.22 76.56 425.16 71.79 430.72 Z" />
<path fill="#bc9dd6" opacity="1.00" d=" M 180.55 226.71 C 180.59 225.42 180.64 224.13 180.69 222.85 C 181.28 225.84 181.24 228.90 181.65 231.91 C 183.03 235.15 185.52 237.74 187.24 240.78 C 188.68 243.03 189.44 245.70 191.13 247.79 C 197.34 249.67 203.78 250.80 209.98 252.76 C 205.78 256.42 201.79 260.30 197.74 264.13 C 201.52 273.78 204.65 283.86 205.03 294.29 C 199.36 287.46 194.30 280.07 187.72 274.05 C 187.16 274.08 186.05 274.15 185.50 274.19 C 184.20 260.79 182.20 247.47 180.30 234.15 C 180.02 231.67 180.54 229.19 180.55 226.71 Z" />
<path fill="#bc9dd6" opacity="1.00" d=" M 174.99 225.01 C 175.40 225.52 176.23 226.53 176.64 227.04 C 179.46 243.67 181.74 260.43 183.34 277.23 C 182.97 277.55 182.25 278.19 181.88 278.51 C 177.16 282.63 172.95 287.31 169.06 292.22 C 171.81 282.22 175.14 272.32 176.60 262.03 C 170.60 256.59 163.69 252.21 155.98 249.65 C 162.14 248.63 168.39 248.13 174.51 246.80 C 174.44 239.53 174.66 232.26 174.99 225.01 Z" />
<path fill="#bc9dd6" opacity="1.00" d=" M 240.11 245.88 C 241.11 247.00 241.72 248.38 242.20 249.80 C 246.48 262.14 249.47 274.95 250.60 287.98 C 251.95 302.28 255.73 316.17 259.12 330.08 C 263.54 349.03 266.99 368.45 265.69 387.98 C 264.37 407.34 264.26 426.78 265.79 446.13 C 266.39 448.70 264.65 450.77 263.75 453.00 C 263.75 455.37 266.11 456.47 267.69 457.76 C 266.85 459.77 265.82 461.80 265.70 464.03 C 266.22 466.34 267.63 468.50 267.27 470.96 C 266.99 476.63 266.96 482.31 267.03 487.99 C 266.88 498.14 270.70 507.72 272.81 517.51 C 264.42 516.12 254.40 514.40 247.58 520.86 C 245.44 515.10 242.67 509.37 242.41 503.13 C 242.20 500.69 241.50 498.36 240.77 496.05 C 243.13 496.02 245.58 496.41 247.88 495.72 C 251.46 494.24 254.49 491.72 257.25 489.04 C 254.28 489.33 251.32 489.94 248.33 489.75 C 245.38 486.90 245.41 482.08 246.38 478.39 C 248.67 474.96 252.84 473.34 255.15 469.88 C 251.10 471.31 248.07 474.60 244.07 476.10 C 240.97 473.01 240.79 467.80 241.68 463.73 C 243.56 457.31 243.08 450.49 241.85 444.00 C 240.69 446.49 239.46 448.94 238.22 451.39 C 239.53 442.92 237.30 434.44 238.06 425.94 C 239.39 412.11 240.49 398.26 241.90 384.43 C 247.63 380.99 253.28 377.40 259.00 373.93 C 260.70 372.89 262.98 371.29 261.86 368.99 C 259.77 368.88 258.10 370.48 256.28 371.28 C 252.24 373.69 247.45 374.09 242.85 374.26 C 243.26 363.01 245.98 352.06 247.85 341.01 C 253.26 309.30 250.43 276.32 240.11 245.88 Z" />
<path fill="#bc9dd6" opacity="1.00" d=" M 116.09 305.34 C 118.96 296.70 121.90 288.07 125.01 279.51 C 126.67 283.22 127.89 287.09 129.20 290.93 C 129.69 292.40 130.22 293.87 130.79 295.33 C 129.80 296.31 129.11 297.51 129.20 298.95 C 129.01 303.33 128.15 307.67 128.28 312.06 C 129.55 321.85 134.27 330.76 136.11 340.42 C 133.36 337.52 130.54 334.69 127.85 331.74 C 121.61 336.66 115.62 341.91 109.47 346.95 L 109.33 347.07 C 108.22 345.37 106.94 343.79 105.41 342.48 C 105.46 342.29 105.57 341.90 105.62 341.71 C 107.67 335.16 109.70 328.60 111.56 321.98 C 111.18 321.64 110.42 320.96 110.04 320.62 L 109.81 320.44 C 111.22 315.68 111.57 310.69 111.27 305.76 C 112.88 305.65 114.49 305.52 116.09 305.34 Z" />
<path fill="#bc9dd6" opacity="1.00" d=" M 229.17 306.10 C 231.14 298.25 231.66 290.14 231.28 282.08 C 232.29 283.42 233.36 284.70 234.40 286.02 C 234.82 286.56 235.25 287.09 235.68 287.63 C 239.44 292.53 242.40 298.05 244.31 303.93 C 244.77 305.07 245.10 306.33 245.94 307.29 C 246.40 307.43 247.31 307.73 247.76 307.87 C 247.73 316.75 247.12 325.60 246.01 334.41 C 244.11 332.03 242.36 329.53 240.73 326.96 C 234.22 333.65 228.63 341.15 222.51 348.18 C 222.08 338.28 224.84 328.46 229.96 320.02 C 223.69 314.55 215.78 311.50 207.91 309.19 C 214.96 307.90 222.09 307.18 229.17 306.10 Z" />
<path fill="#bc9dd6" opacity="1.00" d=" M 131.54 318.37 C 129.95 312.46 132.08 306.48 132.70 300.59 C 133.44 302.83 134.27 305.04 135.03 307.28 C 143.15 307.78 151.28 307.74 159.40 308.18 C 153.17 312.65 146.84 317.01 140.35 321.10 C 142.59 331.94 145.86 342.54 148.14 353.38 C 146.86 352.06 145.59 350.73 144.34 349.39 C 143.42 348.39 142.53 347.36 141.58 346.40 C 140.29 336.45 134.31 327.90 131.54 318.37 Z" />
<path fill="#bc9dd6" opacity="1.00" d=" M 189.18 336.56 C 193.51 345.72 197.05 355.23 201.28 364.44 C 207.90 364.69 214.49 365.36 221.10 365.75 C 215.91 371.26 209.86 375.89 204.28 380.99 C 207.36 390.15 210.13 399.41 212.44 408.79 C 212.54 409.27 212.74 410.22 212.84 410.69 C 212.82 411.09 212.80 411.87 212.78 412.26 C 209.56 408.47 206.36 404.65 203.04 400.94 C 200.56 398.16 198.44 394.98 195.23 392.96 C 194.00 388.42 193.80 383.70 193.15 379.06 C 191.71 364.91 189.66 350.79 189.18 336.56 Z" />
<path fill="#bc9dd6" opacity="1.00" d=" M 187.26 353.50 L 187.81 354.69 C 189.57 366.89 190.54 379.28 192.22 391.53 C 183.33 398.13 174.71 405.09 165.98 411.91 C 170.64 401.25 176.43 391.12 181.72 380.76 C 174.09 376.56 166.22 372.81 158.67 368.48 C 167.48 367.29 176.32 366.25 185.13 365.07 C 186.12 361.27 187.10 357.44 187.26 353.50 Z" />
<path fill="#bc9dd6" opacity="1.00" d=" M 111.55 425.34 C 115.00 414.06 117.77 402.57 121.50 391.37 C 124.60 402.65 127.81 413.91 130.92 425.19 C 137.36 425.54 143.77 426.39 150.23 426.29 C 150.40 426.53 150.75 427.02 150.92 427.26 C 153.72 427.05 156.52 426.91 159.33 426.91 C 159.92 427.31 160.54 427.70 161.17 428.06 C 154.76 429.31 150.24 434.47 145.31 438.33 C 140.48 438.73 135.64 438.59 130.83 438.07 C 130.91 439.62 130.65 441.29 131.63 442.65 C 131.85 441.73 132.29 439.87 132.51 438.94 C 132.73 440.11 132.96 441.28 133.21 442.46 C 133.48 441.92 134.03 440.85 134.31 440.31 C 135.87 442.52 138.63 442.09 141.01 442.31 C 139.76 443.46 138.57 444.68 137.35 445.87 C 137.68 446.23 138.34 446.96 138.67 447.33 C 136.18 448.26 134.25 451.41 136.18 453.78 C 137.46 455.96 140.18 455.42 142.26 455.26 C 142.91 457.26 143.58 459.25 144.22 461.26 C 139.97 461.14 135.70 461.49 131.47 461.08 C 128.98 459.11 126.57 457.05 124.05 455.13 C 121.46 456.99 118.88 458.91 116.02 460.36 C 111.66 460.41 107.29 459.92 102.95 460.51 C 102.89 459.90 102.78 458.68 102.72 458.07 C 103.36 456.68 103.94 455.28 104.54 453.88 C 104.79 454.79 105.07 455.70 105.36 456.61 C 108.58 457.66 112.38 458.49 115.30 456.21 C 117.30 450.91 114.19 445.38 115.51 440.03 C 114.73 440.64 113.94 441.23 113.15 441.85 C 113.04 441.16 112.80 439.77 112.68 439.08 C 111.75 439.98 110.71 440.76 109.76 441.66 L 109.59 441.29 C 109.16 440.49 108.74 439.69 108.32 438.89 C 108.18 439.41 107.90 440.45 107.77 440.97 C 104.89 437.23 100.54 435.13 96.76 432.46 C 96.51 430.33 96.34 428.19 96.23 426.06 C 101.35 426.10 106.45 425.65 111.55 425.34 M 129.22 437.40 C 128.40 438.59 128.43 440.42 129.23 441.62 C 130.62 441.35 130.60 437.68 129.22 437.40 M 122.15 444.86 C 120.70 448.27 119.25 451.76 118.82 455.48 C 120.66 454.88 121.66 452.03 123.84 452.85 C 124.97 453.72 126.05 454.66 127.18 455.53 C 126.93 451.76 125.41 448.25 123.96 444.81 C 123.50 444.83 122.60 444.85 122.15 444.86 M 128.39 453.00 C 128.29 454.55 129.49 455.38 130.91 455.52 C 130.21 451.96 130.43 448.32 130.07 444.73 L 128.85 444.51 C 127.84 447.19 128.34 450.19 128.39 453.00 M 132.28 454.86 C 132.94 454.98 134.26 455.22 134.92 455.34 C 133.65 451.97 134.19 448.34 133.95 444.84 L 132.85 444.39 C 131.27 447.54 132.43 451.42 132.28 454.86 Z" />
<path fill="#bc9dd6" opacity="1.00" d=" M 234.76 416.42 C 235.41 413.07 235.94 409.68 237.07 406.45 C 236.80 416.95 234.60 427.43 235.59 437.96 C 236.05 443.23 236.16 448.85 233.68 453.68 C 231.59 458.12 226.07 458.43 221.93 459.72 C 223.67 455.39 225.65 451.16 227.70 446.97 C 224.20 444.48 220.82 441.81 217.31 439.32 C 216.47 438.73 215.61 438.15 214.78 437.57 C 213.54 436.66 212.32 435.71 211.12 434.76 C 211.39 434.35 211.93 433.54 212.19 433.13 C 209.14 428.81 205.60 424.87 202.19 420.84 C 206.40 424.61 210.04 429.08 212.86 433.98 C 217.38 433.71 221.89 433.20 226.41 432.95 C 227.54 432.90 228.68 432.89 229.82 432.88 C 231.96 427.56 233.23 421.94 234.76 416.42 Z" />
</g>
<g id="#896b5aff">
<path fill="#896b5a" opacity="1.00" d=" M 95.98 62.33 C 97.49 41.41 110.37 20.79 130.26 12.89 C 126.90 18.21 122.00 22.38 118.97 27.95 C 119.48 28.13 120.52 28.50 121.03 28.69 C 118.55 28.54 116.08 28.30 113.61 28.06 C 114.56 28.99 115.51 29.91 116.48 30.82 C 113.46 37.30 108.93 44.06 110.62 51.56 C 111.87 56.61 116.84 59.19 121.34 60.82 C 118.95 62.21 116.63 63.73 114.41 65.39 C 111.15 64.78 107.89 64.09 104.66 63.32 C 104.16 59.72 103.76 56.09 102.64 52.62 C 100.36 55.80 99.50 60.19 95.98 62.33 Z" />
<path fill="#896b5a" opacity="1.00" d=" M 94.93 75.02 C 96.28 74.56 97.59 73.99 98.94 73.53 C 99.93 74.60 100.93 75.66 101.93 76.74 C 99.05 80.36 97.13 84.56 95.62 88.90 C 95.40 84.28 94.98 79.66 94.93 75.02 Z" />
<path fill="#896b5a" opacity="1.00" d=" M 119.78 170.02 C 126.54 172.17 132.57 176.05 138.97 179.05 C 143.65 181.76 148.85 183.61 153.17 186.91 C 145.63 184.11 138.66 180.01 131.40 176.59 C 127.52 174.44 123.18 172.95 119.78 170.02 Z" />
<path fill="#896b5a" opacity="1.00" d=" M 144.03 174.00 C 147.49 175.28 150.34 177.72 153.11 180.10 C 149.66 178.78 146.83 176.33 144.03 174.00 Z" />
<path fill="#896b5a" opacity="1.00" d=" M 153.96 181.01 C 157.37 182.26 160.43 184.40 162.94 187.02 C 159.79 185.26 156.70 183.35 153.96 181.01 Z" />
<path fill="#896b5a" opacity="1.00" d=" M 186.16 202.09 C 187.18 202.63 188.18 203.19 189.20 203.73 C 189.11 209.13 189.26 214.53 189.84 219.90 C 186.82 216.06 182.42 213.27 180.04 209.02 C 180.90 206.00 184.09 204.30 186.16 202.09 Z" />
<path fill="#896b5a" opacity="1.00" d=" M 49.10 219.28 C 53.60 215.40 54.11 208.47 59.68 205.69 C 58.82 207.45 57.57 209.10 57.23 211.08 C 57.30 214.21 58.60 217.18 58.46 220.34 C 55.47 219.19 52.28 218.33 49.10 219.28 Z" />
<path fill="#896b5a" opacity="1.00" d=" M 26.88 231.17 C 32.82 227.98 37.58 221.88 44.68 221.37 C 36.56 226.21 28.82 231.75 21.83 238.12 C 23.48 235.80 24.55 232.90 26.88 231.17 Z" />
<path fill="#896b5a" opacity="1.00" d=" M 231.93 238.65 C 233.60 240.74 235.38 242.76 236.82 245.03 C 236.93 245.47 237.15 246.35 237.27 246.79 C 237.27 255.52 237.34 264.26 236.91 272.98 C 236.63 277.87 237.02 282.86 235.68 287.63 C 235.25 287.09 234.82 286.56 234.40 286.02 C 234.84 284.67 235.00 283.30 234.88 281.89 C 234.31 271.25 233.41 260.62 233.39 249.96 C 233.28 246.15 232.59 242.40 231.93 238.65 Z" />
<path fill="#896b5a" opacity="1.00" d=" M 109.20 241.88 C 112.85 244.36 114.92 248.38 116.59 252.34 C 117.36 254.42 118.32 256.68 117.78 258.94 C 114.24 263.97 108.50 267.66 106.83 273.89 C 105.67 278.51 104.03 283.44 105.62 288.16 C 107.38 293.85 108.84 299.64 110.85 305.26 C 112.60 305.28 114.35 305.30 116.09 305.34 C 114.49 305.52 112.88 305.65 111.27 305.76 C 109.64 305.79 108.00 305.78 106.37 305.78 C 106.05 300.47 104.21 295.39 104.19 290.05 C 104.04 281.93 104.51 273.68 106.72 265.83 C 107.38 260.56 102.75 256.78 99.81 253.02 C 102.41 248.89 105.05 244.64 109.20 241.88 Z" />
<path fill="#896b5a" opacity="1.00" d=" M 181.88 278.51 C 182.25 278.19 182.97 277.55 183.34 277.23 C 184.29 285.09 184.83 293.01 184.65 300.93 C 184.63 313.62 185.59 326.29 186.55 338.93 C 186.95 344.19 187.87 349.41 187.81 354.69 L 187.26 353.50 C 185.93 350.15 185.29 346.58 184.96 343.02 C 183.43 321.54 183.14 299.99 181.88 278.51 Z" />
<path fill="#896b5a" opacity="1.00" d=" M 129.20 290.93 C 130.94 288.25 129.29 283.67 133.02 282.58 C 133.85 288.18 133.40 293.84 132.54 299.40 C 132.00 298.03 131.36 296.68 130.79 295.33 C 130.22 293.87 129.69 292.40 129.20 290.93 Z" />
<path fill="#896b5a" opacity="1.00" d=" M 105.49 317.80 C 106.94 318.66 108.39 319.52 109.81 320.44 L 110.04 320.62 C 108.57 326.14 106.39 331.46 105.20 337.06 C 104.74 338.62 105.23 340.19 105.62 341.71 C 105.57 341.90 105.46 342.29 105.41 342.48 C 104.38 345.73 103.37 349.00 102.90 352.39 C 102.20 352.32 101.51 352.25 100.82 352.17 C 99.73 355.07 98.53 359.16 101.61 361.29 C 109.26 366.88 116.91 372.62 123.32 379.65 C 124.52 380.82 124.95 382.44 125.35 384.02 C 119.16 381.08 113.90 376.60 108.54 372.40 C 102.80 367.47 96.73 362.85 91.86 357.01 C 94.99 354.46 98.22 351.83 100.23 348.26 C 102.47 344.94 101.86 340.76 102.51 337.00 C 103.49 330.60 104.58 324.21 105.49 317.80 Z" />
<path fill="#896b5a" opacity="1.00" d=" M 137.93 342.94 C 139.12 344.12 140.37 345.23 141.58 346.40 C 142.53 347.36 143.42 348.39 144.34 349.39 C 144.85 356.50 149.55 362.66 149.79 369.90 C 149.70 371.78 150.65 375.61 147.93 375.79 C 143.06 373.19 143.38 366.72 143.34 361.98 C 143.69 355.17 140.42 349.05 137.93 342.94 Z" />
<path fill="#896b5a" opacity="1.00" d=" M 109.33 347.07 L 109.47 346.95 C 117.85 359.52 130.65 368.74 137.68 382.30 C 141.52 390.37 146.78 397.68 152.42 404.59 C 158.19 411.40 163.71 418.74 171.10 423.90 C 180.38 428.99 190.02 433.38 199.49 438.11 C 199.43 438.82 199.32 440.24 199.26 440.95 C 195.54 438.80 191.70 436.82 187.61 435.48 C 179.26 432.81 171.57 428.44 164.21 423.76 C 159.02 420.14 153.18 416.46 150.80 410.30 C 148.07 403.45 143.68 397.47 139.73 391.30 C 132.00 379.83 123.79 368.67 114.75 358.20 C 111.97 355.19 109.34 351.65 105.24 350.41 C 106.59 349.28 107.97 348.18 109.33 347.07 Z" />
<path fill="#896b5a" opacity="1.00" d=" M 239.83 357.90 C 239.56 354.26 241.14 350.89 242.82 347.77 C 242.94 348.18 243.17 349.00 243.28 349.41 C 241.17 360.12 240.51 371.02 239.54 381.87 C 238.42 390.03 238.22 398.32 237.07 406.45 C 235.94 409.68 235.41 413.07 234.76 416.42 C 231.86 416.40 232.01 420.17 231.03 422.13 C 230.37 425.62 227.72 429.48 229.82 432.88 C 228.68 432.89 227.54 432.90 226.41 432.95 C 227.74 426.99 228.34 420.89 229.97 414.99 C 232.77 404.29 235.78 393.61 237.19 382.62 C 231.42 387.00 226.88 392.75 222.26 398.28 C 218.99 402.33 216.68 407.10 212.84 410.69 C 212.74 410.22 212.54 409.27 212.44 408.79 C 213.69 407.59 214.96 406.38 215.92 404.93 C 223.42 393.78 230.96 382.65 238.34 371.41 C 241.37 367.49 239.93 362.41 239.83 357.90 Z" />
<path fill="#896b5a" opacity="1.00" d=" M 98.80 383.68 C 103.94 386.90 108.73 390.81 113.04 395.09 C 107.91 391.88 102.75 388.30 98.80 383.68 Z" />
<path fill="#896b5a" opacity="1.00" d=" M 83.58 398.56 C 86.19 395.27 88.81 391.99 91.24 388.57 C 92.51 392.50 89.01 395.09 87.39 398.22 C 86.78 401.40 87.21 404.69 87.37 407.90 C 85.34 405.37 81.10 402.11 83.58 398.56 Z" />
<path fill="#896b5a" opacity="1.00" d=" M 127.99 405.94 C 138.62 412.63 149.07 419.65 159.33 426.91 C 156.52 426.91 153.72 427.05 150.92 427.26 C 150.75 427.02 150.40 426.53 150.23 426.29 C 151.64 426.23 153.06 426.17 154.48 426.11 C 145.69 419.34 136.16 413.47 127.99 405.94 Z" />
<path fill="#896b5a" opacity="1.00" d=" M 214.78 437.57 C 215.61 438.15 216.47 438.73 217.31 439.32 C 217.90 443.14 222.16 444.48 224.49 447.11 C 221.72 448.11 218.67 447.53 216.65 445.35 C 214.26 443.49 214.94 440.20 214.78 437.57 Z" />
<path fill="#896b5a" opacity="1.00" d=" M 201.42 461.37 C 202.53 459.37 203.61 457.36 204.73 455.37 C 209.95 458.24 215.82 458.98 221.64 459.67 C 215.00 461.20 208.18 461.11 201.42 461.37 Z" />
</g>
<g id="#c9b3dcff">
<path fill="#c9b3dc" opacity="1.00" d=" M 102.64 52.62 C 103.76 56.09 104.16 59.72 104.66 63.32 C 107.89 64.09 111.15 64.78 114.41 65.39 C 111.83 67.12 109.30 68.93 106.79 70.77 C 105.53 73.04 103.68 74.87 101.93 76.74 C 100.93 75.66 99.93 74.60 98.94 73.53 C 97.59 73.99 96.28 74.56 94.93 75.02 C 95.01 70.88 95.25 66.74 95.63 62.61 L 95.98 62.33 C 99.50 60.19 100.36 55.80 102.64 52.62 Z" />
<path fill="#c9b3dc" opacity="1.00" d=" M 129.20 298.95 C 129.11 297.51 129.80 296.31 130.79 295.33 C 131.36 296.68 132.00 298.03 132.54 299.40 C 132.58 299.70 132.66 300.30 132.70 300.59 C 132.08 306.48 129.95 312.46 131.54 318.37 C 134.31 327.90 140.29 336.45 141.58 346.40 C 140.37 345.23 139.12 344.12 137.93 342.94 C 137.32 342.09 136.71 341.25 136.11 340.42 C 134.27 330.76 129.55 321.85 128.28 312.06 C 128.15 307.67 129.01 303.33 129.20 298.95 Z" />
<path fill="#c9b3dc" opacity="1.00" d=" M 106.37 305.78 C 108.00 305.78 109.64 305.79 111.27 305.76 C 111.57 310.69 111.22 315.68 109.81 320.44 C 108.39 319.52 106.94 318.66 105.49 317.80 C 105.97 313.81 106.21 309.79 106.37 305.78 Z" />
<path fill="#c9b3dc" opacity="1.00" d=" M 15.24 327.81 C 13.35 326.74 12.82 322.03 16.01 323.11 C 22.07 324.47 27.81 327.01 33.43 329.61 C 37.97 331.66 42.27 334.65 44.91 338.97 C 47.20 343.00 48.89 347.37 49.91 351.90 C 42.56 345.65 35.76 338.65 27.63 333.37 C 23.83 330.81 19.09 330.25 15.24 327.81 Z" />
<path fill="#c9b3dc" opacity="1.00" d=" M 49.00 331.92 C 54.55 336.41 58.90 342.22 64.85 346.24 C 68.35 348.63 72.62 351.87 77.07 350.22 C 83.24 347.93 88.69 344.07 94.91 341.88 C 93.05 346.65 89.76 350.73 88.21 355.64 C 86.62 357.44 85.10 359.29 84.15 361.52 C 80.80 366.54 77.04 371.60 71.97 374.98 C 67.97 376.11 65.78 370.98 61.95 370.98 C 59.46 371.49 57.33 372.97 55.09 374.10 C 55.25 372.55 54.58 370.75 55.47 369.38 C 57.69 368.09 60.37 367.87 62.61 366.58 C 64.39 365.25 63.15 363.12 62.45 361.59 C 58.64 354.09 54.86 346.59 50.63 339.32 C 49.22 337.11 48.99 334.48 49.00 331.92 Z" />
<path fill="#c9b3dc" opacity="1.00" d=" M 105.41 342.48 C 106.94 343.79 108.22 345.37 109.33 347.07 C 107.97 348.18 106.59 349.28 105.24 350.41 C 104.65 350.90 103.48 351.89 102.90 352.39 C 103.37 349.00 104.38 345.73 105.41 342.48 Z" />
<path fill="#c9b3dc" opacity="1.00" d=" M 256.28 371.28 C 258.10 370.48 259.77 368.88 261.86 368.99 C 262.98 371.29 260.70 372.89 259.00 373.93 C 253.28 377.40 247.63 380.99 241.90 384.43 C 241.99 381.02 242.50 377.65 242.85 374.26 C 247.45 374.09 252.24 373.69 256.28 371.28 Z" />
<path fill="#c9b3dc" opacity="1.00" d=" M 11.31 378.69 C 16.30 381.59 20.62 385.49 25.66 388.31 C 29.48 390.57 33.77 391.88 37.61 394.10 C 35.49 395.90 32.80 396.68 30.13 397.23 C 25.37 398.22 20.77 399.79 16.11 401.13 C 14.50 397.96 12.98 394.76 11.59 391.49 C 10.89 387.27 11.13 382.95 11.31 378.69 Z" />
<path fill="#c9b3dc" opacity="1.00" d=" M 73.84 400.84 C 77.37 396.78 81.42 392.99 86.32 390.67 C 84.07 394.93 78.05 398.27 80.26 403.84 C 82.73 408.69 87.12 412.24 89.75 417.02 C 88.38 418.18 87.26 420.56 85.08 419.80 C 79.75 418.11 75.96 413.52 73.01 408.99 C 71.19 406.49 71.81 403.01 73.84 400.84 Z" />
<path fill="#c9b3dc" opacity="1.00" d=" M 71.79 430.72 C 76.56 425.16 85.21 426.22 91.30 428.76 C 89.99 430.87 88.82 433.46 86.32 434.35 C 84.19 434.46 81.81 433.38 80.01 435.00 C 73.55 439.48 68.09 445.34 61.08 449.06 C 55.26 452.22 50.40 457.20 43.95 459.11 C 44.65 458.10 45.36 457.09 46.22 456.22 C 54.87 447.85 63.33 439.29 71.79 430.72 Z" />
<path fill="#c9b3dc" opacity="1.00" d=" M 238.22 451.39 C 239.46 448.94 240.69 446.49 241.85 444.00 C 243.08 450.49 243.56 457.31 241.68 463.73 C 240.79 467.80 240.97 473.01 244.07 476.10 C 248.07 474.60 251.10 471.31 255.15 469.88 C 252.84 473.34 248.67 474.96 246.38 478.39 C 245.41 482.08 245.38 486.90 248.33 489.75 C 251.32 489.94 254.28 489.33 257.25 489.04 C 254.49 491.72 251.46 494.24 247.88 495.72 C 245.58 496.41 243.13 496.02 240.77 496.05 C 239.32 490.81 238.90 485.35 239.62 479.97 C 239.42 472.12 237.47 464.45 236.22 456.75 C 236.50 454.85 237.44 453.12 238.22 451.39 Z" />
<path fill="#c9b3dc" opacity="1.00" d=" M 40.31 481.55 C 41.54 481.65 43.04 480.90 44.10 481.83 C 50.14 486.79 55.56 492.59 62.22 496.74 C 66.06 499.17 71.97 499.90 73.17 505.05 C 66.99 503.69 62.06 499.49 56.80 496.23 C 52.19 493.59 48.42 489.49 43.27 487.87 L 42.94 487.74 C 42.03 485.69 41.13 483.63 40.31 481.55 Z" />
</g>
<g id="#2d2532ff">
<path fill="#2d2532" opacity="1.00" d=" M 239.06 243.37 C 242.36 243.46 237.60 246.41 239.06 243.37 Z" />
</g>
<g id="#6c4430ff">
<path fill="#6c4430" opacity="1.00" d=" M 110.04 320.62 C 110.42 320.96 111.18 321.64 111.56 321.98 C 109.70 328.60 107.67 335.16 105.62 341.71 C 105.23 340.19 104.74 338.62 105.20 337.06 C 106.39 331.46 108.57 326.14 110.04 320.62 Z" />
</g>
<g id="#82614fff">
<path fill="#82614f" opacity="1.00" d=" M 96.03 405.84 C 101.29 411.95 106.06 418.55 110.35 425.39 C 107.09 426.26 105.62 423.10 104.13 420.91 C 101.07 416.10 97.33 411.50 96.03 405.84 Z" />
</g>
<g id="#e0dde5ff">
<path fill="#e0dde5" opacity="1.00" d=" M 129.22 437.40 C 130.60 437.68 130.62 441.35 129.23 441.62 C 128.43 440.42 128.40 438.59 129.22 437.40 Z" />
<path fill="#e0dde5" opacity="1.00" d=" M 132.28 454.86 C 132.43 451.42 131.27 447.54 132.85 444.39 L 133.95 444.84 C 134.19 448.34 133.65 451.97 134.92 455.34 C 134.26 455.22 132.94 454.98 132.28 454.86 Z" />
</g>
<g id="#9a8274ff">
<path fill="#9a8274" opacity="1.00" d=" M 150.79 438.97 C 151.87 437.08 153.86 436.76 155.87 437.05 C 156.26 437.97 156.66 438.90 157.06 439.84 C 156.76 440.41 156.15 441.55 155.85 442.12 C 154.63 442.09 153.40 442.06 152.18 442.04 C 151.71 441.01 151.25 439.99 150.79 438.97 M 154.37 439.13 C 154.60 442.41 157.37 437.58 154.37 439.13 Z" />
</g>
<g id="#e6e7e7ff">
<path fill="#e6e7e7" opacity="1.00" d=" M 158.59 438.88 C 159.22 437.59 160.49 437.11 161.83 436.94 C 161.74 438.62 161.45 440.33 161.75 442.02 C 161.00 442.00 159.50 441.95 158.76 441.92 C 159.80 440.70 160.76 439.40 161.54 437.99 C 160.80 438.22 159.33 438.66 158.59 438.88 Z" />
<path fill="#e6e7e7" opacity="1.00" d=" M 162.46 438.38 C 163.46 437.78 164.47 437.22 165.50 436.69 L 165.32 437.94 C 166.45 437.95 167.57 437.96 168.70 437.96 L 168.68 436.62 C 170.10 437.94 169.36 440.08 169.60 441.79 C 169.26 441.81 168.57 441.85 168.23 441.87 C 168.35 441.24 168.60 439.96 168.72 439.33 C 168.10 439.09 166.87 438.61 166.26 438.37 C 166.22 439.25 166.15 441.02 166.11 441.90 C 165.41 441.86 164.00 441.77 163.29 441.72 C 163.09 440.89 162.67 439.21 162.46 438.38 M 164.34 438.36 C 163.54 439.69 163.78 440.48 165.04 440.74 C 165.82 439.40 165.59 438.61 164.34 438.36 Z" />
<path fill="#e6e7e7" opacity="1.00" d=" M 171.33 437.38 C 172.09 437.31 173.61 437.18 174.37 437.12 C 173.70 437.45 172.36 438.13 171.69 438.46 C 172.49 438.57 174.10 438.78 174.91 438.89 C 174.01 439.42 173.10 439.92 172.17 440.40 C 173.11 440.90 173.95 441.58 174.84 442.17 C 171.26 443.65 170.52 439.88 171.33 437.38 Z" />
<path fill="#e6e7e7" opacity="1.00" d=" M 143.53 447.64 C 145.96 449.20 147.81 446.62 149.99 445.87 C 150.13 446.26 150.40 447.04 150.53 447.43 C 150.99 447.75 151.89 448.38 152.35 448.70 C 149.13 448.27 149.36 454.49 152.19 454.31 C 151.70 455.56 150.61 455.84 148.89 455.16 C 148.47 453.07 149.54 449.41 146.68 448.92 C 144.28 449.90 145.61 453.39 145.19 455.43 L 143.50 455.33 C 143.49 452.76 143.51 450.19 143.53 447.64 Z" />
<path fill="#e6e7e7" opacity="1.00" d=" M 161.34 447.69 C 163.14 447.87 165.05 447.58 166.76 448.27 C 168.41 449.69 167.96 452.18 168.01 454.12 C 168.80 455.13 166.20 456.32 166.42 455.05 C 165.81 453.20 167.08 450.23 165.10 449.20 C 161.74 449.04 163.35 453.15 163.02 455.19 C 162.61 455.30 161.79 455.54 161.38 455.66 C 161.21 453.00 161.20 450.34 161.34 447.69 Z" />
<path fill="#e6e7e7" opacity="1.00" d=" M 169.34 449.98 C 169.51 447.21 173.84 446.93 174.81 449.33 C 173.48 449.24 172.14 449.08 170.81 449.01 C 171.23 451.62 176.25 451.22 174.36 454.50 C 177.04 454.80 177.89 451.61 180.55 451.97 L 179.37 452.70 L 178.64 453.17 L 178.93 453.97 C 179.01 454.21 179.19 454.68 179.28 454.91 L 179.69 456.03 C 179.19 455.53 178.19 454.54 177.69 454.05 C 177.10 454.47 175.94 455.32 175.35 455.74 C 174.86 455.40 174.36 455.07 173.86 454.75 C 172.37 455.87 169.33 455.91 169.00 453.59 C 170.44 453.78 171.87 453.95 173.32 454.08 C 172.74 451.96 169.58 452.15 169.34 449.98 Z" />
</g>
<g id="#d8cfe1ff">
<path fill="#d8cfe1" opacity="1.00" d=" M 130.83 438.07 C 135.64 438.59 140.48 438.73 145.31 438.33 C 145.20 439.78 145.09 441.23 144.99 442.69 C 143.66 442.54 142.33 442.40 141.01 442.31 C 138.63 442.09 135.87 442.52 134.31 440.31 C 134.03 440.85 133.48 441.92 133.21 442.46 C 132.96 441.28 132.73 440.11 132.51 438.94 C 132.29 439.87 131.85 441.73 131.63 442.65 C 130.65 441.29 130.91 439.62 130.83 438.07 M 143.20 440.33 C 143.59 440.71 143.59 440.71 143.20 440.33 Z" />
</g>
<g id="#baada5ff">
<path fill="#baada5" opacity="1.00" d=" M 146.96 437.91 C 147.50 438.15 148.59 438.64 149.13 438.89 C 149.10 439.69 149.05 441.30 149.02 442.10 C 148.21 442.13 146.58 442.18 145.77 442.21 C 145.63 440.71 145.47 438.81 146.96 437.91 Z" />
</g>
<g id="#dbd4e3ff">
<path fill="#dbd4e3" opacity="1.00" d=" M 108.32 438.89 C 108.74 439.69 109.16 440.49 109.59 441.29 C 109.60 441.42 109.62 441.67 109.62 441.79 L 109.76 441.66 C 110.71 440.76 111.75 439.98 112.68 439.08 C 112.80 439.77 113.04 441.16 113.15 441.85 C 113.94 441.23 114.73 440.64 115.51 440.03 C 114.19 445.38 117.30 450.91 115.30 456.21 C 112.38 458.49 108.58 457.66 105.36 456.61 C 105.07 455.70 104.79 454.79 104.54 453.88 C 104.54 451.47 104.59 449.08 104.71 446.69 C 106.13 444.48 105.66 441.93 105.13 439.53 C 105.80 440.80 106.48 442.07 107.16 443.35 C 107.31 442.75 107.61 441.57 107.77 440.97 C 107.90 440.45 108.18 439.41 108.32 438.89 M 106.77 455.49 C 108.32 454.20 109.37 452.46 110.53 450.84 C 111.47 452.44 111.55 455.41 114.08 455.02 C 112.95 452.21 111.74 449.43 110.57 446.63 C 108.06 448.80 107.34 452.37 106.77 455.49 Z" />
</g>
<g id="#663d25ff">
<path fill="#663d25" opacity="1.00" d=" M 154.37 439.13 C 157.37 437.58 154.60 442.41 154.37 439.13 Z" />
</g>
<g id="#8d6f61ff">
<path fill="#8d6f61" opacity="1.00" d=" M 143.20 440.33 C 143.59 440.71 143.59 440.71 143.20 440.33 Z" />
</g>
<g id="#846553ff">
<path fill="#846553" opacity="1.00" d=" M 201.68 439.61 C 204.37 441.45 206.61 444.36 206.54 447.75 C 206.05 451.75 203.41 455.05 200.62 457.77 C 200.57 456.32 200.67 454.90 200.92 453.49 C 202.02 451.43 203.87 449.49 203.75 447.01 C 202.98 444.55 201.48 442.28 201.68 439.61 Z" />
</g>
<g id="#9d7d90ff">
<path fill="#9d7d90" opacity="1.00" d=" M 109.62 441.79 C 109.62 441.67 109.60 441.42 109.59 441.29 L 109.76 441.66 L 109.62 441.79 Z" />
</g>
<g id="#e0dce4ff">
<path fill="#e0dce4" opacity="1.00" d=" M 122.15 444.86 C 122.60 444.85 123.50 444.83 123.96 444.81 C 125.41 448.25 126.93 451.76 127.18 455.53 C 126.05 454.66 124.97 453.72 123.84 452.85 C 121.66 452.03 120.66 454.88 118.82 455.48 C 119.25 451.76 120.70 448.27 122.15 444.86 M 122.22 449.12 C 121.68 450.75 122.21 451.33 123.82 450.84 C 124.36 449.19 123.83 448.61 122.22 449.12 Z" />
</g>
<g id="#dcd6e3ff">
<path fill="#dcd6e3" opacity="1.00" d=" M 128.39 453.00 C 128.34 450.19 127.84 447.19 128.85 444.51 L 130.07 444.73 C 130.43 448.32 130.21 451.96 130.91 455.52 C 129.49 455.38 128.29 454.55 128.39 453.00 Z" />
</g>
<g id="#c0a5d8ff">
<path fill="#c0a5d8" opacity="1.00" d=" M 106.77 455.49 C 107.34 452.37 108.06 448.80 110.57 446.63 C 111.74 449.43 112.95 452.21 114.08 455.02 C 111.55 455.41 111.47 452.44 110.53 450.84 C 109.37 452.46 108.32 454.20 106.77 455.49 Z" />
</g>
<g id="#bd9fd7ff">
<path fill="#bd9fd7" opacity="1.00" d=" M 136.18 453.78 C 134.25 451.41 136.18 448.26 138.67 447.33 C 141.20 447.45 144.04 450.52 141.35 452.54 C 141.66 453.44 141.96 454.35 142.26 455.26 C 140.18 455.42 137.46 455.96 136.18 453.78 M 138.51 449.05 C 137.52 450.23 139.41 452.33 140.44 450.83 C 141.42 449.65 139.53 447.60 138.51 449.05 Z" />
</g>
<g id="#c2a8d9ff">
<path fill="#c2a8d9" opacity="1.00" d=" M 122.22 449.12 C 123.83 448.61 124.36 449.19 123.82 450.84 C 122.21 451.33 121.68 450.75 122.22 449.12 Z" />
</g>
<g id="#9d8679ff">
<path fill="#9d8679" opacity="1.00" d=" M 180.55 451.97 C 180.93 452.05 181.69 452.20 182.07 452.27 L 182.21 452.83 C 182.48 453.20 183.04 453.93 183.31 454.30 L 184.11 453.94 C 184.28 453.48 184.63 452.55 184.80 452.09 L 185.28 452.28 C 186.60 452.73 187.86 453.38 188.57 454.64 C 185.57 455.55 182.31 455.80 179.28 454.91 C 179.19 454.68 179.01 454.21 178.93 453.97 C 179.34 453.91 180.17 453.79 180.58 453.73 C 180.28 453.47 179.68 452.96 179.37 452.70 L 180.55 451.97 Z" />
</g>
<g id="#bfb2abff">
<path fill="#bfb2ab" opacity="1.00" d=" M 182.07 452.27 C 182.75 452.23 184.12 452.13 184.80 452.09 C 184.63 452.55 184.28 453.48 184.11 453.94 C 183.64 453.66 182.69 453.11 182.21 452.83 L 182.07 452.27 Z" />
</g>
<g id="#c3b9b2ff">
<path fill="#c3b9b2" opacity="1.00" d=" M 185.28 452.28 C 187.13 451.71 189.04 451.66 190.94 451.90 C 190.96 452.78 191.00 454.55 191.02 455.44 L 189.75 455.31 C 189.73 454.65 189.68 453.34 189.65 452.68 C 189.46 453.27 189.09 454.45 188.90 455.04 L 188.57 454.64 C 187.86 453.38 186.60 452.73 185.28 452.28 Z" />
</g>
<g id="#7d5c48ff">
<path fill="#7d5c48" opacity="1.00" d=" M 182.21 452.83 C 182.69 453.11 183.64 453.66 184.11 453.94 L 183.31 454.30 C 183.04 453.93 182.48 453.20 182.21 452.83 Z" />
</g>
<g id="#82624fff">
<path fill="#82624f" opacity="1.00" d=" M 196.28 460.98 C 196.26 459.75 197.29 458.96 198.11 458.22 C 199.36 459.31 197.79 461.96 196.28 460.98 Z" />
</g>
</svg>
