<?xml version="1.0" encoding="UTF-8" ?>
<!DOCTYPE svg PUBLIC "-//W3C//DTD SVG 1.1//EN" "http://www.w3.org/Graphics/SVG/1.1/DTD/svg11.dtd">
<svg width="279pt" height="547pt" viewBox="0 0 279 547" version="1.1" xmlns="http://www.w3.org/2000/svg">
<g id="#ffffffff">
<path fill="#ffffff" opacity="1.00" d=" M 0.00 0.00 L 279.00 0.00 L 279.00 547.00 L 0.00 547.00 L 0.00 0.00 M 123.23 12.17 C 110.54 19.45 100.99 31.79 96.81 45.79 C 90.66 64.67 92.29 85.08 96.88 104.12 C 100.31 106.72 100.89 111.70 104.74 114.05 C 103.39 118.64 101.83 123.25 99.30 127.34 C 97.67 130.14 93.81 131.34 93.34 134.83 C 92.44 139.77 93.04 145.11 95.64 149.47 C 96.62 151.09 97.21 153.25 95.99 154.93 C 94.00 157.67 91.60 160.12 90.03 163.15 C 85.83 169.81 88.84 178.14 91.63 184.78 C 84.99 185.80 78.26 186.73 71.94 189.10 C 55.05 195.03 40.85 206.95 29.83 220.83 C 22.33 230.11 16.20 240.46 11.33 251.33 C 6.17 269.39 6.29 288.39 6.23 307.01 C 5.30 318.33 3.37 329.58 3.00 340.94 C 2.94 344.02 2.90 347.17 3.88 350.13 C 5.83 356.15 7.26 362.35 8.21 368.61 C 9.27 375.35 8.20 382.16 8.85 388.93 C 9.29 394.27 8.16 399.74 9.54 404.98 C 11.90 412.01 15.47 418.64 16.84 425.98 C 18.88 438.29 19.54 451.12 24.77 462.64 C 27.24 468.25 32.60 471.77 35.54 477.07 C 39.90 484.58 42.73 492.84 46.78 500.51 C 48.70 504.07 51.96 506.55 54.97 509.13 C 58.73 512.70 62.29 516.68 64.42 521.47 C 66.09 525.76 65.49 530.45 65.37 534.94 C 65.34 537.50 64.97 540.41 66.91 542.44 C 79.75 537.78 92.94 530.99 106.99 533.08 C 105.90 519.32 103.31 505.68 100.30 492.22 C 98.97 485.91 100.95 479.02 98.07 473.06 C 95.72 469.66 93.35 465.91 94.06 461.56 C 103.75 460.66 113.52 460.75 123.21 461.71 C 133.47 462.18 143.75 461.69 154.02 461.98 C 169.34 462.52 184.68 461.63 200.00 462.05 C 206.67 461.79 213.42 462.43 220.00 460.95 C 224.89 459.82 230.25 459.05 234.11 455.55 C 235.77 464.59 237.92 473.77 237.02 483.02 C 236.81 488.79 238.69 494.28 239.85 499.84 C 240.08 506.81 242.65 513.37 245.24 519.75 C 245.62 521.13 246.63 522.09 247.92 522.67 C 250.45 519.91 253.77 517.79 257.54 517.30 C 262.44 516.42 267.29 517.84 272.15 518.31 C 273.60 518.65 275.88 517.99 275.50 516.08 C 274.27 509.58 271.81 503.38 270.68 496.85 C 268.84 489.38 269.62 481.63 269.62 474.02 C 269.48 470.65 270.58 467.06 268.99 463.90 C 266.95 460.61 271.72 457.44 269.74 454.16 C 268.91 452.88 267.48 452.18 266.34 451.23 C 267.35 449.28 268.96 447.34 268.60 445.00 C 267.28 429.01 267.04 412.95 267.74 396.93 C 268.55 385.03 269.19 373.04 267.80 361.16 C 265.87 340.87 260.04 321.27 255.77 301.42 C 253.70 291.70 253.56 281.71 251.63 271.97 C 249.36 260.25 246.37 248.49 240.92 237.80 C 238.99 234.53 237.10 230.68 233.38 229.15 C 230.52 226.15 227.51 223.29 224.17 220.83 C 213.05 212.56 201.11 205.44 188.87 198.96 L 188.61 198.46 C 188.50 190.12 188.57 181.76 188.31 173.42 C 188.55 171.67 186.48 171.24 185.69 172.67 C 182.98 175.93 179.99 178.97 177.49 182.40 C 176.61 189.51 176.80 196.74 176.03 203.87 C 175.50 203.97 174.43 204.19 173.90 204.29 C 173.14 196.51 173.66 188.44 172.20 180.82 C 155.44 170.92 138.45 161.38 121.57 151.67 C 119.69 150.30 117.38 151.53 115.80 152.76 C 110.92 156.81 109.24 163.24 107.55 169.08 C 106.39 172.74 106.62 177.02 103.85 180.00 C 102.14 177.67 101.24 174.91 100.89 172.08 C 99.77 163.78 100.52 155.35 99.41 147.05 C 98.89 143.10 98.30 139.15 98.52 135.16 C 103.96 136.67 107.15 142.37 112.72 143.66 C 109.94 132.38 113.12 120.73 116.86 110.06 C 118.71 104.03 123.71 99.45 124.78 93.15 C 126.38 86.02 125.35 78.65 125.40 71.51 C 137.91 66.33 151.46 63.97 164.92 63.08 C 178.75 62.51 193.76 64.00 205.05 72.78 C 208.44 74.88 208.48 79.42 208.69 82.98 C 208.17 100.35 207.39 117.72 206.43 135.07 C 206.21 137.57 206.29 140.13 205.65 142.57 C 202.10 147.07 196.64 149.95 193.80 155.00 C 194.70 158.66 198.26 164.58 202.62 161.64 C 207.01 158.90 211.55 155.54 213.53 150.59 C 213.98 147.44 211.82 144.56 211.69 141.41 C 210.31 128.06 211.80 114.63 213.23 101.35 C 217.62 97.77 221.97 93.97 225.36 89.41 C 227.97 85.00 231.87 81.51 234.40 77.06 C 237.54 68.50 236.36 58.41 230.84 51.06 C 229.43 46.58 228.63 41.87 226.51 37.62 C 219.56 20.34 203.02 8.21 185.11 4.25 C 164.48 -1.16 141.73 1.39 123.23 12.17 Z" />
<path fill="#ffffff" opacity="1.00" d=" M 102.14 82.15 C 105.21 80.67 108.63 79.19 112.10 80.08 C 115.62 80.99 117.46 85.56 115.78 88.72 C 111.92 96.81 107.88 104.83 104.62 113.19 C 101.72 105.24 97.57 96.66 100.02 88.06 C 100.49 86.01 101.29 84.06 102.14 82.15 Z" />
</g>
<g id="#000000ff">
<path fill="#000000" opacity="1.00" d=" M 123.23 12.17 C 141.73 1.39 164.48 -1.16 185.11 4.25 C 203.02 8.21 219.56 20.34 226.51 37.62 C 228.63 41.87 229.43 46.58 230.84 51.06 C 236.36 58.41 237.54 68.50 234.40 77.06 C 231.87 81.51 227.97 85.00 225.36 89.41 C 221.97 93.97 217.62 97.77 213.23 101.35 C 211.80 114.63 210.31 128.06 211.69 141.41 C 211.82 144.56 213.98 147.44 213.53 150.59 C 211.55 155.54 207.01 158.90 202.62 161.64 C 198.26 164.58 194.70 158.66 193.80 155.00 C 196.64 149.95 202.10 147.07 205.65 142.57 C 206.29 140.13 206.21 137.57 206.43 135.07 C 207.39 117.72 208.17 100.35 208.69 82.98 C 208.48 79.42 208.44 74.88 205.05 72.78 C 193.76 64.00 178.75 62.51 164.92 63.08 C 151.46 63.97 137.91 66.33 125.40 71.51 C 125.35 78.65 126.38 86.02 124.78 93.15 C 123.71 99.45 118.71 104.03 116.86 110.06 C 113.12 120.73 109.94 132.38 112.72 143.66 C 107.15 142.37 103.96 136.67 98.52 135.16 C 98.30 139.15 98.89 143.10 99.41 147.05 C 100.52 155.35 99.77 163.78 100.89 172.08 C 101.24 174.91 102.14 177.67 103.85 180.00 C 106.62 177.02 106.39 172.74 107.55 169.08 C 109.24 163.24 110.92 156.81 115.80 152.76 C 117.38 151.53 119.69 150.30 121.57 151.67 C 138.45 161.38 155.44 170.92 172.20 180.82 C 173.66 188.44 173.14 196.51 173.90 204.29 C 174.43 204.19 175.50 203.97 176.03 203.87 C 176.80 196.74 176.61 189.51 177.49 182.40 C 179.99 178.97 182.98 175.93 185.69 172.67 C 186.48 171.24 188.55 171.67 188.31 173.42 C 188.57 181.76 188.50 190.12 188.61 198.46 L 188.87 198.96 C 201.11 205.44 213.05 212.56 224.17 220.83 C 227.51 223.29 230.52 226.15 233.38 229.15 C 237.10 230.68 238.99 234.53 240.92 237.80 C 246.37 248.49 249.36 260.25 251.63 271.97 C 253.56 281.71 253.70 291.70 255.77 301.42 C 260.04 321.27 265.87 340.87 267.80 361.16 C 269.19 373.04 268.55 385.03 267.74 396.93 C 267.04 412.95 267.28 429.01 268.60 445.00 C 268.96 447.34 267.35 449.28 266.34 451.23 C 267.48 452.18 268.91 452.88 269.74 454.16 C 271.72 457.44 266.95 460.61 268.99 463.90 C 270.58 467.06 269.48 470.65 269.62 474.02 C 269.62 481.63 268.84 489.38 270.68 496.85 C 271.81 503.38 274.27 509.58 275.50 516.08 C 275.88 517.99 273.60 518.65 272.15 518.31 C 267.29 517.84 262.44 516.42 257.54 517.30 C 253.77 517.79 250.45 519.91 247.92 522.67 C 246.63 522.09 245.62 521.13 245.24 519.75 C 242.65 513.37 240.08 506.81 239.85 499.84 C 238.69 494.28 236.81 488.79 237.02 483.02 C 237.92 473.77 235.77 464.59 234.11 455.55 C 230.25 459.05 224.89 459.82 220.00 460.95 C 213.42 462.43 206.67 461.79 200.00 462.05 C 184.68 461.63 169.34 462.52 154.02 461.98 C 143.75 461.69 133.47 462.18 123.21 461.71 C 113.52 460.75 103.75 460.66 94.06 461.56 C 93.35 465.91 95.72 469.66 98.07 473.06 C 100.95 479.02 98.97 485.91 100.30 492.22 C 103.31 505.68 105.90 519.32 106.99 533.08 C 92.94 530.99 79.75 537.78 66.91 542.44 C 64.97 540.41 65.34 537.50 65.37 534.94 C 65.49 530.45 66.09 525.76 64.42 521.47 C 62.29 516.68 58.73 512.70 54.97 509.13 C 51.96 506.55 48.70 504.07 46.78 500.51 C 42.73 492.84 39.90 484.58 35.54 477.07 C 32.60 471.77 27.24 468.25 24.77 462.64 C 19.54 451.12 18.88 438.29 16.84 425.98 C 15.47 418.64 11.90 412.01 9.54 404.98 C 8.16 399.74 9.29 394.27 8.85 388.93 C 8.20 382.16 9.27 375.35 8.21 368.61 C 7.26 362.35 5.83 356.15 3.88 350.13 C 2.90 347.17 2.94 344.02 3.00 340.94 C 3.37 329.58 5.30 318.33 6.23 307.01 C 6.29 288.39 6.17 269.39 11.33 251.33 C 16.20 240.46 22.33 230.11 29.83 220.83 C 40.85 206.95 55.05 195.03 71.94 189.10 C 78.26 186.73 84.99 185.80 91.63 184.78 C 88.84 178.14 85.83 169.81 90.03 163.15 C 91.60 160.12 94.00 157.67 95.99 154.93 C 97.21 153.25 96.62 151.09 95.64 149.47 C 93.04 145.11 92.44 139.77 93.34 134.83 C 93.81 131.34 97.67 130.14 99.30 127.34 C 101.83 123.25 103.39 118.64 104.74 114.05 C 100.89 111.70 100.31 106.72 96.88 104.12 C 92.29 85.08 90.66 64.67 96.81 45.79 C 100.99 31.79 110.54 19.45 123.23 12.17 M 155.97 3.84 L 155.70 3.61 C 146.92 5.28 137.76 6.78 129.85 11.10 C 129.23 11.35 127.98 11.86 127.36 12.11 C 117.74 17.06 109.35 24.67 104.11 34.20 C 94.93 50.09 93.90 69.20 95.75 87.07 C 97.21 81.60 100.08 76.65 103.87 72.47 C 109.07 67.16 114.94 62.52 121.38 58.81 C 127.85 54.60 135.92 53.71 142.03 48.88 C 148.06 44.44 155.14 41.72 162.26 39.58 C 179.03 34.45 197.33 35.17 213.94 40.59 C 218.60 42.33 223.10 44.55 227.01 47.67 C 223.22 29.15 208.78 13.34 190.55 8.24 C 179.60 4.24 167.57 2.57 155.97 3.84 M 145.42 48.98 C 153.84 47.39 162.35 45.82 170.96 45.99 C 187.65 45.64 205.02 50.04 217.97 60.97 C 223.68 65.71 228.38 72.43 228.38 80.13 C 236.70 70.67 233.53 54.49 223.28 47.70 C 214.10 41.51 202.90 39.22 192.03 38.35 C 175.96 37.38 159.26 40.52 145.42 48.98 M 102.14 82.15 C 101.29 84.06 100.49 86.01 100.02 88.06 C 97.57 96.66 101.72 105.24 104.62 113.19 C 107.88 104.83 111.92 96.81 115.78 88.72 C 117.46 85.56 115.62 80.99 112.10 80.08 C 108.63 79.19 105.21 80.67 102.14 82.15 M 110.70 166.47 C 108.77 171.40 109.23 177.36 105.38 181.41 C 110.23 187.96 116.25 193.71 120.05 200.99 C 121.53 203.64 120.25 207.78 123.38 209.36 C 127.42 210.46 131.92 209.23 135.76 211.21 C 136.80 213.27 134.33 214.10 132.95 214.95 C 128.97 216.73 124.45 218.22 120.07 217.24 C 115.39 214.15 117.48 206.44 112.37 203.75 C 104.87 199.47 97.40 194.29 93.06 186.63 C 85.70 188.40 78.10 189.14 71.04 191.99 C 49.58 200.22 32.96 217.65 21.28 237.01 C 29.50 229.14 38.78 222.34 48.99 217.30 C 51.85 216.47 54.74 216.89 57.37 218.22 C 72.79 227.35 87.08 238.48 99.82 251.10 C 102.74 254.60 106.67 258.08 106.87 262.95 C 105.48 268.64 104.29 274.43 104.43 280.32 C 103.49 287.27 104.70 294.24 106.14 301.02 C 106.83 313.34 103.66 325.43 102.18 337.58 C 102.88 345.07 97.44 350.95 91.82 355.01 C 90.23 356.43 87.66 357.57 87.71 360.04 C 88.41 366.03 93.13 370.86 93.15 377.01 C 93.37 380.28 92.12 383.34 91.05 386.36 C 89.00 390.37 85.73 393.51 83.21 397.18 C 81.60 400.69 85.51 403.42 87.34 405.93 C 91.29 410.90 94.92 416.48 95.88 422.90 C 97.87 434.90 96.02 447.08 94.25 458.98 C 105.15 457.73 116.12 458.26 127.02 459.17 C 150.17 459.22 173.31 459.79 196.45 459.08 C 197.93 459.95 199.30 457.52 198.36 456.38 C 198.25 450.55 198.24 444.70 199.28 438.94 C 199.34 438.26 199.48 436.91 199.55 436.23 C 200.07 424.11 197.56 412.12 194.21 400.54 C 190.62 381.29 188.96 361.73 187.13 342.25 C 185.90 329.88 185.13 317.47 184.71 305.05 C 184.47 298.05 185.17 290.99 184.00 284.05 L 183.74 284.59 C 183.32 284.39 182.50 284.00 182.08 283.81 C 182.62 283.81 183.70 283.82 184.24 283.83 C 181.99 257.99 177.98 232.36 173.89 206.76 C 173.31 206.67 172.15 206.49 171.57 206.40 C 170.99 198.45 170.63 190.48 170.31 182.52 C 153.59 172.63 136.61 163.18 119.85 153.37 C 114.29 155.31 112.48 161.48 110.70 166.47 M 179.62 183.38 C 178.91 190.59 178.93 197.87 178.22 205.08 C 177.74 205.48 176.78 206.29 176.30 206.69 C 177.65 214.22 178.61 221.82 180.04 229.33 C 181.21 238.93 182.71 248.51 183.98 258.10 C 184.89 266.89 186.11 275.65 186.72 284.47 C 187.21 289.96 187.22 295.47 187.15 300.98 C 187.21 314.72 188.33 328.43 189.52 342.12 C 190.70 355.40 192.17 368.65 193.74 381.89 C 194.80 389.72 195.48 397.67 197.82 405.26 C 200.52 415.71 202.40 426.52 201.74 437.35 C 201.65 438.11 201.45 439.63 201.35 440.39 C 200.81 444.15 200.48 447.96 200.66 451.76 C 200.67 453.11 200.70 454.47 200.73 455.83 C 200.75 457.05 200.79 458.26 200.84 459.49 L 201.54 458.96 C 208.31 459.60 215.23 459.34 221.84 457.65 C 226.30 456.62 232.16 455.87 234.03 450.99 C 237.34 443.72 235.00 435.66 235.35 428.03 C 235.69 421.55 236.26 415.08 236.89 408.63 C 238.12 394.57 239.57 380.52 240.68 366.44 L 240.73 366.37 C 241.20 357.03 243.45 347.93 244.94 338.73 L 245.28 337.52 C 248.03 319.51 248.62 301.10 246.24 283.01 C 244.59 269.65 241.80 256.30 237.02 243.69 C 236.50 241.68 235.83 239.70 234.93 237.84 C 233.61 231.49 228.49 227.14 223.73 223.22 C 212.91 214.97 201.19 207.96 189.16 201.63 C 188.15 201.10 187.14 200.58 186.14 200.06 C 185.65 192.03 185.81 183.97 185.75 175.93 C 183.72 178.42 181.32 180.64 179.62 183.38 M 41.55 224.70 C 30.50 231.92 19.68 240.74 13.71 252.77 C 8.38 270.95 8.80 290.11 8.56 308.87 C 7.56 320.26 5.72 331.59 5.48 343.04 C 5.29 348.03 7.52 352.60 8.52 357.39 C 10.03 364.49 11.59 371.70 11.18 379.00 C 10.76 385.67 12.07 392.32 11.53 398.98 C 10.79 404.16 13.87 408.68 15.57 413.33 C 22.41 428.42 20.38 445.80 26.94 460.98 C 28.58 465.06 31.65 468.28 34.59 471.45 C 37.25 474.26 38.96 477.78 40.97 481.05 C 41.28 482.20 41.80 483.32 42.58 484.24 C 44.99 490.57 47.10 497.28 51.23 502.74 C 57.35 508.32 64.26 513.85 67.12 521.93 C 68.71 527.63 67.61 533.62 67.87 539.45 C 79.51 534.79 91.61 529.59 104.42 530.35 C 103.24 521.47 102.00 512.60 100.26 503.81 C 99.24 498.91 97.56 494.10 97.44 489.05 C 97.16 484.69 97.66 480.24 96.61 475.96 C 95.24 472.50 92.03 469.85 91.75 465.95 C 90.99 458.78 92.97 451.71 93.38 444.58 C 94.33 434.61 95.09 423.49 89.51 414.65 C 87.25 410.94 84.28 407.76 81.68 404.31 C 79.95 402.15 79.09 398.95 80.50 396.43 C 82.25 393.56 84.85 391.34 86.49 388.40 L 86.74 388.25 C 88.89 384.56 90.79 380.34 90.06 375.96 C 88.73 369.86 83.70 364.57 84.75 358.02 C 85.37 357.03 86.04 356.08 86.65 355.10 C 91.66 351.18 98.07 347.12 98.67 340.15 C 99.76 328.71 102.31 317.46 103.08 305.99 C 103.54 300.53 100.97 295.43 101.04 290.00 C 100.96 282.53 100.64 274.95 102.46 267.64 C 102.89 265.25 104.29 262.64 102.76 260.35 C 99.89 255.40 95.66 251.43 91.53 247.53 C 82.50 239.41 72.84 231.98 62.74 225.24 C 59.59 223.31 56.58 221.04 53.08 219.81 C 48.76 219.73 45.15 222.67 41.55 224.70 M 244.57 259.21 C 249.03 277.12 251.43 295.77 250.14 314.22 L 250.41 314.39 C 250.24 314.42 249.90 314.47 249.73 314.50 C 251.32 319.75 249.02 325.35 249.23 330.78 C 247.64 340.96 245.49 351.05 243.87 361.22 C 243.79 362.03 243.64 363.64 243.56 364.45 C 243.15 367.16 242.94 369.90 242.83 372.64 C 242.43 375.94 242.02 379.24 241.88 382.56 C 241.26 389.67 240.24 396.77 240.14 403.92 C 240.02 404.23 239.78 404.85 239.67 405.15 C 239.28 411.77 238.50 418.36 238.01 424.97 C 237.44 433.22 239.52 441.45 238.19 449.66 C 237.47 451.15 236.73 452.64 236.33 454.26 C 237.40 463.46 240.40 472.61 239.33 481.96 C 238.99 486.04 239.80 490.11 240.80 494.06 C 241.64 496.65 242.28 499.32 242.49 502.06 C 242.90 507.96 245.61 513.34 247.52 518.84 C 254.42 512.46 264.39 514.10 272.82 515.50 C 270.96 507.02 267.94 498.76 267.15 490.08 C 266.86 483.05 266.98 476.01 267.26 468.98 C 267.57 466.52 266.25 464.34 265.72 462.03 C 265.83 459.79 266.88 457.76 267.64 455.71 C 266.11 454.40 263.69 453.36 263.77 450.99 C 264.69 448.77 266.33 446.67 265.79 444.11 C 264.51 426.78 264.22 409.36 265.39 392.01 C 265.78 384.68 266.18 377.34 265.76 370.00 C 265.22 356.88 262.60 343.98 259.86 331.18 C 256.47 316.86 252.42 302.65 250.81 287.98 C 249.44 272.57 246.19 257.19 240.16 242.91 C 241.10 248.47 243.47 253.67 244.57 259.21 Z" />
</g>
<g id="#ff7a1aff">
<path fill="#ff7a1a" opacity="1.00" d=" M 155.97 3.84 C 167.57 2.57 179.60 4.24 190.55 8.24 C 202.79 14.79 210.47 27.47 213.94 40.59 C 197.33 35.17 179.03 34.45 162.26 39.58 C 163.05 29.82 163.59 19.71 160.68 10.23 C 159.95 7.59 158.11 5.49 155.97 3.84 Z" />
<path fill="#ff7a1a" opacity="1.00" d=" M 110.70 166.47 C 112.48 161.48 114.29 155.31 119.85 153.37 C 136.61 163.18 153.59 172.63 170.31 182.52 C 170.63 190.48 170.99 198.45 171.57 206.40 C 172.15 206.49 173.31 206.67 173.89 206.76 C 177.98 232.36 181.99 257.99 184.24 283.83 C 183.70 283.82 182.62 283.81 182.08 283.81 C 176.37 284.48 170.64 283.84 164.93 283.76 C 144.79 283.20 124.70 281.75 104.58 281.11 C 105.71 277.31 106.14 273.30 107.65 269.62 C 109.89 264.84 114.26 261.60 117.41 257.48 C 118.50 256.08 117.76 254.18 117.41 252.64 C 115.76 247.83 113.44 242.94 109.22 239.86 C 105.10 242.68 102.35 246.89 99.82 251.10 C 87.08 238.48 72.79 227.35 57.37 218.22 C 57.66 217.98 58.24 217.49 58.53 217.25 C 58.34 214.49 57.24 211.87 57.24 209.09 C 57.68 207.11 58.79 205.36 59.66 203.55 C 54.13 206.51 53.65 213.50 48.99 217.30 C 38.78 222.34 29.50 229.14 21.28 237.01 C 32.96 217.65 49.58 200.22 71.04 191.99 C 78.10 189.14 85.70 188.40 93.06 186.63 C 97.40 194.29 104.87 199.47 112.37 203.75 C 117.48 206.44 115.39 214.15 120.07 217.24 C 124.45 218.22 128.97 216.73 132.95 214.95 C 134.33 214.10 136.80 213.27 135.76 211.21 C 131.92 209.23 127.42 210.46 123.38 209.36 C 120.25 207.78 121.53 203.64 120.05 200.99 C 116.25 193.71 110.23 187.96 105.38 181.41 C 109.23 177.36 108.77 171.40 110.70 166.47 M 119.76 168.07 C 122.75 170.30 126.21 171.75 129.49 173.47 C 137.39 177.29 145.08 181.60 153.20 184.95 C 149.62 182.32 145.46 180.68 141.59 178.54 C 134.33 175.04 127.39 170.75 119.76 168.07 Z" />
<path fill="#ff7a1a" opacity="1.00" d=" M 179.62 183.38 C 181.32 180.64 183.72 178.42 185.75 175.93 C 185.81 183.97 185.65 192.03 186.14 200.06 C 183.77 202.18 181.53 204.45 179.52 206.92 C 182.46 210.61 185.86 213.89 189.48 216.91 C 189.33 211.82 189.16 206.72 189.16 201.63 C 201.19 207.96 212.91 214.97 223.73 223.22 C 228.49 227.14 233.61 231.49 234.93 237.84 C 233.57 235.77 232.00 233.86 230.41 231.97 C 231.19 236.37 232.81 240.60 233.26 245.07 C 233.79 257.71 233.79 270.44 235.36 283.01 C 236.25 281.47 236.63 279.73 236.65 277.97 C 237.12 266.55 237.56 255.11 237.02 243.69 C 241.80 256.30 244.59 269.65 246.24 283.01 C 226.53 285.68 206.55 284.61 186.72 284.47 C 186.11 275.65 184.89 266.89 183.98 258.10 C 183.85 248.62 183.27 239.15 182.44 229.71 C 182.19 226.60 181.54 223.54 180.43 220.63 C 180.21 223.52 180.06 226.42 180.04 229.33 C 178.61 221.82 177.65 214.22 176.30 206.69 C 176.78 206.29 177.74 205.48 178.22 205.08 C 178.93 197.87 178.91 190.59 179.62 183.38 Z" />
<path fill="#ff7a1a" opacity="1.00" d=" M 104.65 337.84 C 115.52 338.57 126.38 339.49 137.26 340.05 C 139.92 346.11 143.49 352.13 143.30 358.97 C 143.39 364.38 142.87 371.84 148.92 374.33 C 149.58 372.27 150.16 370.13 149.79 367.96 C 148.71 358.23 143.51 349.66 141.07 340.28 C 155.70 341.24 170.34 341.68 184.99 342.08 C 185.53 342.12 186.59 342.20 187.13 342.25 C 188.96 361.73 190.62 381.29 194.21 400.54 C 197.56 412.12 200.07 424.11 199.55 436.23 C 190.98 431.84 182.25 427.76 173.69 423.37 C 167.44 420.28 162.97 414.76 158.37 409.71 C 150.59 400.60 142.84 391.23 137.70 380.31 C 129.15 364.31 113.24 353.81 104.65 337.84 Z" />
<path fill="#ff7a1a" opacity="1.00" d=" M 189.52 342.12 C 208.13 341.87 227.21 342.72 245.28 337.52 L 244.94 338.73 C 243.94 342.58 242.38 346.24 240.92 349.93 C 238.75 355.19 240.34 360.93 240.73 366.37 L 240.68 366.44 C 234.05 375.34 228.27 384.84 221.96 393.97 C 218.85 398.84 215.04 403.29 212.59 408.56 C 216.90 405.40 218.87 400.26 222.25 396.28 C 226.85 390.69 231.51 385.04 237.20 380.52 C 234.99 399.39 227.00 417.18 226.32 436.28 C 229.16 432.18 228.75 426.94 230.33 422.37 C 231.47 417.33 234.18 412.94 236.89 408.63 C 236.26 415.08 235.69 421.55 235.35 428.03 C 235.00 435.66 237.34 443.72 234.03 450.99 C 232.16 455.87 226.30 456.62 221.84 457.65 C 215.94 457.20 210.06 456.09 204.75 453.36 C 203.74 455.25 202.74 457.16 201.54 458.96 L 200.84 459.49 C 200.79 458.26 200.75 457.05 200.73 455.83 C 203.30 452.94 206.10 449.77 206.53 445.75 C 206.74 442.24 204.02 439.62 201.74 437.35 C 202.40 426.52 200.52 415.71 197.82 405.26 C 195.48 397.67 194.80 389.72 193.74 381.89 C 192.17 368.65 190.70 355.40 189.52 342.12 M 201.82 418.68 C 205.39 424.16 210.58 428.46 213.65 434.31 C 215.02 436.53 214.53 439.28 215.32 441.69 C 217.15 444.68 221.00 446.65 224.40 445.06 C 221.90 442.41 218.19 440.90 216.66 437.41 C 214.47 433.06 211.78 428.98 208.74 425.17 C 206.74 422.72 204.79 420.03 201.82 418.68 Z" />
<path fill="#ff7a1a" opacity="1.00" d=" M 99.69 355.99 C 99.18 352.76 100.92 347.98 104.84 348.32 C 108.26 348.88 110.58 351.81 112.91 354.13 C 122.56 364.93 131.14 376.64 139.28 388.61 C 143.53 395.16 148.13 401.58 151.09 408.86 C 153.42 414.52 158.80 417.96 163.60 421.35 C 170.92 426.06 178.54 430.47 186.84 433.21 C 191.20 434.62 195.31 436.66 199.28 438.94 C 198.24 444.70 198.25 450.55 198.36 456.38 C 197.27 456.81 196.39 457.85 196.45 459.08 C 173.31 459.79 150.17 459.22 127.02 459.17 C 116.12 458.26 105.15 457.73 94.25 458.98 C 96.02 447.08 97.87 434.90 95.88 422.90 C 94.92 416.48 91.29 410.90 87.34 405.93 C 87.17 402.73 86.74 399.46 87.37 396.30 C 88.92 393.07 92.76 390.36 91.05 386.36 C 92.12 383.34 93.37 380.28 93.15 377.01 C 93.13 370.86 88.41 366.03 87.71 360.04 C 87.66 357.57 90.23 356.43 91.82 355.01 C 97.13 361.12 103.47 366.19 109.70 371.31 C 114.72 375.19 119.58 379.44 125.45 382.00 C 124.84 379.96 123.94 378.00 122.35 376.53 C 116.58 370.63 110.14 365.42 103.39 360.68 C 101.80 359.47 99.85 358.18 99.69 355.99 M 98.84 381.76 C 102.92 386.24 107.99 389.78 113.07 393.05 C 108.55 389.03 103.92 385.04 98.84 381.76 M 95.96 403.81 C 96.56 406.09 97.42 408.31 98.64 410.33 C 102.93 417.51 107.82 424.34 113.17 430.77 C 114.08 431.93 115.32 432.72 116.55 433.51 C 115.30 429.77 112.87 426.65 110.68 423.43 C 105.88 416.82 101.43 409.89 95.96 403.81 M 127.69 403.80 C 129.41 405.64 131.34 407.26 133.38 408.75 C 140.85 414.29 148.18 420.07 156.11 424.95 C 157.84 426.06 159.76 426.79 161.72 427.40 C 159.45 423.91 155.50 422.20 152.27 419.78 C 144.09 414.45 136.22 408.55 127.69 403.80 M 129.73 440.65 C 129.87 438.61 129.89 436.56 129.78 434.53 C 128.08 436.02 128.33 439.02 129.73 440.65 M 158.59 437.16 C 159.27 436.86 160.62 436.24 161.30 435.93 C 160.55 437.41 159.65 438.80 158.68 440.14 C 159.58 440.15 161.39 440.17 162.30 440.18 C 160.97 438.55 163.08 436.67 161.85 435.11 C 160.06 434.30 159.23 435.72 158.59 437.16 M 163.34 435.31 C 163.24 436.76 163.10 438.22 163.01 439.68 C 163.80 439.73 165.38 439.83 166.17 439.88 C 166.43 438.26 166.33 436.61 165.79 435.06 C 165.18 435.12 163.95 435.25 163.34 435.31 M 167.23 435.94 C 167.56 437.34 167.94 438.72 168.26 440.14 C 168.67 440.13 169.49 440.12 169.90 440.12 C 169.90 438.31 169.89 436.51 169.87 434.71 C 168.98 435.11 168.10 435.52 167.23 435.94 M 171.30 435.40 C 171.24 436.79 171.15 438.19 171.09 439.59 C 171.88 439.69 173.46 439.89 174.25 439.99 C 174.27 438.35 174.15 436.71 173.87 435.10 C 173.23 435.17 171.95 435.32 171.30 435.40 M 134.89 436.16 C 134.24 437.15 134.50 439.43 135.77 439.75 C 136.35 438.72 136.29 436.38 134.89 436.16 M 137.37 435.86 C 137.78 436.35 138.61 437.32 139.03 437.81 C 138.34 437.62 136.98 437.24 136.30 437.05 C 136.37 437.81 136.52 439.34 136.59 440.10 C 137.93 440.23 139.27 440.26 140.61 440.27 C 140.77 438.02 140.40 435.16 137.37 435.86 M 141.73 436.59 C 140.89 437.69 141.32 439.00 141.57 440.22 C 142.71 440.40 143.84 440.58 144.97 440.78 C 144.89 440.09 144.73 438.69 144.65 438.00 C 145.50 438.90 146.38 439.77 147.31 440.62 C 148.96 440.55 148.53 438.09 149.04 437.00 C 148.53 436.78 147.51 436.33 147.00 436.10 C 146.53 436.58 145.60 437.54 145.14 438.02 C 145.24 435.66 143.00 436.50 141.73 436.59 M 111.48 440.30 C 110.76 440.32 109.32 440.34 108.59 440.35 C 108.91 439.74 109.55 438.50 109.87 437.89 C 109.17 437.84 107.78 437.76 107.09 437.71 C 107.37 438.54 107.65 439.37 107.94 440.20 C 107.53 440.35 106.72 440.65 106.31 440.80 L 105.85 442.41 C 102.77 445.31 104.35 450.90 104.96 454.74 C 108.61 456.34 112.73 456.44 116.06 453.99 C 115.80 450.23 116.59 446.33 115.33 442.71 C 114.42 440.97 115.57 439.24 116.00 437.56 C 114.71 438.37 113.59 439.41 112.54 440.51 C 112.55 439.64 112.59 437.90 112.60 437.03 C 111.18 437.65 111.06 438.90 111.48 440.30 M 131.67 439.64 C 131.67 438.95 131.66 437.57 131.66 436.88 C 130.30 436.56 130.31 439.96 131.67 439.64 M 132.88 436.69 C 132.38 438.16 132.70 439.14 133.84 439.63 C 134.37 438.15 134.05 437.17 132.88 436.69 M 154.32 438.78 C 156.66 440.34 157.42 435.41 154.66 436.53 C 154.57 437.09 154.41 438.21 154.32 438.78 M 128.57 442.31 C 128.53 445.41 128.33 448.53 128.61 451.63 C 128.62 453.01 130.20 453.25 131.12 453.85 C 130.12 450.97 130.21 447.91 130.25 444.92 C 130.62 443.64 129.83 442.45 128.57 442.31 M 132.38 442.40 C 132.27 445.75 132.02 449.14 132.42 452.49 C 133.12 452.76 134.51 453.32 135.20 453.59 C 133.22 450.31 134.20 446.36 134.01 442.74 C 133.60 442.65 132.79 442.48 132.38 442.40 M 118.58 453.26 C 120.12 453.19 121.06 452.34 121.39 450.70 C 122.53 450.68 123.67 450.66 124.81 450.66 C 125.11 452.25 126.00 453.15 127.48 453.35 C 126.29 449.44 125.51 445.18 122.89 441.93 C 120.87 445.46 119.84 449.42 118.58 453.26 M 145.57 446.39 C 145.11 446.13 144.19 445.62 143.73 445.36 C 143.71 446.13 143.66 447.66 143.64 448.42 C 143.07 448.24 141.95 447.89 141.39 447.71 L 141.98 446.61 C 139.27 444.71 134.93 446.24 135.53 449.96 C 135.30 453.41 141.67 455.12 142.29 451.59 C 141.44 451.71 139.75 451.94 138.91 452.06 C 138.26 451.46 137.60 450.88 136.95 450.30 C 138.56 450.03 140.17 449.75 141.77 449.45 C 143.14 450.39 143.77 451.88 143.73 453.52 C 144.11 453.45 144.85 453.31 145.22 453.25 C 145.22 450.85 144.90 448.25 146.71 446.34 C 149.03 447.80 148.66 450.60 148.92 452.98 C 149.84 453.23 150.77 453.48 151.69 453.73 C 151.78 453.38 151.96 452.67 152.05 452.32 C 149.35 452.23 150.59 449.23 150.13 447.63 C 150.67 447.26 151.76 446.52 152.31 446.15 C 150.88 446.01 150.12 445.24 150.03 443.85 C 148.48 444.58 146.94 445.37 145.57 446.39 M 154.26 446.32 C 151.45 448.08 152.47 453.35 156.00 453.44 C 158.49 453.89 160.72 451.32 160.09 448.90 C 159.92 446.15 156.41 444.87 154.26 446.32 M 161.23 445.77 C 161.22 448.38 161.25 451.00 161.39 453.62 C 161.80 453.53 162.60 453.34 163.01 453.25 C 162.99 451.42 162.99 449.60 162.95 447.78 C 163.83 447.51 164.74 447.32 165.65 447.21 C 166.31 449.42 166.30 451.77 166.70 454.04 C 168.80 452.76 167.96 449.98 167.80 448.01 C 167.23 444.93 163.45 446.02 161.23 445.77 M 169.33 448.04 C 169.72 450.05 172.48 450.09 173.33 451.91 C 171.77 452.00 170.21 452.10 168.65 452.21 C 170.26 453.72 174.04 454.34 174.74 451.66 C 174.96 449.16 171.47 449.20 170.65 447.15 C 171.99 447.14 173.33 447.25 174.68 447.29 C 174.52 446.93 174.22 446.20 174.07 445.84 C 172.28 445.68 169.42 445.54 169.33 448.04 M 178.08 449.82 C 177.13 450.98 176.21 452.15 175.28 453.33 C 179.89 453.62 184.50 453.34 189.11 453.41 C 189.21 452.83 189.42 451.68 189.52 451.10 C 189.86 451.85 190.55 453.35 190.89 454.10 C 190.93 453.01 191.02 450.82 191.06 449.73 C 186.73 449.53 182.40 449.80 178.08 449.82 Z" />
<path fill="#ff7a1a" opacity="1.00" d=" M 164.38 436.35 C 165.63 436.66 165.84 437.46 165.02 438.76 C 163.77 438.44 163.56 437.64 164.38 436.35 Z" />
<path fill="#ff7a1a" opacity="1.00" d=" M 142.73 438.12 C 143.16 438.42 143.16 438.42 142.73 438.12 Z" />
<path fill="#ff7a1a" opacity="1.00" d=" M 172.53 438.24 C 173.02 438.73 173.02 438.73 172.53 438.24 Z" />
<path fill="#ff7a1a" opacity="1.00" d=" M 122.22 449.01 C 120.98 448.04 122.31 445.34 123.79 446.45 C 125.18 447.44 123.81 450.23 122.22 449.01 Z" />
<path fill="#ff7a1a" opacity="1.00" d=" M 155.41 447.50 C 158.69 445.72 159.53 452.37 156.08 452.01 C 154.21 451.31 153.92 448.74 155.41 447.50 Z" />
<path fill="#ff7a1a" opacity="1.00" d=" M 179.29 451.07 C 182.42 449.73 179.21 454.33 179.29 451.07 Z" />
</g>
<g id="#0046adff">
<path fill="#0046ad" opacity="1.00" d=" M 129.85 11.10 C 137.76 6.78 146.92 5.28 155.70 3.61 L 155.97 3.84 C 158.11 5.49 159.95 7.59 160.68 10.23 C 163.59 19.71 163.05 29.82 162.26 39.58 C 155.14 41.72 148.06 44.44 142.03 48.88 C 135.92 53.71 127.85 54.60 121.38 58.81 C 117.35 57.23 112.82 55.28 111.13 50.94 C 108.88 44.96 111.49 38.58 114.27 33.26 C 118.35 25.11 124.81 18.59 129.85 11.10 Z" />
<path fill="#0046ad" opacity="1.00" d=" M 190.55 8.24 C 208.78 13.34 223.22 29.15 227.01 47.67 C 223.10 44.55 218.60 42.33 213.94 40.59 C 210.47 27.47 202.79 14.79 190.55 8.24 Z" />
<path fill="#0046ad" opacity="1.00" d=" M 145.42 48.98 C 159.26 40.52 175.96 37.38 192.03 38.35 C 202.90 39.22 214.10 41.51 223.28 47.70 C 233.53 54.49 236.70 70.67 228.38 80.13 C 228.38 72.43 223.68 65.71 217.97 60.97 C 205.02 50.04 187.65 45.64 170.96 45.99 C 162.35 45.82 153.84 47.39 145.42 48.98 Z" />
<path fill="#0046ad" opacity="1.00" d=" M 41.55 224.70 C 45.15 222.67 48.76 219.73 53.08 219.81 C 56.58 221.04 59.59 223.31 62.74 225.24 C 72.84 231.98 82.50 239.41 91.53 247.53 C 95.66 251.43 99.89 255.40 102.76 260.35 C 104.29 262.64 102.89 265.25 102.46 267.64 C 100.64 274.95 100.96 282.53 101.04 290.00 C 100.97 295.43 103.54 300.53 103.08 305.99 C 102.31 317.46 99.76 328.71 98.67 340.15 C 98.07 347.12 91.66 351.18 86.65 355.10 C 89.56 349.98 92.57 344.92 95.22 339.66 C 89.02 342.20 83.30 345.79 77.07 348.25 C 74.36 349.44 71.44 348.14 69.01 346.90 C 61.26 342.66 55.41 335.89 49.26 329.72 C 48.98 331.83 48.98 334.02 50.10 335.92 C 54.07 343.89 58.69 351.53 62.52 359.58 C 63.05 360.97 64.02 362.52 63.32 364.04 C 60.97 365.86 57.94 366.39 55.18 367.35 C 55.08 368.96 54.98 370.56 54.88 372.18 C 57.17 371.02 59.39 369.55 61.94 369.00 C 65.90 368.62 67.96 374.13 71.89 373.14 C 77.61 369.58 81.46 363.76 84.75 358.02 C 83.70 364.57 88.73 369.86 90.06 375.96 C 90.79 380.34 88.89 384.56 86.74 388.25 L 86.49 388.40 C 80.75 391.70 75.07 396.04 72.00 402.02 C 71.34 405.93 74.65 409.20 76.95 412.04 C 79.57 414.83 82.79 417.98 86.92 417.80 C 88.07 417.03 88.66 415.69 89.51 414.65 C 95.09 423.49 94.33 434.61 93.38 444.58 C 92.97 451.71 90.99 458.78 91.75 465.95 C 92.03 469.85 95.24 472.50 96.61 475.96 C 97.66 480.24 97.16 484.69 97.44 489.05 C 97.56 494.10 99.24 498.91 100.26 503.81 C 102.00 512.60 103.24 521.47 104.42 530.35 C 91.61 529.59 79.51 534.79 67.87 539.45 C 67.61 533.62 68.71 527.63 67.12 521.93 C 64.26 513.85 57.35 508.32 51.23 502.74 C 47.10 497.28 44.99 490.57 42.58 484.24 C 50.83 490.10 58.95 496.20 67.82 501.12 C 69.55 502.02 71.42 502.61 73.29 503.17 C 72.58 498.58 67.53 497.72 64.13 495.79 C 57.22 492.01 51.60 486.35 45.72 481.20 C 44.41 480.05 42.82 479.32 41.27 478.58 C 41.19 479.20 41.04 480.43 40.97 481.05 C 38.96 477.78 37.25 474.26 34.59 471.45 C 31.65 468.28 28.58 465.06 26.94 460.98 C 20.38 445.80 22.41 428.42 15.57 413.33 C 13.87 408.68 10.79 404.16 11.53 398.98 C 12.07 392.32 10.76 385.67 11.18 379.00 C 11.59 371.70 10.03 364.49 8.52 357.39 C 7.52 352.60 5.29 348.03 5.48 343.04 C 5.72 331.59 7.56 320.26 8.56 308.87 C 8.80 290.11 8.38 270.95 13.71 252.77 C 19.68 240.74 30.50 231.92 41.55 224.70 M 13.69 320.60 C 13.74 322.18 13.18 324.17 14.67 325.31 C 17.85 327.93 22.20 328.27 25.72 330.28 C 34.86 335.55 42.14 343.32 50.08 350.15 C 48.23 344.16 46.20 337.84 41.97 333.09 C 33.89 326.49 23.65 323.17 13.69 320.60 M 11.75 376.79 C 10.86 384.41 12.29 392.52 16.03 399.24 C 23.14 396.66 30.64 395.41 37.78 392.95 C 36.56 391.01 34.29 390.43 32.32 389.62 C 24.66 386.75 18.48 381.25 11.75 376.79 M 72.79 427.80 C 65.20 435.51 57.70 443.30 49.94 450.84 C 47.76 452.91 45.32 454.77 43.64 457.31 C 50.80 454.81 56.51 449.53 63.05 445.83 C 69.48 442.20 74.46 436.57 80.69 432.67 C 82.39 431.38 84.46 432.33 86.36 432.38 C 88.77 431.23 90.29 428.79 91.14 426.33 C 85.21 424.82 77.77 423.12 72.79 427.80 M 53.05 460.56 C 56.66 463.73 61.55 464.59 65.97 466.11 C 73.79 468.19 81.65 470.74 89.79 470.98 C 86.35 468.60 82.18 467.80 78.26 466.57 C 69.91 464.39 61.62 461.75 53.05 460.56 M 85.87 481.87 C 83.71 484.47 83.56 488.05 82.99 491.25 C 85.41 488.56 87.40 485.50 90.07 483.05 C 92.33 480.91 96.52 479.92 95.79 476.00 C 92.13 477.24 88.57 479.06 85.87 481.87 Z" />
<path fill="#0046ad" opacity="1.00" d=" M 244.57 259.21 C 243.47 253.67 241.10 248.47 240.16 242.91 C 246.19 257.19 249.44 272.57 250.81 287.98 C 252.42 302.65 256.47 316.86 259.86 331.18 C 262.60 343.98 265.22 356.88 265.76 370.00 C 266.18 377.34 265.78 384.68 265.39 392.01 C 264.22 409.36 264.51 426.78 265.79 444.11 C 266.33 446.67 264.69 448.77 263.77 450.99 C 263.69 453.36 266.11 454.40 267.64 455.71 C 266.88 457.76 265.83 459.79 265.72 462.03 C 266.25 464.34 267.57 466.52 267.26 468.98 C 266.98 476.01 266.86 483.05 267.15 490.08 C 267.94 498.76 270.96 507.02 272.82 515.50 C 264.39 514.10 254.42 512.46 247.52 518.84 C 245.61 513.34 242.90 507.96 242.49 502.06 C 242.28 499.32 241.64 496.65 240.80 494.06 C 247.63 495.67 253.30 491.02 257.93 486.69 C 254.61 487.17 251.29 487.66 247.96 488.05 C 246.17 484.35 244.45 479.59 246.82 475.79 C 250.87 470.97 256.79 468.29 261.22 463.87 C 254.76 466.62 249.82 472.04 243.15 474.33 C 241.80 470.53 240.66 466.44 241.63 462.39 C 243.29 455.63 242.90 448.58 241.98 441.74 C 240.73 444.39 239.50 447.04 238.19 449.66 C 239.52 441.45 237.44 433.22 238.01 424.97 C 238.50 418.36 239.28 411.77 239.67 405.15 C 242.40 403.38 245.07 401.32 248.29 400.51 C 252.48 399.49 256.80 399.36 261.07 398.89 C 261.28 398.43 261.71 397.50 261.92 397.04 C 258.40 395.50 254.16 394.62 250.66 396.72 C 246.99 398.87 243.56 401.41 240.14 403.92 C 240.24 396.77 241.26 389.67 241.88 382.56 C 248.13 378.57 254.56 374.84 260.70 370.68 C 262.34 369.83 262.39 367.95 262.44 366.35 C 256.33 369.64 249.92 372.54 242.83 372.64 C 242.94 369.90 243.15 367.16 243.56 364.45 C 247.47 361.08 251.08 357.39 254.76 353.78 C 257.29 351.27 260.37 349.08 261.57 345.57 C 254.55 349.38 250.10 356.37 243.87 361.22 C 245.49 351.05 247.64 340.96 249.23 330.78 C 250.02 328.56 250.97 326.37 251.35 324.03 C 251.52 321.51 250.55 319.05 250.96 316.53 C 251.43 315.50 251.24 314.79 250.41 314.39 L 250.14 314.22 C 251.43 295.77 249.03 277.12 244.57 259.21 Z" />
<path fill="#0046ad" opacity="1.00" d=" M 104.58 281.11 C 124.70 281.75 144.79 283.20 164.93 283.76 C 170.64 283.84 176.37 284.48 182.08 283.81 C 182.50 284.00 183.32 284.39 183.74 284.59 C 182.65 286.16 182.27 288.05 182.43 289.96 C 183.24 307.33 183.67 324.73 184.99 342.08 C 170.34 341.68 155.70 341.24 141.07 340.28 L 140.66 340.25 C 139.05 335.31 137.27 330.42 135.08 325.71 C 133.34 321.97 131.56 318.14 131.07 314.01 C 130.54 309.96 131.52 305.95 132.13 301.98 C 133.20 295.72 133.27 289.35 133.81 283.04 C 132.63 282.99 131.45 282.95 130.27 282.91 C 130.55 292.19 128.03 301.35 128.49 310.63 C 130.27 320.73 134.08 330.33 137.26 340.05 C 126.38 339.49 115.52 338.57 104.65 337.84 C 107.21 327.39 111.72 317.20 111.35 306.24 C 109.56 297.75 106.09 289.68 104.58 281.11 Z" />
<path fill="#0046ad" opacity="1.00" d=" M 186.72 284.47 C 206.55 284.61 226.53 285.68 246.24 283.01 C 248.62 301.10 248.03 319.51 245.28 337.52 C 227.21 342.72 208.13 341.87 189.52 342.12 C 188.33 328.43 187.21 314.72 187.15 300.98 C 187.22 295.47 187.21 289.96 186.72 284.47 Z" />
</g>
<g id="#f89b58ff">
<path fill="#f89b58" opacity="1.00" d=" M 104.11 34.20 C 109.35 24.67 117.74 17.06 127.36 12.11 C 116.45 19.44 109.32 31.40 106.16 43.99 C 103.78 53.27 103.29 62.94 103.87 72.47 C 100.08 76.65 97.21 81.60 95.75 87.07 C 93.90 69.20 94.93 50.09 104.11 34.20 Z" />
<path fill="#f89b58" opacity="1.00" d=" M 186.14 200.06 C 187.14 200.58 188.15 201.10 189.16 201.63 C 189.16 206.72 189.33 211.82 189.48 216.91 C 185.86 213.89 182.46 210.61 179.52 206.92 C 181.53 204.45 183.77 202.18 186.14 200.06 Z" />
<path fill="#f89b58" opacity="1.00" d=" M 48.99 217.30 C 53.65 213.50 54.13 206.51 59.66 203.55 C 58.79 205.36 57.68 207.11 57.24 209.09 C 57.24 211.87 58.34 214.49 58.53 217.25 C 58.24 217.49 57.66 217.98 57.37 218.22 C 54.74 216.89 51.85 216.47 48.99 217.30 Z" />
<path fill="#f89b58" opacity="1.00" d=" M 180.43 220.63 C 181.54 223.54 182.19 226.60 182.44 229.71 C 183.27 239.15 183.85 248.62 183.98 258.10 C 182.71 248.51 181.21 238.93 180.04 229.33 C 180.06 226.42 180.21 223.52 180.43 220.63 Z" />
<path fill="#f89b58" opacity="1.00" d=" M 230.41 231.97 C 232.00 233.86 233.57 235.77 234.93 237.84 C 235.83 239.70 236.50 241.68 237.02 243.69 C 237.56 255.11 237.12 266.55 236.65 277.97 C 236.63 279.73 236.25 281.47 235.36 283.01 C 233.79 270.44 233.79 257.71 233.26 245.07 C 232.81 240.60 231.19 236.37 230.41 231.97 Z" />
<path fill="#f89b58" opacity="1.00" d=" M 109.22 239.86 C 113.44 242.94 115.76 247.83 117.41 252.64 C 117.76 254.18 118.50 256.08 117.41 257.48 C 114.26 261.60 109.89 264.84 107.65 269.62 C 106.14 273.30 105.71 277.31 104.58 281.11 L 104.43 280.32 C 104.29 274.43 105.48 268.64 106.87 262.95 C 106.67 258.08 102.74 254.60 99.82 251.10 C 102.35 246.89 105.10 242.68 109.22 239.86 Z" />
<path fill="#f89b58" opacity="1.00" d=" M 102.18 337.58 C 102.79 337.65 104.03 337.77 104.65 337.84 C 113.24 353.81 129.15 364.31 137.70 380.31 C 142.84 391.23 150.59 400.60 158.37 409.71 C 162.97 414.76 167.44 420.28 173.69 423.37 C 182.25 427.76 190.98 431.84 199.55 436.23 C 199.48 436.91 199.34 438.26 199.28 438.94 C 195.31 436.66 191.20 434.62 186.84 433.21 C 178.54 430.47 170.92 426.06 163.60 421.35 C 158.80 417.96 153.42 414.52 151.09 408.86 C 148.13 401.58 143.53 395.16 139.28 388.61 C 131.14 376.64 122.56 364.93 112.91 354.13 C 110.58 351.81 108.26 348.88 104.84 348.32 C 100.92 347.98 99.18 352.76 99.69 355.99 C 99.85 358.18 101.80 359.47 103.39 360.68 C 110.14 365.42 116.58 370.63 122.35 376.53 C 123.94 378.00 124.84 379.96 125.45 382.00 C 119.58 379.44 114.72 375.19 109.70 371.31 C 103.47 366.19 97.13 361.12 91.82 355.01 C 97.44 350.95 102.88 345.07 102.18 337.58 Z" />
<path fill="#f89b58" opacity="1.00" d=" M 240.92 349.93 C 242.38 346.24 243.94 342.58 244.94 338.73 C 243.45 347.93 241.20 357.03 240.73 366.37 C 240.34 360.93 238.75 355.19 240.92 349.93 Z" />
<path fill="#f89b58" opacity="1.00" d=" M 137.26 340.05 C 138.39 340.13 139.52 340.19 140.66 340.25 L 141.07 340.28 C 143.51 349.66 148.71 358.23 149.79 367.96 C 150.16 370.13 149.58 372.27 148.92 374.33 C 142.87 371.84 143.39 364.38 143.30 358.97 C 143.49 352.13 139.92 346.11 137.26 340.05 Z" />
<path fill="#f89b58" opacity="1.00" d=" M 221.96 393.97 C 228.27 384.84 234.05 375.34 240.68 366.44 C 239.57 380.52 238.12 394.57 236.89 408.63 C 234.18 412.94 231.47 417.33 230.33 422.37 C 228.75 426.94 229.16 432.18 226.32 436.28 C 227.00 417.18 234.99 399.39 237.20 380.52 C 231.51 385.04 226.85 390.69 222.25 396.28 C 218.87 400.26 216.90 405.40 212.59 408.56 C 215.04 403.29 218.85 398.84 221.96 393.97 Z" />
<path fill="#f89b58" opacity="1.00" d=" M 83.21 397.18 C 85.73 393.51 89.00 390.37 91.05 386.36 C 92.76 390.36 88.92 393.07 87.37 396.30 C 86.74 399.46 87.17 402.73 87.34 405.93 C 85.51 403.42 81.60 400.69 83.21 397.18 Z" />
<path fill="#f89b58" opacity="1.00" d=" M 201.82 418.68 C 204.79 420.03 206.74 422.72 208.74 425.17 C 211.78 428.98 214.47 433.06 216.66 437.41 C 218.19 440.90 221.90 442.41 224.40 445.06 C 221.00 446.65 217.15 444.68 215.32 441.69 C 214.53 439.28 215.02 436.53 213.65 434.31 C 210.58 428.46 205.39 424.16 201.82 418.68 Z" />
<path fill="#f89b58" opacity="1.00" d=" M 201.54 458.96 C 202.74 457.16 203.74 455.25 204.75 453.36 C 210.06 456.09 215.94 457.20 221.84 457.65 C 215.23 459.34 208.31 459.60 201.54 458.96 Z" />
</g>
<g id="#4576bfff">
<path fill="#4576bf" opacity="1.00" d=" M 127.36 12.11 C 127.98 11.86 129.23 11.35 129.85 11.10 C 124.81 18.59 118.35 25.11 114.27 33.26 C 111.49 38.58 108.88 44.96 111.13 50.94 C 112.82 55.28 117.35 57.23 121.38 58.81 C 114.94 62.52 109.07 67.16 103.87 72.47 C 103.29 62.94 103.78 53.27 106.16 43.99 C 109.32 31.40 116.45 19.44 127.36 12.11 Z" />
<path fill="#4576bf" opacity="1.00" d=" M 104.43 280.32 L 104.58 281.11 C 106.09 289.68 109.56 297.75 111.35 306.24 C 111.72 317.20 107.21 327.39 104.65 337.84 C 104.03 337.77 102.79 337.65 102.18 337.58 C 103.66 325.43 106.83 313.34 106.14 301.02 C 104.70 294.24 103.49 287.27 104.43 280.32 Z" />
<path fill="#4576bf" opacity="1.00" d=" M 130.27 282.91 C 131.45 282.95 132.63 282.99 133.81 283.04 C 133.27 289.35 133.20 295.72 132.13 301.98 C 131.52 305.95 130.54 309.96 131.07 314.01 C 131.56 318.14 133.34 321.97 135.08 325.71 C 137.27 330.42 139.05 335.31 140.66 340.25 C 139.52 340.19 138.39 340.13 137.26 340.05 C 134.08 330.33 130.27 320.73 128.49 310.63 C 128.03 301.35 130.55 292.19 130.27 282.91 Z" />
<path fill="#4576bf" opacity="1.00" d=" M 250.41 314.39 C 251.24 314.79 251.43 315.50 250.96 316.53 C 250.55 319.05 251.52 321.51 251.35 324.03 C 250.97 326.37 250.02 328.56 249.23 330.78 C 249.02 325.35 251.32 319.75 249.73 314.50 C 249.90 314.47 250.24 314.42 250.41 314.39 Z" />
<path fill="#4576bf" opacity="1.00" d=" M 13.69 320.60 C 23.65 323.17 33.89 326.49 41.97 333.09 C 46.20 337.84 48.23 344.16 50.08 350.15 C 42.14 343.32 34.86 335.55 25.72 330.28 C 22.20 328.27 17.85 327.93 14.67 325.31 C 13.18 324.17 13.74 322.18 13.69 320.60 Z" />
<path fill="#4576bf" opacity="1.00" d=" M 50.10 335.92 C 48.98 334.02 48.98 331.83 49.26 329.72 C 55.41 335.89 61.26 342.66 69.01 346.90 C 71.44 348.14 74.36 349.44 77.07 348.25 C 83.30 345.79 89.02 342.20 95.22 339.66 C 92.57 344.92 89.56 349.98 86.65 355.10 C 86.04 356.08 85.37 357.03 84.75 358.02 C 81.46 363.76 77.61 369.58 71.89 373.14 C 67.96 374.13 65.90 368.62 61.94 369.00 C 59.39 369.55 57.17 371.02 54.88 372.18 C 54.98 370.56 55.08 368.96 55.18 367.35 C 57.94 366.39 60.97 365.86 63.32 364.04 C 64.02 362.52 63.05 360.97 62.52 359.58 C 58.69 351.53 54.07 343.89 50.10 335.92 Z" />
<path fill="#4576bf" opacity="1.00" d=" M 242.83 372.64 C 249.92 372.54 256.33 369.64 262.44 366.35 C 262.39 367.95 262.34 369.83 260.70 370.68 C 254.56 374.84 248.13 378.57 241.88 382.56 C 242.02 379.24 242.43 375.94 242.83 372.64 Z" />
<path fill="#4576bf" opacity="1.00" d=" M 11.75 376.79 C 18.48 381.25 24.66 386.75 32.32 389.62 C 34.29 390.43 36.56 391.01 37.78 392.95 C 30.64 395.41 23.14 396.66 16.03 399.24 C 12.29 392.52 10.86 384.41 11.75 376.79 Z" />
<path fill="#4576bf" opacity="1.00" d=" M 72.00 402.02 C 75.07 396.04 80.75 391.70 86.49 388.40 C 84.85 391.34 82.25 393.56 80.50 396.43 C 79.09 398.95 79.95 402.15 81.68 404.31 C 84.28 407.76 87.25 410.94 89.51 414.65 C 88.66 415.69 88.07 417.03 86.92 417.80 C 82.79 417.98 79.57 414.83 76.95 412.04 C 74.65 409.20 71.34 405.93 72.00 402.02 Z" />
<path fill="#4576bf" opacity="1.00" d=" M 250.66 396.72 C 254.16 394.62 258.40 395.50 261.92 397.04 C 261.71 397.50 261.28 398.43 261.07 398.89 C 256.80 399.36 252.48 399.49 248.29 400.51 C 245.07 401.32 242.40 403.38 239.67 405.15 C 239.78 404.85 240.02 404.23 240.14 403.92 C 243.56 401.41 246.99 398.87 250.66 396.72 Z" />
<path fill="#4576bf" opacity="1.00" d=" M 72.79 427.80 C 77.77 423.12 85.21 424.82 91.14 426.33 C 90.29 428.79 88.77 431.23 86.36 432.38 C 84.46 432.33 82.39 431.38 80.69 432.67 C 74.46 436.57 69.48 442.20 63.05 445.83 C 56.51 449.53 50.80 454.81 43.64 457.31 C 45.32 454.77 47.76 452.91 49.94 450.84 C 57.70 443.30 65.20 435.51 72.79 427.80 Z" />
<path fill="#4576bf" opacity="1.00" d=" M 241.98 441.74 C 242.90 448.58 243.29 455.63 241.63 462.39 C 240.66 466.44 241.80 470.53 243.15 474.33 C 249.82 472.04 254.76 466.62 261.22 463.87 C 256.79 468.29 250.87 470.97 246.82 475.79 C 244.45 479.59 246.17 484.35 247.96 488.05 C 251.29 487.66 254.61 487.17 257.93 486.69 C 253.30 491.02 247.63 495.67 240.80 494.06 C 239.80 490.11 238.99 486.04 239.33 481.96 C 240.40 472.61 237.40 463.46 236.33 454.26 C 236.73 452.64 237.47 451.15 238.19 449.66 C 239.50 447.04 240.73 444.39 241.98 441.74 Z" />
<path fill="#4576bf" opacity="1.00" d=" M 53.05 460.56 C 61.62 461.75 69.91 464.39 78.26 466.57 C 82.18 467.80 86.35 468.60 89.79 470.98 C 81.65 470.74 73.79 468.19 65.97 466.11 C 61.55 464.59 56.66 463.73 53.05 460.56 Z" />
<path fill="#4576bf" opacity="1.00" d=" M 85.87 481.87 C 88.57 479.06 92.13 477.24 95.79 476.00 C 96.52 479.92 92.33 480.91 90.07 483.05 C 87.40 485.50 85.41 488.56 82.99 491.25 C 83.56 488.05 83.71 484.47 85.87 481.87 Z" />
<path fill="#4576bf" opacity="1.00" d=" M 41.27 478.58 C 42.82 479.32 44.41 480.05 45.72 481.20 C 51.60 486.35 57.22 492.01 64.13 495.79 C 67.53 497.72 72.58 498.58 73.29 503.17 C 71.42 502.61 69.55 502.02 67.82 501.12 C 58.95 496.20 50.83 490.10 42.58 484.24 C 41.80 483.32 41.28 482.20 40.97 481.05 C 41.04 480.43 41.19 479.20 41.27 478.58 Z" />
</g>
<g id="#f8a367ff">
<path fill="#f8a367" opacity="1.00" d=" M 119.76 168.07 C 127.39 170.75 134.33 175.04 141.59 178.54 C 145.46 180.68 149.62 182.32 153.20 184.95 C 145.08 181.60 137.39 177.29 129.49 173.47 C 126.21 171.75 122.75 170.30 119.76 168.07 Z" />
<path fill="#f8a367" opacity="1.00" d=" M 98.84 381.76 C 103.92 385.04 108.55 389.03 113.07 393.05 C 107.99 389.78 102.92 386.24 98.84 381.76 Z" />
<path fill="#f8a367" opacity="1.00" d=" M 178.08 449.82 C 182.40 449.80 186.73 449.53 191.06 449.73 C 191.02 450.82 190.93 453.01 190.89 454.10 C 190.55 453.35 189.86 451.85 189.52 451.10 C 189.42 451.68 189.21 452.83 189.11 453.41 C 184.50 453.34 179.89 453.62 175.28 453.33 C 176.21 452.15 177.13 450.98 178.08 449.82 M 179.29 451.07 C 179.21 454.33 182.42 449.73 179.29 451.07 Z" />
</g>
<g id="#3d70bbff">
<path fill="#3d70bb" opacity="1.00" d=" M 182.43 289.96 C 182.27 288.05 182.65 286.16 183.74 284.59 L 184.00 284.05 C 185.17 290.99 184.47 298.05 184.71 305.05 C 185.13 317.47 185.90 329.88 187.13 342.25 C 186.59 342.20 185.53 342.12 184.99 342.08 C 183.67 324.73 183.24 307.33 182.43 289.96 Z" />
</g>
<g id="#396ebcff">
<path fill="#396ebc" opacity="1.00" d=" M 243.87 361.22 C 250.10 356.37 254.55 349.38 261.57 345.57 C 260.37 349.08 257.29 351.27 254.76 353.78 C 251.08 357.39 247.47 361.08 243.56 364.45 C 243.64 363.64 243.79 362.03 243.87 361.22 Z" />
</g>
<g id="#f9954dff">
<path fill="#f9954d" opacity="1.00" d=" M 95.96 403.81 C 101.43 409.89 105.88 416.82 110.68 423.43 C 112.87 426.65 115.30 429.77 116.55 433.51 C 115.32 432.72 114.08 431.93 113.17 430.77 C 107.82 424.34 102.93 417.51 98.64 410.33 C 97.42 408.31 96.56 406.09 95.96 403.81 Z" />
<path fill="#f9954d" opacity="1.00" d=" M 196.45 459.08 C 196.39 457.85 197.27 456.81 198.36 456.38 C 199.30 457.52 197.93 459.95 196.45 459.08 Z" />
</g>
<g id="#f9934aff">
<path fill="#f9934a" opacity="1.00" d=" M 127.69 403.80 C 136.22 408.55 144.09 414.45 152.27 419.78 C 155.50 422.20 159.45 423.91 161.72 427.40 C 159.76 426.79 157.84 426.06 156.11 424.95 C 148.18 420.07 140.85 414.29 133.38 408.75 C 131.34 407.26 129.41 405.64 127.69 403.80 Z" />
</g>
<g id="#e6e7e7ff">
<path fill="#e6e7e7" opacity="1.00" d=" M 129.73 440.65 C 128.33 439.02 128.08 436.02 129.78 434.53 C 129.89 436.56 129.87 438.61 129.73 440.65 Z" />
<path fill="#e6e7e7" opacity="1.00" d=" M 163.34 435.31 C 163.95 435.25 165.18 435.12 165.79 435.06 C 166.33 436.61 166.43 438.26 166.17 439.88 C 165.38 439.83 163.80 439.73 163.01 439.68 C 163.10 438.22 163.24 436.76 163.34 435.31 M 164.38 436.35 C 163.56 437.64 163.77 438.44 165.02 438.76 C 165.84 437.46 165.63 436.66 164.38 436.35 Z" />
<path fill="#e6e7e7" opacity="1.00" d=" M 171.30 435.40 C 171.95 435.32 173.23 435.17 173.87 435.10 C 174.15 436.71 174.27 438.35 174.25 439.99 C 173.46 439.89 171.88 439.69 171.09 439.59 C 171.15 438.19 171.24 436.79 171.30 435.40 M 172.53 438.24 C 173.02 438.73 173.02 438.73 172.53 438.24 Z" />
<path fill="#e6e7e7" opacity="1.00" d=" M 141.73 436.59 C 143.00 436.50 145.24 435.66 145.14 438.02 C 145.60 437.54 146.53 436.58 147.00 436.10 C 147.51 436.33 148.53 436.78 149.04 437.00 C 148.53 438.09 148.96 440.55 147.31 440.62 C 146.38 439.77 145.50 438.90 144.65 438.00 C 144.73 438.69 144.89 440.09 144.97 440.78 C 143.84 440.58 142.71 440.40 141.57 440.22 C 141.32 439.00 140.89 437.69 141.73 436.59 M 142.73 438.12 C 143.16 438.42 143.16 438.42 142.73 438.12 Z" />
<path fill="#e6e7e7" opacity="1.00" d=" M 111.48 440.30 C 111.06 438.90 111.18 437.65 112.60 437.03 C 112.59 437.90 112.55 439.64 112.54 440.51 C 113.02 440.92 113.99 441.74 114.48 442.15 C 111.60 442.20 108.72 442.20 105.85 442.41 L 106.31 440.80 C 106.72 440.65 107.53 440.35 107.94 440.20 C 107.65 439.37 107.37 438.54 107.09 437.71 C 107.78 437.76 109.17 437.84 109.87 437.89 C 109.55 438.50 108.91 439.74 108.59 440.35 C 109.32 440.34 110.76 440.32 111.48 440.30 Z" />
<path fill="#e6e7e7" opacity="1.00" d=" M 154.32 438.78 C 154.41 438.21 154.57 437.09 154.66 436.53 C 157.42 435.41 156.66 440.34 154.32 438.78 Z" />
<path fill="#e6e7e7" opacity="1.00" d=" M 128.57 442.31 C 129.83 442.45 130.62 443.64 130.25 444.92 C 130.21 447.91 130.12 450.97 131.12 453.85 C 130.20 453.25 128.62 453.01 128.61 451.63 C 128.33 448.53 128.53 445.41 128.57 442.31 Z" />
<path fill="#e6e7e7" opacity="1.00" d=" M 132.38 442.40 C 132.79 442.48 133.60 442.65 134.01 442.74 C 134.20 446.36 133.22 450.31 135.20 453.59 C 134.51 453.32 133.12 452.76 132.42 452.49 C 132.02 449.14 132.27 445.75 132.38 442.40 Z" />
<path fill="#e6e7e7" opacity="1.00" d=" M 118.58 453.26 C 119.84 449.42 120.87 445.46 122.89 441.93 C 125.51 445.18 126.29 449.44 127.48 453.35 C 126.00 453.15 125.11 452.25 124.81 450.66 C 123.67 450.66 122.53 450.68 121.39 450.70 C 121.06 452.34 120.12 453.19 118.58 453.26 M 122.22 449.01 C 123.81 450.23 125.18 447.44 123.79 446.45 C 122.31 445.34 120.98 448.04 122.22 449.01 Z" />
<path fill="#e6e7e7" opacity="1.00" d=" M 145.57 446.39 C 146.94 445.37 148.48 444.58 150.03 443.85 C 150.12 445.24 150.88 446.01 152.31 446.15 C 151.76 446.52 150.67 447.26 150.13 447.63 C 150.59 449.23 149.35 452.23 152.05 452.32 C 151.96 452.67 151.78 453.38 151.69 453.73 C 150.77 453.48 149.84 453.23 148.92 452.98 C 148.66 450.60 149.03 447.80 146.71 446.34 C 144.90 448.25 145.22 450.85 145.22 453.25 C 144.85 453.31 144.11 453.45 143.73 453.52 C 143.77 451.88 143.14 450.39 141.77 449.45 C 140.17 449.75 138.56 450.03 136.95 450.30 C 137.60 450.88 138.26 451.46 138.91 452.06 C 139.75 451.94 141.44 451.71 142.29 451.59 C 141.67 455.12 135.30 453.41 135.53 449.96 C 134.93 446.24 139.27 444.71 141.98 446.61 L 141.39 447.71 C 141.95 447.89 143.07 448.24 143.64 448.42 C 143.66 447.66 143.71 446.13 143.73 445.36 C 144.19 445.62 145.11 446.13 145.57 446.39 M 138.16 447.28 C 137.60 448.79 138.20 449.29 139.95 448.78 C 140.49 447.25 139.89 446.75 138.16 447.28 Z" />
<path fill="#e6e7e7" opacity="1.00" d=" M 154.26 446.32 C 156.41 444.87 159.92 446.15 160.09 448.90 C 160.72 451.32 158.49 453.89 156.00 453.44 C 152.47 453.35 151.45 448.08 154.26 446.32 M 155.41 447.50 C 153.92 448.74 154.21 451.31 156.08 452.01 C 159.53 452.37 158.69 445.72 155.41 447.50 Z" />
<path fill="#e6e7e7" opacity="1.00" d=" M 161.23 445.77 C 163.45 446.02 167.23 444.93 167.80 448.01 C 167.96 449.98 168.80 452.76 166.70 454.04 C 166.30 451.77 166.31 449.42 165.65 447.21 C 164.74 447.32 163.83 447.51 162.95 447.78 C 162.99 449.60 162.99 451.42 163.01 453.25 C 162.60 453.34 161.80 453.53 161.39 453.62 C 161.25 451.00 161.22 448.38 161.23 445.77 Z" />
<path fill="#e6e7e7" opacity="1.00" d=" M 169.33 448.04 C 169.42 445.54 172.28 445.68 174.07 445.84 C 174.22 446.20 174.52 446.93 174.68 447.29 C 173.33 447.25 171.99 447.14 170.65 447.15 C 171.47 449.20 174.96 449.16 174.74 451.66 C 174.04 454.34 170.26 453.72 168.65 452.21 C 170.21 452.10 171.77 452.00 173.33 451.91 C 172.48 450.09 169.72 450.05 169.33 448.04 Z" />
</g>
<g id="#edc8adff">
<path fill="#edc8ad" opacity="1.00" d=" M 158.59 437.16 C 159.23 435.72 160.06 434.30 161.85 435.11 C 163.08 436.67 160.97 438.55 162.30 440.18 C 161.39 440.17 159.58 440.15 158.68 440.14 C 159.65 438.80 160.55 437.41 161.30 435.93 C 160.62 436.24 159.27 436.86 158.59 437.16 Z" />
</g>
<g id="#f1b68bff">
<path fill="#f1b68b" opacity="1.00" d=" M 167.23 435.94 C 168.10 435.52 168.98 435.11 169.87 434.71 C 169.89 436.51 169.90 438.31 169.90 440.12 C 169.49 440.12 168.67 440.13 168.26 440.14 C 167.94 438.72 167.56 437.34 167.23 435.94 Z" />
</g>
<g id="#edc7abff">
<path fill="#edc7ab" opacity="1.00" d=" M 134.89 436.16 C 136.29 436.38 136.35 438.72 135.77 439.75 C 134.50 439.43 134.24 437.15 134.89 436.16 Z" />
</g>
<g id="#efc19fff">
<path fill="#efc19f" opacity="1.00" d=" M 137.37 435.86 C 140.40 435.16 140.77 438.02 140.61 440.27 C 139.27 440.26 137.93 440.23 136.59 440.10 C 136.52 439.34 136.37 437.81 136.30 437.05 C 136.98 437.24 138.34 437.62 139.03 437.81 C 138.61 437.32 137.78 436.35 137.37 435.86 Z" />
</g>
<g id="#ead6c7ff">
<path fill="#ead6c7" opacity="1.00" d=" M 131.67 439.64 C 130.31 439.96 130.30 436.56 131.66 436.88 C 131.66 437.57 131.67 438.95 131.67 439.64 Z" />
</g>
<g id="#e7e2deff">
<path fill="#e7e2de" opacity="1.00" d=" M 132.88 436.69 C 134.05 437.17 134.37 438.15 133.84 439.63 C 132.70 439.14 132.38 438.16 132.88 436.69 Z" />
</g>
<g id="#f2b182ff">
<path fill="#f2b182" opacity="1.00" d=" M 112.54 440.51 C 113.59 439.41 114.71 438.37 116.00 437.56 C 115.57 439.24 114.42 440.97 115.33 442.71 C 116.59 446.33 115.80 450.23 116.06 453.99 C 112.73 456.44 108.61 456.34 104.96 454.74 C 104.35 450.90 102.77 445.31 105.85 442.41 C 108.72 442.20 111.60 442.20 114.48 442.15 C 113.99 441.74 113.02 440.92 112.54 440.51 M 105.99 443.89 C 106.10 446.70 105.58 449.65 106.68 452.33 L 106.57 453.35 L 108.09 452.79 L 107.47 454.03 C 109.74 454.13 112.00 453.95 114.26 453.67 C 114.08 453.13 113.72 452.05 113.54 451.51 C 114.24 448.93 114.10 446.24 114.02 443.60 C 113.10 443.55 111.27 443.45 110.35 443.39 L 110.87 445.07 L 109.94 444.15 L 110.28 443.40 C 108.84 443.52 107.42 443.68 105.99 443.89 Z" />
</g>
<g id="#f99751ff">
<path fill="#f99751" opacity="1.00" d=" M 201.74 437.35 C 204.02 439.62 206.74 442.24 206.53 445.75 C 206.10 449.77 203.30 452.94 200.73 455.83 C 200.70 454.47 200.67 453.11 200.66 451.76 C 201.90 449.92 203.53 448.12 203.76 445.80 C 204.21 443.64 202.31 442.08 201.35 440.39 C 201.45 439.63 201.65 438.11 201.74 437.35 Z" />
</g>
<g id="#fb7b1fff">
<path fill="#fb7b1f" opacity="1.00" d=" M 200.66 451.76 C 200.48 447.96 200.81 444.15 201.35 440.39 C 202.31 442.08 204.21 443.64 203.76 445.80 C 203.53 448.12 201.90 449.92 200.66 451.76 Z" />
</g>
<g id="#e8dfd8ff">
<path fill="#e8dfd8" opacity="1.00" d=" M 105.99 443.89 C 107.42 443.68 108.84 443.52 110.28 443.40 L 109.94 444.15 C 108.74 446.82 107.50 449.50 106.68 452.33 C 105.58 449.65 106.10 446.70 105.99 443.89 Z" />
</g>
<g id="#e8e0d9ff">
<path fill="#e8e0d9" opacity="1.00" d=" M 110.35 443.39 C 111.27 443.45 113.10 443.55 114.02 443.60 C 114.10 446.24 114.24 448.93 113.54 451.51 C 112.68 449.35 111.76 447.21 110.87 445.07 L 110.35 443.39 Z" />
</g>
<g id="#fc8630ff">
<path fill="#fc8630" opacity="1.00" d=" M 106.68 452.33 C 107.50 449.50 108.74 446.82 109.94 444.15 L 110.87 445.07 C 111.76 447.21 112.68 449.35 113.54 451.51 C 113.72 452.05 114.08 453.13 114.26 453.67 C 111.77 452.99 111.13 450.41 110.22 448.35 C 109.53 449.83 108.85 451.33 108.09 452.79 L 106.57 453.35 L 106.68 452.33 Z" />
</g>
<g id="#f79f61ff">
<path fill="#f79f61" opacity="1.00" d=" M 138.16 447.28 C 139.89 446.75 140.49 447.25 139.95 448.78 C 138.20 449.29 137.60 448.79 138.16 447.28 Z" />
</g>
<g id="#e9dacfff">
<path fill="#e9dacf" opacity="1.00" d=" M 110.22 448.35 C 111.13 450.41 111.77 452.99 114.26 453.67 C 112.00 453.95 109.74 454.13 107.47 454.03 L 108.09 452.79 C 108.85 451.33 109.53 449.83 110.22 448.35 Z" />
</g>
</svg>
