<?xml version="1.0" encoding="UTF-8" ?>
<!DOCTYPE svg PUBLIC "-//W3C//DTD SVG 1.1//EN" "http://www.w3.org/Graphics/SVG/1.1/DTD/svg11.dtd">
<svg width="413pt" height="793pt" viewBox="0 0 413 793" version="1.1" xmlns="http://www.w3.org/2000/svg">
<g id="#ffffffff">
<path fill="#ffffff" opacity="1.00" d=" M 149.47 124.35 C 151.19 121.45 154.92 120.84 157.93 120.02 C 161.75 118.93 166.71 119.32 169.08 122.92 C 170.59 125.58 171.85 129.14 170.22 132.01 C 165.61 140.96 161.48 150.15 157.20 159.27 C 155.80 162.12 155.09 165.22 154.24 168.26 C 150.45 160.67 147.91 152.43 146.32 144.10 C 144.85 137.36 147.17 130.61 149.47 124.35 Z" />
</g>
<g id="#000000ff">
<path fill="#000000" opacity="1.00" d=" M 199.86 12.85 C 211.25 9.20 223.02 6.50 235.00 6.01 C 256.65 6.18 279.04 9.76 297.79 21.19 C 312.57 29.87 324.36 43.56 330.69 59.50 C 333.51 65.53 334.40 72.23 336.62 78.41 C 344.82 88.80 345.94 103.41 341.57 115.62 C 338.01 121.21 333.24 125.94 329.73 131.56 C 326.21 137.59 320.69 142.00 315.78 146.82 C 314.24 148.47 311.64 149.38 310.87 151.59 C 308.74 170.34 307.08 189.27 308.64 208.12 C 308.89 212.25 310.44 216.09 311.75 219.96 C 311.64 223.76 308.91 226.76 306.46 229.40 C 302.56 233.32 298.16 236.98 293.05 239.19 C 289.14 239.77 286.62 236.04 284.77 233.21 C 283.82 231.24 282.02 228.67 283.51 226.55 C 288.24 220.92 294.26 216.56 299.32 211.25 C 300.63 209.87 300.28 207.78 300.57 206.06 C 302.38 179.07 303.20 152.03 304.55 125.01 C 304.65 120.40 304.16 115.37 301.60 111.44 C 293.41 103.94 282.81 99.31 271.96 97.29 C 255.50 93.74 238.47 94.87 221.92 97.16 C 208.83 99.59 195.61 102.20 183.39 107.64 C 184.57 119.01 185.23 130.76 182.24 141.92 C 180.86 147.91 176.14 152.25 173.79 157.80 C 168.48 169.56 165.06 182.21 163.88 195.06 C 163.30 200.73 164.36 206.33 165.57 211.84 C 157.68 209.95 152.86 202.38 145.53 199.18 C 143.96 204.70 145.65 210.44 146.12 216.01 C 148.36 229.61 146.17 243.59 149.18 257.10 C 149.70 259.75 151.02 262.12 152.44 264.38 C 153.97 262.97 155.43 261.31 155.74 259.17 C 157.66 249.20 159.73 238.90 165.21 230.17 C 167.75 226.31 171.76 222.21 176.73 222.67 C 201.22 236.61 225.66 250.63 250.12 264.63 C 250.99 265.26 252.43 265.68 252.28 267.03 C 252.98 277.84 253.48 288.67 254.08 299.50 C 254.88 299.43 256.49 299.31 257.30 299.24 C 257.92 288.86 258.50 278.48 259.14 268.11 C 263.81 262.80 268.03 257.08 273.07 252.11 C 273.54 252.57 274.49 253.50 274.96 253.97 C 275.30 266.54 275.25 279.13 275.39 291.71 C 295.66 302.80 316.10 314.10 333.70 329.24 C 336.94 331.71 338.91 335.77 343.01 337.04 C 347.26 341.00 350.18 346.15 352.74 351.31 C 363.34 374.44 367.87 399.83 370.17 425.02 C 372.65 446.76 379.56 467.63 383.88 489.02 C 389.29 513.95 392.60 539.57 390.75 565.11 C 388.64 592.70 388.81 620.47 391.18 648.04 C 391.74 651.40 389.44 654.07 388.04 656.86 C 389.11 659.07 392.39 659.34 393.17 661.90 C 395.14 665.91 390.52 669.07 390.89 673.03 C 390.95 675.52 393.41 677.37 393.05 679.97 C 392.43 690.95 392.42 701.96 392.55 712.96 C 393.52 725.66 398.04 737.67 401.03 749.94 C 402.15 752.53 399.44 754.79 396.96 754.28 C 388.54 753.70 379.89 750.61 371.53 753.36 C 367.60 754.37 364.63 757.19 361.71 759.82 C 359.40 760.86 357.86 758.34 357.29 756.50 C 354.06 747.90 350.02 739.26 349.86 729.90 C 349.58 725.14 347.73 720.69 346.81 716.06 C 345.50 709.44 344.85 702.63 345.95 695.94 C 345.40 684.94 343.54 674.05 341.31 663.29 C 334.70 669.13 325.41 670.06 317.09 671.67 C 308.15 673.54 298.99 672.16 289.98 672.91 C 281.35 671.91 272.66 673.05 264.00 672.75 C 240.34 673.43 216.68 672.50 193.02 672.76 C 182.28 673.12 171.69 670.68 160.94 671.22 C 153.40 670.36 145.94 671.94 138.41 672.07 C 138.38 675.42 138.40 678.96 140.05 681.99 C 141.68 685.40 144.70 688.08 145.66 691.82 C 147.59 699.46 146.10 707.41 147.25 715.15 C 147.80 719.86 149.41 724.36 150.34 729.00 C 153.16 742.92 154.96 757.02 157.10 771.06 C 157.10 772.55 158.00 774.48 156.66 775.67 C 153.10 775.49 149.59 774.35 146.00 774.81 C 130.26 776.68 115.34 782.49 100.84 788.59 C 98.81 789.21 97.29 786.89 97.17 785.11 C 96.21 777.03 98.52 768.75 96.29 760.80 C 93.68 752.91 87.83 746.70 82.09 740.92 C 78.51 737.12 73.50 734.71 70.93 729.98 C 66.08 721.47 62.68 712.24 58.54 703.38 C 55.49 696.84 52.18 690.19 46.85 685.18 C 37.49 677.09 34.25 664.49 31.77 652.87 C 29.90 643.60 28.72 634.22 27.46 624.85 C 26.27 615.18 22.80 605.96 18.86 597.11 C 17.12 592.56 14.67 587.93 15.29 582.91 C 16.47 571.92 13.98 560.96 15.05 549.97 C 15.13 535.63 11.46 521.55 7.25 507.95 C 6.48 504.04 6.65 500.02 6.76 496.07 C 7.55 479.96 10.12 464.01 11.43 447.96 C 11.27 424.63 11.13 401.00 16.16 378.09 C 17.57 373.54 17.88 368.62 20.29 364.43 C 26.28 351.59 33.52 339.31 42.17 328.08 C 58.81 305.70 81.00 286.69 107.56 277.34 C 116.36 273.98 125.71 272.67 134.99 271.40 C 131.90 264.68 129.84 257.44 129.70 250.01 C 129.16 244.75 132.68 240.35 135.16 236.05 C 137.18 232.44 141.18 230.07 142.29 225.97 C 142.80 221.05 138.39 217.61 137.74 212.95 C 136.84 207.51 136.11 201.57 138.40 196.37 C 139.61 193.39 143.13 192.51 144.86 189.92 C 149.31 183.90 151.73 176.68 153.85 169.58 C 149.50 165.93 146.63 160.84 144.61 155.60 C 144.12 155.57 143.14 155.50 142.65 155.47 C 139.22 140.89 136.85 126.01 136.53 111.02 C 136.49 90.49 140.25 69.42 150.78 51.54 C 161.22 32.81 179.75 19.55 199.86 12.85 M 170.23 32.26 C 159.65 41.19 151.86 53.13 146.96 66.01 C 139.35 86.33 138.43 108.64 141.08 130.00 C 142.71 123.19 146.05 116.88 150.57 111.54 C 158.90 101.33 169.94 93.78 181.32 87.35 C 187.36 83.99 194.05 82.08 200.41 79.46 C 204.80 76.95 208.69 73.64 213.12 71.18 C 237.74 57.45 267.18 53.48 294.81 58.28 C 307.70 60.68 320.87 64.54 331.07 73.15 C 328.15 60.86 322.85 49.00 314.59 39.36 C 305.56 28.53 293.14 21.05 280.07 16.11 C 263.65 10.66 246.21 8.38 228.95 9.23 C 207.98 12.07 186.64 18.34 170.23 32.26 M 246.92 61.85 C 234.67 64.55 222.41 68.51 211.86 75.43 C 232.61 70.27 254.47 68.97 275.58 72.66 C 292.24 76.04 308.62 83.12 320.78 95.26 C 327.43 101.65 332.82 110.06 333.09 119.53 C 334.70 117.42 336.62 115.46 337.69 113.01 C 340.12 105.62 340.66 97.45 338.29 89.98 C 336.22 83.16 331.61 77.24 325.72 73.26 C 316.17 66.24 304.42 63.23 292.95 61.07 C 277.72 58.61 262.04 58.71 246.92 61.85 M 149.47 124.35 C 147.17 130.61 144.85 137.36 146.32 144.10 C 147.91 152.43 150.45 160.67 154.24 168.26 C 155.09 165.22 155.80 162.12 157.20 159.27 C 161.48 150.15 165.61 140.96 170.22 132.01 C 171.85 129.14 170.59 125.58 169.08 122.92 C 166.71 119.32 161.75 118.93 157.93 120.02 C 154.92 120.84 151.19 121.45 149.47 124.35 M 168.52 231.38 C 162.92 240.22 160.73 250.66 158.86 260.81 C 157.87 263.07 156.47 265.11 154.89 267.00 C 158.06 270.84 161.33 274.61 164.46 278.49 C 168.80 284.17 173.72 289.59 176.67 296.17 C 178.00 299.90 176.65 305.83 181.44 307.42 C 186.59 308.23 191.99 307.22 197.06 308.78 C 198.48 309.36 200.48 311.29 198.57 312.59 C 193.88 316.28 187.89 317.93 182.08 318.85 C 179.40 319.17 176.01 319.31 174.16 316.97 C 170.94 312.38 170.86 306.48 168.32 301.58 C 167.63 300.28 166.18 299.72 165.01 298.97 C 158.54 295.24 152.12 291.31 146.66 286.16 L 146.24 286.23 C 143.03 282.23 139.34 278.60 136.61 274.22 C 127.77 276.32 118.57 276.84 110.00 280.04 C 96.17 285.10 83.05 292.27 71.68 301.67 C 56.65 314.20 43.69 329.32 33.86 346.25 C 44.71 336.70 56.02 327.40 68.98 320.84 C 73.66 318.46 79.55 316.39 84.40 319.52 C 102.91 329.65 119.60 342.77 135.51 356.54 C 141.96 361.96 147.28 368.51 153.21 374.45 C 154.86 378.14 158.09 381.83 156.76 386.15 C 154.15 394.84 153.21 403.95 153.07 413.00 C 153.08 420.85 153.24 428.83 155.41 436.43 C 156.31 439.84 156.36 443.41 156.22 446.92 C 155.43 464.74 150.98 482.15 149.52 499.89 C 147.49 508.86 139.41 514.32 132.68 519.72 C 131.17 521.15 128.71 522.60 129.27 525.05 C 130.24 533.60 136.97 540.37 137.31 549.09 C 137.47 557.87 133.07 566.00 127.69 572.66 C 125.81 575.09 123.16 577.04 122.08 580.00 C 121.55 583.77 124.51 586.71 126.78 589.32 C 131.29 593.99 134.86 599.49 137.78 605.28 C 141.43 612.96 142.18 621.63 142.38 630.02 C 142.55 642.93 140.72 655.76 138.71 668.48 C 145.82 668.15 152.86 666.83 160.01 667.24 C 170.04 666.84 179.98 668.63 190.00 668.75 C 220.09 668.58 250.18 669.46 280.26 668.49 C 283.53 668.55 286.81 668.56 290.08 668.41 C 289.67 661.27 288.73 654.12 289.76 646.98 C 293.52 625.91 289.60 604.30 283.44 584.06 C 279.45 563.53 277.51 542.67 275.37 521.89 C 272.80 494.97 270.16 468.02 269.81 440.96 C 270.06 427.24 268.86 413.53 267.57 399.88 C 264.04 367.52 259.21 335.31 253.95 303.19 C 253.13 303.08 251.47 302.86 250.65 302.75 C 249.94 291.19 249.39 279.62 248.80 268.06 C 224.50 253.98 200.13 240.01 175.84 225.92 C 172.81 226.79 170.14 228.65 168.52 231.38 M 262.28 268.98 C 261.73 278.65 261.18 288.32 260.67 297.99 C 260.64 299.57 260.30 301.13 259.67 302.58 C 259.14 302.59 258.07 302.61 257.54 302.62 C 263.15 339.14 268.90 375.68 272.20 412.49 C 273.81 428.43 272.77 444.45 273.83 460.41 C 275.54 491.75 278.81 522.97 282.40 554.14 C 284.02 566.84 285.17 579.72 289.12 591.97 C 293.14 608.92 296.35 626.62 293.49 644.02 C 292.21 652.11 292.65 660.31 293.08 668.45 C 295.76 668.38 298.61 669.50 301.18 668.60 L 301.83 668.04 L 302.03 668.75 C 312.76 669.43 323.67 667.24 333.80 663.69 C 338.19 662.42 340.96 658.29 342.23 654.12 C 345.73 643.32 341.99 631.99 343.21 620.96 C 345.69 590.34 348.82 559.78 351.41 529.16 C 352.56 513.61 356.87 498.55 358.73 483.10 C 361.59 460.58 362.02 437.63 358.94 415.11 C 356.94 393.72 351.49 372.72 344.35 352.49 C 342.21 347.23 340.83 341.39 336.79 337.18 C 326.99 326.37 314.45 318.66 302.32 310.78 C 292.58 304.96 282.78 299.21 272.65 294.09 C 271.84 293.22 271.45 292.20 271.49 291.04 C 271.32 280.35 271.36 269.66 271.10 258.97 C 268.03 262.19 265.22 265.65 262.28 268.98 M 74.08 323.05 C 70.21 324.73 66.49 326.74 62.86 328.87 C 55.36 333.49 48.41 338.88 41.84 344.75 C 38.79 347.80 35.48 350.62 32.75 353.98 C 27.62 360.15 22.12 366.81 20.89 375.00 C 15.72 395.21 15.13 416.23 14.99 436.99 C 15.69 454.14 12.04 471.04 10.93 488.10 C 10.53 494.41 9.83 500.81 10.80 507.10 C 15.07 521.98 19.23 537.35 18.47 552.97 C 17.56 562.99 20.41 572.94 19.01 582.94 C 18.42 587.48 20.54 591.71 22.21 595.79 C 25.11 602.21 27.74 608.78 29.62 615.58 C 34.26 635.05 33.65 656.01 42.74 674.27 C 45.31 680.04 50.86 683.48 54.41 688.53 C 61.71 698.44 65.56 710.26 70.61 721.35 C 72.76 725.96 74.91 730.85 79.00 734.10 C 86.67 740.39 93.96 747.60 98.42 756.58 C 102.72 765.43 99.92 775.45 100.46 784.84 C 103.54 783.70 106.52 782.32 109.52 780.99 C 113.87 779.39 118.22 777.81 122.67 776.50 C 128.69 774.40 134.91 772.89 141.19 771.78 C 145.30 771.27 149.46 770.98 153.59 771.58 C 150.85 752.99 148.46 734.24 143.29 716.14 C 143.19 709.41 143.42 702.66 142.86 695.95 C 142.74 690.95 138.44 687.70 136.57 683.39 C 134.68 679.63 134.86 675.33 134.87 671.26 C 136.78 653.60 140.04 635.75 137.38 617.99 C 135.87 606.88 128.21 598.13 121.27 589.87 C 118.34 586.54 116.50 581.30 119.23 577.32 C 122.45 572.75 126.96 569.10 129.29 563.92 C 132.09 558.67 134.31 552.46 132.52 546.53 C 130.36 540.83 127.51 535.41 125.21 529.76 C 124.93 527.08 124.87 524.39 124.83 521.71 C 130.67 515.21 138.74 510.77 143.37 503.21 C 145.54 499.14 145.21 494.39 146.00 489.97 C 147.73 474.96 151.21 460.14 151.64 444.99 C 151.79 440.14 150.40 435.45 149.17 430.82 C 147.65 415.87 147.98 400.54 152.08 386.00 C 152.92 383.25 151.17 380.64 149.77 378.42 C 145.62 372.63 140.62 367.46 135.37 362.66 C 128.29 356.00 120.62 350.00 113.01 343.95 C 106.55 339.37 100.39 334.29 93.40 330.50 L 93.38 330.13 C 88.96 327.37 84.61 324.45 79.84 322.30 C 77.95 321.39 75.88 322.38 74.08 323.05 M 356.60 379.57 C 362.96 404.87 365.69 431.05 364.96 457.11 C 364.39 474.29 362.08 491.36 358.71 508.21 C 357.06 516.45 355.11 524.68 354.61 533.10 C 354.03 540.38 352.94 547.62 352.61 554.92 C 351.02 572.28 349.20 589.65 347.97 607.05 C 346.72 615.63 346.46 624.36 347.06 633.01 C 347.42 639.37 348.64 645.80 347.35 652.14 C 346.86 655.59 345.07 658.64 344.18 661.98 C 346.10 673.27 348.58 684.55 349.09 696.03 C 348.18 703.71 348.56 711.61 350.87 719.03 C 352.00 722.58 353.21 726.16 353.41 729.92 C 353.60 738.71 357.70 746.69 360.66 754.78 C 362.62 753.23 364.68 751.80 366.81 750.49 C 370.47 749.23 374.22 748.22 378.09 747.87 C 382.86 747.92 387.59 748.46 392.29 749.25 L 392.40 749.64 C 394.02 749.81 395.63 749.95 397.26 750.11 C 394.20 737.80 390.05 725.66 388.97 712.95 C 388.79 701.69 388.70 690.41 389.35 679.16 C 388.14 676.93 386.94 674.56 387.00 671.95 C 387.36 668.91 388.85 666.19 389.90 663.37 C 387.75 661.91 384.81 660.78 384.22 657.95 C 383.68 654.26 388.13 651.87 387.23 648.09 C 385.74 630.20 385.34 612.25 385.36 594.31 C 385.77 584.88 386.04 575.45 386.79 566.05 C 388.68 541.55 385.67 516.93 380.56 492.98 C 375.99 470.20 368.56 448.02 365.80 424.88 C 363.74 400.66 359.27 376.25 349.23 353.97 C 351.27 362.61 354.63 370.90 356.60 379.57 Z" />
<path fill="#000000" opacity="1.00" d=" M 188.83 640.95 C 188.97 638.18 188.06 634.94 190.30 632.80 C 190.41 635.44 190.40 638.09 190.45 640.74 C 190.04 640.79 189.23 640.90 188.83 640.95 Z" />
<path fill="#000000" opacity="1.00" d=" M 232.31 636.40 C 232.50 633.93 235.86 632.58 237.17 634.99 C 238.34 637.32 235.26 638.58 234.07 640.06 C 235.08 640.15 237.10 640.34 238.11 640.43 C 236.29 641.67 234.07 641.15 232.04 641.02 C 233.28 638.90 236.35 637.59 235.87 634.80 C 234.57 634.98 233.38 635.52 232.31 636.40 Z" />
<path fill="#000000" opacity="1.00" d=" M 241.03 641.33 C 236.38 641.03 237.84 631.76 242.62 634.06 C 243.13 636.39 244.26 640.48 241.03 641.33 M 239.86 634.42 C 240.13 636.26 238.36 640.31 241.33 640.44 C 241.88 638.39 242.79 634.96 239.86 634.42 Z" />
<path fill="#000000" opacity="1.00" d=" M 250.82 634.57 C 251.90 633.14 253.84 633.79 254.78 635.01 C 253.29 637.00 256.21 639.90 253.50 641.26 C 249.71 642.04 249.31 636.78 250.82 634.57 M 253.05 634.05 C 252.39 634.99 250.45 636.25 251.79 637.44 C 250.99 639.07 251.56 640.23 253.33 640.80 C 253.26 638.54 253.20 636.29 253.05 634.05 Z" />
<path fill="#000000" opacity="1.00" d=" M 243.82 635.56 C 245.10 634.99 246.38 634.44 247.66 633.88 C 247.64 636.22 247.64 638.56 247.67 640.92 C 247.34 640.93 246.67 640.96 246.34 640.97 C 246.35 639.28 246.36 637.59 246.37 635.92 C 245.73 635.83 244.46 635.65 243.82 635.56 Z" />
<path fill="#000000" opacity="1.00" d=" M 191.73 635.59 C 194.35 635.66 196.98 635.66 199.60 635.88 C 199.64 636.99 199.72 639.21 199.76 640.32 C 200.29 639.62 201.37 638.22 201.90 637.52 C 202.39 637.78 203.36 638.32 203.85 638.58 L 203.77 636.44 C 202.99 636.66 201.42 637.10 200.64 637.32 C 201.41 635.83 202.94 635.12 204.54 635.63 C 206.41 636.85 205.34 639.52 205.69 641.40 C 203.19 641.30 200.74 640.04 198.27 640.88 C 198.31 639.47 198.36 638.06 198.39 636.66 L 196.49 636.56 C 196.45 638.21 196.40 639.87 196.35 641.53 C 196.04 641.42 195.43 641.18 195.13 641.06 C 195.15 639.59 195.17 638.13 195.19 636.67 L 193.32 636.67 C 193.04 638.33 193.82 640.56 191.98 641.61 C 191.82 639.60 191.77 637.59 191.73 635.59 M 202.35 639.16 C 202.45 642.50 205.39 637.66 202.35 639.16 Z" />
<path fill="#000000" opacity="1.00" d=" M 207.85 635.78 C 209.17 635.58 210.52 635.57 211.86 635.48 C 211.80 637.88 212.08 640.33 211.52 642.70 C 209.93 643.79 207.77 643.56 206.55 642.02 C 207.45 642.08 209.24 642.20 210.14 642.27 L 210.98 640.74 C 210.05 640.76 208.19 640.80 207.26 640.82 C 206.85 639.11 206.22 637.08 207.85 635.78 M 209.17 639.98 C 211.41 640.20 210.20 637.56 210.47 636.28 C 208.20 635.78 207.04 639.44 209.17 639.98 Z" />
<path fill="#000000" opacity="1.00" d=" M 214.32 635.29 C 215.43 635.59 216.67 635.65 217.65 636.34 C 217.79 637.92 217.58 639.51 217.52 641.10 C 216.03 641.10 214.17 641.58 213.25 640.03 C 212.72 638.30 213.42 636.71 214.32 635.29 M 215.22 637.28 C 215.84 637.85 215.84 637.85 215.22 637.28 M 214.58 639.14 C 214.83 640.49 215.53 640.67 216.68 639.68 C 216.43 638.31 215.73 638.13 214.58 639.14 Z" />
<path fill="#000000" opacity="1.00" d=" M 153.98 638.14 C 155.71 640.47 157.48 638.13 159.04 637.04 C 159.47 637.33 160.35 637.91 160.79 638.20 C 160.48 639.28 160.17 640.36 159.86 641.47 C 161.19 641.46 162.51 641.52 163.83 641.65 C 163.62 639.70 162.82 637.35 165.42 636.65 C 165.54 638.44 165.33 640.24 164.70 641.94 C 165.47 641.89 167.01 641.78 167.78 641.72 C 167.86 640.90 167.79 640.09 167.59 639.29 C 168.42 638.86 169.25 638.45 170.07 638.04 C 168.85 639.81 168.57 641.95 168.12 644.02 C 171.27 648.47 169.37 654.28 169.83 659.38 C 169.67 659.56 169.35 659.91 169.18 660.09 C 168.41 656.11 169.16 652.01 168.82 647.99 C 169.08 646.24 167.89 644.04 165.85 644.62 C 162.67 645.03 159.49 645.20 156.31 644.68 C 155.56 642.49 154.85 640.28 153.98 638.14 M 156.73 641.92 C 157.08 641.59 157.77 640.92 158.11 640.58 C 157.32 638.62 154.64 641.30 156.73 641.92 Z" />
<path fill="#000000" opacity="1.00" d=" M 174.16 659.56 C 176.10 654.62 177.28 649.32 179.82 644.66 C 181.62 644.08 182.16 646.03 182.63 647.26 C 184.07 651.39 185.62 655.48 186.92 659.66 C 186.33 659.70 185.14 659.78 184.54 659.82 C 184.11 658.60 183.68 657.40 183.25 656.20 C 181.43 656.20 179.62 656.20 177.81 656.20 C 177.41 657.41 177.00 658.63 176.61 659.87 C 175.99 659.79 174.77 659.64 174.16 659.56 M 178.71 653.90 C 180.00 653.78 181.29 653.67 182.59 653.55 C 181.90 651.96 181.23 650.40 180.52 648.84 C 179.84 650.49 179.24 652.18 178.71 653.90 Z" />
<path fill="#000000" opacity="1.00" d=" M 188.57 644.81 C 189.14 644.80 190.28 644.76 190.85 644.75 C 191.05 650.05 190.08 655.55 192.10 660.63 C 190.92 660.16 189.75 659.70 188.58 659.25 C 188.56 654.43 188.57 649.62 188.57 644.81 Z" />
<path fill="#000000" opacity="1.00" d=" M 193.95 645.90 C 194.22 645.43 194.74 644.48 195.00 644.00 C 197.59 648.07 195.39 653.21 196.43 657.71 C 196.81 658.03 197.56 658.69 197.94 659.02 C 197.17 660.35 195.97 660.60 194.33 659.75 C 193.52 655.19 193.63 650.50 193.95 645.90 Z" />
<path fill="#000000" opacity="1.00" d=" M 155.73 647.16 C 156.31 644.58 159.64 645.79 161.43 645.89 C 160.22 650.49 158.03 654.98 155.76 659.21 C 155.54 655.20 155.36 651.16 155.73 647.16 Z" />
<path fill="#000000" opacity="1.00" d=" M 161.99 645.88 C 163.72 645.31 165.62 645.72 167.42 645.49 C 168.29 650.45 168.40 655.55 167.58 660.54 C 167.88 660.71 168.46 661.07 168.75 661.24 C 167.85 663.07 165.18 662.72 163.47 662.80 C 165.03 662.17 166.76 661.92 168.15 660.94 C 165.73 661.12 163.31 661.48 160.98 662.21 C 161.68 662.58 163.08 663.32 163.78 663.70 C 161.04 663.85 158.40 663.02 155.79 662.33 C 157.15 662.30 158.48 662.10 159.77 661.71 C 158.24 661.05 156.20 660.98 155.59 659.15 C 156.70 659.56 157.80 659.99 158.90 660.45 C 159.71 658.13 160.61 655.84 161.55 653.58 C 163.49 655.74 163.89 658.82 165.88 660.95 C 166.26 660.26 167.03 658.88 167.41 658.19 C 165.42 654.18 163.57 650.05 161.99 645.88 Z" />
<path fill="#000000" opacity="1.00" d=" M 217.68 646.95 L 219.43 646.33 C 219.58 647.03 219.87 648.42 220.01 649.11 C 221.07 649.37 222.15 649.66 223.16 650.12 C 222.04 650.63 220.91 651.13 219.78 651.62 C 219.83 653.84 219.84 656.06 219.84 658.28 C 220.54 658.33 221.93 658.41 222.63 658.45 C 222.50 658.97 222.25 660.02 222.12 660.55 C 220.60 660.27 218.78 660.43 217.79 659.00 C 217.37 655.00 217.50 650.95 217.68 646.95 Z" />
<path fill="#000000" opacity="1.00" d=" M 201.39 659.59 C 196.43 657.39 198.43 648.50 204.04 649.20 C 207.14 649.03 208.56 652.20 208.65 654.85 C 205.99 654.84 203.34 654.83 200.68 654.90 C 201.35 656.04 201.90 657.33 202.99 658.18 C 204.72 658.66 206.47 657.96 208.18 657.69 C 208.22 661.19 203.59 660.52 201.39 659.59 M 201.64 651.49 C 201.53 652.03 201.31 653.09 201.21 653.63 C 202.78 653.61 204.36 653.62 205.94 653.55 C 206.47 650.72 203.41 651.20 201.64 651.49 Z" />
<path fill="#000000" opacity="1.00" d=" M 210.35 649.27 C 212.33 649.76 214.35 649.67 216.31 649.07 C 216.14 649.65 215.80 650.81 215.63 651.39 C 214.90 651.50 213.44 651.70 212.71 651.81 C 212.65 654.63 212.63 657.46 212.61 660.30 C 212.06 660.30 210.94 660.31 210.39 660.32 C 210.34 656.63 210.37 652.95 210.35 649.27 Z" />
<path fill="#000000" opacity="1.00" d=" M 226.38 649.62 C 229.29 648.34 233.37 649.69 233.93 653.09 C 235.55 657.14 231.16 661.58 227.09 660.09 C 222.50 658.76 221.98 651.53 226.38 649.62 M 226.60 651.37 C 225.28 653.81 225.26 658.63 229.06 658.37 C 232.43 658.18 231.77 653.97 231.28 651.67 C 229.73 651.41 228.16 651.32 226.60 651.37 Z" />
<path fill="#000000" opacity="1.00" d=" M 236.16 649.30 C 238.75 649.87 241.76 648.46 244.06 650.05 C 246.41 652.72 245.11 656.61 245.46 659.85 C 244.87 659.87 243.69 659.92 243.10 659.95 C 242.95 657.13 243.80 654.03 242.41 651.44 C 241.11 651.19 239.79 651.37 238.49 651.42 C 238.42 654.34 238.42 657.26 238.43 660.19 C 237.86 660.20 236.71 660.23 236.14 660.24 C 236.15 656.59 236.15 652.95 236.16 649.30 Z" />
<path fill="#000000" opacity="1.00" d=" M 248.71 649.55 C 250.62 649.36 252.55 649.31 254.47 649.40 C 254.58 649.98 254.78 651.14 254.89 651.72 C 252.78 650.96 249.94 649.84 249.41 653.01 C 251.33 653.80 254.01 653.85 254.92 656.08 C 255.59 657.61 257.05 658.88 258.84 658.19 C 259.57 657.36 260.01 656.35 260.14 655.16 C 261.77 655.12 263.59 655.00 264.40 656.76 C 263.15 656.49 261.91 656.21 260.67 655.92 C 260.72 656.73 260.82 658.35 260.87 659.16 C 261.72 659.24 263.41 659.40 264.26 659.48 C 262.69 660.38 260.92 660.13 259.21 660.20 L 258.59 660.42 C 257.15 660.37 256.10 659.31 255.04 658.49 C 253.03 661.25 249.28 660.45 246.75 659.03 C 248.38 657.25 253.80 660.09 252.61 656.27 C 251.26 655.59 249.81 655.10 248.46 654.43 C 246.89 653.03 248.06 651.07 248.71 649.55 Z" />
<path fill="#000000" opacity="1.00" d=" M 265.48 655.44 C 266.58 655.03 267.72 654.96 268.87 655.23 C 270.38 656.22 269.56 658.24 269.75 659.73 C 268.22 659.76 266.69 659.77 265.17 659.78 C 265.20 658.32 265.13 656.85 265.48 655.44 M 266.28 656.31 C 266.04 657.39 266.18 660.36 267.98 659.01 C 269.70 658.23 268.21 654.35 266.28 656.31 Z" />
<path fill="#000000" opacity="1.00" d=" M 271.00 655.13 C 273.44 655.20 275.88 655.25 278.33 655.23 C 278.38 657.02 278.37 658.81 278.22 660.61 C 277.04 659.02 277.80 656.42 275.74 655.47 C 275.54 657.19 275.42 658.94 275.17 660.66 C 273.21 659.53 275.20 656.23 272.67 655.50 C 272.50 657.27 272.38 659.06 272.19 660.85 C 270.66 659.35 271.25 657.03 271.00 655.13 Z" />
</g>
<g id="#f6ec5cff">
<path fill="#f6ec5c" opacity="1.00" d=" M 170.23 32.26 C 186.64 18.34 207.98 12.07 228.95 9.23 C 246.21 8.38 263.65 10.66 280.07 16.11 C 293.14 21.05 305.56 28.53 314.59 39.36 C 322.85 49.00 328.15 60.86 331.07 73.15 C 320.87 64.54 307.70 60.68 294.81 58.28 C 267.18 53.48 237.74 57.45 213.12 71.18 C 208.69 73.64 204.80 76.95 200.41 79.46 C 194.05 82.08 187.36 83.99 181.32 87.35 C 169.94 93.78 158.90 101.33 150.57 111.54 C 146.05 116.88 142.71 123.19 141.08 130.00 C 138.43 108.64 139.35 86.33 146.96 66.01 C 151.86 53.13 159.65 41.19 170.23 32.26 Z" />
<path fill="#f6ec5c" opacity="1.00" d=" M 246.92 61.85 C 262.04 58.71 277.72 58.61 292.95 61.07 C 304.42 63.23 316.17 66.24 325.72 73.26 C 331.61 77.24 336.22 83.16 338.29 89.98 C 340.66 97.45 340.12 105.62 337.69 113.01 C 336.62 115.46 334.70 117.42 333.09 119.53 C 332.82 110.06 327.43 101.65 320.78 95.26 C 308.62 83.12 292.24 76.04 275.58 72.66 C 254.47 68.97 232.61 70.27 211.86 75.43 C 222.41 68.51 234.67 64.55 246.92 61.85 Z" />
<path fill="#f6ec5c" opacity="1.00" d=" M 168.52 231.38 C 170.14 228.65 172.81 226.79 175.84 225.92 C 200.13 240.01 224.50 253.98 248.80 268.06 C 249.39 279.62 249.94 291.19 250.65 302.75 C 248.96 302.56 247.27 302.47 245.58 302.36 C 250.23 336.89 254.83 371.43 258.17 406.10 C 259.48 419.36 260.11 432.67 260.41 445.99 C 261.53 470.72 263.56 495.40 266.03 520.03 C 268.18 542.01 270.16 564.04 273.65 585.85 C 276.97 600.07 279.57 614.51 280.32 629.12 C 280.84 635.79 279.41 642.39 279.28 649.04 C 279.05 655.54 280.06 661.99 280.26 668.49 C 250.18 669.46 220.09 668.58 190.00 668.75 C 179.98 668.63 170.04 666.84 160.01 667.24 C 152.86 666.83 145.82 668.15 138.71 668.48 C 140.72 655.76 142.55 642.93 142.38 630.02 C 142.18 621.63 141.43 612.96 137.78 605.28 C 134.86 599.49 131.29 593.99 126.78 589.32 C 124.51 586.71 121.55 583.77 122.08 580.00 C 123.16 577.04 125.81 575.09 127.69 572.66 C 133.07 566.00 137.47 557.87 137.31 549.09 C 136.97 540.37 130.24 533.60 129.27 525.05 C 128.71 522.60 131.17 521.15 132.68 519.72 C 139.41 514.32 147.49 508.86 149.52 499.89 C 150.98 482.15 155.43 464.74 156.22 446.92 C 156.36 443.41 156.31 439.84 155.41 436.43 C 153.24 428.83 153.08 420.85 153.07 413.00 C 153.21 403.95 154.15 394.84 156.76 386.15 C 158.09 381.83 154.86 378.14 153.21 374.45 C 150.39 362.91 144.09 352.56 136.33 343.68 C 124.39 330.15 109.90 317.81 92.26 312.70 C 86.29 310.77 79.91 311.07 73.77 311.85 C 89.25 301.22 106.54 292.76 125.02 288.98 C 132.01 287.45 139.23 287.65 146.24 286.23 L 146.66 286.16 C 152.12 291.31 158.54 295.24 165.01 298.97 C 166.18 299.72 167.63 300.28 168.32 301.58 C 170.86 306.48 170.94 312.38 174.16 316.97 C 176.01 319.31 179.40 319.17 182.08 318.85 C 187.89 317.93 193.88 316.28 198.57 312.59 C 200.48 311.29 198.48 309.36 197.06 308.78 C 191.99 307.22 186.59 308.23 181.44 307.42 C 176.65 305.83 178.00 299.90 176.67 296.17 C 173.72 289.59 168.80 284.17 164.46 278.49 C 168.31 275.90 171.77 272.76 174.59 269.06 C 169.36 266.28 164.13 263.52 158.86 260.81 C 160.73 250.66 162.92 240.22 168.52 231.38 M 188.83 640.95 C 189.23 640.90 190.04 640.79 190.45 640.74 C 190.40 638.09 190.41 635.44 190.30 632.80 C 188.06 634.94 188.97 638.18 188.83 640.95 M 232.31 636.40 C 233.38 635.52 234.57 634.98 235.87 634.80 C 236.35 637.59 233.28 638.90 232.04 641.02 C 234.07 641.15 236.29 641.67 238.11 640.43 C 237.10 640.34 235.08 640.15 234.07 640.06 C 235.26 638.58 238.34 637.32 237.17 634.99 C 235.86 632.58 232.50 633.93 232.31 636.40 M 241.03 641.33 C 244.26 640.48 243.13 636.39 242.62 634.06 C 237.84 631.76 236.38 641.03 241.03 641.33 M 250.82 634.57 C 249.31 636.78 249.71 642.04 253.50 641.26 C 256.21 639.90 253.29 637.00 254.78 635.01 C 253.84 633.79 251.90 633.14 250.82 634.57 M 243.82 635.56 C 244.46 635.65 245.73 635.83 246.37 635.92 C 246.36 637.59 246.35 639.28 246.34 640.97 C 246.67 640.96 247.34 640.93 247.67 640.92 C 247.64 638.56 247.64 636.22 247.66 633.88 C 246.38 634.44 245.10 634.99 243.82 635.56 M 191.73 635.59 C 191.77 637.59 191.82 639.60 191.98 641.61 C 193.82 640.56 193.04 638.33 193.32 636.67 L 195.19 636.67 C 195.17 638.13 195.15 639.59 195.13 641.06 C 195.43 641.18 196.04 641.42 196.35 641.53 C 196.40 639.87 196.45 638.21 196.49 636.56 L 198.39 636.66 C 198.36 638.06 198.31 639.47 198.27 640.88 C 200.74 640.04 203.19 641.30 205.69 641.40 C 205.34 639.52 206.41 636.85 204.54 635.63 C 202.94 635.12 201.41 635.83 200.64 637.32 C 201.42 637.10 202.99 636.66 203.77 636.44 L 203.85 638.58 C 203.36 638.32 202.39 637.78 201.90 637.52 C 201.37 638.22 200.29 639.62 199.76 640.32 C 199.72 639.21 199.64 636.99 199.60 635.88 C 196.98 635.66 194.35 635.66 191.73 635.59 M 207.85 635.78 C 206.22 637.08 206.85 639.11 207.26 640.82 C 208.19 640.80 210.05 640.76 210.98 640.74 L 210.14 642.27 C 209.24 642.20 207.45 642.08 206.55 642.02 C 207.77 643.56 209.93 643.79 211.52 642.70 C 212.08 640.33 211.80 637.88 211.86 635.48 C 210.52 635.57 209.17 635.58 207.85 635.78 M 214.32 635.29 C 213.42 636.71 212.72 638.30 213.25 640.03 C 214.17 641.58 216.03 641.10 217.52 641.10 C 217.58 639.51 217.79 637.92 217.65 636.34 C 216.67 635.65 215.43 635.59 214.32 635.29 M 153.98 638.14 C 154.85 640.28 155.56 642.49 156.31 644.68 C 159.49 645.20 162.67 645.03 165.85 644.62 C 167.89 644.04 169.08 646.24 168.82 647.99 C 169.16 652.01 168.41 656.11 169.18 660.09 C 169.35 659.91 169.67 659.56 169.83 659.38 C 169.37 654.28 171.27 648.47 168.12 644.02 C 168.57 641.95 168.85 639.81 170.07 638.04 C 169.25 638.45 168.42 638.86 167.59 639.29 C 167.79 640.09 167.86 640.90 167.78 641.72 C 167.01 641.78 165.47 641.89 164.70 641.94 C 165.33 640.24 165.54 638.44 165.42 636.65 C 162.82 637.35 163.62 639.70 163.83 641.65 C 162.51 641.52 161.19 641.46 159.86 641.47 C 160.17 640.36 160.48 639.28 160.79 638.20 C 160.35 637.91 159.47 637.33 159.04 637.04 C 157.48 638.13 155.71 640.47 153.98 638.14 M 174.16 659.56 C 174.77 659.64 175.99 659.79 176.61 659.87 C 177.00 658.63 177.41 657.41 177.81 656.20 C 179.62 656.20 181.43 656.20 183.25 656.20 C 183.68 657.40 184.11 658.60 184.54 659.82 C 185.14 659.78 186.33 659.70 186.92 659.66 C 185.62 655.48 184.07 651.39 182.63 647.26 C 182.16 646.03 181.62 644.08 179.82 644.66 C 177.28 649.32 176.10 654.62 174.16 659.56 M 188.57 644.81 C 188.57 649.62 188.56 654.43 188.58 659.25 C 189.75 659.70 190.92 660.16 192.10 660.63 C 190.08 655.55 191.05 650.05 190.85 644.75 C 190.28 644.76 189.14 644.80 188.57 644.81 M 193.95 645.90 C 193.63 650.50 193.52 655.19 194.33 659.75 C 195.97 660.60 197.17 660.35 197.94 659.02 C 197.56 658.69 196.81 658.03 196.43 657.71 C 195.39 653.21 197.59 648.07 195.00 644.00 C 194.74 644.48 194.22 645.43 193.95 645.90 M 155.73 647.16 C 155.36 651.16 155.54 655.20 155.76 659.21 C 158.03 654.98 160.22 650.49 161.43 645.89 C 159.64 645.79 156.31 644.58 155.73 647.16 M 161.99 645.88 C 163.57 650.05 165.42 654.18 167.41 658.19 C 167.03 658.88 166.26 660.26 165.88 660.95 C 163.89 658.82 163.49 655.74 161.55 653.58 C 160.61 655.84 159.71 658.13 158.90 660.45 C 157.80 659.99 156.70 659.56 155.59 659.15 C 156.20 660.98 158.24 661.05 159.77 661.71 C 158.48 662.10 157.15 662.30 155.79 662.33 C 158.40 663.02 161.04 663.85 163.78 663.70 C 163.08 663.32 161.68 662.58 160.98 662.21 C 163.31 661.48 165.73 661.12 168.15 660.94 C 166.76 661.92 165.03 662.17 163.47 662.80 C 165.18 662.72 167.85 663.07 168.75 661.24 C 168.46 661.07 167.88 660.71 167.58 660.54 C 168.40 655.55 168.29 650.45 167.42 645.49 C 165.62 645.72 163.72 645.31 161.99 645.88 M 217.68 646.95 C 217.50 650.95 217.37 655.00 217.79 659.00 C 218.78 660.43 220.60 660.27 222.12 660.55 C 222.25 660.02 222.50 658.97 222.63 658.45 C 221.93 658.41 220.54 658.33 219.84 658.28 C 219.84 656.06 219.83 653.84 219.78 651.62 C 220.91 651.13 222.04 650.63 223.16 650.12 C 222.15 649.66 221.07 649.37 220.01 649.11 C 219.87 648.42 219.58 647.03 219.43 646.33 L 217.68 646.95 M 201.39 659.59 C 203.59 660.52 208.22 661.19 208.18 657.69 C 206.47 657.96 204.72 658.66 202.99 658.18 C 201.90 657.33 201.35 656.04 200.68 654.90 C 203.34 654.83 205.99 654.84 208.65 654.85 C 208.56 652.20 207.14 649.03 204.04 649.20 C 198.43 648.50 196.43 657.39 201.39 659.59 M 210.35 649.27 C 210.37 652.95 210.34 656.63 210.39 660.32 C 210.94 660.31 212.06 660.30 212.61 660.30 C 212.63 657.46 212.65 654.63 212.71 651.81 C 213.44 651.70 214.90 651.50 215.63 651.39 C 215.80 650.81 216.14 649.65 216.31 649.07 C 214.35 649.67 212.33 649.76 210.35 649.27 M 226.38 649.62 C 221.98 651.53 222.50 658.76 227.09 660.09 C 231.16 661.58 235.55 657.14 233.93 653.09 C 233.37 649.69 229.29 648.34 226.38 649.62 M 236.16 649.30 C 236.15 652.95 236.15 656.59 236.14 660.24 C 236.71 660.23 237.86 660.20 238.43 660.19 C 238.42 657.26 238.42 654.34 238.49 651.42 C 239.79 651.37 241.11 651.19 242.41 651.44 C 243.80 654.03 242.95 657.13 243.10 659.95 C 243.69 659.92 244.87 659.87 245.46 659.85 C 245.11 656.61 246.41 652.72 244.06 650.05 C 241.76 648.46 238.75 649.87 236.16 649.30 M 248.71 649.55 C 248.06 651.07 246.89 653.03 248.46 654.43 C 249.81 655.10 251.26 655.59 252.61 656.27 C 253.80 660.09 248.38 657.25 246.75 659.03 C 249.28 660.45 253.03 661.25 255.04 658.49 C 256.10 659.31 257.15 660.37 258.59 660.42 L 259.21 660.20 C 260.92 660.13 262.69 660.38 264.26 659.48 C 263.41 659.40 261.72 659.24 260.87 659.16 C 260.82 658.35 260.72 656.73 260.67 655.92 C 261.91 656.21 263.15 656.49 264.40 656.76 C 263.59 655.00 261.77 655.12 260.14 655.16 C 260.01 656.35 259.57 657.36 258.84 658.19 C 257.05 658.88 255.59 657.61 254.92 656.08 C 254.01 653.85 251.33 653.80 249.41 653.01 C 249.94 649.84 252.78 650.96 254.89 651.72 C 254.78 651.14 254.58 649.98 254.47 649.40 C 252.55 649.31 250.62 649.36 248.71 649.55 M 265.48 655.44 C 265.13 656.85 265.20 658.32 265.17 659.78 C 266.69 659.77 268.22 659.76 269.75 659.73 C 269.56 658.24 270.38 656.22 268.87 655.23 C 267.72 654.96 266.58 655.03 265.48 655.44 M 271.00 655.13 C 271.25 657.03 270.66 659.35 272.19 660.85 C 272.38 659.06 272.50 657.27 272.67 655.50 C 275.20 656.23 273.21 659.53 275.17 660.66 C 275.42 658.94 275.54 657.19 275.74 655.47 C 277.80 656.42 277.04 659.02 278.22 660.61 C 278.37 658.81 278.38 657.02 278.33 655.23 C 275.88 655.25 273.44 655.20 271.00 655.13 Z" />
<path fill="#f6ec5c" opacity="1.00" d=" M 262.28 268.98 C 265.22 265.65 268.03 262.19 271.10 258.97 C 271.36 269.66 271.32 280.35 271.49 291.04 C 271.45 292.20 271.84 293.22 272.65 294.09 C 271.45 296.15 270.19 298.17 268.90 300.18 C 289.37 310.24 309.53 321.30 327.47 335.49 C 334.95 341.16 340.04 349.32 343.63 357.88 C 351.18 376.20 355.44 395.66 358.94 415.11 C 362.02 437.63 361.59 460.58 358.73 483.10 C 356.87 498.55 352.56 513.61 351.41 529.16 C 348.82 559.78 345.69 590.34 343.21 620.96 C 341.99 631.99 345.73 643.32 342.23 654.12 C 340.96 658.29 338.19 662.42 333.80 663.69 C 323.67 667.24 312.76 669.43 302.03 668.75 L 301.83 668.04 C 302.74 660.39 301.11 652.65 302.11 644.98 C 303.62 632.93 302.36 620.80 301.09 608.79 C 299.85 598.46 297.63 588.28 295.26 578.16 C 291.50 552.92 289.43 527.46 286.88 502.08 C 284.96 479.75 283.05 457.40 282.49 434.98 C 281.44 406.49 277.51 378.21 273.86 349.96 C 271.81 334.15 269.37 318.38 267.17 302.60 C 264.67 302.56 262.17 302.53 259.67 302.58 C 260.30 301.13 260.64 299.57 260.67 297.99 C 261.18 288.32 261.73 278.65 262.28 268.98 Z" />
<path fill="#f6ec5c" opacity="1.00" d=" M 74.08 323.05 C 75.88 322.38 77.95 321.39 79.84 322.30 C 84.61 324.45 88.96 327.37 93.38 330.13 L 93.40 330.50 C 94.36 342.99 93.76 355.52 93.24 368.02 C 92.43 387.03 91.06 406.01 90.24 425.02 C 89.95 431.00 90.69 436.98 90.14 442.96 C 88.83 457.98 86.20 472.85 84.43 487.82 C 83.22 497.16 82.97 506.65 84.07 516.02 C 85.51 529.42 87.37 542.78 89.30 556.12 C 91.14 566.63 91.42 577.31 92.46 587.91 C 93.71 600.67 94.02 613.68 97.95 626.00 C 103.32 642.38 109.25 658.63 116.93 674.09 C 120.68 681.71 125.72 688.58 130.33 695.68 C 134.91 702.34 138.82 709.42 143.29 716.14 C 148.46 734.24 150.85 752.99 153.59 771.58 C 149.46 770.98 145.30 771.27 141.19 771.78 C 136.73 752.42 131.77 732.46 120.17 715.97 C 114.04 706.81 107.26 698.10 101.06 688.99 C 98.71 685.68 97.37 681.82 95.86 678.09 C 92.31 669.32 87.29 661.27 82.93 652.92 C 77.43 636.28 72.30 619.41 70.03 601.97 C 66.71 576.57 63.25 551.18 58.99 525.92 C 56.31 513.81 55.58 501.37 55.86 489.01 C 57.13 475.94 60.46 463.18 61.57 450.09 C 62.69 437.14 64.49 423.96 62.11 411.04 C 60.74 397.04 62.98 383.00 62.53 368.97 C 62.51 355.61 62.53 342.24 62.86 328.87 C 66.49 326.74 70.21 324.73 74.08 323.05 Z" />
<path fill="#f6ec5c" opacity="1.00" d=" M 113.01 343.95 C 120.62 350.00 128.29 356.00 135.37 362.66 C 134.84 376.25 134.58 389.85 134.13 403.45 C 132.29 432.42 128.42 461.21 125.73 490.11 C 124.62 500.60 124.37 511.17 124.83 521.71 C 124.87 524.39 124.93 527.08 125.21 529.76 C 126.10 541.20 127.90 552.54 129.29 563.92 C 126.96 569.10 122.45 572.75 119.23 577.32 C 116.50 581.30 118.34 586.54 121.27 589.87 C 128.21 598.13 135.87 606.88 137.38 617.99 C 140.04 635.75 136.78 653.60 134.87 671.26 C 129.51 662.01 125.54 652.04 122.06 641.95 C 119.14 633.17 116.11 624.35 114.89 615.14 C 113.44 604.76 112.36 594.32 111.53 583.87 C 110.58 557.38 104.14 531.47 102.74 505.02 C 102.55 479.16 110.99 453.95 109.74 428.06 C 110.63 400.02 114.52 372.03 113.01 343.95 Z" />
<path fill="#f6ec5c" opacity="1.00" d=" M 32.75 353.98 C 35.48 350.62 38.79 347.80 41.84 344.75 C 41.76 352.18 42.88 359.55 43.59 366.94 C 45.21 382.49 42.34 398.08 43.42 413.65 C 43.99 418.43 45.00 423.19 44.82 428.04 C 44.48 446.35 42.22 464.58 38.87 482.58 C 36.81 495.29 36.99 508.33 38.88 521.05 C 44.04 549.17 47.89 577.50 51.51 605.84 C 53.90 623.49 58.68 640.75 64.71 657.49 C 69.61 666.86 75.08 676.00 78.83 685.93 C 80.48 690.60 83.49 694.57 86.30 698.59 C 92.70 707.57 99.22 716.47 105.24 725.71 C 110.50 734.23 113.86 743.75 116.86 753.25 C 119.05 760.93 121.35 768.61 122.67 776.50 C 118.22 777.81 113.87 779.39 109.52 780.99 C 109.48 773.65 109.56 766.32 109.52 758.99 C 109.54 755.82 108.60 752.69 106.95 750.01 C 102.78 742.77 96.37 737.30 90.62 731.40 C 82.61 722.04 75.47 711.74 70.85 700.27 C 65.66 690.11 61.06 679.37 53.19 670.93 C 43.50 657.62 42.76 640.62 39.32 625.09 C 36.53 611.48 32.82 598.07 28.10 585.01 C 25.26 578.04 26.47 570.37 26.50 563.06 C 27.18 549.17 24.69 535.39 22.22 521.78 C 20.96 514.51 18.71 507.38 18.56 499.95 C 18.31 490.96 19.36 481.98 21.21 473.20 C 23.38 462.62 23.29 451.76 23.00 441.02 C 22.68 432.35 23.12 423.69 23.24 415.03 C 23.52 405.67 23.17 396.23 24.88 386.98 C 26.83 375.84 29.28 364.74 32.75 353.98 Z" />
<path fill="#f6ec5c" opacity="1.00" d=" M 149.17 430.82 C 150.40 435.45 151.79 440.14 151.64 444.99 C 151.21 460.14 147.73 474.96 146.00 489.97 C 145.21 494.39 145.54 499.14 143.37 503.21 C 145.17 479.07 148.61 455.05 149.17 430.82 Z" />
<path fill="#f6ec5c" opacity="1.00" d=" M 358.71 508.21 C 362.08 491.36 364.39 474.29 364.96 457.11 C 369.06 485.76 373.66 514.34 377.95 542.96 C 380.24 560.10 383.54 577.11 385.36 594.31 C 385.34 612.25 385.74 630.20 387.23 648.09 C 388.13 651.87 383.68 654.26 384.22 657.95 C 384.81 660.78 387.75 661.91 389.90 663.37 C 388.85 666.19 387.36 668.91 387.00 671.95 C 386.94 674.56 388.14 676.93 389.35 679.16 C 388.70 690.41 388.79 701.69 388.97 712.95 C 390.05 725.66 394.20 737.80 397.26 750.11 C 395.63 749.95 394.02 749.81 392.40 749.64 L 392.29 749.25 C 388.63 736.06 383.83 722.86 383.90 709.00 C 382.37 688.64 379.75 668.39 377.37 648.12 C 372.09 604.95 366.55 561.82 360.06 518.83 C 359.54 515.29 358.79 511.78 358.71 508.21 Z" />
<path fill="#f6ec5c" opacity="1.00" d=" M 347.97 607.05 C 349.20 589.65 351.02 572.28 352.61 554.92 C 352.72 559.35 353.55 563.72 354.22 568.09 C 359.59 605.30 363.87 642.65 367.54 680.05 C 368.62 691.62 369.73 703.22 369.66 714.85 C 371.24 726.12 374.81 737.00 378.09 747.87 C 374.22 748.22 370.47 749.23 366.81 750.49 C 364.35 743.08 361.40 735.79 360.06 728.07 C 358.91 722.04 356.82 716.17 356.55 710.00 C 356.40 704.03 355.66 698.11 355.25 692.17 C 354.48 682.73 352.37 673.44 351.73 663.99 C 350.61 645.00 349.27 626.02 347.97 607.05 Z" />
<path fill="#f6ec5c" opacity="1.00" d=" M 239.86 634.42 C 242.79 634.96 241.88 638.39 241.33 640.44 C 238.36 640.31 240.13 636.26 239.86 634.42 Z" />
<path fill="#f6ec5c" opacity="1.00" d=" M 253.05 634.05 C 253.20 636.29 253.26 638.54 253.33 640.80 C 251.56 640.23 250.99 639.07 251.79 637.44 C 250.45 636.25 252.39 634.99 253.05 634.05 Z" />
<path fill="#f6ec5c" opacity="1.00" d=" M 209.17 639.98 C 207.04 639.44 208.20 635.78 210.47 636.28 C 210.20 637.56 211.41 640.20 209.17 639.98 Z" />
<path fill="#f6ec5c" opacity="1.00" d=" M 215.22 637.28 C 215.84 637.85 215.84 637.85 215.22 637.28 Z" />
<path fill="#f6ec5c" opacity="1.00" d=" M 202.35 639.16 C 205.39 637.66 202.45 642.50 202.35 639.16 Z" />
<path fill="#f6ec5c" opacity="1.00" d=" M 214.58 639.14 C 215.73 638.13 216.43 638.31 216.68 639.68 C 215.53 640.67 214.83 640.49 214.58 639.14 Z" />
<path fill="#f6ec5c" opacity="1.00" d=" M 156.73 641.92 C 154.64 641.30 157.32 638.62 158.11 640.58 C 157.77 640.92 157.08 641.59 156.73 641.92 Z" />
<path fill="#f6ec5c" opacity="1.00" d=" M 178.71 653.90 C 179.24 652.18 179.84 650.49 180.52 648.84 C 181.23 650.40 181.90 651.96 182.59 653.55 C 181.29 653.67 180.00 653.78 178.71 653.90 Z" />
<path fill="#f6ec5c" opacity="1.00" d=" M 201.64 651.49 C 203.41 651.20 206.47 650.72 205.94 653.55 C 204.36 653.62 202.78 653.61 201.21 653.63 C 201.31 653.09 201.53 652.03 201.64 651.49 Z" />
<path fill="#f6ec5c" opacity="1.00" d=" M 226.60 651.37 C 228.16 651.32 229.73 651.41 231.28 651.67 C 231.77 653.97 232.43 658.18 229.06 658.37 C 225.26 658.63 225.28 653.81 226.60 651.37 Z" />
<path fill="#f6ec5c" opacity="1.00" d=" M 266.28 656.31 C 268.21 654.35 269.70 658.23 267.98 659.01 C 266.18 660.36 266.04 657.39 266.28 656.31 Z" />
</g>
<g id="#0348aeff">
<path fill="#0348ae" opacity="1.00" d=" M 158.86 260.81 C 164.13 263.52 169.36 266.28 174.59 269.06 C 171.77 272.76 168.31 275.90 164.46 278.49 C 161.33 274.61 158.06 270.84 154.89 267.00 C 156.47 265.11 157.87 263.07 158.86 260.81 Z" />
<path fill="#0348ae" opacity="1.00" d=" M 110.00 280.04 C 118.57 276.84 127.77 276.32 136.61 274.22 C 139.34 278.60 143.03 282.23 146.24 286.23 C 139.23 287.65 132.01 287.45 125.02 288.98 C 106.54 292.76 89.25 301.22 73.77 311.85 C 79.91 311.07 86.29 310.77 92.26 312.70 C 109.90 317.81 124.39 330.15 136.33 343.68 C 144.09 352.56 150.39 362.91 153.21 374.45 C 147.28 368.51 141.96 361.96 135.51 356.54 C 119.60 342.77 102.91 329.65 84.40 319.52 C 79.55 316.39 73.66 318.46 68.98 320.84 C 56.02 327.40 44.71 336.70 33.86 346.25 C 43.69 329.32 56.65 314.20 71.68 301.67 C 83.05 292.27 96.17 285.10 110.00 280.04 Z" />
<path fill="#0348ae" opacity="1.00" d=" M 272.65 294.09 C 282.78 299.21 292.58 304.96 302.32 310.78 C 314.45 318.66 326.99 326.37 336.79 337.18 C 340.83 341.39 342.21 347.23 344.35 352.49 C 351.49 372.72 356.94 393.72 358.94 415.11 C 355.44 395.66 351.18 376.20 343.63 357.88 C 340.04 349.32 334.95 341.16 327.47 335.49 C 309.53 321.30 289.37 310.24 268.90 300.18 C 270.19 298.17 271.45 296.15 272.65 294.09 Z" />
<path fill="#0348ae" opacity="1.00" d=" M 257.54 302.62 C 258.07 302.61 259.14 302.59 259.67 302.58 C 262.17 302.53 264.67 302.56 267.17 302.60 C 269.37 318.38 271.81 334.15 273.86 349.96 C 277.51 378.21 281.44 406.49 282.49 434.98 C 283.05 457.40 284.96 479.75 286.88 502.08 C 289.43 527.46 291.50 552.92 295.26 578.16 C 297.63 588.28 299.85 598.46 301.09 608.79 C 302.36 620.80 303.62 632.93 302.11 644.98 C 301.11 652.65 302.74 660.39 301.83 668.04 L 301.18 668.60 C 298.61 669.50 295.76 668.38 293.08 668.45 C 292.65 660.31 292.21 652.11 293.49 644.02 C 296.35 626.62 293.14 608.92 289.12 591.97 C 285.17 579.72 284.02 566.84 282.40 554.14 C 278.81 522.97 275.54 491.75 273.83 460.41 C 272.77 444.45 273.81 428.43 272.20 412.49 C 268.90 375.68 263.15 339.14 257.54 302.62 Z" />
<path fill="#0348ae" opacity="1.00" d=" M 245.58 302.36 C 247.27 302.47 248.96 302.56 250.65 302.75 C 251.47 302.86 253.13 303.08 253.95 303.19 C 259.21 335.31 264.04 367.52 267.57 399.88 C 268.86 413.53 270.06 427.24 269.81 440.96 C 270.16 468.02 272.80 494.97 275.37 521.89 C 277.51 542.67 279.45 563.53 283.44 584.06 C 289.60 604.30 293.52 625.91 289.76 646.98 C 288.73 654.12 289.67 661.27 290.08 668.41 C 286.81 668.56 283.53 668.55 280.26 668.49 C 280.06 661.99 279.05 655.54 279.28 649.04 C 279.41 642.39 280.84 635.79 280.32 629.12 C 279.57 614.51 276.97 600.07 273.65 585.85 C 270.16 564.04 268.18 542.01 266.03 520.03 C 263.56 495.40 261.53 470.72 260.41 445.99 C 260.11 432.67 259.48 419.36 258.17 406.10 C 254.83 371.43 250.23 336.89 245.58 302.36 Z" />
<path fill="#0348ae" opacity="1.00" d=" M 41.84 344.75 C 48.41 338.88 55.36 333.49 62.86 328.87 C 62.53 342.24 62.51 355.61 62.53 368.97 C 62.98 383.00 60.74 397.04 62.11 411.04 C 64.49 423.96 62.69 437.14 61.57 450.09 C 60.46 463.18 57.13 475.94 55.86 489.01 C 55.58 501.37 56.31 513.81 58.99 525.92 C 63.25 551.18 66.71 576.57 70.03 601.97 C 72.30 619.41 77.43 636.28 82.93 652.92 C 87.29 661.27 92.31 669.32 95.86 678.09 C 97.37 681.82 98.71 685.68 101.06 688.99 C 107.26 698.10 114.04 706.81 120.17 715.97 C 131.77 732.46 136.73 752.42 141.19 771.78 C 134.91 772.89 128.69 774.40 122.67 776.50 C 121.35 768.61 119.05 760.93 116.86 753.25 C 113.86 743.75 110.50 734.23 105.24 725.71 C 99.22 716.47 92.70 707.57 86.30 698.59 C 83.49 694.57 80.48 690.60 78.83 685.93 C 75.08 676.00 69.61 666.86 64.71 657.49 C 58.68 640.75 53.90 623.49 51.51 605.84 C 47.89 577.50 44.04 549.17 38.88 521.05 C 36.99 508.33 36.81 495.29 38.87 482.58 C 42.22 464.58 44.48 446.35 44.82 428.04 C 45.00 423.19 43.99 418.43 43.42 413.65 C 42.34 398.08 45.21 382.49 43.59 366.94 C 42.88 359.55 41.76 352.18 41.84 344.75 Z" />
<path fill="#0348ae" opacity="1.00" d=" M 93.40 330.50 C 100.39 334.29 106.55 339.37 113.01 343.95 C 114.52 372.03 110.63 400.02 109.74 428.06 C 110.99 453.95 102.55 479.16 102.74 505.02 C 104.14 531.47 110.58 557.38 111.53 583.87 C 112.36 594.32 113.44 604.76 114.89 615.14 C 116.11 624.35 119.14 633.17 122.06 641.95 C 125.54 652.04 129.51 662.01 134.87 671.26 C 134.86 675.33 134.68 679.63 136.57 683.39 C 138.44 687.70 142.74 690.95 142.86 695.95 C 143.42 702.66 143.19 709.41 143.29 716.14 C 138.82 709.42 134.91 702.34 130.33 695.68 C 125.72 688.58 120.68 681.71 116.93 674.09 C 109.25 658.63 103.32 642.38 97.95 626.00 C 94.02 613.68 93.71 600.67 92.46 587.91 C 91.42 577.31 91.14 566.63 89.30 556.12 C 87.37 542.78 85.51 529.42 84.07 516.02 C 82.97 506.65 83.22 497.16 84.43 487.82 C 86.20 472.85 88.83 457.98 90.14 442.96 C 90.69 436.98 89.95 431.00 90.24 425.02 C 91.06 406.01 92.43 387.03 93.24 368.02 C 93.76 355.52 94.36 342.99 93.40 330.50 Z" />
<path fill="#0348ae" opacity="1.00" d=" M 20.89 375.00 C 22.12 366.81 27.62 360.15 32.75 353.98 C 29.28 364.74 26.83 375.84 24.88 386.98 C 23.17 396.23 23.52 405.67 23.24 415.03 C 23.12 423.69 22.68 432.35 23.00 441.02 C 23.29 451.76 23.38 462.62 21.21 473.20 C 19.36 481.98 18.31 490.96 18.56 499.95 C 18.71 507.38 20.96 514.51 22.22 521.78 C 24.69 535.39 27.18 549.17 26.50 563.06 C 26.47 570.37 25.26 578.04 28.10 585.01 C 32.82 598.07 36.53 611.48 39.32 625.09 C 42.76 640.62 43.50 657.62 53.19 670.93 C 61.06 679.37 65.66 690.11 70.85 700.27 C 75.47 711.74 82.61 722.04 90.62 731.40 C 96.37 737.30 102.78 742.77 106.95 750.01 C 108.60 752.69 109.54 755.82 109.52 758.99 C 109.56 766.32 109.48 773.65 109.52 780.99 C 106.52 782.32 103.54 783.70 100.46 784.84 C 99.92 775.45 102.72 765.43 98.42 756.58 C 93.96 747.60 86.67 740.39 79.00 734.10 C 74.91 730.85 72.76 725.96 70.61 721.35 C 65.56 710.26 61.71 698.44 54.41 688.53 C 50.86 683.48 45.31 680.04 42.74 674.27 C 33.65 656.01 34.26 635.05 29.62 615.58 C 27.74 608.78 25.11 602.21 22.21 595.79 C 20.54 591.71 18.42 587.48 19.01 582.94 C 20.41 572.94 17.56 562.99 18.47 552.97 C 19.23 537.35 15.07 521.98 10.80 507.10 C 9.83 500.81 10.53 494.41 10.93 488.10 C 12.04 471.04 15.69 454.14 14.99 436.99 C 15.13 416.23 15.72 395.21 20.89 375.00 Z" />
<path fill="#0348ae" opacity="1.00" d=" M 356.60 379.57 C 354.63 370.90 351.27 362.61 349.23 353.97 C 359.27 376.25 363.74 400.66 365.80 424.88 C 368.56 448.02 375.99 470.20 380.56 492.98 C 385.67 516.93 388.68 541.55 386.79 566.05 C 386.04 575.45 385.77 584.88 385.36 594.31 C 383.54 577.11 380.24 560.10 377.95 542.96 C 373.66 514.34 369.06 485.76 364.96 457.11 C 365.69 431.05 362.96 404.87 356.60 379.57 Z" />
<path fill="#0348ae" opacity="1.00" d=" M 135.37 362.66 C 140.62 367.46 145.62 372.63 149.77 378.42 C 151.17 380.64 152.92 383.25 152.08 386.00 C 147.98 400.54 147.65 415.87 149.17 430.82 C 148.61 455.05 145.17 479.07 143.37 503.21 C 138.74 510.77 130.67 515.21 124.83 521.71 C 124.37 511.17 124.62 500.60 125.73 490.11 C 128.42 461.21 132.29 432.42 134.13 403.45 C 134.58 389.85 134.84 376.25 135.37 362.66 Z" />
<path fill="#0348ae" opacity="1.00" d=" M 354.61 533.10 C 355.11 524.68 357.06 516.45 358.71 508.21 C 358.79 511.78 359.54 515.29 360.06 518.83 C 366.55 561.82 372.09 604.95 377.37 648.12 C 379.75 668.39 382.37 688.64 383.90 709.00 C 383.83 722.86 388.63 736.06 392.29 749.25 C 387.59 748.46 382.86 747.92 378.09 747.87 C 374.81 737.00 371.24 726.12 369.66 714.85 C 369.73 703.22 368.62 691.62 367.54 680.05 C 363.87 642.65 359.59 605.30 354.22 568.09 C 353.55 563.72 352.72 559.35 352.61 554.92 C 352.94 547.62 354.03 540.38 354.61 533.10 Z" />
<path fill="#0348ae" opacity="1.00" d=" M 125.21 529.76 C 127.51 535.41 130.36 540.83 132.52 546.53 C 134.31 552.46 132.09 558.67 129.29 563.92 C 127.90 552.54 126.10 541.20 125.21 529.76 Z" />
<path fill="#0348ae" opacity="1.00" d=" M 347.06 633.01 C 346.46 624.36 346.72 615.63 347.97 607.05 C 349.27 626.02 350.61 645.00 351.73 663.99 C 352.37 673.44 354.48 682.73 355.25 692.17 C 355.66 698.11 356.40 704.03 356.55 710.00 C 356.82 716.17 358.91 722.04 360.06 728.07 C 361.40 735.79 364.35 743.08 366.81 750.49 C 364.68 751.80 362.62 753.23 360.66 754.78 C 357.70 746.69 353.60 738.71 353.41 729.92 C 353.21 726.16 352.00 722.58 350.87 719.03 C 348.56 711.61 348.18 703.71 349.09 696.03 C 348.58 684.55 346.10 673.27 344.18 661.98 C 345.07 658.64 346.86 655.59 347.35 652.14 C 348.64 645.80 347.42 639.37 347.06 633.01 Z" />
</g>
</svg>
