<?xml version="1.0" encoding="UTF-8" ?>
<!DOCTYPE svg PUBLIC "-//W3C//DTD SVG 1.1//EN" "http://www.w3.org/Graphics/SVG/1.1/DTD/svg11.dtd">
<svg width="279pt" height="547pt" viewBox="0 0 279 547" version="1.1" xmlns="http://www.w3.org/2000/svg">
<g id="#ffffffff">
<path fill="#ffffff" opacity="1.00" d=" M 102.14 84.14 C 105.23 82.68 108.66 81.18 112.13 82.09 C 115.65 83.02 117.47 87.62 115.76 90.76 C 111.89 98.84 107.91 106.86 104.60 115.18 C 102.17 109.00 99.76 102.67 99.15 95.99 C 99.27 91.89 100.44 87.86 102.14 84.14 Z" />
<path fill="#ffffff" opacity="1.00" d=" M 158.57 438.90 C 159.24 437.64 160.56 437.28 161.83 436.94 C 161.82 438.60 160.88 440.52 162.18 441.97 C 161.34 441.93 159.67 441.87 158.83 441.83 C 159.91 440.63 160.88 439.33 161.59 437.87 C 160.84 438.13 159.33 438.64 158.57 438.90 Z" />
<path fill="#ffffff" opacity="1.00" d=" M 162.53 438.47 C 164.41 436.22 167.32 438.90 169.61 437.28 C 169.53 438.77 169.48 440.27 169.45 441.78 C 169.16 441.81 168.59 441.86 168.30 441.88 C 168.43 441.27 168.68 440.04 168.80 439.42 C 168.15 439.12 166.84 438.52 166.19 438.22 C 166.17 439.11 166.14 440.89 166.12 441.78 C 165.44 441.76 164.06 441.71 163.37 441.69 C 163.16 440.89 162.74 439.28 162.53 438.47 M 164.38 438.36 C 163.51 439.61 163.73 440.40 165.02 440.72 C 165.87 439.47 165.65 438.68 164.38 438.36 Z" />
<path fill="#ffffff" opacity="1.00" d=" M 171.40 437.43 C 172.00 437.35 173.19 437.21 173.79 437.14 L 173.87 438.24 C 173.30 438.24 172.16 438.23 171.59 438.22 C 172.81 438.98 173.94 439.87 174.96 440.89 C 174.22 440.60 172.73 440.04 171.98 439.76 L 172.00 441.40 C 172.68 441.33 174.04 441.21 174.72 441.15 C 173.83 441.67 172.93 442.17 172.03 442.66 C 171.26 441.00 170.97 439.22 171.40 437.43 Z" />
<path fill="#ffffff" opacity="1.00" d=" M 131.02 438.47 C 132.67 438.47 134.32 438.46 135.98 438.45 C 135.84 439.76 135.75 441.09 135.70 442.43 C 135.37 441.54 134.73 439.78 134.41 438.90 C 134.13 439.83 133.59 441.69 133.31 442.62 C 133.25 441.77 133.12 440.07 133.06 439.22 L 131.81 439.25 C 131.73 440.07 131.57 441.72 131.49 442.54 C 130.65 441.30 130.88 439.85 131.02 438.47 Z" />
<path fill="#ffffff" opacity="1.00" d=" M 138.21 437.68 C 140.04 438.42 140.45 440.12 140.50 441.96 C 138.85 441.91 137.31 441.52 135.88 440.79 C 136.71 440.68 138.35 440.45 139.17 440.34 C 138.93 439.68 138.45 438.35 138.21 437.68 Z" />
<path fill="#ffffff" opacity="1.00" d=" M 141.43 438.60 C 142.51 438.54 143.60 438.48 144.68 438.43 L 144.68 440.09 C 145.25 439.61 146.39 438.65 146.96 438.17 C 147.42 438.36 148.32 438.75 148.77 438.95 C 148.72 439.76 148.63 441.40 148.59 442.21 C 147.56 441.97 145.21 442.65 146.25 440.38 L 144.46 440.34 C 144.57 441.00 144.79 442.32 144.90 442.98 C 143.70 442.51 142.49 442.08 141.37 441.49 C 141.34 440.52 141.37 439.56 141.43 438.60 M 142.25 439.87 C 142.48 443.28 145.16 438.20 142.25 439.87 Z" />
<path fill="#ffffff" opacity="1.00" d=" M 111.60 442.43 C 111.14 441.02 111.21 439.75 112.59 439.05 C 112.57 440.05 112.53 442.05 112.51 443.05 C 113.78 442.14 114.75 440.92 115.69 439.69 C 114.80 441.67 114.34 443.78 114.03 445.92 L 115.60 445.42 C 115.51 449.06 115.64 452.70 115.48 456.35 C 114.13 454.32 114.80 451.90 114.77 449.65 C 114.36 451.07 114.04 452.51 113.80 453.98 C 113.00 451.29 110.99 448.91 111.00 446.03 L 111.30 445.27 C 111.95 445.30 113.26 445.35 113.91 445.38 C 113.91 445.16 113.90 444.73 113.90 444.51 C 111.37 444.53 108.85 444.56 106.33 444.71 C 105.83 443.05 105.34 441.38 104.89 439.71 C 105.66 440.99 106.44 442.27 107.22 443.55 C 107.29 442.66 107.43 440.88 107.50 439.99 C 108.10 440.05 109.31 440.18 109.91 440.24 C 109.49 440.77 108.64 441.84 108.22 442.37 C 109.07 442.38 110.76 442.42 111.60 442.43 Z" />
<path fill="#ffffff" opacity="1.00" d=" M 142.30 443.18 C 142.86 443.74 142.86 443.74 142.30 443.18 Z" />
<path fill="#ffffff" opacity="1.00" d=" M 128.69 444.71 C 128.88 444.63 129.26 444.46 129.46 444.38 C 131.08 447.91 129.58 452.14 130.92 455.87 C 130.17 455.34 129.44 454.78 128.74 454.21 C 128.38 451.06 128.47 447.86 128.69 444.71 Z" />
<path fill="#ffffff" opacity="1.00" d=" M 132.51 444.11 C 135.87 446.67 132.21 452.28 135.13 455.55 C 134.43 455.31 133.04 454.82 132.35 454.58 C 132.32 451.09 132.26 447.59 132.51 444.11 Z" />
<path fill="#ffffff" opacity="1.00" d=" M 118.92 455.48 C 119.62 451.42 121.04 447.50 122.99 443.88 C 125.07 447.28 126.36 451.13 127.30 454.98 C 125.88 455.02 125.09 454.21 124.94 452.56 C 123.69 452.57 122.44 452.60 121.20 452.64 C 120.93 454.00 120.17 454.94 118.92 455.48 M 122.32 448.48 C 120.90 449.45 122.28 452.25 123.85 450.96 C 125.11 450.00 123.78 447.26 122.32 448.48 Z" />
<path fill="#ffffff" opacity="1.00" d=" M 105.33 445.20 C 106.93 445.07 108.41 445.37 109.77 446.11 C 108.83 449.45 106.88 452.51 105.79 455.84 C 105.61 452.29 106.01 448.71 105.33 445.20 Z" />
<path fill="#ffffff" opacity="1.00" d=" M 146.63 447.76 C 147.60 447.21 148.51 446.59 149.38 445.89 C 149.67 446.30 150.26 447.12 150.56 447.54 C 150.99 447.75 151.84 448.17 152.27 448.39 C 149.11 448.67 149.32 454.32 152.27 454.54 C 151.70 456.12 150.28 455.41 149.21 454.85 C 148.30 453.45 148.88 451.62 148.68 450.09 C 148.01 449.51 147.33 448.94 146.64 448.40 C 144.71 450.21 145.28 452.83 145.18 455.15 C 144.82 455.24 144.09 455.40 143.73 455.49 C 143.85 453.84 143.20 452.33 141.76 451.48 C 140.59 451.59 138.26 451.80 137.09 451.90 C 137.74 454.46 140.36 454.10 142.36 453.74 C 141.24 456.62 136.50 455.59 135.83 452.90 C 134.71 450.47 136.78 448.20 138.95 447.42 C 140.37 447.77 141.32 448.58 141.78 449.84 C 142.21 450.01 143.07 450.35 143.51 450.52 C 142.06 447.38 145.31 448.60 146.63 447.76 M 137.46 450.08 C 137.89 451.38 140.46 451.38 140.83 450.04 C 140.42 448.65 137.81 448.63 137.46 450.08 Z" />
<path fill="#ffffff" opacity="1.00" d=" M 161.40 447.68 C 163.20 447.95 165.01 448.10 166.80 448.36 C 168.49 450.30 168.03 453.33 167.53 455.67 C 165.15 455.10 166.85 451.19 166.25 449.40 C 165.70 449.40 164.60 449.39 164.05 449.38 C 161.14 449.93 164.68 455.31 161.55 455.63 C 161.18 452.99 161.33 450.33 161.40 447.68 Z" />
<path fill="#ffffff" opacity="1.00" d=" M 169.70 448.82 C 171.13 447.15 173.70 447.55 174.85 449.30 C 173.50 449.18 172.16 448.99 170.83 448.84 C 170.92 450.79 172.78 451.17 174.27 451.77 C 174.54 452.26 175.08 453.24 175.36 453.73 C 177.20 454.42 178.41 451.93 180.15 451.59 C 179.71 452.10 178.82 453.11 178.38 453.62 C 178.76 454.19 179.51 455.32 179.89 455.88 C 179.49 455.53 178.71 454.82 178.31 454.47 C 177.56 454.94 176.81 455.43 176.07 455.91 C 175.28 455.49 174.50 455.09 173.71 454.70 C 172.10 455.87 169.70 455.65 168.87 453.73 C 170.43 453.90 171.98 454.04 173.55 454.10 C 172.70 451.89 168.35 451.74 169.70 448.82 Z" />
<path fill="#ffffff" opacity="1.00" d=" M 154.29 448.40 C 156.74 446.60 160.75 448.83 159.93 451.99 C 160.25 455.50 154.86 456.66 153.30 453.73 C 152.20 452.05 152.58 449.48 154.29 448.40 M 154.63 449.73 C 154.59 450.99 154.56 452.26 154.54 453.54 C 155.15 453.63 156.37 453.82 156.99 453.91 C 159.19 452.95 158.47 450.29 157.09 448.96 C 156.48 449.15 155.25 449.54 154.63 449.73 Z" />
<path fill="#ffffff" opacity="1.00" d=" M 107.00 456.38 C 108.15 454.51 109.33 452.66 110.39 450.75 C 111.13 453.34 112.40 455.77 115.20 456.52 C 112.47 456.43 109.74 456.43 107.00 456.38 Z" />
<path fill="#ffffff" opacity="1.00" d=" M 182.31 452.18 C 183.21 451.41 185.49 452.23 185.15 453.54 C 184.24 454.10 181.90 453.53 182.31 452.18 Z" />
<path fill="#ffffff" opacity="1.00" d=" M 185.55 452.29 C 187.29 452.28 189.03 452.27 190.77 452.25 C 190.74 453.17 190.67 454.99 190.63 455.90 C 190.36 455.18 189.81 453.73 189.53 453.01 L 188.60 452.99 C 188.65 453.67 188.76 455.04 188.81 455.72 C 188.56 455.08 188.05 453.80 187.79 453.16 C 187.30 453.26 186.32 453.46 185.83 453.57 L 185.55 452.29 Z" />
</g>
<g id="#000000ff">
<path fill="#000000" opacity="1.00" d=" M 124.50 13.40 C 141.30 4.21 161.37 1.25 180.12 5.16 C 194.32 7.61 208.19 14.17 217.63 25.27 C 224.44 32.94 228.45 42.70 230.65 52.62 C 237.26 61.69 238.78 75.91 230.54 84.46 C 227.29 87.96 225.25 92.39 221.75 95.66 C 219.00 98.33 216.29 101.04 213.23 103.35 C 211.80 116.65 210.29 130.11 211.70 143.48 C 211.85 146.59 213.95 149.43 213.55 152.54 C 211.44 157.74 206.61 161.33 201.87 164.01 C 198.57 165.91 196.01 161.92 194.64 159.44 C 192.26 155.83 196.98 153.35 199.05 151.00 C 201.66 148.03 206.48 146.00 206.15 141.41 C 207.30 123.25 207.98 105.08 208.67 86.90 C 208.78 83.32 208.56 79.56 206.85 76.34 C 197.75 68.04 185.01 65.35 173.03 65.02 C 156.75 64.72 140.36 67.60 125.19 73.49 C 125.67 80.67 126.21 87.96 124.80 95.07 C 123.75 101.40 118.73 105.99 116.87 112.03 C 113.11 122.72 109.96 134.39 112.72 145.70 C 107.18 144.28 103.94 138.77 98.54 137.11 C 98.20 142.07 99.28 146.96 99.72 151.88 C 100.44 159.59 99.80 167.39 101.05 175.05 C 101.37 177.58 102.43 179.91 103.82 182.03 C 106.74 178.86 106.42 174.31 107.73 170.45 C 109.55 164.31 111.47 157.15 117.40 153.72 C 119.90 152.00 122.37 154.17 124.54 155.33 C 139.82 164.12 155.11 172.91 170.42 181.65 C 171.28 182.25 172.68 182.69 172.64 183.98 C 173.22 191.42 173.41 198.88 173.90 206.32 C 174.43 206.20 175.49 205.95 176.03 205.83 C 176.80 198.74 176.63 191.55 177.47 184.46 C 180.44 180.74 183.39 176.79 187.00 173.69 L 187.92 174.08 C 188.02 174.44 188.22 175.15 188.31 175.50 C 188.58 183.95 188.46 192.40 188.64 200.85 C 196.12 204.73 203.39 208.99 210.53 213.46 C 218.60 218.69 226.78 224.00 233.36 231.10 C 237.51 232.98 239.56 237.40 241.63 241.19 C 249.55 257.99 252.61 276.58 254.36 294.93 C 257.46 315.15 264.09 334.66 266.80 354.96 C 268.94 368.51 268.98 382.29 267.92 395.94 C 266.95 412.94 267.23 430.00 268.59 446.96 C 268.97 449.32 267.34 451.26 266.36 453.25 C 268.05 454.55 270.29 455.71 270.33 458.17 C 269.76 460.15 268.82 462.01 268.39 464.04 C 268.88 466.04 270.13 467.90 269.85 470.05 C 269.55 477.37 269.34 484.71 269.60 492.04 C 270.39 500.23 273.02 508.08 275.12 516.01 C 275.50 517.44 276.09 519.85 273.99 520.27 C 268.94 520.49 264.00 518.46 258.92 519.14 C 254.65 519.34 250.73 521.55 247.91 524.68 C 246.70 524.06 245.63 523.18 245.27 521.83 C 242.67 515.44 240.10 508.87 239.86 501.89 C 238.71 496.31 236.81 490.81 237.02 485.03 C 237.90 475.80 235.78 466.64 234.12 457.61 C 229.91 461.20 224.25 462.02 219.03 463.14 C 212.74 464.43 206.32 463.78 199.97 464.06 C 185.66 463.67 171.34 464.39 157.03 464.08 C 145.96 463.64 134.87 464.18 123.81 463.76 C 113.92 462.77 103.97 462.65 94.08 463.54 C 92.60 469.97 99.21 473.89 99.48 479.92 C 100.01 484.98 99.41 490.13 100.46 495.15 C 103.50 508.29 105.87 521.64 107.00 535.08 C 93.33 533.02 80.43 539.46 67.95 544.04 C 66.61 544.76 65.66 542.95 65.52 541.88 C 64.73 534.92 67.23 527.19 63.11 520.90 C 59.57 514.37 53.23 510.23 48.35 504.87 C 42.44 495.84 39.91 484.96 33.60 476.14 C 30.59 472.33 26.73 469.10 24.73 464.57 C 19.12 452.30 18.96 438.55 16.29 425.53 C 14.38 416.50 7.93 408.54 8.88 398.97 C 9.17 392.63 8.36 386.31 8.69 379.98 C 9.18 369.40 5.79 359.23 3.20 349.14 C 2.35 335.68 5.27 322.35 6.23 308.96 C 6.29 290.32 6.16 271.31 11.37 253.24 C 20.93 232.10 35.33 212.51 54.87 199.60 C 65.76 192.21 78.59 188.21 91.61 186.80 C 88.86 180.10 85.78 171.72 90.09 165.03 C 91.68 162.03 94.09 159.60 96.04 156.85 C 97.37 154.94 96.34 152.65 95.34 150.87 C 92.93 146.67 92.52 141.56 93.33 136.87 C 93.79 133.36 97.66 132.14 99.30 129.34 C 101.83 125.26 103.38 120.65 104.73 116.06 C 100.92 113.67 100.28 108.75 96.88 106.09 C 92.28 87.06 90.66 66.66 96.81 47.78 C 101.11 33.28 111.24 20.67 124.50 13.40 M 131.91 11.96 C 131.42 12.28 130.43 12.90 129.93 13.22 C 127.50 13.63 125.44 15.10 123.36 16.32 C 115.19 21.26 108.21 28.27 103.76 36.74 C 94.89 52.53 93.91 71.37 95.73 89.02 C 97.26 83.99 99.61 79.15 103.25 75.30 C 111.64 66.21 122.27 59.01 134.09 55.23 C 139.51 53.44 143.58 49.21 148.68 46.81 C 164.80 38.95 183.44 36.23 201.11 39.43 C 210.29 41.01 219.62 43.75 227.00 49.69 C 224.22 37.54 217.55 25.81 207.11 18.74 C 199.98 13.03 191.18 9.56 182.21 8.03 C 165.67 3.06 147.68 5.49 131.91 11.96 M 145.78 50.90 C 166.95 46.39 190.47 46.04 209.74 57.20 C 218.83 62.49 228.26 70.74 228.38 82.12 C 236.89 72.46 233.37 55.86 222.65 49.27 C 211.80 42.40 198.61 40.32 185.97 40.15 C 172.03 40.39 157.65 43.34 145.78 50.90 M 102.14 84.14 C 100.44 87.86 99.27 91.89 99.15 95.99 C 99.76 102.67 102.17 109.00 104.60 115.18 C 107.91 106.86 111.89 98.84 115.76 90.76 C 117.47 87.62 115.65 83.02 112.13 82.09 C 108.66 81.18 105.23 82.68 102.14 84.14 M 115.00 159.01 C 111.25 164.65 109.81 171.41 108.32 177.91 C 107.96 180.03 106.69 181.78 105.39 183.43 C 110.25 189.98 116.28 195.73 120.06 203.02 C 121.52 205.68 120.27 209.86 123.45 211.39 C 127.47 212.41 131.90 211.29 135.73 213.18 C 136.82 215.23 134.34 216.11 132.95 216.95 C 128.97 218.73 124.44 220.22 120.06 219.24 C 115.41 216.11 117.45 208.41 112.32 205.72 C 104.80 201.46 97.43 196.22 92.98 188.61 C 85.35 190.48 77.45 191.26 70.15 194.33 C 49.46 202.66 33.11 219.40 21.84 238.32 C 29.85 231.30 38.21 224.42 47.96 219.96 C 50.33 218.86 53.16 218.28 55.60 219.51 C 61.11 222.04 66.10 225.57 71.06 229.03 C 81.32 236.59 91.53 244.39 100.30 253.69 C 103.10 256.96 106.69 260.37 106.85 264.96 C 103.85 277.01 102.94 289.86 105.96 302.01 C 107.26 316.18 102.71 330.02 101.78 344.08 C 100.40 351.57 93.10 355.34 88.14 360.26 C 86.89 364.82 90.46 368.95 91.84 373.12 C 95.28 380.78 91.45 389.41 86.23 395.24 C 84.75 397.19 82.13 399.18 82.91 401.95 C 84.95 406.06 88.63 409.04 91.03 412.92 C 93.30 416.60 95.25 420.59 95.88 424.92 C 97.89 436.92 95.97 449.09 94.30 461.00 C 104.51 459.83 114.81 460.12 125.03 461.05 C 135.34 461.53 145.68 461.04 156.01 461.32 C 170.15 461.84 184.30 461.13 198.44 461.11 C 198.44 458.08 198.35 455.06 198.31 452.03 C 198.17 445.65 199.99 439.40 199.59 433.01 C 199.40 422.42 196.88 412.09 194.07 401.93 C 190.55 382.22 188.68 362.24 187.02 342.29 C 185.86 329.55 184.93 316.77 184.77 303.97 C 185.18 286.15 182.59 268.45 180.22 250.85 C 179.77 247.52 179.60 244.14 178.51 240.95 C 177.77 230.15 175.36 219.52 173.90 208.79 C 173.31 208.68 172.13 208.45 171.53 208.34 C 171.05 200.42 170.58 192.50 170.33 184.58 C 154.22 174.97 137.81 165.85 121.59 156.42 C 119.16 154.40 116.41 157.06 115.00 159.01 M 179.63 185.39 C 178.86 192.61 178.98 199.92 178.19 207.13 C 177.73 207.54 176.79 208.37 176.33 208.78 C 177.68 216.12 178.49 223.59 180.00 230.89 C 182.47 252.58 186.58 274.14 187.18 296.02 C 186.90 311.05 187.97 326.06 189.25 341.03 C 191.16 361.09 192.95 381.20 196.25 401.09 C 199.75 414.57 203.26 428.53 201.30 442.54 C 200.38 448.71 200.57 454.95 200.79 461.17 C 208.61 461.46 216.57 461.40 224.14 459.19 C 227.64 458.07 232.11 457.44 233.71 453.62 C 237.75 445.60 234.61 436.51 235.45 428.01 C 236.99 407.69 239.14 387.42 240.89 367.12 C 241.61 354.62 245.34 342.56 246.49 330.12 C 249.62 302.86 246.75 274.94 238.27 248.85 C 236.14 243.55 235.00 237.75 231.78 232.97 C 225.69 225.68 217.49 220.62 209.64 215.44 C 202.09 210.40 193.88 206.45 186.15 201.74 C 185.56 193.85 185.86 185.88 185.76 177.96 C 183.72 180.43 181.29 182.63 179.63 185.39 M 43.53 225.48 C 32.62 232.18 22.36 240.51 15.43 251.42 C 13.80 253.89 12.99 256.76 12.43 259.64 C 8.44 276.42 8.79 293.80 8.56 310.93 C 7.56 322.26 5.74 333.54 5.48 344.93 C 5.30 350.17 7.68 354.97 8.67 360.02 C 10.09 366.90 11.65 373.89 11.10 380.96 C 10.68 387.65 12.12 394.30 11.53 400.99 C 10.80 406.43 14.13 411.15 15.87 416.06 C 22.49 431.21 20.40 448.60 27.26 463.67 C 29.65 469.30 34.96 472.84 38.02 478.02 C 41.68 484.05 44.14 490.71 46.92 497.17 C 48.40 500.46 49.92 503.91 52.78 506.24 C 58.57 511.15 64.48 516.62 67.12 523.93 C 68.72 529.62 67.61 535.61 67.88 541.44 C 79.51 536.78 91.59 531.61 104.38 532.33 C 103.30 523.67 102.04 515.02 100.38 506.45 C 99.38 501.31 97.56 496.30 97.44 491.03 C 97.16 486.69 97.65 482.27 96.62 478.01 C 95.41 474.82 92.56 472.40 91.92 468.95 C 91.03 463.82 91.98 458.61 92.64 453.52 C 93.80 443.32 95.17 432.81 92.40 422.75 C 90.45 416.66 86.19 411.76 82.21 406.90 C 80.23 404.66 79.10 401.31 80.53 398.50 C 82.73 395.10 85.88 392.37 87.63 388.66 C 89.90 384.56 91.26 379.41 89.12 374.98 C 87.41 370.21 83.67 365.44 84.85 360.18 C 88.26 353.79 97.16 351.37 98.43 343.56 C 99.70 332.01 102.00 320.58 103.03 309.00 C 103.72 303.55 101.32 298.44 101.09 293.06 C 100.82 284.34 100.66 275.45 103.09 266.98 C 104.32 264.13 102.37 261.44 100.72 259.27 C 95.03 251.95 87.71 246.15 80.62 240.27 C 72.50 233.99 64.29 227.74 55.30 222.74 C 51.30 220.21 47.04 223.63 43.53 225.48 M 241.32 249.87 C 251.14 280.09 253.04 312.74 247.33 343.97 C 246.06 351.66 244.13 359.26 243.44 367.04 C 241.54 386.69 239.89 406.37 238.07 426.04 C 237.46 433.02 238.80 439.96 238.65 446.93 C 238.67 450.45 236.85 453.59 236.22 456.95 C 237.62 466.25 240.41 475.57 239.15 485.05 C 238.72 491.97 242.22 498.27 242.61 505.09 C 243.22 510.59 245.69 515.65 247.53 520.82 C 254.44 514.47 264.37 516.08 272.79 517.49 C 270.98 509.02 267.93 500.79 267.16 492.12 C 266.84 485.08 267.00 478.03 267.26 470.99 C 267.52 468.55 266.27 466.35 265.73 464.05 C 265.81 461.81 266.87 459.79 267.62 457.73 C 266.13 456.39 263.60 455.33 263.81 452.94 C 264.69 450.74 266.27 448.67 265.78 446.16 C 264.51 428.85 264.21 411.45 265.38 394.13 C 265.80 386.43 266.19 378.71 265.71 371.00 C 265.09 358.23 262.52 345.67 259.86 333.20 C 256.47 318.86 252.40 304.63 250.80 289.95 C 249.43 274.57 246.20 259.22 240.17 244.97 C 240.44 246.62 240.80 248.26 241.32 249.87 Z" />
</g>
<g id="#0348aeff">
<path fill="#0348ae" opacity="1.00" d=" M 131.91 11.96 C 147.68 5.49 165.67 3.06 182.21 8.03 C 191.18 9.56 199.98 13.03 207.11 18.74 C 200.98 17.78 194.79 17.26 188.63 16.52 C 190.55 23.05 192.42 29.60 193.88 36.26 C 184.56 28.32 173.47 22.80 162.04 18.63 C 148.34 23.28 135.47 29.99 122.75 36.78 C 128.36 27.86 134.48 18.44 143.95 13.21 C 139.28 13.31 134.60 13.19 129.93 13.22 C 130.43 12.90 131.42 12.28 131.91 11.96 Z" />
<path fill="#0348ae" opacity="1.00" d=" M 43.53 225.48 C 47.04 223.63 51.30 220.21 55.30 222.74 C 64.29 227.74 72.50 233.99 80.62 240.27 C 87.71 246.15 95.03 251.95 100.72 259.27 C 102.37 261.44 104.32 264.13 103.09 266.98 C 100.66 275.45 100.82 284.34 101.09 293.06 C 101.32 298.44 103.72 303.55 103.03 309.00 C 102.00 320.58 99.70 332.01 98.43 343.56 C 97.16 351.37 88.26 353.79 84.85 360.18 C 83.67 365.44 87.41 370.21 89.12 374.98 C 91.26 379.41 89.90 384.56 87.63 388.66 C 85.88 392.37 82.73 395.10 80.53 398.50 C 79.10 401.31 80.23 404.66 82.21 406.90 C 86.19 411.76 90.45 416.66 92.40 422.75 C 95.17 432.81 93.80 443.32 92.64 453.52 C 91.98 458.61 91.03 463.82 91.92 468.95 C 92.56 472.40 95.41 474.82 96.62 478.01 C 97.65 482.27 97.16 486.69 97.44 491.03 C 97.56 496.30 99.38 501.31 100.38 506.45 C 102.04 515.02 103.30 523.67 104.38 532.33 C 91.59 531.61 79.51 536.78 67.88 541.44 C 67.61 535.61 68.72 529.62 67.12 523.93 C 64.48 516.62 58.57 511.15 52.78 506.24 C 49.92 503.91 48.40 500.46 46.92 497.17 C 44.14 490.71 41.68 484.05 38.02 478.02 C 34.96 472.84 29.65 469.30 27.26 463.67 C 20.40 448.60 22.49 431.21 15.87 416.06 C 14.13 411.15 10.80 406.43 11.53 400.99 C 12.12 394.30 10.68 387.65 11.10 380.96 C 11.65 373.89 10.09 366.90 8.67 360.02 C 7.68 354.97 5.30 350.17 5.48 344.93 C 5.74 333.54 7.56 322.26 8.56 310.93 C 8.79 293.80 8.44 276.42 12.43 259.64 C 12.99 256.76 13.80 253.89 15.43 251.42 C 22.36 240.51 32.62 232.18 43.53 225.48 Z" />
<path fill="#0348ae" opacity="1.00" d=" M 180.00 230.89 C 189.43 247.91 196.92 265.94 203.95 284.06 C 215.74 285.50 227.54 286.82 239.34 288.23 C 230.55 297.73 220.98 306.49 212.17 315.94 C 218.82 337.97 223.36 360.61 227.62 383.22 C 223.59 377.98 220.10 372.34 215.72 367.38 C 207.95 357.59 198.70 349.14 189.25 341.03 C 187.97 326.06 186.90 311.05 187.18 296.02 C 186.58 274.14 182.47 252.58 180.00 230.89 Z" />
<path fill="#0348ae" opacity="1.00" d=" M 178.51 240.95 C 179.60 244.14 179.77 247.52 180.22 250.85 C 182.59 268.45 185.18 286.15 184.77 303.97 C 184.93 316.77 185.86 329.55 187.02 342.29 C 170.78 354.17 156.83 368.75 142.90 383.17 C 149.52 360.09 156.74 337.18 163.33 314.09 C 151.74 304.40 140.50 294.30 128.92 284.59 C 142.93 283.84 156.95 283.25 170.96 282.58 C 173.42 268.69 175.99 254.82 178.51 240.95 Z" />
<path fill="#0348ae" opacity="1.00" d=" M 241.32 249.87 C 240.80 248.26 240.44 246.62 240.17 244.97 C 246.20 259.22 249.43 274.57 250.80 289.95 C 252.40 304.63 256.47 318.86 259.86 333.20 C 262.52 345.67 265.09 358.23 265.71 371.00 C 266.19 378.71 265.80 386.43 265.38 394.13 C 264.21 411.45 264.51 428.85 265.78 446.16 C 266.27 448.67 264.69 450.74 263.81 452.94 C 263.60 455.33 266.13 456.39 267.62 457.73 C 266.87 459.79 265.81 461.81 265.73 464.05 C 266.27 466.35 267.52 468.55 267.26 470.99 C 267.00 478.03 266.84 485.08 267.16 492.12 C 267.93 500.79 270.98 509.02 272.79 517.49 C 264.37 516.08 254.44 514.47 247.53 520.82 C 245.69 515.65 243.22 510.59 242.61 505.09 C 242.22 498.27 238.72 491.97 239.15 485.05 C 240.41 475.57 237.62 466.25 236.22 456.95 C 236.85 453.59 238.67 450.45 238.65 446.93 C 238.80 439.96 237.46 433.02 238.07 426.04 C 239.89 406.37 241.54 386.69 243.44 367.04 C 244.13 359.26 246.06 351.66 247.33 343.97 C 253.04 312.74 251.14 280.09 241.32 249.87 Z" />
</g>
<g id="#f11c0fff">
<path fill="#f11c0f" opacity="1.00" d=" M 123.36 16.32 C 125.44 15.10 127.50 13.63 129.93 13.22 C 134.60 13.19 139.28 13.31 143.95 13.21 C 134.48 18.44 128.36 27.86 122.75 36.78 C 135.47 29.99 148.34 23.28 162.04 18.63 C 173.47 22.80 184.56 28.32 193.88 36.26 C 192.42 29.60 190.55 23.05 188.63 16.52 C 194.79 17.26 200.98 17.78 207.11 18.74 C 217.55 25.81 224.22 37.54 227.00 49.69 C 219.62 43.75 210.29 41.01 201.11 39.43 C 183.44 36.23 164.80 38.95 148.68 46.81 C 143.58 49.21 139.51 53.44 134.09 55.23 C 122.27 59.01 111.64 66.21 103.25 75.30 C 99.61 79.15 97.26 83.99 95.73 89.02 C 93.91 71.37 94.89 52.53 103.76 36.74 C 108.21 28.27 115.19 21.26 123.36 16.32 Z" />
<path fill="#f11c0f" opacity="1.00" d=" M 145.78 50.90 C 157.65 43.34 172.03 40.39 185.97 40.15 C 198.61 40.32 211.80 42.40 222.65 49.27 C 233.37 55.86 236.89 72.46 228.38 82.12 C 228.26 70.74 218.83 62.49 209.74 57.20 C 190.47 46.04 166.95 46.39 145.78 50.90 Z" />
<path fill="#f11c0f" opacity="1.00" d=" M 115.00 159.01 C 116.41 157.06 119.16 154.40 121.59 156.42 C 137.81 165.85 154.22 174.97 170.33 184.58 C 170.58 192.50 171.05 200.42 171.53 208.34 C 172.13 208.45 173.31 208.68 173.90 208.79 C 175.36 219.52 177.77 230.15 178.51 240.95 C 175.99 254.82 173.42 268.69 170.96 282.58 C 156.95 283.25 142.93 283.84 128.92 284.59 C 140.50 294.30 151.74 304.40 163.33 314.09 C 156.74 337.18 149.52 360.09 142.90 383.17 C 156.83 368.75 170.78 354.17 187.02 342.29 C 188.68 362.24 190.55 382.22 194.07 401.93 C 196.88 412.09 199.40 422.42 199.59 433.01 C 199.99 439.40 198.17 445.65 198.31 452.03 C 198.35 455.06 198.44 458.08 198.44 461.11 C 184.30 461.13 170.15 461.84 156.01 461.32 C 145.68 461.04 135.34 461.53 125.03 461.05 C 114.81 460.12 104.51 459.83 94.30 461.00 C 95.97 449.09 97.89 436.92 95.88 424.92 C 95.25 420.59 93.30 416.60 91.03 412.92 C 88.63 409.04 84.95 406.06 82.91 401.95 C 82.13 399.18 84.75 397.19 86.23 395.24 C 91.45 389.41 95.28 380.78 91.84 373.12 C 90.46 368.95 86.89 364.82 88.14 360.26 C 93.10 355.34 100.40 351.57 101.78 344.08 C 102.71 330.02 107.26 316.18 105.96 302.01 C 102.94 289.86 103.85 277.01 106.85 264.96 C 106.69 260.37 103.10 256.96 100.30 253.69 C 91.53 244.39 81.32 236.59 71.06 229.03 C 66.10 225.57 61.11 222.04 55.60 219.51 C 53.16 218.28 50.33 218.86 47.96 219.96 C 38.21 224.42 29.85 231.30 21.84 238.32 C 33.11 219.40 49.46 202.66 70.15 194.33 C 77.45 191.26 85.35 190.48 92.98 188.61 C 97.43 196.22 104.80 201.46 112.32 205.72 C 117.45 208.41 115.41 216.11 120.06 219.24 C 124.44 220.22 128.97 218.73 132.95 216.95 C 134.34 216.11 136.82 215.23 135.73 213.18 C 131.90 211.29 127.47 212.41 123.45 211.39 C 120.27 209.86 121.52 205.68 120.06 203.02 C 116.28 195.73 110.25 189.98 105.39 183.43 C 106.69 181.78 107.96 180.03 108.32 177.91 C 109.81 171.41 111.25 164.65 115.00 159.01 M 158.57 438.90 C 159.33 438.64 160.84 438.13 161.59 437.87 C 160.88 439.33 159.91 440.63 158.83 441.83 C 159.67 441.87 161.34 441.93 162.18 441.97 C 160.88 440.52 161.82 438.60 161.83 436.94 C 160.56 437.28 159.24 437.64 158.57 438.90 M 162.53 438.47 C 162.74 439.28 163.16 440.89 163.37 441.69 C 164.06 441.71 165.44 441.76 166.12 441.78 C 166.14 440.89 166.17 439.11 166.19 438.22 C 166.84 438.52 168.15 439.12 168.80 439.42 C 168.68 440.04 168.43 441.27 168.30 441.88 C 168.59 441.86 169.16 441.81 169.45 441.78 C 169.48 440.27 169.53 438.77 169.61 437.28 C 167.32 438.90 164.41 436.22 162.53 438.47 M 171.40 437.43 C 170.97 439.22 171.26 441.00 172.03 442.66 C 172.93 442.17 173.83 441.67 174.72 441.15 C 174.04 441.21 172.68 441.33 172.00 441.40 L 171.98 439.76 C 172.73 440.04 174.22 440.60 174.96 440.89 C 173.94 439.87 172.81 438.98 171.59 438.22 C 172.16 438.23 173.30 438.24 173.87 438.24 L 173.79 437.14 C 173.19 437.21 172.00 437.35 171.40 437.43 M 131.02 438.47 C 130.88 439.85 130.65 441.30 131.49 442.54 C 131.57 441.72 131.73 440.07 131.81 439.25 L 133.06 439.22 C 133.12 440.07 133.25 441.77 133.31 442.62 C 133.59 441.69 134.13 439.83 134.41 438.90 C 134.73 439.78 135.37 441.54 135.70 442.43 C 135.75 441.09 135.84 439.76 135.98 438.45 C 134.32 438.46 132.67 438.47 131.02 438.47 M 138.21 437.68 C 138.45 438.35 138.93 439.68 139.17 440.34 C 138.35 440.45 136.71 440.68 135.88 440.79 C 137.31 441.52 138.85 441.91 140.50 441.96 C 140.45 440.12 140.04 438.42 138.21 437.68 M 141.43 438.60 C 141.37 439.56 141.34 440.52 141.37 441.49 C 142.49 442.08 143.70 442.51 144.90 442.98 C 144.79 442.32 144.57 441.00 144.46 440.34 L 146.25 440.38 C 145.21 442.65 147.56 441.97 148.59 442.21 C 148.63 441.40 148.72 439.76 148.77 438.95 C 148.32 438.75 147.42 438.36 146.96 438.17 C 146.39 438.65 145.25 439.61 144.68 440.09 L 144.68 438.43 C 143.60 438.48 142.51 438.54 141.43 438.60 M 111.60 442.43 C 110.76 442.42 109.07 442.38 108.22 442.37 C 108.64 441.84 109.49 440.77 109.91 440.24 C 109.31 440.18 108.10 440.05 107.50 439.99 C 107.43 440.88 107.29 442.66 107.22 443.55 C 106.44 442.27 105.66 440.99 104.89 439.71 C 105.34 441.38 105.83 443.05 106.33 444.71 C 108.85 444.56 111.37 444.53 113.90 444.51 C 113.90 444.73 113.91 445.16 113.91 445.38 C 113.26 445.35 111.95 445.30 111.30 445.27 L 111.00 446.03 C 110.99 448.91 113.00 451.29 113.80 453.98 C 114.04 452.51 114.36 451.07 114.77 449.65 C 114.80 451.90 114.13 454.32 115.48 456.35 C 115.64 452.70 115.51 449.06 115.60 445.42 L 114.03 445.92 C 114.34 443.78 114.80 441.67 115.69 439.69 C 114.75 440.92 113.78 442.14 112.51 443.05 C 112.53 442.05 112.57 440.05 112.59 439.05 C 111.21 439.75 111.14 441.02 111.60 442.43 M 142.30 443.18 C 142.86 443.74 142.86 443.74 142.30 443.18 M 128.69 444.71 C 128.47 447.86 128.38 451.06 128.74 454.21 C 129.44 454.78 130.17 455.34 130.92 455.87 C 129.58 452.14 131.08 447.91 129.46 444.38 C 129.26 444.46 128.88 444.63 128.69 444.71 M 132.51 444.11 C 132.26 447.59 132.32 451.09 132.35 454.58 C 133.04 454.82 134.43 455.31 135.13 455.55 C 132.21 452.28 135.87 446.67 132.51 444.11 M 118.92 455.48 C 120.17 454.94 120.93 454.00 121.20 452.64 C 122.44 452.60 123.69 452.57 124.94 452.56 C 125.09 454.21 125.88 455.02 127.30 454.98 C 126.36 451.13 125.07 447.28 122.99 443.88 C 121.04 447.50 119.62 451.42 118.92 455.48 M 105.33 445.20 C 106.01 448.71 105.61 452.29 105.79 455.84 C 106.88 452.51 108.83 449.45 109.77 446.11 C 108.41 445.37 106.93 445.07 105.33 445.20 M 146.63 447.76 C 145.31 448.60 142.06 447.38 143.51 450.52 C 143.07 450.35 142.21 450.01 141.78 449.84 C 141.32 448.58 140.37 447.77 138.95 447.42 C 136.78 448.20 134.71 450.47 135.83 452.90 C 136.50 455.59 141.24 456.62 142.36 453.74 C 140.36 454.10 137.74 454.46 137.09 451.90 C 138.26 451.80 140.59 451.59 141.76 451.48 C 143.20 452.33 143.85 453.84 143.73 455.49 C 144.09 455.40 144.82 455.24 145.18 455.15 C 145.28 452.83 144.71 450.21 146.64 448.40 C 147.33 448.94 148.01 449.51 148.68 450.09 C 148.88 451.62 148.30 453.45 149.21 454.85 C 150.28 455.41 151.70 456.12 152.27 454.54 C 149.32 454.32 149.11 448.67 152.27 448.39 C 151.84 448.17 150.99 447.75 150.56 447.54 C 150.26 447.12 149.67 446.30 149.38 445.89 C 148.51 446.59 147.60 447.21 146.63 447.76 M 161.40 447.68 C 161.33 450.33 161.18 452.99 161.55 455.63 C 164.68 455.31 161.14 449.93 164.05 449.38 C 164.60 449.39 165.70 449.40 166.25 449.40 C 166.85 451.19 165.15 455.10 167.53 455.67 C 168.03 453.33 168.49 450.30 166.80 448.36 C 165.01 448.10 163.20 447.95 161.40 447.68 M 169.70 448.82 C 168.35 451.74 172.70 451.89 173.55 454.10 C 171.98 454.04 170.43 453.90 168.87 453.73 C 169.70 455.65 172.10 455.87 173.71 454.70 C 174.50 455.09 175.28 455.49 176.07 455.91 C 176.81 455.43 177.56 454.94 178.31 454.47 C 178.71 454.82 179.49 455.53 179.89 455.88 C 179.51 455.32 178.76 454.19 178.38 453.62 C 178.82 453.11 179.71 452.10 180.15 451.59 C 178.41 451.93 177.20 454.42 175.36 453.73 C 175.08 453.24 174.54 452.26 174.27 451.77 C 172.78 451.17 170.92 450.79 170.83 448.84 C 172.16 448.99 173.50 449.18 174.85 449.30 C 173.70 447.55 171.13 447.15 169.70 448.82 M 154.29 448.40 C 152.58 449.48 152.20 452.05 153.30 453.73 C 154.86 456.66 160.25 455.50 159.93 451.99 C 160.75 448.83 156.74 446.60 154.29 448.40 M 107.00 456.38 C 109.74 456.43 112.47 456.43 115.20 456.52 C 112.40 455.77 111.13 453.34 110.39 450.75 C 109.33 452.66 108.15 454.51 107.00 456.38 M 182.31 452.18 C 181.90 453.53 184.24 454.10 185.15 453.54 C 185.49 452.23 183.21 451.41 182.31 452.18 M 185.55 452.29 L 185.83 453.57 C 186.32 453.46 187.30 453.26 187.79 453.16 C 188.05 453.80 188.56 455.08 188.81 455.72 C 188.76 455.04 188.65 453.67 188.60 452.99 L 189.53 453.01 C 189.81 453.73 190.36 455.18 190.63 455.90 C 190.67 454.99 190.74 453.17 190.77 452.25 C 189.03 452.27 187.29 452.28 185.55 452.29 Z" />
<path fill="#f11c0f" opacity="1.00" d=" M 179.63 185.39 C 181.29 182.63 183.72 180.43 185.76 177.96 C 185.86 185.88 185.56 193.85 186.15 201.74 C 193.88 206.45 202.09 210.40 209.64 215.44 C 217.49 220.62 225.69 225.68 231.78 232.97 C 235.00 237.75 236.14 243.55 238.27 248.85 C 246.75 274.94 249.62 302.86 246.49 330.12 C 245.34 342.56 241.61 354.62 240.89 367.12 C 239.14 387.42 236.99 407.69 235.45 428.01 C 234.61 436.51 237.75 445.60 233.71 453.62 C 232.11 457.44 227.64 458.07 224.14 459.19 C 216.57 461.40 208.61 461.46 200.79 461.17 C 200.57 454.95 200.38 448.71 201.30 442.54 C 203.26 428.53 199.75 414.57 196.25 401.09 C 192.95 381.20 191.16 361.09 189.25 341.03 C 198.70 349.14 207.95 357.59 215.72 367.38 C 220.10 372.34 223.59 377.98 227.62 383.22 C 223.36 360.61 218.82 337.97 212.17 315.94 C 220.98 306.49 230.55 297.73 239.34 288.23 C 227.54 286.82 215.74 285.50 203.95 284.06 C 196.92 265.94 189.43 247.91 180.00 230.89 C 178.49 223.59 177.68 216.12 176.33 208.78 C 176.79 208.37 177.73 207.54 178.19 207.13 C 178.98 199.92 178.86 192.61 179.63 185.39 Z" />
<path fill="#f11c0f" opacity="1.00" d=" M 164.38 438.36 C 165.65 438.68 165.87 439.47 165.02 440.72 C 163.73 440.40 163.51 439.61 164.38 438.36 Z" />
<path fill="#f11c0f" opacity="1.00" d=" M 142.25 439.87 C 145.16 438.20 142.48 443.28 142.25 439.87 Z" />
<path fill="#f11c0f" opacity="1.00" d=" M 122.32 448.48 C 123.78 447.26 125.11 450.00 123.85 450.96 C 122.28 452.25 120.90 449.45 122.32 448.48 Z" />
<path fill="#f11c0f" opacity="1.00" d=" M 137.46 450.08 C 137.81 448.63 140.42 448.65 140.83 450.04 C 140.46 451.38 137.89 451.38 137.46 450.08 Z" />
<path fill="#f11c0f" opacity="1.00" d=" M 154.63 449.73 C 155.25 449.54 156.48 449.15 157.09 448.96 C 158.47 450.29 159.19 452.95 156.99 453.91 C 156.37 453.82 155.15 453.63 154.54 453.54 C 154.56 452.26 154.59 450.99 154.63 449.73 Z" />
</g>
</svg>
