<?xml version="1.0" encoding="UTF-8" ?>
<!DOCTYPE svg PUBLIC "-//W3C//DTD SVG 1.1//EN" "http://www.w3.org/Graphics/SVG/1.1/DTD/svg11.dtd">
<svg width="235pt" height="454pt" viewBox="0 0 235 454" version="1.1" xmlns="http://www.w3.org/2000/svg">
<g id="#fefeffff">
<path fill="#fefeff" opacity="1.00" d=" M 86.32 76.54 C 87.19 71.28 96.14 69.35 98.77 74.18 C 99.30 75.69 99.67 77.45 98.76 78.91 C 95.55 85.56 92.03 92.10 89.67 99.12 C 87.06 91.99 83.36 84.16 86.32 76.54 Z" />
<path fill="#fefeff" opacity="1.00" d=" M 49.16 184.24 C 49.87 184.32 51.28 184.49 51.98 184.57 C 62.45 185.13 72.06 189.77 81.01 194.88 C 94.81 202.98 107.17 213.25 119.07 223.87 C 131.82 235.46 143.81 247.85 155.43 260.56 C 155.50 261.68 155.57 262.82 155.64 263.95 C 145.14 276.76 135.48 290.24 125.69 303.60 C 124.25 305.56 122.77 307.50 121.35 309.48 C 119.55 312.03 117.77 314.59 115.94 317.12 C 115.36 317.93 114.78 318.75 114.20 319.57 C 106.72 330.30 98.95 340.87 92.11 352.02 C 94.36 355.07 96.75 358.02 99.07 361.01 C 96.33 358.34 94.09 355.22 91.88 352.12 C 88.96 356.50 85.87 360.78 83.20 365.32 C 83.06 358.79 83.32 351.82 79.97 345.95 C 77.97 341.85 74.65 338.65 72.12 334.93 C 70.90 332.94 72.57 331.17 73.77 329.72 C 77.13 325.88 79.96 321.20 80.25 315.98 C 80.44 310.56 76.09 306.33 75.76 301.03 C 78.01 297.10 82.95 295.33 85.30 291.33 C 87.88 288.11 87.43 283.81 88.06 279.99 C 89.27 272.35 90.62 264.71 91.04 256.98 C 91.35 252.89 89.85 248.99 89.50 244.96 C 88.66 236.90 89.89 228.81 91.49 220.94 C 90.14 215.88 85.88 212.34 82.34 208.74 C 72.14 199.52 61.30 190.79 49.16 184.24 Z" />
<path fill="#fefeff" opacity="1.00" d=" M 25.45 194.43 C 29.85 190.88 34.83 188.12 40.12 186.15 C 33.50 189.98 27.27 194.54 21.87 199.97 C 22.81 197.98 23.90 196.02 25.45 194.43 Z" />
<path fill="#fefeff" opacity="1.00" d=" M 157.60 261.92 C 175.33 243.60 188.93 220.60 193.68 195.37 C 195.36 197.27 196.18 199.71 197.00 202.07 C 205.71 225.19 208.92 250.42 206.06 274.98 C 205.14 285.02 202.17 294.77 201.50 304.85 C 200.02 323.04 197.86 341.18 196.81 359.39 C 196.24 355.41 195.58 351.43 194.81 347.48 C 194.46 345.80 194.01 344.15 193.61 342.49 C 192.74 336.84 191.14 331.35 189.70 325.83 C 185.50 330.67 182.42 336.34 178.36 341.28 C 182.05 335.94 185.56 330.46 189.62 325.39 C 185.51 310.30 180.03 295.48 172.09 281.95 C 168.19 275.25 163.38 269.10 157.80 263.72 C 157.60 263.13 157.53 262.53 157.60 261.92 Z" />
<path fill="#fefeff" opacity="1.00" d=" M 10.88 251.99 C 10.92 240.66 11.27 229.23 13.78 218.13 C 14.09 221.47 15.16 224.67 16.01 227.89 C 20.28 243.15 24.38 258.45 28.67 273.71 C 29.57 277.14 30.44 280.57 31.44 283.97 C 33.50 291.40 35.58 298.82 37.62 306.26 C 38.25 308.14 37.51 310.05 37.02 311.87 C 35.58 316.65 34.29 321.48 32.80 326.25 C 32.98 326.81 33.16 327.37 33.34 327.94 C 31.29 329.80 31.10 332.72 30.30 335.22 C 27.50 345.83 23.87 356.24 21.62 366.98 C 20.51 359.89 19.73 352.64 16.80 346.01 C 15.37 341.72 12.41 337.63 13.23 332.91 C 13.62 327.94 12.58 322.99 12.85 318.02 C 13.42 308.74 10.78 299.72 8.47 290.85 C 7.51 277.84 11.26 265.00 10.88 251.99 Z" />
<path fill="#fefeff" opacity="1.00" d=" M 51.47 283.57 C 63.18 262.59 74.51 241.24 88.95 221.96 C 86.88 226.73 87.11 231.98 86.50 237.04 C 86.03 242.75 87.16 248.42 88.15 254.01 C 88.47 264.52 85.56 274.77 84.66 285.19 C 84.12 291.91 77.10 294.56 73.51 299.36 C 71.43 306.19 79.48 311.67 77.44 318.55 C 76.45 323.51 72.84 327.21 69.93 331.12 C 67.86 333.78 70.07 336.96 71.82 339.11 C 75.74 343.73 79.78 348.84 80.29 355.13 C 82.30 366.11 78.59 377.03 79.00 388.01 C 78.97 392.23 83.39 394.76 83.46 398.93 C 83.70 402.23 83.66 405.54 83.70 408.85 C 82.13 406.32 80.28 403.98 78.67 401.48 C 78.18 400.71 77.71 399.94 77.24 399.17 C 75.83 396.80 74.43 394.44 73.15 392.01 C 72.91 391.54 72.44 390.61 72.21 390.14 C 68.48 382.79 64.89 375.37 61.68 367.78 C 60.81 365.74 59.95 363.71 59.09 361.68 C 51.48 344.04 44.74 326.04 38.27 307.95 C 41.71 301.64 45.01 295.27 48.47 288.97 C 49.47 287.17 50.48 285.38 51.47 283.57 Z" />
<path fill="#fefeff" opacity="1.00" d=" M 209.16 268.48 C 210.16 276.55 212.85 284.27 214.79 292.13 C 216.00 291.52 217.22 290.92 218.44 290.32 C 217.30 291.08 216.15 291.81 215.01 292.56 C 216.99 301.05 219.09 309.52 221.62 317.86 C 222.09 319.85 221.93 321.93 221.78 323.95 C 220.92 329.04 219.08 333.89 217.64 338.83 C 212.22 356.72 206.64 374.55 201.34 392.46 C 201.12 393.08 200.68 394.31 200.46 394.93 C 199.32 389.61 198.69 384.19 197.54 378.87 C 201.59 371.05 198.45 362.25 199.12 353.95 C 200.44 340.32 201.62 326.68 202.91 313.04 C 203.76 298.02 208.25 283.50 209.16 268.48 Z" />
<path fill="#fefeff" opacity="1.00" d=" M 111.20 364.16 C 112.70 364.23 114.19 364.31 115.69 364.33 C 114.50 365.23 113.61 366.38 113.02 367.79 C 113.07 366.95 113.18 365.27 113.23 364.42 C 112.79 365.20 111.92 366.75 111.48 367.52 L 111.44 366.89 C 111.38 366.21 111.26 364.84 111.20 364.16 Z" />
<path fill="#fefeff" opacity="1.00" d=" M 144.63 363.70 C 145.41 364.50 145.59 365.50 145.17 366.70 C 143.79 366.14 143.61 365.14 144.63 363.70 Z" />
<path fill="#fefeff" opacity="1.00" d=" M 92.30 365.06 C 92.58 365.10 93.14 365.19 93.42 365.24 C 93.40 365.89 93.37 367.19 93.36 367.85 C 94.67 367.24 95.50 366.21 95.84 364.76 C 96.18 366.37 96.77 367.89 97.54 369.34 C 95.36 369.22 93.17 369.17 90.99 369.13 C 91.19 368.50 91.60 367.26 91.80 366.63 C 91.93 366.24 92.18 365.45 92.30 365.06 Z" />
<path fill="#fefeff" opacity="1.00" d=" M 145.87 366.87 C 146.04 366.37 146.38 365.37 146.54 364.86 L 147.11 365.61 L 146.77 366.64 L 145.87 366.87 Z" />
<path fill="#fefeff" opacity="1.00" d=" M 90.25 366.40 C 90.37 366.42 90.60 366.45 90.72 366.47 L 90.25 366.40 Z" />
<path fill="#fefeff" opacity="1.00" d=" M 104.32 369.31 C 104.58 369.31 105.08 369.30 105.33 369.30 C 106.38 371.70 107.10 374.24 108.26 376.59 C 108.57 376.55 109.18 376.48 109.48 376.44 C 109.33 374.02 109.31 371.62 109.33 369.21 C 109.63 369.23 110.23 369.26 110.54 369.28 C 110.52 372.12 110.51 374.96 110.92 377.78 C 113.28 375.54 112.10 372.12 112.32 369.26 C 112.64 369.25 113.27 369.22 113.59 369.21 C 113.83 372.06 112.89 375.29 114.68 377.79 C 112.13 377.80 109.59 377.81 107.04 377.81 C 106.83 377.28 106.40 376.22 106.18 375.69 C 104.36 375.65 102.35 375.51 102.47 377.94 C 102.14 377.88 101.48 377.77 101.15 377.71 C 102.18 374.90 102.98 371.99 104.32 369.31 M 104.41 372.76 C 102.93 375.89 107.61 373.14 104.41 372.76 Z" />
<path fill="#fefeff" opacity="1.00" d=" M 90.82 370.29 C 91.62 370.21 93.23 370.04 94.04 369.96 C 93.15 371.85 92.27 373.74 91.38 375.64 C 91.92 376.34 92.45 377.05 93.00 377.76 C 93.35 376.96 94.05 375.38 94.41 374.58 C 94.91 376.02 95.39 377.48 95.86 378.94 C 93.92 378.90 91.38 378.79 90.75 376.52 C 90.68 374.44 90.77 372.36 90.82 370.29 Z" />
<path fill="#fefeff" opacity="1.00" d=" M 94.38 369.96 C 95.17 370.06 96.76 370.26 97.56 370.36 C 97.55 372.64 97.60 374.92 97.64 377.21 C 96.39 374.86 95.36 372.41 94.38 369.96 Z" />
<path fill="#fefeff" opacity="1.00" d=" M 121.66 372.15 C 123.33 372.28 126.40 372.55 125.95 369.98 C 126.86 371.02 127.87 371.97 128.97 372.83 C 125.09 372.61 127.42 377.07 128.70 378.51 C 124.71 378.47 125.71 374.44 125.85 371.84 C 125.11 372.34 123.63 373.34 122.89 373.84 C 122.89 375.36 122.88 376.88 122.85 378.41 C 121.44 377.79 121.06 376.65 121.70 374.98 C 119.90 374.88 118.10 374.77 116.31 374.68 C 116.44 377.18 119.25 376.99 120.92 377.89 C 119.18 378.16 117.27 378.29 115.78 377.17 C 114.82 375.83 115.00 374.04 115.64 372.62 C 116.90 372.17 118.19 371.85 119.52 371.67 L 119.78 373.54 C 120.40 373.07 121.03 372.61 121.66 372.15 M 117.28 373.11 C 117.42 376.39 120.34 371.62 117.28 373.11 Z" />
<path fill="#fefeff" opacity="1.00" d=" M 142.98 371.88 C 144.51 371.72 146.17 371.64 147.41 372.75 C 146.51 372.79 144.70 372.89 143.80 372.94 C 144.34 374.27 145.69 374.72 146.87 375.27 C 146.86 375.90 146.83 377.16 146.82 377.79 C 145.33 377.88 143.83 377.93 142.34 377.94 C 143.25 377.63 145.07 377.01 145.98 376.70 C 144.59 375.78 143.53 374.60 142.80 373.16 C 141.87 374.58 141.35 376.16 141.51 377.88 C 141.24 377.92 140.69 377.99 140.42 378.03 C 140.14 375.85 140.98 372.20 137.49 373.10 C 137.50 374.68 137.52 376.28 137.55 377.87 C 137.22 377.91 136.56 378.00 136.23 378.04 C 136.21 376.08 136.19 374.12 136.14 372.17 C 137.82 372.14 139.51 372.09 141.20 372.03 L 140.10 373.19 C 141.37 373.16 142.64 373.14 143.91 373.12 L 142.98 371.88 Z" />
<path fill="#fefeff" opacity="1.00" d=" M 129.18 375.96 C 128.62 373.75 130.17 372.14 132.11 371.47 C 133.46 372.32 135.49 372.97 134.92 375.01 C 135.66 378.45 129.78 379.12 129.18 375.96 M 130.75 376.89 C 131.50 376.80 133.00 376.62 133.75 376.53 C 133.50 375.31 134.18 372.73 132.06 373.15 C 129.70 372.56 130.81 375.69 130.75 376.89 Z" />
<path fill="#fefeff" opacity="1.00" d=" M 147.72 377.78 C 149.20 376.68 150.43 375.03 152.40 374.78 L 149.33 377.10 L 154.24 376.62 L 152.95 374.84 L 154.43 375.09 C 154.41 375.65 154.35 376.76 154.33 377.32 C 155.75 375.49 157.81 375.04 160.01 375.26 C 160.19 375.95 160.38 376.63 160.57 377.32 C 159.95 377.44 158.71 377.67 158.09 377.78 C 158.21 377.34 158.45 376.45 158.57 376.00 L 156.58 376.27 C 156.71 376.70 156.98 377.57 157.12 378.00 C 155.20 377.03 153.03 377.50 151.00 377.54 C 150.18 377.60 148.54 377.72 147.72 377.78 Z" />
</g>
<g id="#000000ff">
<path fill="#000000" opacity="1.00" d=" M 108.00 14.17 C 121.27 7.64 136.63 5.41 151.15 8.41 C 165.44 10.70 179.46 18.43 186.85 31.21 C 190.08 36.23 191.48 42.04 193.17 47.66 C 196.84 52.95 198.63 59.64 197.05 65.99 C 196.50 70.82 192.27 73.82 189.81 77.68 C 186.95 82.31 182.69 85.79 178.63 89.32 C 177.65 102.52 175.37 116.16 179.13 129.11 C 177.59 133.44 173.68 136.51 169.83 138.73 C 166.81 140.75 164.54 137.05 163.29 134.78 C 161.82 132.12 165.19 130.35 166.67 128.62 C 169.04 125.97 173.42 124.21 172.97 120.00 C 173.95 105.35 174.37 90.67 175.03 76.00 C 175.26 72.98 174.75 69.98 173.84 67.11 C 166.04 60.13 155.28 57.71 145.06 57.63 C 131.90 57.69 118.63 59.75 106.37 64.64 C 107.00 70.45 107.28 76.38 106.17 82.14 C 105.38 87.49 101.16 91.36 99.57 96.41 C 96.49 105.12 93.93 114.68 96.30 123.88 C 91.77 122.61 88.94 118.45 84.70 116.60 C 84.24 122.76 86.03 128.81 85.91 134.97 C 86.24 140.96 85.52 147.40 88.32 152.93 C 91.18 153.26 90.58 149.25 91.37 147.43 C 93.21 140.87 94.61 131.86 102.25 129.73 C 115.92 137.35 129.38 145.32 142.99 153.04 C 143.91 153.67 145.34 154.08 145.42 155.41 C 145.95 161.43 146.05 167.48 146.51 173.50 C 146.95 173.47 147.83 173.39 148.27 173.36 C 148.72 167.39 148.87 161.40 149.42 155.44 C 152.03 152.76 154.11 149.59 156.87 147.06 L 157.98 146.93 C 158.94 154.26 158.20 161.75 158.58 169.14 C 171.30 176.06 184.18 183.22 194.74 193.28 C 201.28 197.70 203.70 205.76 206.26 212.82 C 211.72 228.45 211.37 245.25 215.43 261.19 C 219.15 276.62 223.05 292.13 224.02 308.03 C 224.51 315.05 224.13 322.08 223.69 329.09 C 222.83 342.72 223.11 356.40 224.12 370.01 C 224.61 372.29 223.38 374.32 222.48 376.31 C 223.63 377.49 225.43 378.35 225.62 380.19 C 225.14 382.04 224.44 383.84 223.98 385.71 C 224.68 387.04 225.49 388.41 225.24 390.00 C 225.03 395.99 224.90 401.99 225.03 407.98 C 225.56 415.53 228.51 422.60 229.98 429.97 C 229.08 432.51 225.91 430.95 223.98 430.97 C 218.04 429.73 211.07 430.13 206.90 435.13 C 203.66 431.47 202.87 426.35 201.30 421.86 C 200.97 415.13 198.08 408.78 198.31 402.00 C 198.95 394.58 197.25 387.24 195.92 379.99 C 187.45 385.84 176.63 384.92 166.85 385.33 C 155.91 384.72 144.93 385.63 133.97 385.28 C 122.68 384.77 111.34 385.67 100.07 384.56 C 93.67 383.99 87.25 384.37 80.86 384.80 C 80.79 387.40 81.25 390.05 82.86 392.16 C 87.36 397.65 84.62 405.16 86.31 411.51 C 88.93 421.97 90.45 432.67 91.69 443.38 C 80.14 442.08 69.27 447.09 58.81 451.25 C 55.96 447.82 58.02 443.02 57.49 439.00 C 57.76 433.78 54.20 429.59 50.91 425.97 C 47.93 422.63 43.82 420.26 41.76 416.15 C 37.38 407.95 35.12 398.32 28.26 391.65 C 23.56 386.98 21.70 380.33 20.51 374.01 C 18.43 366.10 18.74 357.71 16.02 349.96 C 14.61 345.28 11.97 341.00 11.08 336.17 C 11.22 328.79 10.67 321.42 10.90 314.04 C 10.68 306.21 8.51 298.62 6.39 291.13 C 5.64 282.11 7.42 273.10 8.23 264.13 C 9.36 256.80 8.62 249.38 9.00 242.01 C 9.42 231.76 10.21 221.40 13.27 211.55 C 21.86 193.13 34.84 176.01 52.67 165.72 C 60.71 161.09 69.78 158.68 78.95 157.60 C 76.67 152.15 74.19 145.31 77.66 139.84 C 79.01 136.96 81.64 134.93 82.99 132.08 C 83.33 129.14 80.75 126.82 80.46 123.94 C 80.03 120.41 79.16 115.74 82.51 113.31 C 86.68 110.07 87.89 104.68 89.67 99.98 C 87.01 97.54 86.00 93.80 83.31 91.49 C 79.24 74.77 77.97 56.62 84.32 40.29 C 88.49 28.95 97.22 19.52 108.00 14.17 M 111.29 14.56 C 102.14 18.17 94.28 25.02 89.40 33.56 C 81.65 46.75 80.83 62.68 82.31 77.56 C 85.00 66.80 94.39 59.75 103.34 54.21 C 107.56 51.40 112.61 50.41 117.06 48.09 C 133.84 36.08 156.27 32.41 176.04 38.36 C 181.18 39.49 185.97 41.87 190.14 45.06 C 188.36 37.75 185.09 30.68 179.96 25.10 C 171.59 15.81 159.28 11.15 147.14 9.47 C 135.04 7.53 122.40 9.52 111.29 14.56 M 123.21 46.04 C 140.38 42.57 159.41 41.89 175.13 50.80 C 182.84 55.16 190.92 61.96 191.25 71.53 C 197.07 64.96 196.03 54.05 190.14 47.85 C 185.58 43.25 179.33 40.83 173.15 39.30 C 156.48 35.32 138.11 37.35 123.21 46.04 M 86.32 76.54 C 83.36 84.16 87.06 91.99 89.67 99.12 C 92.03 92.10 95.55 85.56 98.76 78.91 C 99.67 77.45 99.30 75.69 98.77 74.18 C 96.14 69.35 87.19 71.28 86.32 76.54 M 99.38 133.34 C 96.29 136.49 95.11 140.91 93.95 145.04 C 92.95 148.37 92.80 152.17 90.22 154.78 C 94.14 160.16 98.98 164.90 102.22 170.77 C 103.46 173.02 102.52 176.44 105.07 177.88 C 108.65 178.67 112.82 177.49 115.85 180.03 C 112.33 183.48 106.87 185.22 102.03 184.19 C 98.47 181.19 100.02 174.72 95.32 172.77 C 89.25 169.46 83.70 164.98 79.95 159.11 C 72.36 160.79 64.54 161.90 57.51 165.43 C 44.44 171.86 33.13 182.05 25.45 194.43 C 23.90 196.02 22.81 197.98 21.87 199.97 C 27.27 194.54 33.50 189.98 40.12 186.15 C 40.99 185.81 41.81 185.38 42.57 184.85 C 44.69 184.06 46.93 183.76 49.16 184.24 C 61.30 190.79 72.14 199.52 82.34 208.74 C 85.88 212.34 90.14 215.88 91.49 220.94 C 89.89 228.81 88.66 236.90 89.50 244.96 C 89.85 248.99 91.35 252.89 91.04 256.98 C 90.62 264.71 89.27 272.35 88.06 279.99 C 87.43 283.81 87.88 288.11 85.30 291.33 C 82.95 295.33 78.01 297.10 75.76 301.03 C 76.09 306.33 80.44 310.56 80.25 315.98 C 79.96 321.20 77.13 325.88 73.77 329.72 C 72.57 331.17 70.90 332.94 72.12 334.93 C 74.65 338.65 77.97 341.85 79.97 345.95 C 83.32 351.82 83.06 358.79 83.20 365.32 C 82.56 371.12 82.05 376.94 81.09 382.71 C 90.04 381.75 99.05 382.08 107.99 382.86 C 127.09 382.94 146.19 383.32 165.29 382.81 C 165.66 382.65 166.40 382.34 166.77 382.18 L 166.56 381.37 C 166.56 376.28 166.27 371.14 167.40 366.14 C 167.41 365.64 167.42 364.62 167.43 364.12 C 168.60 350.30 162.85 337.34 161.33 323.81 C 158.72 303.93 156.89 283.96 155.64 263.95 C 155.57 262.82 155.50 261.68 155.43 260.56 C 155.25 251.39 155.57 242.19 154.44 233.07 C 152.42 213.92 149.73 194.84 146.39 175.88 C 145.89 175.61 144.90 175.09 144.41 174.82 C 144.18 168.42 143.75 162.03 143.46 155.63 C 130.08 147.97 116.74 140.25 103.39 132.56 C 102.11 131.57 100.37 132.30 99.38 133.34 M 151.14 156.13 C 150.71 161.76 150.58 167.41 150.14 173.04 C 150.14 174.24 149.60 175.13 148.51 175.71 C 149.62 182.83 150.75 189.95 151.90 197.07 C 152.85 204.05 153.74 211.05 154.83 218.01 C 155.54 226.05 156.76 234.04 157.18 242.10 C 157.59 248.70 157.05 255.32 157.60 261.92 C 157.53 262.53 157.60 263.13 157.80 263.72 C 158.33 280.89 160.34 297.99 162.24 315.06 C 163.18 322.25 163.79 329.52 165.56 336.57 C 168.19 345.82 169.72 355.46 169.35 365.09 C 169.31 365.67 169.22 366.84 169.17 367.43 C 168.48 370.50 168.29 373.66 168.49 376.81 C 168.48 377.57 168.46 379.09 168.45 379.85 C 168.55 381.04 168.67 382.23 168.81 383.42 L 169.30 382.69 C 174.77 383.19 180.35 382.98 185.69 381.65 C 188.70 381.08 192.02 380.46 194.39 378.39 C 198.58 372.99 197.13 365.70 196.81 359.39 C 197.86 341.18 200.02 323.04 201.50 304.85 C 202.17 294.77 205.14 285.02 206.06 274.98 C 208.92 250.42 205.71 225.19 197.00 202.07 C 196.18 199.71 195.36 197.27 193.68 195.37 L 193.76 194.82 C 183.67 185.04 171.28 178.14 159.04 171.44 C 158.17 170.99 157.31 170.55 156.45 170.11 C 156.16 163.67 156.33 157.22 156.11 150.78 C 154.36 152.48 152.73 154.28 151.14 156.13 M 44.81 186.77 C 36.02 190.64 28.26 196.70 21.73 203.70 C 18.14 207.86 14.52 212.52 13.78 218.13 C 11.27 229.23 10.92 240.66 10.88 251.99 C 11.26 265.00 7.51 277.84 8.47 290.85 C 10.78 299.72 13.42 308.74 12.85 318.02 C 12.58 322.99 13.62 327.94 13.23 332.91 C 12.41 337.63 15.37 341.72 16.80 346.01 C 19.73 352.64 20.51 359.89 21.62 366.98 C 22.27 372.40 23.36 377.83 25.25 382.97 C 27.42 389.50 33.77 393.26 36.56 399.46 C 37.03 400.56 37.57 401.62 38.18 402.65 C 41.14 409.08 42.76 416.73 48.67 421.25 C 52.72 424.64 56.37 428.69 58.56 433.54 C 60.21 438.46 59.22 443.74 59.45 448.83 C 68.96 444.85 78.93 440.71 89.45 441.27 C 88.19 430.35 86.14 419.56 83.70 408.85 C 83.66 405.54 83.70 402.23 83.46 398.93 C 83.39 394.76 78.97 392.23 79.00 388.01 C 78.59 377.03 82.30 366.11 80.29 355.13 C 79.78 348.84 75.74 343.73 71.82 339.11 C 70.07 336.96 67.86 333.78 69.93 331.12 C 72.84 327.21 76.45 323.51 77.44 318.55 C 79.48 311.67 71.43 306.19 73.51 299.36 C 77.10 294.56 84.12 291.91 84.66 285.19 C 85.56 274.77 88.47 264.52 88.15 254.01 C 87.16 248.42 86.03 242.75 86.50 237.04 C 87.11 231.98 86.88 226.73 88.95 221.96 C 87.75 217.98 84.74 214.98 81.88 212.10 C 72.76 203.07 62.39 195.35 51.56 188.50 C 49.52 187.45 47.18 185.52 44.81 186.77 M 201.06 206.60 C 207.68 226.48 210.36 247.57 209.16 268.48 C 208.25 283.50 203.76 298.02 202.91 313.04 C 201.62 326.68 200.44 340.32 199.12 353.95 C 198.45 362.25 201.59 371.05 197.54 378.87 C 198.69 384.19 199.32 389.61 200.46 394.93 C 200.14 400.44 199.76 406.14 201.41 411.52 C 202.59 414.82 202.73 418.35 203.39 421.77 C 204.27 425.19 205.67 428.45 206.87 431.77 C 212.62 426.66 220.68 427.93 227.62 429.03 C 226.58 423.97 224.82 419.08 223.93 413.99 C 222.01 405.81 223.40 397.34 222.95 389.06 C 221.69 386.06 221.87 382.91 223.35 380.01 C 222.24 378.90 220.18 378.08 220.34 376.20 C 221.01 374.17 222.38 372.25 221.91 370.00 C 220.66 354.68 220.72 339.28 221.78 323.95 C 221.93 321.93 222.09 319.85 221.62 317.86 C 222.28 314.93 222.00 311.94 221.86 308.98 C 220.87 292.31 216.59 276.08 212.74 259.90 C 209.12 246.51 209.55 232.40 205.58 219.09 C 204.23 214.88 203.46 210.37 201.06 206.60 Z" />
</g>
<g id="#f1190cff">
<path fill="#f1190c" opacity="1.00" d=" M 111.29 14.56 C 122.40 9.52 135.04 7.53 147.14 9.47 C 159.28 11.15 171.59 15.81 179.96 25.10 C 185.09 30.68 188.36 37.75 190.14 45.06 C 185.97 41.87 181.18 39.49 176.04 38.36 C 156.27 32.41 133.84 36.08 117.06 48.09 C 112.61 50.41 107.56 51.40 103.34 54.21 C 100.25 52.67 96.38 51.38 95.06 47.84 C 93.42 43.49 94.84 38.71 96.76 34.69 C 100.54 27.29 105.82 20.78 111.29 14.56 Z" />
<path fill="#f1190c" opacity="1.00" d=" M 123.21 46.04 C 138.11 37.35 156.48 35.32 173.15 39.30 C 179.33 40.83 185.58 43.25 190.14 47.85 C 196.03 54.05 197.07 64.96 191.25 71.53 C 190.92 61.96 182.84 55.16 175.13 50.80 C 159.41 41.89 140.38 42.57 123.21 46.04 Z" />
<path fill="#f1190c" opacity="1.00" d=" M 99.38 133.34 C 100.37 132.30 102.11 131.57 103.39 132.56 C 116.74 140.25 130.08 147.97 143.46 155.63 C 143.75 162.03 144.18 168.42 144.41 174.82 C 144.90 175.09 145.89 175.61 146.39 175.88 C 149.73 194.84 152.42 213.92 154.44 233.07 C 155.57 242.19 155.25 251.39 155.43 260.56 C 143.81 247.85 131.82 235.46 119.07 223.87 C 107.17 213.25 94.81 202.98 81.01 194.88 C 72.06 189.77 62.45 185.13 51.98 184.57 C 50.94 181.17 50.70 177.61 51.04 174.08 C 47.87 177.45 46.94 182.54 42.57 184.85 C 41.81 185.38 40.99 185.81 40.12 186.15 C 34.83 188.12 29.85 190.88 25.45 194.43 C 33.13 182.05 44.44 171.86 57.51 165.43 C 64.54 161.90 72.36 160.79 79.95 159.11 C 83.70 164.98 89.25 169.46 95.32 172.77 C 100.02 174.72 98.47 181.19 102.03 184.19 C 106.87 185.22 112.33 183.48 115.85 180.03 C 112.82 177.49 108.65 178.67 105.07 177.88 C 102.52 176.44 103.46 173.02 102.22 170.77 C 98.98 164.90 94.14 160.16 90.22 154.78 C 92.80 152.17 92.95 148.37 93.95 145.04 C 95.11 140.91 96.29 136.49 99.38 133.34 M 101.97 144.11 C 108.33 147.93 115.23 150.74 121.73 154.31 C 123.13 155.10 124.66 155.63 126.20 156.08 C 122.49 153.17 118.03 151.51 113.94 149.24 C 110.03 147.38 106.34 144.76 101.97 144.11 Z" />
<path fill="#f1190c" opacity="1.00" d=" M 151.14 156.13 C 152.73 154.28 154.36 152.48 156.11 150.78 C 156.33 157.22 156.16 163.67 156.45 170.11 C 154.57 171.94 152.76 173.83 151.02 175.80 C 153.55 178.88 156.33 181.76 159.50 184.21 C 159.11 179.96 158.93 175.70 159.04 171.44 C 171.28 178.14 183.67 185.04 193.76 194.82 L 193.68 195.37 C 188.93 220.60 175.33 243.60 157.60 261.92 C 157.05 255.32 157.59 248.70 157.18 242.10 C 156.76 234.04 155.54 226.05 154.83 218.01 C 154.44 208.13 154.37 198.15 152.42 188.42 C 151.48 191.21 151.63 194.18 151.90 197.07 C 150.75 189.95 149.62 182.83 148.51 175.71 C 149.60 175.13 150.14 174.24 150.14 173.04 C 150.58 167.41 150.71 161.76 151.14 156.13 Z" />
<path fill="#f1190c" opacity="1.00" d=" M 44.81 186.77 C 47.18 185.52 49.52 187.45 51.56 188.50 C 62.39 195.35 72.76 203.07 81.88 212.10 C 84.74 214.98 87.75 217.98 88.95 221.96 C 74.51 241.24 63.18 262.59 51.47 283.57 C 48.86 281.32 46.44 278.87 43.86 276.59 C 43.89 281.18 46.74 284.92 48.47 288.97 C 45.01 295.27 41.71 301.64 38.27 307.95 C 44.74 326.04 51.48 344.04 59.09 361.68 C 52.67 368.30 45.86 374.54 39.57 381.29 C 47.60 378.00 54.27 372.20 61.68 367.78 C 64.89 375.37 68.48 382.79 72.21 390.14 C 63.76 388.13 55.52 384.65 46.79 384.29 C 55.08 388.23 64.10 390.58 73.15 392.01 C 74.43 394.44 75.83 396.80 77.24 399.17 C 73.65 400.92 72.33 404.61 72.02 408.35 C 74.31 406.13 76.47 403.78 78.67 401.48 C 80.28 403.98 82.13 406.32 83.70 408.85 C 86.14 419.56 88.19 430.35 89.45 441.27 C 78.93 440.71 68.96 444.85 59.45 448.83 C 59.22 443.74 60.21 438.46 58.56 433.54 C 56.37 428.69 52.72 424.64 48.67 421.25 C 42.76 416.73 41.14 409.08 38.18 402.65 C 44.01 407.66 50.49 411.85 57.00 415.92 C 59.17 417.20 61.41 418.88 64.10 418.45 C 62.17 414.95 58.16 413.99 54.98 412.08 C 49.65 408.87 45.31 404.34 40.55 400.40 C 39.51 399.25 37.93 399.53 36.56 399.46 C 33.77 393.26 27.42 389.50 25.25 382.97 C 23.36 377.83 22.27 372.40 21.62 366.98 C 23.87 356.24 27.50 345.83 30.30 335.22 C 31.10 332.72 31.29 329.80 33.34 327.94 C 33.16 327.37 32.98 326.81 32.80 326.25 C 34.29 321.48 35.58 316.65 37.02 311.87 C 37.51 310.05 38.25 308.14 37.62 306.26 C 35.58 298.82 33.50 291.40 31.44 283.97 L 31.88 282.34 C 36.61 285.17 39.99 289.67 44.58 292.70 C 43.30 288.27 41.63 283.84 38.83 280.12 C 36.11 277.08 32.26 275.45 28.67 273.71 C 24.38 258.45 20.28 243.15 16.01 227.89 C 15.16 224.67 14.09 221.47 13.78 218.13 C 14.52 212.52 18.14 207.86 21.73 203.70 C 28.26 196.70 36.02 190.64 44.81 186.77 Z" />
<path fill="#f1190c" opacity="1.00" d=" M 201.06 206.60 C 203.46 210.37 204.23 214.88 205.58 219.09 C 209.55 232.40 209.12 246.51 212.74 259.90 C 216.59 276.08 220.87 292.31 221.86 308.98 C 222.00 311.94 222.28 314.93 221.62 317.86 C 219.09 309.52 216.99 301.05 215.01 292.56 C 216.15 291.81 217.30 291.08 218.44 290.32 C 217.22 290.92 216.00 291.52 214.79 292.13 C 212.85 284.27 210.16 276.55 209.16 268.48 C 210.36 247.57 207.68 226.48 201.06 206.60 Z" />
<path fill="#f1190c" opacity="1.00" d=" M 155.64 263.95 C 156.89 283.96 158.72 303.93 161.33 323.81 C 162.85 337.34 168.60 350.30 167.43 364.12 C 159.28 359.20 150.07 356.19 142.21 350.80 C 131.69 341.14 122.80 329.65 115.94 317.12 C 117.77 314.59 119.55 312.03 121.35 309.48 C 122.75 310.69 124.13 311.91 125.53 313.12 C 127.74 310.31 126.38 306.69 125.69 303.60 C 135.48 290.24 145.14 276.76 155.64 263.95 Z" />
<path fill="#f1190c" opacity="1.00" d=" M 157.80 263.72 C 163.38 269.10 168.19 275.25 172.09 281.95 C 180.03 295.48 185.51 310.30 189.62 325.39 C 185.56 330.46 182.05 335.94 178.36 341.28 C 182.42 336.34 185.50 330.67 189.70 325.83 C 191.14 331.35 192.74 336.84 193.61 342.49 C 191.24 349.05 189.91 356.00 189.70 362.98 C 192.38 358.20 192.09 352.32 194.81 347.48 C 195.58 351.43 196.24 355.41 196.81 359.39 C 197.13 365.70 198.58 372.99 194.39 378.39 C 192.02 380.46 188.70 381.08 185.69 381.65 C 180.78 381.32 176.02 379.97 171.46 378.16 C 170.80 379.69 170.14 381.23 169.30 382.69 L 168.81 383.42 C 168.67 382.23 168.55 381.04 168.45 379.85 C 170.67 377.38 173.46 374.64 173.20 371.02 C 173.04 368.49 170.91 366.83 169.35 365.09 C 169.72 355.46 168.19 345.82 165.56 336.57 C 163.79 329.52 163.18 322.25 162.24 315.06 C 160.34 297.99 158.33 280.89 157.80 263.72 M 170.39 350.47 C 172.62 354.53 176.31 357.53 178.61 361.55 C 180.05 363.62 179.91 366.23 180.58 368.57 C 182.00 370.99 185.15 372.56 187.84 371.23 C 186.75 370.28 185.64 369.35 184.53 368.43 C 181.36 366.06 180.43 361.95 178.04 358.94 C 175.71 355.94 173.78 352.41 170.39 350.47 Z" />
<path fill="#f1190c" opacity="1.00" d=" M 114.20 319.57 C 117.97 324.61 121.42 329.89 124.65 335.28 C 126.97 339.03 127.95 343.67 131.37 346.67 C 137.16 351.84 144.00 355.67 150.93 359.10 C 156.41 361.47 162.19 363.14 167.40 366.14 C 166.27 371.14 166.56 376.28 166.56 381.37 C 166.23 381.54 165.56 381.88 165.23 382.05 L 165.29 382.81 C 146.19 383.32 127.09 382.94 107.99 382.86 C 99.05 382.08 90.04 381.75 81.09 382.71 C 82.05 376.94 82.56 371.12 83.20 365.32 C 85.87 360.78 88.96 356.50 91.88 352.12 C 94.09 355.22 96.33 358.34 99.07 361.01 C 96.75 358.02 94.36 355.07 92.11 352.02 C 98.95 340.87 106.72 330.30 114.20 319.57 M 111.81 339.89 C 114.38 342.53 117.55 344.44 120.46 346.66 C 125.75 350.31 130.69 354.90 136.94 356.79 C 132.58 352.81 127.43 349.86 122.59 346.54 C 119.00 344.32 115.75 341.50 111.81 339.89 M 109.01 362.65 C 108.99 364.27 108.98 365.90 108.99 367.53 C 109.60 367.37 110.83 367.05 111.44 366.89 L 111.48 367.52 C 111.92 366.75 112.79 365.20 113.23 364.42 C 113.18 365.27 113.07 366.95 113.02 367.79 C 113.61 366.38 114.50 365.23 115.69 364.33 C 114.19 364.31 112.70 364.23 111.20 364.16 C 110.65 363.79 109.56 363.03 109.01 362.65 M 127.96 366.76 C 128.71 366.96 130.21 367.36 130.95 367.56 C 131.39 367.10 132.25 366.19 132.68 365.73 C 132.42 364.78 132.16 363.82 131.91 362.88 C 129.19 362.30 127.26 363.97 127.96 366.76 M 133.87 363.02 C 134.01 363.57 134.30 364.69 134.45 365.25 C 134.29 366.12 134.13 366.99 133.98 367.87 C 135.93 367.68 137.87 367.45 139.82 367.20 C 140.50 366.38 141.18 365.56 141.86 364.75 C 141.90 365.43 141.98 366.81 142.02 367.50 L 143.02 367.60 C 143.02 365.94 143.00 364.29 142.97 362.64 C 141.96 363.23 140.96 363.86 139.99 364.51 C 139.99 364.11 140.00 363.30 140.01 362.90 C 137.96 362.94 135.91 362.98 133.87 363.02 M 143.78 363.03 L 144.63 363.70 C 143.61 365.14 143.79 366.14 145.17 366.70 C 145.39 367.08 145.82 367.82 146.04 368.19 L 145.87 366.87 L 146.77 366.64 L 147.11 365.61 L 146.54 364.86 C 146.75 364.40 147.15 363.46 147.36 363.00 C 146.46 363.01 144.67 363.02 143.78 363.03 M 116.70 363.95 C 115.68 364.84 114.65 365.74 114.14 367.06 C 116.29 367.51 118.54 367.68 120.52 368.71 C 121.67 369.54 122.56 368.11 123.42 367.57 C 125.82 367.97 126.50 366.06 126.20 363.97 C 123.03 363.94 119.86 364.06 116.70 363.95 M 92.30 365.06 C 92.18 365.45 91.93 366.24 91.80 366.63 L 90.72 366.47 C 90.60 366.45 90.37 366.42 90.25 366.40 C 89.30 370.79 87.21 376.50 91.04 380.08 C 93.77 380.59 96.56 380.35 99.02 379.00 C 99.25 374.67 98.91 370.37 98.23 366.10 C 97.63 365.77 96.44 365.10 95.84 364.76 C 95.50 366.21 94.67 367.24 93.36 367.85 C 93.37 367.19 93.40 365.89 93.42 365.24 C 93.14 365.19 92.58 365.10 92.30 365.06 M 104.32 369.31 C 102.98 371.99 102.18 374.90 101.15 377.71 C 101.48 377.77 102.14 377.88 102.47 377.94 C 102.35 375.51 104.36 375.65 106.18 375.69 C 106.40 376.22 106.83 377.28 107.04 377.81 C 109.59 377.81 112.13 377.80 114.68 377.79 C 112.89 375.29 113.83 372.06 113.59 369.21 C 113.27 369.22 112.64 369.25 112.32 369.26 C 112.10 372.12 113.28 375.54 110.92 377.78 C 110.51 374.96 110.52 372.12 110.54 369.28 C 110.23 369.26 109.63 369.23 109.33 369.21 C 109.31 371.62 109.33 374.02 109.48 376.44 C 109.18 376.48 108.57 376.55 108.26 376.59 C 107.10 374.24 106.38 371.70 105.33 369.30 C 105.08 369.30 104.58 369.31 104.32 369.31 M 121.66 372.15 C 121.03 372.61 120.40 373.07 119.78 373.54 L 119.52 371.67 C 118.19 371.85 116.90 372.17 115.64 372.62 C 115.00 374.04 114.82 375.83 115.78 377.17 C 117.27 378.29 119.18 378.16 120.92 377.89 C 119.25 376.99 116.44 377.18 116.31 374.68 C 118.10 374.77 119.90 374.88 121.70 374.98 C 121.06 376.65 121.44 377.79 122.85 378.41 C 122.88 376.88 122.89 375.36 122.89 373.84 C 123.63 373.34 125.11 372.34 125.85 371.84 C 125.71 374.44 124.71 378.47 128.70 378.51 C 127.42 377.07 125.09 372.61 128.97 372.83 C 127.87 371.97 126.86 371.02 125.95 369.98 C 126.40 372.55 123.33 372.28 121.66 372.15 M 142.98 371.88 L 143.91 373.12 C 142.64 373.14 141.37 373.16 140.10 373.19 L 141.20 372.03 C 139.51 372.09 137.82 372.14 136.14 372.17 C 136.19 374.12 136.21 376.08 136.23 378.04 C 136.56 378.00 137.22 377.91 137.55 377.87 C 137.52 376.28 137.50 374.68 137.49 373.10 C 140.98 372.20 140.14 375.85 140.42 378.03 C 140.69 377.99 141.24 377.92 141.51 377.88 C 141.35 376.16 141.87 374.58 142.80 373.16 C 143.53 374.60 144.59 375.78 145.98 376.70 C 145.07 377.01 143.25 377.63 142.34 377.94 C 143.83 377.93 145.33 377.88 146.82 377.79 C 146.83 377.16 146.86 375.90 146.87 375.27 C 145.69 374.72 144.34 374.27 143.80 372.94 C 144.70 372.89 146.51 372.79 147.41 372.75 C 146.17 371.64 144.51 371.72 142.98 371.88 M 129.18 375.96 C 129.78 379.12 135.66 378.45 134.92 375.01 C 135.49 372.97 133.46 372.32 132.11 371.47 C 130.17 372.14 128.62 373.75 129.18 375.96 M 147.72 377.78 C 148.54 377.72 150.18 377.60 151.00 377.54 C 153.03 377.50 155.20 377.03 157.12 378.00 C 156.98 377.57 156.71 376.70 156.58 376.27 L 158.57 376.00 C 158.45 376.45 158.21 377.34 158.09 377.78 C 158.71 377.67 159.95 377.44 160.57 377.32 C 160.38 376.63 160.19 375.95 160.01 375.26 C 157.81 375.04 155.75 375.49 154.33 377.32 C 154.35 376.76 154.41 375.65 154.43 375.09 L 152.95 374.84 L 154.24 376.62 L 149.33 377.10 L 152.40 374.78 C 150.43 375.03 149.20 376.68 147.72 377.78 Z" />
<path fill="#f1190c" opacity="1.00" d=" M 217.64 338.83 C 219.08 333.89 220.92 329.04 221.78 323.95 C 220.72 339.28 220.66 354.68 221.91 370.00 C 222.38 372.25 221.01 374.17 220.34 376.20 C 220.18 378.08 222.24 378.90 223.35 380.01 C 221.87 382.91 221.69 386.06 222.95 389.06 C 223.40 397.34 222.01 405.81 223.93 413.99 C 224.82 419.08 226.58 423.97 227.62 429.03 C 220.68 427.93 212.62 426.66 206.87 431.77 C 205.67 428.45 204.27 425.19 203.39 421.77 C 202.73 418.35 202.59 414.82 201.41 411.52 C 206.72 412.65 211.37 409.50 214.83 405.81 C 212.19 405.58 208.84 407.42 206.67 405.43 C 205.20 402.33 204.53 397.87 207.36 395.31 C 210.66 392.21 214.68 390.01 218.03 386.96 C 212.99 389.03 208.93 392.79 204.05 395.17 C 203.15 394.26 202.24 393.36 201.34 392.46 C 206.64 374.55 212.22 356.72 217.64 338.83 Z" />
<path fill="#f1190c" opacity="1.00" d=" M 169.17 367.43 C 171.74 370.27 171.15 374.24 168.49 376.81 C 168.29 373.66 168.48 370.50 169.17 367.43 Z" />
<path fill="#f1190c" opacity="1.00" d=" M 104.41 372.76 C 107.61 373.14 102.93 375.89 104.41 372.76 Z" />
<path fill="#f1190c" opacity="1.00" d=" M 117.28 373.11 C 120.34 371.62 117.42 376.39 117.28 373.11 Z" />
<path fill="#f1190c" opacity="1.00" d=" M 130.75 376.89 C 130.81 375.69 129.70 372.56 132.06 373.15 C 134.18 372.73 133.50 375.31 133.75 376.53 C 133.00 376.62 131.50 376.80 130.75 376.89 Z" />
</g>
<g id="#ee574eff">
<path fill="#ee574e" opacity="1.00" d=" M 89.40 33.56 C 94.28 25.02 102.14 18.17 111.29 14.56 C 105.82 20.78 100.54 27.29 96.76 34.69 C 94.84 38.71 93.42 43.49 95.06 47.84 C 96.38 51.38 100.25 52.67 103.34 54.21 C 94.39 59.75 85.00 66.80 82.31 77.56 C 80.83 62.68 81.65 46.75 89.40 33.56 Z" />
<path fill="#ee574e" opacity="1.00" d=" M 101.97 144.11 C 106.34 144.76 110.03 147.38 113.94 149.24 C 118.03 151.51 122.49 153.17 126.20 156.08 C 124.66 155.63 123.13 155.10 121.73 154.31 C 115.23 150.74 108.33 147.93 101.97 144.11 Z" />
<path fill="#ee574e" opacity="1.00" d=" M 156.45 170.11 C 157.31 170.55 158.17 170.99 159.04 171.44 C 158.93 175.70 159.11 179.96 159.50 184.21 C 156.33 181.76 153.55 178.88 151.02 175.80 C 152.76 173.83 154.57 171.94 156.45 170.11 Z" />
<path fill="#ee574e" opacity="1.00" d=" M 42.57 184.85 C 46.94 182.54 47.87 177.45 51.04 174.08 C 50.70 177.61 50.94 181.17 51.98 184.57 C 51.28 184.49 49.87 184.32 49.16 184.24 C 46.93 183.76 44.69 184.06 42.57 184.85 Z" />
<path fill="#ee574e" opacity="1.00" d=" M 151.90 197.07 C 151.63 194.18 151.48 191.21 152.42 188.42 C 154.37 198.15 154.44 208.13 154.83 218.01 C 153.74 211.05 152.85 204.05 151.90 197.07 Z" />
<path fill="#ee574e" opacity="1.00" d=" M 28.67 273.71 C 32.26 275.45 36.11 277.08 38.83 280.12 C 41.63 283.84 43.30 288.27 44.58 292.70 C 39.99 289.67 36.61 285.17 31.88 282.34 L 31.44 283.97 C 30.44 280.57 29.57 277.14 28.67 273.71 Z" />
<path fill="#ee574e" opacity="1.00" d=" M 43.86 276.59 C 46.44 278.87 48.86 281.32 51.47 283.57 C 50.48 285.38 49.47 287.17 48.47 288.97 C 46.74 284.92 43.89 281.18 43.86 276.59 Z" />
<path fill="#ee574e" opacity="1.00" d=" M 121.35 309.48 C 122.77 307.50 124.25 305.56 125.69 303.60 C 126.38 306.69 127.74 310.31 125.53 313.12 C 124.13 311.91 122.75 310.69 121.35 309.48 Z" />
<path fill="#ee574e" opacity="1.00" d=" M 114.20 319.57 C 114.78 318.75 115.36 317.93 115.94 317.12 C 122.80 329.65 131.69 341.14 142.21 350.80 C 150.07 356.19 159.28 359.20 167.43 364.12 C 167.42 364.62 167.41 365.64 167.40 366.14 C 162.19 363.14 156.41 361.47 150.93 359.10 C 144.00 355.67 137.16 351.84 131.37 346.67 C 127.95 343.67 126.97 339.03 124.65 335.28 C 121.42 329.89 117.97 324.61 114.20 319.57 Z" />
<path fill="#ee574e" opacity="1.00" d=" M 111.81 339.89 C 115.75 341.50 119.00 344.32 122.59 346.54 C 127.43 349.86 132.58 352.81 136.94 356.79 C 130.69 354.90 125.75 350.31 120.46 346.66 C 117.55 344.44 114.38 342.53 111.81 339.89 Z" />
<path fill="#ee574e" opacity="1.00" d=" M 193.61 342.49 C 194.01 344.15 194.46 345.80 194.81 347.48 C 192.09 352.32 192.38 358.20 189.70 362.98 C 189.91 356.00 191.24 349.05 193.61 342.49 Z" />
<path fill="#ee574e" opacity="1.00" d=" M 170.39 350.47 C 173.78 352.41 175.71 355.94 178.04 358.94 C 180.43 361.95 181.36 366.06 184.53 368.43 C 185.64 369.35 186.75 370.28 187.84 371.23 C 185.15 372.56 182.00 370.99 180.58 368.57 C 179.91 366.23 180.05 363.62 178.61 361.55 C 176.31 357.53 172.62 354.53 170.39 350.47 Z" />
<path fill="#ee574e" opacity="1.00" d=" M 39.57 381.29 C 45.86 374.54 52.67 368.30 59.09 361.68 C 59.95 363.71 60.81 365.74 61.68 367.78 C 54.27 372.20 47.60 378.00 39.57 381.29 Z" />
<path fill="#ee574e" opacity="1.00" d=" M 109.01 362.65 C 109.56 363.03 110.65 363.79 111.20 364.16 C 111.26 364.84 111.38 366.21 111.44 366.89 C 110.83 367.05 109.60 367.37 108.99 367.53 C 108.98 365.90 108.99 364.27 109.01 362.65 Z" />
<path fill="#ee574e" opacity="1.00" d=" M 127.96 366.76 C 127.26 363.97 129.19 362.30 131.91 362.88 C 132.16 363.82 132.42 364.78 132.68 365.73 C 132.25 366.19 131.39 367.10 130.95 367.56 C 130.21 367.36 128.71 366.96 127.96 366.76 Z" />
<path fill="#ee574e" opacity="1.00" d=" M 133.87 363.02 C 135.91 362.98 137.96 362.94 140.01 362.90 C 140.00 363.30 139.99 364.11 139.99 364.51 C 140.96 363.86 141.96 363.23 142.97 362.64 C 143.00 364.29 143.02 365.94 143.02 367.60 L 142.02 367.50 C 141.98 366.81 141.90 365.43 141.86 364.75 C 141.18 365.56 140.50 366.38 139.82 367.20 C 137.87 367.45 135.93 367.68 133.98 367.87 C 134.13 366.99 134.29 366.12 134.45 365.25 C 134.30 364.69 134.01 363.57 133.87 363.02 Z" />
<path fill="#ee574e" opacity="1.00" d=" M 143.78 363.03 C 144.67 363.02 146.46 363.01 147.36 363.00 C 147.15 363.46 146.75 364.40 146.54 364.86 C 146.38 365.37 146.04 366.37 145.87 366.87 L 146.04 368.19 C 145.82 367.82 145.39 367.08 145.17 366.70 C 145.59 365.50 145.41 364.50 144.63 363.70 L 143.78 363.03 Z" />
<path fill="#ee574e" opacity="1.00" d=" M 116.70 363.95 C 119.86 364.06 123.03 363.94 126.20 363.97 C 126.50 366.06 125.82 367.97 123.42 367.57 C 122.56 368.11 121.67 369.54 120.52 368.71 C 118.54 367.68 116.29 367.51 114.14 367.06 C 114.65 365.74 115.68 364.84 116.70 363.95 Z" />
<path fill="#ee574e" opacity="1.00" d=" M 95.84 364.76 C 96.44 365.10 97.63 365.77 98.23 366.10 C 98.91 370.37 99.25 374.67 99.02 379.00 C 96.56 380.35 93.77 380.59 91.04 380.08 C 87.21 376.50 89.30 370.79 90.25 366.40 L 90.72 366.47 L 91.80 366.63 C 91.60 367.26 91.19 368.50 90.99 369.13 C 93.17 369.17 95.36 369.22 97.54 369.34 C 96.77 367.89 96.18 366.37 95.84 364.76 M 90.82 370.29 C 90.77 372.36 90.68 374.44 90.75 376.52 C 91.38 378.79 93.92 378.90 95.86 378.94 C 95.39 377.48 94.91 376.02 94.41 374.58 C 94.05 375.38 93.35 376.96 93.00 377.76 C 92.45 377.05 91.92 376.34 91.38 375.64 C 92.27 373.74 93.15 371.85 94.04 369.96 C 93.23 370.04 91.62 370.21 90.82 370.29 M 94.38 369.96 C 95.36 372.41 96.39 374.86 97.64 377.21 C 97.60 374.92 97.55 372.64 97.56 370.36 C 96.76 370.26 95.17 370.06 94.38 369.96 Z" />
<path fill="#ee574e" opacity="1.00" d=" M 169.35 365.09 C 170.91 366.83 173.04 368.49 173.20 371.02 C 173.46 374.64 170.67 377.38 168.45 379.85 C 168.46 379.09 168.48 377.57 168.49 376.81 C 171.15 374.24 171.74 370.27 169.17 367.43 C 169.22 366.84 169.31 365.67 169.35 365.09 Z" />
<path fill="#ee574e" opacity="1.00" d=" M 171.46 378.16 C 176.02 379.97 180.78 381.32 185.69 381.65 C 180.35 382.98 174.77 383.19 169.30 382.69 C 170.14 381.23 170.80 379.69 171.46 378.16 Z" />
<path fill="#ee574e" opacity="1.00" d=" M 165.23 382.05 C 165.56 381.88 166.23 381.54 166.56 381.37 L 166.77 382.18 C 166.40 382.34 165.66 382.65 165.29 382.81 L 165.23 382.05 Z" />
<path fill="#ee574e" opacity="1.00" d=" M 46.79 384.29 C 55.52 384.65 63.76 388.13 72.21 390.14 C 72.44 390.61 72.91 391.54 73.15 392.01 C 64.10 390.58 55.08 388.23 46.79 384.29 Z" />
<path fill="#ee574e" opacity="1.00" d=" M 204.05 395.17 C 208.93 392.79 212.99 389.03 218.03 386.96 C 214.68 390.01 210.66 392.21 207.36 395.31 C 204.53 397.87 205.20 402.33 206.67 405.43 C 208.84 407.42 212.19 405.58 214.83 405.81 C 211.37 409.50 206.72 412.65 201.41 411.52 C 199.76 406.14 200.14 400.44 200.46 394.93 C 200.68 394.31 201.12 393.08 201.34 392.46 C 202.24 393.36 203.15 394.26 204.05 395.17 Z" />
<path fill="#ee574e" opacity="1.00" d=" M 36.56 399.46 C 37.93 399.53 39.51 399.25 40.55 400.40 C 45.31 404.34 49.65 408.87 54.98 412.08 C 58.16 413.99 62.17 414.95 64.10 418.45 C 61.41 418.88 59.17 417.20 57.00 415.92 C 50.49 411.85 44.01 407.66 38.18 402.65 C 37.57 401.62 37.03 400.56 36.56 399.46 Z" />
<path fill="#ee574e" opacity="1.00" d=" M 72.02 408.35 C 72.33 404.61 73.65 400.92 77.24 399.17 C 77.71 399.94 78.18 400.71 78.67 401.48 C 76.47 403.78 74.31 406.13 72.02 408.35 Z" />
</g>
</svg>
