<?xml version="1.0" encoding="UTF-8" ?>
<!DOCTYPE svg PUBLIC "-//W3C//DTD SVG 1.1//EN" "http://www.w3.org/Graphics/SVG/1.1/DTD/svg11.dtd">
<svg width="279pt" height="547pt" viewBox="0 0 279 547" version="1.1" xmlns="http://www.w3.org/2000/svg">
<g id="#ffffffff">
<path fill="#ffffff" opacity="1.00" d=" M 0.00 0.00 L 279.00 0.00 L 279.00 547.00 L 0.00 547.00 L 0.00 0.00 M 121.39 13.28 C 109.22 20.88 100.28 33.24 96.42 47.03 C 90.71 65.57 92.41 85.47 96.86 104.09 C 100.32 106.68 100.85 111.72 104.74 114.04 C 103.39 118.64 101.83 123.25 99.30 127.35 C 97.67 130.14 93.82 131.33 93.34 134.81 C 92.45 139.76 93.02 145.13 95.66 149.49 C 96.63 151.09 97.17 153.24 96.02 154.90 C 94.03 157.65 91.61 160.10 90.04 163.13 C 85.79 169.81 88.90 178.14 91.60 184.82 C 85.28 185.75 78.88 186.61 72.85 188.80 C 59.64 193.17 48.02 201.43 38.28 211.24 C 26.98 222.81 17.96 236.51 11.35 251.25 C 6.18 269.33 6.29 288.35 6.23 307.00 C 5.41 316.99 3.82 326.91 3.19 336.92 C 2.90 341.95 2.56 347.18 4.45 351.97 C 6.98 360.76 9.18 369.86 8.66 379.08 C 8.42 385.05 9.17 391.01 8.88 396.99 C 7.94 406.56 14.39 414.52 16.30 423.56 C 18.96 436.59 19.13 450.37 24.77 462.65 C 26.76 467.11 30.56 470.31 33.54 474.07 C 39.86 482.86 42.41 493.69 48.25 502.74 C 53.12 508.18 59.55 512.30 63.11 518.90 C 67.27 525.22 64.69 533.00 65.54 540.00 C 65.68 541.08 66.70 542.72 68.00 542.04 C 80.44 537.42 93.34 531.04 106.98 533.09 C 105.89 519.65 103.49 506.31 100.47 493.18 C 99.41 488.14 100.01 482.96 99.48 477.88 C 99.23 471.86 92.48 467.93 94.17 461.50 C 98.79 461.49 103.38 460.58 108.02 460.93 C 116.02 460.84 123.96 462.12 131.97 461.88 C 149.31 461.69 166.64 462.47 183.98 461.98 C 195.17 461.52 206.39 462.71 217.53 461.37 C 223.22 460.20 229.48 459.48 234.08 455.59 C 235.81 464.64 237.91 473.84 237.01 483.09 C 236.83 488.85 238.70 494.32 239.86 499.87 C 240.08 506.89 242.69 513.48 245.30 519.90 C 245.68 521.23 246.67 522.13 247.94 522.66 C 250.54 519.81 254.02 517.64 257.92 517.25 C 262.97 516.39 267.94 518.08 272.96 518.35 C 274.89 518.74 276.07 516.68 275.34 515.04 C 273.31 506.72 270.38 498.55 269.59 489.98 C 269.32 482.29 269.62 474.60 269.85 466.93 C 269.84 465.17 268.64 463.72 268.41 462.02 C 268.72 459.91 269.99 458.09 270.29 455.99 C 270.21 453.60 267.99 452.52 266.34 451.27 C 267.33 449.29 268.96 447.36 268.60 445.01 C 267.57 432.36 267.16 419.66 267.44 406.97 C 267.47 395.32 269.02 383.71 268.54 372.04 C 267.89 348.53 261.20 325.83 256.11 303.03 C 253.69 292.53 253.63 281.69 251.47 271.16 C 249.21 259.72 246.25 248.25 240.93 237.82 C 238.99 234.52 237.08 230.65 233.34 229.12 C 228.18 223.42 221.85 218.98 215.52 214.70 C 206.84 208.98 197.89 203.65 188.66 198.87 C 188.45 190.43 188.58 181.97 188.32 173.53 C 188.62 171.76 186.50 171.15 185.69 172.67 C 182.98 175.92 180.02 178.97 177.50 182.37 C 176.60 189.49 176.81 196.72 176.02 203.85 C 175.49 203.96 174.43 204.17 173.89 204.27 C 173.42 196.87 173.20 189.46 172.66 182.07 C 172.73 180.67 171.23 180.22 170.30 179.58 C 154.05 170.33 137.87 160.94 121.61 151.70 C 119.55 150.16 117.04 151.74 115.37 153.11 C 110.82 157.23 109.21 163.40 107.55 169.08 C 106.37 172.73 106.66 177.05 103.82 179.98 C 99.45 173.56 100.62 165.34 100.10 158.00 C 100.37 150.32 98.21 142.79 98.57 135.12 C 103.92 136.80 107.19 142.19 112.65 143.75 C 110.00 132.06 113.19 120.04 117.25 109.07 C 119.05 103.74 123.38 99.61 124.58 94.05 C 126.29 86.64 125.65 78.99 125.21 71.47 C 141.01 65.39 158.10 62.44 175.04 63.10 C 186.36 63.66 198.23 66.51 206.84 74.31 C 208.56 77.55 208.79 81.35 208.67 84.95 C 207.98 103.09 207.30 121.22 206.15 139.33 C 206.47 144.23 201.22 146.30 198.49 149.52 C 196.67 151.63 192.55 153.81 194.46 157.04 C 195.68 159.35 197.26 162.07 200.05 162.60 C 205.17 160.89 209.54 157.01 212.60 152.60 C 215.16 149.30 212.05 145.56 211.79 142.06 C 210.23 128.48 211.77 114.79 213.26 101.28 C 218.60 97.02 223.79 92.33 227.38 86.44 C 230.11 82.44 234.35 79.16 235.30 74.19 C 237.21 66.26 235.76 57.60 230.82 51.03 C 228.46 41.04 224.61 31.08 217.67 23.32 C 207.96 11.87 193.56 5.28 178.93 2.94 C 159.36 -0.85 138.36 2.77 121.39 13.28 Z" />
<path fill="#ffffff" opacity="1.00" d=" M 102.11 82.19 C 105.18 80.66 108.65 79.18 112.14 80.09 C 115.66 81.03 117.48 85.63 115.76 88.77 C 112.70 95.39 109.25 101.84 106.52 108.61 C 105.86 110.08 105.60 111.83 104.40 112.99 C 102.23 106.80 99.70 100.62 99.15 94.02 C 99.27 89.93 100.42 85.91 102.11 82.19 Z" />
<path fill="#ffffff" opacity="1.00" d=" M 154.41 437.10 C 157.36 435.55 154.58 440.50 154.41 437.10 Z" />
<path fill="#ffffff" opacity="1.00" d=" M 142.26 437.83 C 145.37 436.56 142.13 441.14 142.26 437.83 Z" />
</g>
<g id="#000000ff">
<path fill="#000000" opacity="1.00" d=" M 121.39 13.28 C 138.36 2.77 159.36 -0.85 178.93 2.94 C 193.56 5.28 207.96 11.87 217.67 23.32 C 224.61 31.08 228.46 41.04 230.82 51.03 C 235.76 57.60 237.21 66.26 235.30 74.19 C 234.35 79.16 230.11 82.44 227.38 86.44 C 223.79 92.33 218.60 97.02 213.26 101.28 C 211.77 114.79 210.23 128.48 211.79 142.06 C 212.05 145.56 215.16 149.30 212.60 152.60 C 209.54 157.01 205.17 160.89 200.05 162.60 C 197.26 162.07 195.68 159.35 194.46 157.04 C 192.55 153.81 196.67 151.63 198.49 149.52 C 201.22 146.30 206.47 144.23 206.15 139.33 C 207.30 121.22 207.98 103.09 208.67 84.95 C 208.79 81.35 208.56 77.55 206.84 74.31 C 198.23 66.51 186.36 63.66 175.04 63.10 C 158.10 62.44 141.01 65.39 125.21 71.47 C 125.65 78.99 126.29 86.64 124.58 94.05 C 123.38 99.61 119.05 103.74 117.25 109.07 C 113.19 120.04 110.00 132.06 112.65 143.75 C 107.19 142.19 103.92 136.80 98.57 135.12 C 98.21 142.79 100.37 150.32 100.10 158.00 C 100.62 165.34 99.45 173.56 103.82 179.98 C 106.66 177.05 106.37 172.73 107.55 169.08 C 109.21 163.40 110.82 157.23 115.37 153.11 C 117.04 151.74 119.55 150.16 121.61 151.70 C 137.87 160.94 154.05 170.33 170.30 179.58 C 171.23 180.22 172.73 180.67 172.66 182.07 C 173.20 189.46 173.42 196.87 173.89 204.27 C 174.43 204.17 175.49 203.96 176.02 203.85 C 176.81 196.72 176.60 189.49 177.50 182.37 C 180.02 178.97 182.98 175.92 185.69 172.67 C 186.50 171.15 188.62 171.76 188.32 173.53 C 188.58 181.97 188.45 190.43 188.66 198.87 C 197.89 203.65 206.84 208.98 215.52 214.70 C 221.85 218.98 228.18 223.42 233.34 229.12 C 237.08 230.65 238.99 234.52 240.93 237.82 C 246.25 248.25 249.21 259.72 251.47 271.16 C 253.63 281.69 253.69 292.53 256.11 303.03 C 261.20 325.83 267.89 348.53 268.54 372.04 C 269.02 383.71 267.47 395.32 267.44 406.97 C 267.16 419.66 267.57 432.36 268.60 445.01 C 268.96 447.36 267.33 449.29 266.34 451.27 C 267.99 452.52 270.21 453.60 270.29 455.99 C 269.99 458.09 268.72 459.91 268.41 462.02 C 268.64 463.72 269.84 465.17 269.85 466.93 C 269.62 474.60 269.32 482.29 269.59 489.98 C 270.38 498.55 273.31 506.72 275.34 515.04 C 276.07 516.68 274.89 518.74 272.96 518.35 C 267.94 518.08 262.97 516.39 257.92 517.25 C 254.02 517.64 250.54 519.81 247.94 522.66 C 246.67 522.13 245.68 521.23 245.30 519.90 C 242.69 513.48 240.08 506.89 239.86 499.87 C 238.70 494.32 236.83 488.85 237.01 483.09 C 237.91 473.84 235.81 464.64 234.08 455.59 C 229.48 459.48 223.22 460.20 217.53 461.37 C 206.39 462.71 195.17 461.52 183.98 461.98 C 166.64 462.47 149.31 461.69 131.97 461.88 C 123.96 462.12 116.02 460.84 108.02 460.93 C 103.38 460.58 98.79 461.49 94.17 461.50 C 92.48 467.93 99.23 471.86 99.48 477.88 C 100.01 482.96 99.41 488.14 100.47 493.18 C 103.49 506.31 105.89 519.65 106.98 533.09 C 93.34 531.04 80.44 537.42 68.00 542.04 C 66.70 542.72 65.68 541.08 65.54 540.00 C 64.69 533.00 67.27 525.22 63.11 518.90 C 59.55 512.30 53.12 508.18 48.25 502.74 C 42.41 493.69 39.86 482.86 33.54 474.07 C 30.56 470.31 26.76 467.11 24.77 462.65 C 19.13 450.37 18.96 436.59 16.30 423.56 C 14.39 414.52 7.94 406.56 8.88 396.99 C 9.17 391.01 8.42 385.05 8.66 379.08 C 9.18 369.86 6.98 360.76 4.45 351.97 C 2.56 347.18 2.90 341.95 3.19 336.92 C 3.82 326.91 5.41 316.99 6.23 307.00 C 6.29 288.35 6.18 269.33 11.35 251.25 C 17.96 236.51 26.98 222.81 38.28 211.24 C 48.02 201.43 59.64 193.17 72.85 188.80 C 78.88 186.61 85.28 185.75 91.60 184.82 C 88.90 178.14 85.79 169.81 90.04 163.13 C 91.61 160.10 94.03 157.65 96.02 154.90 C 97.17 153.24 96.63 151.09 95.66 149.49 C 93.02 145.13 92.45 139.76 93.34 134.81 C 93.82 131.33 97.67 130.14 99.30 127.35 C 101.83 123.25 103.39 118.64 104.74 114.04 C 100.85 111.72 100.32 106.68 96.86 104.09 C 92.41 85.47 90.71 65.57 96.42 47.03 C 100.28 33.24 109.22 20.88 121.39 13.28 M 156.34 3.47 C 147.58 5.11 138.86 7.03 130.56 10.32 L 130.48 10.65 C 110.64 18.78 97.45 39.15 96.03 60.24 L 95.68 60.48 C 95.23 64.68 94.99 68.91 94.97 73.14 C 94.91 78.05 95.64 82.94 95.45 87.86 C 96.59 83.19 99.07 79.08 101.38 74.97 L 101.18 74.17 L 101.85 74.41 C 104.25 73.03 105.64 70.35 107.00 68.01 C 109.43 66.60 111.88 65.22 114.15 63.56 L 114.34 63.61 C 116.55 61.81 118.91 60.21 121.31 58.67 C 125.32 56.90 129.17 54.75 133.38 53.44 C 137.69 52.08 141.35 49.40 145.06 46.90 C 150.35 43.32 156.52 41.46 162.45 39.24 C 165.07 39.23 167.58 37.98 170.20 37.72 C 171.15 37.68 172.08 37.51 173.00 37.23 C 174.66 36.97 176.33 36.73 178.00 36.53 C 185.69 35.86 193.51 35.86 201.07 37.55 C 202.32 37.72 203.55 37.71 204.79 37.54 C 207.50 38.73 210.32 39.69 213.24 40.21 C 213.47 39.93 213.94 39.36 214.17 39.07 C 215.23 40.10 216.41 40.99 217.60 41.87 L 217.64 42.28 C 220.97 43.23 223.60 45.63 226.73 47.05 C 225.44 40.69 222.63 34.73 219.32 29.19 C 216.53 25.31 213.09 21.95 209.82 18.49 C 200.86 11.54 190.20 6.94 179.01 5.15 C 171.66 3.46 164.02 3.08 156.50 3.57 L 156.34 3.47 M 155.15 44.08 C 152.53 45.15 149.73 46.06 147.69 48.14 C 155.48 47.55 163.16 45.66 171.01 45.99 C 187.29 45.62 204.05 49.88 216.95 60.12 C 223.28 64.73 227.99 71.86 228.51 79.80 C 234.49 73.37 234.21 63.11 230.34 55.67 C 226.15 47.59 217.27 43.66 208.95 41.25 C 191.36 36.44 172.08 37.12 155.15 44.08 M 102.11 82.19 C 100.42 85.91 99.27 89.93 99.15 94.02 C 99.70 100.62 102.23 106.80 104.40 112.99 C 105.60 111.83 105.86 110.08 106.52 108.61 C 109.25 101.84 112.70 95.39 115.76 88.77 C 117.48 85.63 115.66 81.03 112.14 80.09 C 108.65 79.18 105.18 80.66 102.11 82.19 M 110.92 165.90 C 108.87 171.15 109.14 177.31 105.37 181.81 C 111.18 188.70 117.79 195.32 121.24 203.79 C 121.37 205.18 121.25 206.65 121.81 207.96 C 123.13 210.03 125.82 209.61 127.91 209.87 C 130.55 210.03 133.33 209.93 135.74 211.19 C 136.78 213.20 134.39 213.91 133.20 214.99 C 128.81 216.46 123.79 218.90 119.25 216.70 C 115.63 212.85 116.92 205.72 111.61 203.25 C 104.35 199.21 97.59 194.01 93.03 186.96 C 82.95 188.38 72.38 190.10 63.35 195.29 C 61.26 196.51 58.34 197.10 57.65 199.78 C 56.31 199.28 55.12 200.34 54.05 200.98 C 40.54 210.29 29.84 223.12 21.26 237.00 C 29.08 229.73 37.52 222.93 47.21 218.28 C 49.77 217.00 52.92 216.05 55.62 217.51 C 60.92 219.97 65.73 223.33 70.52 226.64 C 80.95 234.27 91.28 242.20 100.23 251.57 C 103.09 254.90 106.81 258.38 106.87 263.09 C 104.47 272.13 103.72 281.62 104.41 290.95 C 104.60 295.35 106.45 299.52 106.30 303.95 C 106.25 314.71 103.87 325.26 102.41 335.87 C 101.87 339.13 102.38 342.70 100.59 345.65 C 98.41 349.90 94.59 352.91 90.85 355.74 C 89.57 356.91 87.59 357.93 87.72 359.95 C 88.34 366.00 93.18 370.85 93.15 377.04 C 93.25 383.89 89.35 390.04 84.85 394.90 C 83.31 396.51 81.85 399.05 83.53 401.09 C 88.02 407.19 93.59 412.87 95.39 420.50 C 98.15 433.20 96.15 446.29 94.23 458.96 C 104.48 457.89 114.81 458.08 125.06 459.06 C 135.37 459.53 145.70 459.05 156.01 459.32 C 170.15 459.84 184.28 459.12 198.42 459.12 C 198.43 456.08 198.37 453.04 198.31 450.01 C 198.15 443.98 199.84 438.07 199.61 432.03 C 199.40 423.16 198.04 414.31 195.59 405.78 C 192.88 396.72 192.06 387.25 190.79 377.93 C 187.85 352.70 185.31 327.40 184.63 302.00 C 184.97 291.01 184.03 280.03 182.75 269.12 C 180.43 248.28 177.25 227.55 173.90 206.86 C 173.34 206.71 172.23 206.41 171.68 206.27 C 170.80 198.39 170.74 190.41 170.29 182.49 C 153.58 172.65 136.64 163.19 119.90 153.40 C 114.46 155.10 112.67 161.11 110.92 165.90 M 179.59 183.40 C 178.97 190.64 178.87 197.94 178.22 205.18 C 177.73 205.56 176.75 206.32 176.26 206.70 C 180.45 231.69 184.22 256.78 186.51 282.03 C 187.64 292.31 186.83 302.67 187.44 312.98 C 188.61 336.04 191.01 359.03 193.77 381.95 C 194.89 389.99 195.53 398.16 198.01 405.93 C 200.89 417.63 203.04 429.84 201.15 441.89 C 200.31 447.61 200.67 453.40 200.78 459.16 C 208.93 459.48 217.22 459.37 225.07 456.91 C 228.10 455.90 231.90 455.35 233.43 452.13 C 237.93 444.09 234.58 434.69 235.45 426.04 C 237.08 404.99 239.24 384.00 241.05 362.97 C 241.69 353.83 244.07 344.94 245.47 335.91 C 250.80 301.59 246.64 265.81 233.41 233.69 C 231.46 229.52 227.63 226.74 224.37 223.66 L 224.22 223.33 C 213.61 216.10 203.12 208.28 191.23 203.30 C 189.86 201.13 185.61 201.19 185.90 198.03 C 185.88 190.67 185.70 183.31 185.75 175.94 C 183.71 178.44 181.32 180.68 179.59 183.40 M 46.06 222.03 C 37.95 226.59 30.38 232.19 23.83 238.81 C 19.10 244.11 13.77 249.66 12.57 256.96 C 8.88 272.34 8.67 288.26 8.65 304.00 C 8.86 312.03 7.07 319.93 6.51 327.92 C 5.99 335.92 4.24 344.26 7.04 352.04 C 9.72 361.43 11.71 371.21 11.09 381.01 C 11.04 387.38 12.00 393.73 11.51 400.10 C 11.20 403.27 12.64 406.22 13.79 409.09 C 16.76 415.81 19.36 422.78 20.29 430.12 C 22.31 442.11 22.76 455.07 29.51 465.60 C 33.39 470.16 37.58 474.47 40.35 479.86 C 41.13 481.46 41.68 483.33 43.04 484.57 C 43.92 489.48 46.49 493.87 48.45 498.41 C 50.62 503.65 55.92 506.31 59.50 510.42 C 62.91 514.19 66.35 518.31 67.51 523.38 C 68.46 528.64 67.62 534.00 67.96 539.31 C 79.61 534.85 91.57 529.63 104.31 530.27 C 102.97 518.45 101.22 506.63 98.16 495.12 C 96.61 489.03 98.21 482.60 96.49 476.57 L 96.82 475.87 C 94.93 472.68 92.15 469.74 91.75 465.89 C 91.20 460.86 92.07 455.84 92.70 450.87 C 93.77 441.98 94.84 432.92 93.16 424.04 C 92.62 420.63 91.43 417.30 89.27 414.58 C 86.94 409.57 81.93 406.28 80.04 401.07 C 78.58 395.76 84.24 392.80 86.32 388.66 L 86.60 388.52 C 88.81 384.76 90.80 380.47 90.07 375.99 C 88.67 369.86 83.79 364.57 84.71 357.96 C 85.59 356.58 86.69 355.34 87.59 353.97 C 92.66 350.88 98.10 346.47 98.69 340.13 C 99.71 328.68 102.38 317.44 103.08 305.96 C 103.55 300.53 100.93 295.48 101.04 290.07 C 101.00 282.75 100.56 275.29 102.37 268.12 C 102.95 265.33 104.37 262.18 102.35 259.62 C 96.82 251.30 88.78 245.12 81.23 238.75 C 72.93 232.27 64.49 225.87 55.28 220.72 C 52.28 218.70 48.82 220.52 46.06 222.03 M 240.23 243.06 C 240.63 246.21 241.82 249.17 242.72 252.20 C 245.93 263.62 248.45 275.28 249.44 287.11 C 249.61 288.25 249.57 289.52 250.26 290.51 C 250.37 295.44 249.54 300.76 251.64 305.36 C 252.60 314.09 249.82 322.51 249.08 331.14 C 247.65 341.21 245.37 351.14 243.96 361.21 C 243.87 361.99 243.69 363.55 243.60 364.33 C 243.21 367.01 242.95 369.70 242.85 372.42 C 242.46 375.75 242.02 379.08 241.92 382.44 C 241.12 389.36 240.47 396.31 240.10 403.27 C 240.08 403.65 240.04 404.41 240.02 404.79 C 239.05 410.82 238.77 416.93 238.13 423.00 C 237.29 431.83 239.34 440.64 238.32 449.46 C 237.57 451.25 236.30 453.01 236.40 455.04 C 237.79 464.31 240.40 473.61 239.27 483.06 C 239.13 486.78 239.85 490.47 240.84 494.05 C 242.70 498.84 242.00 504.15 243.93 508.92 C 245.10 512.19 246.01 515.57 247.67 518.64 C 254.60 512.56 264.25 514.15 272.58 515.35 C 271.81 509.21 269.32 503.47 268.36 497.37 C 266.27 489.03 267.22 480.38 267.04 471.88 C 267.20 469.42 267.75 466.84 266.49 464.56 C 264.76 461.64 266.57 458.47 267.69 455.70 C 265.95 454.41 262.67 452.67 264.16 450.03 C 265.65 447.85 266.20 445.35 265.73 442.74 L 265.43 442.73 C 265.49 439.84 265.42 436.95 265.19 434.08 C 264.29 421.56 264.81 409.01 264.88 396.47 C 266.08 386.29 266.22 375.86 265.47 365.60 C 264.60 350.23 260.42 335.34 257.61 320.29 L 257.36 320.66 C 255.90 316.18 255.50 311.41 253.77 307.03 C 252.82 301.88 252.41 296.56 250.92 291.56 C 250.14 274.98 246.58 258.40 240.23 243.06 Z" />
</g>
<g id="#1b232aff">
<path fill="#1b232a" opacity="1.00" d=" M 156.34 3.47 L 156.50 3.57 C 159.32 5.22 162.10 6.92 164.84 8.70 C 164.07 12.27 163.34 15.85 162.74 19.46 C 165.54 17.15 168.23 14.73 170.93 12.31 C 174.13 14.09 177.34 15.85 180.60 17.51 C 179.24 14.04 177.75 10.61 176.39 7.14 C 177.27 6.48 178.14 5.81 179.01 5.15 C 190.20 6.94 200.86 11.54 209.82 18.49 C 208.95 20.10 208.09 21.72 207.22 23.33 C 203.57 22.99 199.92 22.68 196.27 22.39 C 198.94 24.97 201.58 27.57 204.26 30.12 C 203.21 32.61 202.13 35.07 201.07 37.55 C 193.51 35.86 185.69 35.86 178.00 36.53 C 177.19 33.58 176.34 30.64 175.48 27.70 C 173.97 30.90 172.61 34.17 171.32 37.46 L 173.00 37.23 C 172.08 37.51 171.15 37.68 170.20 37.72 C 166.76 37.75 163.31 37.57 159.87 37.74 C 160.72 38.25 161.58 38.75 162.45 39.24 C 156.52 41.46 150.35 43.32 145.06 46.90 C 141.35 49.40 137.69 52.08 133.38 53.44 C 129.17 54.75 125.32 56.90 121.31 58.67 C 116.50 57.31 111.50 54.10 110.43 48.89 C 109.25 41.60 113.31 34.99 116.73 28.91 C 118.39 30.43 120.02 31.98 121.62 33.57 C 120.07 36.84 118.66 40.17 117.34 43.55 C 120.57 41.91 123.79 40.26 126.99 38.57 C 129.76 40.96 132.47 43.41 135.28 45.74 C 134.68 42.09 134.01 38.46 133.40 34.81 C 136.61 33.07 139.80 31.30 142.98 29.50 C 139.30 28.95 135.60 28.48 131.91 28.04 C 131.14 24.42 130.38 20.80 129.63 17.18 C 127.78 20.17 126.43 23.42 124.77 26.51 C 122.95 27.41 120.65 26.45 118.67 26.54 C 121.69 21.00 126.10 16.45 130.20 11.73 C 130.27 11.46 130.41 10.92 130.48 10.65 L 130.56 10.32 C 138.86 7.03 147.58 5.11 156.34 3.47 Z" />
<path fill="#1b232a" opacity="1.00" d=" M 219.32 29.19 C 222.63 34.73 225.44 40.69 226.73 47.05 C 223.60 45.63 220.97 43.23 217.64 42.28 L 217.60 41.87 C 217.14 38.30 216.52 34.75 215.92 31.19 C 217.05 30.53 218.19 29.86 219.32 29.19 Z" />
<path fill="#1b232a" opacity="1.00" d=" M 204.79 37.54 C 206.47 36.70 208.10 35.76 209.75 34.84 C 211.24 36.24 212.73 37.63 214.17 39.07 C 213.94 39.36 213.47 39.93 213.24 40.21 C 210.32 39.69 207.50 38.73 204.79 37.54 Z" />
<path fill="#1b232a" opacity="1.00" d=" M 155.15 44.08 C 172.08 37.12 191.36 36.44 208.95 41.25 C 217.27 43.66 226.15 47.59 230.34 55.67 C 234.21 63.11 234.49 73.37 228.51 79.80 C 227.99 71.86 223.28 64.73 216.95 60.12 C 204.05 49.88 187.29 45.62 171.01 45.99 C 163.16 45.66 155.48 47.55 147.69 48.14 C 149.73 46.06 152.53 45.15 155.15 44.08 Z" />
<path fill="#1b232a" opacity="1.00" d=" M 63.35 195.29 C 72.38 190.10 82.95 188.38 93.03 186.96 C 97.59 194.01 104.35 199.21 111.61 203.25 C 116.92 205.72 115.63 212.85 119.25 216.70 C 123.79 218.90 128.81 216.46 133.20 214.99 C 135.48 216.87 137.66 218.86 139.79 220.89 C 138.70 226.14 137.48 231.35 136.40 236.60 C 128.90 235.45 121.42 234.14 113.92 233.03 C 112.44 232.69 110.71 232.70 109.59 231.53 C 94.54 217.81 77.42 205.50 57.65 199.78 C 58.34 197.10 61.26 196.51 63.35 195.29 Z" />
<path fill="#1b232a" opacity="1.00" d=" M 191.23 203.30 C 203.12 208.28 213.61 216.10 224.22 223.33 L 224.37 223.66 C 226.66 228.68 229.51 233.46 231.14 238.77 C 227.61 241.48 224.43 244.57 221.04 247.44 C 215.70 241.69 209.68 236.57 204.51 230.67 C 200.66 221.28 195.83 212.34 191.23 203.30 Z" />
<path fill="#1b232a" opacity="1.00" d=" M 121.24 203.79 C 123.39 205.90 125.71 207.82 127.91 209.87 C 125.82 209.61 123.13 210.03 121.81 207.96 C 121.25 206.65 121.37 205.18 121.24 203.79 Z" />
</g>
<g id="#fafcfeff">
<path fill="#fafcfe" opacity="1.00" d=" M 156.50 3.57 C 164.02 3.08 171.66 3.46 179.01 5.15 C 178.14 5.81 177.27 6.48 176.39 7.14 C 177.75 10.61 179.24 14.04 180.60 17.51 C 177.34 15.85 174.13 14.09 170.93 12.31 C 168.23 14.73 165.54 17.15 162.74 19.46 C 163.34 15.85 164.07 12.27 164.84 8.70 C 162.10 6.92 159.32 5.22 156.50 3.57 Z" />
<path fill="#fafcfe" opacity="1.00" d=" M 124.77 26.51 C 126.43 23.42 127.78 20.17 129.63 17.18 C 130.38 20.80 131.14 24.42 131.91 28.04 C 135.60 28.48 139.30 28.95 142.98 29.50 C 139.80 31.30 136.61 33.07 133.40 34.81 C 134.01 38.46 134.68 42.09 135.28 45.74 C 132.47 43.41 129.76 40.96 126.99 38.57 C 123.79 40.26 120.57 41.91 117.34 43.55 C 118.66 40.17 120.07 36.84 121.62 33.57 C 120.02 31.98 118.39 30.43 116.73 28.91 C 115.73 27.98 114.73 27.06 113.74 26.13 C 115.38 26.26 117.03 26.39 118.67 26.54 C 120.65 26.45 122.95 27.41 124.77 26.51 Z" />
<path fill="#fafcfe" opacity="1.00" d=" M 207.22 23.33 C 208.09 21.72 208.95 20.10 209.82 18.49 C 213.09 21.95 216.53 25.31 219.32 29.19 C 218.19 29.86 217.05 30.53 215.92 31.19 C 216.52 34.75 217.14 38.30 217.60 41.87 C 216.41 40.99 215.23 40.10 214.17 39.07 C 212.73 37.63 211.24 36.24 209.75 34.84 C 208.10 35.76 206.47 36.70 204.79 37.54 C 203.55 37.71 202.32 37.72 201.07 37.55 C 202.13 35.07 203.21 32.61 204.26 30.12 C 201.58 27.57 198.94 24.97 196.27 22.39 C 199.92 22.68 203.57 22.99 207.22 23.33 Z" />
<path fill="#fafcfe" opacity="1.00" d=" M 171.32 37.46 C 172.61 34.17 173.97 30.90 175.48 27.70 C 176.34 30.64 177.19 33.58 178.00 36.53 C 176.33 36.73 174.66 36.97 173.00 37.23 L 171.32 37.46 Z" />
<path fill="#fafcfe" opacity="1.00" d=" M 159.87 37.74 C 163.31 37.57 166.76 37.75 170.20 37.72 C 167.58 37.98 165.07 39.23 162.45 39.24 C 161.58 38.75 160.72 38.25 159.87 37.74 Z" />
<path fill="#fafcfe" opacity="1.00" d=" M 110.92 165.90 C 112.67 161.11 114.46 155.10 119.90 153.40 C 136.64 163.19 153.58 172.65 170.29 182.49 C 170.74 190.41 170.80 198.39 171.68 206.27 C 172.23 206.41 173.34 206.71 173.90 206.86 C 177.25 227.55 180.43 248.28 182.75 269.12 C 184.03 280.03 184.97 291.01 184.63 302.00 C 185.31 327.40 187.85 352.70 190.79 377.93 C 192.06 387.25 192.88 396.72 195.59 405.78 C 198.04 414.31 199.40 423.16 199.61 432.03 C 199.84 438.07 198.15 443.98 198.31 450.01 C 198.37 453.04 198.43 456.08 198.42 459.12 C 184.28 459.12 170.15 459.84 156.01 459.32 C 145.70 459.05 135.37 459.53 125.06 459.06 C 114.81 458.08 104.48 457.89 94.23 458.96 C 96.15 446.29 98.15 433.20 95.39 420.50 C 93.59 412.87 88.02 407.19 83.53 401.09 C 81.85 399.05 83.31 396.51 84.85 394.90 C 89.35 390.04 93.25 383.89 93.15 377.04 C 93.18 370.85 88.34 366.00 87.72 359.95 C 87.59 357.93 89.57 356.91 90.85 355.74 C 94.59 352.91 98.41 349.90 100.59 345.65 C 102.38 342.70 101.87 339.13 102.41 335.87 C 103.87 325.26 106.25 314.71 106.30 303.95 C 106.45 299.52 104.60 295.35 104.41 290.95 C 103.72 281.62 104.47 272.13 106.87 263.09 C 106.81 258.38 103.09 254.90 100.23 251.57 C 91.28 242.20 80.95 234.27 70.52 226.64 C 65.73 223.33 60.92 219.97 55.62 217.51 C 52.92 216.05 49.77 217.00 47.21 218.28 C 37.52 222.93 29.08 229.73 21.26 237.00 C 29.84 223.12 40.54 210.29 54.05 200.98 C 55.12 200.34 56.31 199.28 57.65 199.78 C 77.42 205.50 94.54 217.81 109.59 231.53 C 110.71 232.70 112.44 232.69 113.92 233.03 C 121.42 234.14 128.90 235.45 136.40 236.60 C 137.48 231.35 138.70 226.14 139.79 220.89 C 137.66 218.86 135.48 216.87 133.20 214.99 C 134.39 213.91 136.78 213.20 135.74 211.19 C 133.33 209.93 130.55 210.03 127.91 209.87 C 125.71 207.82 123.39 205.90 121.24 203.79 C 117.79 195.32 111.18 188.70 105.37 181.81 C 109.14 177.31 108.87 171.15 110.92 165.90 M 129.91 440.38 C 130.18 438.48 130.22 436.56 129.90 434.68 C 128.01 435.68 128.10 439.32 129.91 440.38 M 152.32 435.51 C 150.86 436.59 151.58 438.24 152.12 439.61 C 153.39 439.67 154.66 439.76 155.93 439.86 C 156.80 438.33 156.50 436.73 155.75 435.25 C 154.60 435.29 153.46 435.38 152.32 435.51 M 158.68 436.98 C 159.38 436.71 160.79 436.17 161.50 435.90 C 160.73 437.37 159.81 438.78 158.75 440.06 C 159.51 440.09 161.04 440.13 161.81 440.15 C 161.24 438.49 161.96 436.80 161.77 435.12 C 160.36 434.93 159.11 435.57 158.68 436.98 M 162.51 436.41 C 162.71 437.25 163.11 438.91 163.30 439.75 C 163.92 439.77 165.15 439.83 165.76 439.85 C 166.26 438.43 167.12 437.17 168.29 436.22 C 168.32 437.14 168.38 439.00 168.42 439.92 C 168.69 439.90 169.25 439.84 169.53 439.81 C 169.54 438.24 169.56 436.68 169.62 435.12 C 168.15 435.98 165.89 436.90 164.82 434.89 C 164.04 435.39 163.27 435.89 162.51 436.41 M 174.21 440.10 C 173.75 439.39 173.08 438.95 172.22 438.79 C 172.84 438.25 173.60 437.84 174.01 437.11 C 173.41 436.85 172.21 436.32 171.61 436.06 C 172.31 436.08 173.70 436.13 174.40 436.16 L 173.61 435.25 C 169.62 433.90 170.41 442.32 174.21 440.10 M 131.17 436.42 C 131.04 437.61 130.90 438.80 130.77 439.99 L 131.77 440.19 C 131.81 439.47 131.87 438.01 131.91 437.29 L 133.00 437.25 C 133.02 437.97 133.04 439.42 133.05 440.14 L 133.96 440.14 C 133.97 439.44 133.99 438.04 134.00 437.34 L 135.25 437.38 C 135.30 438.14 135.41 439.67 135.46 440.43 C 136.59 439.30 136.31 437.77 136.10 436.36 C 134.46 436.39 132.81 436.41 131.17 436.42 M 138.28 435.76 C 139.48 437.82 137.63 438.40 136.50 439.72 C 137.41 439.75 139.21 439.79 140.11 439.82 C 139.68 438.36 140.29 436.06 138.28 435.76 M 140.34 437.81 C 139.61 440.89 143.01 440.43 144.95 441.04 C 144.96 440.51 144.97 439.46 144.98 438.93 C 146.12 439.87 147.37 440.65 148.91 440.13 C 148.94 439.31 149.02 437.69 149.05 436.88 C 147.80 436.08 146.57 435.81 145.66 437.28 C 144.04 435.91 141.48 435.75 140.34 437.81 M 111.43 440.21 C 110.87 440.28 109.73 440.42 109.16 440.49 C 109.94 438.41 109.39 437.39 107.52 437.42 C 107.54 438.20 107.58 439.74 107.60 440.52 C 106.69 439.49 105.91 438.30 104.70 437.59 C 105.06 439.69 106.10 441.88 104.94 443.93 L 104.12 444.03 C 103.92 447.76 103.43 451.71 105.08 455.21 L 105.39 454.72 C 108.87 456.57 112.81 456.18 116.05 453.99 C 115.97 450.69 116.05 447.38 115.95 444.09 C 114.17 442.15 115.07 439.73 115.99 437.64 C 114.64 438.34 113.47 439.30 112.55 440.53 C 112.57 439.66 112.61 437.92 112.63 437.05 C 111.23 437.62 111.00 438.80 111.43 440.21 M 142.57 441.24 C 143.16 441.83 143.16 441.83 142.57 441.24 M 128.58 442.40 C 128.59 445.65 128.24 448.94 128.69 452.18 C 129.07 453.00 130.36 454.19 131.11 453.11 C 129.67 449.87 130.40 446.26 130.25 442.84 C 129.83 442.73 129.00 442.51 128.58 442.40 M 132.21 442.66 C 132.32 445.96 132.06 449.29 132.43 452.59 C 133.12 452.84 134.49 453.33 135.17 453.58 C 133.29 450.60 134.26 447.04 133.96 443.74 C 134.04 442.43 133.16 442.32 132.21 442.66 M 118.65 453.40 C 120.18 453.16 121.06 452.26 121.27 450.71 C 122.46 450.67 123.66 450.66 124.86 450.66 C 125.09 452.36 125.98 453.22 127.53 453.24 C 126.24 449.40 125.44 445.25 123.00 441.94 C 120.78 445.41 119.77 449.48 118.65 453.40 M 148.70 444.95 C 147.63 445.32 146.58 445.78 145.57 446.32 C 144.98 446.05 144.40 445.77 143.81 445.51 C 143.57 446.11 143.09 447.32 142.84 447.92 C 141.40 447.54 140.83 445.31 138.99 445.73 C 134.90 445.59 134.26 452.27 138.07 453.24 C 139.54 453.60 142.15 453.80 142.42 451.72 C 140.43 451.95 137.90 452.42 137.13 449.97 C 139.06 449.85 141.03 449.62 142.96 449.96 C 143.66 450.91 143.87 452.11 143.59 453.56 C 144.00 453.47 144.82 453.31 145.23 453.23 C 145.53 451.11 144.34 448.20 146.59 446.89 C 149.56 447.28 148.47 450.92 148.88 453.03 C 150.13 453.22 151.88 454.33 152.26 452.39 C 149.42 452.23 150.40 449.36 150.17 447.48 C 150.70 447.07 151.76 446.26 152.29 445.85 C 151.79 445.82 150.80 445.76 150.30 445.73 C 150.29 445.28 150.28 444.36 150.28 443.91 L 148.64 444.01 L 148.70 444.95 M 155.65 445.80 C 152.43 446.18 151.60 450.94 154.10 452.73 C 156.29 454.49 160.13 452.96 160.15 450.02 C 160.57 447.46 158.13 445.22 155.65 445.80 M 161.42 445.46 C 161.31 448.15 160.91 450.91 161.55 453.57 C 164.98 453.52 160.86 446.98 164.95 447.14 C 167.83 447.84 164.66 453.32 167.44 453.63 C 168.49 451.75 168.10 449.29 167.57 447.30 C 166.92 445.43 164.67 445.77 163.16 446.05 C 162.73 445.90 161.86 445.61 161.42 445.46 M 169.44 448.56 C 170.22 450.17 172.79 450.06 173.29 452.05 C 171.83 451.97 170.38 451.82 168.93 451.64 C 169.54 454.54 175.29 454.08 174.74 450.86 C 174.05 448.98 171.21 449.18 170.79 447.04 C 172.11 447.11 173.44 447.24 174.77 447.33 C 173.84 444.60 168.70 445.49 169.44 448.56 M 185.00 449.33 L 184.95 450.41 C 182.63 450.46 180.30 450.45 178.00 450.12 C 177.83 450.67 177.51 451.78 177.35 452.34 L 176.14 451.99 L 175.99 452.61 C 178.06 452.15 179.52 454.63 181.33 452.30 C 181.76 452.63 182.62 453.29 183.05 453.63 C 183.51 453.33 184.43 452.75 184.89 452.46 L 184.88 453.79 C 186.02 453.63 187.15 453.45 188.28 453.25 C 188.82 452.32 189.34 451.38 189.85 450.43 C 190.08 451.27 190.55 452.95 190.79 453.79 C 190.78 452.82 190.77 450.88 190.77 449.92 C 189.97 449.84 189.16 449.77 188.35 449.79 C 187.26 449.48 186.14 449.32 185.00 449.33 Z" />
<path fill="#fafcfe" opacity="1.00" d=" M 179.59 183.40 C 181.32 180.68 183.71 178.44 185.75 175.94 C 185.70 183.31 185.88 190.67 185.90 198.03 C 185.61 201.19 189.86 201.13 191.23 203.30 C 195.83 212.34 200.66 221.28 204.51 230.67 C 209.68 236.57 215.70 241.69 221.04 247.44 C 224.43 244.57 227.61 241.48 231.14 238.77 C 229.51 233.46 226.66 228.68 224.37 223.66 C 227.63 226.74 231.46 229.52 233.41 233.69 C 246.64 265.81 250.80 301.59 245.47 335.91 C 244.07 344.94 241.69 353.83 241.05 362.97 C 239.24 384.00 237.08 404.99 235.45 426.04 C 234.58 434.69 237.93 444.09 233.43 452.13 C 231.90 455.35 228.10 455.90 225.07 456.91 C 217.22 459.37 208.93 459.48 200.78 459.16 C 200.67 453.40 200.31 447.61 201.15 441.89 C 203.04 429.84 200.89 417.63 198.01 405.93 C 195.53 398.16 194.89 389.99 193.77 381.95 C 191.01 359.03 188.61 336.04 187.44 312.98 C 186.83 302.67 187.64 292.31 186.51 282.03 C 184.22 256.78 180.45 231.69 176.26 206.70 C 176.75 206.32 177.73 205.56 178.22 205.18 C 178.87 197.94 178.97 190.64 179.59 183.40 Z" />
<path fill="#fafcfe" opacity="1.00" d=" M 44.49 276.77 C 47.66 269.67 51.10 262.69 54.66 255.78 C 56.34 263.34 58.11 270.89 59.65 278.49 C 67.04 279.82 74.53 280.59 81.97 281.65 C 81.25 283.04 79.73 283.63 78.47 284.41 C 73.30 287.30 68.34 290.57 63.09 293.32 C 63.98 301.22 66.00 308.94 66.94 316.84 C 61.29 311.67 55.60 306.53 49.77 301.57 L 49.14 301.40 C 42.33 304.83 35.76 308.70 28.94 312.10 C 31.77 304.82 35.14 297.76 37.89 290.45 C 32.27 285.44 26.96 280.09 21.57 274.82 C 29.23 275.25 36.83 276.37 44.49 276.77 Z" />
<path fill="#fafcfe" opacity="1.00" d=" M 250.26 290.51 L 250.92 291.56 C 252.41 296.56 252.82 301.88 253.77 307.03 C 255.50 311.41 255.90 316.18 257.36 320.66 C 255.17 324.65 249.79 326.26 249.08 331.14 C 249.82 322.51 252.60 314.09 251.64 305.36 C 249.54 300.76 250.37 295.44 250.26 290.51 Z" />
<path fill="#fafcfe" opacity="1.00" d=" M 42.69 345.13 C 43.35 342.25 43.74 339.26 45.18 336.64 C 48.64 343.41 51.70 350.39 55.13 357.18 C 56.40 357.09 57.67 357.00 58.93 356.90 C 65.57 356.43 72.18 355.62 78.83 355.33 C 73.84 359.96 69.06 364.80 64.01 369.36 C 63.47 369.84 62.40 370.80 61.87 371.29 C 64.42 378.89 68.13 386.03 70.85 393.57 C 63.92 389.85 57.07 385.98 50.18 382.19 C 44.39 387.31 38.51 392.34 32.72 397.47 L 32.56 396.44 C 32.85 394.33 33.22 392.24 33.56 390.15 C 34.41 384.86 35.55 379.62 35.98 374.28 C 29.17 370.48 22.56 366.34 15.88 362.32 C 23.67 361.20 31.48 360.22 39.29 359.17 C 40.47 354.50 41.56 349.81 42.69 345.13 Z" />
<path fill="#fafcfe" opacity="1.00" d=" M 246.34 363.93 C 252.73 364.32 259.08 365.15 265.47 365.60 C 266.22 375.86 266.08 386.29 264.88 396.47 C 261.28 398.50 257.55 400.27 253.89 402.17 C 254.11 401.60 254.57 400.44 254.79 399.86 C 255.48 398.23 256.22 396.62 256.93 395.00 C 258.96 390.06 261.35 385.28 263.17 380.25 C 260.82 378.05 258.49 375.84 256.20 373.59 C 255.04 372.45 253.89 371.32 252.70 370.22 C 250.49 368.22 248.34 366.15 246.34 363.93 Z" />
<path fill="#fafcfe" opacity="1.00" d=" M 55.16 422.49 C 58.38 426.92 61.18 431.63 64.15 436.22 C 65.18 437.84 66.23 439.44 67.27 441.06 C 69.90 440.62 72.52 440.15 75.11 439.54 C 79.72 438.45 84.37 437.49 89.01 436.50 C 84.50 442.20 79.98 447.93 74.99 453.21 C 75.41 455.18 76.41 456.92 77.47 458.60 C 79.78 462.31 81.62 466.32 84.40 469.72 C 85.99 469.73 87.55 470.09 89.06 470.56 C 87.44 470.42 85.82 470.28 84.20 470.13 C 84.62 470.88 85.45 472.38 85.86 473.13 C 78.91 470.57 72.05 467.77 65.05 465.35 C 60.14 470.87 55.01 476.20 50.04 481.67 C 50.29 474.42 51.05 467.20 51.35 459.97 C 49.56 457.89 46.27 457.53 43.91 456.11 C 39.95 453.89 35.31 452.80 31.73 450.01 C 38.68 448.21 45.62 446.37 52.58 444.59 C 53.53 437.23 54.15 429.84 55.16 422.49 Z" />
<path fill="#fafcfe" opacity="1.00" d=" M 164.39 436.31 C 165.61 436.67 165.82 437.50 165.00 438.80 C 163.76 438.44 163.56 437.61 164.39 436.31 Z" />
<path fill="#fafcfe" opacity="1.00" d=" M 247.90 442.10 C 253.74 442.25 259.58 442.56 265.43 442.73 L 265.73 442.74 C 266.20 445.35 265.65 447.85 264.16 450.03 C 262.67 452.67 265.95 454.41 267.69 455.70 C 266.57 458.47 264.76 461.64 266.49 464.56 C 267.75 466.84 267.20 469.42 267.04 471.88 C 263.75 473.78 260.55 475.82 257.28 477.74 C 259.51 470.78 262.61 464.11 264.68 457.11 L 264.53 456.56 C 259.14 451.57 253.35 447.02 247.90 442.10 Z" />
<path fill="#fafcfe" opacity="1.00" d=" M 108.72 445.93 C 109.59 445.83 110.47 445.74 111.35 445.66 C 111.96 447.64 112.71 449.57 113.45 451.50 C 113.53 452.00 113.68 453.00 113.76 453.49 C 111.38 452.85 111.15 450.07 110.22 448.18 C 109.41 450.02 108.56 451.86 107.68 453.68 L 106.71 452.63 L 106.65 452.40 C 107.41 450.26 108.21 448.13 108.72 445.93 Z" />
<path fill="#fafcfe" opacity="1.00" d=" M 122.40 446.41 C 123.82 445.27 125.05 448.03 123.88 448.95 C 122.23 450.27 120.95 447.39 122.40 446.41 Z" />
<path fill="#fafcfe" opacity="1.00" d=" M 154.99 447.82 C 157.77 445.25 159.84 450.94 156.97 451.87 C 154.77 452.52 153.68 449.28 154.99 447.82 Z" />
<path fill="#fafcfe" opacity="1.00" d=" M 178.97 451.27 C 181.04 449.50 180.97 453.64 178.93 452.02 L 178.97 451.27 Z" />
</g>
<g id="#585e63ff">
<path fill="#585e63" opacity="1.00" d=" M 96.03 60.24 C 97.45 39.15 110.64 18.78 130.48 10.65 C 130.41 10.92 130.27 11.46 130.20 11.73 C 126.10 16.45 121.69 21.00 118.67 26.54 C 117.03 26.39 115.38 26.26 113.74 26.13 C 114.73 27.06 115.73 27.98 116.73 28.91 C 113.31 34.99 109.25 41.60 110.43 48.89 C 111.50 54.10 116.50 57.31 121.31 58.67 C 118.91 60.21 116.55 61.81 114.34 63.61 L 114.15 63.56 C 111.02 62.73 107.85 62.00 104.68 61.34 C 104.16 57.73 103.71 54.09 102.69 50.58 C 100.37 53.71 99.54 58.15 96.03 60.24 Z" />
<path fill="#585e63" opacity="1.00" d=" M 94.97 73.14 C 96.30 72.56 97.63 71.99 98.96 71.42 C 99.70 72.34 100.44 73.25 101.18 74.17 L 101.38 74.97 C 99.07 79.08 96.59 83.19 95.45 87.86 C 95.64 82.94 94.91 78.05 94.97 73.14 Z" />
<path fill="#585e63" opacity="1.00" d=" M 152.32 435.51 C 153.46 435.38 154.60 435.29 155.75 435.25 C 156.50 436.73 156.80 438.33 155.93 439.86 C 154.66 439.76 153.39 439.67 152.12 439.61 C 151.58 438.24 150.86 436.59 152.32 435.51 M 154.41 437.10 C 154.58 440.50 157.36 435.55 154.41 437.10 Z" />
<path fill="#585e63" opacity="1.00" d=" M 140.34 437.81 C 141.48 435.75 144.04 435.91 145.66 437.28 C 146.57 435.81 147.80 436.08 149.05 436.88 C 149.02 437.69 148.94 439.31 148.91 440.13 C 147.37 440.65 146.12 439.87 144.98 438.93 C 144.97 439.46 144.96 440.51 144.95 441.04 C 143.01 440.43 139.61 440.89 140.34 437.81 M 142.26 437.83 C 142.13 441.14 145.37 436.56 142.26 437.83 Z" />
</g>
<g id="#f4f6f8ff">
<path fill="#f4f6f8" opacity="1.00" d=" M 102.69 50.58 C 103.71 54.09 104.16 57.73 104.68 61.34 C 107.85 62.00 111.02 62.73 114.15 63.56 C 111.88 65.22 109.43 66.60 107.00 68.01 C 105.64 70.35 104.25 73.03 101.85 74.41 L 101.18 74.17 C 100.44 73.25 99.70 72.34 98.96 71.42 C 97.63 71.99 96.30 72.56 94.97 73.14 C 94.99 68.91 95.23 64.68 95.68 60.48 L 96.03 60.24 C 99.54 58.15 100.37 53.71 102.69 50.58 Z" />
<path fill="#f4f6f8" opacity="1.00" d=" M 182.36 451.34 C 185.35 449.76 182.60 454.67 182.36 451.34 Z" />
</g>
<g id="#4f107aff">
<path fill="#4f107a" opacity="1.00" d=" M 46.06 222.03 C 48.82 220.52 52.28 218.70 55.28 220.72 C 64.49 225.87 72.93 232.27 81.23 238.75 C 88.78 245.12 96.82 251.30 102.35 259.62 C 104.37 262.18 102.95 265.33 102.37 268.12 C 100.56 275.29 101.00 282.75 101.04 290.07 C 100.93 295.48 103.55 300.53 103.08 305.96 C 102.38 317.44 99.71 328.68 98.69 340.13 C 98.10 346.47 92.66 350.88 87.59 353.97 C 89.87 349.12 92.82 344.64 95.09 339.79 C 88.90 342.16 83.31 345.81 77.15 348.21 C 74.42 349.38 71.47 348.25 69.03 346.94 C 61.34 342.65 55.49 335.95 49.36 329.79 C 48.21 333.99 51.01 337.65 52.83 341.18 C 55.41 346.05 58.28 350.80 60.38 355.91 C 60.02 356.16 59.30 356.65 58.93 356.90 C 57.67 357.00 56.40 357.09 55.13 357.18 C 51.70 350.39 48.64 343.41 45.18 336.64 C 41.79 332.27 37.11 329.12 32.07 326.94 C 26.12 324.38 20.09 321.74 13.64 320.75 C 12.63 325.35 17.17 327.22 20.72 328.25 C 27.35 330.17 32.55 334.89 37.79 339.14 C 39.71 340.86 42.21 342.38 42.69 345.13 C 41.56 349.81 40.47 354.50 39.29 359.17 C 31.48 360.22 23.67 361.20 15.88 362.32 C 22.56 366.34 29.17 370.48 35.98 374.28 C 35.55 379.62 34.41 384.86 33.56 390.15 C 25.44 387.25 18.89 381.55 11.79 376.89 C 11.00 384.51 12.22 392.49 16.00 399.23 C 21.27 397.69 26.43 395.71 31.88 394.93 C 32.05 395.31 32.39 396.06 32.56 396.44 L 32.72 397.47 C 38.51 392.34 44.39 387.31 50.18 382.19 C 57.07 385.98 63.92 389.85 70.85 393.57 C 68.13 386.03 64.42 378.89 61.87 371.29 C 62.40 370.80 63.47 369.84 64.01 369.36 C 66.72 370.69 69.41 374.62 72.70 372.70 C 77.94 368.95 81.68 363.56 84.71 357.96 C 83.79 364.57 88.67 369.86 90.07 375.99 C 90.80 380.47 88.81 384.76 86.60 388.52 L 86.32 388.66 C 80.98 391.16 76.57 395.40 73.00 400.02 C 70.59 402.99 72.65 406.78 74.67 409.32 C 77.89 413.36 81.88 418.07 87.57 417.85 C 88.13 416.75 88.70 415.66 89.27 414.58 C 91.43 417.30 92.62 420.63 93.16 424.04 C 94.84 432.92 93.77 441.98 92.70 450.87 C 92.07 455.84 91.20 460.86 91.75 465.89 C 92.15 469.74 94.93 472.68 96.82 475.87 C 92.74 476.85 88.76 478.74 85.88 481.87 C 83.75 484.41 83.58 487.89 83.09 491.03 C 85.14 488.76 86.96 486.29 89.07 484.07 C 91.51 481.50 95.40 480.26 96.49 476.57 C 98.21 482.60 96.61 489.03 98.16 495.12 C 101.22 506.63 102.97 518.45 104.31 530.27 C 91.57 529.63 79.61 534.85 67.96 539.31 C 67.62 534.00 68.46 528.64 67.51 523.38 C 66.35 518.31 62.91 514.19 59.50 510.42 C 55.92 506.31 50.62 503.65 48.45 498.41 C 46.49 493.87 43.92 489.48 43.04 484.57 C 51.10 490.34 59.12 496.20 67.75 501.11 C 69.43 502.05 71.31 502.54 73.17 502.99 C 72.42 498.52 67.50 497.64 64.15 495.78 C 56.58 491.71 50.72 485.25 44.10 479.90 C 43.01 478.85 41.52 479.02 40.35 479.86 C 37.58 474.47 33.39 470.16 29.51 465.60 C 22.76 455.07 22.31 442.11 20.29 430.12 C 19.36 422.78 16.76 415.81 13.79 409.09 C 12.64 406.22 11.20 403.27 11.51 400.10 C 12.00 393.73 11.04 387.38 11.09 381.01 C 11.71 371.21 9.72 361.43 7.04 352.04 C 4.24 344.26 5.99 335.92 6.51 327.92 C 7.07 319.93 8.86 312.03 8.65 304.00 C 8.67 288.26 8.88 272.34 12.57 256.96 C 13.77 249.66 19.10 244.11 23.83 238.81 C 30.38 232.19 37.95 226.59 46.06 222.03 M 44.49 276.77 C 36.83 276.37 29.23 275.25 21.57 274.82 C 26.96 280.09 32.27 285.44 37.89 290.45 C 35.14 297.76 31.77 304.82 28.94 312.10 C 35.76 308.70 42.33 304.83 49.14 301.40 L 49.77 301.57 C 55.60 306.53 61.29 311.67 66.94 316.84 C 66.00 308.94 63.98 301.22 63.09 293.32 C 68.34 290.57 73.30 287.30 78.47 284.41 C 79.73 283.63 81.25 283.04 81.97 281.65 C 74.53 280.59 67.04 279.82 59.65 278.49 C 58.11 270.89 56.34 263.34 54.66 255.78 C 51.10 262.69 47.66 269.67 44.49 276.77 M 55.16 422.49 C 54.15 429.84 53.53 437.23 52.58 444.59 C 45.62 446.37 38.68 448.21 31.73 450.01 C 35.31 452.80 39.95 453.89 43.91 456.11 C 46.27 457.53 49.56 457.89 51.35 459.97 C 51.05 467.20 50.29 474.42 50.04 481.67 C 55.01 476.20 60.14 470.87 65.05 465.35 C 72.05 467.77 78.91 470.57 85.86 473.13 C 85.45 472.38 84.62 470.88 84.20 470.13 C 85.82 470.28 87.44 470.42 89.06 470.56 C 87.55 470.09 85.99 469.73 84.40 469.72 C 81.62 466.32 79.78 462.31 77.47 458.60 C 76.41 456.92 75.41 455.18 74.99 453.21 C 79.98 447.93 84.50 442.20 89.01 436.50 C 84.37 437.49 79.72 438.45 75.11 439.54 C 74.57 439.37 73.49 439.04 72.95 438.87 C 75.80 436.08 78.93 432.88 82.89 431.98 C 86.89 433.79 90.26 429.92 91.10 426.32 C 85.73 424.91 79.54 423.55 74.43 426.47 C 70.70 429.38 67.87 433.28 64.15 436.22 C 61.18 431.63 58.38 426.92 55.16 422.49 Z" />
<path fill="#4f107a" opacity="1.00" d=" M 240.23 243.06 C 246.58 258.40 250.14 274.98 250.92 291.56 L 250.26 290.51 C 249.57 289.52 249.61 288.25 249.44 287.11 C 248.45 275.28 245.93 263.62 242.72 252.20 C 241.82 249.17 240.63 246.21 240.23 243.06 Z" />
<path fill="#4f107a" opacity="1.00" d=" M 257.36 320.66 L 257.61 320.29 C 260.42 335.34 264.60 350.23 265.47 365.60 C 259.08 365.15 252.73 364.32 246.34 363.93 C 248.34 366.15 250.49 368.22 252.70 370.22 C 249.79 372.20 246.25 372.33 242.85 372.42 C 242.95 369.70 243.21 367.01 243.60 364.33 C 248.19 360.73 252.00 356.28 256.28 352.34 C 258.28 350.41 260.71 348.61 261.35 345.73 C 254.43 349.46 250.01 356.33 243.96 361.21 C 245.37 351.14 247.65 341.21 249.08 331.14 C 249.79 326.26 255.17 324.65 257.36 320.66 Z" />
<path fill="#4f107a" opacity="1.00" d=" M 241.92 382.44 C 246.77 379.64 251.41 376.49 256.20 373.59 C 258.49 375.84 260.82 378.05 263.17 380.25 C 261.35 385.28 258.96 390.06 256.93 395.00 C 251.78 395.64 247.11 398.17 243.61 401.98 C 247.22 400.76 250.93 399.68 254.79 399.86 C 254.57 400.44 254.11 401.60 253.89 402.17 C 257.55 400.27 261.28 398.50 264.88 396.47 C 264.81 409.01 264.29 421.56 265.19 434.08 C 265.42 436.95 265.49 439.84 265.43 442.73 C 259.58 442.56 253.74 442.25 247.90 442.10 C 253.35 447.02 259.14 451.57 264.53 456.56 L 264.68 457.11 C 262.61 464.11 259.51 470.78 257.28 477.74 C 260.55 475.82 263.75 473.78 267.04 471.88 C 267.22 480.38 266.27 489.03 268.36 497.37 C 269.32 503.47 271.81 509.21 272.58 515.35 C 264.25 514.15 254.60 512.56 247.67 518.64 C 246.01 515.57 245.10 512.19 243.93 508.92 C 242.00 504.15 242.70 498.84 240.84 494.05 C 247.49 495.60 253.18 491.27 257.58 486.85 C 254.44 487.18 251.32 487.84 248.15 487.76 C 245.67 484.68 245.01 480.02 246.39 476.36 C 250.22 471.10 256.67 468.70 261.04 464.00 C 254.65 466.65 249.81 472.19 243.15 474.21 C 241.95 470.94 240.78 467.49 241.38 463.96 C 242.95 456.76 243.55 449.03 241.74 441.84 C 240.64 444.39 239.56 446.96 238.32 449.46 C 239.34 440.64 237.29 431.83 238.13 423.00 C 238.77 416.93 239.05 410.82 240.02 404.79 C 242.23 405.46 242.44 401.82 240.10 403.27 C 240.47 396.31 241.12 389.36 241.92 382.44 Z" />
</g>
<g id="#7c509cff">
<path fill="#7c509c" opacity="1.00" d=" M 13.64 320.75 C 20.09 321.74 26.12 324.38 32.07 326.94 C 37.11 329.12 41.79 332.27 45.18 336.64 C 43.74 339.26 43.35 342.25 42.69 345.13 C 42.21 342.38 39.71 340.86 37.79 339.14 C 32.55 334.89 27.35 330.17 20.72 328.25 C 17.17 327.22 12.63 325.35 13.64 320.75 Z" />
<path fill="#7c509c" opacity="1.00" d=" M 52.83 341.18 C 51.01 337.65 48.21 333.99 49.36 329.79 C 55.49 335.95 61.34 342.65 69.03 346.94 C 71.47 348.25 74.42 349.38 77.15 348.21 C 83.31 345.81 88.90 342.16 95.09 339.79 C 92.82 344.64 89.87 349.12 87.59 353.97 C 86.69 355.34 85.59 356.58 84.71 357.96 C 81.68 363.56 77.94 368.95 72.70 372.70 C 69.41 374.62 66.72 370.69 64.01 369.36 C 69.06 364.80 73.84 359.96 78.83 355.33 C 72.18 355.62 65.57 356.43 58.93 356.90 C 59.30 356.65 60.02 356.16 60.38 355.91 C 58.28 350.80 55.41 346.05 52.83 341.18 Z" />
<path fill="#7c509c" opacity="1.00" d=" M 252.70 370.22 C 253.89 371.32 255.04 372.45 256.20 373.59 C 251.41 376.49 246.77 379.64 241.92 382.44 C 242.02 379.08 242.46 375.75 242.85 372.42 C 246.25 372.33 249.79 372.20 252.70 370.22 Z" />
<path fill="#7c509c" opacity="1.00" d=" M 11.79 376.89 C 18.89 381.55 25.44 387.25 33.56 390.15 C 33.22 392.24 32.85 394.33 32.56 396.44 C 32.39 396.06 32.05 395.31 31.88 394.93 C 26.43 395.71 21.27 397.69 16.00 399.23 C 12.22 392.49 11.00 384.51 11.79 376.89 Z" />
<path fill="#7c509c" opacity="1.00" d=" M 73.00 400.02 C 76.57 395.40 80.98 391.16 86.32 388.66 C 84.24 392.80 78.58 395.76 80.04 401.07 C 81.93 406.28 86.94 409.57 89.27 414.58 C 88.70 415.66 88.13 416.75 87.57 417.85 C 81.88 418.07 77.89 413.36 74.67 409.32 C 72.65 406.78 70.59 402.99 73.00 400.02 Z" />
<path fill="#7c509c" opacity="1.00" d=" M 243.61 401.98 C 247.11 398.17 251.78 395.64 256.93 395.00 C 256.22 396.62 255.48 398.23 254.79 399.86 C 250.93 399.68 247.22 400.76 243.61 401.98 Z" />
<path fill="#7c509c" opacity="1.00" d=" M 74.43 426.47 C 79.54 423.55 85.73 424.91 91.10 426.32 C 90.26 429.92 86.89 433.79 82.89 431.98 C 78.93 432.88 75.80 436.08 72.95 438.87 C 73.49 439.04 74.57 439.37 75.11 439.54 C 72.52 440.15 69.90 440.62 67.27 441.06 C 66.23 439.44 65.18 437.84 64.15 436.22 C 67.87 433.28 70.70 429.38 74.43 426.47 Z" />
<path fill="#7c509c" opacity="1.00" d=" M 241.74 441.84 C 243.55 449.03 242.95 456.76 241.38 463.96 C 240.78 467.49 241.95 470.94 243.15 474.21 C 249.81 472.19 254.65 466.65 261.04 464.00 C 256.67 468.70 250.22 471.10 246.39 476.36 C 245.01 480.02 245.67 484.68 248.15 487.76 C 251.32 487.84 254.44 487.18 257.58 486.85 C 253.18 491.27 247.49 495.60 240.84 494.05 C 239.85 490.47 239.13 486.78 239.27 483.06 C 240.40 473.61 237.79 464.31 236.40 455.04 C 236.30 453.01 237.57 451.25 238.32 449.46 C 239.56 446.96 240.64 444.39 241.74 441.84 Z" />
<path fill="#7c509c" opacity="1.00" d=" M 85.88 481.87 C 88.76 478.74 92.74 476.85 96.82 475.87 L 96.49 476.57 C 95.40 480.26 91.51 481.50 89.07 484.07 C 86.96 486.29 85.14 488.76 83.09 491.03 C 83.58 487.89 83.75 484.41 85.88 481.87 Z" />
<path fill="#7c509c" opacity="1.00" d=" M 40.35 479.86 C 41.52 479.02 43.01 478.85 44.10 479.90 C 50.72 485.25 56.58 491.71 64.15 495.78 C 67.50 497.64 72.42 498.52 73.17 502.99 C 71.31 502.54 69.43 502.05 67.75 501.11 C 59.12 496.20 51.10 490.34 43.04 484.57 C 41.68 483.33 41.13 481.46 40.35 479.86 Z" />
</g>
<g id="#744595ff">
<path fill="#744595" opacity="1.00" d=" M 243.96 361.21 C 250.01 356.33 254.43 349.46 261.35 345.73 C 260.71 348.61 258.28 350.41 256.28 352.34 C 252.00 356.28 248.19 360.73 243.60 364.33 C 243.69 363.55 243.87 361.99 243.96 361.21 Z" />
</g>
<g id="#6d3b90ff">
<path fill="#6d3b90" opacity="1.00" d=" M 240.10 403.27 C 242.44 401.82 242.23 405.46 240.02 404.79 C 240.04 404.41 240.08 403.65 240.10 403.27 Z" />
</g>
<g id="#231f20ff">
<path fill="#231f20" opacity="1.00" d=" M 129.91 440.38 C 128.10 439.32 128.01 435.68 129.90 434.68 C 130.22 436.56 130.18 438.48 129.91 440.38 Z" />
<path fill="#231f20" opacity="1.00" d=" M 158.68 436.98 C 159.11 435.57 160.36 434.93 161.77 435.12 C 161.96 436.80 161.24 438.49 161.81 440.15 C 161.04 440.13 159.51 440.09 158.75 440.06 C 159.81 438.78 160.73 437.37 161.50 435.90 C 160.79 436.17 159.38 436.71 158.68 436.98 Z" />
<path fill="#231f20" opacity="1.00" d=" M 162.51 436.41 C 163.27 435.89 164.04 435.39 164.82 434.89 C 165.89 436.90 168.15 435.98 169.62 435.12 C 169.56 436.68 169.54 438.24 169.53 439.81 C 169.25 439.84 168.69 439.90 168.42 439.92 C 168.38 439.00 168.32 437.14 168.29 436.22 C 167.12 437.17 166.26 438.43 165.76 439.85 C 165.15 439.83 163.92 439.77 163.30 439.75 C 163.11 438.91 162.71 437.25 162.51 436.41 M 164.39 436.31 C 163.56 437.61 163.76 438.44 165.00 438.80 C 165.82 437.50 165.61 436.67 164.39 436.31 Z" />
<path fill="#231f20" opacity="1.00" d=" M 174.21 440.10 C 170.41 442.32 169.62 433.90 173.61 435.25 L 174.40 436.16 C 173.70 436.13 172.31 436.08 171.61 436.06 C 172.21 436.32 173.41 436.85 174.01 437.11 C 173.60 437.84 172.84 438.25 172.22 438.79 C 173.08 438.95 173.75 439.39 174.21 440.10 Z" />
<path fill="#231f20" opacity="1.00" d=" M 131.17 436.42 C 132.81 436.41 134.46 436.39 136.10 436.36 C 136.31 437.77 136.59 439.30 135.46 440.43 C 135.41 439.67 135.30 438.14 135.25 437.38 L 134.00 437.34 C 133.99 438.04 133.97 439.44 133.96 440.14 L 133.05 440.14 C 133.04 439.42 133.02 437.97 133.00 437.25 L 131.91 437.29 C 131.87 438.01 131.81 439.47 131.77 440.19 L 130.77 439.99 C 130.90 438.80 131.04 437.61 131.17 436.42 Z" />
<path fill="#231f20" opacity="1.00" d=" M 138.28 435.76 C 140.29 436.06 139.68 438.36 140.11 439.82 C 139.21 439.79 137.41 439.75 136.50 439.72 C 137.63 438.40 139.48 437.82 138.28 435.76 Z" />
<path fill="#231f20" opacity="1.00" d=" M 111.43 440.21 C 111.00 438.80 111.23 437.62 112.63 437.05 C 112.61 437.92 112.57 439.66 112.55 440.53 C 113.01 440.92 113.91 441.70 114.37 442.09 C 111.53 442.19 108.69 442.20 105.85 442.18 C 106.44 441.63 107.02 441.07 107.60 440.52 C 107.58 439.74 107.54 438.20 107.52 437.42 C 109.39 437.39 109.94 438.41 109.16 440.49 C 109.73 440.42 110.87 440.28 111.43 440.21 Z" />
<path fill="#231f20" opacity="1.00" d=" M 128.58 442.40 C 129.00 442.51 129.83 442.73 130.25 442.84 C 130.40 446.26 129.67 449.87 131.11 453.11 C 130.36 454.19 129.07 453.00 128.69 452.18 C 128.24 448.94 128.59 445.65 128.58 442.40 Z" />
<path fill="#231f20" opacity="1.00" d=" M 132.21 442.66 C 133.16 442.32 134.04 442.43 133.96 443.74 C 134.26 447.04 133.29 450.60 135.17 453.58 C 134.49 453.33 133.12 452.84 132.43 452.59 C 132.06 449.29 132.32 445.96 132.21 442.66 Z" />
<path fill="#231f20" opacity="1.00" d=" M 118.65 453.40 C 119.77 449.48 120.78 445.41 123.00 441.94 C 125.44 445.25 126.24 449.40 127.53 453.24 C 125.98 453.22 125.09 452.36 124.86 450.66 C 123.66 450.66 122.46 450.67 121.27 450.71 C 121.06 452.26 120.18 453.16 118.65 453.40 M 122.40 446.41 C 120.95 447.39 122.23 450.27 123.88 448.95 C 125.05 448.03 123.82 445.27 122.40 446.41 Z" />
<path fill="#231f20" opacity="1.00" d=" M 106.00 443.87 C 107.55 443.99 109.20 444.82 110.69 443.99 C 111.52 443.89 113.20 443.67 114.04 443.56 C 114.07 446.22 113.96 448.89 113.45 451.50 C 112.71 449.57 111.96 447.64 111.35 445.66 C 110.47 445.74 109.59 445.83 108.72 445.93 C 108.21 448.13 107.41 450.26 106.65 452.40 C 105.78 449.63 105.98 446.72 106.00 443.87 Z" />
<path fill="#231f20" opacity="1.00" d=" M 148.70 444.95 L 148.64 444.01 L 150.28 443.91 C 150.28 444.36 150.29 445.28 150.30 445.73 C 150.80 445.76 151.79 445.82 152.29 445.85 C 151.76 446.26 150.70 447.07 150.17 447.48 C 150.40 449.36 149.42 452.23 152.26 452.39 C 151.88 454.33 150.13 453.22 148.88 453.03 C 148.47 450.92 149.56 447.28 146.59 446.89 C 144.34 448.20 145.53 451.11 145.23 453.23 C 144.82 453.31 144.00 453.47 143.59 453.56 C 143.87 452.11 143.66 450.91 142.96 449.96 C 141.03 449.62 139.06 449.85 137.13 449.97 C 137.90 452.42 140.43 451.95 142.42 451.72 C 142.15 453.80 139.54 453.60 138.07 453.24 C 134.26 452.27 134.90 445.59 138.99 445.73 C 140.83 445.31 141.40 447.54 142.84 447.92 C 143.09 447.32 143.57 446.11 143.81 445.51 C 144.40 445.77 144.98 446.05 145.57 446.32 C 146.58 445.78 147.63 445.32 148.70 444.95 M 138.31 447.07 C 136.49 447.54 137.64 449.78 139.18 449.12 C 141.37 448.94 139.94 446.06 138.31 447.07 Z" />
<path fill="#231f20" opacity="1.00" d=" M 155.65 445.80 C 158.13 445.22 160.57 447.46 160.15 450.02 C 160.13 452.96 156.29 454.49 154.10 452.73 C 151.60 450.94 152.43 446.18 155.65 445.80 M 154.99 447.82 C 153.68 449.28 154.77 452.52 156.97 451.87 C 159.84 450.94 157.77 445.25 154.99 447.82 Z" />
<path fill="#231f20" opacity="1.00" d=" M 161.42 445.46 C 161.86 445.61 162.73 445.90 163.16 446.05 C 164.67 445.77 166.92 445.43 167.57 447.30 C 168.10 449.29 168.49 451.75 167.44 453.63 C 164.66 453.32 167.83 447.84 164.95 447.14 C 160.86 446.98 164.98 453.52 161.55 453.57 C 160.91 450.91 161.31 448.15 161.42 445.46 Z" />
<path fill="#231f20" opacity="1.00" d=" M 169.44 448.56 C 168.70 445.49 173.84 444.60 174.77 447.33 C 173.44 447.24 172.11 447.11 170.79 447.04 C 171.21 449.18 174.05 448.98 174.74 450.86 C 175.29 454.08 169.54 454.54 168.93 451.64 C 170.38 451.82 171.83 451.97 173.29 452.05 C 172.79 450.06 170.22 450.17 169.44 448.56 Z" />
<path fill="#231f20" opacity="1.00" d=" M 110.22 448.18 C 111.15 450.07 111.38 452.85 113.76 453.49 L 113.78 453.81 C 111.75 454.00 109.68 454.12 107.68 453.68 C 108.56 451.86 109.41 450.02 110.22 448.18 Z" />
<path fill="#231f20" opacity="1.00" d=" M 188.35 449.79 C 189.16 449.77 189.97 449.84 190.77 449.92 C 190.77 450.88 190.78 452.82 190.79 453.79 C 190.55 452.95 190.08 451.27 189.85 450.43 C 189.34 451.38 188.82 452.32 188.28 453.25 C 188.35 452.65 188.49 451.46 188.57 450.87 C 187.78 450.84 186.22 450.78 185.44 450.75 C 186.17 450.51 187.62 450.03 188.35 449.79 Z" />
<path fill="#231f20" opacity="1.00" d=" M 178.00 450.12 C 180.30 450.45 182.63 450.46 184.95 450.41 C 184.93 450.93 184.90 451.95 184.89 452.46 C 184.43 452.75 183.51 453.33 183.05 453.63 C 182.62 453.29 181.76 452.63 181.33 452.30 C 179.52 454.63 178.06 452.15 175.99 452.61 L 176.14 451.99 L 177.35 452.34 C 177.51 451.78 177.83 450.67 178.00 450.12 M 178.97 451.27 L 178.93 452.02 C 180.97 453.64 181.04 449.50 178.97 451.27 M 182.36 451.34 C 182.60 454.67 185.35 449.76 182.36 451.34 Z" />
</g>
<g id="#868486ff">
<path fill="#868486" opacity="1.00" d=" M 104.70 437.59 C 105.91 438.30 106.69 439.49 107.60 440.52 C 107.02 441.07 106.44 441.63 105.85 442.18 C 108.69 442.20 111.53 442.19 114.37 442.09 C 113.91 441.70 113.01 440.92 112.55 440.53 C 113.47 439.30 114.64 438.34 115.99 437.64 C 115.07 439.73 114.17 442.15 115.95 444.09 C 116.05 447.38 115.97 450.69 116.05 453.99 C 112.81 456.18 108.87 456.57 105.39 454.72 C 105.72 454.20 106.38 453.15 106.71 452.63 L 107.68 453.68 C 109.68 454.12 111.75 454.00 113.78 453.81 L 113.76 453.49 C 113.68 453.00 113.53 452.00 113.45 451.50 C 113.96 448.89 114.07 446.22 114.04 443.56 C 113.20 443.67 111.52 443.89 110.69 443.99 C 109.20 444.82 107.55 443.99 106.00 443.87 L 104.94 443.93 C 106.10 441.88 105.06 439.69 104.70 437.59 Z" />
</g>
<g id="#636162ff">
<path fill="#636162" opacity="1.00" d=" M 142.57 441.24 C 143.16 441.83 143.16 441.83 142.57 441.24 Z" />
</g>
<g id="#adadafff">
<path fill="#adadaf" opacity="1.00" d=" M 104.12 444.03 L 104.94 443.93 L 106.00 443.87 C 105.98 446.72 105.78 449.63 106.65 452.40 L 106.71 452.63 C 106.38 453.15 105.72 454.20 105.39 454.72 L 105.08 455.21 C 103.43 451.71 103.92 447.76 104.12 444.03 Z" />
</g>
<g id="#a1a0a2ff">
<path fill="#a1a0a2" opacity="1.00" d=" M 138.31 447.07 C 139.94 446.06 141.37 448.94 139.18 449.12 C 137.64 449.78 136.49 447.54 138.31 447.07 Z" />
</g>
<g id="#bcbdbfff">
<path fill="#bcbdbf" opacity="1.00" d=" M 185.00 449.33 C 186.14 449.32 187.26 449.48 188.35 449.79 C 187.62 450.03 186.17 450.51 185.44 450.75 C 186.22 450.78 187.78 450.84 188.57 450.87 C 188.49 451.46 188.35 452.65 188.28 453.25 C 187.15 453.45 186.02 453.63 184.88 453.79 L 184.89 452.46 C 184.90 451.95 184.93 450.93 184.95 450.41 L 185.00 449.33 Z" />
</g>
</svg>
