<?xml version="1.0" encoding="UTF-8" ?>
<!DOCTYPE svg PUBLIC "-//W3C//DTD SVG 1.1//EN" "http://www.w3.org/Graphics/SVG/1.1/DTD/svg11.dtd">
<svg width="279pt" height="547pt" viewBox="0 0 279 547" version="1.1" xmlns="http://www.w3.org/2000/svg">
<g id="#ffffffff">
<path fill="#ffffff" opacity="1.00" d=" M 0.00 0.00 L 279.00 0.00 L 279.00 547.00 L 0.00 547.00 L 0.00 0.00 M 124.53 13.38 C 111.24 20.67 101.09 33.30 96.80 47.83 C 90.66 66.68 92.29 87.05 96.86 106.05 C 100.26 108.74 100.92 113.66 104.74 116.06 C 103.38 120.66 101.82 125.28 99.28 129.38 C 97.64 132.14 93.85 133.34 93.35 136.78 C 92.62 140.73 92.86 144.96 94.30 148.73 C 95.19 151.08 97.30 153.30 96.49 155.99 C 94.65 159.25 91.70 161.78 90.02 165.17 C 85.80 171.85 88.93 180.14 91.58 186.83 C 80.20 188.08 68.96 191.17 59.05 197.00 C 38.41 209.07 23.17 228.70 12.86 249.97 C 10.74 253.68 10.30 258.01 9.16 262.07 C 6.36 277.53 6.18 293.31 6.23 308.97 C 5.25 321.33 2.95 333.60 2.99 346.02 C 2.85 349.67 4.22 353.08 5.22 356.52 C 7.40 364.81 9.26 373.35 8.64 381.98 C 8.73 389.31 8.98 396.65 8.94 403.98 C 10.40 411.93 15.07 418.89 16.61 426.85 C 18.89 439.49 19.36 452.75 24.76 464.61 C 27.23 470.22 32.58 473.77 35.54 479.07 C 40.00 486.73 42.82 495.21 47.06 502.98 C 49.45 507.17 53.75 509.64 56.98 513.09 C 60.04 516.30 62.96 519.82 64.61 523.99 C 66.58 529.80 64.80 535.98 65.53 541.94 C 65.69 543.00 66.66 544.82 67.98 544.02 C 80.45 539.44 93.34 533.03 107.00 535.07 C 105.86 521.62 103.50 508.26 100.46 495.11 C 99.42 490.10 100.01 484.97 99.48 479.91 C 99.21 473.89 92.60 469.97 94.08 463.55 C 102.07 462.87 110.10 462.66 118.10 463.31 C 128.35 464.30 138.66 463.72 148.94 463.87 C 169.66 464.51 190.39 463.70 211.10 463.96 C 218.95 463.21 227.73 462.60 234.11 457.47 C 235.76 466.56 237.91 475.77 237.03 485.07 C 236.67 492.27 240.01 498.92 240.29 506.05 C 241.07 511.56 243.26 516.78 245.31 521.92 C 245.67 523.23 246.74 524.05 247.88 524.70 C 250.71 521.58 254.61 519.35 258.88 519.14 C 263.95 518.45 268.89 520.48 273.93 520.27 C 276.05 519.97 275.52 517.45 275.13 516.05 C 273.03 508.07 270.35 500.16 269.59 491.90 C 269.35 484.61 269.55 477.30 269.85 470.01 C 270.11 467.88 268.87 466.04 268.39 464.06 C 268.77 461.96 269.90 460.09 270.30 458.01 C 270.21 455.62 267.98 454.53 266.36 453.23 C 267.34 451.26 268.96 449.35 268.60 447.01 C 267.31 431.37 267.06 415.65 267.69 399.97 C 268.27 390.66 268.91 381.33 268.48 372.00 C 267.50 349.20 261.05 327.18 256.11 305.04 C 253.69 294.54 253.63 283.69 251.47 273.15 C 249.23 261.80 246.29 250.43 241.06 240.06 C 239.10 236.65 237.12 232.74 233.33 231.08 C 227.31 224.55 219.89 219.58 212.51 214.74 C 204.76 209.77 196.81 205.10 188.65 200.85 C 188.46 192.42 188.58 183.98 188.32 175.54 C 188.58 173.86 186.59 173.09 185.75 174.62 C 182.99 177.89 179.99 180.97 177.48 184.44 C 176.62 191.53 176.80 198.72 176.03 205.82 C 175.49 205.94 174.43 206.19 173.89 206.31 C 173.42 198.90 173.21 191.46 172.65 184.06 C 172.71 182.72 171.31 182.25 170.40 181.64 C 155.10 172.90 139.82 164.12 124.54 155.33 C 122.37 154.18 119.92 152.00 117.43 153.71 C 111.47 157.14 109.55 164.32 107.72 170.47 C 106.42 174.32 106.72 178.86 103.83 182.03 C 99.33 175.27 100.63 166.70 100.08 159.03 C 100.34 151.59 98.00 144.31 98.69 136.89 C 103.82 139.11 107.27 144.08 112.69 145.75 C 109.95 134.07 113.21 122.05 117.25 111.09 C 119.06 105.72 123.43 101.56 124.60 95.95 C 126.27 88.57 125.68 80.96 125.19 73.49 C 140.99 67.38 158.10 64.44 175.04 65.10 C 186.37 65.66 198.28 68.51 206.86 76.35 C 208.57 79.59 208.79 83.37 208.67 86.97 C 208.00 104.94 207.30 122.92 206.19 140.87 C 206.04 142.13 206.06 143.44 205.60 144.63 C 202.05 149.10 196.62 151.97 193.80 157.01 C 194.71 160.65 198.24 166.57 202.60 163.65 C 207.14 160.80 212.00 157.28 213.71 151.96 C 213.40 148.88 211.85 146.04 211.63 142.92 C 210.36 129.72 211.80 116.47 213.23 103.35 C 218.31 99.16 223.44 94.76 226.92 89.09 C 229.35 85.50 232.68 82.52 234.60 78.60 C 236.73 71.96 236.72 64.39 233.75 58.01 C 232.69 55.63 230.69 53.70 230.20 51.08 C 228.23 41.92 224.22 33.10 218.18 25.90 C 208.70 14.45 194.59 7.64 180.11 5.16 C 161.38 1.25 141.32 4.21 124.53 13.38 Z" />
<path fill="#ffffff" opacity="1.00" d=" M 102.22 84.32 C 105.34 82.29 109.46 80.99 113.06 82.44 C 116.24 83.99 117.36 88.44 115.48 91.40 C 111.62 99.21 107.92 107.11 104.55 115.14 C 102.18 108.94 99.74 102.64 99.15 95.97 C 99.42 91.98 100.17 87.81 102.22 84.32 Z" />
</g>
<g id="#000000ff">
<path fill="#000000" opacity="1.00" d=" M 124.53 13.38 C 141.32 4.21 161.38 1.25 180.11 5.16 C 194.59 7.64 208.70 14.45 218.18 25.90 C 224.22 33.10 228.23 41.92 230.20 51.08 C 230.69 53.70 232.69 55.63 233.75 58.01 C 236.72 64.39 236.73 71.96 234.60 78.60 C 232.68 82.52 229.35 85.50 226.92 89.09 C 223.44 94.76 218.31 99.16 213.23 103.35 C 211.80 116.47 210.36 129.72 211.63 142.92 C 211.85 146.04 213.40 148.88 213.71 151.96 C 212.00 157.28 207.14 160.80 202.60 163.65 C 198.24 166.57 194.71 160.65 193.80 157.01 C 196.62 151.97 202.05 149.10 205.60 144.63 C 206.06 143.44 206.04 142.13 206.19 140.87 C 207.30 122.92 208.00 104.94 208.67 86.97 C 208.79 83.37 208.57 79.59 206.86 76.35 C 198.28 68.51 186.37 65.66 175.04 65.10 C 158.10 64.44 140.99 67.38 125.19 73.49 C 125.68 80.96 126.27 88.57 124.60 95.95 C 123.43 101.56 119.06 105.72 117.25 111.09 C 113.21 122.05 109.95 134.07 112.69 145.75 C 107.27 144.08 103.82 139.11 98.69 136.89 C 98.00 144.31 100.34 151.59 100.08 159.03 C 100.63 166.70 99.33 175.27 103.83 182.03 C 106.72 178.86 106.42 174.32 107.72 170.47 C 109.55 164.32 111.47 157.14 117.43 153.71 C 119.92 152.00 122.37 154.18 124.54 155.33 C 139.82 164.12 155.10 172.90 170.40 181.64 C 171.31 182.25 172.71 182.72 172.65 184.06 C 173.21 191.46 173.42 198.90 173.89 206.31 C 174.43 206.19 175.49 205.94 176.03 205.82 C 176.80 198.72 176.62 191.53 177.48 184.44 C 179.99 180.97 182.99 177.89 185.75 174.62 C 186.59 173.09 188.58 173.86 188.32 175.54 C 188.58 183.98 188.46 192.42 188.65 200.85 C 196.81 205.10 204.76 209.77 212.51 214.74 C 219.89 219.58 227.31 224.55 233.33 231.08 C 237.12 232.74 239.10 236.65 241.06 240.06 C 246.29 250.43 249.23 261.80 251.47 273.15 C 253.63 283.69 253.69 294.54 256.11 305.04 C 261.05 327.18 267.50 349.20 268.48 372.00 C 268.91 381.33 268.27 390.66 267.69 399.97 C 267.06 415.65 267.31 431.37 268.60 447.01 C 268.96 449.35 267.34 451.26 266.36 453.23 C 267.98 454.53 270.21 455.62 270.30 458.01 C 269.90 460.09 268.77 461.96 268.39 464.06 C 268.87 466.04 270.11 467.88 269.85 470.01 C 269.55 477.30 269.35 484.61 269.59 491.90 C 270.35 500.16 273.03 508.07 275.13 516.05 C 275.52 517.45 276.05 519.97 273.93 520.27 C 268.89 520.48 263.95 518.45 258.88 519.14 C 254.61 519.35 250.71 521.58 247.88 524.70 C 246.74 524.05 245.67 523.23 245.31 521.92 C 243.26 516.78 241.07 511.56 240.29 506.05 C 240.01 498.92 236.67 492.27 237.03 485.07 C 237.91 475.77 235.76 466.56 234.11 457.47 C 227.73 462.60 218.95 463.21 211.10 463.96 C 190.39 463.70 169.66 464.51 148.94 463.87 C 138.66 463.72 128.35 464.30 118.10 463.31 C 110.10 462.66 102.07 462.87 94.08 463.55 C 92.60 469.97 99.21 473.89 99.48 479.91 C 100.01 484.97 99.42 490.10 100.46 495.11 C 103.50 508.26 105.86 521.62 107.00 535.07 C 93.34 533.03 80.45 539.44 67.98 544.02 C 66.66 544.82 65.69 543.00 65.53 541.94 C 64.80 535.98 66.58 529.80 64.61 523.99 C 62.96 519.82 60.04 516.30 56.98 513.09 C 53.75 509.64 49.45 507.17 47.06 502.98 C 42.82 495.21 40.00 486.73 35.54 479.07 C 32.58 473.77 27.23 470.22 24.76 464.61 C 19.36 452.75 18.89 439.49 16.61 426.85 C 15.07 418.89 10.40 411.93 8.94 403.98 C 8.98 396.65 8.73 389.31 8.64 381.98 C 9.26 373.35 7.40 364.81 5.22 356.52 C 4.22 353.08 2.85 349.67 2.99 346.02 C 2.95 333.60 5.25 321.33 6.23 308.97 C 6.18 293.31 6.36 277.53 9.16 262.07 C 10.30 258.01 10.74 253.68 12.86 249.97 C 23.17 228.70 38.41 209.07 59.05 197.00 C 68.96 191.17 80.20 188.08 91.58 186.83 C 88.93 180.14 85.80 171.85 90.02 165.17 C 91.70 161.78 94.65 159.25 96.49 155.99 C 97.30 153.30 95.19 151.08 94.30 148.73 C 92.86 144.96 92.62 140.73 93.35 136.78 C 93.85 133.34 97.64 132.14 99.28 129.38 C 101.82 125.28 103.38 120.66 104.74 116.06 C 100.92 113.66 100.26 108.74 96.86 106.05 C 92.29 87.05 90.66 66.68 96.80 47.83 C 101.09 33.30 111.24 20.67 124.53 13.38 M 132.62 11.61 C 132.01 12.01 130.78 12.83 130.17 13.23 C 129.78 13.24 129.01 13.25 128.62 13.25 L 128.61 13.59 C 118.59 18.19 109.90 25.90 104.46 35.52 C 94.98 51.53 93.91 70.91 95.70 89.01 C 99.22 76.18 110.37 67.54 121.21 60.91 C 125.27 58.42 129.71 56.75 134.18 55.19 C 139.58 53.42 143.60 49.16 148.70 46.81 C 165.35 38.67 184.68 36.10 202.86 39.74 C 211.36 41.42 220.06 44.00 226.83 49.65 C 224.82 39.27 219.42 29.49 211.63 22.31 C 210.06 20.83 208.50 19.06 206.33 18.50 C 201.03 13.54 193.83 10.95 186.94 8.97 C 184.62 8.19 182.25 7.50 179.80 7.40 C 164.16 3.26 147.50 5.82 132.62 11.61 M 145.03 50.88 C 150.34 50.22 155.57 49.01 160.90 48.50 C 179.12 46.63 198.69 49.14 213.98 59.90 C 221.36 64.98 228.37 72.56 228.36 82.07 C 236.44 73.08 233.73 57.68 224.43 50.53 C 217.33 45.21 208.56 42.69 199.92 41.26 C 181.23 38.18 161.55 41.56 145.03 50.88 M 102.22 84.32 C 100.17 87.81 99.42 91.98 99.15 95.97 C 99.74 102.64 102.18 108.94 104.55 115.14 C 107.92 107.11 111.62 99.21 115.48 91.40 C 117.36 88.44 116.24 83.99 113.06 82.44 C 109.46 80.99 105.34 82.29 102.22 84.32 M 114.28 160.10 C 111.14 165.59 109.68 171.82 108.34 177.94 C 107.93 180.15 106.57 181.97 105.38 183.81 C 110.45 189.65 115.68 195.47 119.63 202.15 C 121.72 204.94 119.95 209.70 123.49 211.41 C 127.49 212.40 131.86 211.32 135.68 213.13 C 136.90 215.19 134.37 216.10 132.96 216.94 C 128.98 218.72 124.46 220.22 120.08 219.25 C 115.87 216.38 117.10 210.00 113.63 206.59 C 105.79 201.93 97.64 196.79 93.03 188.62 C 84.47 190.58 75.62 191.62 67.59 195.42 C 47.72 204.20 32.37 220.78 21.25 239.09 C 28.83 231.85 37.18 225.27 46.59 220.56 C 49.33 219.18 52.71 217.92 55.64 219.52 C 60.92 221.97 65.72 225.33 70.50 228.63 C 80.94 236.27 91.28 244.20 100.24 253.58 C 103.09 256.89 106.77 260.35 106.88 265.03 C 103.71 277.39 103.06 290.58 106.17 303.03 C 106.94 316.89 102.76 330.36 101.81 344.10 C 100.41 351.60 93.10 355.39 88.09 360.28 C 86.96 364.86 90.43 368.95 91.85 373.12 C 95.27 380.78 91.45 389.43 86.24 395.26 C 84.78 397.21 82.08 399.22 82.96 401.98 C 85.14 406.27 89.03 409.40 91.42 413.56 C 93.51 417.08 95.31 420.85 95.88 424.94 C 97.85 436.92 96.05 449.09 94.23 460.96 C 104.48 459.89 114.80 460.08 125.05 461.06 C 135.37 461.53 145.72 461.04 156.05 461.33 C 170.17 461.84 184.30 461.12 198.42 461.12 C 198.42 458.09 198.37 455.08 198.31 452.06 C 198.17 445.67 199.98 439.41 199.59 433.01 C 199.39 422.40 196.89 412.05 194.06 401.89 C 190.47 382.21 188.87 362.22 186.83 342.33 C 185.69 326.91 184.37 311.46 184.67 295.97 C 184.40 283.26 182.77 270.62 181.14 258.03 L 181.17 258.45 C 180.32 252.92 180.35 247.18 178.49 241.87 C 178.79 238.85 178.11 235.86 177.66 232.90 C 176.50 224.88 175.16 216.89 173.88 208.89 C 173.32 208.72 172.21 208.38 171.65 208.22 C 170.83 200.34 170.73 192.38 170.28 184.46 C 153.52 174.66 136.61 165.12 119.81 155.37 C 117.48 156.26 115.47 157.89 114.28 160.10 M 179.60 185.41 C 179.04 192.21 178.81 199.04 178.39 205.86 C 178.58 207.28 177.34 208.06 176.28 208.70 C 177.55 216.01 178.69 223.35 179.82 230.68 C 181.32 240.10 182.42 249.58 183.86 259.00 C 185.15 271.97 187.20 284.92 187.18 297.99 C 186.93 312.36 188.06 326.71 189.24 341.02 C 191.13 361.10 193.00 381.22 196.26 401.14 C 199.82 414.79 203.33 428.98 201.24 443.18 C 200.33 449.14 200.64 455.17 200.78 461.17 C 211.17 461.64 222.06 461.08 231.54 456.44 C 238.33 449.35 234.92 438.78 235.35 430.05 C 236.85 408.35 239.22 386.72 241.04 365.05 C 241.72 355.62 244.17 346.44 245.60 337.12 C 250.37 305.10 247.06 271.84 235.67 241.52 C 234.53 238.38 233.54 235.07 231.38 232.45 C 226.43 226.71 220.10 222.43 213.88 218.18 C 205.54 212.65 196.87 207.62 187.98 203.02 C 186.78 202.48 185.58 201.55 185.90 200.05 C 185.87 192.68 185.70 185.31 185.76 177.93 C 183.72 180.43 181.31 182.67 179.60 185.41 M 45.42 224.37 C 33.01 231.72 21.03 241.09 14.04 253.97 C 9.91 266.78 9.16 280.43 8.76 293.81 C 8.71 298.19 8.62 302.56 8.64 306.94 C 8.75 314.12 7.16 321.18 6.79 328.33 L 6.65 328.30 C 6.22 336.80 3.99 345.68 7.06 353.95 C 9.66 363.38 11.77 373.15 11.14 382.99 C 10.91 389.03 12.09 395.05 11.52 401.08 C 10.80 406.28 13.97 410.83 15.64 415.52 C 22.54 430.86 20.31 448.59 27.36 463.89 C 29.74 469.41 35.02 472.87 37.99 478.00 C 43.25 486.23 45.49 495.96 50.62 504.26 C 56.98 509.91 64.05 515.57 67.09 523.81 C 68.72 529.56 67.61 535.60 67.87 541.48 C 79.49 536.77 91.62 531.58 104.43 532.37 C 103.13 522.85 101.86 513.31 99.84 503.91 C 98.82 499.66 97.53 495.41 97.44 491.00 C 97.15 486.66 97.67 482.23 96.62 477.97 C 95.53 475.04 93.01 472.86 92.13 469.83 C 91.41 467.28 91.58 464.60 91.64 461.99 C 92.60 451.99 94.55 442.01 93.91 431.92 C 93.45 426.84 92.77 421.53 89.83 417.20 C 87.47 412.99 83.97 409.60 81.22 405.66 C 79.47 403.26 79.16 399.64 81.22 397.32 C 84.92 392.77 89.06 388.09 90.03 382.08 C 91.48 374.27 83.61 368.21 84.68 360.48 C 86.88 355.41 92.75 353.41 95.87 349.01 C 99.54 344.72 98.68 338.76 99.74 333.58 C 100.78 322.48 104.60 311.25 102.25 300.09 C 100.54 294.23 101.07 288.07 101.00 282.05 C 100.94 276.59 101.98 271.19 103.35 265.93 C 103.99 263.91 102.62 262.00 101.56 260.40 C 95.98 252.73 88.46 246.82 81.25 240.77 C 72.74 234.17 64.14 227.54 54.64 222.40 C 51.51 220.66 48.20 223.00 45.42 224.37 M 239.17 243.05 C 245.12 260.25 248.93 278.17 250.23 296.33 C 250.29 302.21 250.81 308.10 250.44 313.98 C 250.41 316.55 249.93 319.17 250.45 321.73 C 249.33 339.02 243.99 355.75 242.91 373.05 C 241.26 391.02 239.56 408.99 238.00 426.97 C 237.32 434.81 239.60 442.67 238.18 450.45 C 237.87 452.67 236.55 454.62 236.19 456.82 C 237.68 466.13 240.51 475.48 239.27 484.99 C 238.91 491.22 241.51 497.03 242.41 503.08 C 242.61 509.35 245.49 515.05 247.53 520.86 C 254.40 514.43 264.40 516.11 272.82 517.50 C 271.43 510.97 269.17 504.64 268.06 498.04 C 266.48 491.14 267.12 484.01 267.06 477.00 C 266.93 473.29 268.03 469.39 266.27 465.93 C 264.85 463.17 266.75 460.30 267.68 457.73 C 266.13 456.42 263.68 455.38 263.76 452.99 C 264.41 450.97 266.19 449.25 265.83 447.00 C 264.68 431.32 264.29 415.57 265.04 399.86 C 265.54 390.91 266.23 381.95 265.80 372.98 C 265.28 358.33 262.23 343.94 259.06 329.68 C 256.31 318.80 253.55 307.89 251.67 296.83 C 249.78 278.51 247.22 259.82 239.17 243.05 Z" />
</g>
<g id="#00ae42ff">
<path fill="#00ae42" opacity="1.00" d=" M 132.62 11.61 C 147.50 5.82 164.16 3.26 179.80 7.40 C 182.12 8.17 184.54 8.54 186.94 8.97 C 193.83 10.95 201.03 13.54 206.33 18.50 C 200.43 17.86 194.53 17.18 188.63 16.52 C 190.55 23.04 192.43 29.59 193.87 36.24 C 184.56 28.32 173.48 22.82 162.07 18.63 C 148.38 23.26 135.51 29.95 122.82 36.77 C 128.34 27.79 134.54 18.41 144.00 13.19 C 139.39 13.31 134.78 13.23 130.17 13.23 C 130.78 12.83 132.01 12.01 132.62 11.61 Z" />
<path fill="#00ae42" opacity="1.00" d=" M 183.86 259.00 C 184.15 251.79 182.84 244.59 183.66 237.41 C 191.07 252.67 197.99 268.18 203.95 284.06 C 215.74 285.51 227.54 286.81 239.33 288.24 C 230.43 297.51 221.42 306.71 212.08 315.54 C 218.75 337.69 223.28 360.42 227.65 383.12 C 223.62 378.18 220.37 372.65 216.13 367.87 C 208.25 357.90 198.87 349.27 189.24 341.02 C 188.06 326.71 186.93 312.36 187.18 297.99 C 187.20 284.92 185.15 271.97 183.86 259.00 Z" />
<path fill="#00ae42" opacity="1.00" d=" M 170.90 282.62 C 173.51 269.05 175.66 255.39 178.49 241.87 C 180.35 247.18 180.32 252.92 181.17 258.45 C 182.12 279.13 182.88 299.82 183.62 320.51 C 184.20 328.21 184.26 335.95 185.28 343.61 C 172.77 352.90 161.69 363.90 150.81 375.02 C 150.01 371.54 149.21 368.07 148.50 364.58 C 153.22 347.70 158.54 330.99 163.34 314.14 C 151.75 304.44 140.55 294.27 128.94 284.61 C 142.92 283.92 156.91 283.16 170.90 282.62 Z" />
<path fill="#00ae42" opacity="1.00" d=" M 8.76 293.81 C 18.66 297.28 29.11 298.69 39.50 299.75 C 60.36 301.68 81.36 301.35 102.25 300.09 C 104.60 311.25 100.78 322.48 99.74 333.58 C 80.14 336.55 60.15 336.81 40.47 334.56 C 37.55 331.15 33.31 329.46 29.30 327.73 C 24.18 325.61 18.96 323.64 13.50 322.61 C 13.85 324.12 13.44 326.05 14.64 327.25 C 16.86 328.77 19.40 329.82 21.36 331.71 C 16.46 330.75 11.65 329.46 6.79 328.33 C 7.16 321.18 8.75 314.12 8.64 306.94 C 8.62 302.56 8.71 298.19 8.76 293.81 Z" />
<path fill="#00ae42" opacity="1.00" d=" M 250.23 296.33 C 250.59 296.45 251.31 296.70 251.67 296.83 C 253.55 307.89 256.31 318.80 259.06 329.68 C 255.95 331.28 252.82 332.83 249.61 334.22 C 249.72 330.74 250.20 327.29 250.97 323.90 C 250.79 323.17 250.61 322.45 250.45 321.73 C 249.93 319.17 250.41 316.55 250.44 313.98 C 250.81 308.10 250.29 302.21 250.23 296.33 Z" />
<path fill="#00ae42" opacity="1.00" d=" M 142.93 383.15 C 143.79 379.81 144.79 376.50 145.75 373.19 C 146.24 375.12 148.05 375.64 149.76 376.10 C 147.47 378.44 145.22 380.81 142.93 383.15 Z" />
</g>
<g id="#f4f6f8ff">
<path fill="#f4f6f8" opacity="1.00" d=" M 179.80 7.40 C 182.25 7.50 184.62 8.19 186.94 8.97 C 184.54 8.54 182.12 8.17 179.80 7.40 Z" />
<path fill="#f4f6f8" opacity="1.00" d=" M 104.46 35.52 C 109.90 25.90 118.59 18.19 128.61 13.59 C 128.59 13.97 128.57 14.72 128.55 15.10 C 121.43 24.42 112.77 33.48 110.39 45.39 C 109.27 49.58 111.03 54.04 113.89 57.12 C 116.03 58.88 118.72 59.76 121.21 60.91 C 110.37 67.54 99.22 76.18 95.70 89.01 C 93.91 70.91 94.98 51.53 104.46 35.52 Z" />
<path fill="#f4f6f8" opacity="1.00" d=" M 182.37 453.34 C 185.36 451.75 182.62 456.68 182.37 453.34 Z" />
</g>
<g id="#fafcfeff">
<path fill="#fafcfe" opacity="1.00" d=" M 128.62 13.25 C 129.01 13.25 129.78 13.24 130.17 13.23 C 134.78 13.23 139.39 13.31 144.00 13.19 C 134.54 18.41 128.34 27.79 122.82 36.77 C 135.51 29.95 148.38 23.26 162.07 18.63 C 173.48 22.82 184.56 28.32 193.87 36.24 C 192.43 29.59 190.55 23.04 188.63 16.52 C 194.53 17.18 200.43 17.86 206.33 18.50 C 208.50 19.06 210.06 20.83 211.63 22.31 C 219.42 29.49 224.82 39.27 226.83 49.65 C 220.06 44.00 211.36 41.42 202.86 39.74 C 184.68 36.10 165.35 38.67 148.70 46.81 C 143.60 49.16 139.58 53.42 134.18 55.19 C 129.71 56.75 125.27 58.42 121.21 60.91 C 118.72 59.76 116.03 58.88 113.89 57.12 C 111.03 54.04 109.27 49.58 110.39 45.39 C 112.77 33.48 121.43 24.42 128.55 15.10 C 128.57 14.72 128.59 13.97 128.61 13.59 L 128.62 13.25 Z" />
<path fill="#fafcfe" opacity="1.00" d=" M 145.03 50.88 C 161.55 41.56 181.23 38.18 199.92 41.26 C 208.56 42.69 217.33 45.21 224.43 50.53 C 233.73 57.68 236.44 73.08 228.36 82.07 C 228.37 72.56 221.36 64.98 213.98 59.90 C 198.69 49.14 179.12 46.63 160.90 48.50 C 155.57 49.01 150.34 50.22 145.03 50.88 Z" />
<path fill="#fafcfe" opacity="1.00" d=" M 114.28 160.10 C 115.47 157.89 117.48 156.26 119.81 155.37 C 136.61 165.12 153.52 174.66 170.28 184.46 C 170.73 192.38 170.83 200.34 171.65 208.22 C 172.21 208.38 173.32 208.72 173.88 208.89 C 175.16 216.89 176.50 224.88 177.66 232.90 C 178.11 235.86 178.79 238.85 178.49 241.87 C 175.66 255.39 173.51 269.05 170.90 282.62 C 156.91 283.16 142.92 283.92 128.94 284.61 C 140.55 294.27 151.75 304.44 163.34 314.14 C 158.54 330.99 153.22 347.70 148.50 364.58 C 147.60 367.45 146.54 370.28 145.75 373.19 C 144.79 376.50 143.79 379.81 142.93 383.15 C 145.22 380.81 147.47 378.44 149.76 376.10 C 150.02 375.83 150.55 375.29 150.81 375.02 C 161.69 363.90 172.77 352.90 185.28 343.61 C 185.67 343.29 186.44 342.65 186.83 342.33 C 188.87 362.22 190.47 382.21 194.06 401.89 C 196.89 412.05 199.39 422.40 199.59 433.01 C 199.98 439.41 198.17 445.67 198.31 452.06 C 198.37 455.08 198.42 458.09 198.42 461.12 C 184.30 461.12 170.17 461.84 156.05 461.33 C 145.72 461.04 135.37 461.53 125.05 461.06 C 114.80 460.08 104.48 459.89 94.23 460.96 C 96.05 449.09 97.85 436.92 95.88 424.94 C 95.31 420.85 93.51 417.08 91.42 413.56 C 89.03 409.40 85.14 406.27 82.96 401.98 C 82.08 399.22 84.78 397.21 86.24 395.26 C 91.45 389.43 95.27 380.78 91.85 373.12 C 90.43 368.95 86.96 364.86 88.09 360.28 C 93.10 355.39 100.41 351.60 101.81 344.10 C 102.76 330.36 106.94 316.89 106.17 303.03 C 103.06 290.58 103.71 277.39 106.88 265.03 C 106.77 260.35 103.09 256.89 100.24 253.58 C 91.28 244.20 80.94 236.27 70.50 228.63 C 65.72 225.33 60.92 221.97 55.64 219.52 C 52.71 217.92 49.33 219.18 46.59 220.56 C 37.18 225.27 28.83 231.85 21.25 239.09 C 32.37 220.78 47.72 204.20 67.59 195.42 C 75.62 191.62 84.47 190.58 93.03 188.62 C 97.64 196.79 105.79 201.93 113.63 206.59 C 117.10 210.00 115.87 216.38 120.08 219.25 C 124.46 220.22 128.98 218.72 132.96 216.94 C 134.37 216.10 136.90 215.19 135.68 213.13 C 131.86 211.32 127.49 212.40 123.49 211.41 C 119.95 209.70 121.72 204.94 119.63 202.15 C 115.68 195.47 110.45 189.65 105.38 183.81 C 106.57 181.97 107.93 180.15 108.34 177.94 C 109.68 171.82 111.14 165.59 114.28 160.10 M 129.77 442.58 C 130.19 440.59 130.25 438.55 129.82 436.57 C 128.07 437.97 128.32 441.04 129.77 442.58 M 150.76 438.96 C 151.24 439.98 151.71 441.01 152.19 442.04 C 153.41 442.06 154.63 442.09 155.86 442.12 C 156.16 441.54 156.76 440.39 157.06 439.81 C 156.62 438.85 156.18 437.89 155.75 436.94 C 153.79 436.79 151.87 437.19 150.76 438.96 M 158.59 438.89 C 159.37 438.65 160.93 438.17 161.71 437.93 C 160.79 439.29 159.80 440.61 158.79 441.90 C 159.57 441.97 161.13 442.09 161.92 442.16 C 161.36 440.75 161.50 439.37 162.31 438.00 C 161.27 436.26 159.16 437.44 158.59 438.89 M 163.05 441.70 C 163.83 441.75 165.38 441.84 166.15 441.89 C 166.18 440.98 166.22 439.18 166.25 438.28 C 166.85 438.52 168.06 439.00 168.66 439.24 C 168.56 439.90 168.36 441.22 168.26 441.87 C 168.58 441.86 169.23 441.85 169.56 441.84 C 169.53 440.23 169.51 438.64 169.50 437.04 L 169.12 437.26 C 167.99 437.89 166.70 438.02 165.44 438.13 L 165.56 436.71 C 162.69 436.77 163.01 439.69 163.05 441.70 M 171.33 437.97 C 170.12 440.29 171.83 443.64 174.83 442.12 C 173.93 441.49 172.99 440.93 172.06 440.38 C 173.01 439.94 173.95 439.48 174.88 439.00 C 174.04 438.82 172.35 438.46 171.50 438.28 C 172.27 438.16 173.81 437.94 174.58 437.83 C 173.69 437.33 171.78 436.59 171.33 437.97 M 131.08 438.44 C 131.05 439.80 130.62 441.28 131.37 442.55 C 131.73 441.60 132.45 439.70 132.81 438.75 C 132.87 439.60 132.99 441.31 133.05 442.16 L 133.91 442.13 C 133.93 441.44 133.97 440.07 133.99 439.38 L 135.22 439.35 C 135.30 440.13 135.44 441.69 135.51 442.47 C 136.62 441.32 136.24 439.77 136.15 438.36 C 134.46 438.40 132.77 438.42 131.08 438.44 M 138.37 437.64 C 139.36 439.65 137.88 440.60 136.45 441.66 C 137.39 441.71 139.27 441.81 140.21 441.86 C 139.74 440.39 140.12 438.30 138.37 437.64 M 142.25 437.95 C 139.24 439.05 139.96 444.49 143.61 441.87 C 143.83 442.30 144.27 443.16 144.49 443.59 C 144.65 442.90 144.96 441.53 145.12 440.84 C 145.61 441.25 146.60 442.07 147.09 442.47 C 149.50 442.67 149.04 440.34 149.23 438.70 C 146.95 437.93 144.51 439.02 142.25 437.95 M 111.51 442.48 C 110.92 442.42 109.72 442.29 109.12 442.23 C 109.86 440.60 109.33 439.55 107.54 439.07 C 107.57 439.91 107.64 441.57 107.67 442.41 C 106.68 441.45 105.73 440.45 104.78 439.47 C 105.26 441.55 105.53 443.68 104.92 445.78 L 104.00 445.81 C 104.07 449.66 103.42 453.71 105.09 457.33 L 105.44 456.73 C 108.91 458.57 112.83 458.15 116.05 456.00 C 115.98 452.70 116.05 449.40 115.94 446.11 C 114.16 444.13 115.15 441.70 115.96 439.54 C 114.72 440.43 113.59 441.45 112.47 442.50 C 112.53 441.63 112.64 439.91 112.70 439.05 C 111.15 439.66 110.96 440.94 111.51 442.48 M 142.38 443.38 C 142.64 443.64 142.64 443.64 142.38 443.38 M 128.62 444.20 C 128.52 447.31 128.34 450.44 128.59 453.55 C 128.53 454.90 129.79 455.31 130.83 455.66 C 131.42 454.15 129.84 452.63 130.25 451.02 C 129.82 448.79 131.45 445.19 128.62 444.20 M 132.42 444.59 C 132.09 447.93 132.26 451.31 132.31 454.67 C 133.02 454.91 134.44 455.39 135.15 455.63 C 133.27 452.24 134.17 448.28 134.04 444.60 C 133.64 444.60 132.83 444.59 132.42 444.59 M 118.58 455.26 C 120.12 455.21 121.06 454.36 121.39 452.69 C 122.51 452.66 123.64 452.64 124.76 452.64 C 125.12 454.21 126.03 455.12 127.52 455.38 C 126.31 451.44 125.43 447.25 122.95 443.88 C 120.87 447.41 119.84 451.40 118.58 455.26 M 148.79 447.13 C 147.59 447.28 146.48 447.67 145.47 448.33 C 144.92 448.04 144.37 447.76 143.83 447.49 C 143.58 448.09 143.09 449.28 142.85 449.88 C 141.34 449.72 140.87 447.23 139.02 447.74 C 134.92 447.53 134.25 454.25 138.05 455.23 C 139.47 455.56 142.30 455.87 142.33 453.69 C 140.32 454.03 137.99 454.31 137.09 452.00 C 139.03 451.78 141.00 451.69 142.94 451.94 C 143.64 452.87 143.85 454.06 143.58 455.50 C 143.99 455.45 144.82 455.33 145.23 455.28 C 145.29 452.91 144.70 450.27 146.78 448.49 C 147.40 448.98 148.01 449.47 148.62 449.98 C 148.65 451.67 148.73 453.39 148.87 455.09 C 150.10 455.23 151.74 456.20 152.31 454.49 C 149.40 454.19 150.43 451.22 150.16 449.25 C 150.61 449.20 151.53 449.11 151.99 449.07 L 152.01 447.76 C 151.58 447.76 150.71 447.77 150.28 447.77 C 150.28 447.31 150.30 446.38 150.31 445.92 L 148.60 446.01 L 148.79 447.13 M 155.69 447.79 C 152.44 448.13 151.58 452.94 154.10 454.73 C 156.28 456.48 160.10 454.98 160.14 452.07 C 160.61 449.52 158.18 447.24 155.69 447.79 M 161.33 447.68 C 161.21 450.34 161.22 453.01 161.40 455.67 C 161.79 455.55 162.59 455.32 162.98 455.20 C 163.37 453.16 161.74 449.08 165.09 449.18 C 167.14 450.46 165.88 453.68 166.42 455.80 C 166.80 455.60 167.55 455.20 167.92 455.00 C 167.96 452.79 168.59 449.85 166.70 448.22 C 164.98 447.60 163.12 447.84 161.33 447.68 M 169.44 449.55 C 168.96 452.06 172.75 451.91 173.34 454.09 C 171.86 453.94 170.39 453.79 168.92 453.66 C 169.60 456.48 175.17 456.12 174.73 452.95 C 174.11 451.04 171.29 451.10 170.78 449.02 C 172.15 449.09 173.53 449.21 174.90 449.29 C 173.83 447.22 170.02 447.05 169.44 449.55 M 184.97 451.30 L 184.97 452.44 C 182.71 452.44 180.45 452.39 178.20 452.23 C 177.68 453.43 176.67 454.17 175.56 454.79 C 176.94 454.17 178.10 454.41 179.04 455.49 C 180.42 454.43 181.84 454.25 183.15 455.54 C 183.60 455.25 184.50 454.68 184.94 454.39 L 184.91 455.72 C 186.04 455.64 187.17 455.52 188.30 455.38 C 188.78 454.53 189.26 453.67 189.73 452.82 C 190.01 453.56 190.57 455.05 190.85 455.79 C 190.82 454.80 190.77 452.82 190.74 451.83 C 189.96 451.83 189.19 451.82 188.42 451.88 C 187.30 451.51 186.15 451.31 184.97 451.30 Z" />
<path fill="#fafcfe" opacity="1.00" d=" M 179.60 185.41 C 181.31 182.67 183.72 180.43 185.76 177.93 C 185.70 185.31 185.87 192.68 185.90 200.05 C 185.58 201.55 186.78 202.48 187.98 203.02 C 196.87 207.62 205.54 212.65 213.88 218.18 C 220.10 222.43 226.43 226.71 231.38 232.45 C 233.54 235.07 234.53 238.38 235.67 241.52 C 247.06 271.84 250.37 305.10 245.60 337.12 C 244.17 346.44 241.72 355.62 241.04 365.05 C 239.22 386.72 236.85 408.35 235.35 430.05 C 234.92 438.78 238.33 449.35 231.54 456.44 C 222.06 461.08 211.17 461.64 200.78 461.17 C 200.64 455.17 200.33 449.14 201.24 443.18 C 203.33 428.98 199.82 414.79 196.26 401.14 C 193.00 381.22 191.13 361.10 189.24 341.02 C 198.87 349.27 208.25 357.90 216.13 367.87 C 220.37 372.65 223.62 378.18 227.65 383.12 C 223.28 360.42 218.75 337.69 212.08 315.54 C 221.42 306.71 230.43 297.51 239.33 288.24 C 227.54 286.81 215.74 285.51 203.95 284.06 C 197.99 268.18 191.07 252.67 183.66 237.41 C 182.55 235.08 181.24 232.84 179.82 230.68 C 178.69 223.35 177.55 216.01 176.28 208.70 C 177.34 208.06 178.58 207.28 178.39 205.86 C 178.81 199.04 179.04 192.21 179.60 185.41 Z" />
<path fill="#fafcfe" opacity="1.00" d=" M 45.42 224.37 C 48.20 223.00 51.51 220.66 54.64 222.40 C 64.14 227.54 72.74 234.17 81.25 240.77 C 88.46 246.82 95.98 252.73 101.56 260.40 C 102.62 262.00 103.99 263.91 103.35 265.93 C 101.98 271.19 100.94 276.59 101.00 282.05 C 101.07 288.07 100.54 294.23 102.25 300.09 C 81.36 301.35 60.36 301.68 39.50 299.75 C 29.11 298.69 18.66 297.28 8.76 293.81 C 9.16 280.43 9.91 266.78 14.04 253.97 C 21.03 241.09 33.01 231.72 45.42 224.37 Z" />
<path fill="#fafcfe" opacity="1.00" d=" M 239.17 243.05 C 247.22 259.82 249.78 278.51 251.67 296.83 C 251.31 296.70 250.59 296.45 250.23 296.33 C 248.93 278.17 245.12 260.25 239.17 243.05 Z" />
<path fill="#fafcfe" opacity="1.00" d=" M 250.45 321.73 C 250.61 322.45 250.79 323.17 250.97 323.90 C 250.20 327.29 249.72 330.74 249.61 334.22 C 252.82 332.83 255.95 331.28 259.06 329.68 C 262.23 343.94 265.28 358.33 265.80 372.98 C 266.23 381.95 265.54 390.91 265.04 399.86 C 264.29 415.57 264.68 431.32 265.83 447.00 C 266.19 449.25 264.41 450.97 263.76 452.99 C 263.68 455.38 266.13 456.42 267.68 457.73 C 266.75 460.30 264.85 463.17 266.27 465.93 C 268.03 469.39 266.93 473.29 267.06 477.00 C 267.12 484.01 266.48 491.14 268.06 498.04 C 269.17 504.64 271.43 510.97 272.82 517.50 C 264.40 516.11 254.40 514.43 247.53 520.86 C 245.49 515.05 242.61 509.35 242.41 503.08 C 241.51 497.03 238.91 491.22 239.27 484.99 C 240.51 475.48 237.68 466.13 236.19 456.82 C 236.55 454.62 237.87 452.67 238.18 450.45 C 239.60 442.67 237.32 434.81 238.00 426.97 C 239.56 408.99 241.26 391.02 242.91 373.05 C 243.99 355.75 249.33 339.02 250.45 321.73 Z" />
<path fill="#fafcfe" opacity="1.00" d=" M 6.65 328.30 L 6.79 328.33 C 11.65 329.46 16.46 330.75 21.36 331.71 C 27.66 333.06 34.07 333.86 40.47 334.56 C 60.15 336.81 80.14 336.55 99.74 333.58 C 98.68 338.76 99.54 344.72 95.87 349.01 C 92.75 353.41 86.88 355.41 84.68 360.48 C 83.61 368.21 91.48 374.27 90.03 382.08 C 89.06 388.09 84.92 392.77 81.22 397.32 C 79.16 399.64 79.47 403.26 81.22 405.66 C 83.97 409.60 87.47 412.99 89.83 417.20 C 92.77 421.53 93.45 426.84 93.91 431.92 C 94.55 442.01 92.60 451.99 91.64 461.99 C 91.58 464.60 91.41 467.28 92.13 469.83 C 93.01 472.86 95.53 475.04 96.62 477.97 C 97.67 482.23 97.15 486.66 97.44 491.00 C 97.53 495.41 98.82 499.66 99.84 503.91 C 101.86 513.31 103.13 522.85 104.43 532.37 C 91.62 531.58 79.49 536.77 67.87 541.48 C 67.61 535.60 68.72 529.56 67.09 523.81 C 64.05 515.57 56.98 509.91 50.62 504.26 C 45.49 495.96 43.25 486.23 37.99 478.00 C 35.02 472.87 29.74 469.41 27.36 463.89 C 20.31 448.59 22.54 430.86 15.64 415.52 C 13.97 410.83 10.80 406.28 11.52 401.08 C 12.09 395.05 10.91 389.03 11.14 382.99 C 11.77 373.15 9.66 363.38 7.06 353.95 C 3.99 345.68 6.22 336.80 6.65 328.30 Z" />
<path fill="#fafcfe" opacity="1.00" d=" M 164.40 440.76 C 163.54 439.47 163.74 438.66 164.98 438.34 C 165.84 439.62 165.65 440.42 164.40 440.76 Z" />
<path fill="#fafcfe" opacity="1.00" d=" M 108.82 447.86 C 109.65 447.80 110.48 447.74 111.31 447.70 C 112.00 449.66 112.74 451.62 113.44 453.59 C 113.60 454.09 113.93 455.08 114.09 455.57 C 111.61 454.91 111.14 452.26 110.25 450.24 C 109.40 452.05 108.53 453.87 107.63 455.67 L 106.47 454.87 L 106.49 454.43 C 107.36 452.27 108.22 450.11 108.82 447.86 Z" />
<path fill="#fafcfe" opacity="1.00" d=" M 122.37 448.43 C 123.84 447.27 125.06 450.05 123.84 450.98 C 122.21 452.24 120.94 449.38 122.37 448.43 Z" />
<path fill="#fafcfe" opacity="1.00" d=" M 154.97 449.77 C 157.87 447.35 159.81 452.91 156.90 453.98 C 154.63 454.23 153.79 451.39 154.97 449.77 Z" />
<path fill="#fafcfe" opacity="1.00" d=" M 179.12 453.23 C 181.20 451.52 180.92 455.75 179.04 454.01 L 179.12 453.23 Z" />
</g>
<g id="#45bf74ff">
<path fill="#45bf74" opacity="1.00" d=" M 179.82 230.68 C 181.24 232.84 182.55 235.08 183.66 237.41 C 182.84 244.59 184.15 251.79 183.86 259.00 C 182.42 249.58 181.32 240.10 179.82 230.68 Z" />
<path fill="#45bf74" opacity="1.00" d=" M 181.17 258.45 L 181.14 258.03 C 182.77 270.62 184.40 283.26 184.67 295.97 C 184.37 311.46 185.69 326.91 186.83 342.33 C 186.44 342.65 185.67 343.29 185.28 343.61 C 184.26 335.95 184.20 328.21 183.62 320.51 C 182.88 299.82 182.12 279.13 181.17 258.45 Z" />
<path fill="#45bf74" opacity="1.00" d=" M 13.50 322.61 C 18.96 323.64 24.18 325.61 29.30 327.73 C 33.31 329.46 37.55 331.15 40.47 334.56 C 34.07 333.86 27.66 333.06 21.36 331.71 C 19.40 329.82 16.86 328.77 14.64 327.25 C 13.44 326.05 13.85 324.12 13.50 322.61 Z" />
<path fill="#45bf74" opacity="1.00" d=" M 145.75 373.19 C 146.54 370.28 147.60 367.45 148.50 364.58 C 149.21 368.07 150.01 371.54 150.81 375.02 C 150.55 375.29 150.02 375.83 149.76 376.10 C 148.05 375.64 146.24 375.12 145.75 373.19 Z" />
</g>
<g id="#231f20ff">
<path fill="#231f20" opacity="1.00" d=" M 129.77 442.58 C 128.32 441.04 128.07 437.97 129.82 436.57 C 130.25 438.55 130.19 440.59 129.77 442.58 Z" />
<path fill="#231f20" opacity="1.00" d=" M 158.59 438.89 C 159.16 437.44 161.27 436.26 162.31 438.00 C 161.50 439.37 161.36 440.75 161.92 442.16 C 161.13 442.09 159.57 441.97 158.79 441.90 C 159.80 440.61 160.79 439.29 161.71 437.93 C 160.93 438.17 159.37 438.65 158.59 438.89 Z" />
<path fill="#231f20" opacity="1.00" d=" M 163.05 441.70 C 163.01 439.69 162.69 436.77 165.56 436.71 L 165.44 438.13 C 166.70 438.02 167.99 437.89 169.12 437.26 L 169.50 437.04 C 169.51 438.64 169.53 440.23 169.56 441.84 C 169.23 441.85 168.58 441.86 168.26 441.87 C 168.36 441.22 168.56 439.90 168.66 439.24 C 168.06 439.00 166.85 438.52 166.25 438.28 C 166.22 439.18 166.18 440.98 166.15 441.89 C 165.38 441.84 163.83 441.75 163.05 441.70 M 164.40 440.76 C 165.65 440.42 165.84 439.62 164.98 438.34 C 163.74 438.66 163.54 439.47 164.40 440.76 Z" />
<path fill="#231f20" opacity="1.00" d=" M 171.33 437.97 C 171.78 436.59 173.69 437.33 174.58 437.83 C 173.81 437.94 172.27 438.16 171.50 438.28 C 172.35 438.46 174.04 438.82 174.88 439.00 C 173.95 439.48 173.01 439.94 172.06 440.38 C 172.99 440.93 173.93 441.49 174.83 442.12 C 171.83 443.64 170.12 440.29 171.33 437.97 Z" />
<path fill="#231f20" opacity="1.00" d=" M 131.08 438.44 C 132.77 438.42 134.46 438.40 136.15 438.36 C 136.24 439.77 136.62 441.32 135.51 442.47 C 135.44 441.69 135.30 440.13 135.22 439.35 L 133.99 439.38 C 133.97 440.07 133.93 441.44 133.91 442.13 L 133.05 442.16 C 132.99 441.31 132.87 439.60 132.81 438.75 C 132.45 439.70 131.73 441.60 131.37 442.55 C 130.62 441.28 131.05 439.80 131.08 438.44 Z" />
<path fill="#231f20" opacity="1.00" d=" M 138.37 437.64 C 140.12 438.30 139.74 440.39 140.21 441.86 C 139.27 441.81 137.39 441.71 136.45 441.66 C 137.88 440.60 139.36 439.65 138.37 437.64 Z" />
<path fill="#231f20" opacity="1.00" d=" M 111.51 442.48 C 110.96 440.94 111.15 439.66 112.70 439.05 C 112.64 439.91 112.53 441.63 112.47 442.50 C 112.98 442.90 114.00 443.72 114.51 444.12 C 111.80 444.22 109.06 444.39 106.40 443.75 C 106.82 443.29 107.24 442.84 107.67 442.41 C 107.64 441.57 107.57 439.91 107.54 439.07 C 109.33 439.55 109.86 440.60 109.12 442.23 C 109.72 442.29 110.92 442.42 111.51 442.48 Z" />
<path fill="#231f20" opacity="1.00" d=" M 128.62 444.20 C 131.45 445.19 129.82 448.79 130.25 451.02 C 129.84 452.63 131.42 454.15 130.83 455.66 C 129.79 455.31 128.53 454.90 128.59 453.55 C 128.34 450.44 128.52 447.31 128.62 444.20 Z" />
<path fill="#231f20" opacity="1.00" d=" M 132.42 444.59 C 132.83 444.59 133.64 444.60 134.04 444.60 C 134.17 448.28 133.27 452.24 135.15 455.63 C 134.44 455.39 133.02 454.91 132.31 454.67 C 132.26 451.31 132.09 447.93 132.42 444.59 Z" />
<path fill="#231f20" opacity="1.00" d=" M 118.58 455.26 C 119.84 451.40 120.87 447.41 122.95 443.88 C 125.43 447.25 126.31 451.44 127.52 455.38 C 126.03 455.12 125.12 454.21 124.76 452.64 C 123.64 452.64 122.51 452.66 121.39 452.69 C 121.06 454.36 120.12 455.21 118.58 455.26 M 122.37 448.43 C 120.94 449.38 122.21 452.24 123.84 450.98 C 125.06 450.05 123.84 447.27 122.37 448.43 Z" />
<path fill="#231f20" opacity="1.00" d=" M 105.90 445.77 C 107.32 445.56 108.54 445.94 109.55 446.92 C 110.78 445.84 112.26 445.26 113.92 445.66 C 114.24 448.31 113.92 450.98 113.44 453.59 C 112.74 451.62 112.00 449.66 111.31 447.70 C 110.48 447.74 109.65 447.80 108.82 447.86 C 108.22 450.11 107.36 452.27 106.49 454.43 C 106.10 451.55 105.98 448.66 105.90 445.77 Z" />
<path fill="#231f20" opacity="1.00" d=" M 148.79 447.13 L 148.60 446.01 L 150.31 445.92 C 150.30 446.38 150.28 447.31 150.28 447.77 C 150.71 447.77 151.58 447.76 152.01 447.76 L 151.99 449.07 C 151.53 449.11 150.61 449.20 150.16 449.25 C 150.43 451.22 149.40 454.19 152.31 454.49 C 151.74 456.20 150.10 455.23 148.87 455.09 C 148.73 453.39 148.65 451.67 148.62 449.98 C 148.01 449.47 147.40 448.98 146.78 448.49 C 144.70 450.27 145.29 452.91 145.23 455.28 C 144.82 455.33 143.99 455.45 143.58 455.50 C 143.85 454.06 143.64 452.87 142.94 451.94 C 141.00 451.69 139.03 451.78 137.09 452.00 C 137.99 454.31 140.32 454.03 142.33 453.69 C 142.30 455.87 139.47 455.56 138.05 455.23 C 134.25 454.25 134.92 447.53 139.02 447.74 C 140.87 447.23 141.34 449.72 142.85 449.88 C 143.09 449.28 143.58 448.09 143.83 447.49 C 144.37 447.76 144.92 448.04 145.47 448.33 C 146.48 447.67 147.59 447.28 148.79 447.13 M 138.32 449.06 C 136.45 449.53 137.73 451.85 139.26 451.11 C 141.35 450.82 139.89 448.11 138.32 449.06 Z" />
<path fill="#231f20" opacity="1.00" d=" M 155.69 447.79 C 158.18 447.24 160.61 449.52 160.14 452.07 C 160.10 454.98 156.28 456.48 154.10 454.73 C 151.58 452.94 152.44 448.13 155.69 447.79 M 154.97 449.77 C 153.79 451.39 154.63 454.23 156.90 453.98 C 159.81 452.91 157.87 447.35 154.97 449.77 Z" />
<path fill="#231f20" opacity="1.00" d=" M 161.33 447.68 C 163.12 447.84 164.98 447.60 166.70 448.22 C 168.59 449.85 167.96 452.79 167.92 455.00 C 167.55 455.20 166.80 455.60 166.42 455.80 C 165.88 453.68 167.14 450.46 165.09 449.18 C 161.74 449.08 163.37 453.16 162.98 455.20 C 162.59 455.32 161.79 455.55 161.40 455.67 C 161.22 453.01 161.21 450.34 161.33 447.68 Z" />
<path fill="#231f20" opacity="1.00" d=" M 169.44 449.55 C 170.02 447.05 173.83 447.22 174.90 449.29 C 173.53 449.21 172.15 449.09 170.78 449.02 C 171.29 451.10 174.11 451.04 174.73 452.95 C 175.17 456.12 169.60 456.48 168.92 453.66 C 170.39 453.79 171.86 453.94 173.34 454.09 C 172.75 451.91 168.96 452.06 169.44 449.55 Z" />
<path fill="#231f20" opacity="1.00" d=" M 107.63 455.67 C 108.53 453.87 109.40 452.05 110.25 450.24 C 111.14 452.26 111.61 454.91 114.09 455.57 C 111.95 455.87 109.77 456.13 107.63 455.67 Z" />
<path fill="#231f20" opacity="1.00" d=" M 188.42 451.88 C 189.19 451.82 189.96 451.83 190.74 451.83 C 190.77 452.82 190.82 454.80 190.85 455.79 C 190.57 455.05 190.01 453.56 189.73 452.82 C 189.26 453.67 188.78 454.53 188.30 455.38 C 188.38 454.80 188.52 453.62 188.60 453.03 C 187.80 452.87 186.19 452.54 185.39 452.38 C 186.15 452.25 187.66 452.00 188.42 451.88 Z" />
<path fill="#231f20" opacity="1.00" d=" M 178.20 452.23 C 180.45 452.39 182.71 452.44 184.97 452.44 C 184.96 452.93 184.95 453.90 184.94 454.39 C 184.50 454.68 183.60 455.25 183.15 455.54 C 181.84 454.25 180.42 454.43 179.04 455.49 C 178.10 454.41 176.94 454.17 175.56 454.79 C 176.67 454.17 177.68 453.43 178.20 452.23 M 179.12 453.23 L 179.04 454.01 C 180.92 455.75 181.20 451.52 179.12 453.23 M 182.37 453.34 C 182.62 456.68 185.36 451.75 182.37 453.34 Z" />
</g>
<g id="#9e9d9fff">
<path fill="#9e9d9f" opacity="1.00" d=" M 150.76 438.96 C 151.87 437.19 153.79 436.79 155.75 436.94 C 156.18 437.89 156.62 438.85 157.06 439.81 C 156.76 440.39 156.16 441.54 155.86 442.12 C 154.63 442.09 153.41 442.06 152.19 442.04 C 151.71 441.01 151.24 439.98 150.76 438.96 M 154.39 439.13 C 154.54 442.42 157.42 437.66 154.39 439.13 Z" />
</g>
<g id="#747274ff">
<path fill="#747274" opacity="1.00" d=" M 142.25 437.95 C 144.51 439.02 146.95 437.93 149.23 438.70 C 149.04 440.34 149.50 442.67 147.09 442.47 C 146.60 442.07 145.61 441.25 145.12 440.84 C 144.96 441.53 144.65 442.90 144.49 443.59 C 144.27 443.16 143.83 442.30 143.61 441.87 C 139.96 444.49 139.24 439.05 142.25 437.95 M 142.14 440.01 C 142.50 443.28 145.06 438.32 142.14 440.01 Z" />
</g>
<g id="#f2f4f6ff">
<path fill="#f2f4f6" opacity="1.00" d=" M 154.39 439.13 C 157.42 437.66 154.54 442.42 154.39 439.13 Z" />
</g>
<g id="#868486ff">
<path fill="#868486" opacity="1.00" d=" M 104.78 439.47 C 105.73 440.45 106.68 441.45 107.67 442.41 C 107.24 442.84 106.82 443.29 106.40 443.75 C 109.06 444.39 111.80 444.22 114.51 444.12 C 114.00 443.72 112.98 442.90 112.47 442.50 C 113.59 441.45 114.72 440.43 115.96 439.54 C 115.15 441.70 114.16 444.13 115.94 446.11 C 116.05 449.40 115.98 452.70 116.05 456.00 C 112.83 458.15 108.91 458.57 105.44 456.73 C 105.70 456.26 106.22 455.33 106.47 454.87 L 107.63 455.67 C 109.77 456.13 111.95 455.87 114.09 455.57 C 113.93 455.08 113.60 454.09 113.44 453.59 C 113.92 450.98 114.24 448.31 113.92 445.66 C 112.26 445.26 110.78 445.84 109.55 446.92 C 108.54 445.94 107.32 445.56 105.90 445.77 L 104.92 445.78 C 105.53 443.68 105.26 441.55 104.78 439.47 Z" />
</g>
<g id="#c6c7c8ff">
<path fill="#c6c7c8" opacity="1.00" d=" M 142.14 440.01 C 145.06 438.32 142.50 443.28 142.14 440.01 Z" />
</g>
<g id="#636162ff">
<path fill="#636162" opacity="1.00" d=" M 142.38 443.38 C 142.64 443.64 142.64 443.64 142.38 443.38 Z" />
</g>
<g id="#adadafff">
<path fill="#adadaf" opacity="1.00" d=" M 104.00 445.81 L 104.92 445.78 L 105.90 445.77 C 105.98 448.66 106.10 451.55 106.49 454.43 L 106.47 454.87 C 106.22 455.33 105.70 456.26 105.44 456.73 L 105.09 457.33 C 103.42 453.71 104.07 449.66 104.00 445.81 Z" />
</g>
<g id="#a1a0a2ff">
<path fill="#a1a0a2" opacity="1.00" d=" M 138.32 449.06 C 139.89 448.11 141.35 450.82 139.26 451.11 C 137.73 451.85 136.45 449.53 138.32 449.06 Z" />
</g>
<g id="#bcbdbfff">
<path fill="#bcbdbf" opacity="1.00" d=" M 184.97 451.30 C 186.15 451.31 187.30 451.51 188.42 451.88 C 187.66 452.00 186.15 452.25 185.39 452.38 C 186.19 452.54 187.80 452.87 188.60 453.03 C 188.52 453.62 188.38 454.80 188.30 455.38 C 187.17 455.52 186.04 455.64 184.91 455.72 L 184.94 454.39 C 184.95 453.90 184.96 452.93 184.97 452.44 L 184.97 451.30 Z" />
</g>
</svg>
