<?xml version="1.0" encoding="UTF-8" ?>
<!DOCTYPE svg PUBLIC "-//W3C//DTD SVG 1.1//EN" "http://www.w3.org/Graphics/SVG/1.1/DTD/svg11.dtd">
<svg width="279pt" height="547pt" viewBox="0 0 279 547" version="1.1" xmlns="http://www.w3.org/2000/svg">
<g id="#ffffffff">
<path fill="#ffffff" opacity="1.00" d=" M 0.00 0.00 L 279.00 0.00 L 279.00 547.00 L 0.00 547.00 L 0.00 0.00 M 124.46 13.46 C 111.16 20.68 101.08 33.37 96.79 47.85 C 90.67 66.68 92.27 87.04 96.87 106.03 C 100.19 108.81 100.99 113.61 104.73 116.10 C 103.37 120.66 101.84 125.25 99.32 129.31 C 97.67 132.14 93.79 133.37 93.32 136.90 C 92.52 141.57 92.94 146.64 95.31 150.82 C 96.31 152.63 97.42 154.96 96.01 156.88 C 94.05 159.66 91.62 162.11 90.03 165.15 C 85.82 171.81 88.87 180.14 91.62 186.79 C 87.38 187.34 83.18 188.15 78.99 188.97 C 63.03 192.86 48.85 202.25 37.57 214.00 C 26.57 225.40 17.77 238.86 11.35 253.32 C 6.13 271.38 6.31 290.39 6.22 309.02 C 5.27 322.36 2.37 335.65 3.19 349.08 C 5.77 359.21 9.18 369.41 8.69 380.02 C 8.36 385.67 9.08 391.30 8.90 396.95 C 8.94 400.48 8.49 404.12 9.71 407.52 C 12.10 414.35 15.51 420.86 16.84 428.03 C 18.88 440.34 19.55 453.17 24.79 464.68 C 27.29 470.27 32.63 473.82 35.56 479.11 C 39.92 486.62 42.73 494.88 46.80 502.54 C 48.14 504.97 50.11 506.99 52.22 508.78 C 57.12 512.84 61.72 517.58 64.40 523.43 C 66.70 529.37 64.77 535.80 65.53 541.94 C 65.71 542.97 66.59 544.76 67.91 544.05 C 80.41 539.48 93.32 533.02 107.01 535.08 C 105.85 521.65 103.51 508.30 100.47 495.17 C 98.84 488.54 101.09 481.24 98.01 474.95 C 95.67 471.59 93.37 467.86 94.05 463.56 C 103.97 462.68 113.95 462.76 123.85 463.77 C 134.56 464.23 145.29 463.70 156.00 464.05 C 170.98 464.39 185.98 463.72 200.95 464.03 C 212.15 464.09 224.33 464.12 234.09 457.85 C 235.86 466.79 237.80 475.88 237.02 485.03 C 236.65 492.31 240.04 499.02 240.31 506.22 C 240.81 510.33 242.43 514.20 243.76 518.10 C 244.81 520.46 245.28 523.44 247.82 524.72 C 250.49 521.91 253.93 519.65 257.87 519.26 C 262.94 518.38 267.92 520.09 272.96 520.34 C 274.85 520.75 276.04 518.75 275.36 517.14 C 273.34 508.78 270.37 500.58 269.60 491.96 C 269.34 484.63 269.56 477.30 269.85 469.97 C 270.08 467.87 268.88 466.03 268.41 464.07 C 268.81 461.99 269.82 460.10 270.32 458.06 C 270.23 455.66 268.00 454.55 266.37 453.25 C 267.31 451.29 268.92 449.40 268.60 447.09 C 267.29 431.06 267.03 414.95 267.75 398.88 C 268.56 386.97 269.18 374.97 267.80 363.08 C 266.98 353.56 264.93 344.23 263.11 334.87 C 259.91 320.33 255.52 305.99 253.90 291.15 C 252.38 274.52 249.08 257.83 242.26 242.51 C 240.07 238.25 237.91 233.30 233.37 231.09 C 226.54 223.80 218.11 218.33 209.76 212.97 C 202.83 208.70 195.83 204.55 188.63 200.76 C 188.50 192.54 188.53 184.32 188.36 176.10 C 188.55 174.95 187.49 172.60 186.23 174.21 C 183.17 177.49 180.14 180.86 177.47 184.47 C 176.62 191.61 176.79 198.85 176.02 206.01 C 175.50 206.03 174.48 206.07 173.96 206.09 C 173.28 198.76 173.29 191.37 172.64 184.03 C 172.69 182.68 171.22 182.22 170.32 181.59 C 155.06 172.88 139.82 164.13 124.59 155.36 C 122.41 154.20 119.93 152.00 117.43 153.71 C 111.63 157.03 109.66 163.95 107.87 169.94 C 106.47 173.97 106.77 178.69 103.84 182.07 C 99.35 175.29 100.62 166.73 100.08 159.04 C 100.31 151.61 98.07 144.34 98.64 136.92 C 103.83 139.08 107.28 144.04 112.68 145.80 C 109.97 134.12 113.19 122.09 117.23 111.12 C 119.05 105.75 123.40 101.58 124.60 95.97 C 126.27 88.58 125.68 80.96 125.19 73.48 C 141.62 67.18 159.44 64.16 177.03 65.22 C 187.71 66.01 198.82 68.96 206.87 76.37 C 208.56 79.60 208.79 83.35 208.67 86.93 C 207.99 105.08 207.30 123.24 206.15 141.37 C 205.93 142.63 206.14 144.16 205.18 145.17 C 201.86 148.82 197.73 151.69 194.61 155.54 C 192.86 157.29 194.79 159.61 195.75 161.26 C 197.02 163.21 199.44 165.65 201.88 164.01 C 206.28 161.60 210.45 158.32 212.98 153.91 C 214.87 150.64 211.88 147.24 211.77 143.87 C 210.21 130.39 211.82 116.79 213.22 103.36 C 216.45 100.91 219.32 98.04 222.21 95.21 C 225.16 92.38 226.91 88.61 229.63 85.58 C 231.68 82.89 234.32 80.39 235.09 76.98 C 237.32 68.86 235.91 59.86 230.86 53.06 C 228.42 43.06 224.62 33.05 217.64 25.27 C 207.92 13.85 193.54 7.27 178.92 4.94 C 160.51 1.36 140.89 4.40 124.46 13.46 Z" />
<path fill="#ffffff" opacity="1.00" d=" M 102.13 84.14 C 105.23 82.69 108.66 81.17 112.15 82.09 C 115.66 83.04 117.46 87.61 115.76 90.75 C 112.04 98.88 107.63 106.72 104.84 115.23 C 101.97 109.17 99.86 102.67 99.15 95.98 C 99.29 91.88 100.48 87.87 102.13 84.14 Z" />
<path fill="#ffffff" opacity="1.00" d=" M 129.39 407.28 C 129.17 406.92 128.96 406.57 128.75 406.22 C 134.45 411.00 140.88 414.80 146.80 419.29 C 149.49 421.34 152.77 422.56 155.16 425.01 C 157.17 426.28 159.20 427.52 161.15 428.88 C 158.01 427.02 154.45 425.66 151.90 422.97 C 150.67 422.21 149.43 421.46 148.22 420.68 C 142.00 416.13 135.68 411.72 129.39 407.28 Z" />
<path fill="#ffffff" opacity="1.00" d=" M 128.96 443.00 C 128.88 440.74 128.89 438.47 129.09 436.22 C 130.04 438.42 129.81 440.81 128.96 443.00 Z" />
<path fill="#ffffff" opacity="1.00" d=" M 158.42 438.81 C 159.31 437.79 160.55 437.32 161.77 436.86 C 161.84 438.54 161.05 440.40 162.06 441.95 C 161.25 441.92 159.62 441.87 158.81 441.84 C 159.86 440.61 160.82 439.32 161.64 437.94 C 160.83 438.16 159.23 438.59 158.42 438.81 Z" />
<path fill="#ffffff" opacity="1.00" d=" M 164.05 442.90 C 163.34 441.09 163.08 439.17 163.63 437.28 C 165.60 437.78 167.64 437.96 169.65 437.55 C 169.56 438.98 169.48 440.42 169.42 441.86 C 169.25 441.87 168.90 441.89 168.73 441.90 C 168.76 440.24 167.96 438.98 166.72 437.98 C 166.53 439.98 165.70 441.74 164.05 442.90 M 164.40 438.41 C 163.57 439.69 163.78 440.49 165.02 440.82 C 165.88 439.54 165.67 438.74 164.40 438.41 Z" />
<path fill="#ffffff" opacity="1.00" d=" M 171.38 437.23 C 172.38 437.31 173.39 437.41 174.39 437.54 C 173.74 437.68 172.44 437.97 171.78 438.11 C 172.92 438.99 174.01 439.93 175.06 440.92 C 174.29 440.57 172.74 439.87 171.97 439.52 L 171.95 441.45 C 172.64 441.34 174.00 441.13 174.68 441.03 C 174.21 441.40 173.27 442.14 172.80 442.52 C 172.41 442.30 171.64 441.87 171.26 441.65 C 171.26 440.17 171.30 438.70 171.38 437.23 Z" />
<path fill="#ffffff" opacity="1.00" d=" M 131.11 438.48 C 132.71 438.47 134.31 438.46 135.92 438.44 C 136.03 439.70 136.13 440.96 136.22 442.24 C 135.51 441.10 134.86 439.94 134.26 438.76 C 134.19 439.60 134.05 441.28 133.98 442.12 L 133.24 442.14 C 133.16 441.28 133.01 439.56 132.94 438.70 C 132.17 439.94 131.47 441.22 130.84 442.54 C 130.93 441.18 131.02 439.83 131.11 438.48 Z" />
<path fill="#ffffff" opacity="1.00" d=" M 138.33 437.59 C 140.00 438.38 139.63 440.31 139.90 441.82 C 138.98 442.05 138.05 442.28 137.13 442.52 C 137.12 441.42 137.11 440.33 137.11 439.24 L 139.02 440.75 C 138.85 439.96 138.50 438.38 138.33 437.59 Z" />
<path fill="#ffffff" opacity="1.00" d=" M 105.93 443.71 C 105.63 442.34 105.32 440.99 105.04 439.64 C 105.60 440.62 106.72 442.59 107.29 443.57 C 107.38 442.52 107.55 440.40 107.64 439.34 L 108.79 439.79 C 108.80 440.47 108.81 441.82 108.82 442.50 C 109.43 442.47 110.65 442.41 111.26 442.37 C 111.49 441.44 111.95 439.58 112.18 438.65 C 112.28 439.64 112.46 441.64 112.55 442.64 C 112.99 442.95 113.86 443.58 114.30 443.89 C 111.51 443.83 108.72 443.78 105.93 443.71 Z" />
<path fill="#ffffff" opacity="1.00" d=" M 128.90 443.72 C 129.22 444.27 129.84 445.37 130.15 445.92 C 130.14 449.18 130.17 452.47 130.95 455.66 C 130.40 455.43 129.29 454.98 128.74 454.76 C 128.50 451.08 128.46 447.38 128.90 443.72 Z" />
<path fill="#ffffff" opacity="1.00" d=" M 132.53 444.39 C 132.79 444.42 133.30 444.50 133.55 444.54 C 134.43 448.18 133.05 452.22 135.10 455.61 C 134.42 455.35 133.05 454.83 132.37 454.57 C 132.36 451.17 132.17 447.77 132.53 444.39 Z" />
<path fill="#ffffff" opacity="1.00" d=" M 118.92 455.57 C 119.58 451.46 121.06 447.51 123.00 443.84 C 124.96 447.09 126.12 450.73 127.28 454.32 C 126.96 454.65 126.31 455.30 125.99 455.63 C 125.76 454.86 125.31 453.31 125.08 452.53 C 123.80 452.55 122.52 452.59 121.25 452.64 C 120.87 453.94 120.10 454.92 118.92 455.57 M 122.32 448.48 C 120.87 449.43 122.25 452.20 123.82 450.99 C 125.14 450.05 123.82 447.32 122.32 448.48 Z" />
<path fill="#ffffff" opacity="1.00" d=" M 161.28 447.88 C 162.67 447.81 164.06 447.73 165.45 447.67 C 168.96 449.23 168.06 453.62 167.01 456.52 C 166.55 454.28 166.34 451.99 166.00 449.73 L 164.79 448.80 C 162.03 450.31 163.11 454.00 162.02 456.54 C 161.25 453.72 161.29 450.77 161.28 447.88 Z" />
<path fill="#ffffff" opacity="1.00" d=" M 169.25 450.77 C 169.51 447.61 172.73 447.26 175.11 448.45 C 173.96 448.63 171.67 448.99 170.53 449.17 C 172.16 450.83 175.09 452.02 174.57 454.88 C 175.96 454.12 177.34 453.35 178.65 452.45 C 179.84 452.44 181.03 452.42 182.23 452.42 C 183.30 452.40 184.37 452.40 185.44 452.42 C 185.65 452.56 186.05 452.83 186.26 452.97 C 186.44 453.26 186.80 453.83 186.99 454.12 C 185.46 454.55 183.94 455.01 182.42 455.48 L 182.37 454.23 C 181.31 454.53 180.26 454.84 179.21 455.17 C 177.89 454.03 176.55 454.56 175.30 455.49 C 174.83 455.31 174.35 455.14 173.88 454.98 C 171.94 455.48 169.71 455.67 168.66 453.62 C 170.39 453.80 172.13 453.97 173.87 454.12 C 172.44 452.85 170.88 451.74 169.25 450.77 M 178.97 453.28 C 179.21 456.54 182.07 451.60 178.97 453.28 M 182.42 453.27 C 182.42 456.63 185.53 451.97 182.42 453.27 Z" />
<path fill="#ffffff" opacity="1.00" d=" M 153.54 448.50 C 155.84 447.44 159.90 447.59 159.91 450.92 C 160.89 454.11 156.88 456.79 154.31 454.75 C 152.01 453.40 152.80 450.53 153.54 448.50 M 154.61 449.47 C 154.58 450.74 154.55 452.01 154.54 453.29 C 155.21 453.57 156.54 454.12 157.20 454.39 C 157.77 453.03 159.22 451.35 157.90 449.96 C 157.19 448.81 155.67 449.57 154.61 449.47 Z" />
<path fill="#ffffff" opacity="1.00" d=" M 106.96 455.83 C 108.36 454.34 109.34 452.54 110.36 450.79 C 111.15 452.60 111.77 454.72 113.72 455.66 L 113.72 455.74 C 111.19 455.75 108.66 455.88 106.16 456.26 L 105.80 456.30 C 106.09 456.18 106.67 455.95 106.96 455.83 Z" />
</g>
<g id="#000000ff">
<path fill="#000000" opacity="1.00" d=" M 124.46 13.46 C 140.89 4.40 160.51 1.36 178.92 4.94 C 193.54 7.27 207.92 13.85 217.64 25.27 C 224.62 33.05 228.42 43.06 230.86 53.06 C 235.91 59.86 237.32 68.86 235.09 76.98 C 234.32 80.39 231.68 82.89 229.63 85.58 C 226.91 88.61 225.16 92.38 222.21 95.21 C 219.32 98.04 216.45 100.91 213.22 103.36 C 211.82 116.79 210.21 130.39 211.77 143.87 C 211.88 147.24 214.87 150.64 212.98 153.91 C 210.45 158.32 206.28 161.60 201.88 164.01 C 199.44 165.65 197.02 163.21 195.75 161.26 C 194.79 159.61 192.86 157.29 194.61 155.54 C 197.73 151.69 201.86 148.82 205.18 145.17 C 206.14 144.16 205.93 142.63 206.15 141.37 C 207.30 123.24 207.99 105.08 208.67 86.93 C 208.79 83.35 208.56 79.60 206.87 76.37 C 198.82 68.96 187.71 66.01 177.03 65.22 C 159.44 64.16 141.62 67.18 125.19 73.48 C 125.68 80.96 126.27 88.58 124.60 95.97 C 123.40 101.58 119.05 105.75 117.23 111.12 C 113.19 122.09 109.97 134.12 112.68 145.80 C 107.28 144.04 103.83 139.08 98.64 136.92 C 98.07 144.34 100.31 151.61 100.08 159.04 C 100.62 166.73 99.35 175.29 103.84 182.07 C 106.77 178.69 106.47 173.97 107.87 169.94 C 109.66 163.95 111.63 157.03 117.43 153.71 C 119.93 152.00 122.41 154.20 124.59 155.36 C 139.82 164.13 155.06 172.88 170.32 181.59 C 171.22 182.22 172.69 182.68 172.64 184.03 C 173.29 191.37 173.28 198.76 173.96 206.09 C 174.48 206.07 175.50 206.03 176.02 206.01 C 176.79 198.85 176.62 191.61 177.47 184.47 C 180.14 180.86 183.17 177.49 186.23 174.21 C 187.49 172.60 188.55 174.95 188.36 176.10 C 188.53 184.32 188.50 192.54 188.63 200.76 C 195.83 204.55 202.83 208.70 209.76 212.97 C 218.11 218.33 226.54 223.80 233.37 231.09 C 237.91 233.30 240.07 238.25 242.26 242.51 C 249.08 257.83 252.38 274.52 253.90 291.15 C 255.52 305.99 259.91 320.33 263.11 334.87 C 264.93 344.23 266.98 353.56 267.80 363.08 C 269.18 374.97 268.56 386.97 267.75 398.88 C 267.03 414.95 267.29 431.06 268.60 447.09 C 268.92 449.40 267.31 451.29 266.37 453.25 C 268.00 454.55 270.23 455.66 270.32 458.06 C 269.82 460.10 268.81 461.99 268.41 464.07 C 268.88 466.03 270.08 467.87 269.85 469.97 C 269.56 477.30 269.34 484.63 269.60 491.96 C 270.37 500.58 273.34 508.78 275.36 517.14 C 276.04 518.75 274.85 520.75 272.96 520.34 C 267.92 520.09 262.94 518.38 257.87 519.26 C 253.93 519.65 250.49 521.91 247.82 524.72 C 245.28 523.44 244.81 520.46 243.76 518.10 C 242.43 514.20 240.81 510.33 240.31 506.22 C 240.04 499.02 236.65 492.31 237.02 485.03 C 237.80 475.88 235.86 466.79 234.09 457.85 C 224.33 464.12 212.15 464.09 200.95 464.03 C 185.98 463.72 170.98 464.39 156.00 464.05 C 145.29 463.70 134.56 464.23 123.85 463.77 C 113.95 462.76 103.97 462.68 94.05 463.56 C 93.37 467.86 95.67 471.59 98.01 474.95 C 101.09 481.24 98.84 488.54 100.47 495.17 C 103.51 508.30 105.85 521.65 107.01 535.08 C 93.32 533.02 80.41 539.48 67.91 544.05 C 66.59 544.76 65.71 542.97 65.53 541.94 C 64.77 535.80 66.70 529.37 64.40 523.43 C 61.72 517.58 57.12 512.84 52.22 508.78 C 50.11 506.99 48.14 504.97 46.80 502.54 C 42.73 494.88 39.92 486.62 35.56 479.11 C 32.63 473.82 27.29 470.27 24.79 464.68 C 19.55 453.17 18.88 440.34 16.84 428.03 C 15.51 420.86 12.10 414.35 9.71 407.52 C 8.49 404.12 8.94 400.48 8.90 396.95 C 9.08 391.30 8.36 385.67 8.69 380.02 C 9.18 369.41 5.77 359.21 3.19 349.08 C 2.37 335.65 5.27 322.36 6.22 309.02 C 6.31 290.39 6.13 271.38 11.35 253.32 C 17.77 238.86 26.57 225.40 37.57 214.00 C 48.85 202.25 63.03 192.86 78.99 188.97 C 83.18 188.15 87.38 187.34 91.62 186.79 C 88.87 180.14 85.82 171.81 90.03 165.15 C 91.62 162.11 94.05 159.66 96.01 156.88 C 97.42 154.96 96.31 152.63 95.31 150.82 C 92.94 146.64 92.52 141.57 93.32 136.90 C 93.79 133.37 97.67 132.14 99.32 129.31 C 101.84 125.25 103.37 120.66 104.73 116.10 C 100.99 113.61 100.19 108.81 96.87 106.03 C 92.27 87.04 90.67 66.68 96.79 47.85 C 101.08 33.37 111.16 20.68 124.46 13.46 M 138.90 9.52 C 136.03 10.16 133.33 11.33 130.62 12.44 L 130.33 12.87 C 120.08 17.06 111.12 24.61 105.37 34.09 C 98.53 44.81 95.47 57.64 95.19 70.26 C 94.47 76.46 95.52 82.67 95.62 88.88 C 96.78 84.90 99.06 81.42 100.78 77.70 C 103.76 75.03 106.31 71.92 109.36 69.32 C 112.42 66.63 115.93 64.52 119.04 61.89 C 119.63 61.66 120.81 61.18 121.40 60.95 C 127.22 56.81 134.61 55.97 140.48 51.94 C 146.04 47.63 152.53 44.81 159.12 42.45 C 166.42 40.22 173.93 38.76 181.55 38.15 C 188.00 37.97 194.45 38.38 200.85 39.27 C 207.68 40.69 214.58 42.28 220.78 45.61 C 222.62 46.82 224.59 47.82 226.61 48.71 C 223.97 37.36 217.88 25.91 207.79 19.60 C 198.93 11.55 186.88 8.44 175.41 6.26 C 163.18 4.38 150.59 5.47 138.90 9.52 M 158.89 44.69 C 154.90 46.20 150.70 47.47 147.38 50.26 C 154.62 49.64 161.73 47.81 169.04 48.01 C 185.47 47.42 202.57 51.14 215.83 61.25 C 222.50 66.10 228.15 73.31 228.45 81.88 C 234.26 75.62 234.22 65.71 230.69 58.33 C 227.18 50.85 219.47 46.72 211.98 44.19 C 194.86 38.63 175.90 38.81 158.89 44.69 M 102.13 84.14 C 100.48 87.87 99.29 91.88 99.15 95.98 C 99.86 102.67 101.97 109.17 104.84 115.23 C 107.63 106.72 112.04 98.88 115.76 90.75 C 117.46 87.61 115.66 83.04 112.15 82.09 C 108.66 81.17 105.23 82.69 102.13 84.14 M 115.40 158.41 C 110.06 165.20 109.14 174.07 106.81 182.11 L 106.12 182.08 L 105.52 183.11 C 107.73 187.01 110.86 190.47 114.09 193.57 C 116.24 197.73 120.14 201.07 120.84 205.89 C 121.36 207.67 121.26 209.96 122.94 211.15 C 127.07 212.53 131.74 211.27 135.74 213.20 C 135.77 213.62 135.84 214.44 135.87 214.86 C 133.77 217.08 130.65 217.80 127.95 219.04 C 125.12 219.16 121.88 220.33 119.29 218.73 C 116.28 215.47 116.70 210.38 114.01 206.94 C 111.18 204.74 107.86 203.26 104.99 201.11 C 102.07 199.17 99.69 196.57 96.88 194.51 C 95.63 192.29 94.21 190.18 92.73 188.12 C 91.09 188.66 89.45 189.21 87.81 189.77 C 81.19 190.84 74.61 192.34 68.48 195.12 C 61.71 196.93 55.84 201.44 50.20 205.54 C 46.12 209.03 42.01 212.52 38.41 216.53 L 38.02 216.35 C 33.87 220.91 29.13 225.40 26.81 231.22 C 24.49 233.00 23.36 235.83 21.79 238.21 C 28.58 231.71 36.49 226.49 44.38 221.43 C 45.62 221.39 46.68 220.78 47.61 220.00 C 47.82 220.06 48.24 220.18 48.45 220.24 L 49.23 219.27 C 52.40 218.38 55.57 219.22 58.53 220.41 L 58.58 220.89 C 73.45 230.02 87.47 240.71 99.76 253.12 C 100.81 254.25 101.89 255.37 103.00 256.45 C 104.72 259.49 107.75 262.57 106.59 266.38 C 104.78 272.76 104.30 279.40 104.05 285.99 C 103.53 294.68 107.12 302.96 106.26 311.67 C 104.92 322.81 102.73 333.83 101.61 345.00 C 100.14 350.12 95.95 353.90 91.77 356.94 C 88.84 358.66 89.27 362.10 89.38 365.03 C 89.49 369.97 93.22 374.01 93.16 378.99 C 93.46 382.29 91.73 385.27 91.35 388.48 C 88.85 391.90 86.22 395.22 83.61 398.56 C 81.07 402.08 85.36 405.34 87.34 407.90 C 87.74 409.38 89.33 410.14 90.31 411.22 C 92.13 415.43 95.01 419.26 95.70 423.91 C 97.89 436.10 96.26 448.59 94.17 460.68 C 99.16 460.82 104.13 460.11 109.12 460.17 C 115.74 460.22 122.33 460.85 128.93 461.28 C 135.01 461.21 141.09 461.29 147.17 461.22 C 153.12 461.24 159.06 461.41 165.00 461.48 C 170.75 461.56 176.50 461.44 182.25 461.30 C 186.94 461.31 191.62 461.21 196.30 461.03 C 197.86 461.89 199.36 459.19 198.02 458.17 C 198.75 452.48 198.10 446.61 199.26 440.91 C 199.31 440.22 199.42 438.84 199.48 438.15 C 199.85 429.10 198.68 420.06 196.52 411.28 C 191.27 393.58 190.62 374.98 188.48 356.75 L 188.19 357.62 C 186.70 339.11 184.67 320.60 184.65 302.01 C 184.93 288.50 183.33 275.05 181.58 261.68 C 179.54 244.14 176.85 226.63 173.84 209.22 C 173.03 208.73 172.22 208.24 171.41 207.76 C 171.15 201.15 170.69 194.56 170.52 187.95 C 170.42 186.28 170.46 184.12 168.58 183.41 C 152.34 174.09 136.07 164.83 119.90 155.39 C 118.27 156.17 116.47 156.85 115.40 158.41 M 179.34 187.97 C 179.02 193.68 178.69 199.39 178.52 205.11 C 178.67 206.82 177.29 207.98 176.42 209.28 C 177.45 215.60 178.29 221.96 179.76 228.20 C 180.77 237.67 182.23 247.09 183.43 256.53 C 183.40 260.06 184.27 263.50 184.69 266.98 C 186.46 279.57 187.44 292.27 187.17 304.98 C 187.80 334.12 191.27 363.11 194.52 392.04 L 194.74 391.46 C 194.72 393.89 195.45 396.24 196.26 398.51 C 196.18 403.94 198.43 409.12 199.84 414.30 C 200.48 421.21 202.13 428.05 201.88 435.04 C 201.39 441.23 200.45 447.44 200.81 453.67 C 200.76 455.07 200.72 456.47 200.71 457.88 C 200.81 459.13 200.91 460.38 201.02 461.64 L 201.50 460.91 C 208.20 461.72 214.94 460.77 221.56 459.68 C 221.99 459.65 222.84 459.58 223.26 459.55 C 223.68 459.33 224.51 458.91 224.92 458.70 C 225.89 458.67 226.85 458.56 227.80 458.36 C 229.77 457.23 232.22 456.48 233.32 454.32 C 236.22 449.42 236.01 443.49 235.60 438.02 C 234.75 428.89 236.26 419.78 236.80 410.69 C 238.13 395.08 239.84 379.49 241.12 363.88 C 241.47 359.17 242.16 354.49 243.39 349.93 C 248.56 325.11 249.34 299.24 244.66 274.27 C 242.76 265.00 241.06 255.52 237.18 246.83 C 235.42 241.05 233.29 235.08 229.17 230.52 C 224.44 224.80 217.83 220.85 211.61 216.90 C 207.37 213.68 202.71 210.97 197.87 208.75 L 197.74 208.28 C 194.92 206.69 192.09 205.09 189.12 203.82 C 188.53 203.45 187.37 202.72 186.79 202.36 L 186.79 201.74 L 186.07 202.33 C 185.73 194.24 185.77 186.13 185.72 178.03 C 183.31 181.09 179.09 183.60 179.34 187.97 M 41.70 226.62 C 36.55 229.76 31.89 233.59 27.22 237.39 L 27.23 237.76 C 24.61 240.05 21.70 242.31 20.09 245.47 C 17.05 248.42 14.58 252.04 13.29 256.09 C 8.99 272.01 8.69 288.64 8.65 305.03 C 8.87 314.06 6.96 322.94 6.34 331.92 C 5.89 338.58 4.56 345.45 6.48 352.01 C 8.84 359.82 10.62 367.88 11.16 376.05 C 11.16 381.73 10.96 387.42 11.52 393.09 C 12.14 398.17 10.46 403.51 12.66 408.34 C 15.27 414.74 18.27 421.07 19.54 427.92 C 21.70 439.17 22.21 450.86 26.38 461.65 C 29.17 469.48 36.66 474.15 40.20 481.57 C 41.05 483.23 41.69 485.07 42.94 486.50 C 44.18 491.58 46.50 496.32 48.76 501.02 C 50.97 505.72 55.70 508.27 59.08 511.98 C 62.70 515.82 66.24 520.12 67.51 525.36 C 68.42 530.63 67.69 536.01 67.92 541.33 C 69.97 540.55 72.01 539.75 74.04 538.93 C 77.18 537.71 80.36 536.62 83.55 535.56 C 87.51 534.33 91.55 533.35 95.63 532.63 C 98.51 532.39 101.39 532.27 104.27 532.21 C 102.84 519.17 100.69 506.14 97.30 493.48 C 97.42 488.97 97.50 484.44 97.00 479.96 C 96.72 476.06 93.29 473.49 92.17 469.90 C 91.58 467.47 91.75 464.95 91.32 462.51 C 93.14 449.84 95.53 436.77 92.75 424.06 C 92.25 421.30 90.88 418.83 89.27 416.59 C 86.92 411.90 82.62 408.56 80.29 403.89 C 78.02 398.27 84.17 394.83 86.41 390.48 C 87.35 390.02 87.60 388.88 87.76 387.95 C 88.62 386.36 89.57 384.77 89.86 382.97 C 91.31 377.07 87.61 371.74 85.24 366.64 C 85.10 364.87 84.62 363.16 84.19 361.45 C 84.26 361.16 84.40 360.58 84.47 360.29 C 85.23 359.19 86.01 358.11 86.70 356.98 C 90.01 354.62 93.31 352.14 95.88 348.97 C 98.67 345.63 98.37 341.04 98.94 336.99 C 99.86 326.93 102.31 317.07 102.67 306.96 C 102.81 301.92 101.04 297.09 101.04 292.07 C 100.94 284.69 100.68 277.23 102.33 269.99 C 102.69 267.47 103.92 264.76 102.62 262.32 C 100.16 257.64 96.17 254.01 92.42 250.37 C 87.36 245.95 82.49 241.20 76.73 237.68 L 76.74 237.23 C 72.20 233.95 67.84 230.39 62.99 227.57 C 59.96 225.25 56.66 223.11 53.04 221.84 C 48.79 221.68 45.23 224.62 41.70 226.62 M 240.17 245.87 C 243.99 257.94 247.19 270.25 248.76 282.83 C 249.04 284.81 248.98 286.98 250.29 288.64 C 250.25 279.04 247.92 269.58 245.49 260.34 C 243.93 255.46 243.00 250.23 240.17 245.87 M 249.77 287.90 C 249.77 293.62 250.47 299.31 250.51 305.04 C 250.79 310.34 250.12 315.67 250.78 320.94 C 249.49 325.28 249.38 329.84 249.12 334.32 C 247.63 341.20 246.60 348.18 245.34 355.10 C 244.39 357.68 244.25 360.46 243.91 363.16 C 243.72 365.12 243.49 367.07 243.21 369.02 C 242.97 370.80 242.94 372.59 242.86 374.39 C 242.47 377.77 242.07 381.14 241.77 384.53 C 241.91 385.47 242.06 386.41 242.22 387.35 C 240.39 393.35 240.25 399.79 240.39 406.02 C 240.19 406.23 239.78 406.66 239.58 406.87 C 239.58 414.62 237.76 422.25 237.89 430.01 C 237.73 437.09 238.91 444.16 238.25 451.24 C 237.45 453.37 236.09 455.53 236.55 457.90 C 237.76 465.24 239.42 472.59 239.57 480.06 C 239.04 485.34 239.19 490.72 240.80 495.83 C 241.91 499.28 242.34 502.90 242.79 506.49 C 243.71 511.46 245.76 516.14 247.61 520.82 C 249.04 519.79 250.48 518.76 251.90 517.71 C 254.48 516.96 257.11 516.40 259.78 516.07 C 262.97 516.27 266.16 516.53 269.34 516.93 C 270.16 517.07 271.80 517.35 272.62 517.49 C 272.01 511.71 269.59 506.33 268.55 500.63 C 266.16 490.90 267.13 480.81 267.25 470.90 C 267.34 468.20 265.85 465.73 265.84 463.06 C 266.19 461.29 266.83 459.60 267.42 457.91 C 266.16 456.65 264.82 455.47 263.81 454.00 C 264.28 451.26 266.17 448.83 265.78 445.94 C 265.15 434.98 264.36 424.00 264.73 413.01 C 264.78 410.85 264.92 408.67 264.62 406.53 C 265.59 391.38 266.84 376.11 264.84 360.99 C 262.62 340.66 256.31 321.12 252.47 301.10 C 251.39 296.73 251.80 291.98 249.77 287.90 Z" />
</g>
<g id="#162b48ff">
<path fill="#162b48" opacity="1.00" d=" M 138.90 9.52 C 150.59 5.47 163.18 4.38 175.41 6.26 C 174.87 8.48 177.68 9.01 178.95 10.14 C 189.90 16.33 197.11 27.49 200.85 39.27 C 194.45 38.38 188.00 37.97 181.55 38.15 C 172.83 22.60 156.54 11.83 138.90 9.52 Z" />
<path fill="#162b48" opacity="1.00" d=" M 207.79 19.60 C 217.88 25.91 223.97 37.36 226.61 48.71 C 224.59 47.82 222.62 46.82 220.78 45.61 C 220.72 43.94 220.83 42.22 220.25 40.61 C 217.58 32.84 212.95 25.93 207.79 19.60 Z" />
<path fill="#162b48" opacity="1.00" d=" M 118.26 28.65 C 124.46 28.47 130.78 27.68 136.88 29.21 C 145.57 30.98 152.83 36.46 159.12 42.45 C 152.53 44.81 146.04 47.63 140.48 51.94 C 131.71 45.92 120.35 45.42 110.29 47.85 C 110.85 41.23 113.99 35.25 117.41 29.69 C 117.62 29.43 118.05 28.91 118.26 28.65 Z" />
<path fill="#162b48" opacity="1.00" d=" M 158.89 44.69 C 175.90 38.81 194.86 38.63 211.98 44.19 C 219.47 46.72 227.18 50.85 230.69 58.33 C 234.22 65.71 234.26 75.62 228.45 81.88 C 228.15 73.31 222.50 66.10 215.83 61.25 C 202.57 51.14 185.47 47.42 169.04 48.01 C 161.73 47.81 154.62 49.64 147.38 50.26 C 150.70 47.47 154.90 46.20 158.89 44.69 Z" />
<path fill="#162b48" opacity="1.00" d=" M 115.40 158.41 C 116.47 156.85 118.27 156.17 119.90 155.39 C 136.07 164.83 152.34 174.09 168.58 183.41 C 170.46 184.12 170.42 186.28 170.52 187.95 C 170.69 194.56 171.15 201.15 171.41 207.76 C 172.22 208.24 173.03 208.73 173.84 209.22 C 176.85 226.63 179.54 244.14 181.58 261.68 C 181.33 270.46 182.25 279.22 182.44 287.99 C 182.74 300.67 183.50 313.33 183.96 326.00 C 184.52 333.66 184.34 341.42 185.92 348.98 C 186.60 352.33 187.15 355.70 187.72 359.07 C 187.84 358.71 188.07 357.98 188.19 357.62 L 188.48 356.75 C 190.62 374.98 191.27 393.58 196.52 411.28 C 198.68 420.06 199.85 429.10 199.48 438.15 C 193.41 435.17 187.37 432.16 181.32 429.17 C 181.00 419.77 180.67 410.38 180.49 400.98 C 179.01 377.02 178.57 353.01 177.18 329.05 C 176.19 317.41 176.09 305.71 175.15 294.07 C 173.78 276.79 172.87 259.47 170.59 242.29 C 169.61 233.84 167.38 225.40 163.00 218.05 C 157.83 209.44 150.13 202.67 141.80 197.20 C 131.08 190.30 119.10 185.38 106.81 182.11 C 109.14 174.07 110.06 165.20 115.40 158.41 M 119.68 169.97 C 123.00 172.69 127.01 174.30 130.77 176.27 C 138.30 179.83 145.54 184.06 153.35 186.99 C 150.36 184.70 146.89 183.17 143.57 181.44 C 135.65 177.55 128.03 172.90 119.68 169.97 M 144.01 173.92 C 146.75 176.43 149.77 178.64 153.15 180.21 C 150.47 177.63 147.39 175.47 144.01 173.92 M 153.92 180.90 C 156.67 183.34 159.79 185.31 163.01 187.05 C 160.42 184.43 157.32 182.34 153.92 180.90 Z" />
<path fill="#162b48" opacity="1.00" d=" M 179.34 187.97 C 179.09 183.60 183.31 181.09 185.72 178.03 C 185.77 186.13 185.73 194.24 186.07 202.33 C 183.61 204.28 181.42 206.54 179.43 208.96 C 181.72 211.66 184.30 214.09 186.87 216.53 L 187.10 216.97 C 188.36 228.95 189.10 240.98 190.86 252.90 C 198.25 306.35 200.89 360.38 199.84 414.30 C 198.43 409.12 196.18 403.94 196.26 398.51 C 196.76 395.53 196.29 392.55 195.40 389.70 C 195.24 390.14 194.91 391.02 194.74 391.46 L 194.52 392.04 C 191.27 363.11 187.80 334.12 187.17 304.98 C 187.44 292.27 186.46 279.57 184.69 266.98 C 184.27 263.50 183.40 260.06 183.43 256.53 C 183.83 251.07 183.63 245.58 183.13 240.13 C 182.57 234.26 182.66 228.17 180.38 222.62 C 180.13 224.47 179.89 226.33 179.76 228.20 C 178.29 221.96 177.45 215.60 176.42 209.28 C 177.29 207.98 178.67 206.82 178.52 205.11 C 178.69 199.39 179.02 193.68 179.34 187.97 Z" />
<path fill="#162b48" opacity="1.00" d=" M 114.09 193.57 C 134.94 202.96 151.06 222.87 154.42 245.68 C 158.78 273.88 159.81 302.46 161.33 330.93 C 162.42 359.84 163.86 388.74 164.01 417.68 C 157.96 411.52 152.38 404.89 147.25 397.95 L 147.09 397.49 C 147.24 390.36 147.14 383.22 146.81 376.10 C 147.84 375.67 148.88 375.25 149.92 374.83 C 150.08 369.53 149.11 364.27 146.98 359.41 C 146.63 358.10 146.28 356.80 145.93 355.51 C 145.97 345.64 145.42 335.79 144.75 325.95 C 144.13 304.89 141.95 283.93 140.58 262.91 C 139.84 253.21 139.45 243.27 136.02 234.05 C 134.16 228.64 131.10 223.77 127.95 219.04 C 130.65 217.80 133.77 217.08 135.87 214.86 C 135.84 214.44 135.77 213.62 135.74 213.20 C 131.74 211.27 127.07 212.53 122.94 211.15 C 121.26 209.96 121.36 207.67 120.84 205.89 C 120.14 201.07 116.24 197.73 114.09 193.57 Z" />
<path fill="#162b48" opacity="1.00" d=" M 50.20 205.54 C 55.84 201.44 61.71 196.93 68.48 195.12 C 89.61 201.59 109.42 216.06 117.94 236.98 C 123.12 248.59 123.51 261.47 124.61 273.92 C 125.38 285.31 126.05 296.71 126.78 308.10 C 127.86 318.51 127.60 328.99 128.38 339.42 C 128.64 349.47 128.96 359.52 128.96 369.58 C 121.50 361.29 113.74 353.27 106.95 344.40 C 105.97 339.83 106.17 335.13 106.92 330.54 C 109.84 323.75 111.25 316.32 111.32 308.95 C 110.31 301.86 107.36 295.22 105.72 288.28 C 104.29 283.22 105.62 277.94 107.09 273.06 C 109.01 267.23 114.50 263.76 117.80 258.82 C 118.34 255.59 116.65 252.49 115.35 249.63 C 113.81 246.87 112.35 243.55 109.27 242.23 C 105.99 243.69 103.91 246.80 101.93 249.65 C 99.26 243.08 96.83 236.26 92.25 230.72 C 83.93 219.55 71.42 212.53 58.61 207.71 C 58.87 207.25 59.38 206.32 59.64 205.86 C 58.81 206.30 57.99 206.75 57.17 207.21 C 54.85 206.62 52.53 206.06 50.20 205.54 Z" />
<path fill="#162b48" opacity="1.00" d=" M 197.87 208.75 C 202.71 210.97 207.37 213.68 211.61 216.90 C 215.95 230.64 219.02 244.78 220.57 259.11 C 224.73 297.57 227.83 336.17 228.57 374.86 C 228.69 378.33 228.99 381.79 229.06 385.27 L 228.80 385.74 C 223.81 392.86 219.16 400.21 213.98 407.20 C 214.50 399.81 213.78 392.41 213.74 385.01 C 213.62 373.92 213.15 362.85 212.58 351.78 C 211.98 333.50 211.93 315.18 209.99 296.97 C 208.37 277.03 206.39 257.10 203.61 237.29 C 202.26 227.67 200.52 218.10 197.87 208.75 Z" />
<path fill="#162b48" opacity="1.00" d=" M 38.02 216.35 L 38.41 216.53 C 41.37 217.96 44.44 219.14 47.61 220.00 C 46.68 220.78 45.62 221.39 44.38 221.43 C 37.42 222.16 32.64 227.96 26.81 231.22 C 29.13 225.40 33.87 220.91 38.02 216.35 Z" />
<path fill="#162b48" opacity="1.00" d=" M 41.70 226.62 C 45.23 224.62 48.79 221.68 53.04 221.84 C 56.66 223.11 59.96 225.25 62.99 227.57 C 64.12 250.41 61.16 273.18 60.75 296.00 C 60.80 301.69 60.65 307.40 59.80 313.04 C 58.57 321.60 57.84 330.24 56.14 338.73 C 53.85 336.35 51.60 333.94 49.18 331.71 C 48.39 337.99 53.21 342.81 55.54 348.20 C 55.68 348.53 55.95 349.19 56.09 349.52 C 56.29 355.77 57.16 361.96 57.86 368.17 C 55.13 369.08 54.53 371.51 54.70 374.16 C 55.96 373.68 57.22 373.21 58.47 372.74 C 59.93 382.10 61.49 391.46 61.91 400.94 C 63.07 412.47 63.04 424.34 67.19 435.32 L 67.28 435.60 C 63.08 439.54 59.19 443.80 54.93 447.68 C 51.82 438.52 49.06 429.20 47.50 419.64 C 44.74 399.29 42.12 378.91 38.43 358.70 C 37.31 352.76 36.94 346.71 37.03 340.68 C 41.60 344.24 45.66 348.37 50.07 352.10 C 47.74 344.51 45.02 336.05 37.71 331.81 C 40.22 315.71 43.42 299.36 41.34 283.01 C 40.39 275.02 41.67 267.01 41.64 259.00 C 41.69 248.21 41.65 237.41 41.70 226.62 Z" />
<path fill="#162b48" opacity="1.00" d=" M 20.09 245.47 C 21.70 242.31 24.61 240.05 27.23 237.76 C 27.30 240.86 27.42 243.97 27.83 247.05 C 29.52 257.96 28.47 269.02 28.19 279.99 C 28.06 285.69 29.52 291.28 29.30 296.98 C 29.02 306.81 27.91 316.60 26.26 326.29 C 22.09 324.92 17.91 323.62 13.66 322.53 C 15.02 312.72 13.91 302.82 14.26 292.96 C 14.53 285.27 14.05 277.54 15.12 269.89 C 16.10 261.62 18.55 253.64 20.09 245.47 Z" />
<path fill="#162b48" opacity="1.00" d=" M 76.73 237.68 C 82.49 241.20 87.36 245.95 92.42 250.37 C 91.32 255.17 91.37 260.10 91.40 264.99 C 91.23 292.33 86.25 319.35 84.85 346.60 C 84.69 346.69 84.35 346.87 84.18 346.95 C 79.84 349.36 74.76 352.15 69.81 349.60 C 69.64 349.49 69.29 349.26 69.12 349.14 C 69.50 330.63 74.94 312.54 74.31 293.98 C 74.96 275.20 77.23 256.49 76.73 237.68 Z" />
<path fill="#162b48" opacity="1.00" d=" M 237.18 246.83 C 241.06 255.52 242.76 265.00 244.66 274.27 C 249.34 299.24 248.56 325.11 243.39 349.93 C 243.17 349.45 242.74 348.50 242.52 348.03 C 241.98 349.16 241.46 350.30 240.95 351.45 C 240.62 341.63 240.66 331.80 239.98 322.00 C 239.37 312.68 239.93 303.32 239.14 294.01 C 238.37 286.22 238.51 278.36 237.25 270.62 C 237.16 268.23 237.05 265.84 236.94 263.46 C 237.25 257.92 237.43 252.37 237.18 246.83 Z" />
<path fill="#162b48" opacity="1.00" d=" M 13.17 325.31 C 15.96 329.31 20.91 330.31 25.21 331.84 C 23.79 342.15 23.82 352.74 25.88 362.97 C 27.65 372.15 29.00 381.42 30.34 390.68 C 25.50 388.59 21.25 385.45 16.82 382.67 L 16.79 382.05 C 16.00 372.50 14.64 362.97 12.40 353.64 C 10.14 344.32 11.31 334.59 13.17 325.31 Z" />
<path fill="#162b48" opacity="1.00" d=" M 249.12 334.32 C 249.96 331.34 250.98 328.40 251.72 325.39 C 253.52 333.86 254.52 342.48 255.82 351.03 L 255.93 351.80 C 253.14 354.40 250.41 357.05 247.62 359.66 C 247.27 357.58 246.77 355.54 246.23 353.51 C 246.01 353.91 245.56 354.70 245.34 355.10 C 246.60 348.18 247.63 341.20 249.12 334.32 Z" />
<path fill="#162b48" opacity="1.00" d=" M 107.08 350.54 C 115.58 358.05 122.25 367.29 129.14 376.22 L 129.33 376.65 C 129.09 386.50 130.07 396.42 128.75 406.22 C 128.96 406.57 129.17 406.92 129.39 407.28 C 129.40 416.92 129.50 426.58 129.09 436.22 C 128.89 438.47 128.88 440.74 128.96 443.00 C 128.95 443.18 128.92 443.54 128.90 443.72 C 128.46 447.38 128.50 451.08 128.74 454.76 C 128.84 456.93 128.88 459.10 128.93 461.28 C 122.33 460.85 115.74 460.22 109.12 460.17 C 109.01 459.66 108.79 458.64 108.68 458.13 C 111.26 457.98 113.72 457.15 116.07 456.14 C 116.84 450.52 114.35 444.95 115.76 439.43 C 114.70 440.50 113.62 441.57 112.55 442.64 C 112.46 441.64 112.28 439.64 112.18 438.65 C 111.95 439.58 111.49 441.44 111.26 442.37 C 110.65 442.41 109.43 442.47 108.82 442.50 C 108.81 441.82 108.80 440.47 108.79 439.79 C 108.21 435.39 108.00 430.97 108.42 426.54 C 108.43 424.82 108.35 423.11 108.20 421.40 C 107.80 411.47 107.75 401.53 107.83 391.60 C 109.52 392.78 111.24 393.93 112.98 395.06 C 111.07 393.21 109.13 391.40 107.10 389.69 C 107.60 383.68 107.44 377.65 107.30 371.64 C 113.33 375.84 118.73 381.04 125.50 384.09 C 124.75 382.12 123.95 380.10 122.41 378.61 C 117.75 373.69 112.37 369.53 107.16 365.23 C 107.21 360.33 107.14 355.43 107.08 350.54 M 118.92 455.57 C 120.10 454.92 120.87 453.94 121.25 452.64 C 122.52 452.59 123.80 452.55 125.08 452.53 C 125.31 453.31 125.76 454.86 125.99 455.63 C 126.31 455.30 126.96 454.65 127.28 454.32 C 126.12 450.73 124.96 447.09 123.00 443.84 C 121.06 447.51 119.58 451.46 118.92 455.57 Z" />
<path fill="#162b48" opacity="1.00" d=" M 247.92 362.25 C 250.75 359.70 253.52 357.07 256.31 354.48 C 257.03 359.39 257.97 364.27 258.71 369.19 L 258.85 370.24 C 255.92 371.75 252.81 372.88 249.64 373.76 C 249.07 370.00 248.33 366.28 247.94 362.50 L 247.92 362.25 Z" />
<path fill="#162b48" opacity="1.00" d=" M 72.60 375.08 C 77.16 371.19 81.02 366.54 84.19 361.45 C 84.62 363.16 85.10 364.87 85.24 366.64 C 85.42 373.81 86.67 380.88 87.76 387.95 C 87.60 388.88 87.35 390.02 86.41 390.48 C 82.20 392.70 78.61 395.84 75.17 399.08 C 74.87 391.02 73.56 383.07 72.60 375.08 Z" />
<path fill="#162b48" opacity="1.00" d=" M 250.27 379.17 C 253.26 377.39 256.23 375.54 259.35 373.98 C 261.20 384.81 262.35 395.77 264.62 406.53 C 264.92 408.67 264.78 410.85 264.73 413.01 C 264.36 424.00 265.15 434.98 265.78 445.94 C 266.17 448.83 264.28 451.26 263.81 454.00 C 264.82 455.47 266.16 456.65 267.42 457.91 C 266.83 459.60 266.19 461.29 265.84 463.06 C 265.85 465.73 267.34 468.20 267.25 470.90 C 267.13 480.81 266.16 490.90 268.55 500.63 C 269.59 506.33 272.01 511.71 272.62 517.49 C 271.80 517.35 270.16 517.07 269.34 516.93 C 267.21 508.36 263.98 499.93 263.72 491.00 C 263.44 481.95 262.15 472.97 261.23 463.97 C 258.72 443.17 256.27 422.36 253.29 401.62 C 256.45 401.56 259.59 401.01 262.57 399.96 C 259.84 397.67 256.28 397.45 252.89 397.42 C 252.03 391.47 251.12 385.52 250.31 379.57 L 250.27 379.17 Z" />
<path fill="#162b48" opacity="1.00" d=" M 242.22 387.35 C 243.19 392.38 244.00 397.44 244.88 402.49 C 243.32 403.58 241.81 404.74 240.39 406.02 C 240.25 399.79 240.39 393.35 242.22 387.35 Z" />
<path fill="#162b48" opacity="1.00" d=" M 213.87 410.48 C 218.55 403.65 222.98 396.56 228.97 390.76 C 229.28 399.59 229.13 408.43 229.24 417.27 C 228.55 421.13 228.23 425.05 228.54 428.97 C 229.00 438.77 228.38 448.57 227.80 458.36 C 226.85 458.56 225.89 458.67 224.92 458.70 C 224.05 456.99 221.12 458.07 223.26 459.55 C 222.84 459.58 221.99 459.65 221.56 459.68 C 219.04 459.57 216.54 459.27 214.06 458.85 C 214.43 453.86 214.66 448.86 214.72 443.86 C 217.49 446.18 220.74 448.56 224.56 447.22 C 220.78 444.18 216.90 441.04 214.81 436.54 C 214.66 435.81 214.51 435.08 214.36 434.37 C 214.33 426.40 214.90 418.40 213.87 410.48 Z" />
<path fill="#162b48" opacity="1.00" d=" M 87.34 407.90 C 87.05 403.25 86.00 397.72 90.24 394.47 C 90.26 400.05 90.33 405.64 90.31 411.22 C 89.33 410.14 87.74 409.38 87.34 407.90 Z" />
<path fill="#162b48" opacity="1.00" d=" M 16.64 401.32 C 21.32 399.33 26.26 398.02 31.24 397.04 C 33.50 409.55 33.86 422.39 37.32 434.67 C 39.43 442.40 41.33 450.29 45.12 457.41 C 44.82 457.72 44.20 458.35 43.89 458.67 C 44.34 458.69 45.25 458.74 45.70 458.76 C 48.02 462.41 49.98 466.29 51.64 470.29 C 55.75 481.60 65.20 489.75 70.51 500.43 C 62.07 498.13 55.79 491.86 49.14 486.58 C 48.90 486.21 48.43 485.48 48.19 485.11 C 45.73 479.90 43.16 474.72 40.22 469.76 C 37.74 465.61 34.26 462.11 32.18 457.71 C 27.60 448.44 27.34 437.89 24.90 428.00 C 22.66 418.99 20.80 409.68 16.64 401.32 Z" />
<path fill="#162b48" opacity="1.00" d=" M 147.54 403.59 C 149.23 406.89 150.70 410.30 152.52 413.53 C 155.37 417.92 159.90 420.83 164.26 423.55 L 164.26 423.95 C 164.43 428.39 164.80 432.92 163.63 437.28 C 163.08 439.17 163.34 441.09 164.05 442.90 C 164.52 444.48 164.98 446.07 165.45 447.67 C 164.06 447.73 162.67 447.81 161.28 447.88 C 161.29 450.77 161.25 453.72 162.02 456.54 C 163.11 454.00 162.03 450.31 164.79 448.80 C 164.93 453.02 164.95 457.25 165.00 461.48 C 159.06 461.41 153.12 461.24 147.17 461.22 C 147.38 457.26 147.34 453.27 146.64 449.36 C 147.12 449.11 148.08 448.61 148.56 448.36 C 148.63 450.69 148.72 453.05 148.85 455.40 C 150.00 455.25 151.16 455.15 152.33 455.23 C 150.10 453.93 148.79 449.43 152.08 448.64 C 151.31 447.69 150.48 446.79 149.64 445.93 C 148.81 446.27 147.99 446.61 147.17 446.95 C 147.16 445.50 147.32 444.06 147.90 442.74 C 149.34 441.25 148.95 439.37 148.09 437.73 C 146.96 432.11 147.51 426.32 148.22 420.68 C 149.43 421.46 150.67 422.21 151.90 422.97 C 154.45 425.66 158.01 427.02 161.15 428.88 C 159.20 427.52 157.17 426.28 155.16 425.01 C 152.77 422.56 149.49 421.34 146.80 419.29 C 147.49 414.08 147.58 408.83 147.54 403.59 M 151.33 438.40 C 150.47 439.56 151.82 440.87 151.97 442.07 C 153.35 442.11 154.72 442.15 156.10 442.20 C 157.14 440.41 156.76 438.55 155.91 436.79 C 154.34 437.15 152.05 436.49 151.33 438.40 M 158.42 438.81 C 159.23 438.59 160.83 438.16 161.64 437.94 C 160.82 439.32 159.86 440.61 158.81 441.84 C 159.62 441.87 161.25 441.92 162.06 441.95 C 161.05 440.40 161.84 438.54 161.77 436.86 C 160.55 437.32 159.31 437.79 158.42 438.81 M 153.54 448.50 C 152.80 450.53 152.01 453.40 154.31 454.75 C 156.88 456.79 160.89 454.11 159.91 450.92 C 159.90 447.59 155.84 447.44 153.54 448.50 Z" />
<path fill="#162b48" opacity="1.00" d=" M 239.58 406.87 C 241.36 405.87 243.08 404.77 244.86 403.76 C 247.65 426.19 250.50 448.64 252.43 471.17 C 249.59 473.15 246.59 474.88 243.59 476.61 C 242.35 472.56 241.02 468.36 241.81 464.08 C 242.80 457.64 242.71 451.10 242.01 444.64 C 240.59 446.74 239.27 448.91 238.25 451.24 C 238.91 444.16 237.73 437.09 237.89 430.01 C 237.76 422.25 239.58 414.62 239.58 406.87 Z" />
<path fill="#162b48" opacity="1.00" d=" M 76.82 414.40 C 79.80 417.21 83.29 419.75 87.53 419.99 C 88.11 418.85 88.69 417.71 89.27 416.59 C 90.88 418.83 92.25 421.30 92.75 424.06 C 95.53 436.77 93.14 449.84 91.32 462.51 C 86.39 453.72 82.86 444.24 80.16 434.55 C 82.34 434.30 84.55 434.25 86.75 434.41 C 88.71 432.73 90.20 430.62 91.33 428.31 C 86.99 427.15 82.51 426.75 78.03 426.65 C 77.42 422.59 77.16 418.49 76.82 414.40 Z" />
<path fill="#162b48" opacity="1.00" d=" M 181.60 433.59 C 187.79 435.21 193.74 437.67 199.26 440.91 C 198.10 446.61 198.75 452.48 198.02 458.17 C 197.25 458.97 196.24 459.80 196.30 461.03 C 191.62 461.21 186.94 461.31 182.25 461.30 C 182.34 459.36 182.43 457.42 182.42 455.48 C 183.94 455.01 185.46 454.55 186.99 454.12 C 186.80 453.83 186.44 453.26 186.26 452.97 L 187.12 453.58 C 187.62 454.04 188.61 454.95 189.10 455.41 C 189.09 454.69 189.07 453.26 189.05 452.55 C 189.66 453.69 190.26 454.83 190.85 455.99 C 190.89 454.91 190.98 452.73 191.02 451.64 C 189.16 451.87 187.29 452.12 185.44 452.42 C 184.37 452.40 183.30 452.40 182.23 452.42 C 181.90 446.14 181.78 439.86 181.60 433.59 Z" />
<path fill="#162b48" opacity="1.00" d=" M 164.40 438.41 C 165.67 438.74 165.88 439.54 165.02 440.82 C 163.78 440.49 163.57 439.69 164.40 438.41 Z" />
<path fill="#162b48" opacity="1.00" d=" M 56.64 451.92 C 61.08 449.01 65.66 446.30 69.93 443.13 C 73.10 452.08 77.06 460.72 81.09 469.32 C 75.32 467.62 69.45 466.29 63.66 464.69 C 63.51 464.61 63.23 464.46 63.08 464.38 C 60.99 460.20 58.89 456.02 56.64 451.92 Z" />
<path fill="#162b48" opacity="1.00" d=" M 110.11 446.29 L 110.40 446.09 C 111.44 448.62 112.55 451.13 113.60 453.66 C 113.63 454.16 113.69 455.16 113.72 455.66 C 111.77 454.72 111.15 452.60 110.36 450.79 C 109.34 452.54 108.36 454.34 106.96 455.83 L 106.71 454.60 C 107.55 451.72 108.69 448.93 110.11 446.29 Z" />
<path fill="#162b48" opacity="1.00" d=" M 122.32 448.48 C 123.82 447.32 125.14 450.05 123.82 450.99 C 122.25 452.20 120.87 449.43 122.32 448.48 Z" />
<path fill="#162b48" opacity="1.00" d=" M 154.61 449.47 C 155.67 449.57 157.19 448.81 157.90 449.96 C 159.22 451.35 157.77 453.03 157.20 454.39 C 156.54 454.12 155.21 453.57 154.54 453.29 C 154.55 452.01 154.58 450.74 154.61 449.47 Z" />
<path fill="#162b48" opacity="1.00" d=" M 182.42 453.27 C 185.53 451.97 182.42 456.63 182.42 453.27 Z" />
<path fill="#162b48" opacity="1.00" d=" M 64.85 467.81 C 70.82 469.67 76.93 470.98 83.04 472.30 C 83.22 472.50 83.60 472.90 83.78 473.09 C 85.69 475.65 87.38 478.37 89.20 481.00 L 88.74 481.30 C 84.52 483.80 83.51 488.72 82.96 493.20 C 85.62 490.20 87.98 486.89 91.08 484.30 C 93.12 487.37 95.29 490.37 97.30 493.48 C 100.69 506.14 102.84 519.17 104.27 532.21 C 101.39 532.27 98.51 532.39 95.63 532.63 C 94.72 524.69 91.97 517.13 89.41 509.62 C 86.84 502.14 82.57 495.43 77.93 489.09 C 73.28 482.20 67.35 475.92 64.85 467.81 Z" />
<path fill="#162b48" opacity="1.00" d=" M 246.41 478.37 C 247.95 475.94 250.53 474.49 252.62 472.62 C 253.30 478.16 253.61 483.75 254.12 489.31 C 252.04 489.55 249.97 489.81 247.90 490.07 C 246.33 486.46 244.67 482.21 246.41 478.37 Z" />
<path fill="#162b48" opacity="1.00" d=" M 245.87 496.54 C 248.80 495.46 251.56 493.93 253.90 491.84 C 254.35 500.21 257.33 508.13 259.78 516.07 C 257.11 516.40 254.48 516.96 251.90 517.71 C 249.15 510.88 247.30 503.75 245.87 496.54 Z" />
<path fill="#162b48" opacity="1.00" d=" M 53.82 494.59 C 60.38 498.05 66.05 503.46 73.47 505.07 C 78.26 514.72 80.48 525.31 83.55 535.56 C 80.36 536.62 77.18 537.71 74.04 538.93 C 73.81 532.99 74.45 527.01 73.68 521.11 C 72.44 515.83 68.28 511.98 64.67 508.22 C 60.50 504.15 56.67 499.69 53.82 494.59 Z" />
</g>
<g id="#00694eff">
<path fill="#00694e" opacity="1.00" d=" M 178.95 10.14 C 177.68 9.01 174.87 8.48 175.41 6.26 C 186.88 8.44 198.93 11.55 207.79 19.60 C 212.95 25.93 217.58 32.84 220.25 40.61 C 220.83 42.22 220.72 43.94 220.78 45.61 C 214.58 42.28 207.68 40.69 200.85 39.27 C 197.11 27.49 189.90 16.33 178.95 10.14 Z" />
<path fill="#00694e" opacity="1.00" d=" M 130.62 12.44 C 133.33 11.33 136.03 10.16 138.90 9.52 C 156.54 11.83 172.83 22.60 181.55 38.15 C 173.93 38.76 166.42 40.22 159.12 42.45 C 152.83 36.46 145.57 30.98 136.88 29.21 C 130.78 27.68 124.46 28.47 118.26 28.65 C 121.96 23.14 126.46 18.25 130.33 12.87 L 130.62 12.44 Z" />
<path fill="#00694e" opacity="1.00" d=" M 110.29 47.85 C 120.35 45.42 131.71 45.92 140.48 51.94 C 134.61 55.97 127.22 56.81 121.40 60.95 C 118.45 59.55 115.22 58.39 113.01 55.89 C 111.03 53.74 110.59 50.73 109.82 48.03 L 110.29 47.85 Z" />
<path fill="#00694e" opacity="1.00" d=" M 106.12 182.08 L 106.81 182.11 C 119.10 185.38 131.08 190.30 141.80 197.20 C 150.13 202.67 157.83 209.44 163.00 218.05 C 167.38 225.40 169.61 233.84 170.59 242.29 C 172.87 259.47 173.78 276.79 175.15 294.07 C 176.09 305.71 176.19 317.41 177.18 329.05 C 178.57 353.01 179.01 377.02 180.49 400.98 C 180.67 410.38 181.00 419.77 181.32 429.17 C 175.14 426.25 168.74 423.28 164.17 418.02 L 164.01 417.68 C 163.86 388.74 162.42 359.84 161.33 330.93 C 159.81 302.46 158.78 273.88 154.42 245.68 C 151.06 222.87 134.94 202.96 114.09 193.57 C 110.86 190.47 107.73 187.01 105.52 183.11 L 106.12 182.08 Z" />
<path fill="#00694e" opacity="1.00" d=" M 68.48 195.12 C 74.61 192.34 81.19 190.84 87.81 189.77 C 90.82 191.37 93.91 192.83 96.88 194.51 C 99.69 196.57 102.07 199.17 104.99 201.11 C 107.86 203.26 111.18 204.74 114.01 206.94 C 116.70 210.38 116.28 215.47 119.29 218.73 C 121.88 220.33 125.12 219.16 127.95 219.04 C 131.10 223.77 134.16 228.64 136.02 234.05 C 139.45 243.27 139.84 253.21 140.58 262.91 C 141.95 283.93 144.13 304.89 144.75 325.95 C 145.42 335.79 145.97 345.64 145.93 355.51 C 141.85 346.18 139.07 336.34 134.79 327.10 C 132.21 321.81 130.13 315.93 131.17 309.96 C 132.61 300.83 134.28 291.53 132.94 282.28 C 131.87 283.27 130.42 284.21 130.51 285.88 C 129.84 292.94 129.32 300.02 128.51 307.07 C 127.85 312.79 129.59 318.38 131.22 323.79 C 133.17 330.04 135.14 336.30 137.54 342.40 C 139.80 348.13 143.24 353.64 143.26 360.00 C 143.37 365.29 142.94 371.16 146.79 375.37 L 146.81 376.10 C 147.14 383.22 147.24 390.36 147.09 397.49 C 143.61 392.96 140.47 388.17 138.04 382.99 C 135.80 378.17 132.39 374.09 129.12 369.96 L 128.96 369.58 C 128.96 359.52 128.64 349.47 128.38 339.42 C 127.60 328.99 127.86 318.51 126.78 308.10 C 126.05 296.71 125.38 285.31 124.61 273.92 C 123.51 261.47 123.12 248.59 117.94 236.98 C 109.42 216.06 89.61 201.59 68.48 195.12 Z" />
<path fill="#00694e" opacity="1.00" d=" M 189.12 203.82 C 192.09 205.09 194.92 206.69 197.74 208.28 L 197.87 208.75 C 200.52 218.10 202.26 227.67 203.61 237.29 C 206.39 257.10 208.37 277.03 209.99 296.97 C 211.93 315.18 211.98 333.50 212.58 351.78 C 213.15 362.85 213.62 373.92 213.74 385.01 C 213.78 392.41 214.50 399.81 213.98 407.20 C 213.89 408.29 213.84 409.38 213.87 410.48 C 214.90 418.40 214.33 426.40 214.36 434.37 C 210.38 429.55 207.36 423.53 201.66 420.51 C 205.70 426.70 211.29 431.75 214.83 438.31 C 214.84 440.16 214.76 442.00 214.72 443.86 C 214.66 448.86 214.43 453.86 214.06 458.85 C 210.86 458.01 207.82 456.70 204.80 455.39 C 203.76 457.26 202.66 459.11 201.50 460.91 L 201.02 461.64 C 200.91 460.38 200.81 459.13 200.71 457.88 C 203.39 454.86 206.29 451.45 206.56 447.23 C 206.28 444.56 204.74 441.43 202.21 440.38 C 201.21 443.18 204.26 445.73 203.61 448.61 C 203.14 450.51 201.85 452.06 200.81 453.67 C 200.45 447.44 201.39 441.23 201.88 435.04 C 202.13 428.05 200.48 421.21 199.84 414.30 C 200.89 360.38 198.25 306.35 190.86 252.90 C 189.10 240.98 188.36 228.95 187.10 216.97 C 187.96 217.99 188.88 218.98 189.79 219.97 C 189.27 214.60 189.29 209.20 189.12 203.82 Z" />
<path fill="#00694e" opacity="1.00" d=" M 38.41 216.53 C 42.01 212.52 46.12 209.03 50.20 205.54 C 52.53 206.06 54.85 206.62 57.17 207.21 C 54.12 210.96 52.62 215.74 49.23 219.27 L 48.45 220.24 C 48.24 220.18 47.82 220.06 47.61 220.00 C 44.44 219.14 41.37 217.96 38.41 216.53 Z" />
<path fill="#00694e" opacity="1.00" d=" M 58.53 220.41 C 58.44 216.18 55.92 211.59 58.61 207.71 C 71.42 212.53 83.93 219.55 92.25 230.72 C 96.83 236.26 99.26 243.08 101.93 249.65 L 101.76 249.93 C 101.10 251.00 100.43 252.06 99.76 253.12 C 87.47 240.71 73.45 230.02 58.58 220.89 L 58.53 220.41 Z" />
<path fill="#00694e" opacity="1.00" d=" M 211.61 216.90 C 217.83 220.85 224.44 224.80 229.17 230.52 C 230.56 235.56 232.01 240.58 233.43 245.62 C 233.29 253.42 233.61 261.21 234.15 268.99 C 234.63 275.08 233.95 281.42 236.34 287.20 C 236.60 281.67 236.70 276.13 237.25 270.62 C 238.51 278.36 238.37 286.22 239.14 294.01 C 239.93 303.32 239.37 312.68 239.98 322.00 C 240.66 331.80 240.62 341.63 240.95 351.45 C 238.13 357.89 242.48 365.43 238.35 371.41 C 235.44 376.15 232.12 380.62 229.06 385.27 C 228.99 381.79 228.69 378.33 228.57 374.86 C 227.83 336.17 224.73 297.57 220.57 259.11 C 219.02 244.78 215.95 230.64 211.61 216.90 Z" />
<path fill="#00694e" opacity="1.00" d=" M 27.22 237.39 C 31.89 233.59 36.55 229.76 41.70 226.62 C 41.65 237.41 41.69 248.21 41.64 259.00 C 41.67 267.01 40.39 275.02 41.34 283.01 C 43.42 299.36 40.22 315.71 37.71 331.81 C 34.01 329.79 30.20 327.98 26.19 326.65 L 26.26 326.29 C 27.91 316.60 29.02 306.81 29.30 296.98 C 29.52 291.28 28.06 285.69 28.19 279.99 C 28.47 269.02 29.52 257.96 27.83 247.05 C 27.42 243.97 27.30 240.86 27.23 237.76 L 27.22 237.39 Z" />
<path fill="#00694e" opacity="1.00" d=" M 62.99 227.57 C 67.84 230.39 72.20 233.95 76.74 237.23 L 76.73 237.68 C 77.23 256.49 74.96 275.20 74.31 293.98 C 74.94 312.54 69.50 330.63 69.12 349.14 C 64.76 346.26 60.51 343.17 56.84 339.44 C 56.66 339.26 56.31 338.91 56.14 338.73 C 57.84 330.24 58.57 321.60 59.80 313.04 C 60.65 307.40 60.80 301.69 60.75 296.00 C 61.16 273.18 64.12 250.41 62.99 227.57 Z" />
<path fill="#00694e" opacity="1.00" d=" M 13.29 256.09 C 14.58 252.04 17.05 248.42 20.09 245.47 C 18.55 253.64 16.10 261.62 15.12 269.89 C 14.05 277.54 14.53 285.27 14.26 292.96 C 13.91 302.82 15.02 312.72 13.66 322.53 C 13.54 323.23 13.29 324.61 13.17 325.31 C 11.31 334.59 10.14 344.32 12.40 353.64 C 14.64 362.97 16.00 372.50 16.79 382.05 C 15.08 380.99 13.37 379.93 11.65 378.89 C 11.34 386.53 11.75 395.04 16.64 401.32 C 20.80 409.68 22.66 418.99 24.90 428.00 C 27.34 437.89 27.60 448.44 32.18 457.71 C 34.26 462.11 37.74 465.61 40.22 469.76 C 43.16 474.72 45.73 479.90 48.19 485.11 C 45.92 483.24 43.48 480.52 40.20 481.57 C 36.66 474.15 29.17 469.48 26.38 461.65 C 22.21 450.86 21.70 439.17 19.54 427.92 C 18.27 421.07 15.27 414.74 12.66 408.34 C 10.46 403.51 12.14 398.17 11.52 393.09 C 10.96 387.42 11.16 381.73 11.16 376.05 C 10.62 367.88 8.84 359.82 6.48 352.01 C 4.56 345.45 5.89 338.58 6.34 331.92 C 6.96 322.94 8.87 314.06 8.65 305.03 C 8.69 288.64 8.99 272.01 13.29 256.09 Z" />
<path fill="#00694e" opacity="1.00" d=" M 240.17 245.87 C 243.00 250.23 243.93 255.46 245.49 260.34 C 247.92 269.58 250.25 279.04 250.29 288.64 C 248.98 286.98 249.04 284.81 248.76 282.83 C 247.19 270.25 243.99 257.94 240.17 245.87 Z" />
<path fill="#00694e" opacity="1.00" d=" M 91.40 264.99 C 91.37 260.10 91.32 255.17 92.42 250.37 C 96.17 254.01 100.16 257.64 102.62 262.32 C 103.92 264.76 102.69 267.47 102.33 269.99 C 100.68 277.23 100.94 284.69 101.04 292.07 C 101.04 297.09 102.81 301.92 102.67 306.96 C 102.31 317.07 99.86 326.93 98.94 336.99 C 98.37 341.04 98.67 345.63 95.88 348.97 C 93.31 352.14 90.01 354.62 86.70 356.98 C 89.62 351.94 92.58 346.92 95.16 341.70 C 91.67 343.21 88.23 344.84 84.85 346.60 C 86.25 319.35 91.23 292.33 91.40 264.99 Z" />
<path fill="#00694e" opacity="1.00" d=" M 249.77 287.90 C 251.80 291.98 251.39 296.73 252.47 301.10 C 256.31 321.12 262.62 340.66 264.84 360.99 C 266.84 376.11 265.59 391.38 264.62 406.53 C 262.35 395.77 261.20 384.81 259.35 373.98 C 261.00 372.64 262.24 370.93 262.85 368.88 C 261.81 368.95 259.74 369.11 258.71 369.19 C 257.97 364.27 257.03 359.39 256.31 354.48 L 256.27 354.20 C 258.48 352.41 260.48 350.33 261.63 347.68 C 259.65 348.72 257.73 349.86 255.82 351.03 C 254.52 342.48 253.52 333.86 251.72 325.39 C 251.43 323.90 251.09 322.42 250.78 320.94 C 250.12 315.67 250.79 310.34 250.51 305.04 C 250.47 299.31 249.77 293.62 249.77 287.90 Z" />
<path fill="#00694e" opacity="1.00" d=" M 25.21 331.84 C 29.28 334.44 33.15 337.32 37.04 340.18 L 37.03 340.68 C 36.94 346.71 37.31 352.76 38.43 358.70 C 42.12 378.91 44.74 399.29 47.50 419.64 C 49.06 429.20 51.82 438.52 54.93 447.68 L 55.01 447.95 C 51.77 451.15 48.34 454.17 45.12 457.41 C 41.33 450.29 39.43 442.40 37.32 434.67 C 33.86 422.39 33.50 409.55 31.24 397.04 C 33.45 396.33 35.65 395.60 37.82 394.80 C 35.69 392.90 33.07 391.77 30.37 390.94 L 30.34 390.68 C 29.00 381.42 27.65 372.15 25.88 362.97 C 23.82 352.74 23.79 342.15 25.21 331.84 Z" />
<path fill="#00694e" opacity="1.00" d=" M 56.09 349.52 C 58.68 354.55 62.30 359.24 63.60 364.83 C 63.26 367.53 59.88 367.54 57.86 368.17 C 57.16 361.96 56.29 355.77 56.09 349.52 Z" />
<path fill="#00694e" opacity="1.00" d=" M 101.55 351.53 C 102.94 349.94 105.24 350.65 107.08 350.54 C 107.14 355.43 107.21 360.33 107.16 365.23 C 104.76 363.52 101.97 362.15 100.22 359.71 C 99.03 357.06 99.61 353.68 101.55 351.53 Z" />
<path fill="#00694e" opacity="1.00" d=" M 89.38 365.03 C 89.27 362.10 88.84 358.66 91.77 356.94 C 96.38 362.26 101.74 366.86 107.29 371.16 L 107.30 371.64 C 107.44 377.65 107.60 383.68 107.10 389.69 C 104.44 387.47 101.63 385.42 98.66 383.64 C 101.31 386.73 104.49 389.29 107.83 391.60 C 107.75 401.53 107.80 411.47 108.20 421.40 C 103.88 416.35 100.48 410.57 95.88 405.75 C 98.36 413.56 103.50 420.13 108.42 426.54 C 108.00 430.97 108.21 435.39 108.79 439.79 L 107.64 439.34 C 107.55 440.40 107.38 442.52 107.29 443.57 C 106.72 442.59 105.60 440.62 105.04 439.64 C 105.32 440.99 105.63 442.34 105.93 443.71 C 105.59 444.26 104.93 445.35 104.60 445.90 C 103.21 449.22 104.09 453.00 104.43 456.48 C 104.77 456.43 105.46 456.34 105.80 456.30 L 106.16 456.26 C 106.79 456.72 108.05 457.66 108.68 458.13 C 108.79 458.64 109.01 459.66 109.12 460.17 C 104.13 460.11 99.16 460.82 94.17 460.68 C 96.26 448.59 97.89 436.10 95.70 423.91 C 95.01 419.26 92.13 415.43 90.31 411.22 C 90.33 405.64 90.26 400.05 90.24 394.47 C 90.99 392.56 91.31 390.52 91.35 388.48 C 91.73 385.27 93.46 382.29 93.16 378.99 C 93.22 374.01 89.49 369.97 89.38 365.03 Z" />
<path fill="#00694e" opacity="1.00" d=" M 243.21 369.02 C 243.71 366.19 245.83 364.22 247.94 362.50 C 248.33 366.28 249.07 370.00 249.64 373.76 L 249.68 374.11 C 247.41 374.20 245.13 374.30 242.86 374.39 C 242.94 372.59 242.97 370.80 243.21 369.02 Z" />
<path fill="#00694e" opacity="1.00" d=" M 85.24 366.64 C 87.61 371.74 91.31 377.07 89.86 382.97 C 89.57 384.77 88.62 386.36 87.76 387.95 C 86.67 380.88 85.42 373.81 85.24 366.64 Z" />
<path fill="#00694e" opacity="1.00" d=" M 58.33 371.73 C 60.18 371.51 62.06 370.95 63.92 371.29 C 66.68 372.69 68.86 375.37 72.18 375.42 L 72.60 375.08 C 73.56 383.07 74.87 391.02 75.17 399.08 L 75.21 399.46 C 73.91 401.18 71.97 402.77 71.81 405.07 C 71.93 408.17 74.33 410.41 76.01 412.78 C 76.28 413.31 76.55 413.85 76.82 414.40 C 77.16 418.49 77.42 422.59 78.03 426.65 C 73.69 428.55 70.44 432.01 67.19 435.32 C 63.04 424.34 63.07 412.47 61.91 400.94 C 61.49 391.46 59.93 382.10 58.47 372.74 L 58.33 371.73 Z" />
<path fill="#00694e" opacity="1.00" d=" M 129.33 376.65 C 135.73 384.93 141.28 393.81 147.12 402.48 C 147.22 402.76 147.43 403.32 147.54 403.59 C 147.58 408.83 147.49 414.08 146.80 419.29 C 140.88 414.80 134.45 411.00 128.75 406.22 C 130.07 396.42 129.09 386.50 129.33 376.65 Z" />
<path fill="#00694e" opacity="1.00" d=" M 241.77 384.53 C 244.58 382.82 247.42 381.15 250.31 379.57 C 251.12 385.52 252.03 391.47 252.89 397.42 C 250.17 399.04 247.46 400.66 244.88 402.49 C 244.00 397.44 243.19 392.38 242.22 387.35 C 242.06 386.41 241.91 385.47 241.77 384.53 Z" />
<path fill="#00694e" opacity="1.00" d=" M 228.95 390.21 C 231.58 387.51 234.29 384.88 237.21 382.48 C 235.60 394.30 232.53 405.84 229.24 417.27 C 229.13 408.43 229.28 399.59 228.97 390.76 L 228.95 390.21 Z" />
<path fill="#00694e" opacity="1.00" d=" M 244.86 403.76 C 247.53 402.57 250.42 402.05 253.29 401.62 C 256.27 422.36 258.72 443.17 261.23 463.97 C 262.15 472.97 263.44 481.95 263.72 491.00 C 263.98 499.93 267.21 508.36 269.34 516.93 C 266.16 516.53 262.97 516.27 259.78 516.07 C 257.33 508.13 254.35 500.21 253.90 491.84 C 255.17 491.71 258.34 489.51 255.86 488.81 C 255.42 488.93 254.55 489.19 254.12 489.31 C 253.61 483.75 253.30 478.16 252.62 472.62 L 252.70 472.31 C 255.89 470.61 258.91 468.53 261.35 465.84 C 258.33 466.98 255.54 468.62 253.08 470.70 L 252.43 471.17 C 250.50 448.64 247.65 426.19 244.86 403.76 Z" />
<path fill="#00694e" opacity="1.00" d=" M 129.39 407.28 C 135.68 411.72 142.00 416.13 148.22 420.68 C 147.51 426.32 146.96 432.11 148.09 437.73 C 147.52 437.93 146.39 438.33 145.82 438.52 C 143.44 437.77 138.93 438.48 140.57 441.93 C 142.03 442.45 143.53 442.87 145.02 443.30 C 145.00 442.75 144.96 441.66 144.95 441.12 C 145.92 441.67 146.91 442.21 147.90 442.74 C 147.32 444.06 147.16 445.50 147.17 446.95 C 146.37 448.14 145.26 448.52 143.86 448.09 C 143.29 448.93 142.73 449.79 142.19 450.66 C 142.07 448.55 139.95 447.20 138.04 447.88 C 134.68 448.70 134.70 454.34 138.03 455.23 C 139.71 455.98 141.34 454.95 142.79 454.21 C 140.61 453.98 138.39 453.72 136.66 452.23 C 139.01 452.00 141.37 451.87 143.73 451.72 C 143.67 452.68 143.54 454.58 143.47 455.54 L 145.18 455.30 C 145.21 453.56 145.23 451.82 145.34 450.09 C 145.66 449.91 146.31 449.54 146.64 449.36 C 147.34 453.27 147.38 457.26 147.17 461.22 C 141.09 461.29 135.01 461.21 128.93 461.28 C 128.88 459.10 128.84 456.93 128.74 454.76 C 129.29 454.98 130.40 455.43 130.95 455.66 C 130.17 452.47 130.14 449.18 130.15 445.92 C 129.84 445.37 129.22 444.27 128.90 443.72 C 128.92 443.54 128.95 443.18 128.96 443.00 C 129.81 440.81 130.04 438.42 129.09 436.22 C 129.50 426.58 129.40 416.92 129.39 407.28 M 131.11 438.48 C 131.02 439.83 130.93 441.18 130.84 442.54 C 131.47 441.22 132.17 439.94 132.94 438.70 C 133.01 439.56 133.16 441.28 133.24 442.14 L 133.98 442.12 C 134.05 441.28 134.19 439.60 134.26 438.76 C 134.86 439.94 135.51 441.10 136.22 442.24 C 136.13 440.96 136.03 439.70 135.92 438.44 C 134.31 438.46 132.71 438.47 131.11 438.48 M 138.33 437.59 C 138.50 438.38 138.85 439.96 139.02 440.75 L 137.11 439.24 C 137.11 440.33 137.12 441.42 137.13 442.52 C 138.05 442.28 138.98 442.05 139.90 441.82 C 139.63 440.31 140.00 438.38 138.33 437.59 M 142.66 443.32 C 143.07 443.72 143.07 443.72 142.66 443.32 M 132.53 444.39 C 132.17 447.77 132.36 451.17 132.37 454.57 C 133.05 454.83 134.42 455.35 135.10 455.61 C 133.05 452.22 134.43 448.18 133.55 444.54 C 133.30 444.50 132.79 444.42 132.53 444.39 Z" />
<path fill="#00694e" opacity="1.00" d=" M 231.82 419.92 C 232.94 416.57 235.14 413.76 236.80 410.69 C 236.26 419.78 234.75 428.89 235.60 438.02 C 236.01 443.49 236.22 449.42 233.32 454.32 C 232.22 456.48 229.77 457.23 227.80 458.36 C 228.38 448.57 229.00 438.77 228.54 428.97 C 229.87 426.04 230.79 422.96 231.82 419.92 Z" />
<path fill="#00694e" opacity="1.00" d=" M 164.26 423.95 C 169.90 427.27 175.53 430.65 181.58 433.18 L 181.60 433.59 C 181.78 439.86 181.90 446.14 182.23 452.42 C 181.03 452.42 179.84 452.44 178.65 452.45 C 177.34 453.35 175.96 454.12 174.57 454.88 C 175.09 452.02 172.16 450.83 170.53 449.17 C 171.67 448.99 173.96 448.63 175.11 448.45 C 172.73 447.26 169.51 447.61 169.25 450.77 C 170.88 451.74 172.44 452.85 173.87 454.12 C 172.13 453.97 170.39 453.80 168.66 453.62 C 169.71 455.67 171.94 455.48 173.88 454.98 C 174.35 455.14 174.83 455.31 175.30 455.49 C 176.55 454.56 177.89 454.03 179.21 455.17 C 180.26 454.84 181.31 454.53 182.37 454.23 L 182.42 455.48 C 182.43 457.42 182.34 459.36 182.25 461.30 C 176.50 461.44 170.75 461.56 165.00 461.48 C 164.95 457.25 164.93 453.02 164.79 448.80 L 166.00 449.73 C 166.34 451.99 166.55 454.28 167.01 456.52 C 168.06 453.62 168.96 449.23 165.45 447.67 C 164.98 446.07 164.52 444.48 164.05 442.90 C 165.70 441.74 166.53 439.98 166.72 437.98 C 167.96 438.98 168.76 440.24 168.73 441.90 C 168.90 441.89 169.25 441.87 169.42 441.86 C 169.48 440.42 169.56 438.98 169.65 437.55 C 167.64 437.96 165.60 437.78 163.63 437.28 C 164.80 432.92 164.43 428.39 164.26 423.95 M 171.38 437.23 C 171.30 438.70 171.26 440.17 171.26 441.65 C 171.64 441.87 172.41 442.30 172.80 442.52 C 173.27 442.14 174.21 441.40 174.68 441.03 C 174.00 441.13 172.64 441.34 171.95 441.45 L 171.97 439.52 C 172.74 439.87 174.29 440.57 175.06 440.92 C 174.01 439.93 172.92 438.99 171.78 438.11 C 172.44 437.97 173.74 437.68 174.39 437.54 C 173.39 437.41 172.38 437.31 171.38 437.23 Z" />
<path fill="#00694e" opacity="1.00" d=" M 69.93 443.13 C 73.26 440.17 76.83 437.51 80.16 434.55 C 82.86 444.24 86.39 453.72 91.32 462.51 C 91.75 464.95 91.58 467.47 92.17 469.90 C 93.29 473.49 96.72 476.06 97.00 479.96 C 97.50 484.44 97.42 488.97 97.30 493.48 C 95.29 490.37 93.12 487.37 91.08 484.30 L 91.40 484.04 C 93.71 482.60 95.97 480.90 96.10 477.93 C 93.73 478.79 91.40 479.76 89.20 481.00 C 87.38 478.37 85.69 475.65 83.78 473.09 C 85.95 473.07 88.12 472.94 90.29 472.80 C 87.62 471.49 84.86 470.36 81.99 469.58 C 81.76 469.51 81.32 469.39 81.09 469.32 C 77.06 460.72 73.10 452.08 69.93 443.13 Z" />
<path fill="#00694e" opacity="1.00" d=" M 56.28 452.16 L 56.64 451.92 C 58.89 456.02 60.99 460.20 63.08 464.38 C 59.81 463.44 56.43 462.99 53.05 462.73 C 56.32 465.22 60.28 466.41 64.16 467.59 C 64.33 467.64 64.68 467.76 64.85 467.81 C 67.35 475.92 73.28 482.20 77.93 489.09 C 82.57 495.43 86.84 502.14 89.41 509.62 C 91.97 517.13 94.72 524.69 95.63 532.63 C 91.55 533.35 87.51 534.33 83.55 535.56 C 80.48 525.31 78.26 514.72 73.47 505.07 C 72.58 503.46 71.56 501.93 70.51 500.43 C 65.20 489.75 55.75 481.60 51.64 470.29 C 49.98 466.29 48.02 462.41 45.70 458.76 C 49.39 456.83 52.80 454.42 56.28 452.16 Z" />
<path fill="#00694e" opacity="1.00" d=" M 178.97 453.28 C 182.07 451.60 179.21 456.54 178.97 453.28 Z" />
<path fill="#00694e" opacity="1.00" d=" M 42.94 486.50 C 45.96 488.78 49.20 490.75 52.20 493.07 C 52.74 493.57 53.28 494.08 53.82 494.59 C 56.67 499.69 60.50 504.15 64.67 508.22 C 68.28 511.98 72.44 515.83 73.68 521.11 C 74.45 527.01 73.81 532.99 74.04 538.93 C 72.01 539.75 69.97 540.55 67.92 541.33 C 67.69 536.01 68.42 530.63 67.51 525.36 C 66.24 520.12 62.70 515.82 59.08 511.98 C 55.70 508.27 50.97 505.72 48.76 501.02 C 46.50 496.32 44.18 491.58 42.94 486.50 Z" />
<path fill="#00694e" opacity="1.00" d=" M 240.80 495.83 C 242.48 496.05 244.18 496.29 245.87 496.54 C 247.30 503.75 249.15 510.88 251.90 517.71 C 250.48 518.76 249.04 519.79 247.61 520.82 C 245.76 516.14 243.71 511.46 242.79 506.49 C 242.34 502.90 241.91 499.28 240.80 495.83 Z" />
</g>
<g id="#458f7dff">
<path fill="#458f7d" opacity="1.00" d=" M 105.37 34.09 C 111.12 24.61 120.08 17.06 130.33 12.87 C 126.46 18.25 121.96 23.14 118.26 28.65 C 118.05 28.91 117.62 29.43 117.41 29.69 C 113.20 30.55 109.12 31.97 105.37 34.09 Z" />
<path fill="#458f7d" opacity="1.00" d=" M 100.19 55.20 C 102.51 51.81 106.16 49.70 109.82 48.03 C 110.59 50.73 111.03 53.74 113.01 55.89 C 115.22 58.39 118.45 59.55 121.40 60.95 C 120.81 61.18 119.63 61.66 119.04 61.89 C 115.71 62.69 112.02 62.93 109.29 65.23 C 105.09 68.27 101.93 72.61 100.78 77.70 C 99.06 81.42 96.78 84.90 95.62 88.88 C 95.52 82.67 94.47 76.46 95.19 70.26 C 96.20 65.08 97.11 59.62 100.19 55.20 Z" />
<path fill="#458f7d" opacity="1.00" d=" M 57.17 207.21 C 57.99 206.75 58.81 206.30 59.64 205.86 C 59.38 206.32 58.87 207.25 58.61 207.71 C 55.92 211.59 58.44 216.18 58.53 220.41 C 55.57 219.22 52.40 218.38 49.23 219.27 C 52.62 215.74 54.12 210.96 57.17 207.21 Z" />
<path fill="#458f7d" opacity="1.00" d=" M 233.43 245.62 C 235.33 251.40 235.80 257.50 236.94 263.46 C 237.05 265.84 237.16 268.23 237.25 270.62 C 236.70 276.13 236.60 281.67 236.34 287.20 C 233.95 281.42 234.63 275.08 234.15 268.99 C 233.61 261.21 233.29 253.42 233.43 245.62 Z" />
<path fill="#458f7d" opacity="1.00" d=" M 130.51 285.88 C 130.42 284.21 131.87 283.27 132.94 282.28 C 134.28 291.53 132.61 300.83 131.17 309.96 C 130.13 315.93 132.21 321.81 134.79 327.10 C 139.07 336.34 141.85 346.18 145.93 355.51 C 146.28 356.80 146.63 358.10 146.98 359.41 C 146.57 364.72 146.58 370.05 146.79 375.37 C 142.94 371.16 143.37 365.29 143.26 360.00 C 143.24 353.64 139.80 348.13 137.54 342.40 C 135.14 336.30 133.17 330.04 131.22 323.79 C 129.59 318.38 127.85 312.79 128.51 307.07 C 129.32 300.02 129.84 292.94 130.51 285.88 Z" />
<path fill="#458f7d" opacity="1.00" d=" M 106.26 311.67 C 106.67 317.95 106.63 324.25 106.92 330.54 C 106.17 335.13 105.97 339.83 106.95 344.40 C 107.06 346.44 107.08 348.49 107.08 350.54 C 105.24 350.65 102.94 349.94 101.55 351.53 C 99.61 353.68 99.03 357.06 100.22 359.71 C 101.97 362.15 104.76 363.52 107.16 365.23 C 107.20 367.20 107.25 369.18 107.29 371.16 C 101.74 366.86 96.38 362.26 91.77 356.94 C 95.95 353.90 100.14 350.12 101.61 345.00 C 102.73 333.83 104.92 322.81 106.26 311.67 Z" />
<path fill="#458f7d" opacity="1.00" d=" M 26.19 326.65 C 30.20 327.98 34.01 329.79 37.71 331.81 C 37.43 334.60 37.17 337.38 37.04 340.18 C 33.15 337.32 29.28 334.44 25.21 331.84 C 25.55 330.11 25.88 328.38 26.19 326.65 Z" />
<path fill="#458f7d" opacity="1.00" d=" M 55.54 348.20 C 55.74 345.25 56.27 342.33 56.84 339.44 C 60.51 343.17 64.76 346.26 69.12 349.14 C 69.29 349.26 69.64 349.49 69.81 349.60 C 69.73 358.29 71.99 366.76 72.18 375.42 C 68.86 375.37 66.68 372.69 63.92 371.29 C 62.06 370.95 60.18 371.51 58.33 371.73 C 58.17 370.54 58.02 369.35 57.86 368.17 C 59.88 367.54 63.26 367.53 63.60 364.83 C 62.30 359.24 58.68 354.55 56.09 349.52 C 55.95 349.19 55.68 348.53 55.54 348.20 Z" />
<path fill="#458f7d" opacity="1.00" d=" M 84.85 346.60 C 88.23 344.84 91.67 343.21 95.16 341.70 C 92.58 346.92 89.62 351.94 86.70 356.98 C 86.01 358.11 85.23 359.19 84.47 360.29 C 84.52 355.84 84.29 351.40 84.18 346.95 C 84.35 346.87 84.69 346.69 84.85 346.60 Z" />
<path fill="#458f7d" opacity="1.00" d=" M 242.52 348.03 C 242.74 348.50 243.17 349.45 243.39 349.93 C 242.16 354.49 241.47 359.17 241.12 363.88 C 239.84 379.49 238.13 395.08 236.80 410.69 C 235.14 413.76 232.94 416.57 231.82 419.92 C 230.79 422.96 229.87 426.04 228.54 428.97 C 228.23 425.05 228.55 421.13 229.24 417.27 C 232.53 405.84 235.60 394.30 237.21 382.48 C 234.29 384.88 231.58 387.51 228.95 390.21 C 228.88 388.71 228.83 387.23 228.80 385.74 L 229.06 385.27 C 232.12 380.62 235.44 376.15 238.35 371.41 C 242.48 365.43 238.13 357.89 240.95 351.45 C 241.46 350.30 241.98 349.16 242.52 348.03 Z" />
<path fill="#458f7d" opacity="1.00" d=" M 243.91 363.16 C 245.16 362.14 246.43 361.13 247.69 360.11 C 247.75 360.65 247.86 361.72 247.92 362.25 L 247.94 362.50 C 245.83 364.22 243.71 366.19 243.21 369.02 C 243.49 367.07 243.72 365.12 243.91 363.16 Z" />
<path fill="#458f7d" opacity="1.00" d=" M 129.12 369.96 C 132.39 374.09 135.80 378.17 138.04 382.99 C 140.47 388.17 143.61 392.96 147.09 397.49 L 147.25 397.95 C 147.21 399.46 147.17 400.97 147.12 402.48 C 141.28 393.81 135.73 384.93 129.33 376.65 L 129.14 376.22 C 129.10 374.13 129.16 372.04 129.12 369.96 Z" />
<path fill="#458f7d" opacity="1.00" d=" M 242.86 374.39 C 245.13 374.30 247.41 374.20 249.68 374.11 C 249.89 375.79 250.07 377.48 250.27 379.17 L 250.31 379.57 C 247.42 381.15 244.58 382.82 241.77 384.53 C 242.07 381.14 242.47 377.77 242.86 374.39 Z" />
<path fill="#458f7d" opacity="1.00" d=" M 11.65 378.89 C 13.37 379.93 15.08 380.99 16.79 382.05 L 16.82 382.67 C 16.73 388.88 16.65 395.10 16.64 401.32 C 11.75 395.04 11.34 386.53 11.65 378.89 Z" />
<path fill="#458f7d" opacity="1.00" d=" M 98.66 383.64 C 101.63 385.42 104.44 387.47 107.10 389.69 C 109.13 391.40 111.07 393.21 112.98 395.06 C 111.24 393.93 109.52 392.78 107.83 391.60 C 104.49 389.29 101.31 386.73 98.66 383.64 Z" />
<path fill="#458f7d" opacity="1.00" d=" M 30.37 390.94 C 33.07 391.77 35.69 392.90 37.82 394.80 C 35.65 395.60 33.45 396.33 31.24 397.04 C 30.95 395.00 30.66 392.97 30.37 390.94 Z" />
<path fill="#458f7d" opacity="1.00" d=" M 244.88 402.49 C 247.46 400.66 250.17 399.04 252.89 397.42 C 253.02 398.82 253.15 400.22 253.29 401.62 C 250.42 402.05 247.53 402.57 244.86 403.76 C 243.08 404.77 241.36 405.87 239.58 406.87 C 239.78 406.66 240.19 406.23 240.39 406.02 C 241.81 404.74 243.32 403.58 244.88 402.49 Z" />
<path fill="#458f7d" opacity="1.00" d=" M 71.81 405.07 C 71.97 402.77 73.91 401.18 75.21 399.46 C 75.77 403.88 76.03 408.33 76.01 412.78 C 74.33 410.41 71.93 408.17 71.81 405.07 Z" />
<path fill="#458f7d" opacity="1.00" d=" M 164.17 418.02 C 168.74 423.28 175.14 426.25 181.32 429.17 C 181.41 430.50 181.50 431.84 181.58 433.18 C 175.53 430.65 169.90 427.27 164.26 423.95 L 164.26 423.55 C 164.23 421.70 164.24 419.86 164.17 418.02 Z" />
<path fill="#458f7d" opacity="1.00" d=" M 67.19 435.32 C 70.44 432.01 73.69 428.55 78.03 426.65 C 78.76 429.28 79.46 431.91 80.16 434.55 C 76.83 437.51 73.26 440.17 69.93 443.13 C 69.05 440.61 68.15 438.11 67.28 435.60 L 67.19 435.32 Z" />
<path fill="#458f7d" opacity="1.00" d=" M 238.25 451.24 C 239.27 448.91 240.59 446.74 242.01 444.64 C 242.71 451.10 242.80 457.64 241.81 464.08 C 241.02 468.36 242.35 472.56 243.59 476.61 C 244.75 483.20 244.60 489.95 245.87 496.54 C 244.18 496.29 242.48 496.05 240.80 495.83 C 239.19 490.72 239.04 485.34 239.57 480.06 C 239.42 472.59 237.76 465.24 236.55 457.90 C 236.09 455.53 237.45 453.37 238.25 451.24 Z" />
<path fill="#458f7d" opacity="1.00" d=" M 45.12 457.41 C 48.34 454.17 51.77 451.15 55.01 447.95 C 55.45 449.35 55.86 450.75 56.28 452.16 C 52.80 454.42 49.39 456.83 45.70 458.76 C 45.25 458.74 44.34 458.69 43.89 458.67 C 44.20 458.35 44.82 457.72 45.12 457.41 Z" />
<path fill="#458f7d" opacity="1.00" d=" M 201.50 460.91 C 202.66 459.11 203.76 457.26 204.80 455.39 C 207.82 456.70 210.86 458.01 214.06 458.85 C 216.54 459.27 219.04 459.57 221.56 459.68 C 214.94 460.77 208.20 461.72 201.50 460.91 Z" />
<path fill="#458f7d" opacity="1.00" d=" M 89.20 481.00 C 91.40 479.76 93.73 478.79 96.10 477.93 C 95.97 480.90 93.71 482.60 91.40 484.04 C 90.52 483.12 89.63 482.21 88.74 481.30 L 89.20 481.00 Z" />
<path fill="#458f7d" opacity="1.00" d=" M 40.20 481.57 C 43.48 480.52 45.92 483.24 48.19 485.11 C 48.43 485.48 48.90 486.21 49.14 486.58 C 50.19 488.73 51.11 490.94 52.20 493.07 C 49.20 490.75 45.96 488.78 42.94 486.50 C 41.69 485.07 41.05 483.23 40.20 481.57 Z" />
</g>
<g id="#546379ff">
<path fill="#546379" opacity="1.00" d=" M 105.37 34.09 C 109.12 31.97 113.20 30.55 117.41 29.69 C 113.99 35.25 110.85 41.23 110.29 47.85 L 109.82 48.03 C 106.16 49.70 102.51 51.81 100.19 55.20 C 97.11 59.62 96.20 65.08 95.19 70.26 C 95.47 57.64 98.53 44.81 105.37 34.09 Z" />
<path fill="#546379" opacity="1.00" d=" M 119.68 169.97 C 128.03 172.90 135.65 177.55 143.57 181.44 C 146.89 183.17 150.36 184.70 153.35 186.99 C 145.54 184.06 138.30 179.83 130.77 176.27 C 127.01 174.30 123.00 172.69 119.68 169.97 Z" />
<path fill="#546379" opacity="1.00" d=" M 144.01 173.92 C 147.39 175.47 150.47 177.63 153.15 180.21 C 149.77 178.64 146.75 176.43 144.01 173.92 Z" />
<path fill="#546379" opacity="1.00" d=" M 153.92 180.90 C 157.32 182.34 160.42 184.43 163.01 187.05 C 159.79 185.31 156.67 183.34 153.92 180.90 Z" />
<path fill="#546379" opacity="1.00" d=" M 186.07 202.33 L 186.79 201.74 L 186.79 202.36 C 186.76 207.08 186.69 211.81 186.87 216.53 C 184.30 214.09 181.72 211.66 179.43 208.96 C 181.42 206.54 183.61 204.28 186.07 202.33 Z" />
<path fill="#546379" opacity="1.00" d=" M 26.81 231.22 C 32.64 227.96 37.42 222.16 44.38 221.43 C 36.49 226.49 28.58 231.71 21.79 238.21 C 23.36 235.83 24.49 233.00 26.81 231.22 Z" />
<path fill="#546379" opacity="1.00" d=" M 180.38 222.62 C 182.66 228.17 182.57 234.26 183.13 240.13 C 183.63 245.58 183.83 251.07 183.43 256.53 C 182.23 247.09 180.77 237.67 179.76 228.20 C 179.89 226.33 180.13 224.47 180.38 222.62 Z" />
<path fill="#546379" opacity="1.00" d=" M 229.17 230.52 C 233.29 235.08 235.42 241.05 237.18 246.83 C 237.43 252.37 237.25 257.92 236.94 263.46 C 235.80 257.50 235.33 251.40 233.43 245.62 C 232.01 240.58 230.56 235.56 229.17 230.52 Z" />
<path fill="#546379" opacity="1.00" d=" M 109.27 242.23 C 112.35 243.55 113.81 246.87 115.35 249.63 C 116.65 252.49 118.34 255.59 117.80 258.82 C 114.50 263.76 109.01 267.23 107.09 273.06 C 105.62 277.94 104.29 283.22 105.72 288.28 C 107.36 295.22 110.31 301.86 111.32 308.95 C 111.25 316.32 109.84 323.75 106.92 330.54 C 106.63 324.25 106.67 317.95 106.26 311.67 C 107.12 302.96 103.53 294.68 104.05 285.99 C 104.30 279.40 104.78 272.76 106.59 266.38 C 107.75 262.57 104.72 259.49 103.00 256.45 C 102.46 254.30 102.04 252.12 101.76 249.93 L 101.93 249.65 C 103.91 246.80 105.99 243.69 109.27 242.23 Z" />
<path fill="#546379" opacity="1.00" d=" M 182.44 287.99 C 182.25 279.22 181.33 270.46 181.58 261.68 C 183.33 275.05 184.93 288.50 184.65 302.01 C 184.67 320.60 186.70 339.11 188.19 357.62 C 188.07 357.98 187.84 358.71 187.72 359.07 C 187.15 355.70 186.60 352.33 185.92 348.98 C 184.34 341.42 184.52 333.66 183.96 326.00 C 183.50 313.33 182.74 300.67 182.44 287.99 Z" />
<path fill="#546379" opacity="1.00" d=" M 249.12 334.32 C 249.38 329.84 249.49 325.28 250.78 320.94 C 251.09 322.42 251.43 323.90 251.72 325.39 C 250.98 328.40 249.96 331.34 249.12 334.32 Z" />
<path fill="#546379" opacity="1.00" d=" M 13.66 322.53 C 17.91 323.62 22.09 324.92 26.26 326.29 L 26.19 326.65 C 25.88 328.38 25.55 330.11 25.21 331.84 C 20.91 330.31 15.96 329.31 13.17 325.31 C 13.29 324.61 13.54 323.23 13.66 322.53 Z" />
<path fill="#546379" opacity="1.00" d=" M 37.71 331.81 C 45.02 336.05 47.74 344.51 50.07 352.10 C 45.66 348.37 41.60 344.24 37.03 340.68 L 37.04 340.18 C 37.17 337.38 37.43 334.60 37.71 331.81 Z" />
<path fill="#546379" opacity="1.00" d=" M 55.54 348.20 C 53.21 342.81 48.39 337.99 49.18 331.71 C 51.60 333.94 53.85 336.35 56.14 338.73 C 56.31 338.91 56.66 339.26 56.84 339.44 C 56.27 342.33 55.74 345.25 55.54 348.20 Z" />
<path fill="#546379" opacity="1.00" d=" M 106.95 344.40 C 113.74 353.27 121.50 361.29 128.96 369.58 L 129.12 369.96 C 129.16 372.04 129.10 374.13 129.14 376.22 C 122.25 367.29 115.58 358.05 107.08 350.54 C 107.08 348.49 107.06 346.44 106.95 344.40 Z" />
<path fill="#546379" opacity="1.00" d=" M 69.81 349.60 C 74.76 352.15 79.84 349.36 84.18 346.95 C 84.29 351.40 84.52 355.84 84.47 360.29 C 84.40 360.58 84.26 361.16 84.19 361.45 C 81.02 366.54 77.16 371.19 72.60 375.08 L 72.18 375.42 C 71.99 366.76 69.73 358.29 69.81 349.60 Z" />
<path fill="#546379" opacity="1.00" d=" M 146.98 359.41 C 149.11 364.27 150.08 369.53 149.92 374.83 C 148.88 375.25 147.84 375.67 146.81 376.10 L 146.79 375.37 C 146.58 370.05 146.57 364.72 146.98 359.41 Z" />
<path fill="#546379" opacity="1.00" d=" M 107.16 365.23 C 112.37 369.53 117.75 373.69 122.41 378.61 C 123.95 380.10 124.75 382.12 125.50 384.09 C 118.73 381.04 113.33 375.84 107.30 371.64 L 107.29 371.16 C 107.25 369.18 107.20 367.20 107.16 365.23 Z" />
<path fill="#546379" opacity="1.00" d=" M 249.64 373.76 C 252.81 372.88 255.92 371.75 258.85 370.24 C 259.02 371.48 259.18 372.73 259.35 373.98 C 256.23 375.54 253.26 377.39 250.27 379.17 C 250.07 377.48 249.89 375.79 249.68 374.11 L 249.64 373.76 Z" />
<path fill="#546379" opacity="1.00" d=" M 16.82 382.67 C 21.25 385.45 25.50 388.59 30.34 390.68 L 30.37 390.94 C 30.66 392.97 30.95 395.00 31.24 397.04 C 26.26 398.02 21.32 399.33 16.64 401.32 C 16.65 395.10 16.73 388.88 16.82 382.67 Z" />
<path fill="#546379" opacity="1.00" d=" M 83.61 398.56 C 86.22 395.22 88.85 391.90 91.35 388.48 C 91.31 390.52 90.99 392.56 90.24 394.47 C 86.00 397.72 87.05 403.25 87.34 407.90 C 85.36 405.34 81.07 402.08 83.61 398.56 Z" />
<path fill="#546379" opacity="1.00" d=" M 75.17 399.08 C 78.61 395.84 82.20 392.70 86.41 390.48 C 84.17 394.83 78.02 398.27 80.29 403.89 C 82.62 408.56 86.92 411.90 89.27 416.59 C 88.69 417.71 88.11 418.85 87.53 419.99 C 83.29 419.75 79.80 417.21 76.82 414.40 C 76.55 413.85 76.28 413.31 76.01 412.78 C 76.03 408.33 75.77 403.88 75.21 399.46 L 75.17 399.08 Z" />
<path fill="#546379" opacity="1.00" d=" M 147.25 397.95 C 152.38 404.89 157.96 411.52 164.01 417.68 L 164.17 418.02 C 164.24 419.86 164.23 421.70 164.26 423.55 C 159.90 420.83 155.37 417.92 152.52 413.53 C 150.70 410.30 149.23 406.89 147.54 403.59 C 147.43 403.32 147.22 402.76 147.12 402.48 C 147.17 400.97 147.21 399.46 147.25 397.95 Z" />
<path fill="#546379" opacity="1.00" d=" M 252.89 397.42 C 256.28 397.45 259.84 397.67 262.57 399.96 C 259.59 401.01 256.45 401.56 253.29 401.62 C 253.15 400.22 253.02 398.82 252.89 397.42 Z" />
<path fill="#546379" opacity="1.00" d=" M 78.03 426.65 C 82.51 426.75 86.99 427.15 91.33 428.31 C 90.20 430.62 88.71 432.73 86.75 434.41 C 84.55 434.25 82.34 434.30 80.16 434.55 C 79.46 431.91 78.76 429.28 78.03 426.65 Z" />
<path fill="#546379" opacity="1.00" d=" M 181.32 429.17 C 187.37 432.16 193.41 435.17 199.48 438.15 C 199.42 438.84 199.31 440.22 199.26 440.91 C 193.74 437.67 187.79 435.21 181.60 433.59 L 181.58 433.18 C 181.50 431.84 181.41 430.50 181.32 429.17 Z" />
<path fill="#546379" opacity="1.00" d=" M 54.93 447.68 C 59.19 443.80 63.08 439.54 67.28 435.60 C 68.15 438.11 69.05 440.61 69.93 443.13 C 65.66 446.30 61.08 449.01 56.64 451.92 L 56.28 452.16 C 55.86 450.75 55.45 449.35 55.01 447.95 L 54.93 447.68 Z" />
<path fill="#546379" opacity="1.00" d=" M 214.81 436.54 C 216.90 441.04 220.78 444.18 224.56 447.22 C 220.74 448.56 217.49 446.18 214.72 443.86 C 214.76 442.00 214.84 440.16 214.83 438.31 L 214.81 436.54 Z" />
<path fill="#546379" opacity="1.00" d=" M 63.66 464.69 C 69.45 466.29 75.32 467.62 81.09 469.32 C 81.32 469.39 81.76 469.51 81.99 469.58 C 82.25 470.26 82.78 471.62 83.04 472.30 C 76.93 470.98 70.82 469.67 64.85 467.81 C 64.68 467.76 64.33 467.64 64.16 467.59 C 64.03 466.86 63.78 465.42 63.66 464.69 Z" />
<path fill="#546379" opacity="1.00" d=" M 252.43 471.17 L 253.08 470.70 L 252.70 472.31 L 252.62 472.62 C 250.53 474.49 247.95 475.94 246.41 478.37 C 244.67 482.21 246.33 486.46 247.90 490.07 C 249.97 489.81 252.04 489.55 254.12 489.31 C 254.06 489.95 253.95 491.21 253.90 491.84 C 251.56 493.93 248.80 495.46 245.87 496.54 C 244.60 489.95 244.75 483.20 243.59 476.61 C 246.59 474.88 249.59 473.15 252.43 471.17 Z" />
<path fill="#546379" opacity="1.00" d=" M 82.96 493.20 C 83.51 488.72 84.52 483.80 88.74 481.30 C 89.63 482.21 90.52 483.12 91.40 484.04 L 91.08 484.30 C 87.98 486.89 85.62 490.20 82.96 493.20 Z" />
<path fill="#546379" opacity="1.00" d=" M 49.14 486.58 C 55.79 491.86 62.07 498.13 70.51 500.43 C 71.56 501.93 72.58 503.46 73.47 505.07 C 66.05 503.46 60.38 498.05 53.82 494.59 C 53.28 494.08 52.74 493.57 52.20 493.07 C 51.11 490.94 50.19 488.73 49.14 486.58 Z" />
</g>
<g id="#4f6073ff">
<path fill="#4f6073" opacity="1.00" d=" M 109.29 65.23 C 112.02 62.93 115.71 62.69 119.04 61.89 C 115.93 64.52 112.42 66.63 109.36 69.32 C 106.31 71.92 103.76 75.03 100.78 77.70 C 101.93 72.61 105.09 68.27 109.29 65.23 Z" />
</g>
<g id="#13283cff">
<path fill="#13283c" opacity="1.00" d=" M 87.81 189.77 C 89.45 189.21 91.09 188.66 92.73 188.12 C 94.21 190.18 95.63 192.29 96.88 194.51 C 93.91 192.83 90.82 191.37 87.81 189.77 Z" />
</g>
<g id="#418b79ff">
<path fill="#418b79" opacity="1.00" d=" M 186.79 202.36 C 187.37 202.72 188.53 203.45 189.12 203.82 C 189.29 209.20 189.27 214.60 189.79 219.97 C 188.88 218.98 187.96 217.99 187.10 216.97 L 186.87 216.53 C 186.69 211.81 186.76 207.08 186.79 202.36 Z" />
</g>
<g id="#3e8174ff">
<path fill="#3e8174" opacity="1.00" d=" M 99.76 253.12 C 100.43 252.06 101.10 251.00 101.76 249.93 C 102.04 252.12 102.46 254.30 103.00 256.45 C 101.89 255.37 100.81 254.25 99.76 253.12 Z" />
</g>
<g id="#398674ff">
<path fill="#398674" opacity="1.00" d=" M 255.82 351.03 C 257.73 349.86 259.65 348.72 261.63 347.68 C 260.48 350.33 258.48 352.41 256.27 354.20 C 256.19 353.60 256.01 352.40 255.93 351.80 L 255.82 351.03 Z" />
</g>
<g id="#495970ff">
<path fill="#495970" opacity="1.00" d=" M 247.62 359.66 C 250.41 357.05 253.14 354.40 255.93 351.80 C 256.01 352.40 256.19 353.60 256.27 354.20 L 256.31 354.48 C 253.52 357.07 250.75 359.70 247.92 362.25 C 247.86 361.72 247.75 360.65 247.69 360.11 L 247.62 359.66 Z" />
</g>
<g id="#035e49ff">
<path fill="#035e49" opacity="1.00" d=" M 246.23 353.51 C 246.77 355.54 247.27 357.58 247.62 359.66 L 247.69 360.11 C 246.43 361.13 245.16 362.14 243.91 363.16 C 244.25 360.46 244.39 357.68 245.34 355.10 C 245.56 354.70 246.01 353.91 246.23 353.51 Z" />
</g>
<g id="#4d5d73ff">
<path fill="#4d5d73" opacity="1.00" d=" M 54.70 374.16 C 54.53 371.51 55.13 369.08 57.86 368.17 C 58.02 369.35 58.17 370.54 58.33 371.73 L 58.47 372.74 C 57.22 373.21 55.96 373.68 54.70 374.16 Z" />
</g>
<g id="#3f8978ff">
<path fill="#3f8978" opacity="1.00" d=" M 258.71 369.19 C 259.74 369.11 261.81 368.95 262.85 368.88 C 262.24 370.93 261.00 372.64 259.35 373.98 C 259.18 372.73 259.02 371.48 258.85 370.24 L 258.71 369.19 Z" />
</g>
<g id="#4a5d71ff">
<path fill="#4a5d71" opacity="1.00" d=" M 213.98 407.20 C 219.16 400.21 223.81 392.86 228.80 385.74 C 228.83 387.23 228.88 388.71 228.95 390.21 L 228.97 390.76 C 222.98 396.56 218.55 403.65 213.87 410.48 C 213.84 409.38 213.89 408.29 213.98 407.20 Z" />
</g>
<g id="#32435aff">
<path fill="#32435a" opacity="1.00" d=" M 195.40 389.70 C 196.29 392.55 196.76 395.53 196.26 398.51 C 195.45 396.24 194.72 393.89 194.74 391.46 C 194.91 391.02 195.24 390.14 195.40 389.70 Z" />
</g>
<g id="#388874ff">
<path fill="#388874" opacity="1.00" d=" M 95.88 405.75 C 100.48 410.57 103.88 416.35 108.20 421.40 C 108.35 423.11 108.43 424.82 108.42 426.54 C 103.50 420.13 98.36 413.56 95.88 405.75 Z" />
</g>
<g id="#368471ff">
<path fill="#368471" opacity="1.00" d=" M 201.66 420.51 C 207.36 423.53 210.38 429.55 214.36 434.37 C 214.51 435.08 214.66 435.81 214.81 436.54 L 214.83 438.31 C 211.29 431.75 205.70 426.70 201.66 420.51 Z" />
</g>
<g id="#637183ff">
<path fill="#637183" opacity="1.00" d=" M 151.33 438.40 C 152.05 436.49 154.34 437.15 155.91 436.79 C 156.76 438.55 157.14 440.41 156.10 442.20 C 154.72 442.15 153.35 442.11 151.97 442.07 C 151.82 440.87 150.47 439.56 151.33 438.40 M 154.94 440.51 L 155.70 440.02 L 155.68 438.99 L 154.90 438.54 L 154.67 438.02 C 151.63 436.92 153.19 443.21 154.94 440.51 Z" />
</g>
<g id="#94b5afff">
<path fill="#94b5af" opacity="1.00" d=" M 140.57 441.93 C 138.93 438.48 143.44 437.77 145.82 438.52 C 146.39 438.33 147.52 437.93 148.09 437.73 C 148.95 439.37 149.34 441.25 147.90 442.74 C 146.91 442.21 145.92 441.67 144.95 441.12 C 144.96 441.66 145.00 442.75 145.02 443.30 C 143.53 442.87 142.03 442.45 140.57 441.93 M 142.20 439.94 C 142.26 443.27 145.23 438.48 142.20 439.94 Z" />
</g>
<g id="#9ca4aeff">
<path fill="#9ca4ae" opacity="1.00" d=" M 154.94 440.51 C 153.19 443.21 151.63 436.92 154.67 438.02 L 154.90 438.54 C 154.91 439.03 154.93 440.02 154.94 440.51 Z" />
</g>
<g id="#1e334eff">
<path fill="#1e334e" opacity="1.00" d=" M 154.94 440.51 C 154.93 440.02 154.91 439.03 154.90 438.54 L 155.68 438.99 L 155.70 440.02 L 154.94 440.51 Z" />
</g>
<g id="#8897a1ff">
<path fill="#8897a1" opacity="1.00" d=" M 112.55 442.64 C 113.62 441.57 114.70 440.50 115.76 439.43 C 114.35 444.95 116.84 450.52 116.07 456.14 C 113.72 457.15 111.26 457.98 108.68 458.13 C 108.05 457.66 106.79 456.72 106.16 456.26 C 108.66 455.88 111.19 455.75 113.72 455.74 L 113.72 455.66 C 113.69 455.16 113.63 454.16 113.60 453.66 C 113.80 450.90 113.99 448.14 114.11 445.38 C 112.87 445.59 111.63 445.82 110.40 446.09 L 110.11 446.29 C 108.72 446.02 107.33 445.74 105.93 445.52 L 104.60 445.90 C 104.93 445.35 105.59 444.26 105.93 443.71 C 108.72 443.78 111.51 443.83 114.30 443.89 C 113.86 443.58 112.99 442.95 112.55 442.64 Z" />
</g>
<g id="#388773ff">
<path fill="#388773" opacity="1.00" d=" M 142.20 439.94 C 145.23 438.48 142.26 443.27 142.20 439.94 Z" />
</g>
<g id="#3e8b78ff">
<path fill="#3e8b78" opacity="1.00" d=" M 202.21 440.38 C 204.74 441.43 206.28 444.56 206.56 447.23 C 206.29 451.45 203.39 454.86 200.71 457.88 C 200.72 456.47 200.76 455.07 200.81 453.67 C 201.85 452.06 203.14 450.51 203.61 448.61 C 204.26 445.73 201.21 443.18 202.21 440.38 Z" />
</g>
<g id="#a2c2baff">
<path fill="#a2c2ba" opacity="1.00" d=" M 142.66 443.32 C 143.07 443.72 143.07 443.72 142.66 443.32 Z" />
</g>
<g id="#529685ff">
<path fill="#529685" opacity="1.00" d=" M 104.43 456.48 C 104.09 453.00 103.21 449.22 104.60 445.90 L 105.93 445.52 C 105.92 448.56 105.94 451.63 106.71 454.60 L 106.96 455.83 C 106.67 455.95 106.09 456.18 105.80 456.30 C 105.46 456.34 104.77 456.43 104.43 456.48 Z" />
</g>
<g id="#d4d9daff">
<path fill="#d4d9da" opacity="1.00" d=" M 105.93 445.52 C 107.33 445.74 108.72 446.02 110.11 446.29 C 108.69 448.93 107.55 451.72 106.71 454.60 C 105.94 451.63 105.92 448.56 105.93 445.52 Z" />
</g>
<g id="#d8dadcff">
<path fill="#d8dadc" opacity="1.00" d=" M 110.40 446.09 C 111.63 445.82 112.87 445.59 114.11 445.38 C 113.99 448.14 113.80 450.90 113.60 453.66 C 112.55 451.13 111.44 448.62 110.40 446.09 Z" />
</g>
<g id="#e6e7e7ff">
<path fill="#e6e7e7" opacity="1.00" d=" M 147.17 446.95 C 147.99 446.61 148.81 446.27 149.64 445.93 C 150.48 446.79 151.31 447.69 152.08 448.64 C 148.79 449.43 150.10 453.93 152.33 455.23 C 151.16 455.15 150.00 455.25 148.85 455.40 C 148.72 453.05 148.63 450.69 148.56 448.36 C 148.08 448.61 147.12 449.11 146.64 449.36 C 146.31 449.54 145.66 449.91 145.34 450.09 C 145.23 451.82 145.21 453.56 145.18 455.30 L 143.47 455.54 C 143.54 454.58 143.67 452.68 143.73 451.72 C 141.37 451.87 139.01 452.00 136.66 452.23 C 138.39 453.72 140.61 453.98 142.79 454.21 C 141.34 454.95 139.71 455.98 138.03 455.23 C 134.70 454.34 134.68 448.70 138.04 447.88 C 139.95 447.20 142.07 448.55 142.19 450.66 C 142.73 449.79 143.29 448.93 143.86 448.09 C 145.26 448.52 146.37 448.14 147.17 446.95 M 138.05 449.37 C 136.92 450.76 139.52 451.91 140.42 450.80 C 141.48 449.41 138.94 448.23 138.05 449.37 Z" />
</g>
<g id="#5d9c8cff">
<path fill="#5d9c8c" opacity="1.00" d=" M 138.05 449.37 C 138.94 448.23 141.48 449.41 140.42 450.80 C 139.52 451.91 136.92 450.76 138.05 449.37 Z" />
</g>
<g id="#afb6bdff">
<path fill="#afb6bd" opacity="1.00" d=" M 185.44 452.42 C 187.29 452.12 189.16 451.87 191.02 451.64 C 190.98 452.73 190.89 454.91 190.85 455.99 C 190.26 454.83 189.66 453.69 189.05 452.55 C 189.07 453.26 189.09 454.69 189.10 455.41 C 188.61 454.95 187.62 454.04 187.12 453.58 L 186.26 452.97 C 186.05 452.83 185.65 452.56 185.44 452.42 Z" />
</g>
<g id="#4a5970ff">
<path fill="#4a5970" opacity="1.00" d=" M 196.30 461.03 C 196.24 459.80 197.25 458.97 198.02 458.17 C 199.36 459.19 197.86 461.89 196.30 461.03 Z" />
</g>
<g id="#4c5c71ff">
<path fill="#4c5c71" opacity="1.00" d=" M 223.26 459.55 C 221.12 458.07 224.05 456.99 224.92 458.70 C 224.51 458.91 223.68 459.33 223.26 459.55 Z" />
</g>
<g id="#3d8a77ff">
<path fill="#3d8a77" opacity="1.00" d=" M 53.05 462.73 C 56.43 462.99 59.81 463.44 63.08 464.38 C 63.23 464.46 63.51 464.61 63.66 464.69 C 63.78 465.42 64.03 466.86 64.16 467.59 C 60.28 466.41 56.32 465.22 53.05 462.73 Z" />
</g>
<g id="#2f836eff">
<path fill="#2f836e" opacity="1.00" d=" M 253.08 470.70 C 255.54 468.62 258.33 466.98 261.35 465.84 C 258.91 468.53 255.89 470.61 252.70 472.31 L 253.08 470.70 Z" />
</g>
<g id="#368472ff">
<path fill="#368472" opacity="1.00" d=" M 81.99 469.58 C 84.86 470.36 87.62 471.49 90.29 472.80 C 88.12 472.94 85.95 473.07 83.78 473.09 C 83.60 472.90 83.22 472.50 83.04 472.30 C 82.78 471.62 82.25 470.26 81.99 469.58 Z" />
</g>
<g id="#3d8b77ff">
<path fill="#3d8b77" opacity="1.00" d=" M 254.12 489.31 C 254.55 489.19 255.42 488.93 255.86 488.81 C 258.34 489.51 255.17 491.71 253.90 491.84 C 253.95 491.21 254.06 489.95 254.12 489.31 Z" />
</g>
</svg>
