<?xml version="1.0" encoding="UTF-8" ?>
<!DOCTYPE svg PUBLIC "-//W3C//DTD SVG 1.1//EN" "http://www.w3.org/Graphics/SVG/1.1/DTD/svg11.dtd">
<svg width="234pt" height="450pt" viewBox="0 0 234 450" version="1.1" xmlns="http://www.w3.org/2000/svg">
<g id="#fefeffff">
<path fill="#fefeff" opacity="1.00" d=" M 130.98 5.77 C 130.86 5.51 130.62 5.00 130.50 4.74 C 136.26 4.47 142.04 4.92 147.71 5.99 C 147.28 6.50 146.43 7.53 146.00 8.04 C 146.96 10.82 148.16 13.50 149.25 16.23 C 146.59 14.83 143.95 13.39 141.29 11.99 C 139.07 13.99 136.84 15.98 134.60 17.95 C 135.15 14.94 135.75 11.94 136.36 8.94 C 134.57 7.88 132.76 6.84 130.98 5.77 Z" />
<path fill="#fefeff" opacity="1.00" d=" M 103.18 24.10 C 104.55 21.40 105.91 18.69 107.37 16.04 C 108.05 18.96 108.73 21.88 109.36 24.81 C 112.30 25.23 115.25 25.65 118.19 26.17 C 115.62 27.67 113.03 29.12 110.45 30.60 C 111.09 33.51 111.64 36.44 112.09 39.39 C 109.78 37.47 107.53 35.48 105.25 33.52 C 102.66 34.91 100.05 36.28 97.41 37.57 C 98.54 34.78 99.71 32.02 100.91 29.26 C 98.65 27.23 96.31 25.29 93.93 23.40 C 97.03 23.35 100.12 23.70 103.18 24.10 Z" />
<path fill="#fefeff" opacity="1.00" d=" M 173.28 17.03 C 176.03 19.63 178.53 22.48 180.84 25.48 C 176.75 27.76 179.60 32.33 179.46 35.93 L 178.40 35.57 L 177.47 35.03 C 176.27 33.33 174.75 31.91 173.23 30.51 C 171.68 31.33 170.14 32.16 168.56 32.90 C 167.92 32.84 166.66 32.71 166.03 32.65 C 166.94 30.68 167.87 28.71 168.80 26.75 C 166.59 24.60 164.38 22.44 162.17 20.29 C 165.15 20.53 168.14 20.78 171.12 21.07 C 171.84 19.73 172.56 18.38 173.28 17.03 Z" />
<path fill="#fefeff" opacity="1.00" d=" M 141.63 32.58 C 142.77 29.94 143.88 27.28 145.00 24.62 C 145.74 27.01 146.48 29.41 147.25 31.80 C 145.38 32.06 143.50 32.31 141.63 32.58 Z" />
<path fill="#fefeff" opacity="1.00" d=" M 79.79 51.42 C 82.14 48.69 83.96 45.58 85.93 42.59 C 86.25 45.84 86.62 49.10 87.31 52.30 C 89.89 52.77 92.46 53.33 95.07 53.68 C 91.10 56.36 87.59 59.60 84.61 63.34 C 83.92 62.58 83.24 61.83 82.55 61.08 C 81.36 61.35 80.16 61.62 78.97 61.90 C 79.09 58.47 79.25 55.05 79.62 51.64 L 79.79 51.42 Z" />
<path fill="#fefeff" opacity="1.00" d=" M 28.20 191.23 C 33.08 187.53 38.22 184.00 44.06 182.02 C 53.36 186.46 61.44 193.04 69.55 199.31 C 75.51 204.66 82.38 209.61 86.00 216.95 C 84.07 225.95 83.08 235.32 84.49 244.50 C 86.61 251.90 84.95 259.59 83.92 267.02 C 82.93 272.33 82.63 277.77 81.51 283.06 C 80.06 289.14 72.84 291.06 70.46 296.42 C 69.94 303.28 77.49 309.11 74.27 316.13 C 73.20 321.59 67.36 324.54 66.32 329.86 C 68.07 335.77 73.93 339.32 76.04 345.12 C 79.57 354.39 77.90 364.56 76.86 374.14 C 76.20 377.89 75.76 381.78 76.62 385.54 C 77.29 388.14 79.19 390.15 80.33 392.53 C 81.24 396.30 80.76 400.20 81.05 404.03 C 81.29 407.73 82.44 411.28 83.21 414.89 C 84.76 422.29 85.75 429.79 86.78 437.28 C 76.25 436.59 66.29 440.90 56.73 444.74 C 56.57 439.83 57.46 434.77 56.03 429.99 C 53.49 423.40 47.75 418.96 42.84 414.21 C 38.40 407.83 36.77 399.96 32.67 393.37 C 30.08 388.50 25.05 385.37 23.06 380.11 C 18.95 370.05 18.93 358.95 16.38 348.48 C 14.92 342.80 11.84 337.64 10.43 331.97 C 11.06 325.29 9.82 318.63 10.23 311.95 C 10.29 303.41 8.03 295.09 5.81 286.92 C 4.80 273.54 8.75 260.32 8.20 246.93 C 8.36 234.35 8.60 221.48 12.41 209.38 C 15.91 202.03 21.91 196.23 28.20 191.23 M 37.32 229.21 C 31.18 228.51 25.01 228.03 18.85 227.37 C 22.97 232.02 27.69 236.07 32.13 240.39 C 29.83 246.33 27.13 252.10 24.85 258.05 C 30.51 255.16 36.08 252.10 41.69 249.12 C 46.43 253.47 51.30 257.68 56.07 261.99 C 55.26 255.60 53.45 249.34 53.02 242.90 C 58.07 239.38 63.66 236.69 68.77 233.26 C 62.62 232.24 56.43 231.47 50.25 230.63 C 48.54 224.44 47.46 218.09 45.81 211.87 C 42.82 217.57 40.29 223.50 37.32 229.21 M 37.85 277.89 C 36.49 284.16 34.71 290.32 33.41 296.60 C 27.01 297.64 20.58 298.36 14.17 299.27 C 19.59 302.87 25.31 306.00 30.80 309.48 C 29.55 315.65 28.91 321.93 27.56 328.09 C 32.79 324.40 37.25 319.79 42.16 315.71 C 47.93 318.64 53.50 321.94 59.21 324.99 C 56.90 318.93 54.22 313.04 51.77 307.04 C 55.76 302.11 61.05 298.47 65.10 293.58 C 58.84 294.56 52.50 294.55 46.20 295.01 C 43.55 289.24 40.66 283.59 37.85 277.89 M 46.22 348.63 C 45.62 354.64 44.86 360.64 44.34 366.67 C 38.49 368.32 32.60 369.84 26.72 371.40 C 32.14 374.17 37.79 376.44 43.25 379.12 C 42.85 385.16 42.40 391.21 42.07 397.26 C 46.37 392.72 50.64 388.15 54.73 383.42 C 60.20 385.93 65.78 388.22 71.45 390.24 C 68.51 384.99 65.57 379.73 62.41 374.61 C 66.24 369.71 70.33 365.01 74.26 360.19 C 68.18 361.40 62.12 362.79 56.04 364.01 C 52.94 358.78 49.79 353.56 46.22 348.63 Z" />
<path fill="#fefeff" opacity="1.00" d=" M 198.08 201.64 C 199.47 203.95 200.32 206.54 201.11 209.11 C 204.43 219.70 206.69 230.69 207.06 241.81 L 206.42 240.42 C 204.90 227.28 202.21 214.24 198.08 201.64 Z" />
<path fill="#fefeff" opacity="1.00" d=" M 206.78 250.88 C 207.57 251.64 208.36 252.40 209.15 253.18 C 209.30 253.32 209.58 253.60 209.73 253.74 L 209.30 253.57 C 207.76 259.38 206.91 265.34 206.14 271.29 C 208.24 269.44 210.32 267.56 212.34 265.62 L 212.47 265.50 C 215.17 277.57 217.99 289.67 219.00 302.02 C 213.76 301.52 208.52 301.00 203.27 300.59 C 207.80 305.20 212.51 309.61 217.07 314.19 C 214.47 320.13 212.15 326.20 209.28 332.02 C 212.39 330.46 215.48 328.87 218.59 327.32 C 218.14 339.99 218.08 352.71 219.24 365.36 C 214.36 365.17 209.48 364.96 204.61 364.84 C 209.16 368.96 213.91 372.87 218.55 376.90 C 216.41 382.67 214.22 388.42 212.08 394.19 C 214.84 392.50 217.58 390.77 220.35 389.10 C 220.20 393.74 220.21 398.39 220.28 403.03 C 220.65 410.60 223.24 417.78 225.07 425.07 C 218.08 423.79 210.03 422.74 204.14 427.70 C 202.72 423.56 200.74 419.53 200.27 415.13 C 199.84 409.33 197.03 403.89 197.51 397.98 C 198.31 390.18 196.15 382.52 194.84 374.90 C 198.82 367.10 195.84 358.33 196.56 350.06 C 197.72 335.03 199.20 320.03 200.62 305.02 C 200.99 297.26 202.84 289.70 204.19 282.07 C 206.13 271.80 206.80 261.32 206.78 250.88 Z" />
</g>
<g id="#000000ff">
<path fill="#000000" opacity="1.00" d=" M 112.20 7.21 C 127.49 1.43 144.68 2.05 159.99 7.44 C 171.97 11.89 182.36 21.07 187.08 33.09 C 189.11 37.02 188.98 41.75 191.50 45.44 C 194.76 50.28 195.70 56.50 194.34 62.15 C 193.71 66.76 189.73 69.68 187.34 73.39 C 184.34 77.98 180.30 81.75 176.07 85.19 C 174.87 98.38 172.68 112.08 176.48 125.04 C 174.67 129.70 170.37 133.08 165.97 135.19 C 162.51 135.57 161.24 131.46 159.83 129.04 C 162.76 125.24 166.84 122.54 169.84 118.81 C 171.53 103.64 171.42 88.28 172.32 73.03 C 172.37 68.96 172.80 63.62 168.78 61.18 C 158.88 53.91 145.91 53.02 134.05 53.89 C 123.74 54.79 113.34 56.61 103.77 60.70 C 104.28 66.63 104.61 72.68 103.42 78.56 C 102.43 83.55 98.65 87.29 97.03 92.04 C 93.73 100.89 91.35 110.60 93.50 120.01 C 89.14 118.34 86.17 114.45 81.90 112.62 C 81.69 117.47 82.80 122.23 83.05 127.06 C 83.49 133.56 82.87 140.21 84.62 146.55 C 84.91 147.86 85.89 148.80 86.74 149.76 C 89.46 142.99 89.72 135.18 94.20 129.14 C 95.48 127.27 97.66 126.45 99.68 125.65 C 113.87 134.03 128.40 141.89 142.48 150.44 C 143.46 156.60 143.24 162.94 143.78 169.17 C 144.22 169.28 145.08 169.50 145.52 169.61 C 146.12 163.65 146.02 157.62 146.80 151.68 C 149.08 148.43 151.85 145.54 154.47 142.55 C 155.30 143.50 155.86 144.63 155.70 145.94 C 155.78 152.33 155.79 158.72 155.89 165.11 C 170.46 172.92 185.00 181.49 196.56 193.44 C 202.05 201.72 204.58 211.50 206.79 221.07 C 209.19 231.62 209.29 242.54 211.81 253.08 C 216.76 274.36 222.79 295.88 221.39 317.96 C 220.27 333.96 220.16 350.03 221.43 366.03 C 221.90 368.32 220.69 370.38 219.79 372.40 C 220.80 373.23 221.82 374.07 222.84 374.90 C 222.85 377.05 222.01 379.03 221.49 381.08 C 223.97 390.16 220.87 399.84 223.09 409.03 C 223.99 415.17 226.80 420.90 227.24 427.11 C 221.11 427.85 214.64 424.67 208.79 427.68 C 206.92 428.44 205.61 430.68 203.50 430.63 C 200.36 424.86 198.36 418.42 197.85 411.86 C 197.00 407.27 195.34 402.77 195.62 398.03 C 196.22 390.66 194.65 383.35 193.25 376.16 C 185.10 381.13 175.16 381.26 165.90 381.16 C 153.59 380.85 141.26 381.62 128.95 381.19 C 118.94 380.88 108.90 381.56 98.91 380.64 C 92.00 380.03 85.05 380.19 78.15 380.80 C 77.59 385.05 80.48 388.23 82.19 391.77 C 83.58 396.72 82.36 401.99 83.55 406.99 C 86.20 417.66 87.75 428.57 89.01 439.48 C 77.72 437.95 67.06 442.90 56.81 446.88 C 56.46 446.83 55.75 446.72 55.40 446.66 C 53.41 441.34 56.11 435.33 53.91 430.00 C 51.53 424.78 47.34 420.71 42.99 417.09 C 39.88 414.58 38.48 410.74 36.78 407.27 C 33.69 400.86 31.56 393.72 26.41 388.57 C 23.43 385.62 21.23 381.98 19.89 378.02 C 16.85 368.98 16.19 359.40 14.57 350.06 C 13.09 342.51 7.64 335.90 8.36 327.95 C 8.56 322.93 7.95 317.93 8.17 312.91 C 8.62 304.01 5.93 295.38 3.67 286.89 C 2.78 273.55 6.66 260.42 6.19 247.09 C 6.27 233.87 6.69 220.41 10.53 207.67 C 19.71 188.01 33.87 169.46 53.76 159.79 C 60.79 156.23 68.58 154.62 76.32 153.53 C 74.22 149.31 73.10 144.60 73.28 139.89 C 74.33 135.66 77.41 132.42 79.82 128.94 C 81.19 127.32 79.84 125.39 79.20 123.80 C 77.50 120.55 77.08 116.71 77.57 113.11 C 77.78 109.75 81.41 108.53 82.88 105.88 C 84.81 102.56 85.91 98.86 87.18 95.26 C 89.19 87.39 93.81 80.53 96.72 73.01 C 96.67 70.30 94.92 67.44 91.92 67.46 C 89.48 67.54 86.51 67.89 84.81 69.82 C 80.75 77.11 83.02 85.85 86.28 92.97 C 85.93 93.47 85.57 93.96 85.21 94.46 C 83.81 91.92 82.61 89.21 80.59 87.10 C 76.13 69.41 75.28 49.90 83.00 32.98 C 88.49 20.71 99.57 11.49 112.20 7.21 M 92.54 21.52 C 85.14 29.70 80.69 40.45 79.79 51.42 L 79.62 51.64 C 79.25 55.05 79.09 58.47 78.97 61.90 C 79.04 65.91 79.44 69.91 79.51 73.93 C 80.53 70.11 82.25 66.51 84.61 63.34 C 87.59 59.60 91.10 56.36 95.07 53.68 C 98.11 51.85 101.02 49.77 104.27 48.30 C 108.32 46.30 112.88 45.38 116.58 42.70 C 123.97 37.35 132.83 34.60 141.63 32.58 C 143.50 32.31 145.38 32.06 147.25 31.80 C 153.51 31.35 159.86 31.38 166.03 32.65 C 166.66 32.71 167.92 32.84 168.56 32.90 C 171.49 33.72 174.37 35.07 177.47 35.03 L 178.40 35.57 L 178.11 35.54 C 181.27 37.29 184.56 38.84 187.49 40.98 C 185.97 35.55 183.93 30.23 180.84 25.48 C 178.53 22.48 176.03 19.63 173.28 17.03 C 165.88 11.22 157.00 7.66 147.82 5.86 L 147.71 5.99 C 142.04 4.92 136.26 4.47 130.50 4.74 C 130.62 5.00 130.86 5.51 130.98 5.77 C 130.56 5.57 129.72 5.18 129.30 4.99 C 115.79 6.48 102.03 11.43 92.54 21.52 M 120.65 41.93 C 137.32 38.67 155.53 37.95 171.03 45.98 C 179.26 50.38 187.90 57.18 188.66 67.23 C 194.60 60.52 193.07 49.16 186.79 43.15 C 179.64 36.79 169.87 34.67 160.62 33.62 C 146.91 32.39 132.60 34.94 120.65 41.93 M 91.36 140.56 C 90.24 144.03 90.24 148.03 87.54 150.79 C 91.42 156.12 96.33 160.73 99.44 166.60 C 100.70 168.83 99.86 172.25 102.25 173.72 C 105.93 174.63 110.09 173.56 113.34 176.01 C 109.56 179.36 104.09 181.29 99.10 180.08 C 96.76 177.24 96.65 173.32 94.77 170.25 C 89.92 166.85 84.39 164.16 80.62 159.41 C 79.29 158.14 78.56 156.08 76.93 155.26 C 69.81 156.63 62.52 157.75 55.94 160.96 C 40.06 168.04 27.71 181.29 18.88 196.02 C 25.64 189.93 32.80 183.92 41.30 180.44 C 45.09 178.65 48.72 181.42 51.88 183.24 C 63.76 190.99 75.20 199.67 84.84 210.13 C 86.82 212.60 89.57 215.57 88.51 219.00 C 86.06 228.80 85.98 239.17 88.12 249.04 C 88.85 260.47 85.41 271.63 84.57 282.98 C 83.31 289.47 76.45 292.06 72.92 296.93 C 73.50 302.24 77.71 306.53 77.58 311.99 C 77.17 317.04 74.60 321.64 71.30 325.39 C 69.96 327.03 67.81 329.31 69.73 331.37 C 73.46 336.39 78.06 341.15 79.44 347.47 C 81.55 357.80 79.95 368.40 78.37 378.69 C 87.26 377.70 96.20 378.06 105.09 378.80 C 124.71 378.92 144.33 379.21 163.95 378.81 C 163.88 373.82 163.63 368.81 164.38 363.87 C 166.00 352.75 163.35 341.64 160.55 330.95 C 157.49 315.14 156.22 299.06 154.67 283.06 C 153.59 270.41 152.53 257.73 152.63 245.02 C 152.66 239.31 152.20 233.61 151.66 227.93 C 149.63 209.13 146.86 190.41 143.81 171.75 C 143.31 171.61 142.29 171.33 141.79 171.19 C 141.48 164.65 141.12 158.10 140.72 151.56 C 126.79 143.62 112.96 135.53 99.01 127.64 C 94.33 130.29 92.75 135.72 91.36 140.56 M 148.35 152.31 C 148.17 158.35 147.70 164.38 147.41 170.41 C 147.00 170.73 146.17 171.38 145.76 171.70 C 148.38 187.04 150.62 202.45 152.49 217.90 C 153.53 226.24 154.48 234.61 154.67 243.03 C 154.38 261.06 156.22 279.04 157.98 296.96 C 159.69 310.86 160.47 324.99 164.43 338.50 C 166.21 347.14 167.45 356.08 166.15 364.87 C 165.54 369.51 165.67 374.20 165.87 378.86 C 174.37 379.14 183.35 378.87 191.06 374.91 C 195.20 370.86 194.80 364.36 194.39 359.02 C 193.69 352.30 194.93 345.63 195.31 338.94 C 196.83 324.33 197.88 309.68 199.44 295.08 C 201.13 284.40 203.62 273.82 204.09 262.98 C 205.55 239.59 201.66 215.90 192.84 194.19 C 190.76 189.84 186.76 186.83 183.08 183.89 C 173.87 177.04 163.85 171.38 153.73 166.01 C 153.56 159.58 153.56 153.14 153.46 146.70 C 151.62 148.45 149.95 150.35 148.35 152.31 M 28.20 191.23 C 21.91 196.23 15.91 202.03 12.41 209.38 C 8.60 221.48 8.36 234.35 8.20 246.93 C 8.75 260.32 4.80 273.54 5.81 286.92 C 8.03 295.09 10.29 303.41 10.23 311.95 C 9.82 318.63 11.06 325.29 10.43 331.97 C 11.84 337.64 14.92 342.80 16.38 348.48 C 18.93 358.95 18.95 370.05 23.06 380.11 C 25.05 385.37 30.08 388.50 32.67 393.37 C 36.77 399.96 38.40 407.83 42.84 414.21 C 47.75 418.96 53.49 423.40 56.03 429.99 C 57.46 434.77 56.57 439.83 56.73 444.74 C 66.29 440.90 76.25 436.59 86.78 437.28 C 85.75 429.79 84.76 422.29 83.21 414.89 C 82.44 411.28 81.29 407.73 81.05 404.03 C 80.76 400.20 81.24 396.30 80.33 392.53 C 79.19 390.15 77.29 388.14 76.62 385.54 C 75.76 381.78 76.20 377.89 76.86 374.14 C 77.90 364.56 79.57 354.39 76.04 345.12 C 73.93 339.32 68.07 335.77 66.32 329.86 C 67.36 324.54 73.20 321.59 74.27 316.13 C 77.49 309.11 69.94 303.28 70.46 296.42 C 72.84 291.06 80.06 289.14 81.51 283.06 C 82.63 277.77 82.93 272.33 83.92 267.02 C 84.95 259.59 86.61 251.90 84.49 244.50 C 83.08 235.32 84.07 225.95 86.00 216.95 C 82.38 209.61 75.51 204.66 69.55 199.31 C 61.44 193.04 53.36 186.46 44.06 182.02 C 38.22 184.00 33.08 187.53 28.20 191.23 M 198.08 201.64 C 202.21 214.24 204.90 227.28 206.42 240.42 C 206.36 243.91 206.53 247.40 206.78 250.88 C 206.80 261.32 206.13 271.80 204.19 282.07 C 202.84 289.70 200.99 297.26 200.62 305.02 C 199.20 320.03 197.72 335.03 196.56 350.06 C 195.84 358.33 198.82 367.10 194.84 374.90 C 196.15 382.52 198.31 390.18 197.51 397.98 C 197.03 403.89 199.84 409.33 200.27 415.13 C 200.74 419.53 202.72 423.56 204.14 427.70 C 210.03 422.74 218.08 423.79 225.07 425.07 C 223.24 417.78 220.65 410.60 220.28 403.03 C 220.21 398.39 220.20 393.74 220.35 389.10 C 220.50 386.84 220.41 384.58 219.60 382.45 C 218.76 380.28 220.00 378.09 220.56 376.02 C 219.50 375.01 218.35 374.09 217.53 372.87 C 218.18 370.37 219.64 368.04 219.24 365.36 C 218.08 352.71 218.14 339.99 218.59 327.32 L 218.76 327.23 C 219.18 318.83 219.68 310.42 219.00 302.02 C 217.99 289.67 215.17 277.57 212.47 265.50 L 212.34 265.62 C 211.46 261.57 210.53 257.53 209.30 253.57 L 209.73 253.74 C 209.58 253.60 209.30 253.32 209.15 253.18 C 208.47 249.39 208.37 245.45 207.06 241.81 C 206.69 230.69 204.43 219.70 201.11 209.11 C 200.32 206.54 199.47 203.95 198.08 201.64 Z" />
<path fill="#000000" opacity="1.00" d=" M 107.09 359.11 C 107.57 359.37 108.52 359.89 109.00 360.15 C 110.12 360.20 111.25 360.23 112.38 360.24 C 112.91 361.00 113.97 362.51 114.49 363.26 C 114.51 362.32 114.53 360.44 114.54 359.49 C 114.90 360.02 115.63 361.07 115.99 361.59 L 117.40 361.83 L 117.36 360.29 C 117.87 360.28 118.89 360.27 119.39 360.26 C 119.88 360.78 120.86 361.81 121.34 362.32 L 121.54 359.74 C 122.22 360.35 122.89 360.97 123.57 361.59 C 123.05 362.18 122.54 362.77 122.03 363.37 C 120.54 361.06 119.22 363.79 118.05 364.79 C 118.04 362.40 116.09 361.65 114.44 363.35 C 112.95 362.83 111.70 361.94 111.09 360.40 C 110.96 361.11 110.70 362.53 110.57 363.23 C 110.29 362.40 109.86 361.72 109.26 361.20 C 109.06 361.51 108.65 362.15 108.45 362.47 C 108.23 362.60 107.78 362.88 107.56 363.02 C 107.42 361.71 107.27 360.41 107.09 359.11 M 118.26 361.43 C 118.89 362.05 118.89 362.05 118.26 361.43 Z" />
<path fill="#000000" opacity="1.00" d=" M 132.63 359.00 C 135.09 358.65 134.70 363.61 132.48 363.13 C 132.09 361.86 132.10 360.19 132.63 359.00 Z" />
<path fill="#000000" opacity="1.00" d=" M 135.01 363.23 C 135.34 361.61 135.13 359.63 136.70 358.59 C 136.41 359.71 136.10 360.82 135.77 361.94 C 136.46 361.82 137.83 361.58 138.52 361.46 C 137.37 362.08 136.18 362.64 135.01 363.23 Z" />
<path fill="#000000" opacity="1.00" d=" M 138.84 359.94 C 140.12 357.80 141.40 363.00 139.44 362.53 C 139.29 361.89 138.99 360.59 138.84 359.94 Z" />
<path fill="#000000" opacity="1.00" d=" M 141.66 359.75 C 142.14 359.53 143.09 359.09 143.56 358.88 C 143.57 360.23 143.59 361.58 143.63 362.94 C 143.10 362.80 142.03 362.50 141.50 362.36 C 141.55 361.48 141.61 360.61 141.66 359.75 Z" />
<path fill="#000000" opacity="1.00" d=" M 86.97 361.11 C 87.43 361.57 88.36 362.48 88.82 362.94 C 89.26 362.36 90.14 361.19 90.58 360.61 C 90.51 361.34 90.38 362.81 90.32 363.54 L 92.68 363.42 C 92.57 362.83 92.36 361.65 92.26 361.06 C 93.68 361.49 95.11 361.92 96.51 362.42 L 93.38 361.99 C 93.82 362.75 94.69 364.28 95.12 365.05 C 92.87 365.24 90.62 365.26 88.37 365.07 C 87.91 363.75 87.45 362.42 86.97 361.11 Z" />
<path fill="#000000" opacity="1.00" d=" M 100.04 368.11 C 100.76 367.00 101.52 365.93 102.33 364.91 C 103.50 367.08 104.30 369.44 104.72 371.88 C 105.20 372.04 106.15 372.36 106.62 372.52 C 106.96 369.90 105.80 366.80 107.53 364.50 C 107.91 367.71 107.66 371.02 108.63 374.15 L 107.23 374.11 L 107.40 372.48 C 105.94 373.96 104.06 374.61 103.58 371.85 C 102.91 371.81 101.55 371.75 100.88 371.71 C 100.18 372.64 99.47 373.56 98.75 374.48 C 99.12 372.39 99.57 370.32 99.97 368.25 C 100.83 368.92 101.23 371.07 102.47 370.71 C 102.60 370.11 102.88 368.91 103.02 368.31 C 102.27 368.26 100.79 368.16 100.04 368.11 Z" />
<path fill="#000000" opacity="1.00" d=" M 111.10 374.53 C 109.06 371.87 108.75 367.36 110.64 364.58 C 110.92 367.07 110.88 369.57 110.66 372.07 C 111.12 372.17 112.06 372.37 112.53 372.46 C 111.73 370.05 113.31 368.56 114.98 367.28 C 116.38 368.14 117.65 369.18 118.41 370.68 C 116.79 370.72 115.18 370.77 113.56 370.81 C 114.26 372.93 116.59 372.96 118.33 373.70 C 116.56 373.45 113.79 374.85 113.00 372.43 C 112.37 373.12 111.73 373.82 111.10 374.53 M 114.46 369.07 C 114.70 372.36 117.46 367.47 114.46 369.07 Z" />
<path fill="#000000" opacity="1.00" d=" M 87.53 365.39 C 88.44 365.56 90.26 365.91 91.18 366.08 C 90.70 368.87 88.80 371.32 87.77 373.97 C 87.61 371.11 87.59 368.25 87.53 365.39 Z" />
<path fill="#000000" opacity="1.00" d=" M 91.86 366.03 C 92.78 365.89 94.61 365.61 95.53 365.48 C 95.44 368.16 95.40 370.84 95.20 373.53 C 93.99 371.11 92.20 368.72 91.86 366.03 Z" />
<path fill="#000000" opacity="1.00" d=" M 123.26 365.94 C 124.15 366.84 125.05 367.72 125.97 368.60 C 123.95 368.96 124.38 370.91 124.29 372.45 C 124.79 372.85 125.78 373.66 126.27 374.06 C 125.51 373.95 123.98 373.74 123.21 373.63 C 123.14 371.07 123.16 368.50 123.26 365.94 Z" />
<path fill="#000000" opacity="1.00" d=" M 118.83 368.23 C 119.73 368.18 121.53 368.09 122.43 368.05 C 119.50 369.25 120.99 372.60 119.21 374.54 C 118.99 372.44 118.90 370.33 118.83 368.23 Z" />
<path fill="#000000" opacity="1.00" d=" M 126.40 372.29 C 126.44 370.60 126.58 367.82 128.98 368.08 C 130.62 367.68 131.56 369.38 132.86 370.04 C 133.08 369.58 133.53 368.66 133.76 368.19 C 135.26 368.15 136.76 368.12 138.26 368.10 C 138.69 370.25 138.88 372.45 138.73 374.65 C 136.60 372.99 138.83 367.53 134.94 369.24 C 134.73 370.94 134.71 372.67 134.61 374.39 C 133.99 373.66 133.36 372.94 132.74 372.22 C 131.28 373.10 129.81 373.97 128.05 374.09 C 127.64 373.64 126.81 372.74 126.40 372.29 M 127.36 369.84 C 127.61 370.57 128.12 372.02 128.37 372.75 C 129.88 373.56 130.73 372.13 131.63 371.16 C 131.21 370.57 130.39 369.40 129.98 368.81 C 129.32 369.07 128.01 369.58 127.36 369.84 Z" />
<path fill="#000000" opacity="1.00" d=" M 140.04 368.29 C 141.61 368.23 143.20 368.18 144.76 368.46 C 143.83 368.63 141.97 368.99 141.05 369.16 C 142.24 370.47 144.55 371.26 144.56 373.30 C 142.95 373.99 141.14 374.08 139.50 373.44 C 140.48 373.28 142.42 372.97 143.39 372.81 C 141.95 371.54 140.15 370.41 140.04 368.29 Z" />
<path fill="#000000" opacity="1.00" d=" M 87.88 375.44 C 89.96 374.30 90.69 372.07 91.41 369.98 C 92.17 372.09 93.13 374.20 95.07 375.49 C 94.19 375.42 92.43 375.27 91.55 375.20 L 91.64 377.12 C 91.56 376.67 91.41 375.75 91.34 375.30 C 90.19 375.34 89.04 375.38 87.88 375.44 Z" />
<path fill="#000000" opacity="1.00" d=" M 148.27 374.07 C 146.17 374.66 146.36 370.58 148.36 370.99 C 149.02 371.79 148.86 373.25 148.27 374.07 Z" />
<path fill="#000000" opacity="1.00" d=" M 150.46 371.42 C 152.85 371.53 155.24 371.45 157.63 371.40 C 157.61 372.37 157.59 373.34 157.55 374.32 C 157.40 373.77 157.09 372.67 156.94 372.12 L 155.92 372.11 C 155.71 372.70 155.30 373.89 155.09 374.48 C 155.00 373.84 154.83 372.57 154.74 371.94 L 153.44 372.01 C 153.54 372.39 153.74 373.17 153.84 373.55 C 152.59 373.57 151.33 373.61 150.08 373.66 C 150.18 373.10 150.37 371.98 150.46 371.42 M 151.40 372.22 C 152.01 372.83 152.01 372.83 151.40 372.22 Z" />
</g>
<g id="#ffcc02ff">
<path fill="#ffcc02" opacity="1.00" d=" M 92.54 21.52 C 102.03 11.43 115.79 6.48 129.30 4.99 C 129.72 5.18 130.56 5.57 130.98 5.77 C 132.76 6.84 134.57 7.88 136.36 8.94 C 135.75 11.94 135.15 14.94 134.60 17.95 C 136.84 15.98 139.07 13.99 141.29 11.99 C 143.95 13.39 146.59 14.83 149.25 16.23 C 148.16 13.50 146.96 10.82 146.00 8.04 C 146.43 7.53 147.28 6.50 147.71 5.99 L 147.82 5.86 C 157.00 7.66 165.88 11.22 173.28 17.03 C 172.56 18.38 171.84 19.73 171.12 21.07 C 168.14 20.78 165.15 20.53 162.17 20.29 C 164.38 22.44 166.59 24.60 168.80 26.75 C 167.87 28.71 166.94 30.68 166.03 32.65 C 159.86 31.38 153.51 31.35 147.25 31.80 C 146.48 29.41 145.74 27.01 145.00 24.62 C 143.88 27.28 142.77 29.94 141.63 32.58 C 132.83 34.60 123.97 37.35 116.58 42.70 C 112.88 45.38 108.32 46.30 104.27 48.30 C 101.02 49.77 98.11 51.85 95.07 53.68 C 92.46 53.33 89.89 52.77 87.31 52.30 C 86.62 49.10 86.25 45.84 85.93 42.59 C 83.96 45.58 82.14 48.69 79.79 51.42 C 80.69 40.45 85.14 29.70 92.54 21.52 M 103.18 24.10 C 100.12 23.70 97.03 23.35 93.93 23.40 C 96.31 25.29 98.65 27.23 100.91 29.26 C 99.71 32.02 98.54 34.78 97.41 37.57 C 100.05 36.28 102.66 34.91 105.25 33.52 C 107.53 35.48 109.78 37.47 112.09 39.39 C 111.64 36.44 111.09 33.51 110.45 30.60 C 113.03 29.12 115.62 27.67 118.19 26.17 C 115.25 25.65 112.30 25.23 109.36 24.81 C 108.73 21.88 108.05 18.96 107.37 16.04 C 105.91 18.69 104.55 21.40 103.18 24.10 Z" />
<path fill="#ffcc02" opacity="1.00" d=" M 179.46 35.93 C 179.60 32.33 176.75 27.76 180.84 25.48 C 183.93 30.23 185.97 35.55 187.49 40.98 C 184.56 38.84 181.27 37.29 178.11 35.54 L 178.40 35.57 L 179.46 35.93 Z" />
<path fill="#ffcc02" opacity="1.00" d=" M 168.56 32.90 C 170.14 32.16 171.68 31.33 173.23 30.51 C 174.75 31.91 176.27 33.33 177.47 35.03 C 174.37 35.07 171.49 33.72 168.56 32.90 Z" />
<path fill="#ffcc02" opacity="1.00" d=" M 120.65 41.93 C 132.60 34.94 146.91 32.39 160.62 33.62 C 169.87 34.67 179.64 36.79 186.79 43.15 C 193.07 49.16 194.60 60.52 188.66 67.23 C 187.90 57.18 179.26 50.38 171.03 45.98 C 155.53 37.95 137.32 38.67 120.65 41.93 Z" />
<path fill="#ffcc02" opacity="1.00" d=" M 78.97 61.90 C 80.16 61.62 81.36 61.35 82.55 61.08 C 83.24 61.83 83.92 62.58 84.61 63.34 C 82.25 66.51 80.53 70.11 79.51 73.93 C 79.44 69.91 79.04 65.91 78.97 61.90 Z" />
<path fill="#ffcc02" opacity="1.00" d=" M 91.36 140.56 C 92.75 135.72 94.33 130.29 99.01 127.64 C 112.96 135.53 126.79 143.62 140.72 151.56 C 141.12 158.10 141.48 164.65 141.79 171.19 C 142.29 171.33 143.31 171.61 143.81 171.75 C 146.86 190.41 149.63 209.13 151.66 227.93 C 152.20 233.61 152.66 239.31 152.63 245.02 C 152.53 257.73 153.59 270.41 154.67 283.06 C 156.22 299.06 157.49 315.14 160.55 330.95 C 163.35 341.64 166.00 352.75 164.38 363.87 C 163.63 368.81 163.88 373.82 163.95 378.81 C 144.33 379.21 124.71 378.92 105.09 378.80 C 96.20 378.06 87.26 377.70 78.37 378.69 C 79.95 368.40 81.55 357.80 79.44 347.47 C 78.06 341.15 73.46 336.39 69.73 331.37 C 67.81 329.31 69.96 327.03 71.30 325.39 C 74.60 321.64 77.17 317.04 77.58 311.99 C 77.71 306.53 73.50 302.24 72.92 296.93 C 76.45 292.06 83.31 289.47 84.57 282.98 C 85.41 271.63 88.85 260.47 88.12 249.04 C 85.98 239.17 86.06 228.80 88.51 219.00 C 89.57 215.57 86.82 212.60 84.84 210.13 C 75.20 199.67 63.76 190.99 51.88 183.24 C 48.72 181.42 45.09 178.65 41.30 180.44 C 32.80 183.92 25.64 189.93 18.88 196.02 C 27.71 181.29 40.06 168.04 55.94 160.96 C 62.52 157.75 69.81 156.63 76.93 155.26 C 78.56 156.08 79.29 158.14 80.62 159.41 C 84.39 164.16 89.92 166.85 94.77 170.25 C 96.65 173.32 96.76 177.24 99.10 180.08 C 104.09 181.29 109.56 179.36 113.34 176.01 C 110.09 173.56 105.93 174.63 102.25 173.72 C 99.86 172.25 100.70 168.83 99.44 166.60 C 96.33 160.73 91.42 156.12 87.54 150.79 C 90.24 148.03 90.24 144.03 91.36 140.56 M 107.09 359.11 C 107.27 360.41 107.42 361.71 107.56 363.02 C 107.78 362.88 108.23 362.60 108.45 362.47 C 108.65 362.15 109.06 361.51 109.26 361.20 C 109.86 361.72 110.29 362.40 110.57 363.23 C 110.70 362.53 110.96 361.11 111.09 360.40 C 111.70 361.94 112.95 362.83 114.44 363.35 C 116.09 361.65 118.04 362.40 118.05 364.79 C 119.22 363.79 120.54 361.06 122.03 363.37 C 122.54 362.77 123.05 362.18 123.57 361.59 C 122.89 360.97 122.22 360.35 121.54 359.74 L 121.34 362.32 C 120.86 361.81 119.88 360.78 119.39 360.26 C 118.89 360.27 117.87 360.28 117.36 360.29 L 117.40 361.83 L 115.99 361.59 C 115.63 361.07 114.90 360.02 114.54 359.49 C 114.53 360.44 114.51 362.32 114.49 363.26 C 113.97 362.51 112.91 361.00 112.38 360.24 C 111.25 360.23 110.12 360.20 109.00 360.15 C 108.52 359.89 107.57 359.37 107.09 359.11 M 132.63 359.00 C 132.10 360.19 132.09 361.86 132.48 363.13 C 134.70 363.61 135.09 358.65 132.63 359.00 M 135.01 363.23 C 136.18 362.64 137.37 362.08 138.52 361.46 C 137.83 361.58 136.46 361.82 135.77 361.94 C 136.10 360.82 136.41 359.71 136.70 358.59 C 135.13 359.63 135.34 361.61 135.01 363.23 M 138.84 359.94 C 138.99 360.59 139.29 361.89 139.44 362.53 C 141.40 363.00 140.12 357.80 138.84 359.94 M 141.66 359.75 C 141.61 360.61 141.55 361.48 141.50 362.36 C 142.03 362.50 143.10 362.80 143.63 362.94 C 143.59 361.58 143.57 360.23 143.56 358.88 C 143.09 359.09 142.14 359.53 141.66 359.75 M 86.97 361.11 C 87.45 362.42 87.91 363.75 88.37 365.07 C 90.62 365.26 92.87 365.24 95.12 365.05 C 94.69 364.28 93.82 362.75 93.38 361.99 L 96.51 362.42 C 95.11 361.92 93.68 361.49 92.26 361.06 C 92.36 361.65 92.57 362.83 92.68 363.42 L 90.32 363.54 C 90.38 362.81 90.51 361.34 90.58 360.61 C 90.14 361.19 89.26 362.36 88.82 362.94 C 88.36 362.48 87.43 361.57 86.97 361.11 M 100.04 368.11 C 100.79 368.16 102.27 368.26 103.02 368.31 C 102.88 368.91 102.60 370.11 102.47 370.71 C 101.23 371.07 100.83 368.92 99.97 368.25 C 99.57 370.32 99.12 372.39 98.75 374.48 C 99.47 373.56 100.18 372.64 100.88 371.71 C 101.55 371.75 102.91 371.81 103.58 371.85 C 104.06 374.61 105.94 373.96 107.40 372.48 L 107.23 374.11 L 108.63 374.15 C 107.66 371.02 107.91 367.71 107.53 364.50 C 105.80 366.80 106.96 369.90 106.62 372.52 C 106.15 372.36 105.20 372.04 104.72 371.88 C 104.30 369.44 103.50 367.08 102.33 364.91 C 101.52 365.93 100.76 367.00 100.04 368.11 M 111.10 374.53 C 111.73 373.82 112.37 373.12 113.00 372.43 C 113.79 374.85 116.56 373.45 118.33 373.70 C 116.59 372.96 114.26 372.93 113.56 370.81 C 115.18 370.77 116.79 370.72 118.41 370.68 C 117.65 369.18 116.38 368.14 114.98 367.28 C 113.31 368.56 111.73 370.05 112.53 372.46 C 112.06 372.37 111.12 372.17 110.66 372.07 C 110.88 369.57 110.92 367.07 110.64 364.58 C 108.75 367.36 109.06 371.87 111.10 374.53 M 87.53 365.39 C 87.59 368.25 87.61 371.11 87.77 373.97 C 88.80 371.32 90.70 368.87 91.18 366.08 C 90.26 365.91 88.44 365.56 87.53 365.39 M 91.86 366.03 C 92.20 368.72 93.99 371.11 95.20 373.53 C 95.40 370.84 95.44 368.16 95.53 365.48 C 94.61 365.61 92.78 365.89 91.86 366.03 M 123.26 365.94 C 123.16 368.50 123.14 371.07 123.21 373.63 C 123.98 373.74 125.51 373.95 126.27 374.06 C 125.78 373.66 124.79 372.85 124.29 372.45 C 124.38 370.91 123.95 368.96 125.97 368.60 C 125.05 367.72 124.15 366.84 123.26 365.94 M 118.83 368.23 C 118.90 370.33 118.99 372.44 119.21 374.54 C 120.99 372.60 119.50 369.25 122.43 368.05 C 121.53 368.09 119.73 368.18 118.83 368.23 M 126.40 372.29 C 126.81 372.74 127.64 373.64 128.05 374.09 C 129.81 373.97 131.28 373.10 132.74 372.22 C 133.36 372.94 133.99 373.66 134.61 374.39 C 134.71 372.67 134.73 370.94 134.94 369.24 C 138.83 367.53 136.60 372.99 138.73 374.65 C 138.88 372.45 138.69 370.25 138.26 368.10 C 136.76 368.12 135.26 368.15 133.76 368.19 C 133.53 368.66 133.08 369.58 132.86 370.04 C 131.56 369.38 130.62 367.68 128.98 368.08 C 126.58 367.82 126.44 370.60 126.40 372.29 M 140.04 368.29 C 140.15 370.41 141.95 371.54 143.39 372.81 C 142.42 372.97 140.48 373.28 139.50 373.44 C 141.14 374.08 142.95 373.99 144.56 373.30 C 144.55 371.26 142.24 370.47 141.05 369.16 C 141.97 368.99 143.83 368.63 144.76 368.46 C 143.20 368.18 141.61 368.23 140.04 368.29 M 87.88 375.44 C 89.04 375.38 90.19 375.34 91.34 375.30 C 91.41 375.75 91.56 376.67 91.64 377.12 L 91.55 375.20 C 92.43 375.27 94.19 375.42 95.07 375.49 C 93.13 374.20 92.17 372.09 91.41 369.98 C 90.69 372.07 89.96 374.30 87.88 375.44 M 148.27 374.07 C 148.86 373.25 149.02 371.79 148.36 370.99 C 146.36 370.58 146.17 374.66 148.27 374.07 M 150.46 371.42 C 150.37 371.98 150.18 373.10 150.08 373.66 C 151.33 373.61 152.59 373.57 153.84 373.55 C 153.74 373.17 153.54 372.39 153.44 372.01 L 154.74 371.94 C 154.83 372.57 155.00 373.84 155.09 374.48 C 155.30 373.89 155.71 372.70 155.92 372.11 L 156.94 372.12 C 157.09 372.67 157.40 373.77 157.55 374.32 C 157.59 373.34 157.61 372.37 157.63 371.40 C 155.24 371.45 152.85 371.53 150.46 371.42 Z" />
<path fill="#ffcc02" opacity="1.00" d=" M 148.35 152.31 C 149.95 150.35 151.62 148.45 153.46 146.70 C 153.56 153.14 153.56 159.58 153.73 166.01 C 163.85 171.38 173.87 177.04 183.08 183.89 C 186.76 186.83 190.76 189.84 192.84 194.19 C 201.66 215.90 205.55 239.59 204.09 262.98 C 203.62 273.82 201.13 284.40 199.44 295.08 C 197.88 309.68 196.83 324.33 195.31 338.94 C 194.93 345.63 193.69 352.30 194.39 359.02 C 194.80 364.36 195.20 370.86 191.06 374.91 C 183.35 378.87 174.37 379.14 165.87 378.86 C 165.67 374.20 165.54 369.51 166.15 364.87 C 167.45 356.08 166.21 347.14 164.43 338.50 C 160.47 324.99 159.69 310.86 157.98 296.96 C 156.22 279.04 154.38 261.06 154.67 243.03 C 154.48 234.61 153.53 226.24 152.49 217.90 C 150.62 202.45 148.38 187.04 145.76 171.70 C 146.17 171.38 147.00 170.73 147.41 170.41 C 147.70 164.38 148.17 158.35 148.35 152.31 Z" />
<path fill="#ffcc02" opacity="1.00" d=" M 37.32 229.21 C 40.29 223.50 42.82 217.57 45.81 211.87 C 47.46 218.09 48.54 224.44 50.25 230.63 C 56.43 231.47 62.62 232.24 68.77 233.26 C 63.66 236.69 58.07 239.38 53.02 242.90 C 53.45 249.34 55.26 255.60 56.07 261.99 C 51.30 257.68 46.43 253.47 41.69 249.12 C 36.08 252.10 30.51 255.16 24.85 258.05 C 27.13 252.10 29.83 246.33 32.13 240.39 C 27.69 236.07 22.97 232.02 18.85 227.37 C 25.01 228.03 31.18 228.51 37.32 229.21 Z" />
<path fill="#ffcc02" opacity="1.00" d=" M 206.42 240.42 L 207.06 241.81 C 208.37 245.45 208.47 249.39 209.15 253.18 C 208.36 252.40 207.57 251.64 206.78 250.88 C 206.53 247.40 206.36 243.91 206.42 240.42 Z" />
<path fill="#ffcc02" opacity="1.00" d=" M 206.14 271.29 C 206.91 265.34 207.76 259.38 209.30 253.57 C 210.53 257.53 211.46 261.57 212.34 265.62 C 210.32 267.56 208.24 269.44 206.14 271.29 Z" />
<path fill="#ffcc02" opacity="1.00" d=" M 37.85 277.89 C 40.66 283.59 43.55 289.24 46.20 295.01 C 52.50 294.55 58.84 294.56 65.10 293.58 C 61.05 298.47 55.76 302.11 51.77 307.04 C 54.22 313.04 56.90 318.93 59.21 324.99 C 53.50 321.94 47.93 318.64 42.16 315.71 C 37.25 319.79 32.79 324.40 27.56 328.09 C 28.91 321.93 29.55 315.65 30.80 309.48 C 25.31 306.00 19.59 302.87 14.17 299.27 C 20.58 298.36 27.01 297.64 33.41 296.60 C 34.71 290.32 36.49 284.16 37.85 277.89 Z" />
<path fill="#ffcc02" opacity="1.00" d=" M 203.27 300.59 C 208.52 301.00 213.76 301.52 219.00 302.02 C 219.68 310.42 219.18 318.83 218.76 327.23 L 218.59 327.32 C 215.48 328.87 212.39 330.46 209.28 332.02 C 212.15 326.20 214.47 320.13 217.07 314.19 C 212.51 309.61 207.80 305.20 203.27 300.59 Z" />
<path fill="#ffcc02" opacity="1.00" d=" M 46.22 348.63 C 49.79 353.56 52.94 358.78 56.04 364.01 C 62.12 362.79 68.18 361.40 74.26 360.19 C 70.33 365.01 66.24 369.71 62.41 374.61 C 65.57 379.73 68.51 384.99 71.45 390.24 C 65.78 388.22 60.20 385.93 54.73 383.42 C 50.64 388.15 46.37 392.72 42.07 397.26 C 42.40 391.21 42.85 385.16 43.25 379.12 C 37.79 376.44 32.14 374.17 26.72 371.40 C 32.60 369.84 38.49 368.32 44.34 366.67 C 44.86 360.64 45.62 354.64 46.22 348.63 Z" />
<path fill="#ffcc02" opacity="1.00" d=" M 118.26 361.43 C 118.89 362.05 118.89 362.05 118.26 361.43 Z" />
<path fill="#ffcc02" opacity="1.00" d=" M 204.61 364.84 C 209.48 364.96 214.36 365.17 219.24 365.36 C 219.64 368.04 218.18 370.37 217.53 372.87 C 218.35 374.09 219.50 375.01 220.56 376.02 C 220.00 378.09 218.76 380.28 219.60 382.45 C 220.41 384.58 220.50 386.84 220.35 389.10 C 217.58 390.77 214.84 392.50 212.08 394.19 C 214.22 388.42 216.41 382.67 218.55 376.90 C 213.91 372.87 209.16 368.96 204.61 364.84 Z" />
<path fill="#ffcc02" opacity="1.00" d=" M 114.46 369.07 C 117.46 367.47 114.70 372.36 114.46 369.07 Z" />
<path fill="#ffcc02" opacity="1.00" d=" M 127.36 369.84 C 128.01 369.58 129.32 369.07 129.98 368.81 C 130.39 369.40 131.21 370.57 131.63 371.16 C 130.73 372.13 129.88 373.56 128.37 372.75 C 128.12 372.02 127.61 370.57 127.36 369.84 Z" />
<path fill="#ffcc02" opacity="1.00" d=" M 151.40 372.22 C 152.01 372.83 152.01 372.83 151.40 372.22 Z" />
</g>
</svg>
