<?xml version="1.0" encoding="UTF-8" ?>
<!DOCTYPE svg PUBLIC "-//W3C//DTD SVG 1.1//EN" "http://www.w3.org/Graphics/SVG/1.1/DTD/svg11.dtd">
<svg width="279pt" height="547pt" viewBox="0 0 279 547" version="1.1" xmlns="http://www.w3.org/2000/svg">
<g id="#ffffffff">
<path fill="#ffffff" opacity="1.00" d=" M 0.00 0.00 L 279.00 0.00 L 279.00 547.00 L 0.00 547.00 L 0.00 0.00 M 111.84 22.89 C 100.24 33.92 94.66 49.87 93.23 65.52 C 91.88 78.92 93.64 92.45 96.79 105.48 C 99.70 108.84 101.09 113.35 104.73 116.09 C 102.76 122.04 101.13 128.84 95.90 132.85 C 91.98 135.85 92.84 141.51 93.43 145.80 C 93.62 149.65 98.18 152.95 96.04 156.83 C 93.00 160.93 89.28 164.83 88.04 169.92 C 87.65 175.73 89.15 181.49 91.64 186.70 C 81.21 188.16 70.78 190.52 61.48 195.67 C 38.75 207.97 22.32 229.47 11.62 252.60 C 6.07 270.82 6.34 290.14 6.22 309.01 C 5.25 321.36 2.94 333.64 2.99 346.06 C 2.87 350.93 5.20 355.33 6.11 360.02 C 8.02 367.52 9.17 375.25 8.62 383.00 C 8.84 390.01 8.91 397.01 8.95 404.02 C 10.41 411.95 15.07 418.91 16.60 426.85 C 18.89 439.45 19.35 452.66 24.71 464.50 C 27.16 470.17 32.56 473.74 35.53 479.06 C 40.43 487.23 43.04 496.58 48.16 504.61 C 53.00 510.15 59.52 514.23 63.09 520.87 C 67.25 527.19 64.70 534.97 65.54 541.96 C 65.71 542.99 66.62 544.80 67.94 544.04 C 80.43 539.48 93.33 533.01 107.01 535.09 C 105.86 521.63 103.50 508.26 100.46 495.11 C 98.86 488.53 101.04 481.32 98.07 475.07 C 95.73 471.66 93.37 467.92 94.04 463.57 C 104.17 462.61 114.36 462.81 124.48 463.82 C 153.64 464.17 182.82 464.07 211.98 463.94 C 219.58 463.25 227.71 462.26 234.12 457.78 C 235.67 465.10 236.91 472.49 237.33 479.97 C 237.00 483.68 236.86 487.44 237.48 491.15 C 237.99 495.54 239.88 499.66 240.10 504.10 C 240.29 508.97 242.17 513.51 243.74 518.05 C 244.80 520.43 245.27 523.40 247.79 524.73 C 250.69 521.65 254.57 519.34 258.89 519.13 C 263.99 518.46 268.95 520.50 274.03 520.27 C 274.40 519.91 275.12 519.19 275.49 518.83 C 274.03 509.46 269.95 500.52 269.55 490.94 C 269.39 483.97 269.55 476.99 269.85 470.03 C 270.08 467.89 268.87 466.01 268.40 464.01 C 268.84 461.95 269.82 460.07 270.32 458.04 C 270.21 455.65 268.00 454.56 266.38 453.25 C 267.34 451.26 268.96 449.33 268.59 446.98 C 267.31 431.34 267.06 415.63 267.69 399.96 C 268.27 390.65 268.92 381.32 268.48 371.98 C 267.49 349.21 261.06 327.22 256.13 305.11 C 253.69 294.58 253.63 283.70 251.47 273.12 C 249.27 261.96 246.37 250.80 241.32 240.56 C 239.32 236.95 237.26 232.89 233.35 231.06 C 226.72 224.00 218.58 218.66 210.50 213.44 C 203.38 209.01 196.16 204.70 188.67 200.90 C 188.45 192.64 188.56 184.38 188.36 176.12 C 188.57 174.94 187.46 172.57 186.20 174.24 C 183.16 177.49 180.17 180.85 177.50 184.41 C 176.59 191.55 176.81 198.82 176.01 205.98 C 175.50 205.98 174.47 205.98 173.95 205.98 C 173.28 198.68 173.28 191.34 172.65 184.04 C 172.69 182.70 171.25 182.23 170.36 181.61 C 154.07 172.35 137.87 162.94 121.58 153.68 C 119.55 152.19 117.08 153.70 115.43 155.05 C 110.65 159.38 109.03 165.91 107.35 171.89 C 106.28 175.30 106.65 179.57 103.49 181.91 C 99.36 174.30 100.55 165.34 100.03 157.02 C 100.08 150.26 97.97 143.62 98.69 136.85 C 103.78 139.17 107.31 144.00 112.68 145.79 C 109.96 134.09 113.20 122.04 117.26 111.05 C 119.08 105.71 123.40 101.56 124.59 95.99 C 126.25 88.61 125.71 80.99 125.17 73.52 C 137.52 68.57 150.75 66.06 164.00 65.13 C 177.89 64.45 192.97 65.76 204.49 74.35 C 208.55 76.64 208.63 81.86 208.69 85.96 C 208.06 104.03 207.32 122.10 206.24 140.15 C 206.10 141.65 206.10 143.19 205.60 144.63 C 202.30 148.59 197.87 151.48 194.64 155.51 C 192.84 157.23 194.75 159.56 195.72 161.21 C 196.98 163.18 199.42 165.66 201.89 164.00 C 206.62 161.32 211.44 157.74 213.55 152.55 C 213.92 149.47 211.90 146.64 211.71 143.57 C 210.28 130.17 211.80 116.68 213.23 103.35 C 218.33 99.15 223.46 94.73 226.96 89.04 C 229.38 85.48 232.68 82.51 234.59 78.61 C 236.73 71.99 236.73 64.43 233.77 58.06 C 232.70 55.67 230.73 53.71 230.20 51.10 C 227.45 37.99 220.29 25.68 209.51 17.58 C 194.99 6.46 176.03 2.98 158.11 3.56 C 141.29 5.11 124.06 10.81 111.84 22.89 Z" />
<path fill="#ffffff" opacity="1.00" d=" M 102.11 84.14 C 105.23 82.69 108.69 81.16 112.20 82.11 C 115.71 83.08 117.48 87.69 115.73 90.83 C 111.87 98.89 107.89 106.89 104.59 115.20 C 102.19 109.00 99.75 102.67 99.15 95.99 C 99.25 91.89 100.46 87.88 102.11 84.14 Z" />
</g>
<g id="#000000ff">
<path fill="#000000" opacity="1.00" d=" M 111.84 22.89 C 124.06 10.81 141.29 5.11 158.11 3.56 C 176.03 2.98 194.99 6.46 209.51 17.58 C 220.29 25.68 227.45 37.99 230.20 51.10 C 230.73 53.71 232.70 55.67 233.77 58.06 C 236.73 64.43 236.73 71.99 234.59 78.61 C 232.68 82.51 229.38 85.48 226.96 89.04 C 223.46 94.73 218.33 99.15 213.23 103.35 C 211.80 116.68 210.28 130.17 211.71 143.57 C 211.90 146.64 213.92 149.47 213.55 152.55 C 211.44 157.74 206.62 161.32 201.89 164.00 C 199.42 165.66 196.98 163.18 195.72 161.21 C 194.75 159.56 192.84 157.23 194.64 155.51 C 197.87 151.48 202.30 148.59 205.60 144.63 C 206.10 143.19 206.10 141.65 206.24 140.15 C 207.32 122.10 208.06 104.03 208.69 85.96 C 208.63 81.86 208.55 76.64 204.49 74.35 C 192.97 65.76 177.89 64.45 164.00 65.13 C 150.75 66.06 137.52 68.57 125.17 73.52 C 125.71 80.99 126.25 88.61 124.59 95.99 C 123.40 101.56 119.08 105.71 117.26 111.05 C 113.20 122.04 109.96 134.09 112.68 145.79 C 107.31 144.00 103.78 139.17 98.69 136.85 C 97.97 143.62 100.08 150.26 100.03 157.02 C 100.55 165.34 99.36 174.30 103.49 181.91 C 106.65 179.57 106.28 175.30 107.35 171.89 C 109.03 165.91 110.65 159.38 115.43 155.05 C 117.08 153.70 119.55 152.19 121.58 153.68 C 137.87 162.94 154.07 172.35 170.36 181.61 C 171.25 182.23 172.69 182.70 172.65 184.04 C 173.28 191.34 173.28 198.68 173.95 205.98 C 174.47 205.98 175.50 205.98 176.01 205.98 C 176.81 198.82 176.59 191.55 177.50 184.41 C 180.17 180.85 183.16 177.49 186.20 174.24 C 187.46 172.57 188.57 174.94 188.36 176.12 C 188.56 184.38 188.45 192.64 188.67 200.90 C 196.16 204.70 203.38 209.01 210.50 213.44 C 218.58 218.66 226.72 224.00 233.35 231.06 C 237.26 232.89 239.32 236.95 241.32 240.56 C 246.37 250.80 249.27 261.96 251.47 273.12 C 253.63 283.70 253.69 294.58 256.13 305.11 C 261.06 327.22 267.49 349.21 268.48 371.98 C 268.92 381.32 268.27 390.65 267.69 399.96 C 267.06 415.63 267.31 431.34 268.59 446.98 C 268.96 449.33 267.34 451.26 266.38 453.25 C 268.00 454.56 270.21 455.65 270.32 458.04 C 269.82 460.07 268.84 461.95 268.40 464.01 C 268.87 466.01 270.08 467.89 269.85 470.03 C 269.55 476.99 269.39 483.97 269.55 490.94 C 269.95 500.52 274.03 509.46 275.49 518.83 C 275.12 519.19 274.40 519.91 274.03 520.27 C 268.95 520.50 263.99 518.46 258.89 519.13 C 254.57 519.34 250.69 521.65 247.79 524.73 C 245.27 523.40 244.80 520.43 243.74 518.05 C 242.17 513.51 240.29 508.97 240.10 504.10 C 239.88 499.66 237.99 495.54 237.48 491.15 C 236.86 487.44 237.00 483.68 237.33 479.97 C 236.91 472.49 235.67 465.10 234.12 457.78 C 227.71 462.26 219.58 463.25 211.98 463.94 C 182.82 464.07 153.64 464.17 124.48 463.82 C 114.36 462.81 104.17 462.61 94.04 463.57 C 93.37 467.92 95.73 471.66 98.07 475.07 C 101.04 481.32 98.86 488.53 100.46 495.11 C 103.50 508.26 105.86 521.63 107.01 535.09 C 93.33 533.01 80.43 539.48 67.94 544.04 C 66.62 544.80 65.71 542.99 65.54 541.96 C 64.70 534.97 67.25 527.19 63.09 520.87 C 59.52 514.23 53.00 510.15 48.16 504.61 C 43.04 496.58 40.43 487.23 35.53 479.06 C 32.56 473.74 27.16 470.17 24.71 464.50 C 19.35 452.66 18.89 439.45 16.60 426.85 C 15.07 418.91 10.41 411.95 8.95 404.02 C 8.91 397.01 8.84 390.01 8.62 383.00 C 9.17 375.25 8.02 367.52 6.11 360.02 C 5.20 355.33 2.87 350.93 2.99 346.06 C 2.94 333.64 5.25 321.36 6.22 309.01 C 6.34 290.14 6.07 270.82 11.62 252.60 C 22.32 229.47 38.75 207.97 61.48 195.67 C 70.78 190.52 81.21 188.16 91.64 186.70 C 89.15 181.49 87.65 175.73 88.04 169.92 C 89.28 164.83 93.00 160.93 96.04 156.83 C 98.18 152.95 93.62 149.65 93.43 145.80 C 92.84 141.51 91.98 135.85 95.90 132.85 C 101.13 128.84 102.76 122.04 104.73 116.09 C 101.09 113.35 99.70 108.84 96.79 105.48 C 93.64 92.45 91.88 78.92 93.23 65.52 C 94.66 49.87 100.24 33.92 111.84 22.89 M 138.27 9.81 C 136.67 10.48 134.27 10.27 133.41 12.04 C 132.72 12.06 131.36 12.09 130.68 12.11 L 130.49 12.63 C 123.94 15.47 117.97 19.58 112.85 24.55 C 104.64 32.71 99.58 43.58 96.99 54.76 C 94.36 66.23 94.97 78.04 95.49 89.69 C 97.32 81.62 102.91 75.15 108.64 69.72 C 110.52 68.28 112.54 66.97 114.20 65.27 C 116.64 63.84 119.01 62.31 121.37 60.75 C 126.20 58.20 131.23 55.99 136.50 54.51 C 141.76 51.09 146.88 47.41 152.63 44.80 C 156.41 43.49 160.18 42.18 164.00 41.00 C 171.41 39.08 179.03 38.24 186.67 37.95 C 192.05 38.04 197.37 39.07 202.76 39.14 C 206.57 40.95 210.89 41.46 214.87 42.86 C 219.03 44.54 222.87 46.86 226.77 49.05 C 225.34 43.27 223.32 37.57 219.99 32.59 C 215.17 24.03 207.10 17.82 198.59 13.18 C 190.09 9.64 181.16 6.73 171.91 6.13 C 171.25 6.02 169.93 5.82 169.27 5.71 C 158.80 4.96 148.15 6.23 138.27 9.81 M 175.04 40.91 C 165.49 42.35 155.63 44.62 147.54 50.12 C 151.73 49.88 155.87 49.17 160.03 48.62 C 178.99 46.46 199.53 49.13 215.18 60.80 C 222.17 65.60 227.96 72.99 228.46 81.72 C 233.91 76.14 233.96 67.39 231.62 60.38 C 229.04 53.10 222.37 48.23 215.42 45.48 C 202.67 40.41 188.58 39.21 175.04 40.91 M 102.11 84.14 C 100.46 87.88 99.25 91.89 99.15 95.99 C 99.75 102.67 102.19 109.00 104.59 115.20 C 107.89 106.89 111.87 98.89 115.73 90.83 C 117.48 87.69 115.71 83.08 112.20 82.11 C 108.69 81.16 105.23 82.69 102.11 84.14 M 115.34 158.38 C 109.20 165.48 109.77 175.56 105.35 183.46 C 110.21 189.67 115.80 195.40 119.69 202.30 C 121.45 205.13 120.27 209.76 123.63 211.40 C 127.78 212.16 132.09 211.85 136.18 213.06 C 135.73 214.50 135.16 216.07 133.60 216.64 C 129.64 218.52 125.12 220.01 120.70 219.42 C 115.30 216.93 117.48 208.62 112.35 205.75 C 104.72 201.36 97.02 196.13 92.80 188.12 C 89.22 189.39 85.52 190.19 81.77 190.71 C 67.81 193.09 55.32 200.59 44.68 209.66 C 37.72 216.19 30.53 223.04 26.23 231.66 C 24.36 233.47 23.23 235.88 21.82 238.04 C 29.80 231.07 38.36 224.47 47.99 219.92 C 51.37 218.04 55.19 219.09 58.62 220.20 L 58.70 220.84 C 73.46 230.09 87.41 240.74 99.79 253.02 C 102.50 256.33 106.00 259.49 106.81 263.88 C 106.82 266.96 105.51 269.85 105.16 272.89 C 104.23 279.88 103.67 286.98 104.51 294.01 C 104.98 298.04 106.32 301.95 106.30 306.04 C 106.26 318.56 102.88 330.73 101.89 343.15 C 101.33 349.22 96.29 353.48 91.82 357.01 C 90.40 358.23 88.52 359.19 87.81 361.03 C 87.76 367.48 93.13 372.53 93.13 379.00 C 93.32 382.27 91.75 385.27 91.45 388.48 C 88.84 391.84 86.23 395.20 83.63 398.56 C 81.14 401.81 85.06 404.95 86.78 407.47 L 86.63 407.84 C 92.53 413.15 95.79 420.93 96.46 428.76 C 97.39 439.48 95.90 450.22 94.30 460.80 C 103.20 460.26 112.14 459.86 121.02 460.73 C 128.66 461.57 136.35 461.20 144.02 461.26 C 161.49 461.27 178.97 461.70 196.43 460.97 C 196.80 460.95 197.55 460.90 197.92 460.88 C 199.03 459.45 198.50 457.55 198.50 455.90 C 197.98 450.90 198.51 445.88 199.25 440.93 C 199.31 440.23 199.41 438.81 199.46 438.10 C 200.12 426.20 197.51 414.40 194.33 403.01 C 192.59 396.91 192.67 390.43 191.17 384.33 C 190.37 376.71 189.90 369.03 188.55 361.49 C 187.01 341.70 184.71 321.93 184.65 302.06 C 184.97 287.34 183.04 272.69 181.14 258.12 C 180.39 251.51 179.53 244.91 178.38 238.36 C 177.16 228.72 175.75 219.02 173.73 209.49 C 173.02 208.63 171.50 208.18 171.44 206.91 C 170.79 200.10 170.88 193.25 170.45 186.43 C 170.51 184.18 168.29 183.25 166.68 182.28 C 151.60 173.80 136.67 165.06 121.64 156.51 C 119.41 154.76 116.88 156.69 115.34 158.38 M 179.55 186.62 C 178.82 192.36 178.87 198.17 178.59 203.95 C 178.46 206.72 176.27 209.11 176.85 211.95 C 177.54 217.38 178.77 222.72 179.77 228.09 C 179.84 230.63 180.28 233.14 180.59 235.65 C 181.73 243.44 182.66 251.25 183.86 259.02 C 185.02 270.66 186.75 282.26 187.14 293.97 C 186.85 325.27 190.54 356.45 194.18 387.49 C 193.64 388.93 194.26 390.55 194.28 392.06 L 194.66 391.43 C 194.72 393.86 195.47 396.21 196.28 398.48 C 196.03 400.69 196.53 402.88 197.17 404.99 C 199.48 413.12 201.29 421.44 201.73 429.91 C 202.44 437.70 200.06 445.42 201.07 453.21 L 200.55 453.98 C 200.21 456.44 200.55 458.89 201.42 461.21 C 210.15 461.05 219.32 461.21 227.46 457.64 C 230.98 457.71 233.63 454.78 234.58 451.62 C 237.07 444.61 234.96 437.18 235.32 429.97 C 235.60 423.60 236.37 417.25 236.68 410.87 C 238.08 395.25 239.77 379.64 241.14 364.00 C 241.60 357.59 243.17 351.34 244.11 344.99 C 244.26 344.75 244.55 344.26 244.69 344.01 C 245.50 338.06 246.24 332.10 246.84 326.12 C 248.09 317.80 247.59 309.37 247.69 300.99 C 247.93 293.66 246.21 286.50 245.52 279.24 C 243.55 268.27 241.60 257.10 237.15 246.82 C 235.55 241.02 232.81 235.53 229.33 230.63 L 229.25 230.23 C 222.76 223.68 214.82 218.88 207.16 213.86 C 201.20 210.43 195.41 206.65 189.11 203.86 C 188.14 203.17 187.10 202.60 186.08 202.00 C 185.67 194.26 185.89 186.50 185.65 178.75 C 182.91 180.66 180.08 183.12 179.55 186.62 M 44.09 225.16 C 32.21 232.44 20.73 241.55 14.02 254.00 C 8.34 272.42 8.81 291.99 8.57 311.06 C 7.59 322.38 5.69 333.64 5.55 345.02 C 5.36 349.16 6.86 353.06 7.94 356.98 C 9.70 364.07 11.05 371.30 11.32 378.62 L 11.52 378.75 C 11.21 383.07 11.18 387.48 12.20 391.73 C 11.86 395.10 11.61 398.48 11.53 401.88 C 11.26 406.97 14.15 411.43 15.89 416.02 C 22.49 431.21 20.48 448.62 27.28 463.75 C 28.71 467.08 31.20 469.75 33.67 472.33 C 36.27 475.03 38.14 478.30 40.23 481.38 C 41.12 483.12 41.77 485.09 43.14 486.55 C 44.03 491.70 46.63 496.32 48.82 501.01 C 51.14 506.21 56.62 508.67 60.08 512.95 C 63.27 516.84 66.83 520.91 67.63 526.05 C 68.26 531.08 67.78 536.16 67.96 541.21 C 79.67 536.94 91.53 531.69 104.27 532.18 C 102.94 520.71 101.25 509.26 98.39 498.06 C 96.72 491.50 97.83 484.66 96.56 478.06 C 95.44 474.82 92.56 472.39 91.97 468.94 C 90.77 462.27 92.61 455.61 93.14 448.97 C 94.04 438.37 95.61 426.51 89.64 417.03 C 87.08 412.25 82.77 408.69 80.30 403.88 C 78.06 398.35 84.04 394.83 86.38 390.61 L 86.75 390.41 C 89.21 386.02 91.49 380.67 89.38 375.68 C 87.38 371.05 85.24 366.47 83.90 361.59 C 85.04 359.64 86.27 357.76 87.45 355.85 C 91.43 353.88 94.83 350.73 97.16 346.96 C 99.29 342.68 99.04 337.73 99.78 333.10 C 100.90 322.85 103.99 312.58 102.62 302.21 C 100.42 293.65 100.79 284.72 101.30 275.98 C 101.48 271.64 103.81 267.43 103.05 263.09 C 100.95 258.77 97.47 255.27 94.11 251.90 C 82.14 240.99 69.33 230.86 55.30 222.73 C 51.48 220.41 47.40 223.29 44.09 225.16 M 245.20 259.74 C 244.85 264.31 246.50 268.65 247.20 273.11 C 248.95 281.21 249.33 289.51 250.50 297.69 C 250.21 303.12 250.57 308.57 250.33 314.01 C 250.31 316.37 249.96 318.81 250.66 321.13 C 249.62 325.43 249.28 329.86 249.15 334.28 C 248.01 338.12 247.72 342.14 246.97 346.06 C 246.02 351.77 244.49 357.39 244.06 363.18 L 243.68 363.89 C 243.13 367.40 243.06 370.95 243.00 374.50 C 242.38 377.80 242.03 381.15 241.95 384.51 C 241.32 391.54 239.88 398.56 240.46 405.64 C 240.27 405.99 239.90 406.70 239.72 407.06 C 239.29 414.03 238.36 420.97 237.99 427.95 C 237.59 436.04 239.59 444.14 238.06 452.19 C 237.35 454.00 236.17 455.83 236.68 457.86 C 237.52 462.53 238.18 467.24 238.87 471.94 C 240.59 479.99 237.82 488.43 241.00 496.26 C 242.15 500.07 242.46 504.05 243.16 507.96 C 244.13 512.29 245.80 516.43 247.59 520.48 C 250.17 518.93 252.76 517.23 255.76 516.64 C 261.41 515.49 267.12 516.93 272.80 517.10 C 271.10 509.07 268.00 501.33 267.30 493.10 C 267.03 490.23 267.20 487.33 266.75 484.48 C 266.80 478.00 268.26 471.25 266.04 464.98 C 265.27 462.50 266.89 460.11 267.55 457.80 C 266.21 456.37 263.60 455.32 263.91 453.00 C 264.68 450.74 266.17 448.60 265.77 446.10 C 265.41 439.84 264.98 433.59 264.74 427.32 C 264.54 416.62 264.73 405.92 265.20 395.23 C 267.18 375.63 265.09 355.83 260.53 336.72 C 258.07 325.57 255.33 314.42 252.61 303.32 C 250.47 288.76 249.78 273.84 245.20 259.74 Z" />
</g>
<g id="#1b232aff">
<path fill="#1b232a" opacity="1.00" d=" M 138.27 9.81 C 148.15 6.23 158.80 4.96 169.27 5.71 C 165.55 14.91 160.93 23.74 157.54 33.06 C 159.31 35.99 161.79 38.40 164.00 41.00 C 160.18 42.18 156.41 43.49 152.63 44.80 C 154.09 40.92 155.61 37.06 157.18 33.22 C 150.70 25.56 144.14 17.95 138.27 9.81 Z" />
<path fill="#1b232a" opacity="1.00" d=" M 171.91 6.13 C 181.16 6.73 190.09 9.64 198.59 13.18 C 195.76 17.65 193.64 22.51 191.30 27.25 C 195.13 31.20 198.99 35.13 202.76 39.14 C 197.37 39.07 192.05 38.04 186.67 37.95 C 188.14 34.53 189.68 31.14 191.28 27.77 C 184.63 20.73 178.25 13.45 171.91 6.13 Z" />
<path fill="#1b232a" opacity="1.00" d=" M 130.68 12.11 C 131.36 12.09 132.72 12.06 133.41 12.04 C 129.99 20.68 126.54 29.31 123.45 38.07 C 121.32 35.68 119.25 33.24 117.35 30.66 C 120.63 24.34 125.53 19.14 130.06 13.73 C 130.17 13.45 130.38 12.90 130.49 12.63 L 130.68 12.11 Z" />
<path fill="#1b232a" opacity="1.00" d=" M 219.99 32.59 C 223.32 37.57 225.34 43.27 226.77 49.05 C 222.87 46.86 219.03 44.54 214.87 42.86 C 216.55 39.42 218.40 36.07 219.99 32.59 Z" />
<path fill="#1b232a" opacity="1.00" d=" M 123.18 38.87 C 127.74 43.97 131.34 49.93 136.50 54.51 C 131.23 55.99 126.20 58.20 121.37 60.75 C 119.63 59.92 117.90 59.08 116.13 58.32 C 118.69 51.91 120.73 45.32 123.18 38.87 Z" />
<path fill="#1b232a" opacity="1.00" d=" M 175.04 40.91 C 188.58 39.21 202.67 40.41 215.42 45.48 C 222.37 48.23 229.04 53.10 231.62 60.38 C 233.96 67.39 233.91 76.14 228.46 81.72 C 227.96 72.99 222.17 65.60 215.18 60.80 C 199.53 49.13 178.99 46.46 160.03 48.62 C 155.87 49.17 151.73 49.88 147.54 50.12 C 155.63 44.62 165.49 42.35 175.04 40.91 Z" />
<path fill="#1b232a" opacity="1.00" d=" M 115.34 158.38 C 116.88 156.69 119.41 154.76 121.64 156.51 C 136.67 165.06 151.60 173.80 166.68 182.28 C 168.29 183.25 170.51 184.18 170.45 186.43 C 170.88 193.25 170.79 200.10 171.44 206.91 C 171.50 208.18 173.02 208.63 173.73 209.49 C 175.75 219.02 177.16 228.72 178.38 238.36 C 169.28 258.55 159.71 278.68 147.11 296.98 C 144.48 301.25 140.88 304.82 138.23 309.06 C 140.18 312.55 143.14 315.33 145.57 318.48 C 162.22 339.37 178.21 360.92 191.17 384.33 C 192.67 390.43 192.59 396.91 194.33 403.01 C 197.51 414.40 200.12 426.20 199.46 438.10 C 191.06 434.01 182.66 429.91 174.31 425.71 C 167.79 422.57 163.06 416.93 158.32 411.64 C 150.74 402.72 143.11 393.60 138.02 382.96 C 130.79 368.84 117.72 359.09 108.67 346.29 C 107.01 343.82 104.18 341.34 105.22 338.04 C 107.45 328.12 112.04 318.46 111.21 308.05 C 109.94 301.08 107.29 294.46 105.41 287.65 C 104.04 283.04 105.69 278.30 106.86 273.84 C 108.54 267.63 114.31 264.01 117.72 258.88 C 118.37 254.67 115.84 250.68 113.94 247.06 C 112.77 245.11 111.36 243.12 109.20 242.18 C 104.79 244.46 102.48 249.09 99.79 253.02 C 87.41 240.74 73.46 230.09 58.70 220.84 L 58.62 220.20 C 58.26 217.14 57.40 214.14 57.30 211.05 C 57.73 209.13 58.75 207.40 59.56 205.62 C 56.47 207.64 54.42 210.68 53.07 214.06 C 51.41 218.20 46.79 219.49 43.11 221.20 C 36.85 223.59 31.79 228.06 26.23 231.66 C 30.53 223.04 37.72 216.19 44.68 209.66 C 55.32 200.59 67.81 193.09 81.77 190.71 C 85.52 190.19 89.22 189.39 92.80 188.12 C 97.02 196.13 104.72 201.36 112.35 205.75 C 117.48 208.62 115.30 216.93 120.70 219.42 C 125.12 220.01 129.64 218.52 133.60 216.64 C 135.16 216.07 135.73 214.50 136.18 213.06 C 132.09 211.85 127.78 212.16 123.63 211.40 C 120.27 209.76 121.45 205.13 119.69 202.30 C 115.80 195.40 110.21 189.67 105.35 183.46 C 109.77 175.56 109.20 165.48 115.34 158.38 M 119.75 169.97 C 122.76 172.57 126.49 174.05 129.98 175.87 C 137.71 179.60 145.21 183.86 153.23 186.95 C 148.41 183.41 142.77 181.25 137.57 178.34 C 131.63 175.55 126.02 171.98 119.75 169.97 M 144.10 174.03 C 146.90 176.23 149.78 178.33 152.91 180.04 C 150.16 177.77 147.28 175.65 144.10 174.03 M 153.94 180.95 C 156.69 183.32 159.75 185.30 162.96 186.98 C 160.38 184.39 157.33 182.32 153.94 180.95 M 130.82 283.94 C 130.05 287.60 130.15 291.37 129.74 295.08 C 129.27 302.38 127.14 309.84 129.36 317.07 C 132.41 328.67 136.23 340.10 141.26 351.00 C 143.23 355.38 143.44 360.23 143.36 364.96 C 143.31 368.80 144.07 373.22 147.40 375.62 C 149.06 376.35 150.00 374.41 149.87 373.03 C 150.05 366.61 147.73 360.48 145.39 354.62 C 141.47 344.77 138.46 334.55 133.84 324.99 C 131.66 320.30 130.27 315.05 131.18 309.87 C 132.63 300.86 134.22 291.68 133.02 282.54 C 132.47 282.89 131.37 283.59 130.82 283.94 Z" />
<path fill="#1b232a" opacity="1.00" d=" M 179.55 186.62 C 180.08 183.12 182.91 180.66 185.65 178.75 C 185.89 186.50 185.67 194.26 186.08 202.00 C 183.90 204.22 181.26 206.15 179.90 209.03 C 182.50 213.22 186.73 216.07 189.83 219.87 C 189.18 214.55 189.28 209.20 189.11 203.86 C 195.41 206.65 201.20 210.43 207.16 213.86 C 214.82 218.88 222.76 223.68 229.25 230.23 L 229.33 230.63 C 230.33 236.81 233.35 242.56 233.34 248.91 C 233.43 255.63 233.64 262.35 234.14 269.06 C 234.67 275.09 233.93 281.39 236.34 287.11 C 236.92 273.69 237.60 260.25 237.15 246.82 C 241.60 257.10 243.55 268.27 245.52 279.24 C 246.21 286.50 247.93 293.66 247.69 300.99 C 247.59 309.37 248.09 317.80 246.84 326.12 C 246.24 332.10 245.50 338.06 244.69 344.01 C 244.55 344.26 244.26 344.75 244.11 344.99 C 241.62 349.18 239.48 353.91 239.90 358.91 C 239.99 362.84 241.19 367.22 238.76 370.72 C 233.47 379.04 227.78 387.10 222.38 395.35 C 219.17 400.41 215.18 405.00 212.68 410.50 C 216.84 407.25 218.99 402.30 222.25 398.28 C 226.85 392.69 231.52 387.06 237.20 382.53 C 234.95 401.40 226.99 419.22 226.33 438.34 C 229.06 433.88 228.86 428.45 230.54 423.61 C 231.68 418.96 234.29 414.94 236.68 410.87 C 236.37 417.25 235.60 423.60 235.32 429.97 C 234.96 437.18 237.07 444.61 234.58 451.62 C 233.63 454.78 230.98 457.71 227.46 457.64 C 223.96 457.96 220.52 458.81 217.00 458.95 C 212.64 459.03 208.66 456.99 204.73 455.39 C 203.64 457.34 202.54 459.28 201.42 461.21 C 200.55 458.89 200.21 456.44 200.55 453.98 C 200.71 454.88 201.03 456.69 201.19 457.59 C 203.48 454.66 206.07 451.61 206.55 447.79 C 206.65 444.27 204.14 441.46 201.50 439.47 C 201.86 442.36 203.28 444.98 203.70 447.85 C 203.37 449.85 202.12 451.53 201.07 453.21 C 200.06 445.42 202.44 437.70 201.73 429.91 C 201.29 421.44 199.48 413.12 197.17 404.99 C 196.53 402.88 196.03 400.69 196.28 398.48 C 196.61 395.54 196.28 392.59 195.67 389.72 C 195.42 390.14 194.91 391.00 194.66 391.43 L 194.28 392.06 C 194.26 390.55 193.64 388.93 194.18 387.49 C 204.70 368.97 215.15 350.37 224.21 331.08 C 227.95 322.54 232.32 314.13 234.27 304.94 C 235.10 302.59 233.57 300.53 232.30 298.71 C 220.99 282.80 209.56 266.95 196.93 252.05 C 192.56 246.97 188.20 241.84 183.07 237.50 L 183.03 236.89 C 182.53 232.03 182.60 226.87 180.18 222.46 C 179.99 224.33 179.82 226.21 179.77 228.09 C 178.77 222.72 177.54 217.38 176.85 211.95 C 176.27 209.11 178.46 206.72 178.59 203.95 C 178.87 198.17 178.82 192.36 179.55 186.62 M 201.73 420.69 C 205.58 426.31 210.99 430.83 214.00 437.03 C 214.85 439.12 214.70 441.46 215.29 443.63 C 217.02 446.53 221.29 449.16 224.34 446.55 C 221.71 444.62 218.57 443.02 217.02 439.99 C 214.84 435.98 212.54 432.03 209.71 428.43 C 207.40 425.54 205.27 422.19 201.73 420.69 Z" />
<path fill="#1b232a" opacity="1.00" d=" M 44.09 225.16 C 47.40 223.29 51.48 220.41 55.30 222.73 C 69.33 230.86 82.14 240.99 94.11 251.90 C 97.47 255.27 100.95 258.77 103.05 263.09 C 103.81 267.43 101.48 271.64 101.30 275.98 C 100.79 284.72 100.42 293.65 102.62 302.21 C 103.99 312.58 100.90 322.85 99.78 333.10 C 99.04 337.73 99.29 342.68 97.16 346.96 C 94.83 350.73 91.43 353.88 87.45 355.85 C 90.08 351.19 92.74 346.54 95.13 341.75 C 88.53 344.28 82.63 348.43 75.90 350.59 C 70.43 351.17 65.99 346.96 61.78 344.05 C 61.28 343.46 60.77 342.87 60.26 342.28 C 56.39 334.58 51.78 327.28 47.62 319.74 C 44.73 323.94 42.20 328.37 39.61 332.76 L 39.41 333.11 C 31.53 327.95 22.54 324.62 13.39 322.56 C 13.93 324.29 13.48 326.70 15.28 327.77 C 17.84 329.47 20.87 330.18 23.66 331.40 C 28.23 333.22 32.10 336.34 35.66 339.67 C 32.04 346.11 28.07 352.38 24.95 359.08 C 23.07 362.52 25.26 366.20 26.56 369.41 C 33.77 385.42 41.50 401.18 49.37 416.87 C 46.42 430.94 43.26 444.97 40.62 459.10 C 40.24 462.02 39.16 465.34 41.05 467.97 C 48.28 478.75 57.45 488.04 65.36 498.30 C 57.37 494.54 51.36 487.90 44.67 482.35 C 43.49 481.14 41.75 481.39 40.23 481.38 C 38.14 478.30 36.27 475.03 33.67 472.33 C 31.20 469.75 28.71 467.08 27.28 463.75 C 20.48 448.62 22.49 431.21 15.89 416.02 C 14.15 411.43 11.26 406.97 11.53 401.88 C 11.61 398.48 11.86 395.10 12.20 391.73 C 13.11 395.01 14.47 398.14 15.90 401.23 C 20.88 399.62 25.92 398.17 31.02 397.03 C 33.27 396.39 35.88 396.10 37.45 394.16 C 34.14 392.14 30.41 390.99 27.02 389.13 C 21.54 386.16 16.81 382.04 11.52 378.75 L 11.32 378.62 C 11.05 371.30 9.70 364.07 7.94 356.98 C 6.86 353.06 5.36 349.16 5.55 345.02 C 5.69 333.64 7.59 322.38 8.57 311.06 C 8.81 291.99 8.34 272.42 14.02 254.00 C 20.73 241.55 32.21 232.44 44.09 225.16 M 37.94 245.96 C 34.45 251.46 30.56 256.71 27.27 262.32 C 27.20 264.84 28.56 267.12 29.31 269.47 C 35.32 286.17 41.40 302.84 47.34 319.56 C 49.97 315.60 51.93 311.26 54.09 307.05 C 60.83 293.67 68.07 280.54 74.48 267.01 C 67.06 252.56 60.50 237.66 53.11 223.20 C 47.64 230.50 43.14 238.46 37.94 245.96 Z" />
<path fill="#1b232a" opacity="1.00" d=" M 250.50 297.69 C 251.15 299.58 251.93 301.43 252.61 303.32 C 255.33 314.42 258.07 325.57 260.53 336.72 C 259.71 340.89 258.48 344.96 257.54 349.11 C 257.45 349.51 257.26 350.33 257.17 350.73 C 252.71 354.79 248.47 359.07 244.06 363.18 C 244.49 357.39 246.02 351.77 246.97 346.06 C 247.72 342.14 248.01 338.12 249.15 334.28 C 250.36 330.04 252.55 325.52 250.66 321.13 C 249.96 318.81 250.31 316.37 250.33 314.01 C 250.57 308.57 250.21 303.12 250.50 297.69 Z" />
<path fill="#1b232a" opacity="1.00" d=" M 103.42 350.40 C 107.20 349.80 109.96 353.19 112.38 355.56 C 124.83 369.45 135.65 384.72 145.65 400.43 C 147.98 403.94 149.63 407.81 151.42 411.60 C 153.89 416.86 158.98 420.09 163.56 423.33 C 171.11 428.19 179.02 432.67 187.59 435.49 C 191.67 436.85 195.53 438.79 199.25 440.93 C 198.51 445.88 197.98 450.90 198.50 455.90 C 198.50 457.55 199.03 459.45 197.92 460.88 C 198.55 459.67 198.38 458.85 197.42 458.43 C 196.50 459.01 196.17 459.86 196.43 460.97 C 178.97 461.70 161.49 461.27 144.02 461.26 C 136.35 461.20 128.66 461.57 121.02 460.73 C 112.14 459.86 103.20 460.26 94.30 460.80 C 95.90 450.22 97.39 439.48 96.46 428.76 C 95.79 420.93 92.53 413.15 86.63 407.84 L 86.78 407.47 C 86.89 407.19 87.13 406.63 87.24 406.34 C 87.49 403.07 86.20 399.29 88.47 396.50 C 90.31 394.17 91.80 391.55 91.45 388.48 C 91.75 385.27 93.32 382.27 93.13 379.00 C 93.13 372.53 87.76 367.48 87.81 361.03 C 88.52 359.19 90.40 358.23 91.82 357.01 C 100.13 366.16 109.99 373.79 119.95 381.06 C 121.66 381.87 123.45 384.14 125.48 383.13 C 123.59 379.03 119.95 376.19 116.72 373.19 C 112.16 369.03 107.19 365.38 102.21 361.77 C 98.11 359.29 99.05 352.02 103.42 350.40 M 98.75 383.63 C 102.63 388.41 107.95 391.81 113.08 395.12 C 108.73 390.81 103.87 386.96 98.75 383.63 M 96.03 405.98 C 97.48 410.99 100.51 415.29 103.38 419.57 C 107.38 425.07 110.99 431.08 116.35 435.38 C 114.97 431.49 112.46 428.18 110.15 424.82 C 105.53 418.48 101.23 411.87 96.03 405.98 M 127.94 405.95 C 132.57 410.42 138.06 413.86 143.10 417.85 C 149.02 421.91 154.59 426.90 161.51 429.16 C 158.10 425.20 153.31 422.89 149.17 419.84 C 142.10 415.20 135.21 410.26 127.94 405.95 M 129.89 442.56 C 130.13 440.53 130.15 438.49 129.89 436.47 C 128.18 438.00 128.19 441.03 129.89 442.56 M 150.64 438.91 C 151.14 439.94 151.65 440.97 152.15 442.02 C 153.47 442.07 154.80 442.14 156.13 442.21 C 157.04 440.44 156.76 438.60 156.04 436.85 C 154.00 436.84 151.94 437.17 150.64 438.91 M 158.46 438.89 C 159.24 438.65 160.80 438.18 161.57 437.95 C 160.71 439.32 159.77 440.65 158.82 441.97 C 159.54 442.00 160.97 442.05 161.69 442.07 C 161.66 440.30 161.73 438.52 161.74 436.76 C 160.50 437.23 159.26 437.76 158.46 438.89 M 162.49 438.33 C 162.69 439.18 163.10 440.88 163.30 441.73 C 164.01 441.77 165.43 441.85 166.14 441.88 C 166.18 441.04 166.27 439.35 166.32 438.51 C 166.90 438.66 168.06 438.96 168.65 439.12 C 168.54 439.79 168.33 441.14 168.23 441.82 C 168.56 441.82 169.22 441.83 169.55 441.84 C 169.53 440.27 169.53 438.71 169.54 437.16 L 169.17 437.35 C 167.92 437.77 166.65 438.11 165.39 438.45 L 165.69 436.64 C 164.61 437.18 163.54 437.74 162.49 438.33 M 171.55 441.76 C 172.50 443.41 173.98 441.07 175.07 441.14 C 174.25 441.11 172.61 441.03 171.79 441.00 C 172.74 440.30 173.71 439.64 174.65 438.92 C 173.86 438.77 172.27 438.47 171.48 438.32 C 172.08 438.17 173.28 437.88 173.88 437.73 L 173.80 436.71 C 171.15 436.85 170.21 439.66 171.55 441.76 M 131.18 438.41 C 131.03 439.61 130.88 440.81 130.74 442.02 L 131.70 442.18 C 131.82 441.30 132.06 439.54 132.18 438.66 C 132.48 439.53 133.08 441.26 133.38 442.13 L 134.07 442.12 C 134.06 441.41 134.04 440.00 134.03 439.30 L 134.98 439.42 C 135.25 440.24 135.80 441.87 136.07 442.68 C 136.15 441.24 136.20 439.81 136.22 438.38 C 134.54 438.40 132.86 438.41 131.18 438.41 M 138.23 437.56 C 138.38 438.20 138.69 439.48 138.85 440.12 C 138.18 440.36 136.85 440.83 136.19 441.07 C 137.59 442.29 139.22 442.36 140.84 441.55 C 140.58 439.83 139.73 438.43 138.23 437.56 M 140.72 441.13 C 142.07 441.78 143.43 442.44 144.79 443.08 C 144.77 442.40 144.73 441.02 144.71 440.33 C 145.84 441.27 147.05 442.26 148.58 442.38 C 148.67 441.45 148.84 439.60 148.92 438.68 C 147.28 437.92 146.00 438.93 144.81 440.00 L 144.63 438.21 C 142.62 438.22 141.02 438.95 140.72 441.13 M 104.82 439.48 C 105.15 441.60 105.71 443.78 105.09 445.92 L 104.13 446.07 C 103.70 449.83 103.74 453.71 104.98 457.34 L 105.35 456.76 C 108.86 458.47 112.74 458.14 116.04 456.09 C 116.00 452.76 116.06 449.44 115.91 446.12 C 114.33 444.10 115.19 441.68 115.84 439.49 C 114.77 440.42 113.70 441.35 112.64 442.29 C 112.66 441.53 112.70 440.01 112.72 439.25 C 111.37 439.76 110.92 440.77 111.35 442.28 C 110.75 442.30 109.55 442.36 108.94 442.39 C 109.04 441.72 109.24 440.38 109.33 439.71 L 107.69 439.36 C 107.63 440.13 107.53 441.67 107.48 442.44 C 106.59 441.45 105.70 440.45 104.82 439.48 M 142.53 443.22 C 143.05 443.76 143.05 443.76 142.53 443.22 M 128.64 444.12 C 128.53 447.45 128.26 450.83 128.69 454.16 C 129.39 454.81 130.12 455.44 130.89 456.04 C 130.12 452.45 130.41 448.76 130.04 445.14 C 129.69 444.88 128.99 444.37 128.64 444.12 M 132.48 444.38 C 132.11 447.75 132.08 451.17 132.43 454.54 C 133.10 454.85 134.42 455.46 135.09 455.77 C 133.17 452.24 134.69 448.08 133.52 444.46 C 133.26 444.44 132.74 444.40 132.48 444.38 M 118.63 455.55 C 120.02 455.05 120.97 454.10 121.47 452.70 C 122.54 452.67 123.61 452.66 124.69 452.66 C 125.21 454.03 126.14 455.00 127.49 455.55 C 126.27 451.77 125.74 447.26 123.02 444.28 C 120.45 447.38 119.88 451.77 118.63 455.55 M 148.43 447.83 C 146.84 447.84 145.24 447.86 143.65 447.86 C 143.58 448.71 143.43 450.42 143.35 451.27 C 142.10 449.91 141.21 447.45 138.95 447.75 C 136.36 447.63 134.86 450.72 135.75 452.92 C 136.58 455.87 140.95 456.33 142.70 453.96 C 140.63 453.89 138.20 454.25 136.99 452.13 C 139.16 451.93 141.34 451.70 143.49 451.27 C 143.54 452.89 143.65 454.50 143.82 456.12 C 145.91 454.71 145.10 452.12 145.36 450.05 C 146.17 449.49 147.80 448.38 148.61 447.82 C 148.62 450.26 148.66 452.72 148.84 455.16 C 150.06 455.28 151.52 455.91 152.39 454.65 C 149.51 454.29 149.00 448.78 152.27 448.55 C 151.88 448.27 151.08 447.69 150.69 447.41 C 150.18 445.54 148.17 445.52 148.43 447.83 M 155.68 447.79 C 150.97 448.40 152.16 456.38 156.94 455.49 C 161.91 454.96 160.62 446.57 155.68 447.79 M 161.33 447.67 C 161.23 450.31 161.24 452.96 161.35 455.60 C 161.75 455.53 162.54 455.37 162.94 455.30 C 163.42 453.21 161.74 449.35 164.93 449.15 C 167.20 450.18 165.78 453.64 166.52 455.70 C 169.15 455.29 167.77 451.83 167.80 450.00 C 167.19 447.02 163.51 448.04 161.33 447.67 M 169.13 449.16 C 168.37 451.71 171.89 452.43 173.27 453.99 C 171.74 453.81 170.22 453.62 168.70 453.46 C 169.20 456.63 172.66 455.72 174.83 455.19 C 176.91 455.32 178.99 455.39 181.07 455.32 C 183.75 455.36 186.43 455.33 189.10 455.32 C 189.18 454.73 189.33 453.56 189.40 452.97 C 189.76 453.73 190.48 455.25 190.83 456.01 C 190.90 454.95 191.04 452.83 191.11 451.77 C 186.82 451.56 182.54 451.87 178.25 451.90 C 177.30 452.93 176.34 453.95 175.39 455.00 C 175.56 451.97 172.75 450.74 170.82 449.09 C 172.24 449.23 173.67 449.40 175.10 449.52 C 174.16 447.01 170.35 446.78 169.13 449.16 Z" />
<path fill="#1b232a" opacity="1.00" d=" M 243.98 366.08 C 248.11 362.42 251.96 358.46 256.01 354.70 C 254.73 360.80 252.44 366.76 252.56 373.07 C 249.43 373.88 246.20 374.17 243.00 374.50 C 243.06 370.95 243.13 367.40 243.68 363.89 C 243.75 364.44 243.90 365.53 243.98 366.08 Z" />
<path fill="#1b232a" opacity="1.00" d=" M 73.28 374.27 C 77.69 370.88 81.08 366.34 83.90 361.59 C 85.24 366.47 87.38 371.05 89.38 375.68 C 91.49 380.67 89.21 386.02 86.75 390.41 L 86.38 390.61 C 81.66 392.90 77.65 396.43 74.24 400.38 C 72.81 402.20 71.05 404.57 72.19 406.98 C 73.72 410.73 76.52 413.83 79.47 416.55 C 81.55 418.26 84.09 420.14 86.94 419.71 C 87.93 418.91 88.76 417.93 89.64 417.03 C 95.61 426.51 94.04 438.37 93.14 448.97 C 92.61 455.61 90.77 462.27 91.97 468.94 C 92.56 472.39 95.44 474.82 96.56 478.06 C 97.83 484.66 96.72 491.50 98.39 498.06 C 101.25 509.26 102.94 520.71 104.27 532.18 C 91.53 531.69 79.67 536.94 67.96 541.21 C 67.78 536.16 68.26 531.08 67.63 526.05 C 66.83 520.91 63.27 516.84 60.08 512.95 C 56.62 508.67 51.14 506.21 48.82 501.01 C 46.63 496.32 44.03 491.70 43.14 486.55 C 51.81 492.89 60.45 499.46 70.18 504.11 C 70.75 504.53 71.88 505.37 72.45 505.79 C 73.34 506.58 74.21 507.41 75.08 508.25 C 76.82 496.12 78.46 483.98 80.25 471.86 C 80.35 471.20 80.53 469.88 80.62 469.22 C 81.06 463.19 82.77 457.19 82.29 451.14 C 79.91 447.13 76.29 444.08 73.20 440.65 C 75.51 438.50 77.75 436.13 80.63 434.73 C 82.63 434.00 84.82 434.47 86.88 434.04 C 89.14 432.91 90.08 430.38 91.33 428.35 C 86.45 427.22 81.23 425.83 76.32 427.55 C 72.73 429.00 70.39 432.28 67.83 435.03 L 67.60 434.79 C 61.84 428.68 55.46 423.15 49.96 416.82 C 50.42 413.52 52.09 410.58 53.31 407.54 C 57.89 396.46 62.17 385.25 66.84 374.21 C 68.94 374.65 71.42 376.04 73.28 374.27 M 85.88 483.90 C 83.71 486.45 83.56 489.98 83.13 493.15 C 85.43 490.47 87.43 487.49 90.08 485.13 C 92.40 483.00 96.23 481.80 95.96 478.02 C 92.21 479.16 88.57 480.99 85.88 483.90 Z" />
<path fill="#1b232a" opacity="1.00" d=" M 241.95 384.51 C 246.39 381.80 250.74 378.94 255.25 376.33 C 258.50 382.67 261.94 388.90 265.20 395.23 C 264.73 405.92 264.54 416.62 264.74 427.32 C 260.33 432.70 256.54 438.54 252.26 444.01 C 254.64 451.44 257.41 458.74 260.09 466.06 C 254.47 469.58 249.30 473.94 243.08 476.42 C 241.83 472.56 240.64 468.46 241.66 464.39 C 243.29 457.59 242.89 450.52 242.06 443.64 C 240.66 446.45 239.33 449.31 238.06 452.19 C 239.59 444.14 237.59 436.04 237.99 427.95 C 238.36 420.97 239.29 414.03 239.72 407.06 C 242.69 405.27 245.55 403.05 249.01 402.31 C 253.52 401.37 258.24 401.55 262.62 399.92 C 259.24 397.34 254.45 396.61 250.66 398.72 C 247.11 400.79 243.77 403.22 240.46 405.64 C 239.88 398.56 241.32 391.54 241.95 384.51 Z" />
<path fill="#1b232a" opacity="1.00" d=" M 164.32 438.42 C 165.62 438.71 165.85 439.48 165.01 440.71 C 163.70 440.44 163.47 439.67 164.32 438.42 Z" />
<path fill="#1b232a" opacity="1.00" d=" M 142.23 439.82 C 145.19 438.19 142.45 443.18 142.23 439.82 Z" />
<path fill="#1b232a" opacity="1.00" d=" M 110.10 446.23 L 110.49 446.14 C 111.42 448.65 112.51 451.11 113.43 453.63 C 113.54 454.18 113.74 455.28 113.85 455.82 C 112.05 454.57 111.11 452.59 110.23 450.66 C 109.35 452.35 108.47 454.02 107.54 455.69 L 106.61 454.81 L 106.54 454.34 C 107.55 451.56 108.69 448.82 110.10 446.23 Z" />
<path fill="#1b232a" opacity="1.00" d=" M 122.30 448.48 C 123.76 447.26 125.13 449.95 123.86 450.93 C 122.32 452.21 120.87 449.47 122.30 448.48 Z" />
<path fill="#1b232a" opacity="1.00" d=" M 156.08 449.25 C 159.11 448.77 159.08 454.43 156.06 453.99 C 153.95 453.31 153.90 449.84 156.08 449.25 Z" />
<path fill="#1b232a" opacity="1.00" d=" M 179.28 453.09 C 182.34 451.63 179.32 456.39 179.28 453.09 Z" />
<path fill="#1b232a" opacity="1.00" d=" M 248.71 475.74 C 252.36 472.54 256.36 469.76 260.55 467.32 C 262.49 473.09 264.82 478.71 266.75 484.48 C 267.20 487.33 267.03 490.23 267.30 493.10 C 268.00 501.33 271.10 509.07 272.80 517.10 C 267.12 516.93 261.41 515.49 255.76 516.64 C 252.76 517.23 250.17 518.93 247.59 520.48 C 245.80 516.43 244.13 512.29 243.16 507.96 C 242.46 504.05 242.15 500.07 241.00 496.26 C 247.65 497.29 253.21 493.21 257.70 488.85 C 254.53 489.25 251.36 489.85 248.16 489.77 C 245.15 485.88 244.25 478.93 248.71 475.74 Z" />
</g>
<g id="#9e1b32ff">
<path fill="#9e1b32" opacity="1.00" d=" M 169.27 5.71 C 169.93 5.82 171.25 6.02 171.91 6.13 C 178.25 13.45 184.63 20.73 191.28 27.77 C 189.68 31.14 188.14 34.53 186.67 37.95 C 179.03 38.24 171.41 39.08 164.00 41.00 C 161.79 38.40 159.31 35.99 157.54 33.06 C 160.93 23.74 165.55 14.91 169.27 5.71 Z" />
<path fill="#9e1b32" opacity="1.00" d=" M 133.41 12.04 C 134.27 10.27 136.67 10.48 138.27 9.81 C 144.14 17.95 150.70 25.56 157.18 33.22 C 155.61 37.06 154.09 40.92 152.63 44.80 C 146.88 47.41 141.76 51.09 136.50 54.51 C 131.34 49.93 127.74 43.97 123.18 38.87 C 120.73 45.32 118.69 51.91 116.13 58.32 L 115.95 58.72 C 113.56 56.27 110.53 53.76 110.33 50.06 C 109.61 42.80 113.72 36.36 117.04 30.25 L 117.35 30.66 C 119.25 33.24 121.32 35.68 123.45 38.07 C 126.54 29.31 129.99 20.68 133.41 12.04 Z" />
<path fill="#9e1b32" opacity="1.00" d=" M 191.30 27.25 C 193.64 22.51 195.76 17.65 198.59 13.18 C 207.10 17.82 215.17 24.03 219.99 32.59 C 218.40 36.07 216.55 39.42 214.87 42.86 C 210.89 41.46 206.57 40.95 202.76 39.14 C 198.99 35.13 195.13 31.20 191.30 27.25 Z" />
<path fill="#9e1b32" opacity="1.00" d=" M 37.94 245.96 C 43.14 238.46 47.64 230.50 53.11 223.20 C 60.50 237.66 67.06 252.56 74.48 267.01 C 68.07 280.54 60.83 293.67 54.09 307.05 C 51.93 311.26 49.97 315.60 47.34 319.56 C 41.40 302.84 35.32 286.17 29.31 269.47 C 28.56 267.12 27.20 264.84 27.27 262.32 C 30.56 256.71 34.45 251.46 37.94 245.96 Z" />
<path fill="#9e1b32" opacity="1.00" d=" M 183.07 237.50 C 188.20 241.84 192.56 246.97 196.93 252.05 C 209.56 266.95 220.99 282.80 232.30 298.71 C 233.57 300.53 235.10 302.59 234.27 304.94 C 232.32 314.13 227.95 322.54 224.21 331.08 C 215.15 350.37 204.70 368.97 194.18 387.49 C 190.54 356.45 186.85 325.27 187.14 293.97 C 186.75 282.26 185.02 270.66 183.86 259.02 C 183.84 251.84 183.43 244.67 183.07 237.50 Z" />
<path fill="#9e1b32" opacity="1.00" d=" M 147.11 296.98 C 159.71 278.68 169.28 258.55 178.38 238.36 C 179.53 244.91 180.39 251.51 181.14 258.12 C 181.44 266.74 181.77 275.35 182.36 283.96 C 182.83 301.29 183.49 318.61 184.51 335.92 C 184.76 344.57 186.41 353.13 188.55 361.49 C 189.90 369.03 190.37 376.71 191.17 384.33 C 178.21 360.92 162.22 339.37 145.57 318.48 C 143.14 315.33 140.18 312.55 138.23 309.06 C 140.88 304.82 144.48 301.25 147.11 296.98 Z" />
<path fill="#9e1b32" opacity="1.00" d=" M 245.20 259.74 C 249.78 273.84 250.47 288.76 252.61 303.32 C 251.93 301.43 251.15 299.58 250.50 297.69 C 249.33 289.51 248.95 281.21 247.20 273.11 C 246.50 268.65 244.85 264.31 245.20 259.74 Z" />
<path fill="#9e1b32" opacity="1.00" d=" M 39.61 332.76 C 42.20 328.37 44.73 323.94 47.62 319.74 C 51.78 327.28 56.39 334.58 60.26 342.28 C 56.21 339.06 52.81 335.15 48.89 331.78 C 49.12 334.35 49.39 336.99 50.71 339.26 C 54.70 346.68 58.84 354.02 62.50 361.61 C 63.06 363.12 64.54 365.37 62.62 366.55 C 60.35 367.83 57.75 368.32 55.42 369.47 C 55.06 371.01 54.94 372.59 54.75 374.16 C 57.11 373.04 59.36 371.55 61.96 371.04 C 63.90 371.19 65.62 372.18 67.38 372.89 L 66.84 374.21 C 62.17 385.25 57.89 396.46 53.31 407.54 C 52.09 410.58 50.42 413.52 49.96 416.82 C 55.46 423.15 61.84 428.68 67.60 434.79 C 60.08 443.40 51.30 450.79 43.69 459.29 C 46.87 458.11 49.89 456.52 52.66 454.57 C 59.42 449.82 66.82 445.98 73.06 440.50 L 73.20 440.65 C 76.29 444.08 79.91 447.13 82.29 451.14 C 82.77 457.19 81.06 463.19 80.62 469.22 C 71.59 466.90 62.67 463.79 53.36 462.83 C 61.43 468.02 71.19 469.28 80.25 471.86 C 78.46 483.98 76.82 496.12 75.08 508.25 C 74.21 507.41 73.34 506.58 72.45 505.79 C 73.82 502.19 70.14 500.59 67.43 499.63 C 66.74 499.18 66.05 498.74 65.36 498.30 C 57.45 488.04 48.28 478.75 41.05 467.97 C 39.16 465.34 40.24 462.02 40.62 459.10 C 43.26 444.97 46.42 430.94 49.37 416.87 C 41.50 401.18 33.77 385.42 26.56 369.41 C 25.26 366.20 23.07 362.52 24.95 359.08 C 28.07 352.38 32.04 346.11 35.66 339.67 L 35.79 339.43 C 40.61 343.54 45.20 347.91 50.02 352.01 C 48.03 344.94 45.32 337.70 39.61 332.76 Z" />
<path fill="#9e1b32" opacity="1.00" d=" M 257.54 349.11 C 258.48 344.96 259.71 340.89 260.53 336.72 C 265.09 355.83 267.18 375.63 265.20 395.23 C 261.94 388.90 258.50 382.67 255.25 376.33 L 255.14 376.09 C 257.96 374.23 262.95 372.91 262.36 368.65 C 259.22 369.56 256.45 371.33 253.53 372.73 L 252.56 373.07 C 252.44 366.76 254.73 360.80 256.01 354.70 C 256.18 354.44 256.51 353.91 256.68 353.65 C 258.59 352.00 260.37 350.18 261.74 348.05 C 260.34 348.39 258.94 348.74 257.54 349.11 Z" />
<path fill="#9e1b32" opacity="1.00" d=" M 252.26 444.01 C 256.54 438.54 260.33 432.70 264.74 427.32 C 264.98 433.59 265.41 439.84 265.77 446.10 C 266.17 448.60 264.68 450.74 263.91 453.00 C 263.60 455.32 266.21 456.37 267.55 457.80 C 266.89 460.11 265.27 462.50 266.04 464.98 C 268.26 471.25 266.80 478.00 266.75 484.48 C 264.82 478.71 262.49 473.09 260.55 467.32 C 260.44 467.01 260.21 466.37 260.09 466.06 C 257.41 458.74 254.64 451.44 252.26 444.01 Z" />
</g>
<g id="#585e63ff">
<path fill="#585e63" opacity="1.00" d=" M 112.85 24.55 C 117.97 19.58 123.94 15.47 130.49 12.63 C 130.38 12.90 130.17 13.45 130.06 13.73 C 125.53 19.14 120.63 24.34 117.35 30.66 L 117.04 30.25 C 115.65 28.35 114.26 26.44 112.85 24.55 Z" />
<path fill="#585e63" opacity="1.00" d=" M 96.99 54.76 C 100.83 59.79 104.64 64.83 108.64 69.72 C 102.91 75.15 97.32 81.62 95.49 89.69 C 94.97 78.04 94.36 66.23 96.99 54.76 Z" />
<path fill="#585e63" opacity="1.00" d=" M 119.75 169.97 C 126.02 171.98 131.63 175.55 137.57 178.34 C 142.77 181.25 148.41 183.41 153.23 186.95 C 145.21 183.86 137.71 179.60 129.98 175.87 C 126.49 174.05 122.76 172.57 119.75 169.97 Z" />
<path fill="#585e63" opacity="1.00" d=" M 153.94 180.95 C 157.33 182.32 160.38 184.39 162.96 186.98 C 159.75 185.30 156.69 183.32 153.94 180.95 Z" />
<path fill="#585e63" opacity="1.00" d=" M 186.08 202.00 C 187.10 202.60 188.14 203.17 189.11 203.86 C 189.28 209.20 189.18 214.55 189.83 219.87 C 186.73 216.07 182.50 213.22 179.90 209.03 C 181.26 206.15 183.90 204.22 186.08 202.00 Z" />
<path fill="#585e63" opacity="1.00" d=" M 53.07 214.06 C 54.42 210.68 56.47 207.64 59.56 205.62 C 58.75 207.40 57.73 209.13 57.30 211.05 C 57.40 214.14 58.26 217.14 58.62 220.20 C 55.19 219.09 51.37 218.04 47.99 219.92 C 38.36 224.47 29.80 231.07 21.82 238.04 C 23.23 235.88 24.36 233.47 26.23 231.66 C 31.79 228.06 36.85 223.59 43.11 221.20 C 46.79 219.49 51.41 218.20 53.07 214.06 Z" />
<path fill="#585e63" opacity="1.00" d=" M 233.34 248.91 C 233.35 242.56 230.33 236.81 229.33 230.63 C 232.81 235.53 235.55 241.02 237.15 246.82 C 237.60 260.25 236.92 273.69 236.34 287.11 C 233.93 281.39 234.67 275.09 234.14 269.06 C 233.64 262.35 233.43 255.63 233.34 248.91 Z" />
<path fill="#585e63" opacity="1.00" d=" M 109.20 242.18 C 111.36 243.12 112.77 245.11 113.94 247.06 C 115.84 250.68 118.37 254.67 117.72 258.88 C 114.31 264.01 108.54 267.63 106.86 273.84 C 105.69 278.30 104.04 283.04 105.41 287.65 C 107.29 294.46 109.94 301.08 111.21 308.05 C 112.04 318.46 107.45 328.12 105.22 338.04 C 104.18 341.34 107.01 343.82 108.67 346.29 C 117.72 359.09 130.79 368.84 138.02 382.96 C 143.11 393.60 150.74 402.72 158.32 411.64 C 163.06 416.93 167.79 422.57 174.31 425.71 C 182.66 429.91 191.06 434.01 199.46 438.10 C 199.41 438.81 199.31 440.23 199.25 440.93 C 195.53 438.79 191.67 436.85 187.59 435.49 C 179.02 432.67 171.11 428.19 163.56 423.33 C 158.98 420.09 153.89 416.86 151.42 411.60 C 149.63 407.81 147.98 403.94 145.65 400.43 C 135.65 384.72 124.83 369.45 112.38 355.56 C 109.96 353.19 107.20 349.80 103.42 350.40 C 99.05 352.02 98.11 359.29 102.21 361.77 C 107.19 365.38 112.16 369.03 116.72 373.19 C 119.95 376.19 123.59 379.03 125.48 383.13 C 123.45 384.14 121.66 381.87 119.95 381.06 C 109.99 373.79 100.13 366.16 91.82 357.01 C 96.29 353.48 101.33 349.22 101.89 343.15 C 102.88 330.73 106.26 318.56 106.30 306.04 C 106.32 301.95 104.98 298.04 104.51 294.01 C 103.67 286.98 104.23 279.88 105.16 272.89 C 105.51 269.85 106.82 266.96 106.81 263.88 C 106.00 259.49 102.50 256.33 99.79 253.02 C 102.48 249.09 104.79 244.46 109.20 242.18 Z" />
<path fill="#585e63" opacity="1.00" d=" M 130.82 283.94 C 131.37 283.59 132.47 282.89 133.02 282.54 C 134.22 291.68 132.63 300.86 131.18 309.87 C 130.27 315.05 131.66 320.30 133.84 324.99 C 138.46 334.55 141.47 344.77 145.39 354.62 C 147.73 360.48 150.05 366.61 149.87 373.03 C 150.00 374.41 149.06 376.35 147.40 375.62 C 144.07 373.22 143.31 368.80 143.36 364.96 C 143.44 360.23 143.23 355.38 141.26 351.00 C 136.23 340.10 132.41 328.67 129.36 317.07 C 127.14 309.84 129.27 302.38 129.74 295.08 C 130.15 291.37 130.05 287.60 130.82 283.94 Z" />
<path fill="#585e63" opacity="1.00" d=" M 250.66 321.13 C 252.55 325.52 250.36 330.04 249.15 334.28 C 249.28 329.86 249.62 325.43 250.66 321.13 Z" />
<path fill="#585e63" opacity="1.00" d=" M 13.39 322.56 C 22.54 324.62 31.53 327.95 39.41 333.11 C 38.18 335.20 36.99 337.31 35.79 339.43 L 35.66 339.67 C 32.10 336.34 28.23 333.22 23.66 331.40 C 20.87 330.18 17.84 329.47 15.28 327.77 C 13.48 326.70 13.93 324.29 13.39 322.56 Z" />
<path fill="#585e63" opacity="1.00" d=" M 75.90 350.59 C 82.63 348.43 88.53 344.28 95.13 341.75 C 92.74 346.54 90.08 351.19 87.45 355.85 C 86.27 357.76 85.04 359.64 83.90 361.59 C 81.08 366.34 77.69 370.88 73.28 374.27 C 71.42 376.04 68.94 374.65 66.84 374.21 L 67.38 372.89 C 68.85 369.25 70.30 365.60 71.80 361.97 C 68.52 355.96 64.97 350.11 61.78 344.05 C 65.99 346.96 70.43 351.17 75.90 350.59 Z" />
<path fill="#585e63" opacity="1.00" d=" M 239.90 358.91 C 239.48 353.91 241.62 349.18 244.11 344.99 C 243.17 351.34 241.60 357.59 241.14 364.00 C 239.77 379.64 238.08 395.25 236.68 410.87 C 234.29 414.94 231.68 418.96 230.54 423.61 C 228.86 428.45 229.06 433.88 226.33 438.34 C 226.99 419.22 234.95 401.40 237.20 382.53 C 231.52 387.06 226.85 392.69 222.25 398.28 C 218.99 402.30 216.84 407.25 212.68 410.50 C 215.18 405.00 219.17 400.41 222.38 395.35 C 227.78 387.10 233.47 379.04 238.76 370.72 C 241.19 367.22 239.99 362.84 239.90 358.91 Z" />
<path fill="#585e63" opacity="1.00" d=" M 243.00 374.50 C 246.20 374.17 249.43 373.88 252.56 373.07 L 253.53 372.73 C 254.06 373.85 254.59 374.97 255.14 376.09 L 255.25 376.33 C 250.74 378.94 246.39 381.80 241.95 384.51 C 242.03 381.15 242.38 377.80 243.00 374.50 Z" />
<path fill="#585e63" opacity="1.00" d=" M 11.52 378.75 C 16.81 382.04 21.54 386.16 27.02 389.13 C 30.41 390.99 34.14 392.14 37.45 394.16 C 35.88 396.10 33.27 396.39 31.02 397.03 C 25.92 398.17 20.88 399.62 15.90 401.23 C 14.47 398.14 13.11 395.01 12.20 391.73 C 11.18 387.48 11.21 383.07 11.52 378.75 Z" />
<path fill="#585e63" opacity="1.00" d=" M 98.75 383.63 C 103.87 386.96 108.73 390.81 113.08 395.12 C 107.95 391.81 102.63 388.41 98.75 383.63 Z" />
<path fill="#585e63" opacity="1.00" d=" M 83.63 398.56 C 86.23 395.20 88.84 391.84 91.45 388.48 C 91.80 391.55 90.31 394.17 88.47 396.50 C 86.20 399.29 87.49 403.07 87.24 406.34 C 87.13 406.63 86.89 407.19 86.78 407.47 C 85.06 404.95 81.14 401.81 83.63 398.56 Z" />
<path fill="#585e63" opacity="1.00" d=" M 74.24 400.38 C 77.65 396.43 81.66 392.90 86.38 390.61 C 84.04 394.83 78.06 398.35 80.30 403.88 C 82.77 408.69 87.08 412.25 89.64 417.03 C 88.76 417.93 87.93 418.91 86.94 419.71 C 84.09 420.14 81.55 418.26 79.47 416.55 C 76.52 413.83 73.72 410.73 72.19 406.98 C 71.05 404.57 72.81 402.20 74.24 400.38 Z" />
<path fill="#585e63" opacity="1.00" d=" M 250.66 398.72 C 254.45 396.61 259.24 397.34 262.62 399.92 C 258.24 401.55 253.52 401.37 249.01 402.31 C 245.55 403.05 242.69 405.27 239.72 407.06 C 239.90 406.70 240.27 405.99 240.46 405.64 C 243.77 403.22 247.11 400.79 250.66 398.72 Z" />
<path fill="#585e63" opacity="1.00" d=" M 96.03 405.98 C 101.23 411.87 105.53 418.48 110.15 424.82 C 112.46 428.18 114.97 431.49 116.35 435.38 C 110.99 431.08 107.38 425.07 103.38 419.57 C 100.51 415.29 97.48 410.99 96.03 405.98 Z" />
<path fill="#585e63" opacity="1.00" d=" M 127.94 405.95 C 135.21 410.26 142.10 415.20 149.17 419.84 C 153.31 422.89 158.10 425.20 161.51 429.16 C 154.59 426.90 149.02 421.91 143.10 417.85 C 138.06 413.86 132.57 410.42 127.94 405.95 Z" />
<path fill="#585e63" opacity="1.00" d=" M 201.73 420.69 C 205.27 422.19 207.40 425.54 209.71 428.43 C 212.54 432.03 214.84 435.98 217.02 439.99 C 218.57 443.02 221.71 444.62 224.34 446.55 C 221.29 449.16 217.02 446.53 215.29 443.63 C 214.70 441.46 214.85 439.12 214.00 437.03 C 210.99 430.83 205.58 426.31 201.73 420.69 Z" />
<path fill="#585e63" opacity="1.00" d=" M 76.32 427.55 C 81.23 425.83 86.45 427.22 91.33 428.35 C 90.08 430.38 89.14 432.91 86.88 434.04 C 84.82 434.47 82.63 434.00 80.63 434.73 C 77.75 436.13 75.51 438.50 73.20 440.65 L 73.06 440.50 C 71.32 438.68 69.58 436.85 67.83 435.03 C 70.39 432.28 72.73 429.00 76.32 427.55 Z" />
<path fill="#585e63" opacity="1.00" d=" M 238.06 452.19 C 239.33 449.31 240.66 446.45 242.06 443.64 C 242.89 450.52 243.29 457.59 241.66 464.39 C 240.64 468.46 241.83 472.56 243.08 476.42 C 249.30 473.94 254.47 469.58 260.09 466.06 C 260.21 466.37 260.44 467.01 260.55 467.32 C 256.36 469.76 252.36 472.54 248.71 475.74 C 244.25 478.93 245.15 485.88 248.16 489.77 C 251.36 489.85 254.53 489.25 257.70 488.85 C 253.21 493.21 247.65 497.29 241.00 496.26 C 237.82 488.43 240.59 479.99 238.87 471.94 C 238.18 467.24 237.52 462.53 236.68 457.86 C 236.17 455.83 237.35 454.00 238.06 452.19 Z" />
<path fill="#585e63" opacity="1.00" d=" M 201.42 461.21 C 202.54 459.28 203.64 457.34 204.73 455.39 C 208.66 456.99 212.64 459.03 217.00 458.95 C 220.52 458.81 223.96 457.96 227.46 457.64 C 219.32 461.21 210.15 461.05 201.42 461.21 Z" />
<path fill="#585e63" opacity="1.00" d=" M 85.88 483.90 C 88.57 480.99 92.21 479.16 95.96 478.02 C 96.23 481.80 92.40 483.00 90.08 485.13 C 87.43 487.49 85.43 490.47 83.13 493.15 C 83.56 489.98 83.71 486.45 85.88 483.90 Z" />
<path fill="#585e63" opacity="1.00" d=" M 40.23 481.38 C 41.75 481.39 43.49 481.14 44.67 482.35 C 51.36 487.90 57.37 494.54 65.36 498.30 C 66.05 498.74 66.74 499.18 67.43 499.63 C 68.35 501.11 69.22 502.64 70.18 504.11 C 60.45 499.46 51.81 492.89 43.14 486.55 C 41.77 485.09 41.12 483.12 40.23 481.38 Z" />
</g>
<g id="#b45869ff">
<path fill="#b45869" opacity="1.00" d=" M 96.99 54.76 C 99.58 43.58 104.64 32.71 112.85 24.55 C 114.26 26.44 115.65 28.35 117.04 30.25 C 113.72 36.36 109.61 42.80 110.33 50.06 C 110.53 53.76 113.56 56.27 115.95 58.72 C 115.42 60.91 114.89 63.11 114.20 65.27 C 112.54 66.97 110.52 68.28 108.64 69.72 C 104.64 64.83 100.83 59.79 96.99 54.76 Z" />
<path fill="#b45869" opacity="1.00" d=" M 180.59 235.65 C 181.20 235.96 182.42 236.58 183.03 236.89 L 183.07 237.50 C 183.43 244.67 183.84 251.84 183.86 259.02 C 182.66 251.25 181.73 243.44 180.59 235.65 Z" />
<path fill="#b45869" opacity="1.00" d=" M 181.14 258.12 C 183.04 272.69 184.97 287.34 184.65 302.06 C 184.71 321.93 187.01 341.70 188.55 361.49 C 186.41 353.13 184.76 344.57 184.51 335.92 C 183.49 318.61 182.83 301.29 182.36 283.96 C 181.77 275.35 181.44 266.74 181.14 258.12 Z" />
<path fill="#b45869" opacity="1.00" d=" M 48.89 331.78 C 52.81 335.15 56.21 339.06 60.26 342.28 C 60.77 342.87 61.28 343.46 61.78 344.05 C 64.97 350.11 68.52 355.96 71.80 361.97 C 70.30 365.60 68.85 369.25 67.38 372.89 C 65.62 372.18 63.90 371.19 61.96 371.04 C 59.36 371.55 57.11 373.04 54.75 374.16 C 54.94 372.59 55.06 371.01 55.42 369.47 C 57.75 368.32 60.35 367.83 62.62 366.55 C 64.54 365.37 63.06 363.12 62.50 361.61 C 58.84 354.02 54.70 346.68 50.71 339.26 C 49.39 336.99 49.12 334.35 48.89 331.78 Z" />
<path fill="#b45869" opacity="1.00" d=" M 39.41 333.11 L 39.61 332.76 C 45.32 337.70 48.03 344.94 50.02 352.01 C 45.20 347.91 40.61 343.54 35.79 339.43 C 36.99 337.31 38.18 335.20 39.41 333.11 Z" />
<path fill="#b45869" opacity="1.00" d=" M 253.53 372.73 C 256.45 371.33 259.22 369.56 262.36 368.65 C 262.95 372.91 257.96 374.23 255.14 376.09 C 254.59 374.97 254.06 373.85 253.53 372.73 Z" />
<path fill="#b45869" opacity="1.00" d=" M 67.60 434.79 L 67.83 435.03 C 69.58 436.85 71.32 438.68 73.06 440.50 C 66.82 445.98 59.42 449.82 52.66 454.57 C 49.89 456.52 46.87 458.11 43.69 459.29 C 51.30 450.79 60.08 443.40 67.60 434.79 Z" />
<path fill="#b45869" opacity="1.00" d=" M 53.36 462.83 C 62.67 463.79 71.59 466.90 80.62 469.22 C 80.53 469.88 80.35 471.20 80.25 471.86 C 71.19 469.28 61.43 468.02 53.36 462.83 Z" />
</g>
<g id="#54555aff">
<path fill="#54555a" opacity="1.00" d=" M 115.95 58.72 L 116.13 58.32 C 117.90 59.08 119.63 59.92 121.37 60.75 C 119.01 62.31 116.64 63.84 114.20 65.27 C 114.89 63.11 115.42 60.91 115.95 58.72 Z" />
</g>
<g id="#84888bff">
<path fill="#84888b" opacity="1.00" d=" M 144.10 174.03 C 147.28 175.65 150.16 177.77 152.91 180.04 C 149.78 178.33 146.90 176.23 144.10 174.03 Z" />
<path fill="#84888b" opacity="1.00" d=" M 169.13 449.16 C 170.35 446.78 174.16 447.01 175.10 449.52 C 173.67 449.40 172.24 449.23 170.82 449.09 C 172.75 450.74 175.56 451.97 175.39 455.00 C 176.34 453.95 177.30 452.93 178.25 451.90 C 182.54 451.87 186.82 451.56 191.11 451.77 C 191.04 452.83 190.90 454.95 190.83 456.01 C 190.48 455.25 189.76 453.73 189.40 452.97 C 189.33 453.56 189.18 454.73 189.10 455.32 C 186.43 455.33 183.75 455.36 181.07 455.32 C 178.99 455.39 176.91 455.32 174.83 455.19 C 172.66 455.72 169.20 456.63 168.70 453.46 C 170.22 453.62 171.74 453.81 173.27 453.99 C 171.89 452.43 168.37 451.71 169.13 449.16 M 179.28 453.09 C 179.32 456.39 182.34 451.63 179.28 453.09 M 182.39 453.10 C 182.43 456.41 185.43 451.67 182.39 453.10 Z" />
</g>
<g id="#4d5258ff">
<path fill="#4d5258" opacity="1.00" d=" M 180.18 222.46 C 182.60 226.87 182.53 232.03 183.03 236.89 C 182.42 236.58 181.20 235.96 180.59 235.65 C 180.28 233.14 179.84 230.63 179.77 228.09 C 179.82 226.21 179.99 224.33 180.18 222.46 Z" />
</g>
<g id="#ad4d5eff">
<path fill="#ad4d5e" opacity="1.00" d=" M 257.54 349.11 C 258.94 348.74 260.34 348.39 261.74 348.05 C 260.37 350.18 258.59 352.00 256.68 353.65 C 256.80 352.92 257.04 351.46 257.17 350.73 C 257.26 350.33 257.45 349.51 257.54 349.11 Z" />
</g>
<g id="#505359ff">
<path fill="#505359" opacity="1.00" d=" M 244.06 363.18 C 248.47 359.07 252.71 354.79 257.17 350.73 C 257.04 351.46 256.80 352.92 256.68 353.65 C 256.51 353.91 256.18 354.44 256.01 354.70 C 251.96 358.46 248.11 362.42 243.98 366.08 C 243.90 365.53 243.75 364.44 243.68 363.89 L 244.06 363.18 Z" />
</g>
<g id="#363d43ff">
<path fill="#363d43" opacity="1.00" d=" M 194.66 391.43 C 194.91 391.00 195.42 390.14 195.67 389.72 C 196.28 392.59 196.61 395.54 196.28 398.48 C 195.47 396.21 194.72 393.86 194.66 391.43 Z" />
</g>
<g id="#e6e7e7ff">
<path fill="#e6e7e7" opacity="1.00" d=" M 129.89 442.56 C 128.19 441.03 128.18 438.00 129.89 436.47 C 130.15 438.49 130.13 440.53 129.89 442.56 Z" />
<path fill="#e6e7e7" opacity="1.00" d=" M 158.46 438.89 C 159.26 437.76 160.50 437.23 161.74 436.76 C 161.73 438.52 161.66 440.30 161.69 442.07 C 160.97 442.05 159.54 442.00 158.82 441.97 C 159.77 440.65 160.71 439.32 161.57 437.95 C 160.80 438.18 159.24 438.65 158.46 438.89 Z" />
<path fill="#e6e7e7" opacity="1.00" d=" M 162.49 438.33 C 163.54 437.74 164.61 437.18 165.69 436.64 L 165.39 438.45 C 166.65 438.11 167.92 437.77 169.17 437.35 L 169.54 437.16 C 169.53 438.71 169.53 440.27 169.55 441.84 C 169.22 441.83 168.56 441.82 168.23 441.82 C 168.33 441.14 168.54 439.79 168.65 439.12 C 168.06 438.96 166.90 438.66 166.32 438.51 C 166.27 439.35 166.18 441.04 166.14 441.88 C 165.43 441.85 164.01 441.77 163.30 441.73 C 163.10 440.88 162.69 439.18 162.49 438.33 M 164.32 438.42 C 163.47 439.67 163.70 440.44 165.01 440.71 C 165.85 439.48 165.62 438.71 164.32 438.42 Z" />
<path fill="#e6e7e7" opacity="1.00" d=" M 171.55 441.76 C 170.21 439.66 171.15 436.85 173.80 436.71 L 173.88 437.73 C 173.28 437.88 172.08 438.17 171.48 438.32 C 172.27 438.47 173.86 438.77 174.65 438.92 C 173.71 439.64 172.74 440.30 171.79 441.00 C 172.61 441.03 174.25 441.11 175.07 441.14 C 173.98 441.07 172.50 443.41 171.55 441.76 Z" />
<path fill="#e6e7e7" opacity="1.00" d=" M 131.18 438.41 C 132.86 438.41 134.54 438.40 136.22 438.38 C 136.20 439.81 136.15 441.24 136.07 442.68 C 135.80 441.87 135.25 440.24 134.98 439.42 L 134.03 439.30 C 134.04 440.00 134.06 441.41 134.07 442.12 L 133.38 442.13 C 133.08 441.26 132.48 439.53 132.18 438.66 C 132.06 439.54 131.82 441.30 131.70 442.18 L 130.74 442.02 C 130.88 440.81 131.03 439.61 131.18 438.41 Z" />
<path fill="#e6e7e7" opacity="1.00" d=" M 138.23 437.56 C 139.73 438.43 140.58 439.83 140.84 441.55 C 139.22 442.36 137.59 442.29 136.19 441.07 C 136.85 440.83 138.18 440.36 138.85 440.12 C 138.69 439.48 138.38 438.20 138.23 437.56 Z" />
<path fill="#e6e7e7" opacity="1.00" d=" M 140.72 441.13 C 141.02 438.95 142.62 438.22 144.63 438.21 L 144.81 440.00 C 146.00 438.93 147.28 437.92 148.92 438.68 C 148.84 439.60 148.67 441.45 148.58 442.38 C 147.05 442.26 145.84 441.27 144.71 440.33 C 144.73 441.02 144.77 442.40 144.79 443.08 C 143.43 442.44 142.07 441.78 140.72 441.13 M 142.23 439.82 C 142.45 443.18 145.19 438.19 142.23 439.82 Z" />
<path fill="#e6e7e7" opacity="1.00" d=" M 107.69 439.36 L 109.33 439.71 C 109.24 440.38 109.04 441.72 108.94 442.39 C 109.55 442.36 110.75 442.30 111.35 442.28 C 110.92 440.77 111.37 439.76 112.72 439.25 C 112.70 440.01 112.66 441.53 112.64 442.29 C 113.06 442.78 113.89 443.75 114.30 444.24 C 111.53 444.17 108.75 444.16 105.98 444.21 C 106.49 443.63 106.99 443.04 107.48 442.44 C 107.53 441.67 107.63 440.13 107.69 439.36 Z" />
<path fill="#e6e7e7" opacity="1.00" d=" M 128.64 444.12 C 128.99 444.37 129.69 444.88 130.04 445.14 C 130.41 448.76 130.12 452.45 130.89 456.04 C 130.12 455.44 129.39 454.81 128.69 454.16 C 128.26 450.83 128.53 447.45 128.64 444.12 Z" />
<path fill="#e6e7e7" opacity="1.00" d=" M 132.48 444.38 C 132.74 444.40 133.26 444.44 133.52 444.46 C 134.69 448.08 133.17 452.24 135.09 455.77 C 134.42 455.46 133.10 454.85 132.43 454.54 C 132.08 451.17 132.11 447.75 132.48 444.38 Z" />
<path fill="#e6e7e7" opacity="1.00" d=" M 118.63 455.55 C 119.88 451.77 120.45 447.38 123.02 444.28 C 125.74 447.26 126.27 451.77 127.49 455.55 C 126.14 455.00 125.21 454.03 124.69 452.66 C 123.61 452.66 122.54 452.67 121.47 452.70 C 120.97 454.10 120.02 455.05 118.63 455.55 M 122.30 448.48 C 120.87 449.47 122.32 452.21 123.86 450.93 C 125.13 449.95 123.76 447.26 122.30 448.48 Z" />
<path fill="#e6e7e7" opacity="1.00" d=" M 105.93 445.84 C 107.32 445.93 108.71 446.10 110.10 446.23 C 108.69 448.82 107.55 451.56 106.54 454.34 C 106.03 451.53 105.98 448.68 105.93 445.84 Z" />
<path fill="#e6e7e7" opacity="1.00" d=" M 148.43 447.83 C 148.17 445.52 150.18 445.54 150.69 447.41 C 151.08 447.69 151.88 448.27 152.27 448.55 C 149.00 448.78 149.51 454.29 152.39 454.65 C 151.52 455.91 150.06 455.28 148.84 455.16 C 148.66 452.72 148.62 450.26 148.61 447.82 C 147.80 448.38 146.17 449.49 145.36 450.05 C 145.10 452.12 145.91 454.71 143.82 456.12 C 143.65 454.50 143.54 452.89 143.49 451.27 C 141.34 451.70 139.16 451.93 136.99 452.13 C 138.20 454.25 140.63 453.89 142.70 453.96 C 140.95 456.33 136.58 455.87 135.75 452.92 C 134.86 450.72 136.36 447.63 138.95 447.75 C 141.21 447.45 142.10 449.91 143.35 451.27 C 143.43 450.42 143.58 448.71 143.65 447.86 C 145.24 447.86 146.84 447.84 148.43 447.83 M 138.16 449.28 C 137.69 450.84 138.29 451.35 139.98 450.79 C 140.45 449.20 139.84 448.70 138.16 449.28 Z" />
<path fill="#e6e7e7" opacity="1.00" d=" M 155.68 447.79 C 160.62 446.57 161.91 454.96 156.94 455.49 C 152.16 456.38 150.97 448.40 155.68 447.79 M 156.08 449.25 C 153.90 449.84 153.95 453.31 156.06 453.99 C 159.08 454.43 159.11 448.77 156.08 449.25 Z" />
<path fill="#e6e7e7" opacity="1.00" d=" M 161.33 447.67 C 163.51 448.04 167.19 447.02 167.80 450.00 C 167.77 451.83 169.15 455.29 166.52 455.70 C 165.78 453.64 167.20 450.18 164.93 449.15 C 161.74 449.35 163.42 453.21 162.94 455.30 C 162.54 455.37 161.75 455.53 161.35 455.60 C 161.24 452.96 161.23 450.31 161.33 447.67 Z" />
<path fill="#e6e7e7" opacity="1.00" d=" M 107.54 455.69 C 108.47 454.02 109.35 452.35 110.23 450.66 C 111.11 452.59 112.05 454.57 113.85 455.82 L 113.88 455.99 C 111.76 455.91 109.65 455.88 107.54 455.69 Z" />
</g>
<g id="#666c70ff">
<path fill="#666c70" opacity="1.00" d=" M 150.64 438.91 C 151.94 437.17 154.00 436.84 156.04 436.85 C 156.76 438.60 157.04 440.44 156.13 442.21 C 154.80 442.14 153.47 442.07 152.15 442.02 C 151.65 440.97 151.14 439.94 150.64 438.91 M 154.92 440.51 L 155.68 440.03 L 155.67 439.00 L 154.89 438.54 C 154.67 438.37 154.24 438.02 154.03 437.84 C 151.49 438.08 153.58 442.82 154.92 440.51 Z" />
</g>
<g id="#9ea1a4ff">
<path fill="#9ea1a4" opacity="1.00" d=" M 154.92 440.51 C 153.58 442.82 151.49 438.08 154.03 437.84 C 154.24 438.02 154.67 438.37 154.89 438.54 C 154.90 439.03 154.91 440.02 154.92 440.51 Z" />
</g>
<g id="#232b32ff">
<path fill="#232b32" opacity="1.00" d=" M 154.92 440.51 C 154.91 440.02 154.90 439.03 154.89 438.54 L 155.67 439.00 L 155.68 440.03 L 154.92 440.51 Z" />
</g>
<g id="#898d90ff">
<path fill="#898d90" opacity="1.00" d=" M 104.82 439.48 C 105.70 440.45 106.59 441.45 107.48 442.44 C 106.99 443.04 106.49 443.63 105.98 444.21 C 108.75 444.16 111.53 444.17 114.30 444.24 C 113.89 443.75 113.06 442.78 112.64 442.29 C 113.70 441.35 114.77 440.42 115.84 439.49 C 115.19 441.68 114.33 444.10 115.91 446.12 C 116.06 449.44 116.00 452.76 116.04 456.09 C 112.74 458.14 108.86 458.47 105.35 456.76 C 105.67 456.27 106.30 455.30 106.61 454.81 L 107.54 455.69 C 109.65 455.88 111.76 455.91 113.88 455.99 L 113.85 455.82 C 113.74 455.28 113.54 454.18 113.43 453.63 C 113.87 450.89 114.05 448.12 114.14 445.36 C 112.92 445.61 111.70 445.87 110.49 446.14 L 110.10 446.23 C 108.71 446.10 107.32 445.93 105.93 445.84 L 105.09 445.92 C 105.71 443.78 105.15 441.60 104.82 439.48 Z" />
</g>
<g id="#51575cff">
<path fill="#51575c" opacity="1.00" d=" M 201.50 439.47 C 204.14 441.46 206.65 444.27 206.55 447.79 C 206.07 451.61 203.48 454.66 201.19 457.59 C 201.03 456.69 200.71 454.88 200.55 453.98 L 201.07 453.21 C 202.12 451.53 203.37 449.85 203.70 447.85 C 203.28 444.98 201.86 442.36 201.50 439.47 Z" />
</g>
<g id="#aaadafff">
<path fill="#aaadaf" opacity="1.00" d=" M 142.53 443.22 C 143.05 443.76 143.05 443.76 142.53 443.22 Z" />
</g>
<g id="#64696eff">
<path fill="#64696e" opacity="1.00" d=" M 104.13 446.07 L 105.09 445.92 L 105.93 445.84 C 105.98 448.68 106.03 451.53 106.54 454.34 L 106.61 454.81 C 106.30 455.30 105.67 456.27 105.35 456.76 L 104.98 457.34 C 103.74 453.71 103.70 449.83 104.13 446.07 Z" />
</g>
<g id="#d8dadaff">
<path fill="#d8dada" opacity="1.00" d=" M 110.49 446.14 C 111.70 445.87 112.92 445.61 114.14 445.36 C 114.05 448.12 113.87 450.89 113.43 453.63 C 112.51 451.11 111.42 448.65 110.49 446.14 Z" />
</g>
<g id="#61666bff">
<path fill="#61666b" opacity="1.00" d=" M 138.16 449.28 C 139.84 448.70 140.45 449.20 139.98 450.79 C 138.29 451.35 137.69 450.84 138.16 449.28 Z" />
</g>
<g id="#464c52ff">
<path fill="#464c52" opacity="1.00" d=" M 182.39 453.10 C 185.43 451.67 182.43 456.41 182.39 453.10 Z" />
</g>
<g id="#4e5459ff">
<path fill="#4e5459" opacity="1.00" d=" M 197.42 458.43 C 198.38 458.85 198.55 459.67 197.92 460.88 C 197.55 460.90 196.80 460.95 196.43 460.97 C 196.17 459.86 196.50 459.01 197.42 458.43 Z" />
</g>
<g id="#a45564ff">
<path fill="#a45564" opacity="1.00" d=" M 67.43 499.63 C 70.14 500.59 73.82 502.19 72.45 505.79 C 71.88 505.37 70.75 504.53 70.18 504.11 C 69.22 502.64 68.35 501.11 67.43 499.63 Z" />
</g>
</svg>
