<?xml version="1.0" encoding="UTF-8" ?>
<!DOCTYPE svg PUBLIC "-//W3C//DTD SVG 1.1//EN" "http://www.w3.org/Graphics/SVG/1.1/DTD/svg11.dtd">
<svg width="279pt" height="547pt" viewBox="0 0 279 547" version="1.1" xmlns="http://www.w3.org/2000/svg">
<g id="#ffffffff">
<path fill="#ffffff" opacity="1.00" d=" M 0.00 0.00 L 279.00 0.00 L 279.00 547.00 L 0.00 547.00 L 0.00 0.00 M 123.24 14.17 C 110.53 21.44 100.98 33.81 96.80 47.81 C 90.67 66.65 92.27 87.00 96.86 105.99 C 100.15 108.82 101.03 113.58 104.73 116.13 C 103.35 120.69 101.83 125.29 99.29 129.35 C 97.64 132.13 93.84 133.37 93.34 136.83 C 92.52 141.51 92.93 146.61 95.31 150.81 C 96.31 152.62 97.43 154.99 95.99 156.90 C 94.06 159.65 91.65 162.08 90.06 165.08 C 85.80 171.75 88.85 180.11 91.62 186.78 C 80.06 188.14 68.61 191.24 58.58 197.29 C 37.32 209.89 21.84 230.46 11.60 252.63 C 6.08 270.84 6.34 290.13 6.23 308.97 C 5.26 321.32 2.95 333.59 2.99 346.01 C 2.83 350.11 4.58 353.88 5.55 357.78 C 7.36 365.04 9.05 372.46 8.69 380.00 C 8.37 386.35 9.17 392.69 8.88 399.05 C 7.96 408.61 14.40 416.54 16.30 425.57 C 18.96 438.59 19.13 452.36 24.77 464.63 C 26.75 469.08 30.52 472.29 33.50 476.03 C 39.86 484.80 42.39 495.66 48.22 504.71 C 53.21 510.37 59.90 514.61 63.44 521.49 C 67.15 527.71 64.71 535.14 65.53 541.90 C 65.70 542.96 66.66 544.93 68.01 544.01 C 80.51 539.38 93.41 533.11 107.11 535.00 C 105.71 521.61 103.57 508.27 100.47 495.17 C 98.83 488.54 101.09 481.25 98.01 474.97 C 95.67 471.61 93.44 467.89 93.99 463.59 C 104.61 462.49 115.28 462.97 125.89 463.86 C 145.27 463.82 164.65 464.36 184.04 463.99 C 194.38 463.78 204.74 464.38 215.08 463.75 C 221.62 462.68 228.69 461.89 234.08 457.69 C 235.60 465.33 237.09 473.05 237.28 480.85 C 236.31 487.65 237.91 494.37 239.68 500.88 C 240.11 508.65 242.66 516.11 245.91 523.13 C 246.38 523.53 247.32 524.33 247.79 524.73 C 250.71 521.66 254.57 519.32 258.89 519.14 C 263.99 518.45 268.95 520.50 274.03 520.27 C 274.40 519.94 275.12 519.28 275.48 518.95 C 274.09 509.55 269.96 500.59 269.55 490.99 C 269.39 483.98 269.56 476.97 269.85 469.98 C 270.08 467.87 268.87 466.04 268.41 464.06 C 268.80 461.99 269.81 460.10 270.32 458.07 C 270.24 455.67 268.01 454.56 266.39 453.26 C 267.31 451.30 268.91 449.40 268.60 447.09 C 267.30 431.07 267.03 414.97 267.74 398.92 C 268.55 387.02 269.18 375.03 267.80 363.14 C 266.99 353.58 264.93 344.21 263.10 334.82 C 259.90 320.28 255.51 305.94 253.89 291.10 C 252.37 274.48 249.08 257.81 242.26 242.51 C 240.08 238.23 237.89 233.31 233.37 231.07 C 226.76 224.04 218.67 218.71 210.62 213.51 C 203.45 209.04 196.18 204.73 188.66 200.88 C 188.46 192.61 188.56 184.35 188.35 176.09 C 188.44 174.85 187.79 172.82 186.27 174.16 C 183.21 177.43 180.20 180.81 177.51 184.39 C 176.57 191.46 176.85 198.66 176.01 205.74 C 175.49 205.91 174.43 206.24 173.90 206.40 C 173.42 198.96 173.22 191.50 172.65 184.06 C 172.71 182.75 171.31 182.26 170.43 181.65 C 155.12 172.91 139.83 164.13 124.55 155.33 C 122.39 154.20 119.95 152.01 117.46 153.69 C 111.66 156.97 109.68 163.88 107.90 169.85 C 106.49 173.92 106.76 178.66 103.83 182.09 C 99.38 175.28 100.60 166.73 100.08 159.02 C 100.30 151.60 98.08 144.34 98.63 136.94 C 103.82 139.09 107.30 143.99 112.66 145.84 C 110.00 134.16 113.16 122.14 117.21 111.17 C 119.04 105.76 123.41 101.56 124.61 95.92 C 126.25 88.56 125.70 80.97 125.17 73.52 C 138.45 68.24 152.72 65.61 166.97 65.00 C 181.00 64.56 196.12 66.83 207.07 76.34 C 208.09 79.43 208.87 82.62 208.69 85.91 C 208.03 104.40 207.31 122.90 206.15 141.38 C 205.92 142.64 206.14 144.17 205.18 145.17 C 201.86 148.82 197.74 151.68 194.62 155.53 C 192.85 157.26 194.76 159.57 195.72 161.21 C 196.98 163.18 199.42 165.66 201.88 164.00 C 206.61 161.34 211.39 157.76 213.53 152.60 C 213.96 149.49 211.87 146.63 211.71 143.52 C 210.29 130.14 211.80 116.67 213.23 103.36 C 218.34 99.15 223.48 94.71 226.98 89.01 C 229.75 84.75 234.28 81.38 235.30 76.17 C 237.23 68.25 235.72 59.66 230.87 53.06 C 228.92 45.88 226.83 38.57 222.73 32.25 C 214.43 18.41 199.65 9.34 184.07 5.99 C 163.73 0.91 141.42 3.58 123.24 14.17 Z" />
<path fill="#ffffff" opacity="1.00" d=" M 102.10 84.16 C 105.21 82.69 108.67 81.16 112.18 82.10 C 115.67 83.06 117.46 87.62 115.76 90.76 C 112.03 98.90 107.61 106.77 104.81 115.31 C 102.04 109.15 99.80 102.64 99.14 95.89 C 99.28 91.82 100.48 87.86 102.10 84.16 Z" />
<path fill="#ffffff" opacity="1.00" d=" M 158.42 449.98 C 156.91 449.40 155.40 448.82 154.01 448.00 C 156.80 447.01 160.75 448.63 159.91 452.06 C 160.16 456.00 153.89 456.56 152.89 452.96 C 152.92 451.98 152.98 450.01 153.01 449.03 C 153.95 450.44 154.49 452.05 154.95 453.69 C 157.70 454.63 158.67 452.40 158.42 449.98 Z" />
</g>
<g id="#000000ff">
<path fill="#000000" opacity="1.00" d=" M 123.24 14.17 C 141.42 3.58 163.73 0.91 184.07 5.99 C 199.65 9.34 214.43 18.41 222.73 32.25 C 226.83 38.57 228.92 45.88 230.87 53.06 C 235.72 59.66 237.23 68.25 235.30 76.17 C 234.28 81.38 229.75 84.75 226.98 89.01 C 223.48 94.71 218.34 99.15 213.23 103.36 C 211.80 116.67 210.29 130.14 211.71 143.52 C 211.87 146.63 213.96 149.49 213.53 152.60 C 211.39 157.76 206.61 161.34 201.88 164.00 C 199.42 165.66 196.98 163.18 195.72 161.21 C 194.76 159.57 192.85 157.26 194.62 155.53 C 197.74 151.68 201.86 148.82 205.18 145.17 C 206.14 144.17 205.92 142.64 206.15 141.38 C 207.31 122.90 208.03 104.40 208.69 85.91 C 208.87 82.62 208.09 79.43 207.07 76.34 C 196.12 66.83 181.00 64.56 166.97 65.00 C 152.72 65.61 138.45 68.24 125.17 73.52 C 125.70 80.97 126.25 88.56 124.61 95.92 C 123.41 101.56 119.04 105.76 117.21 111.17 C 113.16 122.14 110.00 134.16 112.66 145.84 C 107.30 143.99 103.82 139.09 98.63 136.94 C 98.08 144.34 100.30 151.60 100.08 159.02 C 100.60 166.73 99.38 175.28 103.83 182.09 C 106.76 178.66 106.49 173.92 107.90 169.85 C 109.68 163.88 111.66 156.97 117.46 153.69 C 119.95 152.01 122.39 154.20 124.55 155.33 C 139.83 164.13 155.12 172.91 170.43 181.65 C 171.31 182.26 172.71 182.75 172.65 184.06 C 173.22 191.50 173.42 198.96 173.90 206.40 C 174.43 206.24 175.49 205.91 176.01 205.74 C 176.85 198.66 176.57 191.46 177.51 184.39 C 180.20 180.81 183.21 177.43 186.27 174.16 C 187.79 172.82 188.44 174.85 188.35 176.09 C 188.56 184.35 188.46 192.61 188.66 200.88 C 196.18 204.73 203.45 209.04 210.62 213.51 C 218.67 218.71 226.76 224.04 233.37 231.07 C 237.89 233.31 240.08 238.23 242.26 242.51 C 249.08 257.81 252.37 274.48 253.89 291.10 C 255.51 305.94 259.90 320.28 263.10 334.82 C 264.93 344.21 266.99 353.58 267.80 363.14 C 269.18 375.03 268.55 387.02 267.74 398.92 C 267.03 414.97 267.30 431.07 268.60 447.09 C 268.91 449.40 267.31 451.30 266.39 453.26 C 268.01 454.56 270.24 455.67 270.32 458.07 C 269.81 460.10 268.80 461.99 268.41 464.06 C 268.87 466.04 270.08 467.87 269.85 469.98 C 269.56 476.97 269.39 483.98 269.55 490.99 C 269.96 500.59 274.09 509.55 275.48 518.95 C 275.12 519.28 274.40 519.94 274.03 520.27 C 268.95 520.50 263.99 518.45 258.89 519.14 C 254.57 519.32 250.71 521.66 247.79 524.73 C 247.32 524.33 246.38 523.53 245.91 523.13 C 242.66 516.11 240.11 508.65 239.68 500.88 C 237.91 494.37 236.31 487.65 237.28 480.85 C 237.09 473.05 235.60 465.33 234.08 457.69 C 228.69 461.89 221.62 462.68 215.08 463.75 C 204.74 464.38 194.38 463.78 184.04 463.99 C 164.65 464.36 145.27 463.82 125.89 463.86 C 115.28 462.97 104.61 462.49 93.99 463.59 C 93.44 467.89 95.67 471.61 98.01 474.97 C 101.09 481.25 98.83 488.54 100.47 495.17 C 103.57 508.27 105.71 521.61 107.11 535.00 C 93.41 533.11 80.51 539.38 68.01 544.01 C 66.66 544.93 65.70 542.96 65.53 541.90 C 64.71 535.14 67.15 527.71 63.44 521.49 C 59.90 514.61 53.21 510.37 48.22 504.71 C 42.39 495.66 39.86 484.80 33.50 476.03 C 30.52 472.29 26.75 469.08 24.77 464.63 C 19.13 452.36 18.96 438.59 16.30 425.57 C 14.40 416.54 7.96 408.61 8.88 399.05 C 9.17 392.69 8.37 386.35 8.69 380.00 C 9.05 372.46 7.36 365.04 5.55 357.78 C 4.58 353.88 2.83 350.11 2.99 346.01 C 2.95 333.59 5.26 321.32 6.23 308.97 C 6.34 290.13 6.08 270.84 11.60 252.63 C 21.84 230.46 37.32 209.89 58.58 197.29 C 68.61 191.24 80.06 188.14 91.62 186.78 C 88.85 180.11 85.80 171.75 90.06 165.08 C 91.65 162.08 94.06 159.65 95.99 156.90 C 97.43 154.99 96.31 152.62 95.31 150.81 C 92.93 146.61 92.52 141.51 93.34 136.83 C 93.84 133.37 97.64 132.13 99.29 129.35 C 101.83 125.29 103.35 120.69 104.73 116.13 C 101.03 113.58 100.15 108.82 96.86 105.99 C 92.27 87.00 90.67 66.65 96.80 47.81 C 100.98 33.81 110.53 21.44 123.24 14.17 M 156.37 5.56 C 146.66 7.11 136.83 9.20 128.04 13.76 C 126.08 14.40 124.25 15.48 122.75 16.88 C 115.16 21.37 108.83 27.95 104.44 35.58 C 94.98 51.58 93.91 70.93 95.70 89.01 C 97.26 83.55 100.13 78.59 103.91 74.38 C 109.12 69.16 114.91 64.54 121.29 60.84 C 127.80 56.67 135.84 55.68 142.01 50.91 C 148.05 46.45 155.13 43.73 162.26 41.56 C 179.00 36.45 197.09 37.32 213.73 42.37 L 213.81 42.67 C 218.60 44.18 223.03 46.61 227.01 49.66 C 225.86 44.94 224.28 40.31 222.03 35.99 C 215.72 23.61 204.00 14.24 190.75 10.27 C 179.85 6.16 167.95 4.92 156.37 5.56 M 145.55 50.87 C 153.99 49.45 162.46 47.80 171.06 47.98 C 187.96 47.66 205.58 52.19 218.54 63.46 C 224.03 68.12 228.23 74.65 228.45 82.02 C 235.89 73.51 234.01 59.45 226.02 51.92 C 220.43 46.86 213.11 44.24 205.91 42.44 C 185.73 37.76 163.48 40.19 145.55 50.87 M 102.10 84.16 C 100.48 87.86 99.28 91.82 99.14 95.89 C 99.80 102.64 102.04 109.15 104.81 115.31 C 107.61 106.77 112.03 98.90 115.76 90.76 C 117.46 87.62 115.67 83.06 112.18 82.10 C 108.67 81.16 105.21 82.69 102.10 84.16 M 110.63 168.45 C 108.84 173.44 108.95 179.23 105.41 183.48 C 109.03 188.22 113.09 192.62 116.60 197.46 C 118.46 200.03 120.40 202.74 120.86 205.97 C 121.35 207.88 121.21 210.58 123.48 211.39 C 127.49 212.37 131.87 211.37 135.72 213.14 C 136.26 214.38 135.94 215.28 134.78 215.85 C 130.48 218.49 125.15 220.21 120.09 219.25 C 115.43 216.14 117.44 208.45 112.33 205.73 C 105.70 201.90 99.11 197.52 94.69 191.12 C 93.76 190.06 92.91 187.90 91.10 188.95 C 86.71 190.10 82.19 190.68 77.79 191.78 C 56.89 197.49 39.42 212.33 27.30 229.94 C 25.16 232.89 23.20 235.97 21.23 239.03 C 28.22 232.14 36.27 226.47 44.59 221.32 C 46.01 220.94 47.38 220.37 48.76 219.85 L 49.22 219.26 C 52.47 218.30 55.71 219.20 58.59 220.78 C 73.37 230.05 87.38 240.68 99.75 253.01 C 102.98 256.95 108.12 261.29 106.45 266.98 C 105.18 271.42 104.60 276.02 104.50 280.64 C 103.57 284.39 104.00 288.31 104.33 292.11 C 104.49 297.15 106.60 301.95 106.29 307.04 C 105.91 320.28 102.59 333.20 101.41 346.37 C 99.08 350.61 95.74 354.18 91.81 356.99 C 90.28 358.45 87.66 359.54 87.73 362.00 C 88.41 368.01 93.10 372.86 93.16 379.02 C 93.43 382.26 91.77 385.20 91.38 388.34 C 88.87 392.11 85.80 395.46 83.24 399.18 C 81.57 402.65 85.49 405.41 87.35 407.86 C 90.75 412.48 94.27 417.28 95.51 423.03 C 98.16 435.59 95.98 448.46 94.34 461.00 C 102.86 460.08 111.46 459.99 120.00 460.67 C 131.66 461.76 143.38 460.99 155.07 461.31 C 168.82 461.78 182.58 461.27 196.34 461.07 C 197.89 462.02 199.39 459.32 198.13 458.25 C 198.62 452.49 198.09 446.63 199.28 440.91 C 199.35 440.23 199.48 438.87 199.54 438.19 C 199.95 426.96 198.02 415.75 194.83 405.02 C 191.33 390.74 190.79 375.95 188.59 361.47 C 186.87 342.51 185.20 323.55 184.45 304.52 C 185.15 293.76 184.18 282.93 182.75 272.26 C 182.75 271.69 182.75 270.54 182.75 269.96 C 180.24 249.52 177.19 229.14 173.91 208.80 C 173.31 208.68 172.10 208.42 171.50 208.30 C 171.08 200.38 170.58 192.47 170.32 184.55 C 153.59 174.59 136.54 165.17 119.75 155.31 C 114.35 157.50 112.40 163.41 110.63 168.45 M 179.37 187.91 C 179.03 194.36 178.61 200.81 178.34 207.26 C 177.82 207.60 176.79 208.29 176.27 208.63 C 177.33 214.53 178.14 220.47 179.26 226.35 L 179.42 225.77 C 180.18 235.12 181.80 244.43 183.26 253.70 C 184.15 264.96 186.19 276.16 186.78 287.47 C 187.49 293.25 186.77 299.10 187.42 304.87 C 187.28 307.23 187.22 309.61 187.30 311.99 C 188.31 335.42 190.88 358.75 193.42 382.06 C 194.27 389.42 195.15 396.80 196.94 404.01 C 199.79 414.43 202.05 425.17 201.85 436.03 C 201.28 441.90 200.44 447.79 200.76 453.71 C 200.70 455.11 200.65 456.53 200.61 457.95 C 200.83 459.08 201.07 460.23 201.31 461.37 C 208.14 461.17 215.03 461.23 221.73 459.71 L 221.77 459.35 C 223.24 460.09 224.40 459.74 225.23 458.32 C 228.73 458.76 232.74 456.37 234.03 452.97 C 236.98 446.52 235.43 439.30 235.33 432.49 C 235.38 425.19 236.34 417.94 236.79 410.67 C 238.23 394.76 239.84 378.86 241.23 362.94 C 241.52 358.56 242.65 354.30 243.21 349.96 C 243.69 348.31 244.08 346.64 244.24 344.94 C 249.55 317.55 248.77 289.00 242.02 261.93 C 240.61 257.10 239.77 252.06 237.52 247.52 C 235.93 242.02 234.22 236.32 230.71 231.70 C 225.67 226.14 219.41 221.94 213.24 217.76 C 205.50 212.65 197.48 207.99 189.27 203.69 C 188.57 203.36 187.16 202.69 186.45 202.36 C 185.27 194.30 185.99 186.08 185.76 177.95 C 183.47 181.11 179.22 183.58 179.37 187.91 M 46.03 224.03 C 37.94 228.61 30.38 234.20 23.84 240.82 C 19.86 245.22 15.68 249.74 13.51 255.36 C 9.25 270.50 8.78 286.37 8.65 302.00 C 9.08 316.74 5.41 331.24 5.50 345.98 C 5.54 350.12 7.20 353.99 8.17 357.96 C 9.64 363.92 10.67 369.98 11.28 376.09 C 10.55 385.08 12.08 394.04 11.48 403.04 C 11.92 408.99 15.55 414.08 17.26 419.70 C 21.99 433.22 21.05 448.06 26.29 461.45 C 29.04 469.31 36.46 474.05 40.16 481.38 C 40.94 483.03 41.72 484.69 42.51 486.34 L 42.90 486.60 C 44.28 491.62 46.47 496.37 48.75 501.03 C 50.84 505.51 55.29 508.02 58.59 511.48 C 62.43 515.44 66.19 519.91 67.51 525.40 C 68.40 530.68 67.74 536.06 67.88 541.39 C 79.54 536.82 91.57 531.63 104.37 532.30 C 103.34 523.85 102.10 515.43 100.51 507.07 C 99.49 501.74 97.62 496.54 97.45 491.08 C 97.17 486.75 97.65 482.33 96.63 478.08 C 95.33 474.55 92.10 471.87 91.76 467.96 C 90.99 460.56 93.02 453.26 93.46 445.90 C 94.34 436.05 94.99 425.09 89.36 416.43 C 86.74 411.91 82.59 408.46 80.25 403.79 C 78.16 398.24 84.09 394.75 86.47 390.55 L 86.70 390.42 C 88.93 386.74 90.27 382.61 90.38 378.30 C 88.33 372.66 85.30 367.38 84.10 361.45 C 85.19 359.39 86.63 357.55 88.01 355.68 C 92.94 352.64 98.14 348.29 98.68 342.10 C 99.78 330.68 102.32 319.44 103.07 307.99 C 103.49 302.53 101.01 297.42 101.04 291.99 C 100.96 284.72 100.63 277.34 102.35 270.21 C 102.90 267.38 104.44 264.19 102.33 261.61 C 96.97 253.49 89.16 247.45 81.82 241.24 C 73.36 234.57 64.73 228.01 55.31 222.74 C 52.31 220.65 48.82 222.55 46.03 224.03 M 240.07 244.84 C 240.92 249.38 242.72 253.66 243.80 258.15 C 249.66 279.85 251.80 302.58 249.82 324.99 C 248.95 337.90 245.89 350.49 243.86 363.24 C 243.78 364.05 243.63 365.66 243.55 366.47 C 243.19 369.13 242.97 371.80 242.83 374.48 C 242.46 377.79 242.05 381.11 241.88 384.45 C 241.46 388.78 240.97 393.11 240.65 397.45 C 240.30 400.26 240.12 403.10 240.27 405.94 C 240.09 406.21 239.73 406.76 239.55 407.03 C 239.46 414.03 238.28 420.97 237.98 427.96 C 237.59 435.82 239.40 443.66 238.26 451.50 C 237.44 453.52 236.03 455.57 236.53 457.86 C 237.72 465.19 239.43 472.52 239.57 479.97 C 239.02 485.40 239.24 490.91 240.85 496.16 C 241.76 499.04 242.27 502.01 242.60 505.01 C 243.23 510.52 245.64 515.59 247.50 520.76 C 254.50 514.58 264.32 516.05 272.76 517.48 C 271.04 508.97 267.89 500.75 267.17 492.05 C 266.79 485.01 267.07 477.96 267.24 470.93 C 267.33 468.50 266.27 466.27 265.82 463.94 C 265.84 461.79 266.88 459.84 267.54 457.85 C 266.28 456.57 264.56 455.60 263.86 453.89 C 264.04 451.23 266.27 449.01 265.79 446.21 C 264.50 428.59 264.21 410.87 265.44 393.23 C 266.65 377.04 265.61 360.69 262.23 344.80 C 259.02 326.76 253.02 309.29 250.93 291.03 C 249.50 275.25 246.41 259.42 240.07 244.84 Z" />
</g>
<g id="#828a8fff">
<path fill="#828a8f" opacity="1.00" d=" M 156.37 5.56 C 167.95 4.92 179.85 6.16 190.75 10.27 C 202.65 16.96 210.59 29.28 213.73 42.37 C 197.09 37.32 179.00 36.45 162.26 41.56 C 163.03 32.36 163.48 22.90 161.19 13.87 C 160.49 10.65 158.38 8.05 156.37 5.56 Z" />
<path fill="#828a8f" opacity="1.00" d=" M 110.63 168.45 C 112.40 163.41 114.35 157.50 119.75 155.31 C 136.54 165.17 153.59 174.59 170.32 184.55 C 170.58 192.47 171.08 200.38 171.50 208.30 C 172.10 208.42 173.31 208.68 173.91 208.80 C 177.19 229.14 180.24 249.52 182.75 269.96 C 182.75 270.54 182.75 271.69 182.75 272.26 C 181.43 278.74 182.44 285.34 182.51 291.87 C 182.58 296.46 182.84 301.05 183.51 305.59 C 183.21 305.90 182.92 306.21 182.62 306.51 C 169.93 318.88 155.12 329.27 138.67 335.98 L 138.45 336.07 C 135.93 327.73 129.85 320.11 131.08 310.97 C 132.11 303.30 133.57 295.63 133.56 287.86 C 133.45 285.99 133.53 283.76 131.89 282.48 C 129.76 286.29 130.20 290.81 129.70 295.00 C 129.29 301.66 127.52 308.38 128.90 315.04 C 130.41 322.59 133.25 329.78 135.47 337.14 L 135.60 337.53 C 126.70 340.65 117.70 343.62 108.37 345.18 C 108.09 345.23 107.54 345.32 107.27 345.37 C 106.00 342.65 104.40 339.70 105.48 336.63 C 108.34 325.51 113.95 313.67 109.86 302.15 C 108.21 297.06 106.84 291.89 105.22 286.80 C 104.90 288.56 104.58 290.33 104.33 292.11 C 104.00 288.31 103.57 284.39 104.50 280.64 C 105.77 277.20 106.81 273.66 108.41 270.36 C 110.71 265.86 115.14 263.02 117.84 258.83 C 117.95 252.23 114.01 246.10 109.30 241.72 C 105.30 244.72 102.26 248.72 99.75 253.01 C 87.38 240.68 73.37 230.05 58.59 220.78 C 58.26 217.55 57.46 214.37 57.38 211.12 C 57.78 209.19 58.74 207.45 59.49 205.66 C 54.46 208.86 53.18 215.08 49.22 219.26 L 48.76 219.85 C 47.38 220.37 46.01 220.94 44.59 221.32 C 37.89 222.09 33.38 227.63 27.30 229.94 C 39.42 212.33 56.89 197.49 77.79 191.78 C 82.19 190.68 86.71 190.10 91.10 188.95 C 92.91 187.90 93.76 190.06 94.69 191.12 C 99.11 197.52 105.70 201.90 112.33 205.73 C 117.44 208.45 115.43 216.14 120.09 219.25 C 125.15 220.21 130.48 218.49 134.78 215.85 C 135.94 215.28 136.26 214.38 135.72 213.14 C 131.87 211.37 127.49 212.37 123.48 211.39 C 121.21 210.58 121.35 207.88 120.86 205.97 C 120.40 202.74 118.46 200.03 116.60 197.46 C 113.09 192.62 109.03 188.22 105.41 183.48 C 108.95 179.23 108.84 173.44 110.63 168.45 M 120.09 170.21 C 130.86 176.03 141.90 181.37 152.91 186.74 C 142.09 181.00 131.11 175.56 120.09 170.21 Z" />
<path fill="#828a8f" opacity="1.00" d=" M 179.37 187.91 C 179.22 183.58 183.47 181.11 185.76 177.95 C 185.99 186.08 185.27 194.30 186.45 202.36 C 184.01 204.27 181.03 205.93 179.88 208.98 C 182.65 213.08 186.66 216.10 189.83 219.87 C 189.24 214.50 189.10 209.09 189.27 203.69 C 197.48 207.99 205.50 212.65 213.24 217.76 C 219.41 221.94 225.67 226.14 230.71 231.70 C 229.85 237.02 232.96 241.81 233.20 247.03 C 233.86 259.72 233.78 272.47 235.23 285.11 C 235.57 284.79 236.25 284.16 236.59 283.84 C 237.14 271.74 237.05 259.62 237.52 247.52 C 239.77 252.06 240.61 257.10 242.02 261.93 C 248.77 289.00 249.55 317.55 244.24 344.94 C 244.30 344.22 244.44 342.76 244.50 342.03 C 235.18 340.40 226.22 336.93 218.32 331.72 C 206.49 324.71 196.58 315.01 187.42 304.87 C 186.77 299.10 187.49 293.25 186.78 287.47 C 186.19 276.16 184.15 264.96 183.26 253.70 C 183.83 249.50 183.77 245.26 183.31 241.05 C 182.65 234.85 183.04 228.32 180.35 222.53 C 180.12 223.34 179.65 224.96 179.42 225.77 L 179.26 226.35 C 178.14 220.47 177.33 214.53 176.27 208.63 C 176.79 208.29 177.82 207.60 178.34 207.26 C 178.61 200.81 179.03 194.36 179.37 187.91 Z" />
<path fill="#828a8f" opacity="1.00" d=" M 46.03 224.03 C 48.82 222.55 52.31 220.65 55.31 222.74 C 64.73 228.01 73.36 234.57 81.82 241.24 C 89.16 247.45 96.97 253.49 102.33 261.61 C 104.44 264.19 102.90 267.38 102.35 270.21 C 100.63 277.34 100.96 284.72 101.04 291.99 C 101.01 297.42 103.49 302.53 103.07 307.99 C 102.32 319.44 99.78 330.68 98.68 342.10 C 98.14 348.29 92.94 352.64 88.01 355.68 C 90.15 350.95 92.64 346.40 95.08 341.82 C 89.14 344.09 83.73 347.51 77.85 349.92 C 75.45 351.06 72.68 350.77 70.36 349.61 C 61.76 345.55 55.92 337.79 48.84 331.74 C 49.12 334.57 49.56 337.47 51.05 339.96 C 54.78 346.65 58.40 353.41 61.84 360.26 C 62.62 361.92 63.42 363.63 63.65 365.47 C 61.42 367.77 58.10 368.33 55.21 369.43 C 55.12 370.96 55.04 372.49 54.95 374.03 C 57.24 372.92 59.47 371.56 61.99 371.06 C 65.77 370.96 68.02 375.79 71.86 375.13 C 77.11 371.85 80.82 366.59 84.10 361.45 C 85.30 367.38 88.33 372.66 90.38 378.30 C 80.17 381.19 69.44 380.89 58.94 380.61 C 42.98 379.94 27.08 378.32 11.28 376.09 C 10.67 369.98 9.64 363.92 8.17 357.96 C 7.20 353.99 5.54 350.12 5.50 345.98 C 5.41 331.24 9.08 316.74 8.65 302.00 C 8.78 286.37 9.25 270.50 13.51 255.36 C 15.68 249.74 19.86 245.22 23.84 240.82 C 30.38 234.20 37.94 228.61 46.03 224.03 M 13.44 324.70 C 14.75 329.81 21.09 329.77 24.98 331.93 C 34.46 337.03 41.82 345.11 49.96 352.01 C 47.95 344.98 45.56 337.14 39.14 332.89 C 32.56 328.55 25.05 325.87 17.58 323.50 C 16.07 323.13 13.22 322.20 13.44 324.70 Z" />
<path fill="#828a8f" opacity="1.00" d=" M 240.07 244.84 C 246.41 259.42 249.50 275.25 250.93 291.03 C 253.02 309.29 259.02 326.76 262.23 344.80 C 265.61 360.69 266.65 377.04 265.44 393.23 C 257.49 396.14 249.00 396.70 240.65 397.45 C 240.97 393.11 241.46 388.78 241.88 384.45 C 247.85 380.89 253.74 377.19 259.62 373.49 C 261.51 372.51 262.12 370.43 262.65 368.53 C 256.29 371.31 249.99 374.66 242.83 374.48 C 242.97 371.80 243.19 369.13 243.55 366.47 C 248.18 362.50 252.37 358.06 256.81 353.88 C 258.72 352.11 260.26 349.99 261.56 347.75 C 254.43 351.35 250.04 358.39 243.86 363.24 C 245.89 350.49 248.95 337.90 249.82 324.99 C 251.80 302.58 249.66 279.85 243.80 258.15 C 242.72 253.66 240.92 249.38 240.07 244.84 Z" />
</g>
<g id="#4f107aff">
<path fill="#4f107a" opacity="1.00" d=" M 128.04 13.76 C 136.83 9.20 146.66 7.11 156.37 5.56 C 158.38 8.05 160.49 10.65 161.19 13.87 C 163.48 22.90 163.03 32.36 162.26 41.56 C 155.13 43.73 148.05 46.45 142.01 50.91 C 135.84 55.68 127.80 56.67 121.29 60.84 C 117.98 59.35 114.30 57.96 112.18 54.82 C 109.39 50.90 110.04 45.64 111.54 41.35 C 115.37 30.84 122.96 22.41 129.71 13.71 L 128.04 13.76 Z" />
<path fill="#4f107a" opacity="1.00" d=" M 190.75 10.27 C 204.00 14.24 215.72 23.61 222.03 35.99 C 224.28 40.31 225.86 44.94 227.01 49.66 C 223.03 46.61 218.60 44.18 213.81 42.67 L 213.73 42.37 C 210.59 29.28 202.65 16.96 190.75 10.27 Z" />
<path fill="#4f107a" opacity="1.00" d=" M 145.55 50.87 C 163.48 40.19 185.73 37.76 205.91 42.44 C 213.11 44.24 220.43 46.86 226.02 51.92 C 234.01 59.45 235.89 73.51 228.45 82.02 C 228.23 74.65 224.03 68.12 218.54 63.46 C 205.58 52.19 187.96 47.66 171.06 47.98 C 162.46 47.80 153.99 49.45 145.55 50.87 Z" />
<path fill="#4f107a" opacity="1.00" d=" M 187.42 304.87 C 196.58 315.01 206.49 324.71 218.32 331.72 C 226.22 336.93 235.18 340.40 244.50 342.03 C 244.44 342.76 244.30 344.22 244.24 344.94 C 244.08 346.64 243.69 348.31 243.21 349.96 C 243.17 349.33 243.09 348.08 243.05 347.46 C 241.48 350.42 239.78 353.53 239.88 356.98 C 239.74 361.75 241.44 367.08 238.41 371.31 C 230.88 382.76 223.22 394.14 215.46 405.45 C 214.39 407.09 213.48 408.83 212.61 410.59 C 214.17 409.16 215.72 407.69 216.94 405.94 C 222.54 397.24 229.27 389.18 237.21 382.52 C 235.03 401.43 226.85 419.25 226.39 438.40 C 229.19 433.36 229.07 427.42 231.01 422.08 C 232.23 417.95 234.70 414.38 236.79 410.67 C 236.34 417.94 235.38 425.19 235.33 432.49 C 235.43 439.30 236.98 446.52 234.03 452.97 C 232.74 456.37 228.73 458.76 225.23 458.32 C 224.09 457.47 221.59 457.36 221.77 459.35 L 221.73 459.71 C 215.90 459.10 210.05 458.07 204.78 455.38 C 203.64 457.38 202.49 459.39 201.31 461.37 C 201.07 460.23 200.83 459.08 200.61 457.95 C 203.33 454.90 206.40 451.50 206.54 447.19 C 206.30 444.50 204.74 441.49 202.25 440.36 C 201.41 443.16 204.10 445.77 203.59 448.60 C 202.97 450.46 201.79 452.06 200.76 453.71 C 200.44 447.79 201.28 441.90 201.85 436.03 C 202.05 425.17 199.79 414.43 196.94 404.01 C 195.15 396.80 194.27 389.42 193.42 382.06 C 190.88 358.75 188.31 335.42 187.30 311.99 C 187.22 309.61 187.28 307.23 187.42 304.87 M 201.80 420.65 C 205.51 426.37 211.02 430.81 213.99 437.04 C 214.78 439.16 214.74 441.48 215.36 443.66 C 217.12 446.84 221.05 448.52 224.50 447.10 C 222.34 445.09 219.73 443.55 217.84 441.27 C 213.33 433.90 209.32 425.43 201.80 420.65 Z" />
<path fill="#4f107a" opacity="1.00" d=" M 138.67 335.98 C 155.12 329.27 169.93 318.88 182.62 306.51 C 183.97 315.16 183.58 323.96 184.32 332.67 C 184.47 342.42 186.16 352.06 188.59 361.47 C 190.79 375.95 191.33 390.74 194.83 405.02 C 198.02 415.75 199.95 426.96 199.54 438.19 C 191.58 434.25 183.62 430.32 175.66 426.39 C 170.14 423.93 165.62 419.83 161.66 415.35 C 152.96 405.56 144.24 395.48 138.39 383.66 C 133.85 374.37 126.47 366.94 119.64 359.32 C 115.44 354.98 111.36 350.46 108.37 345.18 C 117.70 343.62 126.70 340.65 135.60 337.53 C 137.40 342.86 140.16 347.80 142.03 353.10 C 143.79 358.07 143.03 363.42 143.65 368.57 C 143.93 371.60 145.84 374.08 147.48 376.51 C 148.35 375.46 149.91 374.64 149.85 373.08 C 150.14 366.08 147.22 359.52 144.83 353.10 C 142.68 347.43 140.48 341.78 138.67 335.98 Z" />
<path fill="#4f107a" opacity="1.00" d=" M 103.42 350.41 C 107.45 349.84 110.30 353.56 112.88 356.08 C 125.50 370.42 136.67 386.01 146.74 402.23 C 150.02 407.34 151.29 413.82 156.20 417.76 C 164.02 424.34 173.02 429.46 182.35 433.56 C 188.15 435.64 193.97 437.72 199.28 440.91 C 198.09 446.63 198.62 452.49 198.13 458.25 C 197.34 459.03 196.31 459.83 196.34 461.07 C 182.58 461.27 168.82 461.78 155.07 461.31 C 143.38 460.99 131.66 461.76 120.00 460.67 C 111.46 459.99 102.86 460.08 94.34 461.00 C 95.98 448.46 98.16 435.59 95.51 423.03 C 94.27 417.28 90.75 412.48 87.35 407.86 C 87.10 404.68 86.74 401.39 87.48 398.27 C 89.19 395.10 92.08 392.28 91.38 388.34 C 91.77 385.20 93.43 382.26 93.16 379.02 C 93.10 372.86 88.41 368.01 87.73 362.00 C 87.66 359.54 90.28 358.45 91.81 356.99 C 97.78 363.78 104.90 369.43 111.92 375.08 C 116.20 378.44 120.53 381.86 125.56 384.05 C 124.62 381.90 123.61 379.72 121.91 378.06 C 115.91 371.97 109.11 366.76 102.21 361.74 C 98.13 359.24 99.02 352.02 103.42 350.41 M 98.65 383.56 C 102.65 388.32 107.93 391.83 113.12 395.17 C 108.72 390.83 103.87 386.86 98.65 383.56 M 95.96 405.84 C 97.23 410.71 100.11 414.90 102.88 419.04 C 107.09 424.80 110.81 431.21 116.53 435.63 C 115.16 431.63 112.63 428.23 110.26 424.80 C 105.58 418.42 101.34 411.66 95.96 405.84 M 127.90 405.89 C 132.72 410.56 138.41 414.19 143.71 418.28 C 149.45 422.26 154.91 426.97 161.61 429.29 C 158.15 425.27 153.34 422.88 149.12 419.81 C 142.05 415.17 135.14 410.26 127.90 405.89 M 129.76 442.68 C 130.10 440.59 130.15 438.48 129.83 436.40 C 128.22 438.12 128.40 440.86 129.76 442.68 M 150.67 438.89 C 151.18 439.92 151.68 440.97 152.19 442.02 C 153.41 442.05 154.63 442.09 155.86 442.13 C 156.16 441.54 156.76 440.34 157.05 439.74 C 156.61 438.77 156.17 437.81 155.73 436.85 C 153.80 436.85 151.98 437.40 150.67 438.89 M 158.42 438.88 C 159.22 438.64 160.83 438.16 161.63 437.92 C 160.71 439.32 159.75 440.70 158.79 442.08 C 159.50 442.09 160.93 442.13 161.64 442.14 C 161.69 440.34 161.76 438.54 161.77 436.74 C 160.53 437.25 159.33 437.87 158.42 438.88 M 162.63 437.88 C 162.82 439.16 163.02 440.44 163.22 441.73 C 163.96 441.77 165.43 441.84 166.16 441.87 C 166.18 441.00 166.23 439.25 166.25 438.37 C 166.88 438.63 168.13 439.13 168.75 439.38 C 168.61 439.99 168.34 441.19 168.21 441.79 C 168.52 441.82 169.16 441.88 169.48 441.91 C 169.52 440.36 169.58 438.82 169.66 437.28 C 168.22 437.70 166.75 438.04 165.29 438.35 L 165.76 436.81 C 164.98 437.07 163.41 437.61 162.63 437.88 M 171.25 437.46 C 170.93 439.44 171.14 441.47 172.64 442.94 C 173.06 442.45 173.91 441.47 174.33 440.99 C 174.98 439.35 172.62 439.00 171.81 438.03 C 172.34 437.97 173.40 437.86 173.93 437.80 L 173.85 436.92 C 173.20 437.05 171.90 437.32 171.25 437.46 M 131.19 438.41 C 131.03 439.61 130.87 440.82 130.72 442.03 L 131.54 442.17 C 131.78 441.30 132.26 439.58 132.51 438.71 C 132.82 439.71 133.44 441.70 133.75 442.70 C 133.90 441.72 134.21 439.76 134.36 438.77 C 134.70 439.68 135.39 441.51 135.74 442.42 C 135.85 441.07 135.92 439.72 135.98 438.39 C 134.38 438.40 132.78 438.41 131.19 438.41 M 137.44 437.71 C 137.84 438.27 138.66 439.38 139.07 439.93 C 138.36 439.71 136.96 439.26 136.25 439.03 C 136.36 439.78 136.58 441.28 136.69 442.03 C 137.72 442.09 139.79 442.21 140.82 442.27 C 140.52 440.11 140.36 437.45 137.44 437.71 M 141.65 438.56 C 141.14 439.71 141.36 440.98 141.43 442.19 C 142.49 442.38 143.55 442.57 144.61 442.78 C 144.78 442.35 145.11 441.49 145.28 441.07 C 146.38 441.49 147.47 441.96 148.56 442.43 C 148.64 441.55 148.82 439.80 148.90 438.93 C 148.51 438.80 147.73 438.54 147.34 438.41 C 146.82 438.49 145.77 438.65 145.25 438.73 L 144.74 438.50 C 143.71 438.45 142.68 438.47 141.65 438.56 M 111.31 442.28 C 110.67 442.31 109.39 442.39 108.75 442.42 C 109.88 440.84 109.73 439.62 107.68 439.14 C 107.56 440.23 107.31 442.41 107.18 443.50 C 106.50 442.16 105.81 440.84 105.12 439.52 C 105.37 441.14 105.67 442.76 105.98 444.38 C 104.81 444.52 104.38 446.03 104.28 447.03 C 103.91 450.31 104.18 453.63 104.91 456.85 C 108.30 458.12 111.88 458.20 115.29 456.91 L 115.24 455.89 L 115.75 455.87 C 115.65 452.49 115.58 449.10 115.78 445.72 C 114.34 444.09 114.44 442.10 115.53 440.29 C 115.43 440.22 115.23 440.09 115.12 440.02 C 114.32 441.06 113.52 442.11 112.71 443.15 C 112.67 442.09 112.59 439.96 112.55 438.90 C 111.48 439.74 111.14 440.93 111.31 442.28 M 142.61 443.24 C 143.15 443.80 143.15 443.80 142.61 443.24 M 128.70 444.00 C 128.37 447.71 128.43 451.45 128.80 455.16 C 129.64 455.22 130.48 455.29 131.33 455.37 C 128.80 451.95 132.08 446.75 128.70 444.00 M 132.46 444.37 C 132.14 447.73 132.03 451.16 132.47 454.52 C 133.10 454.85 134.38 455.49 135.01 455.81 C 133.70 452.64 134.07 449.21 133.94 445.88 C 134.00 444.84 133.51 444.34 132.46 444.37 M 118.61 455.53 C 119.98 454.99 120.96 454.05 121.56 452.69 C 122.59 452.67 123.62 452.66 124.65 452.67 C 125.19 454.06 126.15 455.00 127.53 455.49 C 126.44 451.44 125.26 447.33 123.00 443.76 C 120.96 447.44 119.67 451.48 118.61 455.53 M 145.52 448.34 C 145.08 448.10 144.20 447.62 143.76 447.38 C 143.65 448.23 143.42 449.95 143.31 450.81 C 142.51 450.04 141.81 449.19 141.20 448.27 C 138.84 447.18 135.69 448.09 135.51 451.04 C 134.78 454.98 140.45 457.16 142.66 453.91 C 140.46 454.03 138.21 454.06 136.84 452.03 C 138.75 452.23 141.02 451.03 142.75 452.25 C 143.38 453.19 143.73 454.25 143.81 455.44 C 144.15 455.40 144.84 455.34 145.18 455.31 C 145.27 452.92 144.95 450.35 146.67 448.40 C 147.34 448.97 147.99 449.56 148.64 450.16 C 148.67 451.82 148.74 453.50 148.83 455.17 C 150.04 455.30 151.41 455.78 152.41 454.77 C 149.06 453.93 149.66 449.08 152.35 447.85 C 151.84 447.82 150.83 447.76 150.33 447.72 C 150.29 447.21 150.22 446.20 150.19 445.69 C 148.62 446.55 147.05 447.41 145.52 448.34 M 169.41 450.56 C 170.70 451.76 172.16 452.79 173.52 453.94 C 171.91 453.90 170.31 453.84 168.71 453.78 C 169.84 455.69 172.02 455.73 173.86 454.88 C 174.55 455.20 175.26 455.50 175.97 455.79 L 176.59 455.61 C 177.34 454.51 178.22 454.47 179.22 455.48 C 179.73 455.17 180.75 454.55 181.27 454.24 C 181.67 454.54 182.47 455.13 182.88 455.43 C 184.29 454.98 185.71 454.56 187.14 454.19 C 186.90 453.87 186.42 453.24 186.17 452.93 C 186.70 453.57 187.76 454.87 188.28 455.52 C 188.75 454.54 189.23 453.57 189.72 452.60 C 189.72 453.28 189.70 454.63 189.69 455.31 L 191.02 455.44 C 191.00 454.51 190.96 452.67 190.94 451.74 C 189.07 451.77 187.20 451.96 185.39 452.42 C 183.03 452.31 180.68 452.38 178.33 452.28 C 177.48 453.72 176.30 454.96 174.89 453.34 C 173.56 451.83 172.10 450.45 170.58 449.15 C 172.05 449.15 173.52 449.19 175.00 449.18 C 173.47 446.97 168.92 447.27 169.41 450.56 M 158.42 449.98 C 158.67 452.40 157.70 454.63 154.95 453.69 C 154.49 452.05 153.95 450.44 153.01 449.03 C 152.98 450.01 152.92 451.98 152.89 452.96 C 153.89 456.56 160.16 456.00 159.91 452.06 C 160.75 448.63 156.80 447.01 154.01 448.00 C 155.40 448.82 156.91 449.40 158.42 449.98 M 161.21 447.77 C 161.25 450.27 161.12 452.80 161.46 455.30 C 161.83 455.36 162.58 455.50 162.96 455.56 C 163.44 453.34 161.70 449.48 164.97 449.04 C 167.02 450.45 165.88 453.60 166.57 455.76 C 169.08 455.09 167.82 451.84 167.78 449.96 C 167.19 446.92 163.39 448.08 161.21 447.77 Z" />
<path fill="#4f107a" opacity="1.00" d=" M 11.28 376.09 C 27.08 378.32 42.98 379.94 58.94 380.61 C 69.44 380.89 80.17 381.19 90.38 378.30 C 90.27 382.61 88.93 386.74 86.70 390.42 L 86.47 390.55 C 80.52 393.92 74.16 398.39 71.77 405.04 C 72.58 409.77 76.18 413.41 79.51 416.61 C 81.63 418.76 84.59 419.53 87.46 420.07 C 88.09 418.85 88.72 417.64 89.36 416.43 C 94.99 425.09 94.34 436.05 93.46 445.90 C 93.02 453.26 90.99 460.56 91.76 467.96 C 92.10 471.87 95.33 474.55 96.63 478.08 C 97.65 482.33 97.17 486.75 97.45 491.08 C 97.62 496.54 99.49 501.74 100.51 507.07 C 102.10 515.43 103.34 523.85 104.37 532.30 C 91.57 531.63 79.54 536.82 67.88 541.39 C 67.74 536.06 68.40 530.68 67.51 525.40 C 66.19 519.91 62.43 515.44 58.59 511.48 C 55.29 508.02 50.84 505.51 48.75 501.03 C 46.47 496.37 44.28 491.62 42.90 486.60 C 50.96 492.05 58.69 498.02 67.19 502.79 C 69.18 503.85 71.34 504.54 73.50 505.18 C 72.03 500.31 66.65 499.35 62.81 497.04 C 56.06 493.07 50.65 487.29 44.65 482.35 C 43.44 481.17 41.68 481.47 40.16 481.38 C 36.46 474.05 29.04 469.31 26.29 461.45 C 21.05 448.06 21.99 433.22 17.26 419.70 C 15.55 414.08 11.92 408.99 11.48 403.04 C 12.08 394.04 10.55 385.08 11.28 376.09 M 11.77 378.84 C 10.94 385.24 12.11 391.75 14.23 397.79 C 14.81 399.35 15.75 401.80 17.86 400.64 C 24.42 398.43 31.28 397.23 37.78 394.87 C 35.45 392.30 31.95 391.61 28.95 390.13 C 22.76 387.12 17.52 382.57 11.77 378.84 M 70.75 431.79 C 64.74 438.11 58.54 444.25 52.39 450.43 C 49.50 453.41 46.13 455.93 43.67 459.31 C 50.80 456.79 56.47 451.57 62.97 447.87 C 69.21 444.32 74.15 439.00 80.07 435.02 C 82.06 433.40 84.63 434.63 86.91 434.16 C 89.10 432.88 90.18 430.53 91.20 428.33 C 86.60 427.24 81.75 425.99 77.06 427.33 C 74.48 427.98 72.55 429.93 70.75 431.79 M 53.23 462.68 C 57.10 465.82 62.08 466.83 66.71 468.33 C 74.21 470.32 81.73 472.72 89.54 472.95 C 85.81 470.33 81.25 469.50 76.97 468.19 C 69.10 466.21 61.32 463.62 53.23 462.68 M 85.43 484.42 C 83.71 487.00 83.54 490.23 83.04 493.21 C 85.25 490.70 87.17 487.94 89.55 485.59 C 91.93 483.16 96.23 482.05 95.93 477.95 C 92.06 479.35 88.10 481.16 85.43 484.42 Z" />
<path fill="#4f107a" opacity="1.00" d=" M 240.65 397.45 C 249.00 396.70 257.49 396.14 265.44 393.23 C 264.21 410.87 264.50 428.59 265.79 446.21 C 266.27 449.01 264.04 451.23 263.86 453.89 C 264.56 455.60 266.28 456.57 267.54 457.85 C 266.88 459.84 265.84 461.79 265.82 463.94 C 266.27 466.27 267.33 468.50 267.24 470.93 C 267.07 477.96 266.79 485.01 267.17 492.05 C 267.89 500.75 271.04 508.97 272.76 517.48 C 264.32 516.05 254.50 514.58 247.50 520.76 C 245.64 515.59 243.23 510.52 242.60 505.01 C 242.27 502.01 241.76 499.04 240.85 496.16 C 243.65 496.12 246.65 496.53 249.24 495.17 C 252.43 493.58 255.08 491.13 257.77 488.81 C 254.58 489.23 251.39 489.88 248.17 489.72 C 245.25 486.08 244.32 479.53 248.23 476.22 C 252.26 472.45 257.16 469.75 261.15 465.91 C 254.78 468.82 249.67 473.87 243.12 476.44 C 241.82 472.58 240.70 468.48 241.67 464.40 C 243.12 457.62 243.08 450.61 241.94 443.79 C 240.69 446.35 239.47 448.93 238.26 451.50 C 239.40 443.66 237.59 435.82 237.98 427.96 C 238.28 420.97 239.46 414.03 239.55 407.03 C 242.64 405.30 245.58 403.06 249.12 402.33 C 253.27 401.48 257.51 401.22 261.71 400.66 C 261.62 400.12 261.44 399.04 261.35 398.49 C 258.12 397.79 254.58 396.72 251.43 398.37 C 247.43 400.42 243.79 403.15 240.27 405.94 C 240.12 403.10 240.30 400.26 240.65 397.45 Z" />
<path fill="#4f107a" opacity="1.00" d=" M 164.33 438.44 C 165.65 438.70 165.88 439.43 165.03 440.66 C 163.70 440.42 163.47 439.68 164.33 438.44 Z" />
<path fill="#4f107a" opacity="1.00" d=" M 142.21 439.86 C 145.10 438.13 142.55 443.21 142.21 439.86 Z" />
<path fill="#4f107a" opacity="1.00" d=" M 172.41 440.38 C 173.07 440.86 173.07 440.86 172.41 440.38 Z" />
<path fill="#4f107a" opacity="1.00" d=" M 109.96 446.11 L 110.59 446.25 C 111.59 448.66 112.56 451.08 113.35 453.57 C 113.44 454.13 113.61 455.25 113.70 455.81 C 112.05 454.35 111.05 452.39 110.15 450.43 C 109.28 452.29 108.36 454.13 107.36 455.94 C 107.19 455.50 106.86 454.62 106.70 454.18 C 107.61 451.42 108.79 448.76 109.96 446.11 Z" />
<path fill="#4f107a" opacity="1.00" d=" M 122.33 448.49 C 123.85 447.33 125.16 450.06 123.81 450.99 C 122.25 452.18 120.89 449.42 122.33 448.49 Z" />
<path fill="#4f107a" opacity="1.00" d=" M 179.08 453.21 C 182.17 451.68 179.10 456.52 179.08 453.21 Z" />
<path fill="#4f107a" opacity="1.00" d=" M 182.40 453.31 C 185.46 451.91 182.40 456.67 182.40 453.31 Z" />
</g>
<g id="#7c509cff">
<path fill="#7c509c" opacity="1.00" d=" M 122.75 16.88 C 124.25 15.48 126.08 14.40 128.04 13.76 L 129.71 13.71 C 122.96 22.41 115.37 30.84 111.54 41.35 C 110.04 45.64 109.39 50.90 112.18 54.82 C 114.30 57.96 117.98 59.35 121.29 60.84 C 114.91 64.54 109.12 69.16 103.91 74.38 C 102.91 59.84 104.69 44.67 111.70 31.70 C 114.57 26.20 118.86 21.66 122.75 16.88 Z" />
<path fill="#7c509c" opacity="1.00" d=" M 183.51 305.59 L 184.45 304.52 C 185.20 323.55 186.87 342.51 188.59 361.47 C 186.16 352.06 184.47 342.42 184.32 332.67 C 183.58 323.96 183.97 315.16 182.62 306.51 C 182.92 306.21 183.21 305.90 183.51 305.59 Z" />
<path fill="#7c509c" opacity="1.00" d=" M 138.45 336.07 L 138.67 335.98 C 140.48 341.78 142.68 347.43 144.83 353.10 C 147.22 359.52 150.14 366.08 149.85 373.08 C 149.91 374.64 148.35 375.46 147.48 376.51 C 145.84 374.08 143.93 371.60 143.65 368.57 C 143.03 363.42 143.79 358.07 142.03 353.10 C 140.16 347.80 137.40 342.86 135.60 337.53 L 135.47 337.14 C 136.46 336.79 137.45 336.43 138.45 336.07 Z" />
<path fill="#7c509c" opacity="1.00" d=" M 107.27 345.37 C 107.54 345.32 108.09 345.23 108.37 345.18 C 111.36 350.46 115.44 354.98 119.64 359.32 C 126.47 366.94 133.85 374.37 138.39 383.66 C 144.24 395.48 152.96 405.56 161.66 415.35 C 165.62 419.83 170.14 423.93 175.66 426.39 C 183.62 430.32 191.58 434.25 199.54 438.19 C 199.48 438.87 199.35 440.23 199.28 440.91 C 193.97 437.72 188.15 435.64 182.35 433.56 C 173.02 429.46 164.02 424.34 156.20 417.76 C 151.29 413.82 150.02 407.34 146.74 402.23 C 136.67 386.01 125.50 370.42 112.88 356.08 C 110.30 353.56 107.45 349.84 103.42 350.41 C 99.02 352.02 98.13 359.24 102.21 361.74 C 109.11 366.76 115.91 371.97 121.91 378.06 C 123.61 379.72 124.62 381.90 125.56 384.05 C 120.53 381.86 116.20 378.44 111.92 375.08 C 104.90 369.43 97.78 363.78 91.81 356.99 C 95.74 354.18 99.08 350.61 101.41 346.37 C 103.36 346.03 105.32 345.70 107.27 345.37 Z" />
<path fill="#7c509c" opacity="1.00" d=" M 239.88 356.98 C 239.78 353.53 241.48 350.42 243.05 347.46 C 243.09 348.08 243.17 349.33 243.21 349.96 C 242.65 354.30 241.52 358.56 241.23 362.94 C 239.84 378.86 238.23 394.76 236.79 410.67 C 234.70 414.38 232.23 417.95 231.01 422.08 C 229.07 427.42 229.19 433.36 226.39 438.40 C 226.85 419.25 235.03 401.43 237.21 382.52 C 229.27 389.18 222.54 397.24 216.94 405.94 C 215.72 407.69 214.17 409.16 212.61 410.59 C 213.48 408.83 214.39 407.09 215.46 405.45 C 223.22 394.14 230.88 382.76 238.41 371.31 C 241.44 367.08 239.74 361.75 239.88 356.98 Z" />
<path fill="#7c509c" opacity="1.00" d=" M 11.77 378.84 C 17.52 382.57 22.76 387.12 28.95 390.13 C 31.95 391.61 35.45 392.30 37.78 394.87 C 31.28 397.23 24.42 398.43 17.86 400.64 C 15.75 401.80 14.81 399.35 14.23 397.79 C 12.11 391.75 10.94 385.24 11.77 378.84 Z" />
<path fill="#7c509c" opacity="1.00" d=" M 98.65 383.56 C 103.87 386.86 108.72 390.83 113.12 395.17 C 107.93 391.83 102.65 388.32 98.65 383.56 Z" />
<path fill="#7c509c" opacity="1.00" d=" M 83.24 399.18 C 85.80 395.46 88.87 392.11 91.38 388.34 C 92.08 392.28 89.19 395.10 87.48 398.27 C 86.74 401.39 87.10 404.68 87.35 407.86 C 85.49 405.41 81.57 402.65 83.24 399.18 Z" />
<path fill="#7c509c" opacity="1.00" d=" M 71.77 405.04 C 74.16 398.39 80.52 393.92 86.47 390.55 C 84.09 394.75 78.16 398.24 80.25 403.79 C 82.59 408.46 86.74 411.91 89.36 416.43 C 88.72 417.64 88.09 418.85 87.46 420.07 C 84.59 419.53 81.63 418.76 79.51 416.61 C 76.18 413.41 72.58 409.77 71.77 405.04 Z" />
<path fill="#7c509c" opacity="1.00" d=" M 251.43 398.37 C 254.58 396.72 258.12 397.79 261.35 398.49 C 261.44 399.04 261.62 400.12 261.71 400.66 C 257.51 401.22 253.27 401.48 249.12 402.33 C 245.58 403.06 242.64 405.30 239.55 407.03 C 239.73 406.76 240.09 406.21 240.27 405.94 C 243.79 403.15 247.43 400.42 251.43 398.37 Z" />
<path fill="#7c509c" opacity="1.00" d=" M 127.90 405.89 C 135.14 410.26 142.05 415.17 149.12 419.81 C 153.34 422.88 158.15 425.27 161.61 429.29 C 154.91 426.97 149.45 422.26 143.71 418.28 C 138.41 414.19 132.72 410.56 127.90 405.89 Z" />
<path fill="#7c509c" opacity="1.00" d=" M 201.80 420.65 C 209.32 425.43 213.33 433.90 217.84 441.27 C 219.73 443.55 222.34 445.09 224.50 447.10 C 221.05 448.52 217.12 446.84 215.36 443.66 C 214.74 441.48 214.78 439.16 213.99 437.04 C 211.02 430.81 205.51 426.37 201.80 420.65 Z" />
<path fill="#7c509c" opacity="1.00" d=" M 70.75 431.79 C 72.55 429.93 74.48 427.98 77.06 427.33 C 81.75 425.99 86.60 427.24 91.20 428.33 C 90.18 430.53 89.10 432.88 86.91 434.16 C 84.63 434.63 82.06 433.40 80.07 435.02 C 74.15 439.00 69.21 444.32 62.97 447.87 C 56.47 451.57 50.80 456.79 43.67 459.31 C 46.13 455.93 49.50 453.41 52.39 450.43 C 58.54 444.25 64.74 438.11 70.75 431.79 Z" />
<path fill="#7c509c" opacity="1.00" d=" M 241.94 443.79 C 243.08 450.61 243.12 457.62 241.67 464.40 C 240.70 468.48 241.82 472.58 243.12 476.44 C 249.67 473.87 254.78 468.82 261.15 465.91 C 257.16 469.75 252.26 472.45 248.23 476.22 C 244.32 479.53 245.25 486.08 248.17 489.72 C 251.39 489.88 254.58 489.23 257.77 488.81 C 255.08 491.13 252.43 493.58 249.24 495.17 C 246.65 496.53 243.65 496.12 240.85 496.16 C 239.24 490.91 239.02 485.40 239.57 479.97 C 239.43 472.52 237.72 465.19 236.53 457.86 C 236.03 455.57 237.44 453.52 238.26 451.50 C 239.47 448.93 240.69 446.35 241.94 443.79 Z" />
<path fill="#7c509c" opacity="1.00" d=" M 201.31 461.37 C 202.49 459.39 203.64 457.38 204.78 455.38 C 210.05 458.07 215.90 459.10 221.73 459.71 C 215.03 461.23 208.14 461.17 201.31 461.37 Z" />
<path fill="#7c509c" opacity="1.00" d=" M 221.77 459.35 C 221.59 457.36 224.09 457.47 225.23 458.32 C 224.40 459.74 223.24 460.09 221.77 459.35 Z" />
<path fill="#7c509c" opacity="1.00" d=" M 53.23 462.68 C 61.32 463.62 69.10 466.21 76.97 468.19 C 81.25 469.50 85.81 470.33 89.54 472.95 C 81.73 472.72 74.21 470.32 66.71 468.33 C 62.08 466.83 57.10 465.82 53.23 462.68 Z" />
<path fill="#7c509c" opacity="1.00" d=" M 85.43 484.42 C 88.10 481.16 92.06 479.35 95.93 477.95 C 96.23 482.05 91.93 483.16 89.55 485.59 C 87.17 487.94 85.25 490.70 83.04 493.21 C 83.54 490.23 83.71 487.00 85.43 484.42 Z" />
<path fill="#7c509c" opacity="1.00" d=" M 40.16 481.38 C 41.68 481.47 43.44 481.17 44.65 482.35 C 50.65 487.29 56.06 493.07 62.81 497.04 C 66.65 499.35 72.03 500.31 73.50 505.18 C 71.34 504.54 69.18 503.85 67.19 502.79 C 58.69 498.02 50.96 492.05 42.90 486.60 L 42.51 486.34 C 41.72 484.69 40.94 483.03 40.16 481.38 Z" />
</g>
<g id="#a0a6aaff">
<path fill="#a0a6aa" opacity="1.00" d=" M 104.44 35.58 C 108.83 27.95 115.16 21.37 122.75 16.88 C 118.86 21.66 114.57 26.20 111.70 31.70 C 104.69 44.67 102.91 59.84 103.91 74.38 C 100.13 78.59 97.26 83.55 95.70 89.01 C 93.91 70.93 94.98 51.58 104.44 35.58 Z" />
<path fill="#a0a6aa" opacity="1.00" d=" M 179.88 208.98 C 181.03 205.93 184.01 204.27 186.45 202.36 C 187.16 202.69 188.57 203.36 189.27 203.69 C 189.10 209.09 189.24 214.50 189.83 219.87 C 186.66 216.10 182.65 213.08 179.88 208.98 Z" />
<path fill="#a0a6aa" opacity="1.00" d=" M 49.22 219.26 C 53.18 215.08 54.46 208.86 59.49 205.66 C 58.74 207.45 57.78 209.19 57.38 211.12 C 57.46 214.37 58.26 217.55 58.59 220.78 C 55.71 219.20 52.47 218.30 49.22 219.26 Z" />
<path fill="#a0a6aa" opacity="1.00" d=" M 27.30 229.94 C 33.38 227.63 37.89 222.09 44.59 221.32 C 36.27 226.47 28.22 232.14 21.23 239.03 C 23.20 235.97 25.16 232.89 27.30 229.94 Z" />
<path fill="#a0a6aa" opacity="1.00" d=" M 233.20 247.03 C 232.96 241.81 229.85 237.02 230.71 231.70 C 234.22 236.32 235.93 242.02 237.52 247.52 C 237.05 259.62 237.14 271.74 236.59 283.84 C 236.25 284.16 235.57 284.79 235.23 285.11 C 233.78 272.47 233.86 259.72 233.20 247.03 Z" />
<path fill="#a0a6aa" opacity="1.00" d=" M 109.30 241.72 C 114.01 246.10 117.95 252.23 117.84 258.83 C 115.14 263.02 110.71 265.86 108.41 270.36 C 106.81 273.66 105.77 277.20 104.50 280.64 C 104.60 276.02 105.18 271.42 106.45 266.98 C 108.12 261.29 102.98 256.95 99.75 253.01 C 102.26 248.72 105.30 244.72 109.30 241.72 Z" />
<path fill="#a0a6aa" opacity="1.00" d=" M 182.51 291.87 C 182.44 285.34 181.43 278.74 182.75 272.26 C 184.18 282.93 185.15 293.76 184.45 304.52 L 183.51 305.59 C 182.84 301.05 182.58 296.46 182.51 291.87 Z" />
<path fill="#a0a6aa" opacity="1.00" d=" M 129.70 295.00 C 130.20 290.81 129.76 286.29 131.89 282.48 C 133.53 283.76 133.45 285.99 133.56 287.86 C 133.57 295.63 132.11 303.30 131.08 310.97 C 129.85 320.11 135.93 327.73 138.45 336.07 C 137.45 336.43 136.46 336.79 135.47 337.14 C 133.25 329.78 130.41 322.59 128.90 315.04 C 127.52 308.38 129.29 301.66 129.70 295.00 Z" />
<path fill="#a0a6aa" opacity="1.00" d=" M 104.33 292.11 C 104.58 290.33 104.90 288.56 105.22 286.80 C 106.84 291.89 108.21 297.06 109.86 302.15 C 113.95 313.67 108.34 325.51 105.48 336.63 C 104.40 339.70 106.00 342.65 107.27 345.37 C 105.32 345.70 103.36 346.03 101.41 346.37 C 102.59 333.20 105.91 320.28 106.29 307.04 C 106.60 301.95 104.49 297.15 104.33 292.11 Z" />
<path fill="#a0a6aa" opacity="1.00" d=" M 13.44 324.70 C 13.22 322.20 16.07 323.13 17.58 323.50 C 25.05 325.87 32.56 328.55 39.14 332.89 C 45.56 337.14 47.95 344.98 49.96 352.01 C 41.82 345.11 34.46 337.03 24.98 331.93 C 21.09 329.77 14.75 329.81 13.44 324.70 Z" />
<path fill="#a0a6aa" opacity="1.00" d=" M 48.84 331.74 C 55.92 337.79 61.76 345.55 70.36 349.61 C 72.68 350.77 75.45 351.06 77.85 349.92 C 83.73 347.51 89.14 344.09 95.08 341.82 C 92.64 346.40 90.15 350.95 88.01 355.68 C 86.63 357.55 85.19 359.39 84.10 361.45 C 80.82 366.59 77.11 371.85 71.86 375.13 C 68.02 375.79 65.77 370.96 61.99 371.06 C 59.47 371.56 57.24 372.92 54.95 374.03 C 55.04 372.49 55.12 370.96 55.21 369.43 C 58.10 368.33 61.42 367.77 63.65 365.47 C 63.42 363.63 62.62 361.92 61.84 360.26 C 58.40 353.41 54.78 346.65 51.05 339.96 C 49.56 337.47 49.12 334.57 48.84 331.74 Z" />
<path fill="#a0a6aa" opacity="1.00" d=" M 242.83 374.48 C 249.99 374.66 256.29 371.31 262.65 368.53 C 262.12 370.43 261.51 372.51 259.62 373.49 C 253.74 377.19 247.85 380.89 241.88 384.45 C 242.05 381.11 242.46 377.79 242.83 374.48 Z" />
</g>
<g id="#e6e7e7ff">
<path fill="#e6e7e7" opacity="1.00" d=" M 120.09 170.21 C 131.11 175.56 142.09 181.00 152.91 186.74 C 141.90 181.37 130.86 176.03 120.09 170.21 Z" />
<path fill="#e6e7e7" opacity="1.00" d=" M 129.76 442.68 C 128.40 440.86 128.22 438.12 129.83 436.40 C 130.15 438.48 130.10 440.59 129.76 442.68 Z" />
<path fill="#e6e7e7" opacity="1.00" d=" M 158.42 438.88 C 159.33 437.87 160.53 437.25 161.77 436.74 C 161.76 438.54 161.69 440.34 161.64 442.14 C 160.93 442.13 159.50 442.09 158.79 442.08 C 159.75 440.70 160.71 439.32 161.63 437.92 C 160.83 438.16 159.22 438.64 158.42 438.88 Z" />
<path fill="#e6e7e7" opacity="1.00" d=" M 162.63 437.88 C 163.41 437.61 164.98 437.07 165.76 436.81 L 165.29 438.35 C 166.75 438.04 168.22 437.70 169.66 437.28 C 169.58 438.82 169.52 440.36 169.48 441.91 C 169.16 441.88 168.52 441.82 168.21 441.79 C 168.34 441.19 168.61 439.99 168.75 439.38 C 168.13 439.13 166.88 438.63 166.25 438.37 C 166.23 439.25 166.18 441.00 166.16 441.87 C 165.43 441.84 163.96 441.77 163.22 441.73 C 163.02 440.44 162.82 439.16 162.63 437.88 M 164.33 438.44 C 163.47 439.68 163.70 440.42 165.03 440.66 C 165.88 439.43 165.65 438.70 164.33 438.44 Z" />
<path fill="#e6e7e7" opacity="1.00" d=" M 171.25 437.46 C 171.90 437.32 173.20 437.05 173.85 436.92 L 173.93 437.80 C 173.40 437.86 172.34 437.97 171.81 438.03 C 172.62 439.00 174.98 439.35 174.33 440.99 C 173.91 441.47 173.06 442.45 172.64 442.94 C 171.14 441.47 170.93 439.44 171.25 437.46 M 172.41 440.38 C 173.07 440.86 173.07 440.86 172.41 440.38 Z" />
<path fill="#e6e7e7" opacity="1.00" d=" M 131.19 438.41 C 132.78 438.41 134.38 438.40 135.98 438.39 C 135.92 439.72 135.85 441.07 135.74 442.42 C 135.39 441.51 134.70 439.68 134.36 438.77 C 134.21 439.76 133.90 441.72 133.75 442.70 C 133.44 441.70 132.82 439.71 132.51 438.71 C 132.26 439.58 131.78 441.30 131.54 442.17 L 130.72 442.03 C 130.87 440.82 131.03 439.61 131.19 438.41 Z" />
<path fill="#e6e7e7" opacity="1.00" d=" M 141.65 438.56 C 142.68 438.47 143.71 438.45 144.74 438.50 L 145.25 438.73 C 145.77 438.65 146.82 438.49 147.34 438.41 C 147.73 438.54 148.51 438.80 148.90 438.93 C 148.82 439.80 148.64 441.55 148.56 442.43 C 147.47 441.96 146.38 441.49 145.28 441.07 C 145.11 441.49 144.78 442.35 144.61 442.78 C 143.55 442.57 142.49 442.38 141.43 442.19 C 141.36 440.98 141.14 439.71 141.65 438.56 M 142.21 439.86 C 142.55 443.21 145.10 438.13 142.21 439.86 Z" />
<path fill="#e6e7e7" opacity="1.00" d=" M 111.31 442.28 C 111.14 440.93 111.48 439.74 112.55 438.90 C 112.59 439.96 112.67 442.09 112.71 443.15 C 113.52 442.11 114.32 441.06 115.12 440.02 C 115.23 440.09 115.43 440.22 115.53 440.29 C 114.44 442.10 114.34 444.09 115.78 445.72 C 115.58 449.10 115.65 452.49 115.75 455.87 L 115.24 455.89 C 115.15 453.43 114.97 450.97 114.70 448.53 C 114.24 450.20 113.79 451.88 113.35 453.57 C 112.56 451.08 111.59 448.66 110.59 446.25 L 111.06 446.35 C 112.44 446.03 113.79 445.55 115.03 444.86 C 112.05 444.27 109.00 444.11 105.98 444.38 C 105.67 442.76 105.37 441.14 105.12 439.52 C 105.81 440.84 106.50 442.16 107.18 443.50 C 107.31 442.41 107.56 440.23 107.68 439.14 C 109.73 439.62 109.88 440.84 108.75 442.42 C 109.39 442.39 110.67 442.31 111.31 442.28 Z" />
<path fill="#e6e7e7" opacity="1.00" d=" M 128.70 444.00 C 132.08 446.75 128.80 451.95 131.33 455.37 C 130.48 455.29 129.64 455.22 128.80 455.16 C 128.43 451.45 128.37 447.71 128.70 444.00 Z" />
<path fill="#e6e7e7" opacity="1.00" d=" M 132.46 444.37 C 133.51 444.34 134.00 444.84 133.94 445.88 C 134.07 449.21 133.70 452.64 135.01 455.81 C 134.38 455.49 133.10 454.85 132.47 454.52 C 132.03 451.16 132.14 447.73 132.46 444.37 Z" />
<path fill="#e6e7e7" opacity="1.00" d=" M 118.61 455.53 C 119.67 451.48 120.96 447.44 123.00 443.76 C 125.26 447.33 126.44 451.44 127.53 455.49 C 126.15 455.00 125.19 454.06 124.65 452.67 C 123.62 452.66 122.59 452.67 121.56 452.69 C 120.96 454.05 119.98 454.99 118.61 455.53 M 122.33 448.49 C 120.89 449.42 122.25 452.18 123.81 450.99 C 125.16 450.06 123.85 447.33 122.33 448.49 Z" />
<path fill="#e6e7e7" opacity="1.00" d=" M 105.96 445.58 C 107.29 445.71 108.63 445.85 109.96 446.11 C 108.79 448.76 107.61 451.42 106.70 454.18 C 105.89 451.39 106.02 448.45 105.96 445.58 Z" />
<path fill="#e6e7e7" opacity="1.00" d=" M 145.52 448.34 C 147.05 447.41 148.62 446.55 150.19 445.69 C 150.22 446.20 150.29 447.21 150.33 447.72 C 150.83 447.76 151.84 447.82 152.35 447.85 C 149.66 449.08 149.06 453.93 152.41 454.77 C 151.41 455.78 150.04 455.30 148.83 455.17 C 148.74 453.50 148.67 451.82 148.64 450.16 C 147.99 449.56 147.34 448.97 146.67 448.40 C 144.95 450.35 145.27 452.92 145.18 455.31 C 144.84 455.34 144.15 455.40 143.81 455.44 C 143.73 454.25 143.38 453.19 142.75 452.25 C 141.02 451.03 138.75 452.23 136.84 452.03 C 138.21 454.06 140.46 454.03 142.66 453.91 C 140.45 457.16 134.78 454.98 135.51 451.04 C 135.69 448.09 138.84 447.18 141.20 448.27 C 141.81 449.19 142.51 450.04 143.31 450.81 C 143.42 449.95 143.65 448.23 143.76 447.38 C 144.20 447.62 145.08 448.10 145.52 448.34 M 138.16 449.26 C 137.66 450.83 138.26 451.34 139.94 450.80 C 140.44 449.21 139.84 448.70 138.16 449.26 Z" />
<path fill="#e6e7e7" opacity="1.00" d=" M 169.41 450.56 C 168.92 447.27 173.47 446.97 175.00 449.18 C 173.52 449.19 172.05 449.15 170.58 449.15 C 172.10 450.45 173.56 451.83 174.89 453.34 C 176.30 454.96 177.48 453.72 178.33 452.28 C 180.68 452.38 183.03 452.31 185.39 452.42 C 185.58 452.55 185.98 452.80 186.17 452.93 C 186.42 453.24 186.90 453.87 187.14 454.19 C 185.71 454.56 184.29 454.98 182.88 455.43 C 182.47 455.13 181.67 454.54 181.27 454.24 C 180.75 454.55 179.73 455.17 179.22 455.48 C 178.22 454.47 177.34 454.51 176.59 455.61 L 175.97 455.79 C 175.26 455.50 174.55 455.20 173.86 454.88 C 172.02 455.73 169.84 455.69 168.71 453.78 C 170.31 453.84 171.91 453.90 173.52 453.94 C 172.16 452.79 170.70 451.76 169.41 450.56 M 179.08 453.21 C 179.10 456.52 182.17 451.68 179.08 453.21 M 182.40 453.31 C 182.40 456.67 185.46 451.91 182.40 453.31 Z" />
<path fill="#e6e7e7" opacity="1.00" d=" M 161.21 447.77 C 163.39 448.08 167.19 446.92 167.78 449.96 C 167.82 451.84 169.08 455.09 166.57 455.76 C 165.88 453.60 167.02 450.45 164.97 449.04 C 161.70 449.48 163.44 453.34 162.96 455.56 C 162.58 455.50 161.83 455.36 161.46 455.30 C 161.12 452.80 161.25 450.27 161.21 447.77 Z" />
<path fill="#e6e7e7" opacity="1.00" d=" M 107.36 455.94 C 108.36 454.13 109.28 452.29 110.15 450.43 C 111.05 452.39 112.05 454.35 113.70 455.81 L 113.71 455.88 C 111.59 455.95 109.47 455.99 107.36 455.94 Z" />
</g>
<g id="#9aa0a4ff">
<path fill="#9aa0a4" opacity="1.00" d=" M 180.35 222.53 C 183.04 228.32 182.65 234.85 183.31 241.05 C 183.77 245.26 183.83 249.50 183.26 253.70 C 181.80 244.43 180.18 235.12 179.42 225.77 C 179.65 224.96 180.12 223.34 180.35 222.53 Z" />
</g>
<g id="#9ba1a5ff">
<path fill="#9ba1a5" opacity="1.00" d=" M 243.86 363.24 C 250.04 358.39 254.43 351.35 261.56 347.75 C 260.26 349.99 258.72 352.11 256.81 353.88 C 252.37 358.06 248.18 362.50 243.55 366.47 C 243.63 365.66 243.78 364.05 243.86 363.24 Z" />
</g>
<g id="#744595ff">
<path fill="#744595" opacity="1.00" d=" M 95.96 405.84 C 101.34 411.66 105.58 418.42 110.26 424.80 C 112.63 428.23 115.16 431.63 116.53 435.63 C 110.81 431.21 107.09 424.80 102.88 419.04 C 100.11 414.90 97.23 410.71 95.96 405.84 Z" />
</g>
<g id="#906ca9ff">
<path fill="#906ca9" opacity="1.00" d=" M 150.67 438.89 C 151.98 437.40 153.80 436.85 155.73 436.85 C 156.17 437.81 156.61 438.77 157.05 439.74 C 156.76 440.34 156.16 441.54 155.86 442.13 C 154.63 442.09 153.41 442.05 152.19 442.02 C 151.68 440.97 151.18 439.92 150.67 438.89 M 154.42 439.12 C 154.55 442.44 157.41 437.60 154.42 439.12 Z" />
</g>
<g id="#b8a6c6ff">
<path fill="#b8a6c6" opacity="1.00" d=" M 137.44 437.71 C 140.36 437.45 140.52 440.11 140.82 442.27 C 139.79 442.21 137.72 442.09 136.69 442.03 C 136.58 441.28 136.36 439.78 136.25 439.03 C 136.96 439.26 138.36 439.71 139.07 439.93 C 138.66 439.38 137.84 438.27 137.44 437.71 Z" />
</g>
<g id="#55197eff">
<path fill="#55197e" opacity="1.00" d=" M 154.42 439.12 C 157.41 437.60 154.55 442.44 154.42 439.12 Z" />
</g>
<g id="#774998ff">
<path fill="#774998" opacity="1.00" d=" M 202.25 440.36 C 204.74 441.49 206.30 444.50 206.54 447.19 C 206.40 451.50 203.33 454.90 200.61 457.95 C 200.65 456.53 200.70 455.11 200.76 453.71 C 201.79 452.06 202.97 450.46 203.59 448.60 C 204.10 445.77 201.41 443.16 202.25 440.36 Z" />
</g>
<g id="#b9a7c7ff">
<path fill="#b9a7c7" opacity="1.00" d=" M 142.61 443.24 C 143.15 443.80 143.15 443.80 142.61 443.24 Z" />
</g>
<g id="#9979afff">
<path fill="#9979af" opacity="1.00" d=" M 105.98 444.38 C 109.00 444.11 112.05 444.27 115.03 444.86 C 113.79 445.55 112.44 446.03 111.06 446.35 L 110.59 446.25 L 109.96 446.11 C 108.63 445.85 107.29 445.71 105.96 445.58 C 106.02 448.45 105.89 451.39 106.70 454.18 C 106.86 454.62 107.19 455.50 107.36 455.94 C 109.47 455.99 111.59 455.95 113.71 455.88 L 113.70 455.81 C 113.61 455.25 113.44 454.13 113.35 453.57 C 113.79 451.88 114.24 450.20 114.70 448.53 C 114.97 450.97 115.15 453.43 115.24 455.89 L 115.29 456.91 C 111.88 458.20 108.30 458.12 104.91 456.85 C 104.18 453.63 103.91 450.31 104.28 447.03 C 104.38 446.03 104.81 444.52 105.98 444.38 Z" />
</g>
<g id="#835a9fff">
<path fill="#835a9f" opacity="1.00" d=" M 138.16 449.26 C 139.84 448.70 140.44 449.21 139.94 450.80 C 138.26 451.34 137.66 450.83 138.16 449.26 Z" />
</g>
<g id="#beafcaff">
<path fill="#beafca" opacity="1.00" d=" M 185.39 452.42 C 187.20 451.96 189.07 451.77 190.94 451.74 C 190.96 452.67 191.00 454.51 191.02 455.44 L 189.69 455.31 C 189.70 454.63 189.72 453.28 189.72 452.60 C 189.23 453.57 188.75 454.54 188.28 455.52 C 187.76 454.87 186.70 453.57 186.17 452.93 C 185.98 452.80 185.58 452.55 185.39 452.42 Z" />
</g>
<g id="#754595ff">
<path fill="#754595" opacity="1.00" d=" M 196.34 461.07 C 196.31 459.83 197.34 459.03 198.13 458.25 C 199.39 459.32 197.89 462.02 196.34 461.07 Z" />
</g>
</svg>
