<?xml version="1.0" encoding="UTF-8" ?>
<!DOCTYPE svg PUBLIC "-//W3C//DTD SVG 1.1//EN" "http://www.w3.org/Graphics/SVG/1.1/DTD/svg11.dtd">
<svg width="233pt" height="449pt" viewBox="0 0 233 449" version="1.1" xmlns="http://www.w3.org/2000/svg">
<g id="#ffffffff">
<path fill="#ffffff" opacity="1.00" d=" M 83.32 72.54 C 83.88 68.49 88.54 67.31 92.01 67.49 C 95.39 67.82 97.36 72.03 95.75 74.91 C 92.53 81.54 89.11 88.11 86.62 95.07 C 84.07 87.94 80.36 80.14 83.32 72.54 Z" />
<path fill="#ffffff" opacity="1.00" d=" M 130.86 360.01 C 132.76 358.72 134.39 360.95 136.33 360.51 C 137.66 360.29 138.96 359.87 140.02 359.01 C 139.99 360.30 139.98 361.59 139.97 362.89 L 139.03 362.88 L 139.38 360.36 C 138.25 361.20 137.17 362.11 135.97 362.87 C 135.35 362.34 134.12 361.30 133.50 360.77 L 133.33 363.49 C 132.62 363.34 131.91 363.18 131.21 363.02 C 131.79 362.27 132.94 360.76 133.51 360.01 L 130.86 360.01 Z" />
<path fill="#ffffff" opacity="1.00" d=" M 107.85 360.29 C 109.39 360.30 110.93 360.31 112.48 360.29 C 111.66 361.35 110.87 362.43 110.11 363.54 C 110.15 362.88 110.23 361.57 110.27 360.91 L 108.74 361.02 C 108.74 361.51 108.74 362.50 108.74 362.99 L 107.62 362.92 C 107.68 362.26 107.80 360.94 107.85 360.29 Z" />
<path fill="#ffffff" opacity="1.00" d=" M 114.43 359.64 C 115.54 360.44 116.49 361.40 116.49 362.89 C 115.68 362.60 110.73 362.93 112.49 361.50 L 114.57 362.19 C 114.53 361.55 114.46 360.27 114.43 359.64 Z" />
<path fill="#ffffff" opacity="1.00" d=" M 117.28 360.35 C 120.32 358.85 117.28 363.69 117.28 360.35 Z" />
<path fill="#ffffff" opacity="1.00" d=" M 141.92 362.47 C 140.46 362.74 140.87 359.34 142.25 359.86 C 142.17 360.52 142.00 361.82 141.92 362.47 Z" />
<path fill="#ffffff" opacity="1.00" d=" M 87.54 365.20 C 88.42 363.63 89.31 362.07 90.22 360.53 C 90.32 361.45 90.52 363.30 90.62 364.22 C 91.18 363.41 92.30 361.80 92.86 360.99 L 93.00 361.15 C 93.27 361.74 93.81 362.91 94.08 363.49 C 93.75 366.57 89.56 364.81 87.54 365.20 Z" />
<path fill="#ffffff" opacity="1.00" d=" M 142.98 361.28 C 146.27 361.44 141.27 364.26 142.98 361.28 Z" />
<path fill="#ffffff" opacity="1.00" d=" M 117.65 362.40 C 118.20 363.03 118.20 363.03 117.65 362.40 Z" />
<path fill="#ffffff" opacity="1.00" d=" M 101.35 365.29 C 101.59 365.30 102.09 365.33 102.33 365.34 C 103.59 368.06 104.43 370.94 105.16 373.84 C 107.06 371.16 106.09 367.77 106.50 364.73 C 108.81 367.04 106.82 371.00 107.91 373.83 C 110.26 371.56 109.12 368.12 109.33 365.24 C 109.65 365.25 110.29 365.28 110.61 365.29 C 110.67 368.12 110.18 371.10 111.47 373.76 C 109.00 373.84 106.53 373.86 104.06 373.86 C 103.83 373.30 103.37 372.18 103.13 371.62 C 101.37 371.65 99.52 371.70 99.38 373.91 C 99.07 373.86 98.46 373.76 98.15 373.70 C 99.18 370.89 100.00 367.98 101.35 365.29 M 101.35 368.76 C 99.97 371.91 104.62 368.86 101.35 368.76 Z" />
<path fill="#ffffff" opacity="1.00" d=" M 87.52 365.53 C 88.44 365.69 90.28 366.03 91.19 366.20 C 90.19 368.38 89.17 370.56 87.79 372.54 C 87.61 370.20 87.57 367.86 87.52 365.53 Z" />
<path fill="#ffffff" opacity="1.00" d=" M 91.76 365.91 C 92.54 365.92 94.10 365.94 94.89 365.95 C 95.41 368.43 95.52 370.97 95.57 373.51 C 93.36 371.55 92.05 368.83 91.76 365.91 Z" />
<path fill="#ffffff" opacity="1.00" d=" M 121.90 367.77 C 122.40 367.41 123.39 366.68 123.88 366.32 C 124.06 366.79 124.40 367.73 124.57 368.20 C 123.75 370.33 124.16 372.48 125.25 374.45 C 124.62 374.17 123.36 373.61 122.72 373.32 C 122.73 371.45 122.73 369.56 122.73 367.69 C 122.13 368.25 120.94 369.37 120.35 369.93 L 120.26 370.01 L 120.23 370.14 C 120.02 370.95 119.60 372.59 119.39 373.40 L 118.91 374.77 C 118.76 372.66 118.63 370.56 118.51 368.46 C 119.64 368.25 120.78 368.02 121.90 367.77 Z" />
<path fill="#ffffff" opacity="1.00" d=" M 140.55 367.59 C 141.90 367.74 143.22 368.10 144.49 368.60 C 143.53 368.72 141.62 368.97 140.66 369.09 C 141.63 369.95 142.70 370.70 143.81 371.37 C 143.82 371.97 143.83 373.16 143.84 373.76 C 142.50 373.84 141.17 373.93 139.84 374.01 L 139.79 373.13 C 140.60 373.08 142.23 372.97 143.04 372.92 C 141.77 371.81 140.67 370.58 139.72 369.21 C 138.90 370.63 138.45 372.18 138.46 373.84 C 138.20 373.89 137.68 373.98 137.43 374.02 C 137.15 371.82 137.98 368.35 134.56 369.04 C 134.16 370.78 135.40 373.42 133.34 374.43 C 133.22 372.35 133.18 370.27 133.13 368.19 C 134.70 368.15 136.26 368.10 137.82 368.03 L 137.34 369.20 C 138.43 369.17 139.52 369.14 140.62 369.11 L 140.55 367.59 Z" />
<path fill="#ffffff" opacity="1.00" d=" M 112.12 371.01 C 111.60 367.04 117.37 366.93 118.21 370.50 C 116.54 370.65 114.88 370.80 113.22 370.94 C 113.84 373.01 116.22 372.93 117.85 373.74 C 115.71 374.17 111.83 374.19 112.12 371.01 M 114.28 369.09 C 114.36 372.41 117.33 367.60 114.28 369.09 Z" />
<path fill="#ffffff" opacity="1.00" d=" M 127.26 373.72 C 125.17 371.87 126.63 369.25 127.85 367.40 C 129.02 367.81 130.18 368.28 131.32 368.80 C 132.01 370.16 131.88 371.77 132.17 373.25 C 130.55 373.51 128.91 374.01 127.26 373.72 M 127.68 372.91 C 128.46 372.82 130.00 372.65 130.77 372.56 C 130.54 371.33 131.12 368.52 128.93 369.11 C 126.63 368.51 128.06 371.73 127.68 372.91 Z" />
<path fill="#ffffff" opacity="1.00" d=" M 88.94 375.35 C 89.65 373.65 90.40 371.95 91.56 370.50 C 92.07 372.09 92.55 373.70 93.01 375.31 C 91.65 375.32 90.29 375.34 88.94 375.35 Z" />
<path fill="#ffffff" opacity="1.00" d=" M 144.87 373.66 C 145.93 372.59 146.98 371.51 148.01 370.41 C 148.49 371.07 149.45 372.38 149.93 373.04 C 150.24 372.43 150.88 371.20 151.19 370.59 C 151.25 371.24 151.36 372.54 151.41 373.19 C 152.86 371.55 154.84 371.14 156.93 371.17 C 157.14 371.88 157.36 372.59 157.58 373.30 C 156.98 373.42 155.79 373.65 155.20 373.76 C 155.26 373.22 155.38 372.12 155.45 371.57 C 155.00 372.11 154.10 373.18 153.65 373.71 C 151.78 373.46 149.89 373.38 148.01 373.45 C 147.22 373.50 145.65 373.61 144.87 373.66 Z" />
</g>
<g id="#000000ff">
<path fill="#000000" opacity="1.00" d=" M 113.09 6.84 C 126.26 2.08 140.76 2.11 154.19 5.76 C 170.85 9.77 185.37 22.99 189.03 40.00 C 189.57 43.85 192.49 46.70 193.55 50.36 C 195.12 55.16 194.88 60.45 193.15 65.17 C 191.33 68.43 188.55 71.03 186.51 74.14 C 183.67 78.58 179.52 81.91 175.62 85.36 C 174.67 98.53 172.36 112.14 176.13 125.07 C 174.64 129.42 170.70 132.49 166.85 134.72 C 163.78 136.77 161.49 132.99 160.25 130.68 C 158.91 128.33 161.77 126.69 163.10 125.15 C 165.60 122.25 170.41 120.42 169.98 115.90 C 170.95 101.25 171.37 86.57 172.04 71.91 C 172.26 68.91 171.70 65.95 170.85 63.10 C 163.02 56.15 152.28 53.69 142.04 53.63 C 128.89 53.67 115.65 55.78 103.38 60.61 C 104.00 66.74 104.35 73.02 102.96 79.08 C 101.98 83.78 98.36 87.29 96.82 91.77 C 93.55 100.68 90.93 110.50 93.28 119.96 C 88.82 118.48 85.85 114.55 81.68 112.53 C 81.26 118.72 83.01 124.80 82.91 130.99 C 83.22 136.96 82.56 143.35 85.28 148.88 C 86.45 149.17 87.15 148.74 87.35 147.59 C 88.97 141.46 89.97 134.90 93.60 129.54 C 95.26 127.24 98.50 124.77 101.28 126.78 C 114.17 134.23 127.09 141.64 140.00 149.05 C 140.90 149.69 142.36 150.11 142.42 151.43 C 142.95 157.45 143.05 163.51 143.52 169.54 C 143.96 169.48 144.84 169.38 145.28 169.32 C 145.71 163.36 145.88 157.39 146.42 151.44 C 149.45 148.81 151.19 144.25 155.02 142.86 C 155.90 150.25 155.21 157.75 155.60 165.18 C 168.37 172.05 181.19 179.29 191.81 189.30 C 196.83 192.57 199.19 198.32 201.43 203.63 C 205.92 215.26 208.05 227.66 209.26 240.02 C 211.49 257.21 217.20 273.70 219.62 290.86 C 221.23 301.18 221.63 311.68 220.87 322.10 C 219.84 336.71 220.02 351.38 221.11 365.97 C 221.59 368.24 220.39 370.28 219.52 372.28 C 221.05 373.71 223.65 375.50 222.12 377.87 C 220.82 380.19 221.30 382.61 222.20 384.97 C 222.18 391.32 221.82 397.67 222.03 404.02 C 222.56 411.53 225.50 418.56 226.95 425.89 C 226.74 426.24 226.32 426.95 226.11 427.30 C 221.08 427.52 216.07 425.57 211.05 426.79 C 208.15 427.26 205.94 429.29 203.83 431.15 C 201.27 428.25 200.50 424.34 199.17 420.82 C 197.75 417.33 198.03 413.48 197.08 409.89 C 195.88 405.34 194.93 400.64 195.43 395.91 C 195.61 389.21 194.15 382.61 192.94 376.06 C 182.90 382.48 170.38 381.07 159.03 381.07 C 140.68 381.54 122.33 381.11 103.98 381.04 C 95.27 380.27 86.54 380.03 77.82 380.81 C 76.93 386.28 82.44 389.64 82.45 394.86 C 82.84 399.23 82.34 403.69 83.41 407.99 C 85.99 418.31 87.48 428.88 88.68 439.44 C 77.11 438.01 66.23 443.14 55.76 447.27 C 52.57 442.46 55.73 436.27 54.00 430.98 C 51.46 424.06 45.15 419.76 40.32 414.58 C 34.74 406.24 33.05 395.55 25.82 388.25 C 22.72 385.29 20.63 381.47 19.33 377.41 C 16.78 369.09 15.85 360.40 14.59 351.81 C 13.51 344.92 9.55 338.92 8.09 332.16 C 8.18 324.44 7.70 316.73 7.87 309.01 C 7.42 302.24 5.93 295.58 3.88 289.12 C 3.01 286.49 3.13 283.69 3.22 280.96 C 3.61 271.60 5.28 262.34 5.86 253.00 C 5.87 237.79 5.82 222.25 10.28 207.56 C 19.14 188.51 32.75 170.77 51.54 160.70 C 59.10 156.68 67.48 154.63 75.93 153.60 C 73.53 147.92 71.09 140.69 75.07 135.14 C 76.44 132.25 79.60 130.33 80.13 127.08 C 79.36 124.36 77.59 121.96 77.32 119.09 C 76.98 115.80 76.38 111.55 79.49 109.34 C 83.57 106.06 85.04 100.79 86.54 96.00 C 84.18 93.34 82.84 89.89 80.31 87.41 C 76.07 70.24 74.94 51.48 81.90 34.84 C 87.28 21.33 99.33 11.12 113.09 6.84 M 114.01 8.20 C 112.79 8.66 111.57 9.12 110.36 9.58 C 103.91 12.05 97.94 15.80 93.06 20.71 C 86.57 27.32 82.47 35.98 80.40 44.95 L 80.47 45.04 C 78.14 54.80 78.54 64.92 79.40 74.83 C 80.09 67.72 84.91 61.93 90.17 57.48 C 91.50 56.39 92.84 55.30 94.15 54.19 C 99.76 50.33 105.72 46.91 112.33 45.08 C 116.76 42.26 121.25 39.54 125.89 37.10 C 129.05 36.07 132.23 35.10 135.38 34.04 C 141.38 32.32 147.61 31.64 153.84 31.52 C 158.48 31.59 163.10 32.09 167.66 32.93 C 170.78 33.81 173.91 34.64 177.06 35.42 C 180.63 36.88 184.06 38.71 187.14 41.05 C 185.92 36.06 184.02 31.26 181.36 26.86 C 177.05 20.00 170.66 14.63 163.43 11.04 C 156.57 7.98 149.26 5.80 141.75 5.28 C 141.25 5.17 140.24 4.94 139.74 4.83 C 131.02 4.17 122.33 5.62 114.01 8.20 M 120.60 41.97 C 137.45 38.59 156.05 37.97 171.56 46.48 C 179.52 50.84 187.74 57.70 188.33 67.44 C 194.68 60.10 192.70 47.65 185.03 41.97 C 177.34 36.03 167.41 34.35 157.99 33.43 C 145.13 32.87 131.67 35.15 120.60 41.97 M 83.32 72.54 C 80.36 80.14 84.07 87.94 86.62 95.07 C 89.11 88.11 92.53 81.54 95.75 74.91 C 97.36 72.03 95.39 67.82 92.01 67.49 C 88.54 67.31 83.88 68.49 83.32 72.54 M 93.84 132.90 C 90.54 138.47 91.19 145.62 87.25 150.83 C 92.06 157.80 99.66 163.56 100.69 172.48 C 102.89 175.44 107.39 173.79 110.58 174.39 C 111.13 174.84 112.23 175.76 112.78 176.21 C 111.52 177.17 110.24 178.09 108.95 178.99 C 105.76 179.83 102.40 181.18 99.09 180.21 C 96.04 177.63 96.66 172.82 94.10 169.95 C 89.58 167.18 85.03 164.40 81.22 160.65 C 79.72 158.86 78.30 157.01 76.93 155.12 C 72.42 156.24 67.81 156.89 63.32 158.06 C 56.45 160.28 49.69 163.25 44.04 167.80 C 41.13 169.68 38.47 171.92 35.89 174.23 C 29.30 180.61 23.18 187.74 18.92 195.90 C 23.52 191.44 28.55 187.38 34.06 184.10 C 35.04 183.33 36.56 182.96 37.01 181.69 C 38.36 182.46 40.88 181.29 40.82 179.63 C 43.15 180.25 45.75 179.81 47.87 181.15 C 54.27 184.62 60.09 189.04 65.94 193.36 C 73.32 199.49 81.23 205.31 86.85 213.20 C 88.60 215.35 88.53 218.16 88.09 220.76 C 85.02 230.55 86.16 241.24 88.14 251.20 C 87.75 261.73 85.33 272.02 84.29 282.48 C 83.71 286.59 80.63 289.72 77.54 292.20 C 75.87 293.69 73.74 294.87 72.74 296.94 C 73.11 302.59 77.97 307.16 77.16 313.01 C 76.58 318.67 72.82 323.15 69.44 327.43 C 68.07 328.74 69.14 330.43 69.53 331.92 C 74.82 337.32 78.94 343.97 80.06 351.54 C 80.45 360.65 79.59 369.74 78.12 378.73 C 79.91 378.57 81.70 378.43 83.49 378.29 C 88.95 378.00 94.42 378.06 99.87 378.47 C 105.69 379.12 111.54 378.91 117.38 378.94 C 123.83 378.86 130.29 379.05 136.74 379.11 C 143.48 379.18 150.22 378.96 156.95 378.88 C 159.19 378.87 161.43 378.86 163.68 378.84 C 163.14 372.21 163.92 365.62 164.39 359.03 C 164.64 357.73 164.55 356.39 164.60 355.08 C 164.14 347.26 162.63 339.56 160.51 332.03 C 157.74 319.49 156.82 306.63 155.33 293.89 C 153.71 276.33 152.08 258.72 152.28 241.07 C 150.98 219.25 147.63 197.61 144.11 176.06 C 143.95 174.65 143.67 173.26 143.41 171.87 C 142.92 171.62 141.93 171.11 141.44 170.85 C 141.15 164.45 140.76 158.05 140.47 151.65 C 127.09 143.97 113.75 136.23 100.37 128.57 C 97.34 126.91 95.07 130.65 93.84 132.90 M 148.14 152.08 C 147.63 158.03 147.67 164.03 146.99 169.97 C 146.63 170.42 145.91 171.34 145.54 171.79 C 145.64 172.47 145.74 173.15 145.84 173.84 C 148.86 192.51 151.60 211.24 153.59 230.06 C 153.58 231.96 153.74 233.87 154.14 235.73 C 154.01 264.76 156.97 293.70 160.69 322.47 C 161.28 327.21 162.29 331.89 163.61 336.49 C 165.78 345.80 167.28 355.52 165.81 365.06 C 165.17 369.64 165.39 374.27 165.58 378.88 C 173.12 379.30 180.71 378.71 187.91 376.36 C 192.89 375.18 194.26 369.30 194.28 364.89 C 194.01 358.16 193.66 351.41 194.44 344.70 C 195.76 329.78 197.68 314.83 198.25 299.88 L 198.62 300.31 C 199.21 289.52 202.94 279.14 203.10 268.31 C 204.13 263.77 204.03 259.03 203.93 254.41 C 204.28 239.10 202.10 223.60 197.52 209.03 L 197.87 209.00 C 195.70 203.49 194.30 197.65 191.57 192.38 C 187.59 186.79 181.60 183.11 176.09 179.19 C 169.69 175.05 163.10 171.21 156.37 167.64 C 155.39 167.02 154.20 166.60 153.49 165.64 C 153.00 159.37 153.46 153.07 153.06 146.80 C 151.38 148.52 149.75 150.29 148.14 152.08 M 37.65 184.77 C 30.19 188.97 23.37 194.37 17.75 200.83 C 14.82 204.41 11.89 208.31 11.04 212.96 C 7.88 226.07 7.88 239.65 7.86 253.05 C 7.27 263.41 5.23 273.67 5.26 284.07 C 5.25 286.05 5.66 288.01 6.23 289.91 C 8.43 297.73 10.28 305.81 9.85 313.99 C 9.61 319.31 10.64 324.60 10.17 329.92 C 9.76 334.04 12.27 337.62 13.55 341.38 C 19.07 353.70 17.55 367.83 22.79 380.24 C 24.80 385.50 29.90 388.61 32.42 393.56 C 36.54 400.15 38.08 408.09 42.69 414.38 C 47.58 419.12 53.30 423.53 55.78 430.14 C 57.08 434.93 56.27 439.94 56.45 444.84 C 65.95 440.83 75.93 436.74 86.45 437.25 C 85.16 427.76 83.94 418.23 81.47 408.96 C 80.38 404.40 80.79 399.70 80.48 395.07 C 80.41 390.86 76.06 388.25 76.02 384.03 C 75.58 372.87 79.40 361.75 77.22 350.60 C 76.55 344.26 72.28 339.26 68.40 334.54 C 66.74 332.49 64.98 329.40 67.04 327.00 C 69.95 323.16 73.44 319.47 74.44 314.58 C 76.36 307.89 69.07 302.64 70.28 296.00 C 72.79 291.45 78.44 289.48 80.70 284.67 C 82.06 281.28 81.97 277.55 82.58 274.00 C 83.40 267.65 84.71 261.35 85.14 254.96 C 85.72 248.89 83.39 243.05 83.42 236.99 C 83.53 230.58 84.04 224.13 85.68 217.91 C 85.33 214.52 82.45 212.03 80.32 209.57 C 70.32 199.42 58.86 190.71 46.64 183.43 C 43.71 181.13 40.37 183.31 37.65 184.77 M 198.07 202.76 C 206.79 228.79 208.77 257.05 203.53 284.01 C 202.07 291.62 200.57 299.22 200.06 306.97 C 198.78 321.30 197.46 335.62 196.12 349.95 C 195.46 358.25 198.54 367.03 194.55 374.87 C 195.78 382.54 198.00 390.22 197.19 398.05 C 196.71 403.88 199.45 409.24 199.93 414.96 C 200.41 419.44 202.37 423.55 203.86 427.75 C 209.66 422.65 217.71 424.00 224.68 424.97 C 223.48 419.94 221.84 415.02 220.92 409.93 C 218.98 401.73 220.48 393.24 219.88 384.95 C 218.72 381.99 218.92 378.89 220.32 376.04 C 219.31 375.02 217.86 374.29 217.34 372.90 C 217.55 370.52 219.48 368.48 218.90 365.97 C 217.64 350.32 217.74 334.58 218.84 318.92 C 220.24 297.87 214.87 277.25 210.01 256.97 C 208.35 250.72 207.28 244.33 206.56 237.91 C 205.64 227.03 203.35 216.26 199.76 205.94 C 199.36 204.80 198.72 203.76 198.07 202.76 Z" />
</g>
<g id="#ffcc03ff">
<path fill="#ffcc03" opacity="1.00" d=" M 114.01 8.20 C 122.33 5.62 131.02 4.17 139.74 4.83 C 136.53 12.48 132.95 19.96 129.80 27.63 C 131.66 29.76 133.52 31.90 135.38 34.04 C 132.23 35.10 129.05 36.07 125.89 37.10 C 127.27 34.03 128.43 30.87 129.75 27.78 C 124.59 21.18 119.02 14.92 114.01 8.20 Z" />
<path fill="#ffcc03" opacity="1.00" d=" M 141.75 5.28 C 149.26 5.80 156.57 7.98 163.43 11.04 C 161.55 14.95 159.64 18.84 157.84 22.79 C 161.15 26.13 164.46 29.48 167.66 32.93 C 163.10 32.09 158.48 31.59 153.84 31.52 C 155.16 28.70 156.46 25.87 157.74 23.03 C 152.23 17.27 147.07 11.20 141.75 5.28 Z" />
<path fill="#ffcc03" opacity="1.00" d=" M 93.06 20.71 C 97.94 15.80 103.91 12.05 110.36 9.58 C 107.52 16.85 104.95 24.25 101.70 31.35 C 98.91 27.73 96.05 24.17 93.06 20.71 Z" />
<path fill="#ffcc03" opacity="1.00" d=" M 181.36 26.86 C 184.02 31.26 185.92 36.06 187.14 41.05 C 184.06 38.71 180.63 36.88 177.06 35.42 C 178.49 32.56 179.92 29.71 181.36 26.86 Z" />
<path fill="#ffcc03" opacity="1.00" d=" M 94.15 54.19 C 96.24 46.72 99.36 39.59 101.87 32.26 C 105.42 36.48 108.82 40.83 112.33 45.08 C 105.72 46.91 99.76 50.33 94.15 54.19 Z" />
<path fill="#ffcc03" opacity="1.00" d=" M 120.60 41.97 C 131.67 35.15 145.13 32.87 157.99 33.43 C 167.41 34.35 177.34 36.03 185.03 41.97 C 192.70 47.65 194.68 60.10 188.33 67.44 C 187.74 57.70 179.52 50.84 171.56 46.48 C 156.05 37.97 137.45 38.59 120.60 41.97 Z" />
<path fill="#ffcc03" opacity="1.00" d=" M 79.40 74.83 C 78.54 64.92 78.14 54.80 80.47 45.04 C 83.75 49.15 86.82 53.42 90.17 57.48 C 84.91 61.93 80.09 67.72 79.40 74.83 Z" />
<path fill="#ffcc03" opacity="1.00" d=" M 63.32 158.06 C 67.81 156.89 72.42 156.24 76.93 155.12 C 78.30 157.01 79.72 158.86 81.22 160.65 C 79.02 165.45 76.78 170.24 74.55 175.03 C 80.84 183.95 86.54 193.28 93.07 202.03 C 93.93 203.25 94.84 204.51 95.14 206.01 C 93.98 211.37 90.61 215.95 88.09 220.76 C 88.53 218.16 88.60 215.35 86.85 213.20 C 81.23 205.31 73.32 199.49 65.94 193.36 C 68.81 187.22 71.77 181.13 74.54 174.96 C 70.79 169.33 66.99 163.74 63.32 158.06 Z" />
<path fill="#ffcc03" opacity="1.00" d=" M 35.89 174.23 C 38.47 171.92 41.13 169.68 44.04 167.80 C 42.25 171.28 40.70 174.88 38.98 178.39 C 37.94 177.01 36.92 175.62 35.89 174.23 Z" />
<path fill="#ffcc03" opacity="1.00" d=" M 145.84 173.84 C 146.12 173.00 146.67 171.32 146.95 170.48 C 153.98 180.13 160.43 190.21 167.23 200.03 C 162.78 210.08 157.54 219.80 153.59 230.06 C 151.60 211.24 148.86 192.51 145.84 173.84 Z" />
<path fill="#ffcc03" opacity="1.00" d=" M 110.58 174.39 C 112.63 174.13 113.44 176.21 114.47 177.55 C 120.04 186.15 125.84 194.60 131.52 203.13 C 126.34 214.21 121.41 225.43 115.68 236.24 C 109.54 227.01 103.49 217.72 97.12 208.65 C 96.53 207.84 96.13 206.96 95.90 205.99 C 96.26 204.20 97.15 202.58 97.95 200.95 C 101.71 193.68 105.27 186.31 108.95 178.99 C 110.24 178.09 111.52 177.17 112.78 176.21 C 112.23 175.76 111.13 174.84 110.58 174.39 Z" />
<path fill="#ffcc03" opacity="1.00" d=" M 144.11 176.06 C 147.63 197.61 150.98 219.25 152.28 241.07 C 152.08 258.72 153.71 276.33 155.33 293.89 C 156.82 306.63 157.74 319.49 160.51 332.03 C 162.63 339.56 164.14 347.26 164.60 355.08 C 157.43 347.65 151.12 339.44 144.23 331.75 C 143.43 331.00 142.94 330.09 142.77 329.01 C 142.61 326.39 144.26 324.21 145.08 321.85 C 148.26 313.89 151.75 306.06 154.79 298.06 C 156.34 294.70 154.01 291.53 152.24 288.84 C 147.08 281.33 142.23 273.62 136.99 266.17 C 131.22 277.02 125.45 287.89 119.77 298.78 C 119.54 298.74 119.09 298.68 118.87 298.64 C 112.28 289.02 106.15 279.05 99.77 269.27 C 105.02 258.32 110.31 247.40 115.92 236.62 C 123.07 246.32 129.84 256.28 137.04 265.94 C 141.19 257.45 145.01 248.80 149.13 240.29 C 150.59 237.27 151.86 233.46 149.76 230.41 C 143.85 221.22 137.56 212.28 131.57 203.15 C 135.77 194.13 140.12 185.17 144.11 176.06 Z" />
<path fill="#ffcc03" opacity="1.00" d=" M 37.01 181.69 C 37.34 179.70 38.95 178.50 40.82 179.63 C 40.88 181.29 38.36 182.46 37.01 181.69 Z" />
<path fill="#ffcc03" opacity="1.00" d=" M 176.09 179.19 C 181.60 183.11 187.59 186.79 191.57 192.38 C 194.30 197.65 195.70 203.49 197.87 209.00 L 197.52 209.03 C 197.11 209.13 196.29 209.32 195.88 209.42 C 193.30 216.13 189.86 222.47 187.00 229.07 C 180.27 219.49 173.87 209.70 167.30 200.01 C 170.13 193.03 173.25 186.17 176.09 179.19 Z" />
<path fill="#ffcc03" opacity="1.00" d=" M 37.65 184.77 C 40.37 183.31 43.71 181.13 46.64 183.43 C 58.86 190.71 70.32 199.42 80.32 209.57 C 82.45 212.03 85.33 214.52 85.68 217.91 C 84.04 224.13 83.53 230.58 83.42 236.99 C 83.39 243.05 85.72 248.89 85.14 254.96 C 84.71 261.35 83.40 267.65 82.58 274.00 C 81.97 277.55 82.06 281.28 80.70 284.67 C 78.44 289.48 72.79 291.45 70.28 296.00 C 69.07 302.64 76.36 307.89 74.44 314.58 C 73.44 319.47 69.95 323.16 67.04 327.00 C 64.98 329.40 66.74 332.49 68.40 334.54 C 72.28 339.26 76.55 344.26 77.22 350.60 C 79.40 361.75 75.58 372.87 76.02 384.03 C 76.06 388.25 80.41 390.86 80.48 395.07 C 80.79 399.70 80.38 404.40 81.47 408.96 C 83.94 418.23 85.16 427.76 86.45 437.25 C 75.93 436.74 65.95 440.83 56.45 444.84 C 56.27 439.94 57.08 434.93 55.78 430.14 C 53.30 423.53 47.58 419.12 42.69 414.38 C 38.08 408.09 36.54 400.15 32.42 393.56 C 29.90 388.61 24.80 385.50 22.79 380.24 C 17.55 367.83 19.07 353.70 13.55 341.38 C 12.27 337.62 9.76 334.04 10.17 329.92 C 10.64 324.60 9.61 319.31 9.85 313.99 C 10.28 305.81 8.43 297.73 6.23 289.91 C 5.66 288.01 5.25 286.05 5.26 284.07 C 5.23 273.67 7.27 263.41 7.86 253.05 C 7.88 239.65 7.88 226.07 11.04 212.96 C 11.89 208.31 14.82 204.41 17.75 200.83 C 23.37 194.37 30.19 188.97 37.65 184.77 Z" />
<path fill="#ffcc03" opacity="1.00" d=" M 198.07 202.76 C 198.72 203.76 199.36 204.80 199.76 205.94 C 203.35 216.26 205.64 227.03 206.56 237.91 C 207.28 244.33 208.35 250.72 210.01 256.97 C 214.87 277.25 220.24 297.87 218.84 318.92 C 217.74 334.58 217.64 350.32 218.90 365.97 C 219.48 368.48 217.55 370.52 217.34 372.90 C 217.86 374.29 219.31 375.02 220.32 376.04 C 218.92 378.89 218.72 381.99 219.88 384.95 C 220.48 393.24 218.98 401.73 220.92 409.93 C 221.84 415.02 223.48 419.94 224.68 424.97 C 217.71 424.00 209.66 422.65 203.86 427.75 C 202.37 423.55 200.41 419.44 199.93 414.96 C 199.45 409.24 196.71 403.88 197.19 398.05 C 198.00 390.22 195.78 382.54 194.55 374.87 C 198.54 367.03 195.46 358.25 196.12 349.95 C 197.46 335.62 198.78 321.30 200.06 306.97 C 200.57 299.22 202.07 291.62 203.53 284.01 C 208.77 257.05 206.79 228.79 198.07 202.76 Z" />
<path fill="#ffcc03" opacity="1.00" d=" M 187.04 229.51 C 192.83 237.70 198.32 246.10 203.93 254.41 C 204.03 259.03 204.13 263.77 203.10 268.31 C 199.04 276.13 195.83 284.35 191.70 292.13 C 185.37 282.40 178.85 272.78 172.50 263.05 C 177.39 251.89 181.94 240.58 187.04 229.51 Z" />
<path fill="#ffcc03" opacity="1.00" d=" M 154.14 235.73 C 160.11 244.93 166.38 253.94 172.48 263.07 C 167.86 273.19 162.91 283.17 158.34 293.32 C 156.57 296.01 158.95 298.41 160.53 300.47 C 166.57 307.93 172.43 315.53 178.46 323.02 C 175.28 332.24 171.85 341.38 168.45 350.53 C 167.79 352.57 166.21 355.02 168.17 356.85 C 172.94 363.12 177.76 369.36 182.67 375.52 C 183.76 377.55 186.13 376.44 187.91 376.36 C 180.71 378.71 173.12 379.30 165.58 378.88 C 165.39 374.27 165.17 369.64 165.81 365.06 C 167.28 355.52 165.78 345.80 163.61 336.49 C 162.29 331.89 161.28 327.21 160.69 322.47 C 156.97 293.70 154.01 264.76 154.14 235.73 Z" />
<path fill="#ffcc03" opacity="1.00" d=" M 88.14 251.20 C 91.98 257.12 95.72 263.10 99.72 268.91 C 97.02 274.84 94.19 280.71 91.62 286.70 C 89.54 291.56 86.63 296.10 85.22 301.23 C 84.68 302.53 85.58 303.69 86.18 304.78 C 91.86 313.90 97.98 322.78 103.38 332.06 C 102.85 335.42 100.87 338.34 99.52 341.43 C 96.32 347.75 93.84 354.42 90.22 360.53 C 89.31 362.07 88.42 363.63 87.54 365.20 C 89.56 364.81 93.75 366.57 94.08 363.49 C 93.81 362.91 93.27 361.74 93.00 361.15 C 93.40 361.47 94.20 362.12 94.59 362.45 C 94.73 363.60 94.83 364.77 94.89 365.95 C 94.10 365.94 92.54 365.92 91.76 365.91 C 92.05 368.83 93.36 371.55 95.57 373.51 C 97.08 375.09 98.49 376.76 99.87 378.47 C 94.42 378.06 88.95 378.00 83.49 378.29 C 85.38 373.64 86.51 368.76 87.80 363.93 C 85.65 359.54 82.66 355.66 80.06 351.54 C 78.94 343.97 74.82 337.32 69.53 331.92 C 74.71 322.02 79.46 311.91 84.55 301.98 C 82.02 298.86 79.70 295.58 77.54 292.20 C 80.63 289.72 83.71 286.59 84.29 282.48 C 85.33 272.02 87.75 261.73 88.14 251.20 M 87.52 365.53 C 87.57 367.86 87.61 370.20 87.79 372.54 C 89.17 370.56 90.19 368.38 91.19 366.20 C 90.28 366.03 88.44 365.69 87.52 365.53 M 88.94 375.35 C 90.29 375.34 91.65 375.32 93.01 375.31 C 92.55 373.70 92.07 372.09 91.56 370.50 C 90.40 371.95 89.65 373.65 88.94 375.35 Z" />
<path fill="#ffcc03" opacity="1.00" d=" M 178.56 323.05 C 183.00 312.86 187.28 302.61 191.86 292.48 C 193.93 295.00 196.10 297.43 198.25 299.88 C 197.68 314.83 195.76 329.78 194.44 344.70 C 188.96 337.62 183.84 330.27 178.56 323.05 Z" />
<path fill="#ffcc03" opacity="1.00" d=" M 118.58 300.18 C 118.88 300.18 119.48 300.18 119.77 300.18 C 122.77 303.31 124.89 307.14 127.66 310.47 C 132.34 316.74 137.42 322.72 141.83 329.18 C 138.35 336.49 133.95 343.56 130.35 350.90 C 131.46 351.46 132.59 352.04 133.70 352.62 C 132.45 352.12 131.20 351.60 129.95 351.10 C 128.42 353.84 126.93 356.60 125.48 359.38 C 126.17 359.45 127.57 359.60 128.27 359.67 C 128.65 360.43 129.04 361.19 129.43 361.96 C 128.44 362.22 127.45 362.49 126.46 362.76 C 126.10 362.31 125.38 361.40 125.03 360.95 C 124.42 361.38 123.22 362.25 122.62 362.68 C 121.78 358.17 118.51 354.81 116.18 351.04 C 112.15 344.73 107.67 338.69 103.90 332.23 C 108.69 321.50 113.76 310.89 118.58 300.18 Z" />
<path fill="#ffcc03" opacity="1.00" d=" M 156.95 378.88 C 159.54 372.30 161.65 365.55 164.39 359.03 C 163.92 365.62 163.14 372.21 163.68 378.84 C 161.43 378.86 159.19 378.87 156.95 378.88 Z" />
<path fill="#ffcc03" opacity="1.00" d=" M 123.39 362.86 C 125.28 363.92 126.52 365.74 127.85 367.40 C 126.63 369.25 125.17 371.87 127.26 373.72 C 128.91 374.01 130.55 373.51 132.17 373.25 C 133.71 375.19 135.25 377.13 136.74 379.11 C 130.29 379.05 123.83 378.86 117.38 378.94 C 117.89 377.54 118.42 376.17 118.91 374.77 L 119.39 373.40 C 119.60 372.59 120.02 370.95 120.23 370.14 C 120.26 370.08 120.32 369.98 120.35 369.93 C 120.94 369.37 122.13 368.25 122.73 367.69 C 122.73 369.56 122.73 371.45 122.72 373.32 C 123.36 373.61 124.62 374.17 125.25 374.45 C 124.16 372.48 123.75 370.33 124.57 368.20 C 124.40 367.73 124.06 366.79 123.88 366.32 C 123.39 366.68 122.40 367.41 121.90 367.77 C 122.36 366.12 122.81 364.47 123.39 362.86 Z" />
<path fill="#ffcc03" opacity="1.00" d=" M 127.68 372.91 C 128.06 371.73 126.63 368.51 128.93 369.11 C 131.12 368.52 130.54 371.33 130.77 372.56 C 130.00 372.65 128.46 372.82 127.68 372.91 Z" />
</g>
<g id="#f11b0eff">
<path fill="#f11b0e" opacity="1.00" d=" M 139.74 4.83 C 140.24 4.94 141.25 5.17 141.75 5.28 C 147.07 11.20 152.23 17.27 157.74 23.03 C 156.46 25.87 155.16 28.70 153.84 31.52 C 147.61 31.64 141.38 32.32 135.38 34.04 C 133.52 31.90 131.66 29.76 129.80 27.63 C 132.95 19.96 136.53 12.48 139.74 4.83 Z" />
<path fill="#f11b0e" opacity="1.00" d=" M 110.36 9.58 C 111.57 9.12 112.79 8.66 114.01 8.20 C 119.02 14.92 124.59 21.18 129.75 27.78 C 128.43 30.87 127.27 34.03 125.89 37.10 C 121.25 39.54 116.76 42.26 112.33 45.08 C 108.82 40.83 105.42 36.48 101.87 32.26 C 99.36 39.59 96.24 46.72 94.15 54.19 C 92.84 55.30 91.50 56.39 90.17 57.48 C 86.82 53.42 83.75 49.15 80.47 45.04 L 80.40 44.95 C 82.47 35.98 86.57 27.32 93.06 20.71 C 96.05 24.17 98.91 27.73 101.70 31.35 C 104.95 24.25 107.52 16.85 110.36 9.58 Z" />
<path fill="#f11b0e" opacity="1.00" d=" M 163.43 11.04 C 170.66 14.63 177.05 20.00 181.36 26.86 C 179.92 29.71 178.49 32.56 177.06 35.42 C 173.91 34.64 170.78 33.81 167.66 32.93 C 164.46 29.48 161.15 26.13 157.84 22.79 C 159.64 18.84 161.55 14.95 163.43 11.04 Z" />
<path fill="#f11b0e" opacity="1.00" d=" M 93.84 132.90 C 95.07 130.65 97.34 126.91 100.37 128.57 C 113.75 136.23 127.09 143.97 140.47 151.65 C 140.76 158.05 141.15 164.45 141.44 170.85 C 141.93 171.11 142.92 171.62 143.41 171.87 C 143.67 173.26 143.95 174.65 144.11 176.06 C 140.12 185.17 135.77 194.13 131.57 203.15 C 137.56 212.28 143.85 221.22 149.76 230.41 C 151.86 233.46 150.59 237.27 149.13 240.29 C 145.01 248.80 141.19 257.45 137.04 265.94 C 129.84 256.28 123.07 246.32 115.92 236.62 C 110.31 247.40 105.02 258.32 99.77 269.27 C 106.15 279.05 112.28 289.02 118.87 298.64 C 119.09 298.68 119.54 298.74 119.77 298.78 C 125.45 287.89 131.22 277.02 136.99 266.17 C 142.23 273.62 147.08 281.33 152.24 288.84 C 154.01 291.53 156.34 294.70 154.79 298.06 C 151.75 306.06 148.26 313.89 145.08 321.85 C 144.26 324.21 142.61 326.39 142.77 329.01 C 142.94 330.09 143.43 331.00 144.23 331.75 C 151.12 339.44 157.43 347.65 164.60 355.08 C 164.55 356.39 164.64 357.73 164.39 359.03 C 161.65 365.55 159.54 372.30 156.95 378.88 C 150.22 378.96 143.48 379.18 136.74 379.11 C 135.25 377.13 133.71 375.19 132.17 373.25 C 131.88 371.77 132.01 370.16 131.32 368.80 C 130.18 368.28 129.02 367.81 127.85 367.40 C 126.52 365.74 125.28 363.92 123.39 362.86 C 122.81 364.47 122.36 366.12 121.90 367.77 C 120.78 368.02 119.64 368.25 118.51 368.46 C 118.63 370.56 118.76 372.66 118.91 374.77 C 118.42 376.17 117.89 377.54 117.38 378.94 C 111.54 378.91 105.69 379.12 99.87 378.47 C 98.49 376.76 97.08 375.09 95.57 373.51 C 95.52 370.97 95.41 368.43 94.89 365.95 C 94.83 364.77 94.73 363.60 94.59 362.45 C 94.20 362.12 93.40 361.47 93.00 361.15 L 92.86 360.99 C 92.30 361.80 91.18 363.41 90.62 364.22 C 90.52 363.30 90.32 361.45 90.22 360.53 C 93.84 354.42 96.32 347.75 99.52 341.43 C 100.87 338.34 102.85 335.42 103.38 332.06 C 97.98 322.78 91.86 313.90 86.18 304.78 C 85.58 303.69 84.68 302.53 85.22 301.23 C 86.63 296.10 89.54 291.56 91.62 286.70 C 94.19 280.71 97.02 274.84 99.72 268.91 C 95.72 263.10 91.98 257.12 88.14 251.20 C 86.16 241.24 85.02 230.55 88.09 220.76 C 90.61 215.95 93.98 211.37 95.14 206.01 C 94.84 204.51 93.93 203.25 93.07 202.03 C 86.54 193.28 80.84 183.95 74.55 175.03 C 76.78 170.24 79.02 165.45 81.22 160.65 C 85.03 164.40 89.58 167.18 94.10 169.95 C 96.66 172.82 96.04 177.63 99.09 180.21 C 102.40 181.18 105.76 179.83 108.95 178.99 C 105.27 186.31 101.71 193.68 97.95 200.95 C 97.15 202.58 96.26 204.20 95.90 205.99 C 96.13 206.96 96.53 207.84 97.12 208.65 C 103.49 217.72 109.54 227.01 115.68 236.24 C 121.41 225.43 126.34 214.21 131.52 203.13 C 125.84 194.60 120.04 186.15 114.47 177.55 C 113.44 176.21 112.63 174.13 110.58 174.39 C 107.39 173.79 102.89 175.44 100.69 172.48 C 99.66 163.56 92.06 157.80 87.25 150.83 C 91.19 145.62 90.54 138.47 93.84 132.90 M 118.58 300.18 C 113.76 310.89 108.69 321.50 103.90 332.23 C 107.67 338.69 112.15 344.73 116.18 351.04 C 118.51 354.81 121.78 358.17 122.62 362.68 C 123.22 362.25 124.42 361.38 125.03 360.95 C 125.38 361.40 126.10 362.31 126.46 362.76 C 127.45 362.49 128.44 362.22 129.43 361.96 C 129.04 361.19 128.65 360.43 128.27 359.67 C 127.57 359.60 126.17 359.45 125.48 359.38 C 126.93 356.60 128.42 353.84 129.95 351.10 C 131.20 351.60 132.45 352.12 133.70 352.62 C 132.59 352.04 131.46 351.46 130.35 350.90 C 133.95 343.56 138.35 336.49 141.83 329.18 C 137.42 322.72 132.34 316.74 127.66 310.47 C 124.89 307.14 122.77 303.31 119.77 300.18 C 119.48 300.18 118.88 300.18 118.58 300.18 M 130.86 360.01 L 133.51 360.01 C 132.94 360.76 131.79 362.27 131.21 363.02 C 131.91 363.18 132.62 363.34 133.33 363.49 L 133.50 360.77 C 134.12 361.30 135.35 362.34 135.97 362.87 C 137.17 362.11 138.25 361.20 139.38 360.36 L 139.03 362.88 L 139.97 362.89 C 139.98 361.59 139.99 360.30 140.02 359.01 C 138.96 359.87 137.66 360.29 136.33 360.51 C 134.39 360.95 132.76 358.72 130.86 360.01 M 107.85 360.29 C 107.80 360.94 107.68 362.26 107.62 362.92 L 108.74 362.99 C 108.74 362.50 108.74 361.51 108.74 361.02 L 110.27 360.91 C 110.23 361.57 110.15 362.88 110.11 363.54 C 110.87 362.43 111.66 361.35 112.48 360.29 C 110.93 360.31 109.39 360.30 107.85 360.29 M 114.43 359.64 C 114.46 360.27 114.53 361.55 114.57 362.19 L 112.49 361.50 C 110.73 362.93 115.68 362.60 116.49 362.89 C 116.49 361.40 115.54 360.44 114.43 359.64 M 117.28 360.35 C 117.28 363.69 120.32 358.85 117.28 360.35 M 141.92 362.47 C 142.00 361.82 142.17 360.52 142.25 359.86 C 140.87 359.34 140.46 362.74 141.92 362.47 M 142.98 361.28 C 141.27 364.26 146.27 361.44 142.98 361.28 M 117.65 362.40 C 118.20 363.03 118.20 363.03 117.65 362.40 M 101.35 365.29 C 100.00 367.98 99.18 370.89 98.15 373.70 C 98.46 373.76 99.07 373.86 99.38 373.91 C 99.52 371.70 101.37 371.65 103.13 371.62 C 103.37 372.18 103.83 373.30 104.06 373.86 C 106.53 373.86 109.00 373.84 111.47 373.76 C 110.18 371.10 110.67 368.12 110.61 365.29 C 110.29 365.28 109.65 365.25 109.33 365.24 C 109.12 368.12 110.26 371.56 107.91 373.83 C 106.82 371.00 108.81 367.04 106.50 364.73 C 106.09 367.77 107.06 371.16 105.16 373.84 C 104.43 370.94 103.59 368.06 102.33 365.34 C 102.09 365.33 101.59 365.30 101.35 365.29 M 140.55 367.59 L 140.62 369.11 C 139.52 369.14 138.43 369.17 137.34 369.20 L 137.82 368.03 C 136.26 368.10 134.70 368.15 133.13 368.19 C 133.18 370.27 133.22 372.35 133.34 374.43 C 135.40 373.42 134.16 370.78 134.56 369.04 C 137.98 368.35 137.15 371.82 137.43 374.02 C 137.68 373.98 138.20 373.89 138.46 373.84 C 138.45 372.18 138.90 370.63 139.72 369.21 C 140.67 370.58 141.77 371.81 143.04 372.92 C 142.23 372.97 140.60 373.08 139.79 373.13 L 139.84 374.01 C 141.17 373.93 142.50 373.84 143.84 373.76 C 143.83 373.16 143.82 371.97 143.81 371.37 C 142.70 370.70 141.63 369.95 140.66 369.09 C 141.62 368.97 143.53 368.72 144.49 368.60 C 143.22 368.10 141.90 367.74 140.55 367.59 M 112.12 371.01 C 111.83 374.19 115.71 374.17 117.85 373.74 C 116.22 372.93 113.84 373.01 113.22 370.94 C 114.88 370.80 116.54 370.65 118.21 370.50 C 117.37 366.93 111.60 367.04 112.12 371.01 M 144.87 373.66 C 145.65 373.61 147.22 373.50 148.01 373.45 C 149.89 373.38 151.78 373.46 153.65 373.71 C 154.10 373.18 155.00 372.11 155.45 371.57 C 155.38 372.12 155.26 373.22 155.20 373.76 C 155.79 373.65 156.98 373.42 157.58 373.30 C 157.36 372.59 157.14 371.88 156.93 371.17 C 154.84 371.14 152.86 371.55 151.41 373.19 C 151.36 372.54 151.25 371.24 151.19 370.59 C 150.88 371.20 150.24 372.43 149.93 373.04 C 149.45 372.38 148.49 371.07 148.01 370.41 C 146.98 371.51 145.93 372.59 144.87 373.66 Z" />
<path fill="#f11b0e" opacity="1.00" d=" M 148.14 152.08 C 149.75 150.29 151.38 148.52 153.06 146.80 C 153.46 153.07 153.00 159.37 153.49 165.64 C 154.20 166.60 155.39 167.02 156.37 167.64 C 163.10 171.21 169.69 175.05 176.09 179.19 C 173.25 186.17 170.13 193.03 167.30 200.01 C 173.87 209.70 180.27 219.49 187.00 229.07 C 189.86 222.47 193.30 216.13 195.88 209.42 C 196.29 209.32 197.11 209.13 197.52 209.03 C 202.10 223.60 204.28 239.10 203.93 254.41 C 198.32 246.10 192.83 237.70 187.04 229.51 C 181.94 240.58 177.39 251.89 172.50 263.05 C 178.85 272.78 185.37 282.40 191.70 292.13 C 195.83 284.35 199.04 276.13 203.10 268.31 C 202.94 279.14 199.21 289.52 198.62 300.31 L 198.25 299.88 C 196.10 297.43 193.93 295.00 191.86 292.48 C 187.28 302.61 183.00 312.86 178.56 323.05 C 183.84 330.27 188.96 337.62 194.44 344.70 C 193.66 351.41 194.01 358.16 194.28 364.89 C 194.26 369.30 192.89 375.18 187.91 376.36 C 186.13 376.44 183.76 377.55 182.67 375.52 C 177.76 369.36 172.94 363.12 168.17 356.85 C 166.21 355.02 167.79 352.57 168.45 350.53 C 171.85 341.38 175.28 332.24 178.46 323.02 C 172.43 315.53 166.57 307.93 160.53 300.47 C 158.95 298.41 156.57 296.01 158.34 293.32 C 162.91 283.17 167.86 273.19 172.48 263.07 C 166.38 253.94 160.11 244.93 154.14 235.73 C 153.74 233.87 153.58 231.96 153.59 230.06 C 157.54 219.80 162.78 210.08 167.23 200.03 C 160.43 190.21 153.98 180.13 146.95 170.48 C 146.67 171.32 146.12 173.00 145.84 173.84 C 145.74 173.15 145.64 172.47 145.54 171.79 C 145.91 171.34 146.63 170.42 146.99 169.97 C 147.67 164.03 147.63 158.03 148.14 152.08 Z" />
<path fill="#f11b0e" opacity="1.00" d=" M 44.04 167.80 C 49.69 163.25 56.45 160.28 63.32 158.06 C 66.99 163.74 70.79 169.33 74.54 174.96 C 71.77 181.13 68.81 187.22 65.94 193.36 C 60.09 189.04 54.27 184.62 47.87 181.15 C 45.75 179.81 43.15 180.25 40.82 179.63 C 38.95 178.50 37.34 179.70 37.01 181.69 C 36.56 182.96 35.04 183.33 34.06 184.10 C 28.55 187.38 23.52 191.44 18.92 195.90 C 23.18 187.74 29.30 180.61 35.89 174.23 C 36.92 175.62 37.94 177.01 38.98 178.39 C 40.70 174.88 42.25 171.28 44.04 167.80 Z" />
<path fill="#f11b0e" opacity="1.00" d=" M 72.74 296.94 C 73.74 294.87 75.87 293.69 77.54 292.20 C 79.70 295.58 82.02 298.86 84.55 301.98 C 79.46 311.91 74.71 322.02 69.53 331.92 C 69.14 330.43 68.07 328.74 69.44 327.43 C 72.82 323.15 76.58 318.67 77.16 313.01 C 77.97 307.16 73.11 302.59 72.74 296.94 Z" />
<path fill="#f11b0e" opacity="1.00" d=" M 80.06 351.54 C 82.66 355.66 85.65 359.54 87.80 363.93 C 86.51 368.76 85.38 373.64 83.49 378.29 C 81.70 378.43 79.91 378.57 78.12 378.73 C 79.59 369.74 80.45 360.65 80.06 351.54 Z" />
<path fill="#f11b0e" opacity="1.00" d=" M 101.35 368.76 C 104.62 368.86 99.97 371.91 101.35 368.76 Z" />
<path fill="#f11b0e" opacity="1.00" d=" M 114.28 369.09 C 117.33 367.60 114.36 372.41 114.28 369.09 Z" />
<path fill="#f11b0e" opacity="1.00" d=" M 120.26 370.01 L 120.35 369.93 C 120.32 369.98 120.26 370.08 120.23 370.14 L 120.26 370.01 Z" />
</g>
</svg>
