<?xml version="1.0" encoding="UTF-8" ?>
<!DOCTYPE svg PUBLIC "-//W3C//DTD SVG 1.1//EN" "http://www.w3.org/Graphics/SVG/1.1/DTD/svg11.dtd">
<svg width="284pt" height="551pt" viewBox="0 0 284 551" version="1.1" xmlns="http://www.w3.org/2000/svg">
<g id="#fefeffff">
<path fill="#fefeff" opacity="1.00" d=" M 0.00 0.00 L 284.00 0.00 L 284.00 551.00 L 0.00 551.00 L 0.00 0.00 M 126.78 15.85 C 113.81 23.11 104.02 35.61 99.80 49.83 C 93.68 68.66 95.27 89.01 99.86 107.99 C 103.16 110.81 104.02 115.59 107.74 118.11 C 106.36 122.68 104.83 127.28 102.29 131.35 C 100.65 134.12 96.85 135.37 96.34 138.82 C 95.51 143.53 95.94 148.65 98.34 152.87 C 99.33 154.67 100.42 157.02 98.99 158.91 C 97.05 161.66 94.65 164.08 93.07 167.08 C 88.79 173.76 91.89 182.11 94.60 188.80 C 83.22 190.11 71.95 193.15 62.03 199.02 C 40.53 211.60 24.89 232.34 14.58 254.69 C 9.08 272.91 9.34 292.21 9.22 311.06 C 8.26 324.38 5.37 337.66 6.19 351.07 C 8.77 361.19 12.19 371.39 11.69 382.00 C 11.36 388.32 12.17 394.64 11.88 400.97 C 10.94 410.57 17.41 418.54 19.31 427.61 C 21.96 440.62 22.13 454.38 27.77 466.64 C 29.65 470.90 33.31 473.92 35.94 477.67 L 35.97 477.01 C 42.29 485.99 45.24 496.75 50.81 506.13 C 55.60 511.99 62.49 516.05 66.12 522.92 C 70.24 529.21 67.72 536.95 68.53 543.91 C 68.71 544.94 69.61 546.86 70.95 546.03 C 83.44 541.48 96.34 535.01 110.01 537.08 C 108.85 523.66 106.52 510.32 103.47 497.20 C 101.83 490.57 104.08 483.28 101.02 476.99 C 98.68 473.62 96.40 469.89 97.02 465.58 C 106.95 464.64 116.95 464.77 126.87 465.77 C 137.60 466.18 148.35 465.69 159.09 466.05 C 174.06 466.38 189.04 465.73 204.00 466.03 C 215.18 466.06 227.45 466.18 237.12 459.77 C 238.67 467.38 240.12 475.08 240.29 482.87 C 239.20 490.02 241.27 497.00 242.85 503.88 C 243.11 510.87 245.66 517.47 248.29 523.87 C 248.67 525.16 249.72 525.98 250.78 526.73 C 253.48 523.95 256.91 521.64 260.86 521.26 C 265.93 520.38 270.91 522.08 275.94 522.34 C 277.80 522.74 279.05 520.80 278.36 519.17 C 276.36 510.81 273.37 502.62 272.60 494.01 C 272.34 486.66 272.56 479.31 272.85 471.97 C 273.08 469.87 271.88 468.04 271.41 466.08 C 271.80 464.00 272.81 462.10 273.32 460.06 C 273.22 457.67 271.00 456.55 269.38 455.24 C 270.34 453.25 271.95 451.33 271.59 448.99 C 270.10 430.37 269.90 411.64 271.24 393.00 C 271.56 386.70 271.77 380.39 271.48 374.08 C 270.51 351.25 264.05 329.20 259.10 307.02 C 256.69 296.54 256.63 285.70 254.48 275.18 C 252.27 263.97 249.37 252.77 244.28 242.50 C 242.30 238.91 240.24 234.89 236.35 233.06 C 229.73 226.01 221.60 220.67 213.52 215.46 C 206.38 210.99 199.11 206.73 191.64 202.84 C 191.48 194.59 191.55 186.33 191.35 178.08 C 191.46 176.80 190.73 174.78 189.23 176.20 C 186.19 179.49 183.15 182.85 180.48 186.45 C 179.60 193.51 179.84 200.69 179.01 207.75 C 178.48 207.91 177.43 208.23 176.90 208.39 C 176.41 200.92 176.22 193.43 175.63 185.97 C 175.66 184.66 174.21 184.24 173.36 183.61 C 158.07 174.89 142.80 166.12 127.55 157.34 C 125.37 156.19 122.91 153.99 120.41 155.72 C 114.27 159.29 112.42 166.75 110.55 173.10 C 109.31 176.72 109.82 181.32 106.53 183.92 C 102.45 176.65 103.53 168.02 103.05 160.03 C 103.21 152.93 101.00 145.96 101.68 138.86 C 106.76 141.20 110.34 145.90 115.64 147.87 C 113.02 136.13 116.15 124.08 120.25 113.07 C 122.07 107.73 126.38 103.58 127.59 98.01 C 129.22 90.66 128.79 83.06 128.10 75.62 C 139.49 70.85 151.78 68.51 164.03 67.35 C 177.99 66.30 193.03 67.08 205.20 74.74 C 207.46 76.39 210.44 77.84 210.87 80.92 C 211.72 83.52 211.72 86.29 211.67 88.99 C 211.01 106.71 210.31 124.43 209.24 142.14 C 209.09 143.64 209.12 145.22 208.58 146.65 C 205.04 151.12 199.62 153.98 196.80 159.01 C 197.72 162.68 201.29 168.60 205.65 165.61 C 210.16 162.76 215.08 159.24 216.70 153.90 C 216.37 150.81 214.84 147.97 214.62 144.85 C 213.37 131.67 214.80 118.44 216.23 105.34 C 221.33 101.15 226.45 96.74 229.94 91.07 C 232.36 87.51 235.64 84.54 237.57 80.67 C 239.73 74.06 239.74 66.52 236.80 60.14 C 235.74 57.72 233.74 55.74 233.20 53.09 C 231.40 44.59 227.77 36.47 222.54 29.52 C 213.02 17.19 198.31 9.72 183.13 7.17 C 164.11 3.21 143.69 6.26 126.78 15.85 Z" />
<path fill="#fefeff" opacity="1.00" d=" M 141.56 11.51 C 147.63 9.59 153.88 8.33 160.20 7.56 C 159.41 11.77 158.76 15.99 158.22 20.24 C 151.37 21.25 144.52 22.48 137.96 24.75 C 138.62 20.43 139.47 16.09 141.32 12.10 L 141.56 11.51 Z" />
<path fill="#fefeff" opacity="1.00" d=" M 176.70 17.69 C 178.05 14.83 177.99 11.49 178.64 8.41 C 184.53 9.37 190.37 10.76 195.95 12.90 C 195.92 14.82 195.89 16.73 195.88 18.65 C 190.15 19.15 184.38 18.69 178.66 18.33 C 176.53 23.55 178.06 29.42 177.63 34.92 C 183.60 34.79 189.57 34.58 195.54 34.47 C 195.62 36.39 195.69 38.30 195.77 40.22 C 192.10 40.03 188.43 39.93 184.77 40.24 C 182.29 40.40 179.81 40.65 177.34 40.89 C 177.36 38.90 177.38 36.92 177.40 34.94 C 171.08 35.65 164.76 36.34 158.51 37.55 C 158.51 31.70 158.49 25.84 158.53 19.99 C 164.55 19.09 170.89 19.52 176.70 17.69 Z" />
<path fill="#fefeff" opacity="1.00" d=" M 195.64 19.98 C 196.07 19.59 196.50 19.21 196.94 18.83 C 200.73 19.77 204.63 20.06 208.50 20.49 C 210.57 20.72 212.67 21.89 213.35 23.96 C 214.22 28.22 214.45 32.57 214.43 36.91 C 208.24 36.01 202.02 35.32 195.78 34.93 C 195.79 29.95 195.86 24.96 195.64 19.98 Z" />
<path fill="#fefeff" opacity="1.00" d=" M 121.28 21.82 L 122.62 20.80 C 122.17 23.68 121.69 26.57 121.25 29.46 C 121.03 30.61 120.75 31.76 120.49 32.90 C 119.63 33.29 118.78 33.69 117.94 34.09 C 113.53 35.98 109.75 38.97 105.50 41.16 C 109.18 33.60 114.58 26.91 121.28 21.82 Z" />
<path fill="#fefeff" opacity="1.00" d=" M 120.91 32.81 C 126.12 29.04 132.32 26.96 138.36 24.89 C 137.92 31.15 138.91 37.58 137.80 43.73 C 132.56 46.52 126.69 48.30 122.09 52.17 C 121.29 55.37 122.59 58.70 123.26 61.84 L 123.62 63.13 C 118.59 66.41 113.62 69.86 109.27 74.02 C 107.96 69.68 106.91 65.26 106.20 60.78 C 109.01 59.14 111.82 57.51 114.64 55.89 C 116.80 54.64 118.99 53.41 120.93 51.81 C 121.81 45.61 119.44 39.10 120.91 32.81 Z" />
<path fill="#fefeff" opacity="1.00" d=" M 214.65 36.78 C 218.38 38.14 222.10 39.49 225.89 40.70 L 226.37 40.85 C 227.84 44.35 229.19 47.92 230.01 51.63 C 225.46 48.06 220.16 45.62 214.70 43.83 C 214.68 41.48 214.67 39.13 214.65 36.78 Z" />
<path fill="#fefeff" opacity="1.00" d=" M 139.67 42.92 C 145.81 40.71 152.12 39.04 158.48 37.64 C 158.62 40.19 158.76 42.75 158.88 45.30 L 158.90 45.65 C 151.96 47.92 146.11 52.28 139.96 56.04 C 139.33 52.06 138.01 48.03 138.73 43.97 C 138.97 43.71 139.44 43.18 139.67 42.92 Z" />
<path fill="#fefeff" opacity="1.00" d=" M 104.44 43.28 C 104.66 48.98 105.40 54.65 106.42 60.27 C 103.84 62.37 101.26 64.48 98.67 66.58 C 98.72 65.90 98.82 64.52 98.86 63.83 C 99.60 56.74 101.66 49.83 104.44 43.28 Z" />
<path fill="#fefeff" opacity="1.00" d=" M 103.60 89.95 C 104.26 85.07 109.90 83.64 114.07 83.87 C 118.17 84.12 120.68 89.27 118.76 92.76 C 114.90 100.85 110.88 108.87 107.61 117.22 C 104.39 108.62 100.08 99.14 103.60 89.95 Z" />
<path fill="#fefeff" opacity="1.00" d=" M 50.38 225.35 C 52.59 224.28 55.28 222.95 57.64 224.41 C 63.03 227.22 68.02 230.71 72.96 234.23 L 72.92 234.72 C 72.08 245.43 71.43 256.15 70.59 266.85 C 56.60 265.97 42.60 265.07 28.61 264.19 C 27.65 277.22 26.67 290.24 25.68 303.26 C 38.14 304.05 50.61 304.81 63.08 305.57 C 65.01 305.66 66.93 305.97 68.78 306.53 C 68.34 319.82 67.43 333.12 67.79 346.41 C 73.84 346.29 79.87 346.85 85.91 347.10 C 90.86 347.32 95.84 347.39 100.72 348.37 C 98.48 352.16 95.04 354.91 91.64 357.60 C 89.72 359.25 87.37 361.22 87.47 364.00 C 87.93 369.38 91.21 373.88 92.82 378.91 C 93.86 382.28 92.62 385.71 91.73 388.97 L 91.16 388.99 C 83.04 389.43 74.88 389.50 66.78 390.28 C 65.85 382.94 66.81 375.53 66.72 368.16 C 67.08 361.76 67.22 355.35 67.49 348.95 C 68.13 347.49 66.89 346.04 65.52 345.86 C 62.48 345.63 59.42 345.59 56.38 345.39 C 54.25 345.23 52.13 345.02 50.00 344.84 C 46.28 344.54 42.56 344.29 38.83 344.00 C 34.14 343.63 29.44 343.38 24.75 343.03 C 24.82 339.65 24.89 336.28 25.01 332.91 C 25.08 330.90 25.13 328.91 25.17 326.91 C 25.29 319.01 25.55 311.12 25.65 303.22 C 20.98 303.26 16.31 303.25 11.64 303.25 C 11.83 290.11 12.13 276.85 14.92 263.97 C 19.48 264.04 24.04 264.16 28.60 264.15 C 29.63 255.72 30.49 247.27 31.44 238.84 L 31.47 238.52 C 37.24 233.42 43.63 229.04 50.38 225.35 Z" />
<path fill="#fefeff" opacity="1.00" d=" M 70.65 266.88 C 82.38 267.87 94.09 269.01 105.83 269.87 C 103.65 278.10 103.86 286.66 104.08 295.09 C 104.26 299.23 105.64 303.19 106.23 307.28 C 96.47 307.00 86.73 306.54 76.98 306.27 C 74.09 306.18 71.17 306.15 68.33 305.54 C 69.36 292.67 69.80 279.77 70.65 266.88 Z" />
<path fill="#fefeff" opacity="1.00" d=" M 253.30 319.67 C 255.26 320.07 257.23 320.45 259.18 320.92 C 261.62 329.14 263.51 337.56 265.00 346.02 C 260.04 346.38 255.09 346.72 250.15 347.09 C 251.82 338.04 253.03 328.88 253.30 319.67 Z" />
<path fill="#fefeff" opacity="1.00" d=" M 8.64 341.37 L 8.93 341.40 C 14.20 341.94 19.47 342.50 24.75 342.96 C 24.53 357.31 24.50 371.66 24.18 386.01 C 20.88 385.83 17.59 385.57 14.31 385.29 C 14.37 382.15 14.44 379.00 14.08 375.87 C 13.15 368.46 11.72 361.09 9.48 353.96 C 8.16 349.89 8.50 345.57 8.64 341.37 Z" />
<path fill="#fefeff" opacity="1.00" d=" M 263.63 372.71 C 263.73 372.22 263.91 371.24 264.01 370.75 C 264.11 371.27 264.31 372.32 264.41 372.84 C 265.84 372.72 267.27 372.61 268.71 372.51 C 269.13 381.57 268.90 390.68 268.04 399.71 C 266.87 399.82 265.70 399.91 264.54 400.00 C 260.55 400.24 256.57 400.52 252.58 400.81 C 250.85 400.93 249.12 401.06 247.40 401.18 C 247.05 395.74 246.81 390.30 246.40 384.87 L 245.83 385.52 L 245.55 385.85 C 245.69 381.95 245.91 378.05 246.03 374.15 C 251.90 373.73 257.78 373.42 263.63 372.71 Z" />
<path fill="#fefeff" opacity="1.00" d=" M 24.18 386.21 C 35.79 387.22 47.40 388.25 59.02 389.20 C 61.59 389.42 64.21 389.59 66.61 390.60 C 66.18 404.99 66.60 419.40 66.39 433.81 C 52.58 432.63 38.74 431.88 24.96 430.52 C 24.29 420.94 24.57 411.31 24.29 401.72 C 24.25 396.55 24.03 391.38 24.18 386.21 Z" />
<path fill="#fefeff" opacity="1.00" d=" M 243.48 401.66 C 244.45 401.56 246.39 401.35 247.36 401.25 C 247.95 410.96 248.49 420.66 249.04 430.37 C 246.33 430.65 243.63 430.94 240.92 431.22 C 241.38 422.15 242.55 413.14 243.20 404.08 C 243.27 403.48 243.41 402.26 243.48 401.66 Z" />
<path fill="#fefeff" opacity="1.00" d=" M 249.38 430.06 C 255.51 429.54 261.64 428.97 267.76 428.28 C 267.88 435.22 268.45 442.14 268.83 449.07 C 269.14 451.30 267.38 453.02 266.76 455.04 C 266.66 456.80 268.29 457.79 269.35 458.92 C 264.05 459.53 258.73 460.20 253.39 460.32 C 253.11 460.19 252.54 459.93 252.25 459.79 C 251.10 449.91 250.30 439.97 249.38 430.06 Z" />
<path fill="#fefeff" opacity="1.00" d=" M 92.07 430.65 C 93.45 430.51 94.83 430.43 96.22 430.34 L 96.58 430.31 C 97.99 441.59 95.72 452.83 94.64 464.03 C 94.54 466.66 94.10 469.37 94.86 471.96 L 95.21 473.43 C 85.83 474.87 76.14 473.93 66.82 475.01 C 67.74 482.56 70.38 489.79 71.91 497.24 C 72.80 500.39 73.10 503.92 75.35 506.48 C 75.04 506.45 74.42 506.38 74.11 506.35 C 74.57 508.03 75.03 509.72 75.49 511.41 C 84.74 510.53 94.00 509.86 103.26 509.10 L 103.52 509.08 C 105.10 517.46 106.28 525.91 107.43 534.36 C 97.79 533.60 88.47 536.81 79.51 539.95 C 78.17 530.49 76.71 521.05 75.36 511.60 C 70.52 511.81 65.69 512.15 60.85 512.23 C 57.03 509.78 53.41 506.59 51.47 502.40 C 46.77 493.10 44.25 482.37 36.84 474.68 L 35.67 473.43 C 45.81 473.68 55.93 474.91 66.07 474.75 C 66.76 466.41 66.24 458.02 66.45 449.66 C 66.46 447.00 66.43 444.34 66.41 441.69 C 66.41 439.06 66.44 436.44 66.48 433.83 C 69.51 433.48 72.52 433.07 75.54 432.67 C 81.07 432.17 86.58 431.53 92.07 430.65 Z" />
<path fill="#fefeff" opacity="1.00" d=" M 132.59 444.72 C 131.54 442.81 131.28 440.25 132.63 438.43 C 132.81 440.52 132.81 442.62 132.59 444.72 Z" />
<path fill="#fefeff" opacity="1.00" d=" M 161.44 440.79 C 162.34 439.82 163.55 439.31 164.76 438.87 C 164.73 440.55 164.62 442.25 164.58 443.94 C 163.90 443.92 162.53 443.88 161.85 443.86 C 162.85 442.59 163.80 441.28 164.65 439.91 C 163.85 440.13 162.24 440.57 161.44 440.79 Z" />
<path fill="#fefeff" opacity="1.00" d=" M 166.01 443.60 C 166.20 441.49 165.73 438.67 168.84 438.68 L 168.21 440.35 C 169.37 440.20 170.53 440.04 171.69 439.87 L 171.94 438.41 C 172.44 440.17 172.49 442.00 172.60 443.82 C 172.27 443.81 171.62 443.80 171.29 443.79 C 171.39 443.10 171.59 441.72 171.69 441.03 C 171.09 440.89 169.88 440.62 169.27 440.49 C 169.24 441.31 169.17 442.97 169.14 443.80 C 168.36 443.75 166.80 443.65 166.01 443.60 M 167.30 440.43 C 166.52 441.75 166.78 442.50 168.09 442.70 C 168.87 441.40 168.60 440.65 167.30 440.43 Z" />
<path fill="#fefeff" opacity="1.00" d=" M 174.26 439.56 C 174.89 439.41 176.16 439.10 176.79 438.94 L 176.85 439.81 C 176.33 439.86 175.28 439.97 174.76 440.03 C 175.53 440.49 176.22 441.06 176.83 441.73 C 176.45 441.76 175.71 441.83 175.34 441.87 L 175.20 443.34 C 175.62 443.26 176.47 443.10 176.89 443.02 C 176.56 443.47 175.90 444.37 175.57 444.82 C 174.11 443.43 174.10 441.43 174.26 439.56 Z" />
<path fill="#fefeff" opacity="1.00" d=" M 133.48 440.66 C 135.34 440.55 137.21 440.47 139.07 440.38 C 139.19 441.59 139.30 442.80 139.41 444.01 L 138.35 443.95 C 138.37 443.31 138.40 442.03 138.41 441.39 L 137.20 441.19 C 137.11 442.08 136.91 443.86 136.81 444.75 C 136.57 443.86 136.08 442.09 135.84 441.21 L 134.86 441.30 C 134.76 442.15 134.55 443.84 134.45 444.68 C 134.09 443.34 133.77 442.01 133.48 440.66 Z" />
<path fill="#fefeff" opacity="1.00" d=" M 141.33 439.52 C 143.14 440.46 142.58 442.63 142.86 444.29 C 141.56 444.26 140.36 443.80 139.44 442.88 C 140.06 442.73 141.29 442.44 141.91 442.29 C 141.76 441.60 141.47 440.21 141.33 439.52 Z" />
<path fill="#fefeff" opacity="1.00" d=" M 110.68 441.18 C 111.21 441.47 112.28 442.04 112.81 442.33 L 111.20 444.35 C 112.04 444.37 113.71 444.41 114.55 444.43 C 113.93 442.81 114.37 441.74 115.86 441.22 C 115.70 441.99 115.38 443.54 115.22 444.31 C 115.90 444.82 117.25 445.84 117.92 446.34 C 114.87 446.38 111.82 446.39 108.77 446.42 C 109.42 445.66 110.06 444.89 110.68 444.11 C 110.68 443.38 110.68 441.91 110.68 441.18 Z" />
<path fill="#fefeff" opacity="1.00" d=" M 131.75 446.01 C 134.65 449.18 132.45 454.08 133.84 457.97 C 133.12 457.39 132.42 456.78 131.76 456.15 C 131.28 452.80 131.58 449.37 131.75 446.01 Z" />
<path fill="#fefeff" opacity="1.00" d=" M 135.58 445.97 C 138.16 448.19 136.39 452.20 136.89 455.18 C 137.25 455.77 137.97 456.94 138.33 457.53 C 137.61 457.27 136.18 456.76 135.47 456.50 C 135.15 453.00 135.27 449.46 135.58 445.97 Z" />
<path fill="#fefeff" opacity="1.00" d=" M 121.91 457.61 C 122.55 453.47 124.07 449.51 126.00 445.81 C 128.14 449.38 129.35 453.39 130.47 457.38 C 129.11 456.89 128.22 455.96 127.81 454.57 C 126.65 454.58 125.50 454.60 124.34 454.64 C 123.87 455.91 123.06 456.90 121.91 457.61 M 125.32 450.51 C 123.86 451.47 125.29 454.22 126.85 452.98 C 128.16 452.03 126.80 449.34 125.32 450.51 Z" />
<path fill="#fefeff" opacity="1.00" d=" M 109.13 447.77 C 110.12 447.64 112.09 447.38 113.07 447.25 C 112.97 447.51 112.76 448.05 112.66 448.32 C 111.60 450.99 110.44 453.63 109.81 456.45 C 108.87 453.65 109.15 450.67 109.13 447.77 Z" />
<path fill="#fefeff" opacity="1.00" d=" M 113.12 447.36 C 114.15 447.41 116.22 447.52 117.25 447.58 C 117.21 450.20 117.74 453.03 116.31 455.41 C 115.68 453.27 114.87 451.19 113.93 449.18 L 113.12 447.36 Z" />
<path fill="#fefeff" opacity="1.00" d=" M 151.85 449.14 L 151.77 447.51 C 152.24 448.08 153.17 449.21 153.64 449.78 C 153.98 449.78 154.66 449.78 155.00 449.78 L 155.02 450.89 L 153.22 450.86 C 153.61 452.75 152.18 455.95 155.00 456.50 C 154.88 456.84 154.65 457.54 154.53 457.89 C 151.64 457.31 151.23 454.52 151.66 451.98 C 151.02 451.44 150.38 450.91 149.73 450.39 C 147.86 452.10 148.22 454.52 148.22 456.76 C 147.82 456.81 147.00 456.92 146.60 456.97 C 146.44 456.19 146.12 454.65 145.96 453.87 C 143.96 453.59 141.92 453.79 139.92 453.88 C 140.79 456.38 143.47 455.87 145.53 455.92 C 143.92 458.41 139.63 457.68 138.80 454.91 C 138.06 453.06 138.99 450.45 141.04 449.97 C 142.98 448.79 144.12 451.42 145.74 451.81 C 146.43 450.81 147.37 450.12 148.59 449.97 C 149.67 449.64 150.75 449.37 151.85 449.14 M 140.73 452.07 C 141.66 453.42 142.54 453.40 143.38 452.00 C 142.46 450.60 141.58 450.63 140.73 452.07 Z" />
<path fill="#fefeff" opacity="1.00" d=" M 156.55 450.49 C 158.84 449.32 162.94 449.64 162.92 452.96 C 163.85 456.14 159.90 458.76 157.32 456.77 C 155.04 455.42 155.71 452.50 156.55 450.49 M 157.61 451.45 C 157.57 452.82 157.55 454.21 157.55 455.60 C 159.36 456.30 161.71 455.67 161.45 453.34 C 161.41 451.10 159.24 451.22 157.61 451.45 Z" />
<path fill="#fefeff" opacity="1.00" d=" M 164.44 449.39 C 164.83 449.59 165.59 449.99 165.97 450.19 C 168.11 449.31 171.15 450.15 170.86 452.95 C 170.68 454.22 171.72 458.30 169.52 457.41 C 169.25 455.39 169.29 453.34 169.19 451.32 C 168.37 451.38 166.73 451.50 165.90 451.56 C 165.60 453.68 166.79 456.65 164.54 457.99 C 164.26 455.13 164.30 452.25 164.44 449.39 Z" />
<path fill="#fefeff" opacity="1.00" d=" M 110.10 458.10 C 111.21 456.37 112.22 454.58 113.16 452.76 C 114.04 454.60 114.91 456.53 116.68 457.70 L 117.01 457.98 C 114.71 458.16 112.40 458.21 110.10 458.10 Z" />
<path fill="#fefeff" opacity="1.00" d=" M 182.33 455.15 C 185.07 453.80 182.52 458.02 182.33 455.15 Z" />
<path fill="#fefeff" opacity="1.00" d=" M 246.99 461.02 C 248.60 460.99 250.37 460.19 251.83 461.18 C 253.17 465.68 252.78 470.51 253.43 475.15 C 256.90 472.76 260.32 470.32 263.90 468.11 C 260.48 470.68 256.90 473.04 253.39 475.49 C 253.74 480.03 254.10 484.56 254.44 489.10 C 252.66 489.33 250.89 489.58 249.12 489.83 C 246.87 490.12 244.62 490.40 242.37 490.69 C 242.47 485.76 243.11 480.80 242.22 475.91 C 241.46 471.28 240.76 466.64 239.75 462.07 C 242.17 461.74 244.58 461.38 246.99 461.02 Z" />
<path fill="#fefeff" opacity="1.00" d=" M 254.49 489.00 C 259.66 488.39 264.82 487.64 269.97 486.90 C 269.48 498.09 273.01 508.83 275.84 519.50 C 270.44 518.57 264.98 517.94 259.49 518.32 C 258.28 511.64 257.23 504.94 256.02 498.26 C 255.67 495.96 255.29 493.67 254.88 491.39 C 254.78 490.80 254.59 489.60 254.49 489.00 Z" />
</g>
<g id="#000000ff">
<path fill="#000000" opacity="1.00" d=" M 126.78 15.85 C 143.69 6.26 164.11 3.21 183.13 7.17 C 198.31 9.72 213.02 17.19 222.54 29.52 C 227.77 36.47 231.40 44.59 233.20 53.09 C 233.74 55.74 235.74 57.72 236.80 60.14 C 239.74 66.52 239.73 74.06 237.57 80.67 C 235.64 84.54 232.36 87.51 229.94 91.07 C 226.45 96.74 221.33 101.15 216.23 105.34 C 214.80 118.44 213.37 131.67 214.62 144.85 C 214.84 147.97 216.37 150.81 216.70 153.90 C 215.08 159.24 210.16 162.76 205.65 165.61 C 201.29 168.60 197.72 162.68 196.80 159.01 C 199.62 153.98 205.04 151.12 208.58 146.65 C 209.12 145.22 209.09 143.64 209.24 142.14 C 210.31 124.43 211.01 106.71 211.67 88.99 C 211.72 86.29 211.72 83.52 210.87 80.92 C 210.44 77.84 207.46 76.39 205.20 74.74 C 193.03 67.08 177.99 66.30 164.03 67.35 C 151.78 68.51 139.49 70.85 128.10 75.62 C 128.79 83.06 129.22 90.66 127.59 98.01 C 126.38 103.58 122.07 107.73 120.25 113.07 C 116.15 124.08 113.02 136.13 115.64 147.87 C 110.34 145.90 106.76 141.20 101.68 138.86 C 101.00 145.96 103.21 152.93 103.05 160.03 C 103.53 168.02 102.45 176.65 106.53 183.92 C 109.82 181.32 109.31 176.72 110.55 173.10 C 112.42 166.75 114.27 159.29 120.41 155.72 C 122.91 153.99 125.37 156.19 127.55 157.34 C 142.80 166.12 158.07 174.89 173.36 183.61 C 174.21 184.24 175.66 184.66 175.63 185.97 C 176.22 193.43 176.41 200.92 176.90 208.39 C 177.43 208.23 178.48 207.91 179.01 207.75 C 179.84 200.69 179.60 193.51 180.48 186.45 C 183.15 182.85 186.19 179.49 189.23 176.20 C 190.73 174.78 191.46 176.80 191.35 178.08 C 191.55 186.33 191.48 194.59 191.64 202.84 C 199.11 206.73 206.38 210.99 213.52 215.46 C 221.60 220.67 229.73 226.01 236.35 233.06 C 240.24 234.89 242.30 238.91 244.28 242.50 C 249.37 252.77 252.27 263.97 254.48 275.18 C 256.63 285.70 256.69 296.54 259.10 307.02 C 264.05 329.20 270.51 351.25 271.48 374.08 C 271.77 380.39 271.56 386.70 271.24 393.00 C 269.90 411.64 270.10 430.37 271.59 448.99 C 271.95 451.33 270.34 453.25 269.38 455.24 C 271.00 456.55 273.22 457.67 273.32 460.06 C 272.81 462.10 271.80 464.00 271.41 466.08 C 271.88 468.04 273.08 469.87 272.85 471.97 C 272.56 479.31 272.34 486.66 272.60 494.01 C 273.37 502.62 276.36 510.81 278.36 519.17 C 279.05 520.80 277.80 522.74 275.94 522.34 C 270.91 522.08 265.93 520.38 260.86 521.26 C 256.91 521.64 253.48 523.95 250.78 526.73 C 249.72 525.98 248.67 525.16 248.29 523.87 C 245.66 517.47 243.11 510.87 242.85 503.88 C 241.27 497.00 239.20 490.02 240.29 482.87 C 240.12 475.08 238.67 467.38 237.12 459.77 C 227.45 466.18 215.18 466.06 204.00 466.03 C 189.04 465.73 174.06 466.38 159.09 466.05 C 148.35 465.69 137.60 466.18 126.87 465.77 C 116.95 464.77 106.95 464.64 97.02 465.58 C 96.40 469.89 98.68 473.62 101.02 476.99 C 104.08 483.28 101.83 490.57 103.47 497.20 C 106.52 510.32 108.85 523.66 110.01 537.08 C 96.34 535.01 83.44 541.48 70.95 546.03 C 69.61 546.86 68.71 544.94 68.53 543.91 C 67.72 536.95 70.24 529.21 66.12 522.92 C 62.49 516.05 55.60 511.99 50.81 506.13 C 45.24 496.75 42.29 485.99 35.97 477.01 L 35.94 477.67 C 33.31 473.92 29.65 470.90 27.77 466.64 C 22.13 454.38 21.96 440.62 19.31 427.61 C 17.41 418.54 10.94 410.57 11.88 400.97 C 12.17 394.64 11.36 388.32 11.69 382.00 C 12.19 371.39 8.77 361.19 6.19 351.07 C 5.37 337.66 8.26 324.38 9.22 311.06 C 9.34 292.21 9.08 272.91 14.58 254.69 C 24.89 232.34 40.53 211.60 62.03 199.02 C 71.95 193.15 83.22 190.11 94.60 188.80 C 91.89 182.11 88.79 173.76 93.07 167.08 C 94.65 164.08 97.05 161.66 98.99 158.91 C 100.42 157.02 99.33 154.67 98.34 152.87 C 95.94 148.65 95.51 143.53 96.34 138.82 C 96.85 135.37 100.65 134.12 102.29 131.35 C 104.83 127.28 106.36 122.68 107.74 118.11 C 104.02 115.59 103.16 110.81 99.86 107.99 C 95.27 89.01 93.68 68.66 99.80 49.83 C 104.02 35.61 113.81 23.11 126.78 15.85 M 160.26 7.21 L 160.20 7.56 C 153.88 8.33 147.63 9.59 141.56 11.51 L 141.32 12.10 C 138.68 12.54 136.09 13.26 133.61 14.27 L 133.25 14.83 C 129.07 16.78 124.74 18.71 121.28 21.82 C 114.58 26.91 109.18 33.60 105.50 41.16 L 104.84 41.50 C 104.68 42.09 104.54 42.68 104.44 43.28 C 101.66 49.83 99.60 56.74 98.86 63.83 C 97.01 73.01 98.53 82.53 98.46 91.84 C 100.17 84.93 104.20 78.92 109.27 74.02 C 113.62 69.86 118.59 66.41 123.62 63.13 L 123.26 61.84 C 123.37 62.21 123.58 62.95 123.69 63.33 C 128.74 60.11 134.42 58.20 139.96 56.04 C 146.11 52.28 151.96 47.92 158.90 45.65 L 158.88 45.30 C 165.00 43.68 171.06 41.79 177.34 40.89 C 179.81 40.65 182.29 40.40 184.77 40.24 C 187.50 40.69 190.27 40.79 193.03 40.64 C 200.38 40.17 207.65 41.94 214.70 43.83 C 220.16 45.62 225.46 48.06 230.01 51.63 C 229.19 47.92 227.84 44.35 226.37 40.85 L 225.89 40.70 C 225.07 38.17 224.03 35.70 222.46 33.54 C 219.86 29.98 217.45 25.96 213.35 23.96 C 212.67 21.89 210.57 20.72 208.50 20.49 C 205.51 16.37 200.40 14.87 195.95 12.90 C 190.37 10.76 184.53 9.37 178.64 8.41 C 172.55 7.59 166.40 7.30 160.26 7.21 M 162.60 46.47 C 158.39 47.91 154.10 49.38 150.52 52.11 C 157.04 51.73 163.44 50.14 169.99 50.05 C 187.06 49.20 205.01 52.68 218.81 63.25 C 225.51 68.05 231.02 75.27 231.47 83.77 C 239.47 74.86 236.61 59.65 227.45 52.60 C 219.75 46.98 210.35 44.25 201.00 42.99 C 188.15 41.16 174.91 42.41 162.60 46.47 M 103.60 89.95 C 100.08 99.14 104.39 108.62 107.61 117.22 C 110.88 108.87 114.90 100.85 118.76 92.76 C 120.68 89.27 118.17 84.12 114.07 83.87 C 109.90 83.64 104.26 85.07 103.60 89.95 M 115.62 164.69 C 112.06 171.26 111.84 178.97 108.55 185.65 C 113.29 191.81 118.87 197.44 122.68 204.28 C 124.44 207.11 123.18 211.83 126.64 213.39 C 130.81 214.20 135.18 213.80 139.28 215.14 C 138.36 218.58 134.71 219.67 131.70 220.60 C 128.68 221.35 125.22 222.34 122.29 220.73 C 118.72 216.86 119.84 209.87 114.68 207.30 C 107.27 203.03 99.89 197.86 95.77 190.13 C 90.83 192.00 85.54 192.39 80.45 193.63 C 62.52 198.33 47.14 210.18 35.49 224.31 C 33.17 227.27 30.50 230.08 29.22 233.69 C 27.34 235.52 26.20 237.95 24.79 240.13 C 32.69 233.05 41.34 226.53 50.95 221.93 C 54.35 220.07 58.25 220.91 61.57 222.48 C 76.13 232.21 90.40 242.56 102.81 255.00 C 105.49 258.33 108.97 261.48 109.80 265.87 C 109.86 268.96 108.50 271.85 108.16 274.90 C 107.34 281.23 106.83 287.66 107.31 294.04 C 107.60 299.09 109.49 303.94 109.30 309.04 C 109.07 321.18 105.88 332.99 104.90 345.05 C 104.37 351.15 99.34 355.49 94.81 358.99 C 93.24 360.40 90.88 361.57 90.72 363.94 C 91.44 369.64 95.60 374.29 96.08 380.06 C 96.65 383.68 94.74 387.02 94.45 390.55 C 91.82 393.85 89.22 397.18 86.65 400.53 C 84.11 403.75 88.02 406.86 89.68 409.41 L 89.48 409.70 C 95.06 414.58 98.32 421.72 99.21 429.01 C 100.70 440.30 98.92 451.66 97.33 462.83 C 105.90 462.20 114.51 461.96 123.09 462.63 C 132.71 463.65 142.41 463.11 152.07 463.24 C 167.89 463.45 183.72 463.56 199.53 462.98 C 199.90 462.95 200.65 462.89 201.03 462.86 C 202.01 460.69 201.47 458.29 201.40 456.01 C 201.05 451.63 201.63 447.26 202.23 442.94 C 202.29 442.24 202.42 440.83 202.48 440.13 C 203.08 428.45 200.66 416.83 197.45 405.66 C 194.98 393.90 193.68 381.92 192.73 369.95 C 192.27 365.89 192.27 361.74 191.12 357.80 C 189.43 339.92 187.73 322.00 187.65 304.02 C 187.96 290.19 186.21 276.42 184.50 262.72 C 182.40 245.51 179.80 228.33 176.84 211.23 C 176.01 210.72 175.19 210.21 174.37 209.70 C 174.07 202.59 173.79 195.48 173.42 188.37 C 173.47 186.79 172.27 185.72 170.99 185.05 C 157.81 177.59 144.68 170.05 131.59 162.45 C 128.74 160.85 126.03 158.96 122.98 157.77 C 119.28 158.18 117.09 161.62 115.62 164.69 M 182.87 187.10 C 181.00 195.25 183.15 204.03 179.83 211.87 C 180.04 218.06 181.65 224.14 182.84 230.20 C 183.76 239.97 185.36 249.67 186.48 259.43 C 186.60 264.57 187.92 269.60 188.44 274.71 C 189.25 282.47 190.03 290.25 190.18 298.06 C 189.89 318.38 191.78 338.66 193.76 358.87 C 195.21 370.17 195.62 381.57 197.28 392.84 C 199.69 408.25 205.91 423.20 204.73 439.04 C 204.07 444.41 203.44 449.86 204.10 455.27 L 203.62 455.96 C 203.09 458.41 203.60 460.86 204.41 463.19 C 213.17 463.09 222.35 463.17 230.54 459.63 C 233.78 459.69 236.28 457.19 237.32 454.30 C 240.27 446.79 237.84 438.71 238.37 430.94 C 238.75 424.90 239.35 418.88 239.70 412.84 C 241.04 397.21 242.82 381.60 244.14 365.95 C 244.60 359.51 246.21 353.24 247.12 346.87 C 248.81 341.69 248.76 336.10 249.60 330.74 C 251.16 319.54 250.71 308.21 250.53 296.94 C 248.55 280.67 246.47 264.05 240.14 248.80 C 238.51 242.98 235.83 237.40 232.21 232.56 C 230.65 229.95 227.85 228.34 225.59 226.38 C 215.13 218.52 203.89 211.72 192.22 205.84 C 191.18 205.25 190.15 204.66 189.12 204.07 C 188.64 196.27 188.89 188.45 188.64 180.64 C 186.37 182.43 184.01 184.36 182.87 187.10 M 50.38 225.35 C 43.63 229.04 37.24 233.42 31.47 238.52 L 31.44 238.84 C 26.42 242.31 22.81 247.38 19.19 252.19 C 16.55 255.59 15.76 259.86 14.92 263.97 C 12.13 276.85 11.83 290.11 11.64 303.25 C 12.31 316.05 9.14 328.63 8.93 341.40 L 8.64 341.37 C 8.50 345.57 8.16 349.89 9.48 353.96 C 11.72 361.09 13.15 368.46 14.08 375.87 C 13.91 381.81 13.92 387.84 15.21 393.67 C 14.86 397.71 14.41 401.76 14.56 405.82 C 15.00 409.95 17.10 413.63 18.65 417.41 C 25.46 432.48 23.33 449.87 29.99 465.00 C 31.75 468.53 33.69 472.18 36.84 474.68 C 44.25 482.37 46.77 493.10 51.47 502.40 C 53.41 506.59 57.03 509.78 60.85 512.23 C 64.56 516.91 69.14 521.36 70.52 527.38 C 71.37 532.61 70.67 537.94 70.94 543.22 C 73.81 542.17 76.66 541.07 79.51 539.95 C 88.47 536.81 97.79 533.60 107.43 534.36 C 106.28 525.91 105.10 517.46 103.52 509.08 L 103.26 509.10 C 102.70 504.99 101.49 501.02 100.81 496.94 C 99.89 491.34 100.79 485.57 99.54 480.02 C 98.46 477.09 96.51 474.58 94.86 471.96 C 94.10 469.37 94.54 466.66 94.64 464.03 C 95.72 452.83 97.99 441.59 96.58 430.31 L 96.22 430.34 C 96.20 426.28 95.04 422.32 92.63 419.05 C 90.08 414.22 85.73 410.66 83.27 405.82 C 81.10 400.25 87.15 396.82 89.39 392.50 C 90.47 391.68 90.57 390.13 91.16 388.99 L 91.73 388.97 C 92.62 385.71 93.86 382.28 92.82 378.91 C 91.21 373.88 87.93 369.38 87.47 364.00 C 87.37 361.22 89.72 359.25 91.64 357.60 C 95.04 354.91 98.48 352.16 100.72 348.37 L 101.16 348.45 C 101.14 348.13 101.08 347.49 101.05 347.17 C 102.30 341.15 102.60 334.99 103.67 328.95 C 104.90 321.78 105.86 314.55 106.23 307.28 C 105.64 303.19 104.26 299.23 104.08 295.09 C 103.86 286.66 103.65 278.10 105.83 269.87 C 106.24 267.78 106.72 265.47 105.32 263.62 C 100.48 256.00 93.20 250.43 86.45 244.60 C 82.09 241.12 77.88 237.35 72.92 234.72 L 72.96 234.23 C 68.02 230.71 63.03 227.22 57.64 224.41 C 55.28 222.95 52.59 224.28 50.38 225.35 M 244.20 249.90 C 244.93 254.44 246.60 258.74 247.63 263.21 C 252.34 281.62 254.11 300.70 253.30 319.67 C 253.03 328.88 251.82 338.04 250.15 347.09 C 249.17 353.15 247.48 359.11 247.10 365.27 L 246.69 365.82 C 246.31 368.58 246.15 371.36 246.03 374.15 C 245.91 378.05 245.69 381.95 245.55 385.85 L 245.83 385.52 C 244.65 386.66 244.83 388.46 244.52 389.95 C 244.03 394.65 243.40 399.35 243.20 404.08 C 242.55 413.14 241.38 422.15 240.92 431.22 C 240.85 438.87 242.51 446.56 241.07 454.17 C 239.71 456.59 239.32 459.33 239.75 462.07 C 240.76 466.64 241.46 471.28 242.22 475.91 C 242.61 483.40 241.11 491.09 244.01 498.29 C 245.08 502.10 245.47 506.05 246.16 509.95 C 247.14 514.28 248.75 518.45 250.61 522.48 C 253.41 520.76 256.36 519.31 259.49 518.32 C 264.98 517.94 270.44 518.57 275.84 519.50 C 273.01 508.83 269.48 498.09 269.97 486.90 C 269.71 480.57 271.08 474.08 269.29 467.88 C 268.42 464.85 269.79 461.80 270.18 458.81 L 269.35 458.92 C 268.29 457.79 266.66 456.80 266.76 455.04 C 267.38 453.02 269.14 451.30 268.83 449.07 C 268.45 442.14 267.88 435.22 267.76 428.28 C 267.61 418.75 267.67 409.23 268.04 399.71 C 268.90 390.68 269.13 381.57 268.71 372.51 C 268.13 363.60 266.88 354.74 265.00 346.02 C 263.51 337.56 261.62 329.14 259.18 320.92 C 256.56 309.07 254.02 297.17 253.04 285.04 C 251.38 273.09 249.03 261.00 244.20 249.90 Z" />
</g>
<g id="#1b232aff">
<path fill="#1b232a" opacity="1.00" d=" M 160.26 7.21 C 166.40 7.30 172.55 7.59 178.64 8.41 C 177.99 11.49 178.05 14.83 176.70 17.69 C 170.89 19.52 164.55 19.09 158.53 19.99 C 158.49 25.84 158.51 31.70 158.51 37.55 C 164.76 36.34 171.08 35.65 177.40 34.94 C 177.38 36.92 177.36 38.90 177.34 40.89 C 171.06 41.79 165.00 43.68 158.88 45.30 C 158.76 42.75 158.62 40.19 158.48 37.64 C 152.12 39.04 145.81 40.71 139.67 42.92 C 139.44 43.18 138.97 43.71 138.73 43.97 C 138.01 48.03 139.33 52.06 139.96 56.04 C 134.42 58.20 128.74 60.11 123.69 63.33 C 123.58 62.95 123.37 62.21 123.26 61.84 C 122.59 58.70 121.29 55.37 122.09 52.17 C 126.69 48.30 132.56 46.52 137.80 43.73 C 138.91 37.58 137.92 31.15 138.36 24.89 C 132.32 26.96 126.12 29.04 120.91 32.81 C 119.44 39.10 121.81 45.61 120.93 51.81 C 118.99 53.41 116.80 54.64 114.64 55.89 C 110.76 48.46 116.14 41.19 117.94 34.09 C 118.78 33.69 119.63 33.29 120.49 32.90 C 120.75 31.76 121.03 30.61 121.25 29.46 C 125.61 24.90 129.72 20.06 133.25 14.83 L 133.61 14.27 C 136.09 13.26 138.68 12.54 141.32 12.10 C 139.47 16.09 138.62 20.43 137.96 24.75 C 144.52 22.48 151.37 21.25 158.22 20.24 C 158.76 15.99 159.41 11.77 160.20 7.56 L 160.26 7.21 Z" />
<path fill="#1b232a" opacity="1.00" d=" M 195.95 12.90 C 200.40 14.87 205.51 16.37 208.50 20.49 C 204.63 20.06 200.73 19.77 196.94 18.83 C 196.50 19.21 196.07 19.59 195.64 19.98 C 195.86 24.96 195.79 29.95 195.78 34.93 C 202.02 35.32 208.24 36.01 214.43 36.91 C 214.45 32.57 214.22 28.22 213.35 23.96 C 217.45 25.96 219.86 29.98 222.46 33.54 C 224.03 35.70 225.07 38.17 225.89 40.70 C 222.10 39.49 218.38 38.14 214.65 36.78 C 214.67 39.13 214.68 41.48 214.70 43.83 C 207.65 41.94 200.38 40.17 193.03 40.64 C 190.27 40.79 187.50 40.69 184.77 40.24 C 188.43 39.93 192.10 40.03 195.77 40.22 C 195.69 38.30 195.62 36.39 195.54 34.47 C 189.57 34.58 183.60 34.79 177.63 34.92 C 178.06 29.42 176.53 23.55 178.66 18.33 C 184.38 18.69 190.15 19.15 195.88 18.65 C 195.89 16.73 195.92 14.82 195.95 12.90 Z" />
<path fill="#1b232a" opacity="1.00" d=" M 162.60 46.47 C 174.91 42.41 188.15 41.16 201.00 42.99 C 210.35 44.25 219.75 46.98 227.45 52.60 C 236.61 59.65 239.47 74.86 231.47 83.77 C 231.02 75.27 225.51 68.05 218.81 63.25 C 205.01 52.68 187.06 49.20 169.99 50.05 C 163.44 50.14 157.04 51.73 150.52 52.11 C 154.10 49.38 158.39 47.91 162.60 46.47 Z" />
<path fill="#1b232a" opacity="1.00" d=" M 115.62 164.69 C 117.09 161.62 119.28 158.18 122.98 157.77 C 126.03 158.96 128.74 160.85 131.59 162.45 C 144.68 170.05 157.81 177.59 170.99 185.05 C 172.27 185.72 173.47 186.79 173.42 188.37 C 173.79 195.48 174.07 202.59 174.37 209.70 C 175.19 210.21 176.01 210.72 176.84 211.23 C 179.80 228.33 182.40 245.51 184.50 262.72 C 185.14 288.47 186.34 314.22 187.59 339.95 C 187.79 347.11 189.70 354.04 190.68 361.10 C 190.79 360.27 191.01 358.62 191.12 357.80 C 192.27 361.74 192.27 365.89 192.73 369.95 C 193.68 381.92 194.98 393.90 197.45 405.66 C 200.66 416.83 203.08 428.45 202.48 440.13 C 196.95 437.48 191.49 434.69 185.98 432.02 C 179.50 428.78 172.53 425.98 167.60 420.45 C 157.99 410.22 148.67 399.42 142.06 386.97 C 135.13 372.09 121.58 362.03 112.16 348.92 C 110.15 346.12 107.00 343.15 108.36 339.35 C 110.75 329.70 114.94 320.19 114.23 310.03 C 112.90 302.81 110.01 295.99 108.29 288.86 C 107.32 284.48 108.71 280.05 109.85 275.85 C 111.45 270.11 116.42 266.42 120.00 261.98 C 121.81 260.07 120.61 257.28 119.92 255.15 C 118.23 251.16 116.39 246.83 112.74 244.25 C 107.79 245.76 105.67 251.15 102.81 255.00 C 90.40 242.56 76.13 232.21 61.57 222.48 C 61.28 219.92 60.78 217.40 60.44 214.86 C 59.81 212.21 61.58 209.90 62.55 207.59 C 59.49 209.63 57.43 212.64 56.08 216.01 C 54.32 220.45 49.31 221.71 45.38 223.53 C 39.40 225.89 34.59 230.28 29.22 233.69 C 30.50 230.08 33.17 227.27 35.49 224.31 C 47.14 210.18 62.52 198.33 80.45 193.63 C 85.54 192.39 90.83 192.00 95.77 190.13 C 99.89 197.86 107.27 203.03 114.68 207.30 C 119.84 209.87 118.72 216.86 122.29 220.73 C 125.22 222.34 128.68 221.35 131.70 220.60 C 134.71 219.67 138.36 218.58 139.28 215.14 C 135.18 213.80 130.81 214.20 126.64 213.39 C 123.18 211.83 124.44 207.11 122.68 204.28 C 118.87 197.44 113.29 191.81 108.55 185.65 C 111.84 178.97 112.06 171.26 115.62 164.69 M 122.68 171.95 C 126.17 174.83 130.43 176.48 134.41 178.57 C 141.71 182.02 148.73 186.17 156.33 188.97 C 152.69 186.28 148.49 184.56 144.54 182.40 C 137.29 178.86 130.33 174.59 122.68 171.95 M 146.97 175.93 C 149.75 178.40 152.77 180.61 156.14 182.21 C 153.46 179.62 150.40 177.42 146.97 175.93 M 133.69 285.68 C 133.05 293.49 132.36 301.30 131.51 309.09 C 130.78 314.85 132.67 320.45 134.24 325.91 C 136.94 334.54 139.68 343.21 143.59 351.39 C 145.80 355.93 146.56 361.00 146.35 366.02 C 146.18 370.64 147.03 376.32 151.87 378.31 C 154.36 371.80 151.36 364.90 149.20 358.73 C 144.89 347.98 141.57 336.84 136.57 326.38 C 134.54 321.90 133.32 316.89 134.17 311.98 C 135.66 303.04 137.05 293.96 136.14 284.89 C 135.53 285.09 134.30 285.48 133.69 285.68 Z" />
<path fill="#1b232a" opacity="1.00" d=" M 182.87 187.10 C 184.01 184.36 186.37 182.43 188.64 180.64 C 188.89 188.45 188.64 196.27 189.12 204.07 C 187.01 206.25 184.12 208.02 183.04 210.95 C 185.28 215.30 189.80 218.07 192.85 221.90 C 192.24 216.56 192.11 211.20 192.22 205.84 C 203.89 211.72 215.13 218.52 225.59 226.38 C 227.85 228.34 230.65 229.95 232.21 232.56 C 233.64 239.01 236.44 245.23 236.40 251.95 C 236.40 261.32 237.24 270.66 237.52 280.03 C 237.57 283.13 238.29 286.18 239.31 289.11 C 239.96 275.68 240.56 262.24 240.14 248.80 C 246.47 264.05 248.55 280.67 250.53 296.94 C 250.71 308.21 251.16 319.54 249.60 330.74 C 248.76 336.10 248.81 341.69 247.12 346.87 C 245.50 350.12 243.63 353.35 243.05 356.99 C 242.44 360.98 243.54 364.99 243.20 368.99 C 242.73 371.77 240.90 374.05 239.44 376.39 C 232.67 386.31 226.16 396.41 219.26 406.24 C 217.88 408.24 216.69 410.36 215.63 412.54 C 217.18 411.17 218.71 409.74 219.89 408.03 C 225.48 399.30 232.21 391.23 240.17 384.57 C 237.98 403.45 229.96 421.26 229.32 440.37 C 232.12 435.66 231.93 429.96 233.76 424.90 C 234.90 420.50 237.47 416.73 239.70 412.84 C 239.35 418.88 238.75 424.90 238.37 430.94 C 237.84 438.71 240.27 446.79 237.32 454.30 C 236.28 457.19 233.78 459.69 230.54 459.63 C 227.02 459.96 223.56 460.81 220.02 460.95 C 215.64 461.06 211.65 458.98 207.71 457.36 C 206.62 459.30 205.52 461.25 204.41 463.19 C 203.60 460.86 203.09 458.41 203.62 455.96 C 203.77 456.84 204.07 458.61 204.22 459.50 C 206.50 456.40 209.32 453.22 209.54 449.19 C 209.24 446.46 207.63 443.55 205.12 442.32 C 204.64 444.41 206.06 446.28 206.47 448.26 C 207.42 450.87 205.40 453.20 204.10 455.27 C 203.44 449.86 204.07 444.41 204.73 439.04 C 205.91 423.20 199.69 408.25 197.28 392.84 C 195.62 381.57 195.21 370.17 193.76 358.87 C 191.78 338.66 189.89 318.38 190.18 298.06 C 190.03 290.25 189.25 282.47 188.44 274.71 C 187.92 269.60 186.60 264.57 186.48 259.43 C 187.06 250.63 186.13 241.85 185.35 233.10 C 185.12 230.18 184.44 227.32 183.35 224.61 C 183.13 226.47 182.93 228.33 182.84 230.20 C 181.65 224.14 180.04 218.06 179.83 211.87 C 183.15 204.03 181.00 195.25 182.87 187.10 M 204.77 422.70 C 208.55 428.39 214.11 432.81 217.02 439.09 C 217.81 441.19 217.73 443.50 218.33 445.66 C 220.11 448.82 224.04 450.50 227.50 449.13 C 224.88 446.53 221.26 444.82 219.62 441.35 C 217.72 437.70 215.60 434.16 213.08 430.91 C 210.68 427.84 208.42 424.40 204.77 422.70 Z" />
<path fill="#1b232a" opacity="1.00" d=" M 72.92 234.72 C 77.88 237.35 82.09 241.12 86.45 244.60 C 93.20 250.43 100.48 256.00 105.32 263.62 C 106.72 265.47 106.24 267.78 105.83 269.87 C 94.09 269.01 82.38 267.87 70.65 266.88 C 69.80 279.77 69.36 292.67 68.33 305.54 C 71.17 306.15 74.09 306.18 76.98 306.27 C 86.73 306.54 96.47 307.00 106.23 307.28 C 105.86 314.55 104.90 321.78 103.67 328.95 C 102.60 334.99 102.30 341.15 101.05 347.17 C 99.69 347.15 98.34 347.14 96.98 347.14 C 97.27 346.01 97.56 344.88 97.85 343.76 C 94.16 345.72 90.21 347.52 85.91 347.10 C 79.87 346.85 73.84 346.29 67.79 346.41 C 67.43 333.12 68.34 319.82 68.78 306.53 C 66.93 305.97 65.01 305.66 63.08 305.57 C 50.61 304.81 38.14 304.05 25.68 303.26 C 26.67 290.24 27.65 277.22 28.61 264.19 C 42.60 265.07 56.60 265.97 70.59 266.85 C 71.43 256.15 72.08 245.43 72.92 234.72 Z" />
<path fill="#1b232a" opacity="1.00" d=" M 19.19 252.19 C 22.81 247.38 26.42 242.31 31.44 238.84 C 30.49 247.27 29.63 255.72 28.60 264.15 C 24.04 264.16 19.48 264.04 14.92 263.97 C 15.76 259.86 16.55 255.59 19.19 252.19 Z" />
<path fill="#1b232a" opacity="1.00" d=" M 244.20 249.90 C 249.03 261.00 251.38 273.09 253.04 285.04 C 254.02 297.17 256.56 309.07 259.18 320.92 C 257.23 320.45 255.26 320.07 253.30 319.67 C 254.11 300.70 252.34 281.62 247.63 263.21 C 246.60 258.74 244.93 254.44 244.20 249.90 Z" />
<path fill="#1b232a" opacity="1.00" d=" M 11.64 303.25 C 16.31 303.25 20.98 303.26 25.65 303.22 C 25.55 311.12 25.29 319.01 25.17 326.91 C 22.25 326.03 19.31 325.22 16.34 324.55 C 16.57 325.95 16.86 327.33 17.23 328.71 C 19.24 330.96 22.35 331.68 25.01 332.91 C 24.89 336.28 24.82 339.65 24.75 343.03 C 29.44 343.38 34.14 343.63 38.83 344.00 C 44.94 344.97 48.41 350.59 53.03 354.08 C 52.08 350.98 51.06 347.91 50.00 344.84 C 52.13 345.02 54.25 345.23 56.38 345.39 C 59.31 353.22 65.02 359.87 66.72 368.16 C 66.81 375.53 65.85 382.94 66.78 390.28 C 74.88 389.50 83.04 389.43 91.16 388.99 C 90.57 390.13 90.47 391.68 89.39 392.50 C 83.89 395.68 78.53 399.71 75.33 405.30 C 73.74 409.16 77.28 412.72 79.49 415.57 C 82.06 418.33 85.04 421.41 89.00 421.80 C 90.65 421.82 91.43 419.90 92.63 419.05 C 95.04 422.32 96.20 426.28 96.22 430.34 C 94.83 430.43 93.45 430.51 92.07 430.65 C 86.99 427.86 79.29 427.56 75.54 432.67 C 72.52 433.07 69.51 433.48 66.48 433.83 C 66.44 436.44 66.41 439.06 66.41 441.69 C 59.68 448.10 52.91 454.51 46.60 461.34 C 53.88 458.68 59.75 453.42 66.45 449.66 C 66.24 458.02 66.76 466.41 66.07 474.75 C 55.93 474.91 45.81 473.68 35.67 473.43 L 36.84 474.68 C 33.69 472.18 31.75 468.53 29.99 465.00 C 23.33 449.87 25.46 432.48 18.65 417.41 C 17.10 413.63 15.00 409.95 14.56 405.82 C 14.41 401.76 14.86 397.71 15.21 393.67 C 16.09 396.97 17.44 400.12 18.89 403.22 C 20.69 402.71 22.49 402.21 24.29 401.72 C 24.57 411.31 24.29 420.94 24.96 430.52 C 38.74 431.88 52.58 432.63 66.39 433.81 C 66.60 419.40 66.18 404.99 66.61 390.60 C 64.21 389.59 61.59 389.42 59.02 389.20 C 47.40 388.25 35.79 387.22 24.18 386.21 L 24.18 386.01 C 24.50 371.66 24.53 357.31 24.75 342.96 C 19.47 342.50 14.20 341.94 8.93 341.40 C 9.14 328.63 12.31 316.05 11.64 303.25 M 58.40 371.41 C 57.80 372.92 58.00 374.58 57.89 376.17 C 60.56 374.72 63.30 373.36 66.26 372.61 C 66.26 371.32 66.25 370.03 66.24 368.75 C 63.60 369.57 60.89 370.20 58.40 371.41 Z" />
<path fill="#1b232a" opacity="1.00" d=" M 250.15 347.09 C 255.09 346.72 260.04 346.38 265.00 346.02 C 266.88 354.74 268.13 363.60 268.71 372.51 C 267.27 372.61 265.84 372.72 264.41 372.84 C 264.31 372.32 264.11 371.27 264.01 370.75 C 263.91 371.24 263.73 372.22 263.63 372.71 C 257.78 373.42 251.90 373.73 246.03 374.15 C 246.15 371.36 246.31 368.58 246.69 365.82 C 246.76 366.37 246.91 367.46 246.98 368.01 C 251.38 364.09 255.39 359.75 259.73 355.76 C 261.66 354.02 263.27 351.94 264.54 349.67 C 257.73 353.64 253.09 360.27 247.10 365.27 C 247.48 359.11 249.17 353.15 250.15 347.09 Z" />
<path fill="#1b232a" opacity="1.00" d=" M 105.76 352.66 C 108.90 351.39 111.76 354.05 113.88 356.03 C 120.68 363.01 126.54 370.84 132.39 378.62 C 140.56 390.05 149.10 401.43 154.81 414.34 C 157.29 419.01 161.87 421.99 166.06 424.98 C 173.76 430.01 181.84 434.64 190.64 437.49 C 194.70 438.84 198.53 440.79 202.23 442.94 C 201.63 447.26 201.05 451.63 201.40 456.01 C 201.47 458.29 202.01 460.69 201.03 462.86 C 201.58 461.65 201.37 460.84 200.40 460.43 C 199.50 461.03 199.21 461.88 199.53 462.98 C 183.72 463.56 167.89 463.45 152.07 463.24 C 142.41 463.11 132.71 463.65 123.09 462.63 C 114.51 461.96 105.90 462.20 97.33 462.83 C 98.92 451.66 100.70 440.30 99.21 429.01 C 98.32 421.72 95.06 414.58 89.48 409.70 L 89.68 409.41 C 89.87 409.13 90.26 408.57 90.45 408.28 C 90.29 405.01 89.19 401.24 91.50 398.46 C 93.28 396.16 94.78 393.58 94.45 390.55 C 94.74 387.02 96.65 383.68 96.08 380.06 C 95.60 374.29 91.44 369.64 90.72 363.94 C 90.88 361.57 93.24 360.40 94.81 358.99 C 100.27 365.28 106.83 370.48 113.25 375.75 C 118.09 379.55 122.88 383.56 128.57 386.06 C 127.75 384.11 126.92 382.11 125.41 380.59 C 119.32 374.26 112.30 368.93 105.22 363.77 C 101.29 361.38 101.99 354.81 105.76 352.66 M 101.75 385.56 C 105.58 390.43 110.98 393.75 116.06 397.16 C 111.77 392.77 106.83 388.99 101.75 385.56 M 98.98 407.91 C 101.43 415.39 106.46 421.64 110.96 427.98 C 113.56 431.30 115.89 434.95 119.40 437.40 C 117.98 433.53 115.48 430.23 113.16 426.88 C 108.54 420.48 104.19 413.85 98.98 407.91 M 130.93 407.93 C 137.61 414.02 145.19 419.03 152.44 424.40 C 156.28 427.00 160.05 429.88 164.56 431.23 C 160.95 427.11 155.95 424.64 151.59 421.45 C 144.68 416.97 138.02 412.11 130.93 407.93 M 132.59 444.72 C 132.81 442.62 132.81 440.52 132.63 438.43 C 131.28 440.25 131.54 442.81 132.59 444.72 M 154.87 438.91 C 153.83 440.64 154.22 442.51 154.88 444.29 C 156.55 443.93 159.18 444.90 159.74 442.64 C 160.46 441.44 159.28 440.16 159.11 438.95 C 157.69 438.94 156.28 438.93 154.87 438.91 M 161.44 440.79 C 162.24 440.57 163.85 440.13 164.65 439.91 C 163.80 441.28 162.85 442.59 161.85 443.86 C 162.53 443.88 163.90 443.92 164.58 443.94 C 164.62 442.25 164.73 440.55 164.76 438.87 C 163.55 439.31 162.34 439.82 161.44 440.79 M 166.01 443.60 C 166.80 443.65 168.36 443.75 169.14 443.80 C 169.17 442.97 169.24 441.31 169.27 440.49 C 169.88 440.62 171.09 440.89 171.69 441.03 C 171.59 441.72 171.39 443.10 171.29 443.79 C 171.62 443.80 172.27 443.81 172.60 443.82 C 172.49 442.00 172.44 440.17 171.94 438.41 L 171.69 439.87 C 170.53 440.04 169.37 440.20 168.21 440.35 L 168.84 438.68 C 165.73 438.67 166.20 441.49 166.01 443.60 M 174.26 439.56 C 174.10 441.43 174.11 443.43 175.57 444.82 C 175.90 444.37 176.56 443.47 176.89 443.02 C 176.47 443.10 175.62 443.26 175.20 443.34 L 175.34 441.87 C 175.71 441.83 176.45 441.76 176.83 441.73 C 176.22 441.06 175.53 440.49 174.76 440.03 C 175.28 439.97 176.33 439.86 176.85 439.81 L 176.79 438.94 C 176.16 439.10 174.89 439.41 174.26 439.56 M 133.48 440.66 C 133.77 442.01 134.09 443.34 134.45 444.68 C 134.55 443.84 134.76 442.15 134.86 441.30 L 135.84 441.21 C 136.08 442.09 136.57 443.86 136.81 444.75 C 136.91 443.86 137.11 442.08 137.20 441.19 L 138.41 441.39 C 138.40 442.03 138.37 443.31 138.35 443.95 L 139.41 444.01 C 139.30 442.80 139.19 441.59 139.07 440.38 C 137.21 440.47 135.34 440.55 133.48 440.66 M 141.33 439.52 C 141.47 440.21 141.76 441.60 141.91 442.29 C 141.29 442.44 140.06 442.73 139.44 442.88 C 140.36 443.80 141.56 444.26 142.86 444.29 C 142.58 442.63 143.14 440.46 141.33 439.52 M 142.89 441.71 C 141.88 445.01 146.27 443.71 147.91 445.03 C 147.98 444.63 148.13 443.83 148.20 443.42 C 149.02 443.91 149.83 444.42 150.68 444.85 C 152.76 444.18 152.20 441.79 151.82 440.18 C 150.73 440.09 149.65 440.09 148.56 440.18 C 146.48 439.89 144.23 439.73 142.89 441.71 M 107.81 441.45 C 107.93 442.96 108.05 444.48 108.16 446.01 C 106.32 450.09 106.57 454.81 107.83 459.02 C 111.59 460.39 115.66 460.56 119.08 458.21 C 119.01 454.66 119.12 451.11 118.87 447.57 C 117.49 445.69 118.64 443.50 119.02 441.53 C 117.50 442.07 116.24 443.07 115.22 444.31 C 115.38 443.54 115.70 441.99 115.86 441.22 C 114.37 441.74 113.93 442.81 114.55 444.43 C 113.71 444.41 112.04 444.37 111.20 444.35 L 112.81 442.33 C 112.28 442.04 111.21 441.47 110.68 441.18 C 110.68 441.91 110.68 443.38 110.68 444.11 C 109.73 443.22 108.77 442.32 107.81 441.45 M 145.51 445.27 C 145.74 445.53 145.74 445.53 145.51 445.27 M 131.75 446.01 C 131.58 449.37 131.28 452.80 131.76 456.15 C 132.42 456.78 133.12 457.39 133.84 457.97 C 132.45 454.08 134.65 449.18 131.75 446.01 M 135.58 445.97 C 135.27 449.46 135.15 453.00 135.47 456.50 C 136.18 456.76 137.61 457.27 138.33 457.53 C 137.97 456.94 137.25 455.77 136.89 455.18 C 136.39 452.20 138.16 448.19 135.58 445.97 M 121.91 457.61 C 123.06 456.90 123.87 455.91 124.34 454.64 C 125.50 454.60 126.65 454.58 127.81 454.57 C 128.22 455.96 129.11 456.89 130.47 457.38 C 129.35 453.39 128.14 449.38 126.00 445.81 C 124.07 449.51 122.55 453.47 121.91 457.61 M 151.85 449.14 C 150.75 449.37 149.67 449.64 148.59 449.97 C 147.37 450.12 146.43 450.81 145.74 451.81 C 144.12 451.42 142.98 448.79 141.04 449.97 C 138.99 450.45 138.06 453.06 138.80 454.91 C 139.63 457.68 143.92 458.41 145.53 455.92 C 143.47 455.87 140.79 456.38 139.92 453.88 C 141.92 453.79 143.96 453.59 145.96 453.87 C 146.12 454.65 146.44 456.19 146.60 456.97 C 147.00 456.92 147.82 456.81 148.22 456.76 C 148.22 454.52 147.86 452.10 149.73 450.39 C 150.38 450.91 151.02 451.44 151.66 451.98 C 151.23 454.52 151.64 457.31 154.53 457.89 C 154.65 457.54 154.88 456.84 155.00 456.50 C 152.18 455.95 153.61 452.75 153.22 450.86 L 155.02 450.89 L 155.00 449.78 C 154.66 449.78 153.98 449.78 153.64 449.78 C 153.17 449.21 152.24 448.08 151.77 447.51 L 151.85 449.14 M 156.55 450.49 C 155.71 452.50 155.04 455.42 157.32 456.77 C 159.90 458.76 163.85 456.14 162.92 452.96 C 162.94 449.64 158.84 449.32 156.55 450.49 M 164.44 449.39 C 164.30 452.25 164.26 455.13 164.54 457.99 C 166.79 456.65 165.60 453.68 165.90 451.56 C 166.73 451.50 168.37 451.38 169.19 451.32 C 169.29 453.34 169.25 455.39 169.52 457.41 C 171.72 458.30 170.68 454.22 170.86 452.95 C 171.15 450.15 168.11 449.31 165.97 450.19 C 165.59 449.99 164.83 449.59 164.44 449.39 M 171.95 452.86 C 173.22 453.95 174.66 454.83 176.05 455.77 C 174.55 455.61 173.04 455.45 171.54 455.33 C 172.20 456.21 172.41 458.39 174.00 457.91 C 178.00 457.46 182.03 457.34 186.05 457.61 C 188.14 457.55 190.22 457.45 192.31 457.35 C 192.33 456.85 192.36 455.85 192.38 455.35 C 192.74 456.04 193.47 457.42 193.83 458.11 C 193.91 457.00 194.07 454.78 194.15 453.67 C 189.80 453.31 185.46 453.80 181.11 453.79 C 180.34 454.72 179.58 455.65 178.82 456.60 C 178.14 454.10 176.11 452.57 174.04 451.26 C 175.59 451.33 177.67 452.38 178.40 450.34 C 177.22 449.87 176.04 449.40 174.87 448.94 C 173.54 449.99 171.28 450.71 171.95 452.86 Z" />
<path fill="#1b232a" opacity="1.00" d=" M 244.52 389.95 C 244.83 388.46 244.65 386.66 245.83 385.52 L 246.40 384.87 C 246.81 390.30 247.05 395.74 247.40 401.18 C 249.12 401.06 250.85 400.93 252.58 400.81 C 251.10 402.03 249.62 403.24 248.14 404.45 C 248.18 404.73 248.26 405.28 248.30 405.55 C 253.32 403.60 258.73 403.58 263.97 402.74 C 264.23 401.84 264.37 400.91 264.54 400.00 C 265.70 399.91 266.87 399.82 268.04 399.71 C 267.67 409.23 267.61 418.75 267.76 428.28 C 261.64 428.97 255.51 429.54 249.38 430.06 C 250.30 439.97 251.10 449.91 252.25 459.79 C 252.54 459.93 253.11 460.19 253.39 460.32 C 258.73 460.20 264.05 459.53 269.35 458.92 L 270.18 458.81 C 269.79 461.80 268.42 464.85 269.29 467.88 C 271.08 474.08 269.71 480.57 269.97 486.90 C 264.82 487.64 259.66 488.39 254.49 489.00 C 254.59 489.60 254.78 490.80 254.88 491.39 C 252.70 492.22 250.74 491.36 249.12 489.83 C 250.89 489.58 252.66 489.33 254.44 489.10 C 254.10 484.56 253.74 480.03 253.39 475.49 C 256.90 473.04 260.48 470.68 263.90 468.11 C 260.32 470.32 256.90 472.76 253.43 475.15 C 252.78 470.51 253.17 465.68 251.83 461.18 C 250.37 460.19 248.60 460.99 246.99 461.02 L 245.90 460.96 C 245.63 455.87 245.70 450.77 245.08 445.71 C 243.69 448.50 242.36 451.32 241.07 454.17 C 242.51 446.56 240.85 438.87 240.92 431.22 C 243.63 430.94 246.33 430.65 249.04 430.37 C 248.49 420.66 247.95 410.96 247.36 401.25 C 246.39 401.35 244.45 401.56 243.48 401.66 C 243.41 402.26 243.27 403.48 243.20 404.08 C 243.40 399.35 244.03 394.65 244.52 389.95 Z" />
<path fill="#1b232a" opacity="1.00" d=" M 167.30 440.43 C 168.60 440.65 168.87 441.40 168.09 442.70 C 166.78 442.50 166.52 441.75 167.30 440.43 Z" />
<path fill="#1b232a" opacity="1.00" d=" M 157.38 441.10 C 160.35 439.53 157.58 444.41 157.38 441.10 Z" />
<path fill="#1b232a" opacity="1.00" d=" M 112.66 448.32 L 113.93 449.18 C 114.87 451.19 115.68 453.27 116.31 455.41 C 116.40 455.98 116.59 457.12 116.68 457.70 C 114.91 456.53 114.04 454.60 113.16 452.76 C 112.22 454.58 111.21 456.37 110.10 458.10 C 110.02 457.69 109.88 456.86 109.81 456.45 C 110.44 453.63 111.60 450.99 112.66 448.32 Z" />
<path fill="#1b232a" opacity="1.00" d=" M 125.32 450.51 C 126.80 449.34 128.16 452.03 126.85 452.98 C 125.29 454.22 123.86 451.47 125.32 450.51 Z" />
<path fill="#1b232a" opacity="1.00" d=" M 157.61 451.45 C 159.24 451.22 161.41 451.10 161.45 453.34 C 161.71 455.67 159.36 456.30 157.55 455.60 C 157.55 454.21 157.57 452.82 157.61 451.45 Z" />
<path fill="#1b232a" opacity="1.00" d=" M 94.86 471.96 C 96.51 474.58 98.46 477.09 99.54 480.02 C 100.79 485.57 99.89 491.34 100.81 496.94 C 101.49 501.02 102.70 504.99 103.26 509.10 C 94.00 509.86 84.74 510.53 75.49 511.41 C 75.03 509.72 74.57 508.03 74.11 506.35 C 74.42 506.38 75.04 506.45 75.35 506.48 C 73.10 503.92 72.80 500.39 71.91 497.24 C 70.38 489.79 67.74 482.56 66.82 475.01 C 76.14 473.93 85.83 474.87 95.21 473.43 L 94.86 471.96 M 88.44 486.41 C 86.72 488.98 86.53 492.19 86.04 495.16 C 88.43 492.50 90.43 489.48 93.10 487.08 C 95.45 484.98 99.27 483.79 98.95 479.98 C 95.06 481.32 91.08 483.13 88.44 486.41 Z" />
<path fill="#1b232a" opacity="1.00" d=" M 244.01 498.29 C 247.87 498.48 251.68 497.69 255.13 495.96 C 255.36 496.53 255.80 497.69 256.02 498.26 C 257.23 504.94 258.28 511.64 259.49 518.32 C 256.36 519.31 253.41 520.76 250.61 522.48 C 248.75 518.45 247.14 514.28 246.16 509.95 C 245.47 506.05 245.08 502.10 244.01 498.29 Z" />
<path fill="#1b232a" opacity="1.00" d=" M 60.85 512.23 C 65.69 512.15 70.52 511.81 75.36 511.60 C 76.71 521.05 78.17 530.49 79.51 539.95 C 76.66 541.07 73.81 542.17 70.94 543.22 C 70.67 537.94 71.37 532.61 70.52 527.38 C 69.14 521.36 64.56 516.91 60.85 512.23 Z" />
</g>
<g id="#585e63ff">
<path fill="#585e63" opacity="1.00" d=" M 121.28 21.82 C 124.74 18.71 129.07 16.78 133.25 14.83 C 129.72 20.06 125.61 24.90 121.25 29.46 C 121.69 26.57 122.17 23.68 122.62 20.80 L 121.28 21.82 Z" />
<path fill="#585e63" opacity="1.00" d=" M 105.50 41.16 C 109.75 38.97 113.53 35.98 117.94 34.09 C 116.14 41.19 110.76 48.46 114.64 55.89 C 111.82 57.51 109.01 59.14 106.20 60.78 C 106.91 65.26 107.96 69.68 109.27 74.02 C 104.20 78.92 100.17 84.93 98.46 91.84 C 98.53 82.53 97.01 73.01 98.86 63.83 C 98.82 64.52 98.72 65.90 98.67 66.58 C 101.26 64.48 103.84 62.37 106.42 60.27 C 105.40 54.65 104.66 48.98 104.44 43.28 C 104.54 42.68 104.68 42.09 104.84 41.50 L 105.50 41.16 Z" />
<path fill="#585e63" opacity="1.00" d=" M 122.68 171.95 C 130.33 174.59 137.29 178.86 144.54 182.40 C 148.49 184.56 152.69 186.28 156.33 188.97 C 148.73 186.17 141.71 182.02 134.41 178.57 C 130.43 176.48 126.17 174.83 122.68 171.95 Z" />
<path fill="#585e63" opacity="1.00" d=" M 146.97 175.93 C 150.40 177.42 153.46 179.62 156.14 182.21 C 152.77 180.61 149.75 178.40 146.97 175.93 Z" />
<path fill="#585e63" opacity="1.00" d=" M 189.12 204.07 C 190.15 204.66 191.18 205.25 192.22 205.84 C 192.11 211.20 192.24 216.56 192.85 221.90 C 189.80 218.07 185.28 215.30 183.04 210.95 C 184.12 208.02 187.01 206.25 189.12 204.07 Z" />
<path fill="#585e63" opacity="1.00" d=" M 56.08 216.01 C 57.43 212.64 59.49 209.63 62.55 207.59 C 61.58 209.90 59.81 212.21 60.44 214.86 C 60.78 217.40 61.28 219.92 61.57 222.48 C 58.25 220.91 54.35 220.07 50.95 221.93 C 41.34 226.53 32.69 233.05 24.79 240.13 C 26.20 237.95 27.34 235.52 29.22 233.69 C 34.59 230.28 39.40 225.89 45.38 223.53 C 49.31 221.71 54.32 220.45 56.08 216.01 Z" />
<path fill="#585e63" opacity="1.00" d=" M 183.35 224.61 C 184.44 227.32 185.12 230.18 185.35 233.10 C 186.13 241.85 187.06 250.63 186.48 259.43 C 185.36 249.67 183.76 239.97 182.84 230.20 C 182.93 228.33 183.13 226.47 183.35 224.61 Z" />
<path fill="#585e63" opacity="1.00" d=" M 236.40 251.95 C 236.44 245.23 233.64 239.01 232.21 232.56 C 235.83 237.40 238.51 242.98 240.14 248.80 C 240.56 262.24 239.96 275.68 239.31 289.11 C 238.29 286.18 237.57 283.13 237.52 280.03 C 237.24 270.66 236.40 261.32 236.40 251.95 Z" />
<path fill="#585e63" opacity="1.00" d=" M 102.81 255.00 C 105.67 251.15 107.79 245.76 112.74 244.25 C 116.39 246.83 118.23 251.16 119.92 255.15 C 120.61 257.28 121.81 260.07 120.00 261.98 C 116.42 266.42 111.45 270.11 109.85 275.85 C 108.71 280.05 107.32 284.48 108.29 288.86 C 110.01 295.99 112.90 302.81 114.23 310.03 C 114.94 320.19 110.75 329.70 108.36 339.35 C 107.00 343.15 110.15 346.12 112.16 348.92 C 121.58 362.03 135.13 372.09 142.06 386.97 C 148.67 399.42 157.99 410.22 167.60 420.45 C 172.53 425.98 179.50 428.78 185.98 432.02 C 191.49 434.69 196.95 437.48 202.48 440.13 C 202.42 440.83 202.29 442.24 202.23 442.94 C 198.53 440.79 194.70 438.84 190.64 437.49 C 181.84 434.64 173.76 430.01 166.06 424.98 C 161.87 421.99 157.29 419.01 154.81 414.34 C 149.10 401.43 140.56 390.05 132.39 378.62 C 126.54 370.84 120.68 363.01 113.88 356.03 C 111.76 354.05 108.90 351.39 105.76 352.66 C 101.99 354.81 101.29 361.38 105.22 363.77 C 112.30 368.93 119.32 374.26 125.41 380.59 C 126.92 382.11 127.75 384.11 128.57 386.06 C 122.88 383.56 118.09 379.55 113.25 375.75 C 106.83 370.48 100.27 365.28 94.81 358.99 C 99.34 355.49 104.37 351.15 104.90 345.05 C 105.88 332.99 109.07 321.18 109.30 309.04 C 109.49 303.94 107.60 299.09 107.31 294.04 C 106.83 287.66 107.34 281.23 108.16 274.90 C 108.50 271.85 109.86 268.96 109.80 265.87 C 108.97 261.48 105.49 258.33 102.81 255.00 Z" />
<path fill="#585e63" opacity="1.00" d=" M 187.59 339.95 C 186.34 314.22 185.14 288.47 184.50 262.72 C 186.21 276.42 187.96 290.19 187.65 304.02 C 187.73 322.00 189.43 339.92 191.12 357.80 C 191.01 358.62 190.79 360.27 190.68 361.10 C 189.70 354.04 187.79 347.11 187.59 339.95 Z" />
<path fill="#585e63" opacity="1.00" d=" M 133.69 285.68 C 134.30 285.48 135.53 285.09 136.14 284.89 C 137.05 293.96 135.66 303.04 134.17 311.98 C 133.32 316.89 134.54 321.90 136.57 326.38 C 141.57 336.84 144.89 347.98 149.20 358.73 C 151.36 364.90 154.36 371.80 151.87 378.31 C 147.03 376.32 146.18 370.64 146.35 366.02 C 146.56 361.00 145.80 355.93 143.59 351.39 C 139.68 343.21 136.94 334.54 134.24 325.91 C 132.67 320.45 130.78 314.85 131.51 309.09 C 132.36 301.30 133.05 293.49 133.69 285.68 Z" />
<path fill="#585e63" opacity="1.00" d=" M 16.34 324.55 C 19.31 325.22 22.25 326.03 25.17 326.91 C 25.13 328.91 25.08 330.90 25.01 332.91 C 22.35 331.68 19.24 330.96 17.23 328.71 C 16.86 327.33 16.57 325.95 16.34 324.55 Z" />
<path fill="#585e63" opacity="1.00" d=" M 38.83 344.00 C 42.56 344.29 46.28 344.54 50.00 344.84 C 51.06 347.91 52.08 350.98 53.03 354.08 C 48.41 350.59 44.94 344.97 38.83 344.00 Z" />
<path fill="#585e63" opacity="1.00" d=" M 85.91 347.10 C 90.21 347.52 94.16 345.72 97.85 343.76 C 97.56 344.88 97.27 346.01 96.98 347.14 C 98.34 347.14 99.69 347.15 101.05 347.17 C 101.08 347.49 101.14 348.13 101.16 348.45 L 100.72 348.37 C 95.84 347.39 90.86 347.32 85.91 347.10 Z" />
<path fill="#585e63" opacity="1.00" d=" M 56.38 345.39 C 59.42 345.59 62.48 345.63 65.52 345.86 C 66.89 346.04 68.13 347.49 67.49 348.95 C 67.22 355.35 67.08 361.76 66.72 368.16 C 65.02 359.87 59.31 353.22 56.38 345.39 Z" />
<path fill="#585e63" opacity="1.00" d=" M 243.05 356.99 C 243.63 353.35 245.50 350.12 247.12 346.87 C 246.21 353.24 244.60 359.51 244.14 365.95 C 242.82 381.60 241.04 397.21 239.70 412.84 C 237.47 416.73 234.90 420.50 233.76 424.90 C 231.93 429.96 232.12 435.66 229.32 440.37 C 229.96 421.26 237.98 403.45 240.17 384.57 C 232.21 391.23 225.48 399.30 219.89 408.03 C 218.71 409.74 217.18 411.17 215.63 412.54 C 216.69 410.36 217.88 408.24 219.26 406.24 C 226.16 396.41 232.67 386.31 239.44 376.39 C 240.90 374.05 242.73 371.77 243.20 368.99 C 243.54 364.99 242.44 360.98 243.05 356.99 Z" />
<path fill="#585e63" opacity="1.00" d=" M 247.10 365.27 C 253.09 360.27 257.73 353.64 264.54 349.67 C 263.27 351.94 261.66 354.02 259.73 355.76 C 255.39 359.75 251.38 364.09 246.98 368.01 C 246.91 367.46 246.76 366.37 246.69 365.82 L 247.10 365.27 Z" />
<path fill="#585e63" opacity="1.00" d=" M 58.40 371.41 C 60.89 370.20 63.60 369.57 66.24 368.75 C 66.25 370.03 66.26 371.32 66.26 372.61 C 63.30 373.36 60.56 374.72 57.89 376.17 C 58.00 374.58 57.80 372.92 58.40 371.41 Z" />
<path fill="#585e63" opacity="1.00" d=" M 14.08 375.87 C 14.44 379.00 14.37 382.15 14.31 385.29 C 17.59 385.57 20.88 385.83 24.18 386.01 L 24.18 386.21 C 24.03 391.38 24.25 396.55 24.29 401.72 C 22.49 402.21 20.69 402.71 18.89 403.22 C 17.44 400.12 16.09 396.97 15.21 393.67 C 13.92 387.84 13.91 381.81 14.08 375.87 Z" />
<path fill="#585e63" opacity="1.00" d=" M 101.75 385.56 C 106.83 388.99 111.77 392.77 116.06 397.16 C 110.98 393.75 105.58 390.43 101.75 385.56 Z" />
<path fill="#585e63" opacity="1.00" d=" M 86.65 400.53 C 89.22 397.18 91.82 393.85 94.45 390.55 C 94.78 393.58 93.28 396.16 91.50 398.46 C 89.19 401.24 90.29 405.01 90.45 408.28 C 90.26 408.57 89.87 409.13 89.68 409.41 C 88.02 406.86 84.11 403.75 86.65 400.53 Z" />
<path fill="#585e63" opacity="1.00" d=" M 75.33 405.30 C 78.53 399.71 83.89 395.68 89.39 392.50 C 87.15 396.82 81.10 400.25 83.27 405.82 C 85.73 410.66 90.08 414.22 92.63 419.05 C 91.43 419.90 90.65 421.82 89.00 421.80 C 85.04 421.41 82.06 418.33 79.49 415.57 C 77.28 412.72 73.74 409.16 75.33 405.30 Z" />
<path fill="#585e63" opacity="1.00" d=" M 252.58 400.81 C 256.57 400.52 260.55 400.24 264.54 400.00 C 264.37 400.91 264.23 401.84 263.97 402.74 C 258.73 403.58 253.32 403.60 248.30 405.55 C 248.26 405.28 248.18 404.73 248.14 404.45 C 249.62 403.24 251.10 402.03 252.58 400.81 Z" />
<path fill="#585e63" opacity="1.00" d=" M 98.98 407.91 C 104.19 413.85 108.54 420.48 113.16 426.88 C 115.48 430.23 117.98 433.53 119.40 437.40 C 115.89 434.95 113.56 431.30 110.96 427.98 C 106.46 421.64 101.43 415.39 98.98 407.91 Z" />
<path fill="#585e63" opacity="1.00" d=" M 130.93 407.93 C 138.02 412.11 144.68 416.97 151.59 421.45 C 155.95 424.64 160.95 427.11 164.56 431.23 C 160.05 429.88 156.28 427.00 152.44 424.40 C 145.19 419.03 137.61 414.02 130.93 407.93 Z" />
<path fill="#585e63" opacity="1.00" d=" M 204.77 422.70 C 208.42 424.40 210.68 427.84 213.08 430.91 C 215.60 434.16 217.72 437.70 219.62 441.35 C 221.26 444.82 224.88 446.53 227.50 449.13 C 224.04 450.50 220.11 448.82 218.33 445.66 C 217.73 443.50 217.81 441.19 217.02 439.09 C 214.11 432.81 208.55 428.39 204.77 422.70 Z" />
<path fill="#585e63" opacity="1.00" d=" M 75.54 432.67 C 79.29 427.56 86.99 427.86 92.07 430.65 C 86.58 431.53 81.07 432.17 75.54 432.67 Z" />
<path fill="#585e63" opacity="1.00" d=" M 154.87 438.91 C 156.28 438.93 157.69 438.94 159.11 438.95 C 159.28 440.16 160.46 441.44 159.74 442.64 C 159.18 444.90 156.55 443.93 154.88 444.29 C 154.22 442.51 153.83 440.64 154.87 438.91 M 157.38 441.10 C 157.58 444.41 160.35 439.53 157.38 441.10 Z" />
<path fill="#585e63" opacity="1.00" d=" M 142.89 441.71 C 144.23 439.73 146.48 439.89 148.56 440.18 C 149.65 440.09 150.73 440.09 151.82 440.18 C 152.20 441.79 152.76 444.18 150.68 444.85 C 149.83 444.42 149.02 443.91 148.20 443.42 C 148.13 443.83 147.98 444.63 147.91 445.03 C 146.27 443.71 141.88 445.01 142.89 441.71 Z" />
<path fill="#585e63" opacity="1.00" d=" M 46.60 461.34 C 52.91 454.51 59.68 448.10 66.41 441.69 C 66.43 444.34 66.46 447.00 66.45 449.66 C 59.75 453.42 53.88 458.68 46.60 461.34 Z" />
<path fill="#585e63" opacity="1.00" d=" M 107.81 441.45 C 108.77 442.32 109.73 443.22 110.68 444.11 C 110.06 444.89 109.42 445.66 108.77 446.42 C 111.82 446.39 114.87 446.38 117.92 446.34 C 117.25 445.84 115.90 444.82 115.22 444.31 C 116.24 443.07 117.50 442.07 119.02 441.53 C 118.64 443.50 117.49 445.69 118.87 447.57 C 119.12 451.11 119.01 454.66 119.08 458.21 C 115.66 460.56 111.59 460.39 107.83 459.02 C 106.57 454.81 106.32 450.09 108.16 446.01 C 108.05 444.48 107.93 442.96 107.81 441.45 M 109.13 447.77 C 109.15 450.67 108.87 453.65 109.81 456.45 C 109.88 456.86 110.02 457.69 110.10 458.10 C 112.40 458.21 114.71 458.16 117.01 457.98 L 116.68 457.70 C 116.59 457.12 116.40 455.98 116.31 455.41 C 117.74 453.03 117.21 450.20 117.25 447.58 C 116.22 447.52 114.15 447.41 113.12 447.36 L 113.93 449.18 L 112.66 448.32 C 112.76 448.05 112.97 447.51 113.07 447.25 C 112.09 447.38 110.12 447.64 109.13 447.77 Z" />
<path fill="#585e63" opacity="1.00" d=" M 205.12 442.32 C 207.63 443.55 209.24 446.46 209.54 449.19 C 209.32 453.22 206.50 456.40 204.22 459.50 C 204.07 458.61 203.77 456.84 203.62 455.96 L 204.10 455.27 C 205.40 453.20 207.42 450.87 206.47 448.26 C 206.06 446.28 204.64 444.41 205.12 442.32 Z" />
<path fill="#585e63" opacity="1.00" d=" M 145.51 445.27 C 145.74 445.53 145.74 445.53 145.51 445.27 Z" />
<path fill="#585e63" opacity="1.00" d=" M 241.07 454.17 C 242.36 451.32 243.69 448.50 245.08 445.71 C 245.70 450.77 245.63 455.87 245.90 460.96 L 246.99 461.02 C 244.58 461.38 242.17 461.74 239.75 462.07 C 239.32 459.33 239.71 456.59 241.07 454.17 Z" />
<path fill="#585e63" opacity="1.00" d=" M 171.95 452.86 C 171.28 450.71 173.54 449.99 174.87 448.94 C 176.04 449.40 177.22 449.87 178.40 450.34 C 177.67 452.38 175.59 451.33 174.04 451.26 C 176.11 452.57 178.14 454.10 178.82 456.60 C 179.58 455.65 180.34 454.72 181.11 453.79 C 185.46 453.80 189.80 453.31 194.15 453.67 C 194.07 454.78 193.91 457.00 193.83 458.11 C 193.47 457.42 192.74 456.04 192.38 455.35 C 192.36 455.85 192.33 456.85 192.31 457.35 C 190.22 457.45 188.14 457.55 186.05 457.61 C 182.03 457.34 178.00 457.46 174.00 457.91 C 172.41 458.39 172.20 456.21 171.54 455.33 C 173.04 455.45 174.55 455.61 176.05 455.77 C 174.66 454.83 173.22 453.95 171.95 452.86 M 182.33 455.15 C 182.52 458.02 185.07 453.80 182.33 455.15 Z" />
<path fill="#585e63" opacity="1.00" d=" M 140.73 452.07 C 141.58 450.63 142.46 450.60 143.38 452.00 C 142.54 453.40 141.66 453.42 140.73 452.07 Z" />
<path fill="#585e63" opacity="1.00" d=" M 204.41 463.19 C 205.52 461.25 206.62 459.30 207.71 457.36 C 211.65 458.98 215.64 461.06 220.02 460.95 C 223.56 460.81 227.02 459.96 230.54 459.63 C 222.35 463.17 213.17 463.09 204.41 463.19 Z" />
<path fill="#585e63" opacity="1.00" d=" M 200.40 460.43 C 201.37 460.84 201.58 461.65 201.03 462.86 C 200.65 462.89 199.90 462.95 199.53 462.98 C 199.21 461.88 199.50 461.03 200.40 460.43 Z" />
<path fill="#585e63" opacity="1.00" d=" M 242.22 475.91 C 243.11 480.80 242.47 485.76 242.37 490.69 C 244.62 490.40 246.87 490.12 249.12 489.83 C 250.74 491.36 252.70 492.22 254.88 491.39 C 255.29 493.67 255.67 495.96 256.02 498.26 C 255.80 497.69 255.36 496.53 255.13 495.96 C 251.68 497.69 247.87 498.48 244.01 498.29 C 241.11 491.09 242.61 483.40 242.22 475.91 Z" />
<path fill="#585e63" opacity="1.00" d=" M 88.44 486.41 C 91.08 483.13 95.06 481.32 98.95 479.98 C 99.27 483.79 95.45 484.98 93.10 487.08 C 90.43 489.48 88.43 492.50 86.04 495.16 C 86.53 492.19 86.72 488.98 88.44 486.41 Z" />
</g>
</svg>
