<?xml version="1.0" encoding="UTF-8" ?>
<!DOCTYPE svg PUBLIC "-//W3C//DTD SVG 1.1//EN" "http://www.w3.org/Graphics/SVG/1.1/DTD/svg11.dtd">
<svg width="265pt" height="503pt" viewBox="0 0 265 503" version="1.1" xmlns="http://www.w3.org/2000/svg">
<g id="#fdfdfeff">
<path fill="#fdfdfe" opacity="1.00" d=" M 112.25 18.21 C 122.55 10.50 135.22 6.72 147.87 5.16 L 148.21 5.38 C 150.49 6.87 152.79 8.32 155.10 9.77 C 154.37 13.08 153.70 16.42 153.17 19.77 C 155.67 17.57 158.14 15.34 160.60 13.09 C 163.65 14.70 166.67 16.36 169.69 18.01 C 168.38 14.90 167.06 11.80 165.70 8.71 C 166.47 7.93 167.25 7.15 168.03 6.37 C 178.23 8.26 188.22 12.09 196.24 18.81 C 195.49 20.27 194.75 21.73 194.00 23.19 C 190.63 22.89 187.26 22.59 183.89 22.32 C 186.26 24.74 188.69 27.11 191.27 29.30 C 190.33 31.57 189.37 33.83 188.40 36.09 C 181.44 34.79 174.29 34.73 167.24 35.25 C 166.44 32.54 165.61 29.83 164.67 27.16 C 163.52 30.03 162.37 32.91 161.23 35.79 L 161.07 36.17 C 157.72 36.53 154.33 36.57 150.97 36.25 C 151.34 36.70 152.07 37.59 152.43 38.04 C 145.42 40.37 138.47 43.17 132.49 47.60 C 128.86 50.49 124.19 51.33 120.06 53.26 C 115.95 54.92 112.52 57.82 108.65 59.91 C 105.65 59.54 102.71 58.84 99.76 58.26 C 99.29 54.82 98.71 51.41 98.33 47.96 C 96.62 51.21 94.79 54.38 92.90 57.51 C 92.65 57.06 92.16 56.15 91.92 55.70 C 93.79 41.33 100.51 27.07 112.25 18.21 M 118.22 26.53 C 114.91 26.24 111.54 26.33 108.29 25.59 C 110.68 27.93 113.03 30.31 115.50 32.57 C 114.08 35.61 112.76 38.70 111.45 41.80 C 114.48 40.31 117.46 38.73 120.44 37.14 C 122.95 39.40 125.48 41.64 128.01 43.88 C 127.48 40.49 126.88 37.13 126.30 33.75 C 129.16 32.18 132.04 30.61 134.78 28.83 C 131.47 28.34 128.15 27.92 124.85 27.35 C 124.17 24.05 123.44 20.76 122.70 17.47 C 121.09 20.43 119.62 23.46 118.22 26.53 Z" />
<path fill="#fdfdfe" opacity="1.00" d=" M 201.92 30.29 C 202.98 29.75 204.05 29.20 205.11 28.66 C 208.43 33.82 210.59 39.61 212.14 45.53 C 205.96 40.64 198.37 38.04 190.73 36.55 C 192.59 35.74 194.38 34.74 196.17 33.77 C 198.62 35.97 201.06 38.19 203.60 40.29 C 203.05 36.96 202.46 33.63 201.92 30.29 Z" />
<path fill="#fdfdfe" opacity="1.00" d=" M 136.87 46.85 C 152.07 37.80 170.63 34.93 187.98 37.93 C 195.84 39.38 203.90 41.61 210.22 46.73 C 218.45 53.39 220.51 67.12 213.32 75.25 C 213.53 68.53 209.32 62.69 204.49 58.45 C 193.01 48.17 177.21 43.86 162.04 44.01 C 153.56 43.80 145.14 45.08 136.87 46.85 Z" />
<path fill="#fdfdfe" opacity="1.00" d=" M 100.55 64.16 C 102.12 63.44 103.70 62.63 105.44 62.44 C 103.76 63.88 102.10 65.33 100.46 66.82 C 100.48 66.15 100.53 64.82 100.55 64.16 Z" />
<path fill="#fdfdfe" opacity="1.00" d=" M 90.99 68.60 C 92.31 68.10 93.65 67.62 94.99 67.17 C 95.78 68.22 96.57 69.27 97.37 70.31 C 94.64 73.78 92.63 77.76 91.62 82.06 C 91.50 77.57 91.08 73.09 90.99 68.60 Z" />
<path fill="#fdfdfe" opacity="1.00" d=" M 109.60 145.38 C 110.95 144.04 112.81 141.53 114.88 143.09 C 129.96 151.68 144.97 160.38 160.03 169.00 C 160.43 176.35 160.74 183.70 161.21 191.04 C 161.76 191.12 162.84 191.28 163.38 191.36 C 164.17 196.93 165.30 202.44 165.86 208.04 L 164.32 206.53 C 164.08 213.19 164.04 219.85 163.82 226.51 C 158.17 227.23 152.53 227.99 146.89 228.70 C 153.99 231.17 160.60 235.01 165.97 240.31 C 164.16 249.64 161.56 258.78 158.97 267.91 C 162.57 262.82 167.18 258.61 171.50 254.16 C 170.79 250.05 170.70 245.88 170.66 241.72 C 171.11 251.19 173.30 260.47 173.26 270.00 C 172.98 287.70 174.55 305.35 176.10 322.97 C 175.68 326.88 174.65 330.69 173.72 334.51 C 165.69 335.51 157.66 336.51 149.66 337.72 C 156.40 341.88 163.61 345.21 170.56 349.00 C 165.40 358.37 160.68 367.97 155.96 377.57 C 164.17 371.47 172.10 365.00 180.17 358.73 C 180.73 362.44 181.15 366.19 182.16 369.82 C 185.92 382.10 188.18 395.19 186.12 408.00 C 185.35 412.88 185.84 417.83 186.06 422.74 C 169.46 422.89 152.87 423.19 136.28 422.73 C 135.38 420.05 134.45 417.38 133.48 414.73 C 136.64 412.02 131.69 410.05 129.69 408.81 C 131.28 407.26 132.93 405.76 134.60 404.29 C 134.52 405.11 134.36 406.76 134.28 407.58 C 135.59 406.62 136.73 405.47 137.82 404.28 C 138.27 404.92 138.73 405.57 139.18 406.22 C 139.80 404.88 140.42 403.54 141.02 402.19 C 139.49 402.28 137.96 402.39 136.43 402.50 C 140.76 398.20 145.78 394.63 151.13 391.69 C 142.10 391.08 133.08 390.35 124.05 389.75 C 121.08 379.39 118.23 369.00 115.29 358.62 C 112.41 368.03 109.85 377.52 107.13 386.97 C 106.75 388.52 105.83 389.84 104.91 391.13 C 106.46 393.50 108.27 395.67 110.01 397.90 C 107.66 395.71 105.61 393.18 104.32 390.22 C 100.26 390.22 96.21 390.41 92.16 390.64 C 91.05 383.69 87.45 377.45 82.72 372.34 C 81.18 370.50 78.53 367.84 80.46 365.39 C 85.12 360.34 89.51 354.18 89.44 347.01 C 89.34 341.04 83.94 336.47 84.44 330.46 C 89.12 325.94 96.13 322.57 97.28 315.49 C 97.94 307.19 99.67 299.05 100.74 290.80 C 102.61 292.16 104.45 293.55 106.25 295.00 C 103.19 304.42 100.88 314.06 97.73 323.45 C 105.41 316.84 113.41 310.60 121.09 303.99 C 127.36 310.74 133.83 317.28 139.95 324.17 C 137.54 314.30 135.09 304.43 132.56 294.59 C 138.39 290.45 144.44 286.64 150.27 282.49 C 142.81 282.22 135.35 281.99 127.89 281.74 C 124.45 273.21 121.83 264.39 118.62 255.77 C 115.78 263.84 113.14 271.98 110.21 280.03 C 107.36 280.17 104.51 280.35 101.66 280.48 C 101.67 279.31 101.55 278.16 101.31 277.03 C 98.77 268.20 99.19 258.81 100.42 249.80 C 100.75 246.48 103.02 243.03 101.26 239.80 C 98.03 233.88 92.87 229.34 87.96 224.84 C 77.82 216.20 67.31 207.78 55.56 201.41 C 52.87 199.62 49.63 200.76 47.00 202.04 C 38.56 206.23 30.98 211.97 24.04 218.31 C 33.96 202.29 47.15 187.37 64.74 179.72 C 72.24 176.04 80.51 174.53 88.69 173.26 L 88.71 173.52 C 88.93 176.94 89.25 180.35 89.55 183.77 C 83.58 184.21 77.62 184.73 71.66 185.25 C 77.90 188.56 84.22 191.74 90.49 195.01 C 90.04 202.76 89.57 210.50 89.14 218.25 C 93.68 212.94 98.14 207.57 102.67 202.27 C 112.32 208.01 121.90 213.87 131.61 219.52 C 127.37 213.36 122.92 207.34 118.48 201.33 C 122.00 200.23 125.91 199.56 128.70 196.95 L 128.62 195.92 C 125.27 193.09 120.48 194.83 116.51 193.96 C 121.29 191.17 126.44 189.17 131.73 187.58 C 125.57 185.84 119.37 184.19 112.98 183.56 L 112.51 183.50 C 108.78 178.26 104.70 173.28 100.48 168.43 C 101.25 167.30 102.19 166.27 102.73 165.01 C 104.39 158.32 105.46 151.09 109.60 145.38 M 149.46 402.15 L 152.29 401.38 C 151.60 402.15 150.23 403.68 149.54 404.44 C 150.94 405.38 152.81 405.94 154.18 404.61 L 154.79 405.84 C 155.30 405.45 156.31 404.65 156.82 404.25 C 154.91 404.92 153.71 404.24 153.22 402.20 C 154.09 402.02 155.82 401.67 156.68 401.49 C 156.10 401.17 155.52 400.86 154.94 400.55 C 153.95 402.56 152.15 401.08 150.84 400.53 C 150.50 400.94 149.80 401.74 149.46 402.15 M 161.08 402.74 C 160.15 401.95 159.19 401.19 158.21 400.48 C 158.37 402.04 158.52 403.61 158.65 405.19 C 158.89 404.45 159.36 402.97 159.59 402.23 C 160.40 403.37 161.21 404.51 162.04 405.64 C 164.55 405.16 163.46 402.67 163.46 400.82 C 162.30 400.79 160.19 400.22 161.08 402.74 M 140.90 408.37 C 140.66 410.11 138.76 410.36 137.58 411.19 C 137.09 410.95 136.10 410.47 135.61 410.23 C 135.55 412.59 135.43 414.96 135.74 417.32 C 136.25 417.19 136.77 417.06 137.29 416.93 C 137.51 414.80 136.14 411.84 139.23 410.95 C 141.12 413.12 138.91 418.25 143.27 417.45 C 141.56 416.00 141.55 413.76 141.55 411.73 L 143.24 411.67 C 142.45 410.57 141.67 409.47 140.90 408.37 M 145.77 410.39 C 144.14 411.87 143.55 414.23 144.60 416.24 C 146.29 417.94 148.60 417.43 150.48 416.35 C 150.03 415.59 149.58 414.84 149.12 414.10 L 148.39 416.29 C 147.82 416.24 146.69 416.14 146.12 416.09 C 143.28 413.29 148.86 408.57 149.10 413.92 C 149.58 413.15 150.06 412.38 150.53 411.61 C 149.07 410.75 147.43 410.49 145.77 410.39 M 151.86 410.52 C 152.10 412.98 150.65 416.46 153.32 417.96 C 153.45 415.82 153.46 413.68 153.53 411.55 C 154.20 411.62 155.54 411.76 156.21 411.83 C 156.91 413.85 155.77 416.57 157.56 418.14 C 157.82 415.90 158.25 413.51 157.43 411.35 C 156.00 409.92 153.65 410.85 151.86 410.52 M 159.26 412.96 C 160.41 414.10 162.46 414.50 162.78 416.32 C 161.76 416.31 159.71 416.27 158.69 416.25 C 160.55 418.48 164.93 417.61 163.93 414.17 C 162.65 413.42 160.67 413.34 160.30 411.58 C 161.33 411.56 163.37 411.53 164.40 411.51 C 162.96 409.64 158.87 410.10 159.26 412.96 M 167.07 413.85 L 167.72 415.34 C 166.35 415.92 164.65 416.31 164.84 418.22 L 165.91 416.28 C 166.55 416.81 167.20 417.33 167.86 417.85 C 169.60 416.05 172.57 419.12 173.17 415.83 C 173.55 416.38 174.31 417.46 174.69 418.00 C 174.34 416.52 174.67 415.35 175.68 414.48 C 175.88 415.41 176.28 417.27 176.48 418.19 C 176.72 417.13 176.91 416.06 177.07 415.00 L 177.82 414.98 C 178.00 415.79 178.37 417.43 178.56 418.25 C 178.83 416.93 178.86 415.58 178.88 414.26 C 176.40 414.07 173.82 414.07 172.22 416.37 L 172.88 413.84 C 172.16 414.08 170.73 414.56 170.01 414.79 C 169.27 414.56 167.81 414.09 167.07 413.85 Z" />
<path fill="#fdfdfe" opacity="1.00" d=" M 168.64 170.07 C 170.03 167.52 172.37 165.56 174.19 163.29 C 174.50 170.57 173.91 177.96 174.72 185.16 C 183.59 190.41 193.20 194.64 201.04 201.45 C 196.19 201.89 191.32 201.82 186.46 202.14 C 193.35 205.58 200.52 208.40 207.53 211.56 C 206.13 218.51 204.50 225.44 201.97 232.09 C 206.58 227.00 211.13 221.85 215.77 216.79 C 217.12 218.70 218.52 220.59 219.89 222.50 C 221.27 224.50 222.08 226.81 222.80 229.12 C 228.21 246.42 231.21 264.55 231.05 282.70 C 228.40 281.51 228.09 278.49 227.09 276.12 C 224.69 269.54 220.52 263.82 215.91 258.63 C 216.33 265.98 215.94 273.42 213.95 280.54 C 207.48 281.38 201.01 282.29 194.55 283.27 C 201.71 285.57 209.00 288.19 214.73 293.25 C 209.96 301.10 207.40 310.25 207.90 319.45 C 213.29 312.77 218.58 305.97 224.61 299.83 C 226.35 302.73 229.51 305.23 229.22 308.92 C 227.89 315.93 226.41 322.90 225.43 329.97 C 224.09 342.91 223.17 355.90 221.75 368.84 C 220.12 378.20 217.71 387.40 214.80 396.44 C 214.17 396.58 212.89 396.84 212.25 396.97 C 212.15 397.74 213.46 401.53 211.45 401.56 C 211.07 400.02 211.42 398.41 211.42 396.86 C 206.60 397.12 201.79 397.56 196.99 398.05 C 202.28 401.85 207.39 405.89 212.64 409.75 C 210.74 413.46 208.95 417.25 207.86 421.29 C 201.41 423.15 194.71 422.94 188.09 422.74 C 187.88 417.78 187.49 412.78 188.24 407.85 C 190.18 396.53 188.19 384.98 185.52 373.95 C 183.36 367.80 182.82 361.30 181.91 354.90 C 182.44 356.88 182.73 359.07 184.15 360.66 C 189.17 366.56 194.27 372.39 199.38 378.20 C 197.19 368.39 194.28 358.78 191.31 349.19 C 196.61 344.60 201.81 339.90 207.05 335.24 C 200.80 334.81 194.56 334.43 188.32 333.95 C 184.56 325.57 181.71 316.73 177.15 308.75 C 176.12 296.54 175.26 284.29 175.55 272.03 C 175.67 264.90 174.42 257.84 174.33 250.74 C 175.84 251.41 177.26 252.31 178.40 253.53 C 183.38 258.63 187.66 264.34 192.01 269.97 C 191.62 260.37 188.72 251.12 185.25 242.23 C 188.99 238.66 192.76 235.13 196.39 231.46 C 190.61 229.86 184.67 228.79 178.97 226.90 C 176.01 221.62 172.85 216.44 169.01 211.73 C 167.34 205.09 166.98 198.15 165.53 191.45 C 166.00 191.12 166.94 190.48 167.41 190.16 C 167.89 183.47 168.04 176.75 168.64 170.07 Z" />
<path fill="#fdfdfe" opacity="1.00" d=" M 25.78 220.73 C 33.43 213.37 42.01 206.40 52.21 203.00 C 63.08 208.46 72.66 216.16 82.13 223.73 C 87.94 228.60 93.70 233.72 97.96 240.04 C 100.01 242.64 98.01 245.67 97.58 248.45 C 96.21 257.29 95.59 266.44 97.67 275.22 C 98.86 279.75 98.23 284.46 97.86 289.05 C 96.80 296.34 95.62 303.60 94.74 310.91 C 94.27 314.04 94.22 317.51 91.90 319.95 C 88.92 323.91 83.86 326.02 81.53 330.46 C 80.95 336.78 86.12 341.90 86.87 348.02 C 86.45 353.08 84.01 357.75 80.69 361.51 C 78.99 363.68 76.27 365.90 77.14 369.02 C 78.34 373.27 82.32 375.79 84.55 379.44 C 91.75 389.00 90.40 401.75 89.14 412.93 C 88.59 420.23 85.73 428.69 90.79 435.06 C 93.51 438.04 93.10 442.28 93.17 446.02 C 93.12 450.03 93.44 454.07 94.48 457.96 C 97.13 467.73 98.17 477.85 99.75 487.83 C 87.96 487.25 76.71 491.93 66.04 496.40 C 65.85 490.13 67.58 483.34 64.37 477.54 C 61.25 471.95 56.59 467.37 51.64 463.39 C 49.90 462.02 48.95 459.97 47.98 458.04 C 44.79 451.23 42.60 443.93 38.51 437.57 C 35.87 432.97 31.11 429.93 28.98 424.99 C 22.60 411.20 24.59 395.23 18.50 381.35 C 16.89 376.71 13.75 372.21 14.60 367.08 C 15.16 361.69 13.78 356.34 14.14 350.95 C 14.70 343.22 13.23 335.53 11.46 328.04 C 10.68 324.33 8.88 320.82 8.99 316.96 C 8.97 305.92 10.99 295.03 11.90 284.06 C 12.08 268.47 11.73 252.63 15.53 237.39 C 16.67 230.76 21.28 225.44 25.78 220.73 M 53.75 236.65 C 50.74 242.98 47.50 249.20 44.73 255.64 C 37.58 255.11 30.45 254.29 23.32 253.48 C 28.45 258.42 33.63 263.31 38.74 268.27 C 35.97 274.81 33.20 281.35 30.46 287.90 C 36.85 284.75 43.04 281.20 49.42 278.02 C 54.72 282.79 60.05 287.53 65.48 292.15 C 64.28 285.08 62.93 278.04 61.73 270.97 C 67.75 267.40 73.85 263.97 79.77 260.23 C 72.78 259.22 65.79 258.24 58.80 257.24 C 56.96 250.43 56.27 243.24 53.75 236.65 M 40.08 330.99 C 33.01 332.14 25.81 332.63 18.82 334.22 C 24.94 337.85 30.98 341.60 37.13 345.19 C 36.00 352.24 34.80 359.28 33.70 366.34 C 39.17 361.68 44.56 356.95 50.00 352.26 C 56.33 355.73 62.66 359.19 68.97 362.70 C 66.39 355.94 63.46 349.32 60.60 342.68 C 65.31 337.59 70.32 332.78 75.49 328.16 C 68.53 328.31 61.56 328.59 54.63 329.28 C 51.32 322.91 48.27 316.41 45.15 309.94 C 43.51 316.97 41.63 323.94 40.08 330.99 M 54.44 388.83 C 53.77 395.64 52.98 402.43 52.24 409.23 C 45.69 410.98 39.14 412.74 32.57 414.42 C 38.61 417.50 44.89 420.06 51.02 422.94 C 50.84 429.73 50.04 436.49 49.88 443.28 C 54.63 438.37 59.08 433.17 63.82 428.26 C 70.29 430.39 76.42 433.47 82.85 435.74 C 79.27 429.82 76.03 423.70 72.51 417.74 C 76.90 412.50 81.33 407.30 85.73 402.07 C 79.00 403.45 72.23 404.63 65.63 406.55 C 62.14 400.50 58.39 394.60 54.44 388.83 Z" />
<path fill="#fdfdfe" opacity="1.00" d=" M 233.81 280.41 C 234.46 280.80 235.75 281.58 236.40 281.98 C 235.07 288.79 234.17 295.67 233.01 302.51 C 235.36 300.48 237.71 298.46 240.07 296.44 C 243.33 309.73 246.17 323.17 247.36 336.83 L 247.11 336.81 C 241.27 336.42 235.45 335.72 229.60 335.28 C 234.87 340.37 240.20 345.37 245.29 350.64 C 242.20 357.17 239.60 363.92 236.58 370.49 C 240.03 368.66 243.48 366.83 247.01 365.14 C 246.39 377.29 246.41 389.49 247.19 401.63 C 247.28 403.65 247.36 405.68 247.45 407.71 C 242.00 407.42 236.54 407.22 231.09 407.12 C 236.43 411.52 241.64 416.08 246.89 420.59 C 244.42 426.97 242.07 433.40 239.72 439.82 C 242.79 437.98 245.84 436.08 248.86 434.17 C 248.63 439.44 248.74 444.73 248.79 450.01 C 249.25 458.37 252.14 466.32 254.11 474.39 C 246.37 472.73 237.19 471.62 230.83 477.43 C 229.29 472.68 226.97 468.10 226.41 463.08 C 225.99 456.92 223.00 451.19 223.32 444.93 C 224.33 435.92 221.81 427.04 220.38 418.20 C 225.00 410.05 221.42 400.67 222.04 391.92 C 223.84 372.61 225.58 353.30 227.38 333.99 C 229.78 318.78 233.70 303.70 233.61 288.20 C 233.73 285.60 233.79 283.00 233.81 280.41 Z" />
<path fill="#fdfdfe" opacity="1.00" d=" M 92.64 396.30 C 95.96 398.65 99.81 400.40 102.51 403.54 C 102.63 403.92 102.87 404.69 102.99 405.08 C 102.36 405.61 101.10 406.67 100.47 407.20 C 101.41 407.40 103.31 407.80 104.25 408.00 C 103.30 408.12 101.40 408.37 100.45 408.50 C 100.57 410.83 100.51 413.18 100.25 415.52 C 99.29 417.67 98.35 419.84 97.49 422.04 C 95.12 422.35 92.74 422.49 90.36 422.58 C 91.08 417.73 91.81 412.88 92.25 407.99 C 92.63 404.11 92.74 400.20 92.64 396.30 Z" />
<path fill="#fdfdfe" opacity="1.00" d=" M 135.19 403.33 C 135.79 403.83 135.79 403.83 135.19 403.33 Z" />
<path fill="#fdfdfe" opacity="1.00" d=" M 152.37 403.37 C 152.65 403.65 152.65 403.65 152.37 403.37 Z" />
<path fill="#fdfdfe" opacity="1.00" d=" M 162.36 403.44 C 162.65 403.73 162.65 403.73 162.36 403.44 Z" />
<path fill="#fdfdfe" opacity="1.00" d=" M 132.24 412.29 C 132.81 412.83 132.81 412.83 132.24 412.29 Z" />
<path fill="#fdfdfe" opacity="1.00" d=" M 168.22 415.26 C 171.35 413.72 168.46 418.17 168.22 415.26 Z" />
<path fill="#fdfdfe" opacity="1.00" d=" M 171.24 415.48 C 171.56 415.76 171.56 415.76 171.24 415.48 Z" />
<path fill="#fdfdfe" opacity="1.00" d=" M 110.50 422.08 C 112.94 420.48 115.36 418.85 117.80 417.26 C 120.06 419.14 122.35 420.96 124.66 422.79 C 119.84 422.76 115.05 422.10 110.22 422.26 L 110.50 422.08 Z" />
</g>
<g id="#000000ff">
<path fill="#000000" opacity="1.00" d=" M 123.07 9.96 C 131.81 5.87 141.41 4.05 150.95 3.04 C 168.98 2.76 188.31 7.43 201.25 20.71 C 208.84 27.96 212.99 37.94 215.28 48.01 C 219.34 53.74 221.48 60.97 220.03 67.97 C 219.66 74.00 214.32 77.66 211.42 82.49 C 208.39 87.51 203.40 90.90 199.44 95.02 C 197.83 107.27 196.88 119.72 198.05 132.06 C 198.02 135.15 201.00 138.13 199.18 141.11 C 196.53 145.31 192.43 148.68 187.92 150.71 C 184.38 150.74 182.45 146.80 181.59 143.87 C 184.22 139.28 189.17 136.59 192.41 132.46 C 192.93 131.05 192.84 129.50 193.00 128.03 C 194.02 111.69 194.61 95.31 195.33 78.95 C 195.45 75.99 195.12 72.92 193.81 70.23 C 187.92 64.73 180.07 61.67 172.18 60.48 C 156.86 57.99 141.22 60.49 126.41 64.61 C 123.73 65.32 121.13 66.34 118.63 67.53 C 119.28 74.37 119.69 81.38 118.17 88.13 C 117.17 93.12 113.18 96.72 111.51 101.44 C 107.61 111.59 104.64 122.84 107.28 133.68 C 102.36 132.06 99.01 127.80 94.53 125.37 C 93.78 129.62 94.84 133.88 95.24 138.11 C 96.32 146.31 95.03 154.74 97.10 162.82 C 97.63 164.17 97.82 166.37 99.79 166.01 C 102.11 161.71 101.98 156.55 103.90 152.06 C 105.68 147.07 108.34 140.76 114.38 140.16 C 130.24 149.53 146.33 158.51 162.25 167.78 C 162.62 174.84 163.04 181.91 163.37 188.98 C 163.89 188.92 164.92 188.80 165.44 188.74 C 165.82 182.51 166.10 176.27 166.54 170.05 C 166.54 168.57 167.84 167.64 168.63 166.54 C 170.82 164.10 172.76 161.42 175.15 159.15 C 176.23 159.17 176.72 159.73 176.62 160.81 C 176.87 168.53 176.72 176.25 176.93 183.96 C 189.93 191.28 203.22 198.43 214.47 208.35 C 217.36 211.53 221.40 213.61 223.45 217.53 C 229.72 228.04 232.38 240.20 234.75 252.07 C 236.40 259.61 236.44 267.39 237.88 274.96 C 239.56 285.03 242.44 294.83 244.63 304.79 C 248.53 321.89 251.17 339.47 249.96 357.04 C 248.90 371.68 248.71 386.38 249.62 401.02 C 249.73 405.92 251.34 411.22 248.17 415.53 C 249.67 416.68 251.83 417.78 251.75 419.98 C 251.25 421.68 250.42 423.27 250.01 425.00 C 250.29 427.03 251.62 428.85 251.33 430.97 C 251.03 437.67 250.88 444.38 251.12 451.08 C 251.84 458.94 254.51 466.43 256.39 474.05 C 257.18 475.47 255.55 477.31 254.06 476.89 C 249.37 476.53 244.68 475.12 239.95 476.00 C 236.38 476.43 233.38 478.62 230.87 481.05 C 228.88 479.60 228.25 477.16 227.41 474.98 C 226.06 471.09 224.42 467.20 224.16 463.04 C 223.84 456.93 220.97 451.22 221.21 445.03 C 222.18 436.33 220.21 427.69 218.69 419.17 C 214.84 422.95 209.24 423.65 204.18 424.62 C 198.25 425.85 192.18 424.78 186.22 425.53 C 171.82 424.81 157.36 426.10 142.95 425.26 C 129.98 425.41 117.03 425.11 104.09 424.34 C 99.43 423.93 94.80 424.87 90.14 424.77 C 89.42 429.28 92.27 432.87 94.35 436.51 C 96.29 442.56 94.64 449.09 96.32 455.21 C 99.23 466.78 100.70 478.65 102.21 490.47 C 90.60 488.52 79.58 493.68 68.98 497.63 C 67.50 498.02 65.68 499.61 64.32 498.07 C 62.97 492.30 65.15 486.23 63.28 480.52 C 61.55 476.06 58.44 472.29 55.06 468.97 C 52.39 466.34 48.92 464.40 47.11 461.00 C 43.11 453.73 40.50 445.78 36.31 438.61 C 33.82 434.21 29.32 431.33 27.16 426.70 C 21.73 415.78 21.35 403.33 19.29 391.53 C 17.82 384.08 13.53 377.52 12.15 370.08 C 12.70 363.71 11.85 357.37 11.88 351.01 C 12.57 341.33 10.35 331.74 7.51 322.55 C 6.62 319.79 6.63 316.86 6.70 313.99 C 7.09 303.65 8.87 293.42 9.69 283.12 C 9.75 266.10 9.50 248.72 14.38 232.24 C 20.28 218.49 28.91 205.99 39.23 195.18 C 48.92 185.51 60.66 177.55 73.97 173.88 C 78.52 172.49 83.32 172.20 87.87 170.81 C 85.21 164.73 82.66 156.90 86.77 150.91 C 88.25 148.10 90.68 145.98 92.29 143.28 C 93.11 141.67 92.25 139.89 91.53 138.43 C 89.28 134.54 88.74 129.80 89.53 125.43 C 90.23 121.93 94.14 120.64 95.58 117.55 C 98.25 112.47 100.01 106.95 101.49 101.42 C 104.14 95.24 107.22 89.26 110.16 83.22 C 111.62 80.45 110.04 76.32 107.04 75.34 C 103.19 74.44 97.45 75.48 96.40 79.96 C 93.15 87.89 96.01 96.52 99.28 103.94 C 98.90 104.48 98.52 105.02 98.14 105.56 C 96.31 102.79 95.26 99.45 92.80 97.14 C 87.89 78.03 87.02 57.09 94.55 38.53 C 99.76 25.69 110.37 15.38 123.07 9.96 M 112.25 18.21 C 100.51 27.07 93.79 41.33 91.92 55.70 L 91.61 55.14 C 90.90 59.59 90.91 64.11 90.99 68.60 C 91.08 73.09 91.50 77.57 91.62 82.06 C 92.63 77.76 94.64 73.78 97.37 70.31 L 97.61 70.62 C 98.57 69.37 99.79 68.25 100.46 66.82 C 102.10 65.33 103.76 63.88 105.44 62.44 L 106.30 62.33 C 107.10 61.54 107.88 60.73 108.65 59.91 C 112.52 57.82 115.95 54.92 120.06 53.26 C 124.19 51.33 128.86 50.49 132.49 47.60 C 138.47 43.17 145.42 40.37 152.43 38.04 C 152.07 37.59 151.34 36.70 150.97 36.25 C 154.33 36.57 157.72 36.53 161.07 36.17 L 161.23 35.79 C 163.23 35.67 165.24 35.49 167.24 35.25 C 174.29 34.73 181.44 34.79 188.40 36.09 C 188.98 36.21 190.15 36.44 190.73 36.55 C 198.37 38.04 205.96 40.64 212.14 45.53 C 210.59 39.61 208.43 33.82 205.11 28.66 C 202.75 24.86 199.78 21.54 196.24 18.81 C 188.22 12.09 178.23 8.26 168.03 6.37 C 161.50 5.34 154.81 4.69 148.21 5.38 L 147.87 5.16 C 135.22 6.72 122.55 10.50 112.25 18.21 M 136.87 46.85 C 145.14 45.08 153.56 43.80 162.04 44.01 C 177.21 43.86 193.01 48.17 204.49 58.45 C 209.32 62.69 213.53 68.53 213.32 75.25 C 220.51 67.12 218.45 53.39 210.22 46.73 C 203.90 41.61 195.84 39.38 187.98 37.93 C 170.63 34.93 152.07 37.80 136.87 46.85 M 109.60 145.38 C 105.46 151.09 104.39 158.32 102.73 165.01 C 102.19 166.27 101.25 167.30 100.48 168.43 C 104.70 173.28 108.78 178.26 112.51 183.50 L 112.98 183.56 C 114.82 186.81 114.40 190.90 116.51 193.96 C 120.48 194.83 125.27 193.09 128.62 195.92 L 128.70 196.95 C 125.91 199.56 122.00 200.23 118.48 201.33 C 116.44 201.10 113.75 201.66 112.49 199.61 C 110.67 196.69 110.62 193.04 108.90 190.10 C 105.93 187.66 102.29 186.18 99.27 183.79 C 95.04 181.13 92.27 176.91 88.71 173.52 L 88.69 173.26 C 80.51 174.53 72.24 176.04 64.74 179.72 C 47.15 187.37 33.96 202.29 24.04 218.31 C 30.98 211.97 38.56 206.23 47.00 202.04 C 49.63 200.76 52.87 199.62 55.56 201.41 C 67.31 207.78 77.82 216.20 87.96 224.84 C 92.87 229.34 98.03 233.88 101.26 239.80 C 103.02 243.03 100.75 246.48 100.42 249.80 C 99.19 258.81 98.77 268.20 101.31 277.03 C 100.85 281.60 101.13 286.22 100.74 290.80 C 99.67 299.05 97.94 307.19 97.28 315.49 C 96.13 322.57 89.12 325.94 84.44 330.46 C 83.94 336.47 89.34 341.04 89.44 347.01 C 89.51 354.18 85.12 360.34 80.46 365.39 C 78.53 367.84 81.18 370.50 82.72 372.34 C 87.45 377.45 91.05 383.69 92.16 390.64 C 92.60 396.41 92.54 402.21 92.25 407.99 C 91.81 412.88 91.08 417.73 90.36 422.58 C 92.74 422.49 95.12 422.35 97.49 422.04 C 101.82 421.90 106.16 421.99 110.50 422.08 L 110.22 422.26 C 115.05 422.10 119.84 422.76 124.66 422.79 C 128.53 422.69 132.41 422.72 136.28 422.73 C 152.87 423.19 169.46 422.89 186.06 422.74 C 185.84 417.83 185.35 412.88 186.12 408.00 C 188.18 395.19 185.92 382.10 182.16 369.82 C 181.15 366.19 180.73 362.44 180.17 358.73 C 178.24 346.87 177.85 334.82 176.10 322.97 C 174.55 305.35 172.98 287.70 173.26 270.00 C 173.30 260.47 171.11 251.19 170.66 241.72 C 169.35 230.47 167.77 219.20 165.86 208.04 C 165.30 202.44 164.17 196.93 163.38 191.36 C 162.84 191.28 161.76 191.12 161.21 191.04 C 160.74 183.70 160.43 176.35 160.03 169.00 C 144.97 160.38 129.96 151.68 114.88 143.09 C 112.81 141.53 110.95 144.04 109.60 145.38 M 168.64 170.07 C 168.04 176.75 167.89 183.47 167.41 190.16 C 166.94 190.48 166.00 191.12 165.53 191.45 C 166.98 198.15 167.34 205.09 169.01 211.73 C 169.06 217.20 170.26 222.57 170.87 228.00 C 172.12 235.55 172.52 243.30 174.33 250.74 C 174.42 257.84 175.67 264.90 175.55 272.03 C 175.26 284.29 176.12 296.54 177.15 308.75 C 177.03 310.52 177.01 312.31 177.29 314.07 C 179.22 327.63 179.79 341.37 181.91 354.90 C 182.82 361.30 183.36 367.80 185.52 373.95 C 188.19 384.98 190.18 396.53 188.24 407.85 C 187.49 412.78 187.88 417.78 188.09 422.74 C 194.71 422.94 201.41 423.15 207.86 421.29 C 211.02 420.68 214.39 419.96 216.88 417.77 C 220.44 413.38 220.36 407.35 219.94 402.01 C 219.00 390.91 221.24 379.90 221.75 368.84 C 223.17 355.90 224.09 342.91 225.43 329.97 C 226.41 322.90 227.89 315.93 229.22 308.92 C 230.34 300.23 231.11 291.47 231.05 282.70 C 231.21 264.55 228.21 246.42 222.80 229.12 C 222.08 226.81 221.27 224.50 219.89 222.50 C 219.66 218.57 217.71 214.91 215.09 212.05 C 211.11 207.96 206.66 204.31 201.75 201.39 L 201.04 201.45 C 193.20 194.64 183.59 190.41 174.72 185.16 C 173.91 177.96 174.50 170.57 174.19 163.29 C 172.37 165.56 170.03 167.52 168.64 170.07 M 25.78 220.73 C 21.28 225.44 16.67 230.76 15.53 237.39 C 11.73 252.63 12.08 268.47 11.90 284.06 C 10.99 295.03 8.97 305.92 8.99 316.96 C 8.88 320.82 10.68 324.33 11.46 328.04 C 13.23 335.53 14.70 343.22 14.14 350.95 C 13.78 356.34 15.16 361.69 14.60 367.08 C 13.75 372.21 16.89 376.71 18.50 381.35 C 24.59 395.23 22.60 411.20 28.98 424.99 C 31.11 429.93 35.87 432.97 38.51 437.57 C 42.60 443.93 44.79 451.23 47.98 458.04 C 48.95 459.97 49.90 462.02 51.64 463.39 C 56.59 467.37 61.25 471.95 64.37 477.54 C 67.58 483.34 65.85 490.13 66.04 496.40 C 76.71 491.93 87.96 487.25 99.75 487.83 C 98.17 477.85 97.13 467.73 94.48 457.96 C 93.44 454.07 93.12 450.03 93.17 446.02 C 93.10 442.28 93.51 438.04 90.79 435.06 C 85.73 428.69 88.59 420.23 89.14 412.93 C 90.40 401.75 91.75 389.00 84.55 379.44 C 82.32 375.79 78.34 373.27 77.14 369.02 C 76.27 365.90 78.99 363.68 80.69 361.51 C 84.01 357.75 86.45 353.08 86.87 348.02 C 86.12 341.90 80.95 336.78 81.53 330.46 C 83.86 326.02 88.92 323.91 91.90 319.95 C 94.22 317.51 94.27 314.04 94.74 310.91 C 95.62 303.60 96.80 296.34 97.86 289.05 C 98.23 284.46 98.86 279.75 97.67 275.22 C 95.59 266.44 96.21 257.29 97.58 248.45 C 98.01 245.67 100.01 242.64 97.96 240.04 C 93.70 233.72 87.94 228.60 82.13 223.73 C 72.66 216.16 63.08 208.46 52.21 203.00 C 42.01 206.40 33.43 213.37 25.78 220.73 M 223.11 222.75 C 223.81 226.50 225.19 230.08 226.24 233.74 C 229.24 244.07 231.47 254.65 232.42 265.37 C 234.01 272.89 233.39 280.58 233.61 288.20 C 233.70 303.70 229.78 318.78 227.38 333.99 C 225.58 353.30 223.84 372.61 222.04 391.92 C 221.42 400.67 225.00 410.05 220.38 418.20 C 221.81 427.04 224.33 435.92 223.32 444.93 C 223.00 451.19 225.99 456.92 226.41 463.08 C 226.97 468.10 229.29 472.68 230.83 477.43 C 237.19 471.62 246.37 472.73 254.11 474.39 C 252.14 466.32 249.25 458.37 248.79 450.01 C 248.74 444.73 248.63 439.44 248.86 434.17 C 249.25 431.02 248.39 427.99 247.63 424.99 C 247.82 423.16 248.63 421.50 249.23 419.80 C 247.90 418.22 244.78 416.70 246.34 414.30 C 248.53 410.15 247.51 405.36 247.16 400.91 L 247.19 401.63 C 246.41 389.49 246.39 377.29 247.01 365.14 C 247.83 355.74 248.23 346.20 247.11 336.81 L 247.36 336.83 C 246.17 323.17 243.33 309.73 240.07 296.44 C 237.04 285.17 234.14 273.71 233.96 261.97 C 233.06 254.36 231.70 246.79 229.64 239.40 C 228.09 233.65 226.63 227.66 223.11 222.75 Z" />
<path fill="#000000" opacity="1.00" d=" M 149.46 402.15 C 149.80 401.74 150.50 400.94 150.84 400.53 C 152.15 401.08 153.95 402.56 154.94 400.55 C 155.52 400.86 156.10 401.17 156.68 401.49 C 155.82 401.67 154.09 402.02 153.22 402.20 C 153.71 404.24 154.91 404.92 156.82 404.25 C 156.31 404.65 155.30 405.45 154.79 405.84 L 154.18 404.61 C 152.81 405.94 150.94 405.38 149.54 404.44 C 150.23 403.68 151.60 402.15 152.29 401.38 L 149.46 402.15 M 152.37 403.37 C 152.65 403.65 152.65 403.65 152.37 403.37 Z" />
<path fill="#000000" opacity="1.00" d=" M 161.08 402.74 C 160.19 400.22 162.30 400.79 163.46 400.82 C 163.46 402.67 164.55 405.16 162.04 405.64 C 161.21 404.51 160.40 403.37 159.59 402.23 C 159.36 402.97 158.89 404.45 158.65 405.19 C 158.52 403.61 158.37 402.04 158.21 400.48 C 159.19 401.19 160.15 401.95 161.08 402.74 M 162.36 403.44 C 162.65 403.73 162.65 403.73 162.36 403.44 Z" />
<path fill="#000000" opacity="1.00" d=" M 122.25 401.51 C 123.69 401.33 123.65 403.83 122.81 404.53 C 121.37 404.70 121.40 402.19 122.25 401.51 Z" />
<path fill="#000000" opacity="1.00" d=" M 102.51 403.54 C 104.93 403.64 107.36 403.70 109.79 403.70 C 109.29 404.37 108.79 405.05 108.30 405.73 C 109.48 409.72 109.50 413.89 109.30 418.01 C 107.87 418.43 106.44 418.86 105.01 419.30 C 103.61 418.86 102.20 418.43 100.80 418.01 C 100.66 417.39 100.39 416.14 100.25 415.52 C 100.51 413.18 100.57 410.83 100.45 408.50 C 101.40 408.37 103.30 408.12 104.25 408.00 C 103.31 407.80 101.41 407.40 100.47 407.20 C 101.10 406.67 102.36 405.61 102.99 405.08 C 102.87 404.69 102.63 403.92 102.51 403.54 M 104.50 404.26 C 104.95 404.73 104.95 404.73 104.50 404.26 M 101.20 418.06 C 103.82 417.74 104.33 415.10 105.07 413.10 C 105.72 415.08 106.01 417.98 108.83 417.95 C 108.41 414.54 106.99 411.38 105.02 408.60 C 102.85 411.32 101.71 414.65 101.20 418.06 Z" />
<path fill="#000000" opacity="1.00" d=" M 140.90 408.37 C 141.67 409.47 142.45 410.57 143.24 411.67 L 141.55 411.73 C 141.55 413.76 141.56 416.00 143.27 417.45 C 138.91 418.25 141.12 413.12 139.23 410.95 C 136.14 411.84 137.51 414.80 137.29 416.93 C 136.77 417.06 136.25 417.19 135.74 417.32 C 135.43 414.96 135.55 412.59 135.61 410.23 C 136.10 410.47 137.09 410.95 137.58 411.19 C 138.76 410.36 140.66 410.11 140.90 408.37 Z" />
<path fill="#000000" opacity="1.00" d=" M 145.77 410.39 C 147.43 410.49 149.07 410.75 150.53 411.61 C 150.06 412.38 149.58 413.15 149.10 413.92 C 148.86 408.57 143.28 413.29 146.12 416.09 C 146.69 416.14 147.82 416.24 148.39 416.29 L 149.12 414.10 C 149.58 414.84 150.03 415.59 150.48 416.35 C 148.60 417.43 146.29 417.94 144.60 416.24 C 143.55 414.23 144.14 411.87 145.77 410.39 Z" />
<path fill="#000000" opacity="1.00" d=" M 151.86 410.52 C 153.65 410.85 156.00 409.92 157.43 411.35 C 158.25 413.51 157.82 415.90 157.56 418.14 C 155.77 416.57 156.91 413.85 156.21 411.83 C 155.54 411.76 154.20 411.62 153.53 411.55 C 153.46 413.68 153.45 415.82 153.32 417.96 C 150.65 416.46 152.10 412.98 151.86 410.52 Z" />
<path fill="#000000" opacity="1.00" d=" M 159.26 412.96 C 158.87 410.10 162.96 409.64 164.40 411.51 C 163.37 411.53 161.33 411.56 160.30 411.58 C 160.67 413.34 162.65 413.42 163.93 414.17 C 164.93 417.61 160.55 418.48 158.69 416.25 C 159.71 416.27 161.76 416.31 162.78 416.32 C 162.46 414.50 160.41 414.10 159.26 412.96 Z" />
<path fill="#000000" opacity="1.00" d=" M 167.07 413.85 C 167.81 414.09 169.27 414.56 170.01 414.79 C 170.73 414.56 172.16 414.08 172.88 413.84 L 172.22 416.37 C 173.82 414.07 176.40 414.07 178.88 414.26 C 178.86 415.58 178.83 416.93 178.56 418.25 C 178.37 417.43 178.00 415.79 177.82 414.98 L 177.07 415.00 C 176.91 416.06 176.72 417.13 176.48 418.19 C 176.28 417.27 175.88 415.41 175.68 414.48 C 174.67 415.35 174.34 416.52 174.69 418.00 C 174.31 417.46 173.55 416.38 173.17 415.83 C 172.57 419.12 169.60 416.05 167.86 417.85 C 167.20 417.33 166.55 416.81 165.91 416.28 L 164.84 418.22 C 164.65 416.31 166.35 415.92 167.72 415.34 L 167.07 413.85 M 168.22 415.26 C 168.46 418.17 171.35 413.72 168.22 415.26 M 171.24 415.48 C 171.56 415.76 171.56 415.76 171.24 415.48 Z" />
</g>
<g id="#62381fff">
<path fill="#62381f" opacity="1.00" d=" M 148.21 5.38 C 154.81 4.69 161.50 5.34 168.03 6.37 C 167.25 7.15 166.47 7.93 165.70 8.71 C 167.06 11.80 168.38 14.90 169.69 18.01 C 166.67 16.36 163.65 14.70 160.60 13.09 C 158.14 15.34 155.67 17.57 153.17 19.77 C 153.70 16.42 154.37 13.08 155.10 9.77 C 152.79 8.32 150.49 6.87 148.21 5.38 Z" />
<path fill="#62381f" opacity="1.00" d=" M 118.22 26.53 C 119.62 23.46 121.09 20.43 122.70 17.47 C 123.44 20.76 124.17 24.05 124.85 27.35 C 128.15 27.92 131.47 28.34 134.78 28.83 C 132.04 30.61 129.16 32.18 126.30 33.75 C 126.88 37.13 127.48 40.49 128.01 43.88 C 125.48 41.64 122.95 39.40 120.44 37.14 C 117.46 38.73 114.48 40.31 111.45 41.80 C 112.76 38.70 114.08 35.61 115.50 32.57 C 113.03 30.31 110.68 27.93 108.29 25.59 C 111.54 26.33 114.91 26.24 118.22 26.53 Z" />
<path fill="#62381f" opacity="1.00" d=" M 196.24 18.81 C 199.78 21.54 202.75 24.86 205.11 28.66 C 204.05 29.20 202.98 29.75 201.92 30.29 C 202.46 33.63 203.05 36.96 203.60 40.29 C 201.06 38.19 198.62 35.97 196.17 33.77 C 194.38 34.74 192.59 35.74 190.73 36.55 C 190.15 36.44 188.98 36.21 188.40 36.09 C 189.37 33.83 190.33 31.57 191.27 29.30 C 188.69 27.11 186.26 24.74 183.89 22.32 C 187.26 22.59 190.63 22.89 194.00 23.19 C 194.75 21.73 195.49 20.27 196.24 18.81 Z" />
<path fill="#62381f" opacity="1.00" d=" M 164.67 27.16 C 165.61 29.83 166.44 32.54 167.24 35.25 C 165.24 35.49 163.23 35.67 161.23 35.79 C 162.37 32.91 163.52 30.03 164.67 27.16 Z" />
<path fill="#62381f" opacity="1.00" d=" M 92.90 57.51 C 94.79 54.38 96.62 51.21 98.33 47.96 C 98.71 51.41 99.29 54.82 99.76 58.26 C 102.71 58.84 105.65 59.54 108.65 59.91 C 107.88 60.73 107.10 61.54 106.30 62.33 L 105.44 62.44 C 103.70 62.63 102.12 63.44 100.55 64.16 C 100.53 64.82 100.48 66.15 100.46 66.82 C 99.79 68.25 98.57 69.37 97.61 70.62 L 97.37 70.31 C 96.57 69.27 95.78 68.22 94.99 67.17 C 93.65 67.62 92.31 68.10 90.99 68.60 C 90.91 64.11 90.90 59.59 91.61 55.14 L 91.92 55.70 C 92.16 56.15 92.65 57.06 92.90 57.51 Z" />
<path fill="#62381f" opacity="1.00" d=" M 88.71 173.52 C 92.27 176.91 95.04 181.13 99.27 183.79 C 102.29 186.18 105.93 187.66 108.90 190.10 C 110.62 193.04 110.67 196.69 112.49 199.61 C 113.75 201.66 116.44 201.10 118.48 201.33 C 122.92 207.34 127.37 213.36 131.61 219.52 C 121.90 213.87 112.32 208.01 102.67 202.27 C 98.14 207.57 93.68 212.94 89.14 218.25 C 89.57 210.50 90.04 202.76 90.49 195.01 C 84.22 191.74 77.90 188.56 71.66 185.25 C 77.62 184.73 83.58 184.21 89.55 183.77 C 89.25 180.35 88.93 176.94 88.71 173.52 Z" />
<path fill="#62381f" opacity="1.00" d=" M 112.98 183.56 C 119.37 184.19 125.57 185.84 131.73 187.58 C 126.44 189.17 121.29 191.17 116.51 193.96 C 114.40 190.90 114.82 186.81 112.98 183.56 Z" />
<path fill="#62381f" opacity="1.00" d=" M 201.04 201.45 L 201.75 201.39 C 206.66 204.31 211.11 207.96 215.09 212.05 C 217.71 214.91 219.66 218.57 219.89 222.50 C 218.52 220.59 217.12 218.70 215.77 216.79 C 211.13 221.85 206.58 227.00 201.97 232.09 C 204.50 225.44 206.13 218.51 207.53 211.56 C 200.52 208.40 193.35 205.58 186.46 202.14 C 191.32 201.82 196.19 201.89 201.04 201.45 Z" />
<path fill="#62381f" opacity="1.00" d=" M 164.32 206.53 L 165.86 208.04 C 167.77 219.20 169.35 230.47 170.66 241.72 C 170.70 245.88 170.79 250.05 171.50 254.16 C 167.18 258.61 162.57 262.82 158.97 267.91 C 161.56 258.78 164.16 249.64 165.97 240.31 C 160.60 235.01 153.99 231.17 146.89 228.70 C 152.53 227.99 158.17 227.23 163.82 226.51 C 164.04 219.85 164.08 213.19 164.32 206.53 Z" />
<path fill="#62381f" opacity="1.00" d=" M 169.01 211.73 C 172.85 216.44 176.01 221.62 178.97 226.90 C 184.67 228.79 190.61 229.86 196.39 231.46 C 192.76 235.13 188.99 238.66 185.25 242.23 C 188.72 251.12 191.62 260.37 192.01 269.97 C 187.66 264.34 183.38 258.63 178.40 253.53 C 177.26 252.31 175.84 251.41 174.33 250.74 C 172.52 243.30 172.12 235.55 170.87 228.00 C 170.26 222.57 169.06 217.20 169.01 211.73 Z" />
<path fill="#62381f" opacity="1.00" d=" M 223.11 222.75 C 226.63 227.66 228.09 233.65 229.64 239.40 C 231.70 246.79 233.06 254.36 233.96 261.97 C 234.14 273.71 237.04 285.17 240.07 296.44 C 237.71 298.46 235.36 300.48 233.01 302.51 C 234.17 295.67 235.07 288.79 236.40 281.98 C 235.75 281.58 234.46 280.80 233.81 280.41 C 233.79 283.00 233.73 285.60 233.61 288.20 C 233.39 280.58 234.01 272.89 232.42 265.37 C 231.47 254.65 229.24 244.07 226.24 233.74 C 225.19 230.08 223.81 226.50 223.11 222.75 Z" />
<path fill="#62381f" opacity="1.00" d=" M 53.75 236.65 C 56.27 243.24 56.96 250.43 58.80 257.24 C 65.79 258.24 72.78 259.22 79.77 260.23 C 73.85 263.97 67.75 267.40 61.73 270.97 C 62.93 278.04 64.28 285.08 65.48 292.15 C 60.05 287.53 54.72 282.79 49.42 278.02 C 43.04 281.20 36.85 284.75 30.46 287.90 C 33.20 281.35 35.97 274.81 38.74 268.27 C 33.63 263.31 28.45 258.42 23.32 253.48 C 30.45 254.29 37.58 255.11 44.73 255.64 C 47.50 249.20 50.74 242.98 53.75 236.65 Z" />
<path fill="#62381f" opacity="1.00" d=" M 110.21 280.03 C 113.14 271.98 115.78 263.84 118.62 255.77 C 121.83 264.39 124.45 273.21 127.89 281.74 C 135.35 281.99 142.81 282.22 150.27 282.49 C 144.44 286.64 138.39 290.45 132.56 294.59 C 135.09 304.43 137.54 314.30 139.95 324.17 C 133.83 317.28 127.36 310.74 121.09 303.99 C 113.41 310.60 105.41 316.84 97.73 323.45 C 100.88 314.06 103.19 304.42 106.25 295.00 C 104.45 293.55 102.61 292.16 100.74 290.80 C 101.13 286.22 100.85 281.60 101.31 277.03 C 101.55 278.16 101.67 279.31 101.66 280.48 C 104.51 280.35 107.36 280.17 110.21 280.03 Z" />
<path fill="#62381f" opacity="1.00" d=" M 215.91 258.63 C 220.52 263.82 224.69 269.54 227.09 276.12 C 228.09 278.49 228.40 281.51 231.05 282.70 C 231.11 291.47 230.34 300.23 229.22 308.92 C 229.51 305.23 226.35 302.73 224.61 299.83 C 218.58 305.97 213.29 312.77 207.90 319.45 C 207.40 310.25 209.96 301.10 214.73 293.25 C 209.00 288.19 201.71 285.57 194.55 283.27 C 201.01 282.29 207.48 281.38 213.95 280.54 C 215.94 273.42 216.33 265.98 215.91 258.63 Z" />
<path fill="#62381f" opacity="1.00" d=" M 177.15 308.75 C 181.71 316.73 184.56 325.57 188.32 333.95 C 194.56 334.43 200.80 334.81 207.05 335.24 C 201.81 339.90 196.61 344.60 191.31 349.19 C 194.28 358.78 197.19 368.39 199.38 378.20 C 194.27 372.39 189.17 366.56 184.15 360.66 C 182.73 359.07 182.44 356.88 181.91 354.90 C 179.79 341.37 179.22 327.63 177.29 314.07 C 177.01 312.31 177.03 310.52 177.15 308.75 Z" />
<path fill="#62381f" opacity="1.00" d=" M 40.08 330.99 C 41.63 323.94 43.51 316.97 45.15 309.94 C 48.27 316.41 51.32 322.91 54.63 329.28 C 61.56 328.59 68.53 328.31 75.49 328.16 C 70.32 332.78 65.31 337.59 60.60 342.68 C 63.46 349.32 66.39 355.94 68.97 362.70 C 62.66 359.19 56.33 355.73 50.00 352.26 C 44.56 356.95 39.17 361.68 33.70 366.34 C 34.80 359.28 36.00 352.24 37.13 345.19 C 30.98 341.60 24.94 337.85 18.82 334.22 C 25.81 332.63 33.01 332.14 40.08 330.99 Z" />
<path fill="#62381f" opacity="1.00" d=" M 176.10 322.97 C 177.85 334.82 178.24 346.87 180.17 358.73 C 172.10 365.00 164.17 371.47 155.96 377.57 C 160.68 367.97 165.40 358.37 170.56 349.00 C 163.61 345.21 156.40 341.88 149.66 337.72 C 157.66 336.51 165.69 335.51 173.72 334.51 C 174.65 330.69 175.68 326.88 176.10 322.97 Z" />
<path fill="#62381f" opacity="1.00" d=" M 229.60 335.28 C 235.45 335.72 241.27 336.42 247.11 336.81 C 248.23 346.20 247.83 355.74 247.01 365.14 C 243.48 366.83 240.03 368.66 236.58 370.49 C 239.60 363.92 242.20 357.17 245.29 350.64 C 240.20 345.37 234.87 340.37 229.60 335.28 Z" />
<path fill="#62381f" opacity="1.00" d=" M 107.13 386.97 C 109.85 377.52 112.41 368.03 115.29 358.62 C 118.23 369.00 121.08 379.39 124.05 389.75 C 133.08 390.35 142.10 391.08 151.13 391.69 C 145.78 394.63 140.76 398.20 136.43 402.50 C 137.96 402.39 139.49 402.28 141.02 402.19 C 140.42 403.54 139.80 404.88 139.18 406.22 C 138.73 405.57 138.27 404.92 137.82 404.28 C 136.73 405.47 135.59 406.62 134.28 407.58 C 134.36 406.76 134.52 405.11 134.60 404.29 C 132.93 405.76 131.28 407.26 129.69 408.81 C 131.69 410.05 136.64 412.02 133.48 414.73 C 134.45 417.38 135.38 420.05 136.28 422.73 C 132.41 422.72 128.53 422.69 124.66 422.79 C 122.35 420.96 120.06 419.14 117.80 417.26 C 115.36 418.85 112.94 420.48 110.50 422.08 C 106.16 421.99 101.82 421.90 97.49 422.04 C 98.35 419.84 99.29 417.67 100.25 415.52 C 100.39 416.14 100.66 417.39 100.80 418.01 C 102.20 418.43 103.61 418.86 105.01 419.30 C 106.44 418.86 107.87 418.43 109.30 418.01 C 109.50 413.89 109.48 409.72 108.30 405.73 C 108.79 405.05 109.29 404.37 109.79 403.70 C 107.36 403.70 104.93 403.64 102.51 403.54 C 99.81 400.40 95.96 398.65 92.64 396.30 C 92.74 400.20 92.63 404.11 92.25 407.99 C 92.54 402.21 92.60 396.41 92.16 390.64 C 96.21 390.41 100.26 390.22 104.32 390.22 C 105.61 393.18 107.66 395.71 110.01 397.90 C 108.27 395.67 106.46 393.50 104.91 391.13 C 105.83 389.84 106.75 388.52 107.13 386.97 M 122.25 401.51 C 121.40 402.19 121.37 404.70 122.81 404.53 C 123.65 403.83 123.69 401.33 122.25 401.51 M 135.19 403.33 C 135.79 403.83 135.79 403.83 135.19 403.33 M 132.24 412.29 C 132.81 412.83 132.81 412.83 132.24 412.29 Z" />
<path fill="#62381f" opacity="1.00" d=" M 214.80 396.44 C 217.71 387.40 220.12 378.20 221.75 368.84 C 221.24 379.90 219.00 390.91 219.94 402.01 C 220.36 407.35 220.44 413.38 216.88 417.77 C 214.39 419.96 211.02 420.68 207.86 421.29 C 208.95 417.25 210.74 413.46 212.64 409.75 C 207.39 405.89 202.28 401.85 196.99 398.05 C 201.79 397.56 206.60 397.12 211.42 396.86 C 211.42 398.41 211.07 400.02 211.45 401.56 C 213.46 401.53 212.15 397.74 212.25 396.97 C 212.89 396.84 214.17 396.58 214.80 396.44 Z" />
<path fill="#62381f" opacity="1.00" d=" M 54.44 388.83 C 58.39 394.60 62.14 400.50 65.63 406.55 C 72.23 404.63 79.00 403.45 85.73 402.07 C 81.33 407.30 76.90 412.50 72.51 417.74 C 76.03 423.70 79.27 429.82 82.85 435.74 C 76.42 433.47 70.29 430.39 63.82 428.26 C 59.08 433.17 54.63 438.37 49.88 443.28 C 50.04 436.49 50.84 429.73 51.02 422.94 C 44.89 420.06 38.61 417.50 32.57 414.42 C 39.14 412.74 45.69 410.98 52.24 409.23 C 52.98 402.43 53.77 395.64 54.44 388.83 Z" />
<path fill="#62381f" opacity="1.00" d=" M 247.19 401.63 L 247.16 400.91 C 247.51 405.36 248.53 410.15 246.34 414.30 C 244.78 416.70 247.90 418.22 249.23 419.80 C 248.63 421.50 247.82 423.16 247.63 424.99 C 248.39 427.99 249.25 431.02 248.86 434.17 C 245.84 436.08 242.79 437.98 239.72 439.82 C 242.07 433.40 244.42 426.97 246.89 420.59 C 241.64 416.08 236.43 411.52 231.09 407.12 C 236.54 407.22 242.00 407.42 247.45 407.71 C 247.36 405.68 247.28 403.65 247.19 401.63 Z" />
<path fill="#62381f" opacity="1.00" d=" M 104.50 404.26 C 104.95 404.73 104.95 404.73 104.50 404.26 Z" />
<path fill="#62381f" opacity="1.00" d=" M 101.20 418.06 C 101.71 414.65 102.85 411.32 105.02 408.60 C 106.99 411.38 108.41 414.54 108.83 417.95 C 106.01 417.98 105.72 415.08 105.07 413.10 C 104.33 415.10 103.82 417.74 101.20 418.06 Z" />
</g>
</svg>
