<?xml version="1.0" encoding="UTF-8" ?>
<!DOCTYPE svg PUBLIC "-//W3C//DTD SVG 1.1//EN" "http://www.w3.org/Graphics/SVG/1.1/DTD/svg11.dtd">
<svg width="512pt" height="512pt" viewBox="0 0 512 512" version="1.1" xmlns="http://www.w3.org/2000/svg">
<g id="#000000ff">
<path fill="#000000" opacity="1.00" d=" M 437.38 16.44 C 441.56 14.89 446.51 17.77 447.49 22.05 C 448.50 25.65 446.55 29.66 443.19 31.22 C 433.04 36.41 422.84 41.51 412.66 46.65 C 409.08 48.60 404.86 47.88 400.96 48.20 C 383.53 49.13 366.24 52.31 349.54 57.36 C 340.62 60.26 331.61 63.48 323.93 68.99 C 321.12 70.96 318.73 74.22 314.97 74.19 C 310.57 74.41 306.58 70.44 306.79 66.04 C 306.75 63.05 308.78 60.63 310.96 58.83 C 319.52 51.64 329.94 47.16 340.40 43.51 C 361.53 36.41 383.74 32.85 405.96 31.88 C 416.62 27.15 426.76 21.25 437.38 16.44 Z" />
<path fill="#000000" opacity="1.00" d=" M 277.25 21.28 C 281.33 19.67 286.34 22.15 287.60 26.33 C 288.60 29.19 287.62 32.37 285.61 34.54 C 278.31 42.89 270.90 51.15 263.62 59.51 C 262.04 61.25 260.37 63.25 257.93 63.71 C 254.98 64.20 251.97 64.00 249.00 64.08 C 224.71 64.53 200.26 67.55 177.18 75.38 C 160.06 81.12 143.88 89.66 129.51 100.60 C 110.95 114.64 95.52 132.41 82.34 151.49 C 79.20 155.95 76.56 160.83 72.52 164.57 C 65.14 171.53 55.20 176.15 44.95 176.01 C 37.95 175.94 30.95 176.10 23.96 175.95 C 19.70 176.07 15.91 172.25 16.02 168.00 C 15.90 163.80 19.63 159.97 23.85 160.05 C 31.27 159.86 38.68 160.12 46.10 159.97 C 51.04 159.89 55.70 157.66 59.55 154.70 C 63.28 151.91 65.48 147.73 68.08 143.99 C 81.78 123.91 97.86 105.25 117.01 90.19 C 133.50 77.19 152.21 67.00 172.12 60.33 C 197.82 51.53 225.07 48.44 252.11 47.92 C 258.15 42.06 263.35 35.28 269.08 29.08 C 271.70 26.41 273.71 22.83 277.25 21.28 Z" />
<path fill="#000000" opacity="1.00" d=" M 432.27 58.01 C 433.25 53.89 437.85 51.13 441.95 52.26 C 444.61 52.84 446.54 55.00 447.66 57.38 C 463.25 88.13 478.78 118.92 494.44 149.64 C 498.75 159.41 495.03 172.25 485.91 177.92 C 477.54 181.89 469.06 185.64 460.62 189.45 C 457.46 191.07 453.39 190.60 450.95 187.95 C 439.80 176.71 428.77 165.33 417.67 154.04 C 405.16 153.89 393.00 149.05 383.13 141.49 C 379.06 147.99 375.17 154.61 371.03 161.05 C 369.15 164.16 365.09 165.57 361.68 164.39 C 356.97 162.92 354.74 156.74 357.52 152.63 C 362.33 144.64 367.29 136.74 372.16 128.79 C 370.81 124.85 368.78 120.47 370.47 116.32 C 372.25 111.92 378.30 110.01 382.18 112.89 C 386.38 115.43 385.22 121.23 388.53 124.47 C 396.48 133.62 408.97 138.74 421.06 137.86 C 423.72 137.71 425.87 139.51 427.61 141.30 C 437.85 151.85 448.19 162.31 458.45 172.84 C 464.52 170.11 470.61 167.40 476.66 164.61 C 480.26 163.08 480.85 158.06 479.15 154.89 C 464.46 125.91 449.77 96.93 435.05 67.97 C 433.56 64.88 431.21 61.62 432.27 58.01 Z" />
<path fill="#000000" opacity="1.00" d=" M 275.42 75.08 C 276.70 70.89 281.79 68.42 285.85 70.14 C 289.20 71.32 290.59 74.85 292.29 77.65 C 311.45 110.87 330.67 144.06 349.84 177.28 C 356.47 188.85 351.88 205.75 339.64 211.54 C 332.07 215.31 324.57 219.23 317.02 223.02 C 314.46 224.40 311.23 224.99 308.61 223.45 C 306.18 221.91 304.25 219.74 302.14 217.82 C 291.08 207.52 280.05 197.20 268.96 186.93 C 253.68 188.33 238.12 183.09 226.33 173.37 C 215.02 191.41 203.81 209.53 192.50 227.57 C 190.44 230.53 192.20 234.26 192.14 237.55 C 193.61 259.71 194.15 282.63 187.19 304.00 C 199.47 304.01 211.75 303.98 224.03 304.01 C 232.18 303.98 240.25 307.23 246.10 312.90 C 252.36 318.83 256.01 327.37 255.98 335.99 C 256.03 358.65 255.97 381.31 256.01 403.97 C 256.75 417.79 252.32 431.81 243.69 442.63 C 231.79 459.06 220.06 475.61 208.19 492.06 C 206.59 494.42 203.91 496.11 200.99 495.94 C 197.32 495.90 194.10 493.02 193.40 489.46 C 189.33 473.66 185.30 457.86 181.23 442.07 C 180.42 439.40 180.34 436.33 182.13 434.04 C 185.16 429.80 188.56 425.83 191.67 421.64 C 193.39 419.46 195.15 416.85 198.08 416.28 C 201.36 415.76 204.69 416.03 208.00 416.01 C 208.00 394.67 208.00 373.34 208.00 352.00 C 192.27 352.00 176.55 351.99 160.82 352.01 C 165.77 361.45 171.62 370.67 173.79 381.26 C 176.56 393.04 174.57 406.27 166.75 415.76 C 157.55 427.28 142.26 431.79 128.01 431.97 C 94.03 432.06 60.04 431.95 26.06 432.02 C 23.55 432.03 20.82 431.85 18.86 430.09 C 15.90 427.73 15.26 423.30 17.05 420.04 C 23.64 406.35 30.24 392.66 36.86 378.98 C 38.33 375.44 42.32 373.77 45.96 373.98 C 52.94 374.14 59.94 374.01 66.91 374.42 C 72.27 375.37 74.66 381.10 78.91 383.90 C 92.09 384.14 105.30 383.94 118.49 383.99 C 116.61 381.30 114.29 378.88 112.95 375.86 C 111.45 371.90 113.81 367.14 117.78 365.78 C 121.16 364.44 125.16 365.88 127.16 368.86 C 131.72 374.97 136.30 381.07 140.79 387.23 C 143.41 390.55 142.71 395.82 139.30 398.32 C 137.56 399.79 135.21 400.00 133.03 400.01 C 115.02 400.00 97.00 399.97 78.99 400.03 C 76.79 399.97 74.50 400.17 72.40 399.43 C 68.15 397.38 65.91 392.77 62.01 390.32 C 57.78 389.92 53.51 390.17 49.26 390.02 C 45.11 398.69 40.90 407.33 36.74 415.99 C 63.84 416.01 90.93 415.99 118.03 416.00 C 127.93 416.07 138.50 416.36 147.42 411.35 C 153.19 408.32 157.61 402.66 158.57 396.15 C 160.00 387.40 156.93 378.69 152.86 371.06 C 149.27 364.31 145.64 357.57 142.02 350.83 C 134.39 348.64 127.47 344.39 122.04 338.61 C 90.85 347.54 58.33 351.35 25.95 351.98 C 22.54 352.33 18.75 351.15 17.06 347.95 C 14.38 343.64 17.07 337.27 22.06 336.28 C 27.03 335.60 32.08 336.03 37.08 335.67 C 62.94 334.33 88.83 331.06 113.86 324.28 C 111.15 315.41 112.18 306.05 112.00 296.93 C 111.71 293.34 113.81 289.65 117.29 288.49 C 121.53 286.80 126.78 289.60 127.72 294.06 C 128.94 303.02 126.35 312.53 129.83 321.14 C 133.35 329.95 142.49 336.09 151.98 335.98 C 173.01 336.03 194.05 335.98 215.09 336.00 C 218.94 335.67 222.89 338.20 223.72 342.06 C 224.21 345.01 223.97 348.02 224.00 351.00 C 223.99 375.01 224.01 399.03 224.00 423.04 C 224.39 427.19 221.37 431.46 217.11 431.86 C 212.72 432.21 208.32 431.92 203.93 431.99 C 201.77 434.74 199.65 437.53 197.40 440.22 C 199.66 449.98 202.33 459.64 204.79 469.36 C 213.56 457.27 222.17 445.07 230.96 432.99 C 236.65 425.61 240.27 416.37 240.02 406.97 C 239.99 384.98 239.99 362.99 240.01 340.99 C 239.95 337.38 240.32 333.60 238.88 330.19 C 236.57 324.24 230.50 319.91 224.06 320.02 C 210.01 319.92 195.96 320.09 181.91 319.96 C 177.11 319.99 172.19 317.27 170.38 312.71 C 168.74 308.97 169.56 304.75 171.11 301.14 C 174.81 292.25 176.06 282.58 176.72 273.05 C 177.63 258.37 176.82 243.63 175.25 229.02 C 174.81 226.50 175.73 224.08 177.12 222.02 C 189.91 201.65 202.52 181.15 215.34 160.80 C 213.62 156.40 210.91 151.94 211.49 147.05 C 212.36 141.86 218.93 138.93 223.36 141.81 C 227.96 144.51 227.23 150.76 230.50 154.54 C 239.34 166.59 255.36 172.93 270.08 170.61 C 272.94 170.00 275.77 171.20 277.77 173.23 C 289.74 184.40 301.72 195.57 313.70 206.74 C 319.90 203.57 326.11 200.45 332.31 197.28 C 337.15 194.93 337.94 188.00 335.12 183.79 C 315.58 149.99 296.07 116.17 276.52 82.37 C 275.21 80.21 274.50 77.53 275.42 75.08 Z" />
<path fill="#000000" opacity="1.00" d=" M 296.14 246.89 C 296.50 243.02 300.18 239.93 304.03 240.01 C 307.86 239.95 311.48 243.05 311.86 246.89 C 312.51 252.13 310.74 258.15 314.29 262.67 C 319.27 269.29 327.98 271.90 335.97 271.99 C 350.35 272.06 364.73 271.92 379.10 272.04 C 383.43 271.86 387.29 275.71 387.15 280.04 C 387.57 300.69 387.78 321.35 388.17 342.00 C 388.37 344.97 387.55 348.22 385.00 350.02 C 380.39 353.32 373.86 350.76 369.35 354.25 C 367.05 355.85 364.82 357.55 362.55 359.18 C 364.60 367.62 366.61 376.08 368.67 384.52 C 375.91 376.46 383.03 368.28 390.25 360.20 C 396.25 353.68 400.13 344.93 400.03 335.99 C 399.99 317.32 400.04 298.64 400.00 279.97 C 400.07 271.07 395.53 261.75 387.32 257.76 C 382.91 255.49 377.81 256.05 373.02 256.00 C 363.31 255.96 353.59 256.09 343.89 255.95 C 338.91 256.09 334.86 250.81 336.26 246.04 C 337.07 242.62 340.35 239.99 343.89 240.05 C 355.61 239.93 367.34 240.02 379.06 240.01 C 387.77 239.87 396.44 243.21 402.81 249.15 C 411.37 256.91 416.01 268.49 415.98 279.98 C 416.03 298.31 415.97 316.64 416.01 334.97 C 416.33 348.20 411.04 361.40 402.00 371.01 C 391.48 382.83 381.08 394.76 370.53 406.54 C 367.85 409.78 362.55 410.32 359.40 407.48 C 357.38 405.95 356.72 403.39 356.14 401.07 C 352.81 387.04 349.39 373.03 346.01 359.01 C 345.22 356.33 345.23 353.20 347.10 350.96 C 349.15 348.65 351.92 347.15 354.36 345.32 C 359.86 341.67 364.85 336.21 372.02 336.55 C 371.83 320.37 371.54 304.19 371.31 288.00 C 359.20 287.96 347.08 288.06 334.97 287.96 C 323.46 287.78 311.86 283.39 303.79 275.03 C 286.78 282.44 268.19 285.10 249.95 287.65 C 240.32 288.43 230.63 287.78 220.97 288.02 C 217.57 287.92 213.64 288.56 210.87 286.11 C 207.09 283.15 207.11 276.79 210.91 273.85 C 213.98 271.23 218.29 272.16 221.99 271.99 C 230.82 271.85 239.67 272.33 248.49 271.72 C 264.67 269.43 281.09 267.06 296.33 260.89 C 296.03 256.23 295.75 251.55 296.14 246.89 Z" />
<path fill="#000000" opacity="1.00" d=" M 325.32 296.46 C 329.85 294.67 335.41 298.02 335.88 302.88 C 336.70 316.08 328.01 329.03 315.72 333.73 C 308.54 336.75 300.63 335.88 293.06 336.00 C 288.34 335.90 283.61 336.22 278.91 335.85 C 274.68 335.45 271.42 331.12 272.08 326.95 C 272.50 323.11 276.04 319.93 279.93 320.04 C 288.32 319.84 296.72 320.20 305.12 319.90 C 312.39 319.57 319.02 313.46 319.75 306.18 C 319.79 302.27 321.15 297.73 325.32 296.46 Z" />
</g>
</svg>
