<?xml version="1.0" encoding="UTF-8" ?>
<!DOCTYPE svg PUBLIC "-//W3C//DTD SVG 1.1//EN" "http://www.w3.org/Graphics/SVG/1.1/DTD/svg11.dtd">
<svg width="512pt" height="512pt" viewBox="0 0 512 512" version="1.1" xmlns="http://www.w3.org/2000/svg">
<g id="#323232ff">
<path fill="#323232" opacity="1.00" d=" M 90.18 36.44 C 152.21 16.48 217.90 8.02 282.97 11.58 C 330.12 13.05 376.34 31.28 412.16 61.90 C 441.46 61.94 470.76 61.86 500.06 61.94 C 506.10 61.57 511.49 66.46 512.00 72.43 L 512.00 73.69 C 511.73 79.39 506.90 82.88 502.54 85.67 C 488.43 95.51 474.41 105.49 460.26 115.29 C 456.79 117.81 452.50 119.32 449.40 122.24 C 444.70 212.49 440.45 302.79 435.92 393.05 C 435.26 403.73 435.48 414.58 432.76 425.01 C 427.27 447.15 410.84 466.24 389.69 474.81 C 377.74 479.45 365.00 484.29 351.96 481.98 C 342.95 480.83 334.97 476.26 327.27 471.76 C 321.02 468.16 314.33 464.98 309.26 459.72 C 300.78 451.26 296.55 438.80 298.11 426.92 C 298.86 421.30 300.19 415.69 299.74 409.97 C 299.47 403.63 297.42 397.56 295.27 391.64 C 285.74 364.85 276.22 338.05 266.73 311.24 C 266.17 308.98 263.93 308.00 262.20 306.76 C 258.41 304.34 255.16 301.20 251.76 298.28 C 235.74 341.01 216.98 382.95 192.57 421.59 C 176.99 445.62 159.20 468.78 136.28 486.27 C 128.28 491.77 120.21 497.44 110.95 500.63 C 105.47 502.69 98.76 499.44 97.01 493.86 C 95.33 489.33 96.94 483.78 100.99 481.07 C 104.50 478.71 108.60 477.44 112.22 475.27 C 133.98 462.30 150.68 442.62 165.12 422.14 C 178.63 402.68 190.17 381.92 200.63 360.69 C 214.05 332.92 226.02 304.43 235.96 275.22 C 228.97 259.63 226.76 241.99 230.02 225.19 C 212.62 231.42 195.09 237.42 178.38 245.37 C 151.44 257.70 125.36 272.50 102.78 291.82 C 99.25 294.88 94.81 298.07 89.87 296.65 C 81.63 295.44 78.24 283.88 84.22 278.21 C 94.82 268.27 106.74 259.85 118.84 251.85 C 146.56 234.39 176.37 220.34 207.17 209.25 C 218.08 205.02 229.46 202.16 240.50 198.34 C 244.05 194.92 246.27 190.31 250.02 187.03 C 257.99 178.52 268.17 172.48 278.72 167.72 C 292.05 161.78 305.37 155.79 318.68 149.82 C 321.94 148.36 325.72 147.43 329.17 148.84 C 334.64 150.81 337.79 157.44 335.71 162.91 C 334.53 166.67 331.06 169.00 327.63 170.50 C 314.22 176.48 300.83 182.52 287.43 188.52 C 282.52 190.70 277.66 193.08 273.35 196.30 C 261.65 204.80 253.67 218.20 251.75 232.54 C 249.23 248.74 253.99 265.90 264.49 278.49 C 273.64 289.76 287.58 296.81 302.02 297.96 C 319.51 299.37 337.05 300.26 354.54 301.69 C 360.65 302.00 365.73 307.83 364.96 313.96 C 364.52 320.26 358.18 324.81 352.06 323.99 C 332.57 322.45 312.98 321.85 293.55 319.55 C 300.93 340.42 308.37 361.27 315.78 382.13 C 318.60 389.85 321.25 397.74 321.96 405.98 C 322.82 413.37 321.90 420.78 320.69 428.06 C 319.66 433.63 321.18 439.69 325.24 443.74 C 328.97 447.39 333.83 449.51 338.29 452.12 C 335.51 440.81 332.61 429.53 329.82 418.22 C 328.83 414.40 329.16 410.00 331.89 406.95 C 335.27 402.76 341.81 401.75 346.31 404.71 C 349.15 406.37 350.74 409.44 351.58 412.53 C 355.68 428.30 359.27 444.20 363.59 459.91 C 370.69 457.87 377.76 455.60 384.44 452.39 C 393.39 447.99 400.67 440.69 405.81 432.21 C 400.07 432.48 394.26 434.09 389.78 437.82 C 385.75 440.77 383.72 446.14 378.73 447.79 C 373.79 449.60 367.94 447.22 365.42 442.67 C 363.31 439.07 363.56 434.35 365.88 430.91 C 375.68 415.83 394.61 407.52 412.36 410.30 C 415.16 361.06 417.28 311.77 419.83 262.52 C 422.01 218.22 424.23 173.93 426.39 129.63 C 410.81 132.37 394.33 131.38 379.59 125.41 C 373.50 122.84 371.20 114.46 375.09 109.12 C 377.40 105.56 381.94 103.63 386.11 104.43 C 389.85 105.09 393.40 106.52 397.13 107.24 C 413.49 110.69 431.15 107.43 445.15 98.27 C 451.93 93.84 458.45 89.04 465.09 84.41 C 436.06 84.41 407.04 84.40 378.01 84.42 C 374.85 84.37 371.44 84.02 368.94 81.88 C 364.17 78.31 363.29 70.72 367.17 66.18 C 368.83 63.87 371.59 62.88 374.15 61.91 C 349.34 46.59 320.95 37.07 291.88 34.63 C 251.55 31.85 210.85 33.36 170.96 40.08 C 136.72 45.46 103.26 54.98 70.74 66.88 C 52.64 73.46 34.55 80.06 16.45 86.63 C 12.79 88.03 8.42 88.20 5.10 85.86 C 1.86 83.91 0.36 80.18 0.00 76.57 L 0.00 75.66 C 0.65 70.89 4.06 66.94 8.64 65.54 C 35.80 55.78 62.74 45.41 90.18 36.44 Z" />
<path fill="#323232" opacity="1.00" d=" M 379.43 202.59 C 383.81 201.21 388.55 203.01 391.51 206.37 C 396.43 211.82 401.46 217.19 406.20 222.80 C 409.75 226.80 409.81 233.27 406.26 237.30 C 402.24 242.46 393.61 242.49 389.38 237.58 C 384.93 232.78 380.62 227.83 376.19 223.00 C 374.13 220.68 372.01 218.11 371.62 214.92 C 370.61 209.61 374.26 204.02 379.43 202.59 Z" />
</g>
</svg>
